# MagicaVoxel @ Ephtracy

# group
o 

# material
mtllib boy walk 1.mtl
usemtl palette

# normals
vn -1 0 0
vn 1 0 0
vn 0 0 1
vn 0 0 -1
vn 0 -1 0
vn 0 1 0

# texcoords
vt 0.0292969 0.5
vt 0.0605469 0.5
vt 0.369141 0.5
vt 0.373047 0.5
vt 0.396484 0.5
vt 0.822266 0.5
vt 0.833984 0.5
vt 0.978516 0.5
vt 0.986328 0.5
vt 0.994141 0.5

# verts
v -0.8 0.6 -0.1
v -0.8 0.6 -0.2
v -0.8 0.8 -0.1
v -0.8 0.8 -0.2
v -0.8 1.4 -0.1
v -0.8 1.4 -0.2
v -0.8 1.5 -0.1
v -0.8 1.5 -0.2
v -0.7 0.5 -0.1
v -0.7 0.5 -0.2
v -0.7 0.6 -0.1
v -0.7 0.6 -0.2
v -0.7 0.8 -0.1
v -0.7 0.8 -0.2
v -0.7 0.9 -0.1
v -0.7 0.9 -0.2
v -0.7 1.3 -0.1
v -0.7 1.3 -0.2
v -0.7 1.4 -0.1
v -0.7 1.4 -0.2
v -0.7 1.5 -0.1
v -0.7 1.5 -0.2
v -0.7 1.6 -0.1
v -0.7 1.6 -0.2
v -0.6 0.1 -0.1
v -0.6 0.1 -0.2
v -0.6 0.3 -0.1
v -0.6 0.3 -0.2
v -0.5 0 -0.1
v -0.5 0 -0.2
v -0.5 0.1 -0.1
v -0.5 0.1 -0.2
v -0.5 0.3 -0.1
v -0.5 0.3 -0.2
v -0.5 0.4 -0.1
v -0.5 0.4 -0.2
v -0.5 0.5 -0.1
v -0.5 0.5 -0.2
v -0.5 0.9 -0.1
v -0.5 0.9 -0.2
v -0.5 1.4 -0.1
v -0.5 1.4 -0.2
v -0.5 1.5 -0.1
v -0.5 1.5 -0.2
v -0.5 1.8 -0.1
v -0.5 1.8 -0.2
v -0.3 1.8 -0.1
v -0.3 1.8 -0.2
v -0.3 1.9 -0.1
v -0.3 1.9 -0.2
v 0.1 0 -0.1
v 0.1 0 -0.2
v 0.1 0.1 -0.1
v 0.1 0.1 -0.2
v -0.6 1.3 -0.1
v -0.6 1.3 -0.2
v -0.6 1.4 -0.1
v -0.6 1.4 -0.2
v -0.6 1.5 -0.1
v -0.6 1.5 -0.2
v -0.6 1.6 -0.1
v -0.6 1.6 -0.2
v -0.1 0 -0.1
v -0.1 0 -0.2
v -0.1 0.1 -0.1
v -0.1 0.1 -0.2
v 0.3 1.8 -0.1
v 0.3 1.8 -0.2
v 0.3 1.9 -0.1
v 0.3 1.9 -0.2
v 0.5 0 -0.1
v 0.5 0 -0.2
v 0.5 0.1 -0.1
v 0.5 0.1 -0.2
v 0.5 0.3 -0.1
v 0.5 0.3 -0.2
v 0.5 0.4 -0.1
v 0.5 0.4 -0.2
v 0.5 0.5 -0.1
v 0.5 0.5 -0.2
v 0.5 0.9 -0.1
v 0.5 0.9 -0.2
v 0.5 1.5 -0.1
v 0.5 1.5 -0.2
v 0.5 1.8 -0.1
v 0.5 1.8 -0.2
v 0.6 0.1 -0.1
v 0.6 0.1 -0.2
v 0.6 0.3 -0.1
v 0.6 0.3 -0.2
v 0.7 0.5 -0.1
v 0.7 0.5 -0.2
v 0.7 0.6 -0.1
v 0.7 0.6 -0.2
v 0.7 0.8 -0.1
v 0.7 0.8 -0.2
v 0.7 0.9 -0.1
v 0.7 0.9 -0.2
v 0.8 0.6 -0.1
v 0.8 0.6 -0.2
v 0.8 0.8 -0.1
v 0.8 0.8 -0.2
v -0.8 0.6 -0.1
v -0.8 0.8 -0.1
v -0.8 1.4 -0.1
v -0.8 1.5 -0.1
v -0.7 0.5 -0.1
v -0.7 0.6 -0.1
v -0.7 0.7 -0.1
v -0.7 0.8 -0.1
v -0.7 0.9 -0.1
v -0.7 1.3 -0.1
v -0.7 1.4 -0.1
v -0.7 1.5 -0.1
v -0.7 1.6 -0.1
v -0.6 0.1 -0.1
v -0.6 0.3 -0.1
v -0.6 1.3 -0.1
v -0.6 1.4 -0.1
v -0.6 1.5 -0.1
v -0.6 1.6 -0.1
v -0.5 0 -0.1
v -0.5 0.1 -0.1
v -0.5 0.2 -0.1
v -0.5 0.3 -0.1
v -0.5 0.4 -0.1
v -0.5 0.5 -0.1
v -0.5 0.6 -0.1
v -0.5 0.7 -0.1
v -0.5 0.8 -0.1
v -0.5 0.9 -0.1
v -0.5 1.4 -0.1
v -0.5 1.5 -0.1
v -0.5 1.8 -0.1
v -0.4 0.4 -0.1
v -0.4 0.6 -0.1
v -0.4 0.7 -0.1
v -0.4 0.9 -0.1
v -0.4 1.5 -0.1
v -0.4 1.6 -0.1
v -0.3 0.8 -0.1
v -0.3 0.9 -0.1
v -0.3 1.8 -0.1
v -0.3 1.9 -0.1
v -0.2 0.9 -0.1
v -0.2 1 -0.1
v -0.2 1.2 -0.1
v -0.2 1.4 -0.1
v -0.1 0 -0.1
v -0.1 0.1 -0.1
v -0.1 0.2 -0.1
v -0.1 0.3 -0.1
v -0.1 0.4 -0.1
v -0.1 0.7 -0.1
v -0.1 0.9 -0.1
v -0.1 1 -0.1
v -0.1 1.1 -0.1
v -0.1 1.2 -0.1
v -0.1 1.4 -0.1
v 5.96046e-008 0.4 -0.1
v 5.96046e-008 0.5 -0.1
v 5.96046e-008 0.6 -0.1
v 5.96046e-008 0.7 -0.1
v 0.1 0 -0.1
v 0.1 0.1 -0.1
v 0.1 0.2 -0.1
v 0.1 0.3 -0.1
v 0.1 0.4 -0.1
v 0.1 0.5 -0.1
v 0.1 0.6 -0.1
v 0.1 0.9 -0.1
v 0.1 1 -0.1
v 0.1 1.1 -0.1
v 0.1 1.2 -0.1
v 0.1 1.4 -0.1
v 0.1 1.5 -0.1
v 0.2 1 -0.1
v 0.2 1.1 -0.1
v 0.2 1.2 -0.1
v 0.2 1.4 -0.1
v 0.3 0.8 -0.1
v 0.3 0.9 -0.1
v 0.3 1.8 -0.1
v 0.3 1.9 -0.1
v 0.4 0.4 -0.1
v 0.4 0.6 -0.1
v 0.4 0.7 -0.1
v 0.4 0.9 -0.1
v 0.4 1.5 -0.1
v 0.4 1.6 -0.1
v 0.5 0 -0.1
v 0.5 0.1 -0.1
v 0.5 0.2 -0.1
v 0.5 0.3 -0.1
v 0.5 0.4 -0.1
v 0.5 0.5 -0.1
v 0.5 0.6 -0.1
v 0.5 0.7 -0.1
v 0.5 0.8 -0.1
v 0.5 0.9 -0.1
v 0.5 1.5 -0.1
v 0.5 1.8 -0.1
v 0.6 0.1 -0.1
v 0.6 0.3 -0.1
v 0.7 0.5 -0.1
v 0.7 0.6 -0.1
v 0.7 0.7 -0.1
v 0.7 0.8 -0.1
v 0.7 0.9 -0.1
v 0.8 0.6 -0.1
v 0.8 0.8 -0.1
v -0.8 0.6 -0.2
v -0.8 0.8 -0.2
v -0.8 1.4 -0.2
v -0.8 1.5 -0.2
v -0.7 0.5 -0.2
v -0.7 0.6 -0.2
v -0.7 0.7 -0.2
v -0.7 0.8 -0.2
v -0.7 0.9 -0.2
v -0.7 1.3 -0.2
v -0.7 1.4 -0.2
v -0.7 1.5 -0.2
v -0.7 1.6 -0.2
v -0.6 0.1 -0.2
v -0.6 0.3 -0.2
v -0.6 1.3 -0.2
v -0.6 1.4 -0.2
v -0.6 1.5 -0.2
v -0.6 1.6 -0.2
v -0.5 0 -0.2
v -0.5 0.1 -0.2
v -0.5 0.2 -0.2
v -0.5 0.3 -0.2
v -0.5 0.4 -0.2
v -0.5 0.5 -0.2
v -0.5 0.6 -0.2
v -0.5 0.7 -0.2
v -0.5 0.8 -0.2
v -0.5 0.9 -0.2
v -0.5 1.4 -0.2
v -0.5 1.5 -0.2
v -0.5 1.8 -0.2
v -0.4 0.4 -0.2
v -0.4 0.6 -0.2
v -0.4 0.7 -0.2
v -0.4 0.9 -0.2
v -0.4 1.5 -0.2
v -0.4 1.6 -0.2
v -0.3 0.8 -0.2
v -0.3 0.9 -0.2
v -0.3 1.8 -0.2
v -0.3 1.9 -0.2
v -0.2 0.9 -0.2
v -0.2 1 -0.2
v -0.2 1.2 -0.2
v -0.2 1.4 -0.2
v -0.1 0 -0.2
v -0.1 0.1 -0.2
v -0.1 0.2 -0.2
v -0.1 0.3 -0.2
v -0.1 0.4 -0.2
v -0.1 0.7 -0.2
v -0.1 0.9 -0.2
v -0.1 1 -0.2
v -0.1 1.1 -0.2
v -0.1 1.2 -0.2
v -0.1 1.4 -0.2
v 5.96046e-008 0.4 -0.2
v 5.96046e-008 0.5 -0.2
v 5.96046e-008 0.6 -0.2
v 5.96046e-008 0.7 -0.2
v 0.1 0 -0.2
v 0.1 0.1 -0.2
v 0.1 0.2 -0.2
v 0.1 0.3 -0.2
v 0.1 0.4 -0.2
v 0.1 0.5 -0.2
v 0.1 0.6 -0.2
v 0.1 0.9 -0.2
v 0.1 1 -0.2
v 0.1 1.1 -0.2
v 0.1 1.2 -0.2
v 0.1 1.4 -0.2
v 0.1 1.5 -0.2
v 0.2 1 -0.2
v 0.2 1.1 -0.2
v 0.2 1.2 -0.2
v 0.2 1.4 -0.2
v 0.3 0.8 -0.2
v 0.3 0.9 -0.2
v 0.3 1.8 -0.2
v 0.3 1.9 -0.2
v 0.4 0.4 -0.2
v 0.4 0.6 -0.2
v 0.4 0.7 -0.2
v 0.4 0.9 -0.2
v 0.4 1.5 -0.2
v 0.4 1.6 -0.2
v 0.5 0 -0.2
v 0.5 0.1 -0.2
v 0.5 0.2 -0.2
v 0.5 0.3 -0.2
v 0.5 0.4 -0.2
v 0.5 0.5 -0.2
v 0.5 0.6 -0.2
v 0.5 0.7 -0.2
v 0.5 0.8 -0.2
v 0.5 0.9 -0.2
v 0.5 1.5 -0.2
v 0.5 1.8 -0.2
v 0.6 0.1 -0.2
v 0.6 0.3 -0.2
v 0.7 0.5 -0.2
v 0.7 0.6 -0.2
v 0.7 0.7 -0.2
v 0.7 0.8 -0.2
v 0.7 0.9 -0.2
v 0.8 0.6 -0.2
v 0.8 0.8 -0.2
v -0.5 0 -0.1
v -0.1 0 -0.1
v 0.1 0 -0.1
v 0.5 0 -0.1
v -0.5 0 -0.2
v -0.1 0 -0.2
v 0.1 0 -0.2
v 0.5 0 -0.2
v -0.6 0.1 -0.1
v -0.5 0.1 -0.1
v -0.1 0.1 -0.1
v 0.1 0.1 -0.1
v 0.5 0.1 -0.1
v 0.6 0.1 -0.1
v -0.6 0.1 -0.2
v -0.5 0.1 -0.2
v -0.1 0.1 -0.2
v 0.1 0.1 -0.2
v 0.5 0.1 -0.2
v 0.6 0.1 -0.2
v -0.7 0.5 -0.1
v -0.5 0.5 -0.1
v 0.5 0.5 -0.1
v 0.7 0.5 -0.1
v -0.7 0.5 -0.2
v -0.5 0.5 -0.2
v 0.5 0.5 -0.2
v 0.7 0.5 -0.2
v -0.8 0.6 -0.1
v -0.7 0.6 -0.1
v 0.7 0.6 -0.1
v 0.8 0.6 -0.1
v -0.8 0.6 -0.2
v -0.7 0.6 -0.2
v 0.7 0.6 -0.2
v 0.8 0.6 -0.2
v -0.7 1.3 -0.1
v -0.6 1.3 -0.1
v -0.7 1.3 -0.2
v -0.6 1.3 -0.2
v -0.8 1.4 -0.1
v -0.7 1.4 -0.1
v -0.6 1.4 -0.1
v -0.5 1.4 -0.1
v -0.8 1.4 -0.2
v -0.7 1.4 -0.2
v -0.6 1.4 -0.2
v -0.5 1.4 -0.2
v -0.6 0.3 -0.1
v -0.5 0.3 -0.1
v 0.5 0.3 -0.1
v 0.6 0.3 -0.1
v -0.6 0.3 -0.2
v -0.5 0.3 -0.2
v 0.5 0.3 -0.2
v 0.6 0.3 -0.2
v -0.8 0.8 -0.1
v -0.7 0.8 -0.1
v 0.7 0.8 -0.1
v 0.8 0.8 -0.1
v -0.8 0.8 -0.2
v -0.7 0.8 -0.2
v 0.7 0.8 -0.2
v 0.8 0.8 -0.2
v -0.7 0.9 -0.1
v -0.5 0.9 -0.1
v 0.5 0.9 -0.1
v 0.7 0.9 -0.1
v -0.7 0.9 -0.2
v -0.5 0.9 -0.2
v 0.5 0.9 -0.2
v 0.7 0.9 -0.2
v -0.8 1.5 -0.1
v -0.7 1.5 -0.1
v -0.6 1.5 -0.1
v -0.5 1.5 -0.1
v -0.8 1.5 -0.2
v -0.7 1.5 -0.2
v -0.6 1.5 -0.2
v -0.5 1.5 -0.2
v -0.7 1.6 -0.1
v -0.6 1.6 -0.1
v -0.7 1.6 -0.2
v -0.6 1.6 -0.2
v -0.5 1.8 -0.1
v -0.3 1.8 -0.1
v 0.3 1.8 -0.1
v 0.5 1.8 -0.1
v -0.5 1.8 -0.2
v -0.3 1.8 -0.2
v 0.3 1.8 -0.2
v 0.5 1.8 -0.2
v -0.3 1.9 -0.1
v 0.3 1.9 -0.1
v -0.3 1.9 -0.2
v 0.3 1.9 -0.2

# faces
f 3/3/1 2/3/1 1/3/1
f 4/3/1 2/3/1 3/3/1
f 7/5/1 6/5/1 5/5/1
f 8/5/1 6/5/1 7/5/1
f 11/3/1 10/3/1 9/3/1
f 12/3/1 10/3/1 11/3/1
f 15/3/1 14/3/1 13/3/1
f 16/3/1 14/3/1 15/3/1
f 19/5/1 18/5/1 17/5/1
f 20/5/1 18/5/1 19/5/1
f 23/5/1 22/5/1 21/5/1
f 24/5/1 22/5/1 23/5/1
f 27/10/1 26/10/1 25/10/1
f 28/10/1 26/10/1 27/10/1
f 31/10/1 30/10/1 29/10/1
f 32/10/1 30/10/1 31/10/1
f 35/10/1 34/10/1 33/10/1
f 36/10/1 34/10/1 35/10/1
f 37/7/1 36/7/1 35/7/1
f 38/7/1 36/7/1 37/7/1
f 41/4/1 40/4/1 39/4/1
f 42/4/1 40/4/1 41/4/1
f 45/5/1 44/5/1 43/5/1
f 46/5/1 44/5/1 45/5/1
f 49/5/1 48/5/1 47/5/1
f 50/5/1 48/5/1 49/5/1
f 53/10/1 52/10/1 51/10/1
f 54/10/1 52/10/1 53/10/1
f 55/5/2 56/5/2 57/5/2
f 57/5/2 56/5/2 58/5/2
f 59/5/2 60/5/2 61/5/2
f 61/5/2 60/5/2 62/5/2
f 63/10/2 64/10/2 65/10/2
f 65/10/2 64/10/2 66/10/2
f 67/5/2 68/5/2 69/5/2
f 69/5/2 68/5/2 70/5/2
f 71/10/2 72/10/2 73/10/2
f 73/10/2 72/10/2 74/10/2
f 75/10/2 76/10/2 77/10/2
f 77/10/2 76/10/2 78/10/2
f 77/7/2 78/7/2 79/7/2
f 79/7/2 78/7/2 80/7/2
f 81/4/2 82/4/2 83/4/2
f 83/4/2 82/4/2 84/4/2
f 83/5/2 84/5/2 85/5/2
f 85/5/2 84/5/2 86/5/2
f 87/10/2 88/10/2 89/10/2
f 89/10/2 88/10/2 90/10/2
f 91/3/2 92/3/2 93/3/2
f 93/3/2 92/3/2 94/3/2
f 95/3/2 96/3/2 97/3/2
f 97/3/2 96/3/2 98/3/2
f 99/3/2 100/3/2 101/3/2
f 101/3/2 100/3/2 102/3/2
f 108/3/3 104/3/3 103/3/3
f 109/3/3 104/3/3 108/3/3
f 110/3/3 104/3/3 109/3/3
f 113/5/3 106/5/3 105/5/3
f 114/5/3 106/5/3 113/5/3
f 118/5/3 113/5/3 112/5/3
f 118/5/3 114/5/3 113/5/3
f 118/5/3 115/5/3 114/5/3
f 119/5/3 115/5/3 118/5/3
f 120/5/3 115/5/3 119/5/3
f 121/5/3 115/5/3 120/5/3
f 123/10/3 117/10/3 116/10/3
f 124/10/3 117/10/3 123/10/3
f 125/10/3 117/10/3 124/10/3
f 127/3/3 108/3/3 107/3/3
f 128/1/3 109/1/3 108/1/3
f 128/3/3 108/3/3 127/3/3
f 129/2/3 110/2/3 109/2/3
f 129/1/3 109/1/3 128/1/3
f 130/3/3 111/3/3 110/3/3
f 130/2/3 110/2/3 129/2/3
f 131/3/3 111/3/3 130/3/3
f 132/5/3 120/5/3 119/5/3
f 133/5/3 120/5/3 132/5/3
f 135/10/3 126/10/3 125/10/3
f 135/7/3 127/7/3 126/7/3
f 135/7/3 128/7/3 127/7/3
f 136/1/3 129/1/3 128/1/3
f 136/7/3 128/7/3 135/7/3
f 137/10/3 131/10/3 130/10/3
f 137/1/3 129/1/3 136/1/3
f 137/10/3 130/10/3 129/10/3
f 138/4/3 132/4/3 131/4/3
f 138/10/3 131/10/3 137/10/3
f 138/4/3 133/4/3 132/4/3
f 139/5/3 134/5/3 133/5/3
f 139/4/3 133/4/3 138/4/3
f 140/5/3 134/5/3 139/5/3
f 141/4/3 138/4/3 137/4/3
f 142/2/3 139/2/3 138/2/3
f 142/4/3 138/4/3 141/4/3
f 142/2/3 140/2/3 139/2/3
f 143/5/3 134/5/3 140/5/3
f 145/2/3 140/2/3 142/2/3
f 145/1/3 142/1/3 141/1/3
f 146/2/3 140/2/3 145/2/3
f 147/2/3 140/2/3 146/2/3
f 148/2/3 140/2/3 147/2/3
f 149/10/3 123/10/3 122/10/3
f 150/9/3 124/9/3 123/9/3
f 150/10/3 123/10/3 149/10/3
f 151/8/3 125/8/3 124/8/3
f 151/9/3 124/9/3 150/9/3
f 152/10/3 135/10/3 125/10/3
f 152/8/3 125/8/3 151/8/3
f 153/6/3 137/6/3 136/6/3
f 153/10/3 135/10/3 152/10/3
f 153/6/3 136/6/3 135/6/3
f 154/4/3 141/4/3 137/4/3
f 154/6/3 137/6/3 153/6/3
f 155/1/3 145/1/3 141/1/3
f 155/1/3 146/1/3 145/1/3
f 156/2/3 147/2/3 146/2/3
f 156/1/3 146/1/3 155/1/3
f 157/2/3 147/2/3 156/2/3
f 158/10/3 148/10/3 147/10/3
f 158/2/3 147/2/3 157/2/3
f 159/2/3 140/2/3 148/2/3
f 159/10/3 148/10/3 158/10/3
f 160/7/3 153/7/3 152/7/3
f 160/7/3 154/7/3 153/7/3
f 161/7/3 154/7/3 160/7/3
f 162/7/3 154/7/3 161/7/3
f 163/4/3 141/4/3 154/4/3
f 163/7/3 154/7/3 162/7/3
f 165/10/3 151/10/3 150/10/3
f 166/9/3 152/9/3 151/9/3
f 166/10/3 151/10/3 165/10/3
f 167/7/3 160/7/3 152/7/3
f 167/9/3 152/9/3 166/9/3
f 168/6/3 161/6/3 160/6/3
f 168/7/3 160/7/3 167/7/3
f 169/7/3 162/7/3 161/7/3
f 169/6/3 161/6/3 168/6/3
f 170/6/3 163/6/3 162/6/3
f 170/7/3 162/7/3 169/7/3
f 171/10/3 156/10/3 155/10/3
f 171/1/3 155/1/3 141/1/3
f 172/1/3 157/1/3 156/1/3
f 172/10/3 156/10/3 171/10/3
f 173/2/3 158/2/3 157/2/3
f 173/1/3 157/1/3 172/1/3
f 173/2/3 159/2/3 158/2/3
f 174/2/3 159/2/3 173/2/3
f 175/2/3 140/2/3 159/2/3
f 175/2/3 159/2/3 174/2/3
f 176/2/3 140/2/3 175/2/3
f 177/1/3 172/1/3 171/1/3
f 177/10/3 173/10/3 172/10/3
f 178/1/3 174/1/3 173/1/3
f 178/10/3 173/10/3 177/10/3
f 179/10/3 175/10/3 174/10/3
f 179/1/3 174/1/3 178/1/3
f 180/1/3 176/1/3 175/1/3
f 180/10/3 175/10/3 179/10/3
f 181/4/3 141/4/3 163/4/3
f 181/1/3 171/1/3 141/1/3
f 181/1/3 180/1/3 179/1/3
f 181/1/3 178/1/3 177/1/3
f 181/1/3 179/1/3 178/1/3
f 181/1/3 177/1/3 171/1/3
f 182/1/3 180/1/3 181/1/3
f 183/5/3 144/5/3 143/5/3
f 183/5/3 143/5/3 140/5/3
f 184/5/3 144/5/3 183/5/3
f 185/6/3 169/6/3 168/6/3
f 185/10/3 168/10/3 167/10/3
f 185/6/3 170/6/3 169/6/3
f 186/6/3 163/6/3 170/6/3
f 186/6/3 170/6/3 185/6/3
f 187/4/3 182/4/3 181/4/3
f 187/6/3 163/6/3 186/6/3
f 187/4/3 181/4/3 163/4/3
f 188/1/3 180/1/3 182/1/3
f 188/4/3 182/4/3 187/4/3
f 189/1/3 176/1/3 180/1/3
f 189/1/3 180/1/3 188/1/3
f 189/2/3 140/2/3 176/2/3
f 190/5/3 183/5/3 140/5/3
f 190/2/3 140/2/3 189/2/3
f 191/10/3 165/10/3 164/10/3
f 192/9/3 166/9/3 165/9/3
f 192/10/3 165/10/3 191/10/3
f 193/8/3 167/8/3 166/8/3
f 193/9/3 166/9/3 192/9/3
f 194/10/3 185/10/3 167/10/3
f 194/8/3 167/8/3 193/8/3
f 195/7/3 186/7/3 185/7/3
f 195/10/3 185/10/3 194/10/3
f 196/7/3 186/7/3 195/7/3
f 197/1/3 187/1/3 186/1/3
f 197/7/3 186/7/3 196/7/3
f 198/10/3 188/10/3 187/10/3
f 198/1/3 187/1/3 197/1/3
f 199/10/3 188/10/3 198/10/3
f 200/4/3 189/4/3 188/4/3
f 200/10/3 188/10/3 199/10/3
f 201/5/3 190/5/3 189/5/3
f 201/4/3 189/4/3 200/4/3
f 202/5/3 183/5/3 190/5/3
f 202/5/3 190/5/3 201/5/3
f 203/10/3 194/10/3 193/10/3
f 203/10/3 193/10/3 192/10/3
f 204/10/3 194/10/3 203/10/3
f 205/3/3 197/3/3 196/3/3
f 206/1/3 198/1/3 197/1/3
f 206/3/3 197/3/3 205/3/3
f 207/2/3 199/2/3 198/2/3
f 207/1/3 198/1/3 206/1/3
f 208/3/3 200/3/3 199/3/3
f 208/2/3 199/2/3 207/2/3
f 209/3/3 200/3/3 208/3/3
f 210/3/3 207/3/3 206/3/3
f 210/3/3 208/3/3 207/3/3
f 211/3/3 208/3/3 210/3/3
f 212/3/4 213/3/4 217/3/4
f 217/3/4 213/3/4 218/3/4
f 218/3/4 213/3/4 219/3/4
f 214/5/4 215/5/4 222/5/4
f 222/5/4 215/5/4 223/5/4
f 221/5/4 222/5/4 227/5/4
f 222/5/4 223/5/4 227/5/4
f 223/5/4 224/5/4 227/5/4
f 227/5/4 224/5/4 228/5/4
f 228/5/4 224/5/4 229/5/4
f 229/5/4 224/5/4 230/5/4
f 225/10/4 226/10/4 232/10/4
f 232/10/4 226/10/4 233/10/4
f 233/10/4 226/10/4 234/10/4
f 216/3/4 217/3/4 236/3/4
f 217/1/4 218/1/4 237/1/4
f 236/3/4 217/3/4 237/3/4
f 218/2/4 219/2/4 238/2/4
f 237/1/4 218/1/4 238/1/4
f 219/3/4 220/3/4 239/3/4
f 238/2/4 219/2/4 239/2/4
f 239/3/4 220/3/4 240/3/4
f 228/5/4 229/5/4 241/5/4
f 241/5/4 229/5/4 242/5/4
f 234/10/4 235/10/4 244/10/4
f 235/7/4 236/7/4 244/7/4
f 236/7/4 237/7/4 244/7/4
f 237/1/4 238/1/4 245/1/4
f 244/7/4 237/7/4 245/7/4
f 239/10/4 240/10/4 246/10/4
f 245/1/4 238/1/4 246/1/4
f 238/10/4 239/10/4 246/10/4
f 240/4/4 241/4/4 247/4/4
f 246/10/4 240/10/4 247/10/4
f 241/4/4 242/4/4 247/4/4
f 242/5/4 243/5/4 248/5/4
f 247/4/4 242/4/4 248/4/4
f 248/5/4 243/5/4 249/5/4
f 246/4/4 247/4/4 250/4/4
f 247/2/4 248/2/4 251/2/4
f 250/4/4 247/4/4 251/4/4
f 248/2/4 249/2/4 251/2/4
f 249/5/4 243/5/4 252/5/4
f 251/2/4 249/2/4 254/2/4
f 250/1/4 251/1/4 254/1/4
f 254/2/4 249/2/4 255/2/4
f 255/2/4 249/2/4 256/2/4
f 256/2/4 249/2/4 257/2/4
f 231/10/4 232/10/4 258/10/4
f 232/9/4 233/9/4 259/9/4
f 258/10/4 232/10/4 259/10/4
f 233/8/4 234/8/4 260/8/4
f 259/9/4 233/9/4 260/9/4
f 234/10/4 244/10/4 261/10/4
f 260/8/4 234/8/4 261/8/4
f 245/6/4 246/6/4 262/6/4
f 261/10/4 244/10/4 262/10/4
f 244/6/4 245/6/4 262/6/4
f 246/4/4 250/4/4 263/4/4
f 262/6/4 246/6/4 263/6/4
f 250/1/4 254/1/4 264/1/4
f 254/1/4 255/1/4 264/1/4
f 255/2/4 256/2/4 265/2/4
f 264/1/4 255/1/4 265/1/4
f 265/2/4 256/2/4 266/2/4
f 256/10/4 257/10/4 267/10/4
f 266/2/4 256/2/4 267/2/4
f 257/2/4 249/2/4 268/2/4
f 267/10/4 257/10/4 268/10/4
f 261/7/4 262/7/4 269/7/4
f 262/7/4 263/7/4 269/7/4
f 269/7/4 263/7/4 270/7/4
f 270/7/4 263/7/4 271/7/4
f 263/4/4 250/4/4 272/4/4
f 271/7/4 263/7/4 272/7/4
f 259/10/4 260/10/4 274/10/4
f 260/9/4 261/9/4 275/9/4
f 274/10/4 260/10/4 275/10/4
f 261/7/4 269/7/4 276/7/4
f 275/9/4 261/9/4 276/9/4
f 269/6/4 270/6/4 277/6/4
f 276/7/4 269/7/4 277/7/4
f 270/7/4 271/7/4 278/7/4
f 277/6/4 270/6/4 278/6/4
f 271/6/4 272/6/4 279/6/4
f 278/7/4 271/7/4 279/7/4
f 264/10/4 265/10/4 280/10/4
f 250/1/4 264/1/4 280/1/4
f 265/1/4 266/1/4 281/1/4
f 280/10/4 265/10/4 281/10/4
f 266/2/4 267/2/4 282/2/4
f 281/1/4 266/1/4 282/1/4
f 267/2/4 268/2/4 282/2/4
f 282/2/4 268/2/4 283/2/4
f 268/2/4 249/2/4 284/2/4
f 283/2/4 268/2/4 284/2/4
f 284/2/4 249/2/4 285/2/4
f 280/1/4 281/1/4 286/1/4
f 281/10/4 282/10/4 286/10/4
f 282/1/4 283/1/4 287/1/4
f 286/10/4 282/10/4 287/10/4
f 283/10/4 284/10/4 288/10/4
f 287/1/4 283/1/4 288/1/4
f 284/1/4 285/1/4 289/1/4
f 288/10/4 284/10/4 289/10/4
f 272/4/4 250/4/4 290/4/4
f 250/1/4 280/1/4 290/1/4
f 288/1/4 289/1/4 290/1/4
f 286/1/4 287/1/4 290/1/4
f 287/1/4 288/1/4 290/1/4
f 280/1/4 286/1/4 290/1/4
f 290/1/4 289/1/4 291/1/4
f 252/5/4 253/5/4 292/5/4
f 249/5/4 252/5/4 292/5/4
f 292/5/4 253/5/4 293/5/4
f 277/6/4 278/6/4 294/6/4
f 276/10/4 277/10/4 294/10/4
f 278/6/4 279/6/4 294/6/4
f 279/6/4 272/6/4 295/6/4
f 294/6/4 279/6/4 295/6/4
f 290/4/4 291/4/4 296/4/4
f 295/6/4 272/6/4 296/6/4
f 272/4/4 290/4/4 296/4/4
f 291/1/4 289/1/4 297/1/4
f 296/4/4 291/4/4 297/4/4
f 289/1/4 285/1/4 298/1/4
f 297/1/4 289/1/4 298/1/4
f 285/2/4 249/2/4 298/2/4
f 249/5/4 292/5/4 299/5/4
f 298/2/4 249/2/4 299/2/4
f 273/10/4 274/10/4 300/10/4
f 274/9/4 275/9/4 301/9/4
f 300/10/4 274/10/4 301/10/4
f 275/8/4 276/8/4 302/8/4
f 301/9/4 275/9/4 302/9/4
f 276/10/4 294/10/4 303/10/4
f 302/8/4 276/8/4 303/8/4
f 294/7/4 295/7/4 304/7/4
f 303/10/4 294/10/4 304/10/4
f 304/7/4 295/7/4 305/7/4
f 295/1/4 296/1/4 306/1/4
f 305/7/4 295/7/4 306/7/4
f 296/10/4 297/10/4 307/10/4
f 306/1/4 296/1/4 307/1/4
f 307/10/4 297/10/4 308/10/4
f 297/4/4 298/4/4 309/4/4
f 308/10/4 297/10/4 309/10/4
f 298/5/4 299/5/4 310/5/4
f 309/4/4 298/4/4 310/4/4
f 299/5/4 292/5/4 311/5/4
f 310/5/4 299/5/4 311/5/4
f 302/10/4 303/10/4 312/10/4
f 301/10/4 302/10/4 312/10/4
f 312/10/4 303/10/4 313/10/4
f 305/3/4 306/3/4 314/3/4
f 306/1/4 307/1/4 315/1/4
f 314/3/4 306/3/4 315/3/4
f 307/2/4 308/2/4 316/2/4
f 315/1/4 307/1/4 316/1/4
f 308/3/4 309/3/4 317/3/4
f 316/2/4 308/2/4 317/2/4
f 317/3/4 309/3/4 318/3/4
f 315/3/4 316/3/4 319/3/4
f 316/3/4 317/3/4 319/3/4
f 319/3/4 317/3/4 320/3/4
f 325/10/5 322/10/5 321/10/5
f 326/10/5 322/10/5 325/10/5
f 327/10/5 324/10/5 323/10/5
f 328/10/5 324/10/5 327/10/5
f 335/10/5 330/10/5 329/10/5
f 336/10/5 330/10/5 335/10/5
f 337/10/5 332/10/5 331/10/5
f 338/10/5 332/10/5 337/10/5
f 339/10/5 334/10/5 333/10/5
f 340/10/5 334/10/5 339/10/5
f 345/3/5 342/3/5 341/3/5
f 346/3/5 342/3/5 345/3/5
f 347/3/5 344/3/5 343/3/5
f 348/3/5 344/3/5 347/3/5
f 353/3/5 350/3/5 349/3/5
f 354/3/5 350/3/5 353/3/5
f 355/3/5 352/3/5 351/3/5
f 356/3/5 352/3/5 355/3/5
f 359/5/5 358/5/5 357/5/5
f 360/5/5 358/5/5 359/5/5
f 365/5/5 362/5/5 361/5/5
f 366/5/5 362/5/5 365/5/5
f 367/5/5 364/5/5 363/5/5
f 368/5/5 364/5/5 367/5/5
f 369/10/6 370/10/6 373/10/6
f 373/10/6 370/10/6 374/10/6
f 371/10/6 372/10/6 375/10/6
f 375/10/6 372/10/6 376/10/6
f 377/3/6 378/3/6 381/3/6
f 381/3/6 378/3/6 382/3/6
f 379/3/6 380/3/6 383/3/6
f 383/3/6 380/3/6 384/3/6
f 385/3/6 386/3/6 389/3/6
f 389/3/6 386/3/6 390/3/6
f 387/3/6 388/3/6 391/3/6
f 391/3/6 388/3/6 392/3/6
f 393/5/6 394/5/6 397/5/6
f 397/5/6 394/5/6 398/5/6
f 395/5/6 396/5/6 399/5/6
f 399/5/6 396/5/6 400/5/6
f 401/5/6 402/5/6 403/5/6
f 403/5/6 402/5/6 404/5/6
f 405/5/6 406/5/6 409/5/6
f 409/5/6 406/5/6 410/5/6
f 407/5/6 408/5/6 411/5/6
f 411/5/6 408/5/6 412/5/6
f 413/5/6 414/5/6 415/5/6
f 415/5/6 414/5/6 416/5/6
