# MagicaVoxel @ Ephtracy

# group
o 

# material
mtllib boy walk 2.mtl
usemtl palette

# normals
vn -1 0 0
vn 1 0 0
vn 0 0 1
vn 0 0 -1
vn 0 -1 0
vn 0 1 0

# texcoords
vt 0.0292969 0.5
vt 0.0605469 0.5
vt 0.369141 0.5
vt 0.373047 0.5
vt 0.396484 0.5
vt 0.822266 0.5
vt 0.833984 0.5
vt 0.986328 0.5
vt 0.994141 0.5

# verts
v -0.8 0.5 -0.1
v -0.8 0.5 -0.2
v -0.8 0.7 -0.1
v -0.8 0.7 -0.2
v -0.8 1.3 -0.1
v -0.8 1.3 -0.2
v -0.8 1.4 -0.1
v -0.8 1.4 -0.2
v -0.7 0.4 -0.1
v -0.7 0.4 -0.2
v -0.7 0.5 -0.1
v -0.7 0.5 -0.2
v -0.7 0.7 -0.1
v -0.7 0.7 -0.2
v -0.7 0.8 -0.1
v -0.7 0.8 -0.2
v -0.7 1.2 -0.1
v -0.7 1.2 -0.2
v -0.7 1.3 -0.1
v -0.7 1.3 -0.2
v -0.7 1.4 -0.1
v -0.7 1.4 -0.2
v -0.7 1.5 -0.1
v -0.7 1.5 -0.2
v -0.6 0.1 -0.1
v -0.6 0.1 -0.2
v -0.6 0.3 -0.1
v -0.6 0.3 -0.2
v -0.5 0 -0.1
v -0.5 0 -0.2
v -0.5 0.1 -0.1
v -0.5 0.1 -0.2
v -0.5 0.3 -0.1
v -0.5 0.3 -0.2
v -0.5 0.4 -0.1
v -0.5 0.4 -0.2
v -0.5 0.8 -0.1
v -0.5 0.8 -0.2
v -0.5 1.3 -0.1
v -0.5 1.3 -0.2
v -0.5 1.4 -0.1
v -0.5 1.4 -0.2
v -0.5 1.7 -0.1
v -0.5 1.7 -0.2
v -0.3 1.7 -0.1
v -0.3 1.7 -0.2
v -0.3 1.8 -0.1
v -0.3 1.8 -0.2
v 0.1 0 -0.1
v 0.1 0 -0.2
v 0.1 0.1 -0.1
v 0.1 0.1 -0.2
v -0.6 1.2 -0.1
v -0.6 1.2 -0.2
v -0.6 1.3 -0.1
v -0.6 1.3 -0.2
v -0.6 1.4 -0.1
v -0.6 1.4 -0.2
v -0.6 1.5 -0.1
v -0.6 1.5 -0.2
v -0.1 0 -0.1
v -0.1 0 -0.2
v -0.1 0.1 -0.1
v -0.1 0.1 -0.2
v 0.3 1.7 -0.1
v 0.3 1.7 -0.2
v 0.3 1.8 -0.1
v 0.3 1.8 -0.2
v 0.5 0 -0.1
v 0.5 0 -0.2
v 0.5 0.1 -0.1
v 0.5 0.1 -0.2
v 0.5 0.3 -0.1
v 0.5 0.3 -0.2
v 0.5 0.4 -0.1
v 0.5 0.4 -0.2
v 0.5 0.8 -0.1
v 0.5 0.8 -0.2
v 0.5 1.4 -0.1
v 0.5 1.4 -0.2
v 0.5 1.7 -0.1
v 0.5 1.7 -0.2
v 0.6 0.1 -0.1
v 0.6 0.1 -0.2
v 0.6 0.3 -0.1
v 0.6 0.3 -0.2
v 0.7 0.4 -0.1
v 0.7 0.4 -0.2
v 0.7 0.5 -0.1
v 0.7 0.5 -0.2
v 0.7 0.7 -0.1
v 0.7 0.7 -0.2
v 0.7 0.8 -0.1
v 0.7 0.8 -0.2
v 0.8 0.5 -0.1
v 0.8 0.5 -0.2
v 0.8 0.7 -0.1
v 0.8 0.7 -0.2
v -0.8 0.5 -0.1
v -0.8 0.7 -0.1
v -0.8 1.3 -0.1
v -0.8 1.4 -0.1
v -0.7 0.4 -0.1
v -0.7 0.5 -0.1
v -0.7 0.6 -0.1
v -0.7 0.7 -0.1
v -0.7 0.8 -0.1
v -0.7 1.2 -0.1
v -0.7 1.3 -0.1
v -0.7 1.4 -0.1
v -0.7 1.5 -0.1
v -0.6 0.1 -0.1
v -0.6 0.3 -0.1
v -0.6 1.2 -0.1
v -0.6 1.3 -0.1
v -0.6 1.4 -0.1
v -0.6 1.5 -0.1
v -0.5 0 -0.1
v -0.5 0.1 -0.1
v -0.5 0.2 -0.1
v -0.5 0.3 -0.1
v -0.5 0.4 -0.1
v -0.5 0.5 -0.1
v -0.5 0.6 -0.1
v -0.5 0.7 -0.1
v -0.5 0.8 -0.1
v -0.5 1.3 -0.1
v -0.5 1.4 -0.1
v -0.5 1.7 -0.1
v -0.4 0.3 -0.1
v -0.4 0.5 -0.1
v -0.4 0.6 -0.1
v -0.4 0.8 -0.1
v -0.4 1.4 -0.1
v -0.4 1.5 -0.1
v -0.3 0.7 -0.1
v -0.3 0.8 -0.1
v -0.3 1.7 -0.1
v -0.3 1.8 -0.1
v -0.2 0.8 -0.1
v -0.2 0.9 -0.1
v -0.2 1.1 -0.1
v -0.2 1.3 -0.1
v -0.1 0 -0.1
v -0.1 0.1 -0.1
v -0.1 0.2 -0.1
v -0.1 0.3 -0.1
v -0.1 0.6 -0.1
v -0.1 0.8 -0.1
v -0.1 0.9 -0.1
v -0.1 1 -0.1
v -0.1 1.1 -0.1
v -0.1 1.3 -0.1
v 5.96046e-008 0.3 -0.1
v 5.96046e-008 0.4 -0.1
v 5.96046e-008 0.5 -0.1
v 5.96046e-008 0.6 -0.1
v 0.1 0 -0.1
v 0.1 0.1 -0.1
v 0.1 0.2 -0.1
v 0.1 0.3 -0.1
v 0.1 0.4 -0.1
v 0.1 0.5 -0.1
v 0.1 0.8 -0.1
v 0.1 0.9 -0.1
v 0.1 1 -0.1
v 0.1 1.1 -0.1
v 0.1 1.3 -0.1
v 0.1 1.4 -0.1
v 0.2 0.9 -0.1
v 0.2 1 -0.1
v 0.2 1.1 -0.1
v 0.2 1.3 -0.1
v 0.3 0.7 -0.1
v 0.3 0.8 -0.1
v 0.3 1.7 -0.1
v 0.3 1.8 -0.1
v 0.4 0.3 -0.1
v 0.4 0.5 -0.1
v 0.4 0.6 -0.1
v 0.4 0.8 -0.1
v 0.4 1.4 -0.1
v 0.4 1.5 -0.1
v 0.5 0 -0.1
v 0.5 0.1 -0.1
v 0.5 0.2 -0.1
v 0.5 0.3 -0.1
v 0.5 0.4 -0.1
v 0.5 0.5 -0.1
v 0.5 0.6 -0.1
v 0.5 0.7 -0.1
v 0.5 0.8 -0.1
v 0.5 1.4 -0.1
v 0.5 1.7 -0.1
v 0.6 0.1 -0.1
v 0.6 0.3 -0.1
v 0.7 0.4 -0.1
v 0.7 0.5 -0.1
v 0.7 0.6 -0.1
v 0.7 0.7 -0.1
v 0.7 0.8 -0.1
v 0.8 0.5 -0.1
v 0.8 0.7 -0.1
v -0.8 0.5 -0.2
v -0.8 0.7 -0.2
v -0.8 1.3 -0.2
v -0.8 1.4 -0.2
v -0.7 0.4 -0.2
v -0.7 0.5 -0.2
v -0.7 0.6 -0.2
v -0.7 0.7 -0.2
v -0.7 0.8 -0.2
v -0.7 1.2 -0.2
v -0.7 1.3 -0.2
v -0.7 1.4 -0.2
v -0.7 1.5 -0.2
v -0.6 0.1 -0.2
v -0.6 0.3 -0.2
v -0.6 1.2 -0.2
v -0.6 1.3 -0.2
v -0.6 1.4 -0.2
v -0.6 1.5 -0.2
v -0.5 0 -0.2
v -0.5 0.1 -0.2
v -0.5 0.2 -0.2
v -0.5 0.3 -0.2
v -0.5 0.4 -0.2
v -0.5 0.5 -0.2
v -0.5 0.6 -0.2
v -0.5 0.7 -0.2
v -0.5 0.8 -0.2
v -0.5 1.3 -0.2
v -0.5 1.4 -0.2
v -0.5 1.7 -0.2
v -0.4 0.3 -0.2
v -0.4 0.5 -0.2
v -0.4 0.6 -0.2
v -0.4 0.8 -0.2
v -0.4 1.4 -0.2
v -0.4 1.5 -0.2
v -0.3 0.7 -0.2
v -0.3 0.8 -0.2
v -0.3 1.7 -0.2
v -0.3 1.8 -0.2
v -0.2 0.8 -0.2
v -0.2 0.9 -0.2
v -0.2 1.1 -0.2
v -0.2 1.3 -0.2
v -0.1 0 -0.2
v -0.1 0.1 -0.2
v -0.1 0.2 -0.2
v -0.1 0.3 -0.2
v -0.1 0.6 -0.2
v -0.1 0.8 -0.2
v -0.1 0.9 -0.2
v -0.1 1 -0.2
v -0.1 1.1 -0.2
v -0.1 1.3 -0.2
v 5.96046e-008 0.3 -0.2
v 5.96046e-008 0.4 -0.2
v 5.96046e-008 0.5 -0.2
v 5.96046e-008 0.6 -0.2
v 0.1 0 -0.2
v 0.1 0.1 -0.2
v 0.1 0.2 -0.2
v 0.1 0.3 -0.2
v 0.1 0.4 -0.2
v 0.1 0.5 -0.2
v 0.1 0.8 -0.2
v 0.1 0.9 -0.2
v 0.1 1 -0.2
v 0.1 1.1 -0.2
v 0.1 1.3 -0.2
v 0.1 1.4 -0.2
v 0.2 0.9 -0.2
v 0.2 1 -0.2
v 0.2 1.1 -0.2
v 0.2 1.3 -0.2
v 0.3 0.7 -0.2
v 0.3 0.8 -0.2
v 0.3 1.7 -0.2
v 0.3 1.8 -0.2
v 0.4 0.3 -0.2
v 0.4 0.5 -0.2
v 0.4 0.6 -0.2
v 0.4 0.8 -0.2
v 0.4 1.4 -0.2
v 0.4 1.5 -0.2
v 0.5 0 -0.2
v 0.5 0.1 -0.2
v 0.5 0.2 -0.2
v 0.5 0.3 -0.2
v 0.5 0.4 -0.2
v 0.5 0.5 -0.2
v 0.5 0.6 -0.2
v 0.5 0.7 -0.2
v 0.5 0.8 -0.2
v 0.5 1.4 -0.2
v 0.5 1.7 -0.2
v 0.6 0.1 -0.2
v 0.6 0.3 -0.2
v 0.7 0.4 -0.2
v 0.7 0.5 -0.2
v 0.7 0.6 -0.2
v 0.7 0.7 -0.2
v 0.7 0.8 -0.2
v 0.8 0.5 -0.2
v 0.8 0.7 -0.2
v -0.5 0 -0.1
v -0.1 0 -0.1
v 0.1 0 -0.1
v 0.5 0 -0.1
v -0.5 0 -0.2
v -0.1 0 -0.2
v 0.1 0 -0.2
v 0.5 0 -0.2
v -0.6 0.1 -0.1
v -0.5 0.1 -0.1
v -0.1 0.1 -0.1
v 0.1 0.1 -0.1
v 0.5 0.1 -0.1
v 0.6 0.1 -0.1
v -0.6 0.1 -0.2
v -0.5 0.1 -0.2
v -0.1 0.1 -0.2
v 0.1 0.1 -0.2
v 0.5 0.1 -0.2
v 0.6 0.1 -0.2
v -0.7 0.4 -0.1
v -0.5 0.4 -0.1
v 0.5 0.4 -0.1
v 0.7 0.4 -0.1
v -0.7 0.4 -0.2
v -0.5 0.4 -0.2
v 0.5 0.4 -0.2
v 0.7 0.4 -0.2
v -0.8 0.5 -0.1
v -0.7 0.5 -0.1
v 0.7 0.5 -0.1
v 0.8 0.5 -0.1
v -0.8 0.5 -0.2
v -0.7 0.5 -0.2
v 0.7 0.5 -0.2
v 0.8 0.5 -0.2
v -0.7 1.2 -0.1
v -0.6 1.2 -0.1
v -0.7 1.2 -0.2
v -0.6 1.2 -0.2
v -0.8 1.3 -0.1
v -0.7 1.3 -0.1
v -0.6 1.3 -0.1
v -0.5 1.3 -0.1
v -0.8 1.3 -0.2
v -0.7 1.3 -0.2
v -0.6 1.3 -0.2
v -0.5 1.3 -0.2
v -0.6 0.3 -0.1
v -0.5 0.3 -0.1
v 0.5 0.3 -0.1
v 0.6 0.3 -0.1
v -0.6 0.3 -0.2
v -0.5 0.3 -0.2
v 0.5 0.3 -0.2
v 0.6 0.3 -0.2
v -0.8 0.7 -0.1
v -0.7 0.7 -0.1
v 0.7 0.7 -0.1
v 0.8 0.7 -0.1
v -0.8 0.7 -0.2
v -0.7 0.7 -0.2
v 0.7 0.7 -0.2
v 0.8 0.7 -0.2
v -0.7 0.8 -0.1
v -0.5 0.8 -0.1
v 0.5 0.8 -0.1
v 0.7 0.8 -0.1
v -0.7 0.8 -0.2
v -0.5 0.8 -0.2
v 0.5 0.8 -0.2
v 0.7 0.8 -0.2
v -0.8 1.4 -0.1
v -0.7 1.4 -0.1
v -0.6 1.4 -0.1
v -0.5 1.4 -0.1
v -0.8 1.4 -0.2
v -0.7 1.4 -0.2
v -0.6 1.4 -0.2
v -0.5 1.4 -0.2
v -0.7 1.5 -0.1
v -0.6 1.5 -0.1
v -0.7 1.5 -0.2
v -0.6 1.5 -0.2
v -0.5 1.7 -0.1
v -0.3 1.7 -0.1
v 0.3 1.7 -0.1
v 0.5 1.7 -0.1
v -0.5 1.7 -0.2
v -0.3 1.7 -0.2
v 0.3 1.7 -0.2
v 0.5 1.7 -0.2
v -0.3 1.8 -0.1
v 0.3 1.8 -0.1
v -0.3 1.8 -0.2
v 0.3 1.8 -0.2

# faces
f 3/3/1 2/3/1 1/3/1
f 4/3/1 2/3/1 3/3/1
f 7/5/1 6/5/1 5/5/1
f 8/5/1 6/5/1 7/5/1
f 11/3/1 10/3/1 9/3/1
f 12/3/1 10/3/1 11/3/1
f 15/3/1 14/3/1 13/3/1
f 16/3/1 14/3/1 15/3/1
f 19/5/1 18/5/1 17/5/1
f 20/5/1 18/5/1 19/5/1
f 23/5/1 22/5/1 21/5/1
f 24/5/1 22/5/1 23/5/1
f 27/9/1 26/9/1 25/9/1
f 28/9/1 26/9/1 27/9/1
f 31/9/1 30/9/1 29/9/1
f 32/9/1 30/9/1 31/9/1
f 35/7/1 34/7/1 33/7/1
f 36/7/1 34/7/1 35/7/1
f 39/4/1 38/4/1 37/4/1
f 40/4/1 38/4/1 39/4/1
f 43/5/1 42/5/1 41/5/1
f 44/5/1 42/5/1 43/5/1
f 47/5/1 46/5/1 45/5/1
f 48/5/1 46/5/1 47/5/1
f 51/9/1 50/9/1 49/9/1
f 52/9/1 50/9/1 51/9/1
f 53/5/2 54/5/2 55/5/2
f 55/5/2 54/5/2 56/5/2
f 57/5/2 58/5/2 59/5/2
f 59/5/2 58/5/2 60/5/2
f 61/9/2 62/9/2 63/9/2
f 63/9/2 62/9/2 64/9/2
f 65/5/2 66/5/2 67/5/2
f 67/5/2 66/5/2 68/5/2
f 69/9/2 70/9/2 71/9/2
f 71/9/2 70/9/2 72/9/2
f 73/7/2 74/7/2 75/7/2
f 75/7/2 74/7/2 76/7/2
f 77/4/2 78/4/2 79/4/2
f 79/4/2 78/4/2 80/4/2
f 79/5/2 80/5/2 81/5/2
f 81/5/2 80/5/2 82/5/2
f 83/9/2 84/9/2 85/9/2
f 85/9/2 84/9/2 86/9/2
f 87/3/2 88/3/2 89/3/2
f 89/3/2 88/3/2 90/3/2
f 91/3/2 92/3/2 93/3/2
f 93/3/2 92/3/2 94/3/2
f 95/3/2 96/3/2 97/3/2
f 97/3/2 96/3/2 98/3/2
f 104/3/3 100/3/3 99/3/3
f 105/3/3 100/3/3 104/3/3
f 106/3/3 100/3/3 105/3/3
f 109/5/3 102/5/3 101/5/3
f 110/5/3 102/5/3 109/5/3
f 114/5/3 109/5/3 108/5/3
f 114/5/3 110/5/3 109/5/3
f 114/5/3 111/5/3 110/5/3
f 115/5/3 111/5/3 114/5/3
f 116/5/3 111/5/3 115/5/3
f 117/5/3 111/5/3 116/5/3
f 119/9/3 113/9/3 112/9/3
f 120/9/3 113/9/3 119/9/3
f 121/9/3 113/9/3 120/9/3
f 122/3/3 104/3/3 103/3/3
f 123/1/3 105/1/3 104/1/3
f 123/3/3 104/3/3 122/3/3
f 124/2/3 106/2/3 105/2/3
f 124/1/3 105/1/3 123/1/3
f 125/3/3 107/3/3 106/3/3
f 125/2/3 106/2/3 124/2/3
f 126/3/3 107/3/3 125/3/3
f 127/5/3 116/5/3 115/5/3
f 128/5/3 116/5/3 127/5/3
f 130/9/3 121/9/3 120/9/3
f 130/7/3 122/7/3 121/7/3
f 130/7/3 123/7/3 122/7/3
f 131/1/3 124/1/3 123/1/3
f 131/7/3 123/7/3 130/7/3
f 132/9/3 126/9/3 125/9/3
f 132/1/3 124/1/3 131/1/3
f 132/9/3 125/9/3 124/9/3
f 133/4/3 127/4/3 126/4/3
f 133/9/3 126/9/3 132/9/3
f 133/4/3 128/4/3 127/4/3
f 134/5/3 129/5/3 128/5/3
f 134/4/3 128/4/3 133/4/3
f 135/5/3 129/5/3 134/5/3
f 136/4/3 133/4/3 132/4/3
f 137/2/3 134/2/3 133/2/3
f 137/4/3 133/4/3 136/4/3
f 137/2/3 135/2/3 134/2/3
f 138/5/3 129/5/3 135/5/3
f 140/2/3 135/2/3 137/2/3
f 140/1/3 137/1/3 136/1/3
f 141/2/3 135/2/3 140/2/3
f 142/2/3 135/2/3 141/2/3
f 143/2/3 135/2/3 142/2/3
f 144/9/3 119/9/3 118/9/3
f 145/8/3 120/8/3 119/8/3
f 145/9/3 119/9/3 144/9/3
f 146/9/3 130/9/3 120/9/3
f 146/8/3 120/8/3 145/8/3
f 147/6/3 132/6/3 131/6/3
f 147/9/3 130/9/3 146/9/3
f 147/6/3 131/6/3 130/6/3
f 148/4/3 136/4/3 132/4/3
f 148/6/3 132/6/3 147/6/3
f 149/1/3 140/1/3 136/1/3
f 149/1/3 141/1/3 140/1/3
f 150/2/3 142/2/3 141/2/3
f 150/1/3 141/1/3 149/1/3
f 151/2/3 142/2/3 150/2/3
f 152/9/3 143/9/3 142/9/3
f 152/2/3 142/2/3 151/2/3
f 153/2/3 135/2/3 143/2/3
f 153/9/3 143/9/3 152/9/3
f 154/7/3 147/7/3 146/7/3
f 154/7/3 148/7/3 147/7/3
f 155/7/3 148/7/3 154/7/3
f 156/7/3 148/7/3 155/7/3
f 157/4/3 136/4/3 148/4/3
f 157/7/3 148/7/3 156/7/3
f 159/9/3 146/9/3 145/9/3
f 160/7/3 154/7/3 146/7/3
f 160/9/3 146/9/3 159/9/3
f 161/6/3 155/6/3 154/6/3
f 161/7/3 154/7/3 160/7/3
f 162/7/3 156/7/3 155/7/3
f 162/6/3 155/6/3 161/6/3
f 163/6/3 157/6/3 156/6/3
f 163/7/3 156/7/3 162/7/3
f 164/9/3 150/9/3 149/9/3
f 164/1/3 149/1/3 136/1/3
f 165/1/3 151/1/3 150/1/3
f 165/9/3 150/9/3 164/9/3
f 166/2/3 152/2/3 151/2/3
f 166/1/3 151/1/3 165/1/3
f 166/2/3 153/2/3 152/2/3
f 167/2/3 153/2/3 166/2/3
f 168/2/3 135/2/3 153/2/3
f 168/2/3 153/2/3 167/2/3
f 169/2/3 135/2/3 168/2/3
f 170/1/3 165/1/3 164/1/3
f 170/9/3 166/9/3 165/9/3
f 171/1/3 167/1/3 166/1/3
f 171/9/3 166/9/3 170/9/3
f 172/9/3 168/9/3 167/9/3
f 172/1/3 167/1/3 171/1/3
f 173/1/3 169/1/3 168/1/3
f 173/9/3 168/9/3 172/9/3
f 174/1/3 170/1/3 164/1/3
f 174/4/3 136/4/3 157/4/3
f 174/1/3 173/1/3 172/1/3
f 174/1/3 171/1/3 170/1/3
f 174/1/3 172/1/3 171/1/3
f 174/1/3 164/1/3 136/1/3
f 175/1/3 173/1/3 174/1/3
f 176/5/3 139/5/3 138/5/3
f 176/5/3 138/5/3 135/5/3
f 177/5/3 139/5/3 176/5/3
f 178/6/3 162/6/3 161/6/3
f 178/9/3 161/9/3 160/9/3
f 178/6/3 163/6/3 162/6/3
f 179/6/3 157/6/3 163/6/3
f 179/6/3 163/6/3 178/6/3
f 180/4/3 175/4/3 174/4/3
f 180/6/3 157/6/3 179/6/3
f 180/4/3 174/4/3 157/4/3
f 181/1/3 173/1/3 175/1/3
f 181/4/3 175/4/3 180/4/3
f 182/1/3 169/1/3 173/1/3
f 182/1/3 173/1/3 181/1/3
f 182/2/3 135/2/3 169/2/3
f 183/5/3 176/5/3 135/5/3
f 183/2/3 135/2/3 182/2/3
f 184/9/3 159/9/3 158/9/3
f 185/8/3 160/8/3 159/8/3
f 185/9/3 159/9/3 184/9/3
f 186/9/3 178/9/3 160/9/3
f 186/8/3 160/8/3 185/8/3
f 187/7/3 179/7/3 178/7/3
f 187/9/3 178/9/3 186/9/3
f 188/7/3 179/7/3 187/7/3
f 189/1/3 180/1/3 179/1/3
f 189/7/3 179/7/3 188/7/3
f 190/9/3 181/9/3 180/9/3
f 190/1/3 180/1/3 189/1/3
f 191/9/3 181/9/3 190/9/3
f 192/4/3 182/4/3 181/4/3
f 192/9/3 181/9/3 191/9/3
f 193/5/3 183/5/3 182/5/3
f 193/4/3 182/4/3 192/4/3
f 194/5/3 176/5/3 183/5/3
f 194/5/3 183/5/3 193/5/3
f 195/9/3 186/9/3 185/9/3
f 195/9/3 187/9/3 186/9/3
f 196/9/3 187/9/3 195/9/3
f 197/3/3 189/3/3 188/3/3
f 198/1/3 190/1/3 189/1/3
f 198/3/3 189/3/3 197/3/3
f 199/2/3 191/2/3 190/2/3
f 199/1/3 190/1/3 198/1/3
f 200/3/3 192/3/3 191/3/3
f 200/2/3 191/2/3 199/2/3
f 201/3/3 192/3/3 200/3/3
f 202/3/3 199/3/3 198/3/3
f 202/3/3 200/3/3 199/3/3
f 203/3/3 200/3/3 202/3/3
f 204/3/4 205/3/4 209/3/4
f 209/3/4 205/3/4 210/3/4
f 210/3/4 205/3/4 211/3/4
f 206/5/4 207/5/4 214/5/4
f 214/5/4 207/5/4 215/5/4
f 213/5/4 214/5/4 219/5/4
f 214/5/4 215/5/4 219/5/4
f 215/5/4 216/5/4 219/5/4
f 219/5/4 216/5/4 220/5/4
f 220/5/4 216/5/4 221/5/4
f 221/5/4 216/5/4 222/5/4
f 217/9/4 218/9/4 224/9/4
f 224/9/4 218/9/4 225/9/4
f 225/9/4 218/9/4 226/9/4
f 208/3/4 209/3/4 227/3/4
f 209/1/4 210/1/4 228/1/4
f 227/3/4 209/3/4 228/3/4
f 210/2/4 211/2/4 229/2/4
f 228/1/4 210/1/4 229/1/4
f 211/3/4 212/3/4 230/3/4
f 229/2/4 211/2/4 230/2/4
f 230/3/4 212/3/4 231/3/4
f 220/5/4 221/5/4 232/5/4
f 232/5/4 221/5/4 233/5/4
f 225/9/4 226/9/4 235/9/4
f 226/7/4 227/7/4 235/7/4
f 227/7/4 228/7/4 235/7/4
f 228/1/4 229/1/4 236/1/4
f 235/7/4 228/7/4 236/7/4
f 230/9/4 231/9/4 237/9/4
f 236/1/4 229/1/4 237/1/4
f 229/9/4 230/9/4 237/9/4
f 231/4/4 232/4/4 238/4/4
f 237/9/4 231/9/4 238/9/4
f 232/4/4 233/4/4 238/4/4
f 233/5/4 234/5/4 239/5/4
f 238/4/4 233/4/4 239/4/4
f 239/5/4 234/5/4 240/5/4
f 237/4/4 238/4/4 241/4/4
f 238/2/4 239/2/4 242/2/4
f 241/4/4 238/4/4 242/4/4
f 239/2/4 240/2/4 242/2/4
f 240/5/4 234/5/4 243/5/4
f 242/2/4 240/2/4 245/2/4
f 241/1/4 242/1/4 245/1/4
f 245/2/4 240/2/4 246/2/4
f 246/2/4 240/2/4 247/2/4
f 247/2/4 240/2/4 248/2/4
f 223/9/4 224/9/4 249/9/4
f 224/8/4 225/8/4 250/8/4
f 249/9/4 224/9/4 250/9/4
f 225/9/4 235/9/4 251/9/4
f 250/8/4 225/8/4 251/8/4
f 236/6/4 237/6/4 252/6/4
f 251/9/4 235/9/4 252/9/4
f 235/6/4 236/6/4 252/6/4
f 237/4/4 241/4/4 253/4/4
f 252/6/4 237/6/4 253/6/4
f 241/1/4 245/1/4 254/1/4
f 245/1/4 246/1/4 254/1/4
f 246/2/4 247/2/4 255/2/4
f 254/1/4 246/1/4 255/1/4
f 255/2/4 247/2/4 256/2/4
f 247/9/4 248/9/4 257/9/4
f 256/2/4 247/2/4 257/2/4
f 248/2/4 240/2/4 258/2/4
f 257/9/4 248/9/4 258/9/4
f 251/7/4 252/7/4 259/7/4
f 252/7/4 253/7/4 259/7/4
f 259/7/4 253/7/4 260/7/4
f 260/7/4 253/7/4 261/7/4
f 253/4/4 241/4/4 262/4/4
f 261/7/4 253/7/4 262/7/4
f 250/9/4 251/9/4 264/9/4
f 251/7/4 259/7/4 265/7/4
f 264/9/4 251/9/4 265/9/4
f 259/6/4 260/6/4 266/6/4
f 265/7/4 259/7/4 266/7/4
f 260/7/4 261/7/4 267/7/4
f 266/6/4 260/6/4 267/6/4
f 261/6/4 262/6/4 268/6/4
f 267/7/4 261/7/4 268/7/4
f 254/9/4 255/9/4 269/9/4
f 241/1/4 254/1/4 269/1/4
f 255/1/4 256/1/4 270/1/4
f 269/9/4 255/9/4 270/9/4
f 256/2/4 257/2/4 271/2/4
f 270/1/4 256/1/4 271/1/4
f 257/2/4 258/2/4 271/2/4
f 271/2/4 258/2/4 272/2/4
f 258/2/4 240/2/4 273/2/4
f 272/2/4 258/2/4 273/2/4
f 273/2/4 240/2/4 274/2/4
f 269/1/4 270/1/4 275/1/4
f 270/9/4 271/9/4 275/9/4
f 271/1/4 272/1/4 276/1/4
f 275/9/4 271/9/4 276/9/4
f 272/9/4 273/9/4 277/9/4
f 276/1/4 272/1/4 277/1/4
f 273/1/4 274/1/4 278/1/4
f 277/9/4 273/9/4 278/9/4
f 269/1/4 275/1/4 279/1/4
f 262/4/4 241/4/4 279/4/4
f 277/1/4 278/1/4 279/1/4
f 275/1/4 276/1/4 279/1/4
f 276/1/4 277/1/4 279/1/4
f 241/1/4 269/1/4 279/1/4
f 279/1/4 278/1/4 280/1/4
f 243/5/4 244/5/4 281/5/4
f 240/5/4 243/5/4 281/5/4
f 281/5/4 244/5/4 282/5/4
f 266/6/4 267/6/4 283/6/4
f 265/9/4 266/9/4 283/9/4
f 267/6/4 268/6/4 283/6/4
f 268/6/4 262/6/4 284/6/4
f 283/6/4 268/6/4 284/6/4
f 279/4/4 280/4/4 285/4/4
f 284/6/4 262/6/4 285/6/4
f 262/4/4 279/4/4 285/4/4
f 280/1/4 278/1/4 286/1/4
f 285/4/4 280/4/4 286/4/4
f 278/1/4 274/1/4 287/1/4
f 286/1/4 278/1/4 287/1/4
f 274/2/4 240/2/4 287/2/4
f 240/5/4 281/5/4 288/5/4
f 287/2/4 240/2/4 288/2/4
f 263/9/4 264/9/4 289/9/4
f 264/8/4 265/8/4 290/8/4
f 289/9/4 264/9/4 290/9/4
f 265/9/4 283/9/4 291/9/4
f 290/8/4 265/8/4 291/8/4
f 283/7/4 284/7/4 292/7/4
f 291/9/4 283/9/4 292/9/4
f 292/7/4 284/7/4 293/7/4
f 284/1/4 285/1/4 294/1/4
f 293/7/4 284/7/4 294/7/4
f 285/9/4 286/9/4 295/9/4
f 294/1/4 285/1/4 295/1/4
f 295/9/4 286/9/4 296/9/4
f 286/4/4 287/4/4 297/4/4
f 296/9/4 286/9/4 297/9/4
f 287/5/4 288/5/4 298/5/4
f 297/4/4 287/4/4 298/4/4
f 288/5/4 281/5/4 299/5/4
f 298/5/4 288/5/4 299/5/4
f 290/9/4 291/9/4 300/9/4
f 291/9/4 292/9/4 300/9/4
f 300/9/4 292/9/4 301/9/4
f 293/3/4 294/3/4 302/3/4
f 294/1/4 295/1/4 303/1/4
f 302/3/4 294/3/4 303/3/4
f 295/2/4 296/2/4 304/2/4
f 303/1/4 295/1/4 304/1/4
f 296/3/4 297/3/4 305/3/4
f 304/2/4 296/2/4 305/2/4
f 305/3/4 297/3/4 306/3/4
f 303/3/4 304/3/4 307/3/4
f 304/3/4 305/3/4 307/3/4
f 307/3/4 305/3/4 308/3/4
f 313/9/5 310/9/5 309/9/5
f 314/9/5 310/9/5 313/9/5
f 315/9/5 312/9/5 311/9/5
f 316/9/5 312/9/5 315/9/5
f 323/9/5 318/9/5 317/9/5
f 324/9/5 318/9/5 323/9/5
f 325/9/5 320/9/5 319/9/5
f 326/9/5 320/9/5 325/9/5
f 327/9/5 322/9/5 321/9/5
f 328/9/5 322/9/5 327/9/5
f 333/3/5 330/3/5 329/3/5
f 334/3/5 330/3/5 333/3/5
f 335/3/5 332/3/5 331/3/5
f 336/3/5 332/3/5 335/3/5
f 341/3/5 338/3/5 337/3/5
f 342/3/5 338/3/5 341/3/5
f 343/3/5 340/3/5 339/3/5
f 344/3/5 340/3/5 343/3/5
f 347/5/5 346/5/5 345/5/5
f 348/5/5 346/5/5 347/5/5
f 353/5/5 350/5/5 349/5/5
f 354/5/5 350/5/5 353/5/5
f 355/5/5 352/5/5 351/5/5
f 356/5/5 352/5/5 355/5/5
f 357/9/6 358/9/6 361/9/6
f 361/9/6 358/9/6 362/9/6
f 359/9/6 360/9/6 363/9/6
f 363/9/6 360/9/6 364/9/6
f 365/3/6 366/3/6 369/3/6
f 369/3/6 366/3/6 370/3/6
f 367/3/6 368/3/6 371/3/6
f 371/3/6 368/3/6 372/3/6
f 373/3/6 374/3/6 377/3/6
f 377/3/6 374/3/6 378/3/6
f 375/3/6 376/3/6 379/3/6
f 379/3/6 376/3/6 380/3/6
f 381/5/6 382/5/6 385/5/6
f 385/5/6 382/5/6 386/5/6
f 383/5/6 384/5/6 387/5/6
f 387/5/6 384/5/6 388/5/6
f 389/5/6 390/5/6 391/5/6
f 391/5/6 390/5/6 392/5/6
f 393/5/6 394/5/6 397/5/6
f 397/5/6 394/5/6 398/5/6
f 395/5/6 396/5/6 399/5/6
f 399/5/6 396/5/6 400/5/6
f 401/5/6 402/5/6 403/5/6
f 403/5/6 402/5/6 404/5/6
