# MagicaVoxel @ Ephtracy

# group
o 

# material
mtllib death.mtl
usemtl palette

# normals
vn -1 0 0
vn 1 0 0
vn 0 0 1
vn 0 0 -1
vn 0 -1 0
vn 0 1 0

# texcoords
vt 0.0566406 0.5
vt 0.0605469 0.5
vt 0.728516 0.5
vt 0.755859 0.5
vt 0.810547 0.5
vt 0.861328 0.5
vt 0.869141 0.5
vt 0.994141 0.5

# verts
v -0.9 0.2 2.23517e-008
v -0.9 0.2 -0.1
v -0.9 0.4 2.23517e-008
v -0.9 0.4 -0.1
v -0.8 0.1 2.23517e-008
v -0.8 0.1 -0.1
v -0.8 0.2 2.23517e-008
v -0.8 0.2 -0.1
v -0.8 0.4 2.23517e-008
v -0.8 0.4 -0.1
v -0.8 0.5 2.23517e-008
v -0.8 0.5 -0.1
v -0.7 0 2.23517e-008
v -0.7 0 -0.1
v -0.7 0.1 2.23517e-008
v -0.7 0.1 -0.1
v -0.6 0.5 2.23517e-008
v -0.6 0.5 -0.1
v -0.6 0.6 2.23517e-008
v -0.6 0.6 -0.1
v -0.5 0.6 2.23517e-008
v -0.5 0.6 -0.1
v -0.5 0.7 2.23517e-008
v -0.5 0.7 -0.1
v -0.1 0 2.23517e-008
v -0.1 0 -0.1
v -0.1 0.1 2.23517e-008
v -0.1 0.1 -0.1
v -0.3 0 2.23517e-008
v -0.3 0 -0.1
v -0.3 0.1 2.23517e-008
v -0.3 0.1 -0.1
v 0.1 0.6 2.23517e-008
v 0.1 0.6 -0.1
v 0.1 0.7 2.23517e-008
v 0.1 0.7 -0.1
v 0.2 0.5 2.23517e-008
v 0.2 0.5 -0.1
v 0.2 0.6 2.23517e-008
v 0.2 0.6 -0.1
v 0.3 0 2.23517e-008
v 0.3 0 -0.1
v 0.3 0.1 2.23517e-008
v 0.3 0.1 -0.1
v 0.4 0.1 2.23517e-008
v 0.4 0.1 -0.1
v 0.4 0.2 2.23517e-008
v 0.4 0.2 -0.1
v 0.4 0.4 2.23517e-008
v 0.4 0.4 -0.1
v 0.4 0.5 2.23517e-008
v 0.4 0.5 -0.1
v 0.5 0.2 2.23517e-008
v 0.5 0.2 -0.1
v 0.5 0.4 2.23517e-008
v 0.5 0.4 -0.1
v -0.9 0.2 2.23517e-008
v -0.9 0.4 2.23517e-008
v -0.8 0.1 2.23517e-008
v -0.8 0.2 2.23517e-008
v -0.8 0.3 2.23517e-008
v -0.8 0.4 2.23517e-008
v -0.8 0.5 2.23517e-008
v -0.7 0 2.23517e-008
v -0.7 0.1 2.23517e-008
v -0.7 0.2 2.23517e-008
v -0.7 0.3 2.23517e-008
v -0.7 0.4 2.23517e-008
v -0.7 0.5 2.23517e-008
v -0.6 0.2 2.23517e-008
v -0.6 0.3 2.23517e-008
v -0.6 0.4 2.23517e-008
v -0.6 0.5 2.23517e-008
v -0.6 0.6 2.23517e-008
v -0.5 0.5 2.23517e-008
v -0.5 0.6 2.23517e-008
v -0.5 0.7 2.23517e-008
v -0.4 0.2 2.23517e-008
v -0.4 0.3 2.23517e-008
v -0.4 0.4 2.23517e-008
v -0.4 0.5 2.23517e-008
v -0.3 0 2.23517e-008
v -0.3 0.1 2.23517e-008
v -0.3 0.2 2.23517e-008
v -0.3 0.3 2.23517e-008
v -0.3 0.4 2.23517e-008
v -0.1 0 2.23517e-008
v -0.1 0.1 2.23517e-008
v -0.1 0.2 2.23517e-008
v -0.1 0.3 2.23517e-008
v -0.1 0.4 2.23517e-008
v 0 0.2 2.23517e-008
v 0 0.3 2.23517e-008
v 0 0.4 2.23517e-008
v 0 0.5 2.23517e-008
v 0.1 0.5 2.23517e-008
v 0.1 0.6 2.23517e-008
v 0.1 0.7 2.23517e-008
v 0.2 0.2 2.23517e-008
v 0.2 0.3 2.23517e-008
v 0.2 0.4 2.23517e-008
v 0.2 0.5 2.23517e-008
v 0.2 0.6 2.23517e-008
v 0.3 0 2.23517e-008
v 0.3 0.1 2.23517e-008
v 0.3 0.2 2.23517e-008
v 0.3 0.3 2.23517e-008
v 0.3 0.4 2.23517e-008
v 0.3 0.5 2.23517e-008
v 0.4 0.1 2.23517e-008
v 0.4 0.2 2.23517e-008
v 0.4 0.3 2.23517e-008
v 0.4 0.4 2.23517e-008
v 0.4 0.5 2.23517e-008
v 0.5 0.2 2.23517e-008
v 0.5 0.4 2.23517e-008
v -0.9 0.2 -0.1
v -0.9 0.4 -0.1
v -0.8 0.1 -0.1
v -0.8 0.2 -0.1
v -0.8 0.3 -0.1
v -0.8 0.4 -0.1
v -0.8 0.5 -0.1
v -0.7 0 -0.1
v -0.7 0.1 -0.1
v -0.7 0.2 -0.1
v -0.7 0.3 -0.1
v -0.7 0.4 -0.1
v -0.7 0.5 -0.1
v -0.6 0.2 -0.1
v -0.6 0.3 -0.1
v -0.6 0.4 -0.1
v -0.6 0.5 -0.1
v -0.6 0.6 -0.1
v -0.5 0.5 -0.1
v -0.5 0.6 -0.1
v -0.5 0.7 -0.1
v -0.4 0.2 -0.1
v -0.4 0.3 -0.1
v -0.4 0.4 -0.1
v -0.4 0.5 -0.1
v -0.3 0 -0.1
v -0.3 0.1 -0.1
v -0.3 0.2 -0.1
v -0.3 0.3 -0.1
v -0.3 0.4 -0.1
v -0.1 0 -0.1
v -0.1 0.1 -0.1
v -0.1 0.2 -0.1
v -0.1 0.3 -0.1
v -0.1 0.4 -0.1
v 0 0.2 -0.1
v 0 0.3 -0.1
v 0 0.4 -0.1
v 0 0.5 -0.1
v 0.1 0.5 -0.1
v 0.1 0.6 -0.1
v 0.1 0.7 -0.1
v 0.2 0.2 -0.1
v 0.2 0.3 -0.1
v 0.2 0.4 -0.1
v 0.2 0.5 -0.1
v 0.2 0.6 -0.1
v 0.3 0 -0.1
v 0.3 0.1 -0.1
v 0.3 0.2 -0.1
v 0.3 0.3 -0.1
v 0.3 0.4 -0.1
v 0.3 0.5 -0.1
v 0.4 0.1 -0.1
v 0.4 0.2 -0.1
v 0.4 0.3 -0.1
v 0.4 0.4 -0.1
v 0.4 0.5 -0.1
v 0.5 0.2 -0.1
v 0.5 0.4 -0.1
v -0.7 0 2.23517e-008
v -0.3 0 2.23517e-008
v -0.1 0 2.23517e-008
v 0.3 0 2.23517e-008
v -0.7 0 -0.1
v -0.3 0 -0.1
v -0.1 0 -0.1
v 0.3 0 -0.1
v -0.8 0.1 2.23517e-008
v -0.7 0.1 2.23517e-008
v -0.3 0.1 2.23517e-008
v -0.1 0.1 2.23517e-008
v 0.3 0.1 2.23517e-008
v 0.4 0.1 2.23517e-008
v -0.8 0.1 -0.1
v -0.7 0.1 -0.1
v -0.3 0.1 -0.1
v -0.1 0.1 -0.1
v 0.3 0.1 -0.1
v 0.4 0.1 -0.1
v -0.9 0.2 2.23517e-008
v -0.8 0.2 2.23517e-008
v 0.4 0.2 2.23517e-008
v 0.5 0.2 2.23517e-008
v -0.9 0.2 -0.1
v -0.8 0.2 -0.1
v 0.4 0.2 -0.1
v 0.5 0.2 -0.1
v -0.9 0.4 2.23517e-008
v -0.8 0.4 2.23517e-008
v 0.4 0.4 2.23517e-008
v 0.5 0.4 2.23517e-008
v -0.9 0.4 -0.1
v -0.8 0.4 -0.1
v 0.4 0.4 -0.1
v 0.5 0.4 -0.1
v -0.8 0.5 2.23517e-008
v -0.7 0.5 2.23517e-008
v -0.6 0.5 2.23517e-008
v 0.2 0.5 2.23517e-008
v 0.3 0.5 2.23517e-008
v 0.4 0.5 2.23517e-008
v -0.8 0.5 -0.1
v -0.7 0.5 -0.1
v -0.6 0.5 -0.1
v 0.2 0.5 -0.1
v 0.3 0.5 -0.1
v 0.4 0.5 -0.1
v -0.6 0.6 2.23517e-008
v -0.5 0.6 2.23517e-008
v 0.1 0.6 2.23517e-008
v 0.2 0.6 2.23517e-008
v -0.6 0.6 -0.1
v -0.5 0.6 -0.1
v 0.1 0.6 -0.1
v 0.2 0.6 -0.1
v -0.5 0.7 2.23517e-008
v 0.1 0.7 2.23517e-008
v -0.5 0.7 -0.1
v 0.1 0.7 -0.1

# faces
f 3/8/1 2/8/1 1/8/1
f 4/8/1 2/8/1 3/8/1
f 7/8/1 6/8/1 5/8/1
f 8/8/1 6/8/1 7/8/1
f 11/8/1 10/8/1 9/8/1
f 12/8/1 10/8/1 11/8/1
f 15/8/1 14/8/1 13/8/1
f 16/8/1 14/8/1 15/8/1
f 19/5/1 18/5/1 17/5/1
f 20/5/1 18/5/1 19/5/1
f 23/5/1 22/5/1 21/5/1
f 24/5/1 22/5/1 23/5/1
f 27/8/1 26/8/1 25/8/1
f 28/8/1 26/8/1 27/8/1
f 29/8/2 30/8/2 31/8/2
f 31/8/2 30/8/2 32/8/2
f 33/5/2 34/5/2 35/5/2
f 35/5/2 34/5/2 36/5/2
f 37/5/2 38/5/2 39/5/2
f 39/5/2 38/5/2 40/5/2
f 41/8/2 42/8/2 43/8/2
f 43/8/2 42/8/2 44/8/2
f 45/8/2 46/8/2 47/8/2
f 47/8/2 46/8/2 48/8/2
f 49/8/2 50/8/2 51/8/2
f 51/8/2 50/8/2 52/8/2
f 53/8/2 54/8/2 55/8/2
f 55/8/2 54/8/2 56/8/2
f 60/8/3 58/8/3 57/8/3
f 61/8/3 58/8/3 60/8/3
f 62/8/3 58/8/3 61/8/3
f 65/8/3 60/8/3 59/8/3
f 66/2/3 61/2/3 60/2/3
f 66/8/3 60/8/3 65/8/3
f 67/1/3 62/1/3 61/1/3
f 67/2/3 61/2/3 66/2/3
f 68/8/3 63/8/3 62/8/3
f 68/1/3 62/1/3 67/1/3
f 69/8/3 63/8/3 68/8/3
f 70/8/3 67/8/3 66/8/3
f 70/6/3 66/6/3 65/6/3
f 71/5/3 69/5/3 68/5/3
f 71/8/3 67/8/3 70/8/3
f 71/5/3 68/5/3 67/5/3
f 72/5/3 69/5/3 71/5/3
f 73/5/3 69/5/3 72/5/3
f 75/3/3 73/3/3 72/3/3
f 75/5/3 74/5/3 73/5/3
f 76/5/3 74/5/3 75/5/3
f 78/6/3 70/6/3 65/6/3
f 78/6/3 71/6/3 70/6/3
f 79/8/3 72/8/3 71/8/3
f 79/6/3 71/6/3 78/6/3
f 80/3/3 76/3/3 75/3/3
f 80/8/3 72/8/3 79/8/3
f 80/3/3 75/3/3 72/3/3
f 81/3/3 76/3/3 80/3/3
f 82/8/3 65/8/3 64/8/3
f 83/6/3 78/6/3 65/6/3
f 83/8/3 65/8/3 82/8/3
f 84/8/3 79/8/3 78/8/3
f 84/6/3 78/6/3 83/6/3
f 84/8/3 80/8/3 79/8/3
f 85/8/3 80/8/3 84/8/3
f 86/4/3 81/4/3 80/4/3
f 86/8/3 80/8/3 85/8/3
f 88/7/3 84/7/3 83/7/3
f 89/8/3 85/8/3 84/8/3
f 89/7/3 84/7/3 88/7/3
f 90/4/3 86/4/3 85/4/3
f 90/8/3 85/8/3 89/8/3
f 91/4/3 81/4/3 86/4/3
f 91/4/3 86/4/3 90/4/3
f 92/8/3 90/8/3 89/8/3
f 92/6/3 89/6/3 88/6/3
f 92/8/3 91/8/3 90/8/3
f 93/8/3 91/8/3 92/8/3
f 94/4/3 81/4/3 91/4/3
f 94/8/3 91/8/3 93/8/3
f 95/3/3 76/3/3 81/3/3
f 95/4/3 81/4/3 94/4/3
f 96/3/3 95/3/3 94/3/3
f 96/3/3 76/3/3 95/3/3
f 97/5/3 77/5/3 76/5/3
f 97/3/3 76/3/3 96/3/3
f 98/5/3 77/5/3 97/5/3
f 99/6/3 93/6/3 92/6/3
f 99/6/3 92/6/3 88/6/3
f 100/8/3 94/8/3 93/8/3
f 100/6/3 93/6/3 99/6/3
f 101/3/3 96/3/3 94/3/3
f 101/8/3 94/8/3 100/8/3
f 102/5/3 97/5/3 96/5/3
f 102/3/3 96/3/3 101/3/3
f 103/5/3 97/5/3 102/5/3
f 104/8/3 88/8/3 87/8/3
f 105/6/3 99/6/3 88/6/3
f 105/8/3 88/8/3 104/8/3
f 106/8/3 100/8/3 99/8/3
f 106/6/3 99/6/3 105/6/3
f 107/5/3 101/5/3 100/5/3
f 107/8/3 100/8/3 106/8/3
f 107/5/3 102/5/3 101/5/3
f 108/5/3 102/5/3 107/5/3
f 109/5/3 102/5/3 108/5/3
f 110/8/3 106/8/3 105/8/3
f 111/2/3 107/2/3 106/2/3
f 111/8/3 106/8/3 110/8/3
f 112/1/3 108/1/3 107/1/3
f 112/2/3 107/2/3 111/2/3
f 113/8/3 109/8/3 108/8/3
f 113/1/3 108/1/3 112/1/3
f 114/8/3 109/8/3 113/8/3
f 115/8/3 112/8/3 111/8/3
f 115/8/3 113/8/3 112/8/3
f 116/8/3 113/8/3 115/8/3
f 117/8/4 118/8/4 120/8/4
f 120/8/4 118/8/4 121/8/4
f 121/8/4 118/8/4 122/8/4
f 119/8/4 120/8/4 125/8/4
f 120/2/4 121/2/4 126/2/4
f 125/8/4 120/8/4 126/8/4
f 121/1/4 122/1/4 127/1/4
f 126/2/4 121/2/4 127/2/4
f 122/8/4 123/8/4 128/8/4
f 127/1/4 122/1/4 128/1/4
f 128/8/4 123/8/4 129/8/4
f 126/8/4 127/8/4 130/8/4
f 125/6/4 126/6/4 130/6/4
f 128/5/4 129/5/4 131/5/4
f 130/8/4 127/8/4 131/8/4
f 127/5/4 128/5/4 131/5/4
f 131/5/4 129/5/4 132/5/4
f 132/5/4 129/5/4 133/5/4
f 132/3/4 133/3/4 135/3/4
f 133/5/4 134/5/4 135/5/4
f 135/5/4 134/5/4 136/5/4
f 125/6/4 130/6/4 138/6/4
f 130/6/4 131/6/4 138/6/4
f 131/8/4 132/8/4 139/8/4
f 138/6/4 131/6/4 139/6/4
f 135/3/4 136/3/4 140/3/4
f 139/8/4 132/8/4 140/8/4
f 132/3/4 135/3/4 140/3/4
f 140/3/4 136/3/4 141/3/4
f 124/8/4 125/8/4 142/8/4
f 125/6/4 138/6/4 143/6/4
f 142/8/4 125/8/4 143/8/4
f 138/8/4 139/8/4 144/8/4
f 143/6/4 138/6/4 144/6/4
f 139/8/4 140/8/4 144/8/4
f 144/8/4 140/8/4 145/8/4
f 140/4/4 141/4/4 146/4/4
f 145/8/4 140/8/4 146/8/4
f 143/7/4 144/7/4 148/7/4
f 144/8/4 145/8/4 149/8/4
f 148/7/4 144/7/4 149/7/4
f 145/4/4 146/4/4 150/4/4
f 149/8/4 145/8/4 150/8/4
f 146/4/4 141/4/4 151/4/4
f 150/4/4 146/4/4 151/4/4
f 149/8/4 150/8/4 152/8/4
f 148/6/4 149/6/4 152/6/4
f 150/8/4 151/8/4 152/8/4
f 152/8/4 151/8/4 153/8/4
f 151/4/4 141/4/4 154/4/4
f 153/8/4 151/8/4 154/8/4
f 141/3/4 136/3/4 155/3/4
f 154/4/4 141/4/4 155/4/4
f 154/3/4 155/3/4 156/3/4
f 155/3/4 136/3/4 156/3/4
f 136/5/4 137/5/4 157/5/4
f 156/3/4 136/3/4 157/3/4
f 157/5/4 137/5/4 158/5/4
f 152/6/4 153/6/4 159/6/4
f 148/6/4 152/6/4 159/6/4
f 153/8/4 154/8/4 160/8/4
f 159/6/4 153/6/4 160/6/4
f 154/3/4 156/3/4 161/3/4
f 160/8/4 154/8/4 161/8/4
f 156/5/4 157/5/4 162/5/4
f 161/3/4 156/3/4 162/3/4
f 162/5/4 157/5/4 163/5/4
f 147/8/4 148/8/4 164/8/4
f 148/6/4 159/6/4 165/6/4
f 164/8/4 148/8/4 165/8/4
f 159/8/4 160/8/4 166/8/4
f 165/6/4 159/6/4 166/6/4
f 160/5/4 161/5/4 167/5/4
f 166/8/4 160/8/4 167/8/4
f 161/5/4 162/5/4 167/5/4
f 167/5/4 162/5/4 168/5/4
f 168/5/4 162/5/4 169/5/4
f 165/8/4 166/8/4 170/8/4
f 166/2/4 167/2/4 171/2/4
f 170/8/4 166/8/4 171/8/4
f 167/1/4 168/1/4 172/1/4
f 171/2/4 167/2/4 172/2/4
f 168/8/4 169/8/4 173/8/4
f 172/1/4 168/1/4 173/1/4
f 173/8/4 169/8/4 174/8/4
f 171/8/4 172/8/4 175/8/4
f 172/8/4 173/8/4 175/8/4
f 175/8/4 173/8/4 176/8/4
f 181/8/5 178/8/5 177/8/5
f 182/8/5 178/8/5 181/8/5
f 183/8/5 180/8/5 179/8/5
f 184/8/5 180/8/5 183/8/5
f 191/8/5 186/8/5 185/8/5
f 192/8/5 186/8/5 191/8/5
f 193/7/5 188/7/5 187/7/5
f 194/7/5 188/7/5 193/7/5
f 195/8/5 190/8/5 189/8/5
f 196/8/5 190/8/5 195/8/5
f 201/8/5 198/8/5 197/8/5
f 202/8/5 198/8/5 201/8/5
f 203/8/5 200/8/5 199/8/5
f 204/8/5 200/8/5 203/8/5
f 205/8/6 206/8/6 209/8/6
f 209/8/6 206/8/6 210/8/6
f 207/8/6 208/8/6 211/8/6
f 211/8/6 208/8/6 212/8/6
f 213/8/6 214/8/6 219/8/6
f 214/5/6 215/5/6 220/5/6
f 219/8/6 214/8/6 220/8/6
f 220/5/6 215/5/6 221/5/6
f 216/5/6 217/5/6 222/5/6
f 217/8/6 218/8/6 223/8/6
f 222/5/6 217/5/6 223/5/6
f 223/8/6 218/8/6 224/8/6
f 225/5/6 226/5/6 229/5/6
f 229/5/6 226/5/6 230/5/6
f 227/5/6 228/5/6 231/5/6
f 231/5/6 228/5/6 232/5/6
f 233/5/6 234/5/6 235/5/6
f 235/5/6 234/5/6 236/5/6
