# MagicaVoxel @ Ephtracy

# group
o 

# material
mtllib walk 1.mtl
usemtl palette

# normals
vn -1 0 0
vn 1 0 0
vn 0 0 1
vn 0 0 -1
vn 0 -1 0
vn 0 1 0

# texcoords
vt 0.0566406 0.5
vt 0.0605469 0.5
vt 0.0917969 0.5
vt 0.373047 0.5
vt 0.728516 0.5
vt 0.755859 0.5
vt 0.861328 0.5
vt 0.869141 0.5
vt 0.994141 0.5

# verts
v -1.2 0.6 2.23517e-008
v -1.2 0.6 -0.1
v -1.2 0.8 2.23517e-008
v -1.2 0.8 -0.1
v -1.1 0.5 2.23517e-008
v -1.1 0.5 -0.1
v -1.1 0.6 2.23517e-008
v -1.1 0.6 -0.1
v -1.1 0.8 2.23517e-008
v -1.1 0.8 -0.1
v -1.1 1.1 2.23517e-008
v -1.1 1.1 -0.1
v -1 1.1 2.23517e-008
v -1 1.1 -0.1
v -1 1.2 2.23517e-008
v -1 1.2 -0.1
v -1 1.3 2.23517e-008
v -1 1.3 -0.1
v -1 1.5 2.23517e-008
v -1 1.5 -0.1
v -0.9 0.1 2.23517e-008
v -0.9 0.1 -0.1
v -0.9 0.3 2.23517e-008
v -0.9 0.3 -0.1
v -0.9 0.4 2.23517e-008
v -0.9 0.4 -0.1
v -0.9 0.5 2.23517e-008
v -0.9 0.5 -0.1
v -0.8 0 2.23517e-008
v -0.8 0 -0.1
v -0.8 0.1 2.23517e-008
v -0.8 0.1 -0.1
v -0.8 0.3 2.23517e-008
v -0.8 0.3 -0.1
v -0.8 0.4 2.23517e-008
v -0.8 0.4 -0.1
v -0.8 1.2 2.23517e-008
v -0.8 1.2 -0.1
v -0.8 1.3 2.23517e-008
v -0.8 1.3 -0.1
v -0.7 1.4 2.23517e-008
v -0.7 1.4 -0.1
v -0.7 1.5 2.23517e-008
v -0.7 1.5 -0.1
v -0.6 1.5 2.23517e-008
v -0.6 1.5 -0.1
v -0.6 1.6 2.23517e-008
v -0.6 1.6 -0.1
v -0.3 0 2.23517e-008
v -0.3 0 -0.1
v -0.3 0.1 2.23517e-008
v -0.3 0.1 -0.1
v -0.9 1.4 2.23517e-008
v -0.9 1.4 -0.1
v -0.9 1.5 2.23517e-008
v -0.9 1.5 -0.1
v -0.5 0 2.23517e-008
v -0.5 0 -0.1
v -0.5 0.1 2.23517e-008
v -0.5 0.1 -0.1
v -0.0999999 1.5 2.23517e-008
v -0.0999999 1.5 -0.1
v -0.0999999 1.6 2.23517e-008
v -0.0999999 1.6 -0.1
v 1.19209e-007 0 2.23517e-008
v 1.19209e-007 0 -0.1
v 1.19209e-007 0.1 2.23517e-008
v 1.19209e-007 0.1 -0.1
v 1.19209e-007 0.3 2.23517e-008
v 1.19209e-007 0.3 -0.1
v 1.19209e-007 0.4 2.23517e-008
v 1.19209e-007 0.4 -0.1
v 1.19209e-007 1.4 2.23517e-008
v 1.19209e-007 1.4 -0.1
v 1.19209e-007 1.5 2.23517e-008
v 1.19209e-007 1.5 -0.1
v 0.1 0.1 2.23517e-008
v 0.1 0.1 -0.1
v 0.1 0.3 2.23517e-008
v 0.1 0.3 -0.1
v 0.1 0.4 2.23517e-008
v 0.1 0.4 -0.1
v 0.1 0.5 2.23517e-008
v 0.1 0.5 -0.1
v 0.1 1.2 2.23517e-008
v 0.1 1.2 -0.1
v 0.1 1.4 2.23517e-008
v 0.1 1.4 -0.1
v 0.2 1.1 2.23517e-008
v 0.2 1.1 -0.1
v 0.2 1.2 2.23517e-008
v 0.2 1.2 -0.1
v 0.3 0.5 2.23517e-008
v 0.3 0.5 -0.1
v 0.3 0.6 2.23517e-008
v 0.3 0.6 -0.1
v 0.3 0.8 2.23517e-008
v 0.3 0.8 -0.1
v 0.3 1.1 2.23517e-008
v 0.3 1.1 -0.1
v 0.4 0.6 2.23517e-008
v 0.4 0.6 -0.1
v 0.4 0.8 2.23517e-008
v 0.4 0.8 -0.1
v -1.2 0.6 2.23517e-008
v -1.2 0.8 2.23517e-008
v -1.1 0.5 2.23517e-008
v -1.1 0.6 2.23517e-008
v -1.1 0.7 2.23517e-008
v -1.1 0.8 2.23517e-008
v -1.1 1.1 2.23517e-008
v -1 0.9 2.23517e-008
v -1 1.1 2.23517e-008
v -1 1.2 2.23517e-008
v -1 1.3 2.23517e-008
v -1 1.5 2.23517e-008
v -0.9 0.1 2.23517e-008
v -0.9 0.3 2.23517e-008
v -0.9 0.4 2.23517e-008
v -0.9 0.5 2.23517e-008
v -0.9 0.7 2.23517e-008
v -0.9 0.8 2.23517e-008
v -0.9 0.9 2.23517e-008
v -0.9 1 2.23517e-008
v -0.9 1.4 2.23517e-008
v -0.9 1.5 2.23517e-008
v -0.8 0 2.23517e-008
v -0.8 0.1 2.23517e-008
v -0.8 0.2 2.23517e-008
v -0.8 0.3 2.23517e-008
v -0.8 0.4 2.23517e-008
v -0.8 0.6 2.23517e-008
v -0.8 0.7 2.23517e-008
v -0.8 0.8 2.23517e-008
v -0.8 1 2.23517e-008
v -0.8 1.1 2.23517e-008
v -0.8 1.2 2.23517e-008
v -0.8 1.3 2.23517e-008
v -0.7 0.4 2.23517e-008
v -0.7 0.5 2.23517e-008
v -0.7 0.6 2.23517e-008
v -0.7 0.7 2.23517e-008
v -0.7 0.8 2.23517e-008
v -0.7 0.9 2.23517e-008
v -0.7 1 2.23517e-008
v -0.7 1.2 2.23517e-008
v -0.7 1.4 2.23517e-008
v -0.7 1.5 2.23517e-008
v -0.6 0.4 2.23517e-008
v -0.6 0.5 2.23517e-008
v -0.6 0.6 2.23517e-008
v -0.6 0.7 2.23517e-008
v -0.6 0.8 2.23517e-008
v -0.6 0.9 2.23517e-008
v -0.6 1.1 2.23517e-008
v -0.6 1.2 2.23517e-008
v -0.6 1.3 2.23517e-008
v -0.6 1.5 2.23517e-008
v -0.6 1.6 2.23517e-008
v -0.5 0 2.23517e-008
v -0.5 0.1 2.23517e-008
v -0.5 0.2 2.23517e-008
v -0.5 0.3 2.23517e-008
v -0.5 0.4 2.23517e-008
v -0.5 0.9 2.23517e-008
v -0.5 1.1 2.23517e-008
v -0.5 1.3 2.23517e-008
v -0.5 1.4 2.23517e-008
v -0.4 1.2 2.23517e-008
v -0.4 1.3 2.23517e-008
v -0.4 1.4 2.23517e-008
v -0.3 0 2.23517e-008
v -0.3 0.1 2.23517e-008
v -0.3 0.2 2.23517e-008
v -0.3 0.3 2.23517e-008
v -0.3 0.4 2.23517e-008
v -0.3 0.8 2.23517e-008
v -0.3 0.9 2.23517e-008
v -0.3 1.1 2.23517e-008
v -0.3 1.2 2.23517e-008
v -0.3 1.3 2.23517e-008
v -0.2 0.4 2.23517e-008
v -0.2 0.5 2.23517e-008
v -0.2 0.6 2.23517e-008
v -0.2 0.7 2.23517e-008
v -0.2 0.8 2.23517e-008
v -0.2 0.9 2.23517e-008
v -0.2 1.1 2.23517e-008
v -0.2 1.2 2.23517e-008
v -0.0999999 0.4 2.23517e-008
v -0.0999999 0.5 2.23517e-008
v -0.0999999 0.6 2.23517e-008
v -0.0999999 0.7 2.23517e-008
v -0.0999999 0.8 2.23517e-008
v -0.0999999 0.9 2.23517e-008
v -0.0999999 1 2.23517e-008
v -0.0999999 1.1 2.23517e-008
v -0.0999999 1.5 2.23517e-008
v -0.0999999 1.6 2.23517e-008
v 1.19209e-007 0 2.23517e-008
v 1.19209e-007 0.1 2.23517e-008
v 1.19209e-007 0.2 2.23517e-008
v 1.19209e-007 0.3 2.23517e-008
v 1.19209e-007 0.4 2.23517e-008
v 1.19209e-007 0.6 2.23517e-008
v 1.19209e-007 0.7 2.23517e-008
v 1.19209e-007 0.8 2.23517e-008
v 1.19209e-007 1 2.23517e-008
v 1.19209e-007 1.1 2.23517e-008
v 1.19209e-007 1.4 2.23517e-008
v 1.19209e-007 1.5 2.23517e-008
v 0.1 0.1 2.23517e-008
v 0.1 0.3 2.23517e-008
v 0.1 0.4 2.23517e-008
v 0.1 0.5 2.23517e-008
v 0.1 0.7 2.23517e-008
v 0.1 0.8 2.23517e-008
v 0.1 0.9 2.23517e-008
v 0.1 1 2.23517e-008
v 0.1 1.2 2.23517e-008
v 0.1 1.4 2.23517e-008
v 0.2 0.9 2.23517e-008
v 0.2 1.1 2.23517e-008
v 0.2 1.2 2.23517e-008
v 0.3 0.5 2.23517e-008
v 0.3 0.6 2.23517e-008
v 0.3 0.7 2.23517e-008
v 0.3 0.8 2.23517e-008
v 0.3 1.1 2.23517e-008
v 0.4 0.6 2.23517e-008
v 0.4 0.8 2.23517e-008
v -1.2 0.6 -0.1
v -1.2 0.8 -0.1
v -1.1 0.5 -0.1
v -1.1 0.6 -0.1
v -1.1 0.7 -0.1
v -1.1 0.8 -0.1
v -1.1 1.1 -0.1
v -1 0.9 -0.1
v -1 1.1 -0.1
v -1 1.2 -0.1
v -1 1.3 -0.1
v -1 1.5 -0.1
v -0.9 0.1 -0.1
v -0.9 0.3 -0.1
v -0.9 0.4 -0.1
v -0.9 0.5 -0.1
v -0.9 0.7 -0.1
v -0.9 0.8 -0.1
v -0.9 0.9 -0.1
v -0.9 1 -0.1
v -0.9 1.4 -0.1
v -0.9 1.5 -0.1
v -0.8 0 -0.1
v -0.8 0.1 -0.1
v -0.8 0.2 -0.1
v -0.8 0.3 -0.1
v -0.8 0.4 -0.1
v -0.8 0.6 -0.1
v -0.8 0.7 -0.1
v -0.8 0.8 -0.1
v -0.8 1 -0.1
v -0.8 1.1 -0.1
v -0.8 1.2 -0.1
v -0.8 1.3 -0.1
v -0.7 0.4 -0.1
v -0.7 0.5 -0.1
v -0.7 0.6 -0.1
v -0.7 0.7 -0.1
v -0.7 0.8 -0.1
v -0.7 0.9 -0.1
v -0.7 1 -0.1
v -0.7 1.2 -0.1
v -0.7 1.4 -0.1
v -0.7 1.5 -0.1
v -0.6 0.4 -0.1
v -0.6 0.5 -0.1
v -0.6 0.6 -0.1
v -0.6 0.7 -0.1
v -0.6 0.8 -0.1
v -0.6 0.9 -0.1
v -0.6 1.1 -0.1
v -0.6 1.2 -0.1
v -0.6 1.3 -0.1
v -0.6 1.5 -0.1
v -0.6 1.6 -0.1
v -0.5 0 -0.1
v -0.5 0.1 -0.1
v -0.5 0.2 -0.1
v -0.5 0.3 -0.1
v -0.5 0.4 -0.1
v -0.5 0.9 -0.1
v -0.5 1.1 -0.1
v -0.5 1.3 -0.1
v -0.5 1.4 -0.1
v -0.4 1.2 -0.1
v -0.4 1.3 -0.1
v -0.4 1.4 -0.1
v -0.3 0 -0.1
v -0.3 0.1 -0.1
v -0.3 0.2 -0.1
v -0.3 0.3 -0.1
v -0.3 0.4 -0.1
v -0.3 0.8 -0.1
v -0.3 0.9 -0.1
v -0.3 1.1 -0.1
v -0.3 1.2 -0.1
v -0.3 1.3 -0.1
v -0.2 0.4 -0.1
v -0.2 0.5 -0.1
v -0.2 0.6 -0.1
v -0.2 0.7 -0.1
v -0.2 0.8 -0.1
v -0.2 0.9 -0.1
v -0.2 1.1 -0.1
v -0.2 1.2 -0.1
v -0.0999999 0.4 -0.1
v -0.0999999 0.5 -0.1
v -0.0999999 0.6 -0.1
v -0.0999999 0.7 -0.1
v -0.0999999 0.8 -0.1
v -0.0999999 0.9 -0.1
v -0.0999999 1 -0.1
v -0.0999999 1.1 -0.1
v -0.0999999 1.5 -0.1
v -0.0999999 1.6 -0.1
v 1.19209e-007 0 -0.1
v 1.19209e-007 0.1 -0.1
v 1.19209e-007 0.2 -0.1
v 1.19209e-007 0.3 -0.1
v 1.19209e-007 0.4 -0.1
v 1.19209e-007 0.6 -0.1
v 1.19209e-007 0.7 -0.1
v 1.19209e-007 0.8 -0.1
v 1.19209e-007 1 -0.1
v 1.19209e-007 1.1 -0.1
v 1.19209e-007 1.4 -0.1
v 1.19209e-007 1.5 -0.1
v 0.1 0.1 -0.1
v 0.1 0.3 -0.1
v 0.1 0.4 -0.1
v 0.1 0.5 -0.1
v 0.1 0.7 -0.1
v 0.1 0.8 -0.1
v 0.1 0.9 -0.1
v 0.1 1 -0.1
v 0.1 1.2 -0.1
v 0.1 1.4 -0.1
v 0.2 0.9 -0.1
v 0.2 1.1 -0.1
v 0.2 1.2 -0.1
v 0.3 0.5 -0.1
v 0.3 0.6 -0.1
v 0.3 0.7 -0.1
v 0.3 0.8 -0.1
v 0.3 1.1 -0.1
v 0.4 0.6 -0.1
v 0.4 0.8 -0.1
v -0.8 0 2.23517e-008
v -0.5 0 2.23517e-008
v -0.3 0 2.23517e-008
v 1.19209e-007 0 2.23517e-008
v -0.8 0 -0.1
v -0.5 0 -0.1
v -0.3 0 -0.1
v 1.19209e-007 0 -0.1
v -0.9 0.1 2.23517e-008
v -0.8 0.1 2.23517e-008
v -0.5 0.1 2.23517e-008
v -0.3 0.1 2.23517e-008
v 1.19209e-007 0.1 2.23517e-008
v 0.1 0.1 2.23517e-008
v -0.9 0.1 -0.1
v -0.8 0.1 -0.1
v -0.5 0.1 -0.1
v -0.3 0.1 -0.1
v 1.19209e-007 0.1 -0.1
v 0.1 0.1 -0.1
v -0.9 0.4 2.23517e-008
v -0.8 0.4 2.23517e-008
v 1.19209e-007 0.4 2.23517e-008
v 0.1 0.4 2.23517e-008
v -0.9 0.4 -0.1
v -0.8 0.4 -0.1
v 1.19209e-007 0.4 -0.1
v 0.1 0.4 -0.1
v -1.1 0.5 2.23517e-008
v -0.9 0.5 2.23517e-008
v 0.1 0.5 2.23517e-008
v 0.3 0.5 2.23517e-008
v -1.1 0.5 -0.1
v -0.9 0.5 -0.1
v 0.1 0.5 -0.1
v 0.3 0.5 -0.1
v -1.2 0.6 2.23517e-008
v -1.1 0.6 2.23517e-008
v 0.3 0.6 2.23517e-008
v 0.4 0.6 2.23517e-008
v -1.2 0.6 -0.1
v -1.1 0.6 -0.1
v 0.3 0.6 -0.1
v 0.4 0.6 -0.1
v -1 1.3 2.23517e-008
v -0.8 1.3 2.23517e-008
v -1 1.3 -0.1
v -0.8 1.3 -0.1
v -0.9 0.3 2.23517e-008
v -0.8 0.3 2.23517e-008
v 1.19209e-007 0.3 2.23517e-008
v 0.1 0.3 2.23517e-008
v -0.9 0.3 -0.1
v -0.8 0.3 -0.1
v 1.19209e-007 0.3 -0.1
v 0.1 0.3 -0.1
v -1.2 0.8 2.23517e-008
v -1.1 0.8 2.23517e-008
v 0.3 0.8 2.23517e-008
v 0.4 0.8 2.23517e-008
v -1.2 0.8 -0.1
v -1.1 0.8 -0.1
v 0.3 0.8 -0.1
v 0.4 0.8 -0.1
v -1.1 1.1 2.23517e-008
v -1 1.1 2.23517e-008
v 0.2 1.1 2.23517e-008
v 0.3 1.1 2.23517e-008
v -1.1 1.1 -0.1
v -1 1.1 -0.1
v 0.2 1.1 -0.1
v 0.3 1.1 -0.1
v -1 1.2 2.23517e-008
v -0.8 1.2 2.23517e-008
v 0.1 1.2 2.23517e-008
v 0.2 1.2 2.23517e-008
v -1 1.2 -0.1
v -0.8 1.2 -0.1
v 0.1 1.2 -0.1
v 0.2 1.2 -0.1
v -0.9 1.4 2.23517e-008
v -0.7 1.4 2.23517e-008
v 1.19209e-007 1.4 2.23517e-008
v 0.1 1.4 2.23517e-008
v -0.9 1.4 -0.1
v -0.7 1.4 -0.1
v 1.19209e-007 1.4 -0.1
v 0.1 1.4 -0.1
v -1 1.5 2.23517e-008
v -0.9 1.5 2.23517e-008
v -0.7 1.5 2.23517e-008
v -0.6 1.5 2.23517e-008
v -0.0999999 1.5 2.23517e-008
v 1.19209e-007 1.5 2.23517e-008
v -1 1.5 -0.1
v -0.9 1.5 -0.1
v -0.7 1.5 -0.1
v -0.6 1.5 -0.1
v -0.0999999 1.5 -0.1
v 1.19209e-007 1.5 -0.1
v -0.6 1.6 2.23517e-008
v -0.0999999 1.6 2.23517e-008
v -0.6 1.6 -0.1
v -0.0999999 1.6 -0.1

# faces
f 3/9/1 2/9/1 1/9/1
f 4/9/1 2/9/1 3/9/1
f 7/9/1 6/9/1 5/9/1
f 8/9/1 6/9/1 7/9/1
f 11/9/1 10/9/1 9/9/1
f 12/9/1 10/9/1 11/9/1
f 15/9/1 14/9/1 13/9/1
f 16/9/1 14/9/1 15/9/1
f 19/9/1 18/9/1 17/9/1
f 20/9/1 18/9/1 19/9/1
f 23/9/1 22/9/1 21/9/1
f 24/9/1 22/9/1 23/9/1
f 27/9/1 26/9/1 25/9/1
f 28/9/1 26/9/1 27/9/1
f 31/9/1 30/9/1 29/9/1
f 32/9/1 30/9/1 31/9/1
f 35/9/1 34/9/1 33/9/1
f 36/9/1 34/9/1 35/9/1
f 39/9/1 38/9/1 37/9/1
f 40/9/1 38/9/1 39/9/1
f 43/9/1 42/9/1 41/9/1
f 44/9/1 42/9/1 43/9/1
f 47/9/1 46/9/1 45/9/1
f 48/9/1 46/9/1 47/9/1
f 51/9/1 50/9/1 49/9/1
f 52/9/1 50/9/1 51/9/1
f 53/9/2 54/9/2 55/9/2
f 55/9/2 54/9/2 56/9/2
f 57/9/2 58/9/2 59/9/2
f 59/9/2 58/9/2 60/9/2
f 61/9/2 62/9/2 63/9/2
f 63/9/2 62/9/2 64/9/2
f 65/9/2 66/9/2 67/9/2
f 67/9/2 66/9/2 68/9/2
f 69/9/2 70/9/2 71/9/2
f 71/9/2 70/9/2 72/9/2
f 73/9/2 74/9/2 75/9/2
f 75/9/2 74/9/2 76/9/2
f 77/9/2 78/9/2 79/9/2
f 79/9/2 78/9/2 80/9/2
f 81/9/2 82/9/2 83/9/2
f 83/9/2 82/9/2 84/9/2
f 85/9/2 86/9/2 87/9/2
f 87/9/2 86/9/2 88/9/2
f 89/9/2 90/9/2 91/9/2
f 91/9/2 90/9/2 92/9/2
f 93/9/2 94/9/2 95/9/2
f 95/9/2 94/9/2 96/9/2
f 97/9/2 98/9/2 99/9/2
f 99/9/2 98/9/2 100/9/2
f 101/9/2 102/9/2 103/9/2
f 103/9/2 102/9/2 104/9/2
f 108/9/3 106/9/3 105/9/3
f 109/9/3 106/9/3 108/9/3
f 110/9/3 106/9/3 109/9/3
f 112/9/3 111/9/3 110/9/3
f 113/9/3 111/9/3 112/9/3
f 120/9/3 108/9/3 107/9/3
f 121/2/3 109/2/3 108/2/3
f 121/1/3 110/1/3 109/1/3
f 122/9/3 112/9/3 110/9/3
f 122/1/3 110/1/3 121/1/3
f 123/3/3 113/3/3 112/3/3
f 123/9/3 112/9/3 122/9/3
f 124/3/3 113/3/3 123/3/3
f 125/9/3 116/9/3 115/9/3
f 126/9/3 116/9/3 125/9/3
f 128/9/3 118/9/3 117/9/3
f 129/9/3 118/9/3 128/9/3
f 130/9/3 118/9/3 129/9/3
f 131/9/3 120/9/3 119/9/3
f 132/9/3 108/9/3 120/9/3
f 132/2/3 121/2/3 108/2/3
f 132/9/3 120/9/3 131/9/3
f 133/9/3 122/9/3 121/9/3
f 133/2/3 121/2/3 132/2/3
f 133/9/3 123/9/3 122/9/3
f 133/9/3 124/9/3 123/9/3
f 134/9/3 124/9/3 133/9/3
f 135/3/3 113/3/3 124/3/3
f 135/9/3 124/9/3 134/9/3
f 136/9/3 114/9/3 113/9/3
f 136/3/3 113/3/3 135/3/3
f 137/9/3 114/9/3 136/9/3
f 138/9/3 125/9/3 115/9/3
f 139/9/3 131/9/3 130/9/3
f 139/6/3 132/6/3 131/6/3
f 140/6/3 132/6/3 139/6/3
f 141/9/3 134/9/3 133/9/3
f 141/6/3 132/6/3 140/6/3
f 141/9/3 133/9/3 132/9/3
f 142/9/3 134/9/3 141/9/3
f 143/1/3 135/1/3 134/1/3
f 143/9/3 134/9/3 142/9/3
f 144/1/3 135/1/3 143/1/3
f 145/9/3 138/9/3 137/9/3
f 145/1/3 135/1/3 144/1/3
f 145/9/3 137/9/3 136/9/3
f 145/9/3 136/9/3 135/9/3
f 146/9/3 138/9/3 145/9/3
f 147/9/3 125/9/3 138/9/3
f 147/9/3 138/9/3 146/9/3
f 149/5/3 140/5/3 139/5/3
f 149/9/3 139/9/3 130/9/3
f 150/6/3 141/6/3 140/6/3
f 150/5/3 140/5/3 149/5/3
f 151/4/3 142/4/3 141/4/3
f 151/6/3 141/6/3 150/6/3
f 152/1/3 143/1/3 142/1/3
f 152/4/3 142/4/3 151/4/3
f 153/9/3 144/9/3 143/9/3
f 153/1/3 143/1/3 152/1/3
f 154/1/3 146/1/3 145/1/3
f 154/9/3 144/9/3 153/9/3
f 154/1/3 145/1/3 144/1/3
f 155/1/3 146/1/3 154/1/3
f 156/9/3 148/9/3 147/9/3
f 156/1/3 146/1/3 155/1/3
f 156/9/3 147/9/3 146/9/3
f 157/9/3 148/9/3 156/9/3
f 158/9/3 148/9/3 157/9/3
f 160/9/3 128/9/3 127/9/3
f 161/8/3 129/8/3 128/8/3
f 161/9/3 128/9/3 160/9/3
f 162/7/3 130/7/3 129/7/3
f 162/8/3 129/8/3 161/8/3
f 163/9/3 149/9/3 130/9/3
f 163/7/3 130/7/3 162/7/3
f 164/6/3 150/6/3 149/6/3
f 164/9/3 149/9/3 163/9/3
f 165/9/3 155/9/3 154/9/3
f 165/1/3 154/1/3 153/1/3
f 166/1/3 156/1/3 155/1/3
f 166/9/3 155/9/3 165/9/3
f 166/1/3 157/1/3 156/1/3
f 167/9/3 158/9/3 157/9/3
f 167/1/3 157/1/3 166/1/3
f 167/9/3 159/9/3 158/9/3
f 168/9/3 159/9/3 167/9/3
f 169/1/3 166/1/3 165/1/3
f 169/1/3 167/1/3 166/1/3
f 170/2/3 168/2/3 167/2/3
f 170/1/3 167/1/3 169/1/3
f 171/9/3 159/9/3 168/9/3
f 171/2/3 168/2/3 170/2/3
f 173/9/3 162/9/3 161/9/3
f 174/8/3 163/8/3 162/8/3
f 174/9/3 162/9/3 173/9/3
f 175/5/3 164/5/3 163/5/3
f 175/8/3 163/8/3 174/8/3
f 176/6/3 150/6/3 164/6/3
f 176/5/3 164/5/3 175/5/3
f 177/1/3 169/1/3 165/1/3
f 177/9/3 153/9/3 152/9/3
f 177/1/3 165/1/3 153/1/3
f 178/1/3 169/1/3 177/1/3
f 179/1/3 169/1/3 178/1/3
f 180/2/3 170/2/3 169/2/3
f 180/1/3 169/1/3 179/1/3
f 181/9/3 171/9/3 170/9/3
f 181/2/3 170/2/3 180/2/3
f 182/6/3 150/6/3 176/6/3
f 182/9/3 176/9/3 175/9/3
f 183/4/3 151/4/3 150/4/3
f 183/6/3 150/6/3 182/6/3
f 184/2/3 152/2/3 151/2/3
f 184/4/3 151/4/3 183/4/3
f 185/9/3 177/9/3 152/9/3
f 185/2/3 152/2/3 184/2/3
f 186/2/3 178/2/3 177/2/3
f 186/9/3 177/9/3 185/9/3
f 187/9/3 179/9/3 178/9/3
f 187/2/3 178/2/3 186/2/3
f 188/2/3 180/2/3 179/2/3
f 188/9/3 179/9/3 187/9/3
f 189/9/3 181/9/3 180/9/3
f 189/2/3 180/2/3 188/2/3
f 190/5/3 183/5/3 182/5/3
f 190/9/3 182/9/3 175/9/3
f 191/6/3 184/6/3 183/6/3
f 191/5/3 183/5/3 190/5/3
f 192/4/3 185/4/3 184/4/3
f 192/6/3 184/6/3 191/6/3
f 193/2/3 186/2/3 185/2/3
f 193/4/3 185/4/3 192/4/3
f 194/9/3 187/9/3 186/9/3
f 194/2/3 186/2/3 193/2/3
f 195/2/3 188/2/3 187/2/3
f 195/9/3 187/9/3 194/9/3
f 196/2/3 188/2/3 195/2/3
f 197/9/3 189/9/3 188/9/3
f 197/2/3 188/2/3 196/2/3
f 198/9/3 171/9/3 181/9/3
f 198/9/3 189/9/3 197/9/3
f 198/9/3 181/9/3 189/9/3
f 198/9/3 159/9/3 171/9/3
f 199/9/3 159/9/3 198/9/3
f 200/9/3 173/9/3 172/9/3
f 201/8/3 174/8/3 173/8/3
f 201/9/3 173/9/3 200/9/3
f 202/7/3 175/7/3 174/7/3
f 202/8/3 174/8/3 201/8/3
f 203/9/3 190/9/3 175/9/3
f 203/7/3 175/7/3 202/7/3
f 204/6/3 192/6/3 191/6/3
f 204/9/3 190/9/3 203/9/3
f 204/6/3 191/6/3 190/6/3
f 205/9/3 194/9/3 193/9/3
f 205/6/3 192/6/3 204/6/3
f 205/9/3 193/9/3 192/9/3
f 206/9/3 194/9/3 205/9/3
f 207/2/3 195/2/3 194/2/3
f 207/9/3 194/9/3 206/9/3
f 207/2/3 196/2/3 195/2/3
f 208/9/3 197/9/3 196/9/3
f 208/2/3 196/2/3 207/2/3
f 208/9/3 198/9/3 197/9/3
f 209/9/3 198/9/3 208/9/3
f 210/9/3 198/9/3 209/9/3
f 211/9/3 198/9/3 210/9/3
f 212/9/3 203/9/3 202/9/3
f 212/9/3 202/9/3 201/9/3
f 213/9/3 203/9/3 212/9/3
f 214/9/3 205/9/3 204/9/3
f 215/9/3 205/9/3 214/9/3
f 216/9/3 207/9/3 206/9/3
f 216/2/3 206/2/3 205/2/3
f 216/9/3 208/9/3 207/9/3
f 217/9/3 208/9/3 216/9/3
f 218/9/3 208/9/3 217/9/3
f 219/3/3 209/3/3 208/3/3
f 219/9/3 208/9/3 218/9/3
f 220/9/3 210/9/3 209/9/3
f 221/9/3 210/9/3 220/9/3
f 222/9/3 218/9/3 217/9/3
f 222/3/3 219/3/3 218/3/3
f 223/3/3 209/3/3 219/3/3
f 223/3/3 219/3/3 222/3/3
f 223/9/3 220/9/3 209/9/3
f 224/9/3 220/9/3 223/9/3
f 225/9/3 205/9/3 215/9/3
f 226/2/3 216/2/3 205/2/3
f 226/9/3 205/9/3 225/9/3
f 227/1/3 217/1/3 216/1/3
f 227/2/3 216/2/3 226/2/3
f 228/9/3 222/9/3 217/9/3
f 228/1/3 217/1/3 227/1/3
f 228/9/3 223/9/3 222/9/3
f 229/9/3 223/9/3 228/9/3
f 230/9/3 227/9/3 226/9/3
f 230/9/3 228/9/3 227/9/3
f 231/9/3 228/9/3 230/9/3
f 232/9/4 233/9/4 235/9/4
f 235/9/4 233/9/4 236/9/4
f 236/9/4 233/9/4 237/9/4
f 237/9/4 238/9/4 239/9/4
f 239/9/4 238/9/4 240/9/4
f 234/9/4 235/9/4 247/9/4
f 235/2/4 236/2/4 248/2/4
f 236/1/4 237/1/4 248/1/4
f 237/9/4 239/9/4 249/9/4
f 248/1/4 237/1/4 249/1/4
f 239/3/4 240/3/4 250/3/4
f 249/9/4 239/9/4 250/9/4
f 250/3/4 240/3/4 251/3/4
f 242/9/4 243/9/4 252/9/4
f 252/9/4 243/9/4 253/9/4
f 244/9/4 245/9/4 255/9/4
f 255/9/4 245/9/4 256/9/4
f 256/9/4 245/9/4 257/9/4
f 246/9/4 247/9/4 258/9/4
f 247/9/4 235/9/4 259/9/4
f 235/2/4 248/2/4 259/2/4
f 258/9/4 247/9/4 259/9/4
f 248/9/4 249/9/4 260/9/4
f 259/2/4 248/2/4 260/2/4
f 249/9/4 250/9/4 260/9/4
f 250/9/4 251/9/4 260/9/4
f 260/9/4 251/9/4 261/9/4
f 251/3/4 240/3/4 262/3/4
f 261/9/4 251/9/4 262/9/4
f 240/9/4 241/9/4 263/9/4
f 262/3/4 240/3/4 263/3/4
f 263/9/4 241/9/4 264/9/4
f 242/9/4 252/9/4 265/9/4
f 257/9/4 258/9/4 266/9/4
f 258/6/4 259/6/4 266/6/4
f 266/6/4 259/6/4 267/6/4
f 260/9/4 261/9/4 268/9/4
f 267/6/4 259/6/4 268/6/4
f 259/9/4 260/9/4 268/9/4
f 268/9/4 261/9/4 269/9/4
f 261/1/4 262/1/4 270/1/4
f 269/9/4 261/9/4 270/9/4
f 270/1/4 262/1/4 271/1/4
f 264/9/4 265/9/4 272/9/4
f 271/1/4 262/1/4 272/1/4
f 263/9/4 264/9/4 272/9/4
f 262/9/4 263/9/4 272/9/4
f 272/9/4 265/9/4 273/9/4
f 265/9/4 252/9/4 274/9/4
f 273/9/4 265/9/4 274/9/4
f 266/5/4 267/5/4 276/5/4
f 257/9/4 266/9/4 276/9/4
f 267/6/4 268/6/4 277/6/4
f 276/5/4 267/5/4 277/5/4
f 268/4/4 269/4/4 278/4/4
f 277/6/4 268/6/4 278/6/4
f 269/1/4 270/1/4 279/1/4
f 278/4/4 269/4/4 279/4/4
f 270/9/4 271/9/4 280/9/4
f 279/1/4 270/1/4 280/1/4
f 272/1/4 273/1/4 281/1/4
f 280/9/4 271/9/4 281/9/4
f 271/1/4 272/1/4 281/1/4
f 281/1/4 273/1/4 282/1/4
f 274/9/4 275/9/4 283/9/4
f 282/1/4 273/1/4 283/1/4
f 273/9/4 274/9/4 283/9/4
f 283/9/4 275/9/4 284/9/4
f 284/9/4 275/9/4 285/9/4
f 254/9/4 255/9/4 287/9/4
f 255/8/4 256/8/4 288/8/4
f 287/9/4 255/9/4 288/9/4
f 256/7/4 257/7/4 289/7/4
f 288/8/4 256/8/4 289/8/4
f 257/9/4 276/9/4 290/9/4
f 289/7/4 257/7/4 290/7/4
f 276/6/4 277/6/4 291/6/4
f 290/9/4 276/9/4 291/9/4
f 281/9/4 282/9/4 292/9/4
f 280/1/4 281/1/4 292/1/4
f 282/1/4 283/1/4 293/1/4
f 292/9/4 282/9/4 293/9/4
f 283/1/4 284/1/4 293/1/4
f 284/9/4 285/9/4 294/9/4
f 293/1/4 284/1/4 294/1/4
f 285/9/4 286/9/4 294/9/4
f 294/9/4 286/9/4 295/9/4
f 292/1/4 293/1/4 296/1/4
f 293/1/4 294/1/4 296/1/4
f 294/2/4 295/2/4 297/2/4
f 296/1/4 294/1/4 297/1/4
f 295/9/4 286/9/4 298/9/4
f 297/2/4 295/2/4 298/2/4
f 288/9/4 289/9/4 300/9/4
f 289/8/4 290/8/4 301/8/4
f 300/9/4 289/9/4 301/9/4
f 290/5/4 291/5/4 302/5/4
f 301/8/4 290/8/4 302/8/4
f 291/6/4 277/6/4 303/6/4
f 302/5/4 291/5/4 303/5/4
f 292/1/4 296/1/4 304/1/4
f 279/9/4 280/9/4 304/9/4
f 280/1/4 292/1/4 304/1/4
f 304/1/4 296/1/4 305/1/4
f 305/1/4 296/1/4 306/1/4
f 296/2/4 297/2/4 307/2/4
f 306/1/4 296/1/4 307/1/4
f 297/9/4 298/9/4 308/9/4
f 307/2/4 297/2/4 308/2/4
f 303/6/4 277/6/4 309/6/4
f 302/9/4 303/9/4 309/9/4
f 277/4/4 278/4/4 310/4/4
f 309/6/4 277/6/4 310/6/4
f 278/2/4 279/2/4 311/2/4
f 310/4/4 278/4/4 311/4/4
f 279/9/4 304/9/4 312/9/4
f 311/2/4 279/2/4 312/2/4
f 304/2/4 305/2/4 313/2/4
f 312/9/4 304/9/4 313/9/4
f 305/9/4 306/9/4 314/9/4
f 313/2/4 305/2/4 314/2/4
f 306/2/4 307/2/4 315/2/4
f 314/9/4 306/9/4 315/9/4
f 307/9/4 308/9/4 316/9/4
f 315/2/4 307/2/4 316/2/4
f 309/5/4 310/5/4 317/5/4
f 302/9/4 309/9/4 317/9/4
f 310/6/4 311/6/4 318/6/4
f 317/5/4 310/5/4 318/5/4
f 311/4/4 312/4/4 319/4/4
f 318/6/4 311/6/4 319/6/4
f 312/2/4 313/2/4 320/2/4
f 319/4/4 312/4/4 320/4/4
f 313/9/4 314/9/4 321/9/4
f 320/2/4 313/2/4 321/2/4
f 314/2/4 315/2/4 322/2/4
f 321/9/4 314/9/4 322/9/4
f 322/2/4 315/2/4 323/2/4
f 315/9/4 316/9/4 324/9/4
f 323/2/4 315/2/4 324/2/4
f 308/9/4 298/9/4 325/9/4
f 324/9/4 316/9/4 325/9/4
f 316/9/4 308/9/4 325/9/4
f 298/9/4 286/9/4 325/9/4
f 325/9/4 286/9/4 326/9/4
f 299/9/4 300/9/4 327/9/4
f 300/8/4 301/8/4 328/8/4
f 327/9/4 300/9/4 328/9/4
f 301/7/4 302/7/4 329/7/4
f 328/8/4 301/8/4 329/8/4
f 302/9/4 317/9/4 330/9/4
f 329/7/4 302/7/4 330/7/4
f 318/6/4 319/6/4 331/6/4
f 330/9/4 317/9/4 331/9/4
f 317/6/4 318/6/4 331/6/4
f 320/9/4 321/9/4 332/9/4
f 331/6/4 319/6/4 332/6/4
f 319/9/4 320/9/4 332/9/4
f 332/9/4 321/9/4 333/9/4
f 321/2/4 322/2/4 334/2/4
f 333/9/4 321/9/4 334/9/4
f 322/2/4 323/2/4 334/2/4
f 323/9/4 324/9/4 335/9/4
f 334/2/4 323/2/4 335/2/4
f 324/9/4 325/9/4 335/9/4
f 335/9/4 325/9/4 336/9/4
f 336/9/4 325/9/4 337/9/4
f 337/9/4 325/9/4 338/9/4
f 329/9/4 330/9/4 339/9/4
f 328/9/4 329/9/4 339/9/4
f 339/9/4 330/9/4 340/9/4
f 331/9/4 332/9/4 341/9/4
f 341/9/4 332/9/4 342/9/4
f 333/9/4 334/9/4 343/9/4
f 332/2/4 333/2/4 343/2/4
f 334/9/4 335/9/4 343/9/4
f 343/9/4 335/9/4 344/9/4
f 344/9/4 335/9/4 345/9/4
f 335/3/4 336/3/4 346/3/4
f 345/9/4 335/9/4 346/9/4
f 336/9/4 337/9/4 347/9/4
f 347/9/4 337/9/4 348/9/4
f 344/9/4 345/9/4 349/9/4
f 345/3/4 346/3/4 349/3/4
f 346/3/4 336/3/4 350/3/4
f 349/3/4 346/3/4 350/3/4
f 336/9/4 347/9/4 350/9/4
f 350/9/4 347/9/4 351/9/4
f 342/9/4 332/9/4 352/9/4
f 332/2/4 343/2/4 353/2/4
f 352/9/4 332/9/4 353/9/4
f 343/1/4 344/1/4 354/1/4
f 353/2/4 343/2/4 354/2/4
f 344/9/4 349/9/4 355/9/4
f 354/1/4 344/1/4 355/1/4
f 349/9/4 350/9/4 355/9/4
f 355/9/4 350/9/4 356/9/4
f 353/9/4 354/9/4 357/9/4
f 354/9/4 355/9/4 357/9/4
f 357/9/4 355/9/4 358/9/4
f 363/9/5 360/9/5 359/9/5
f 364/9/5 360/9/5 363/9/5
f 365/9/5 362/9/5 361/9/5
f 366/9/5 362/9/5 365/9/5
f 373/9/5 368/9/5 367/9/5
f 374/9/5 368/9/5 373/9/5
f 375/9/5 370/9/5 369/9/5
f 376/9/5 370/9/5 375/9/5
f 377/9/5 372/9/5 371/9/5
f 378/9/5 372/9/5 377/9/5
f 383/9/5 380/9/5 379/9/5
f 384/9/5 380/9/5 383/9/5
f 385/9/5 382/9/5 381/9/5
f 386/9/5 382/9/5 385/9/5
f 391/9/5 388/9/5 387/9/5
f 392/9/5 388/9/5 391/9/5
f 393/9/5 390/9/5 389/9/5
f 394/9/5 390/9/5 393/9/5
f 399/9/5 396/9/5 395/9/5
f 400/9/5 396/9/5 399/9/5
f 401/9/5 398/9/5 397/9/5
f 402/9/5 398/9/5 401/9/5
f 405/9/5 404/9/5 403/9/5
f 406/9/5 404/9/5 405/9/5
f 407/9/6 408/9/6 411/9/6
f 411/9/6 408/9/6 412/9/6
f 409/9/6 410/9/6 413/9/6
f 413/9/6 410/9/6 414/9/6
f 415/9/6 416/9/6 419/9/6
f 419/9/6 416/9/6 420/9/6
f 417/9/6 418/9/6 421/9/6
f 421/9/6 418/9/6 422/9/6
f 423/9/6 424/9/6 427/9/6
f 427/9/6 424/9/6 428/9/6
f 425/9/6 426/9/6 429/9/6
f 429/9/6 426/9/6 430/9/6
f 431/9/6 432/9/6 435/9/6
f 435/9/6 432/9/6 436/9/6
f 433/9/6 434/9/6 437/9/6
f 437/9/6 434/9/6 438/9/6
f 439/9/6 440/9/6 443/9/6
f 443/9/6 440/9/6 444/9/6
f 441/9/6 442/9/6 445/9/6
f 445/9/6 442/9/6 446/9/6
f 447/9/6 448/9/6 453/9/6
f 453/9/6 448/9/6 454/9/6
f 449/9/6 450/9/6 455/9/6
f 455/9/6 450/9/6 456/9/6
f 451/9/6 452/9/6 457/9/6
f 457/9/6 452/9/6 458/9/6
f 459/9/6 460/9/6 461/9/6
f 461/9/6 460/9/6 462/9/6
