# MagicaVoxel @ Ephtracy

# group
o 

# material
mtllib elf death.mtl
usemtl palette

# normals
vn -1 0 0
vn 1 0 0
vn 0 0 1
vn 0 0 -1
vn 0 -1 0
vn 0 1 0

# texcoords
vt 0.0332031 0.5
vt 0.0410156 0.5
vt 0.0605469 0.5
vt 0.849609 0.5
vt 0.888672 0.5
vt 0.892578 0.5
vt 0.896484 0.5
vt 0.994141 0.5

# verts
v -0.8 0 1.3
v -0.8 0 1.2
v -0.8 0.2 1.3
v -0.8 0.2 1.2
v -0.8 0.3 1.3
v -0.8 0.3 1.2
v -0.8 0.5 1.3
v -0.8 0.5 1.2
v -0.7 0.2 1.3
v -0.7 0.2 1.2
v -0.7 0.3 1.3
v -0.7 0.3 1.2
v -0.7 0.5 1.3
v -0.7 0.5 1.2
v -0.7 0.6 1.3
v -0.7 0.6 1.2
v -0.4 0.5 1.3
v -0.4 0.5 1.2
v -0.4 0.6 1.3
v -0.4 0.6 1.2
v 0.3 0.5 1.3
v 0.3 0.5 1.2
v 0.3 0.6 1.3
v 0.3 0.6 1.2
v -0.5 0.5 1.3
v -0.5 0.5 1.2
v -0.5 0.6 1.3
v -0.5 0.6 1.2
v 0.2 0.5 1.3
v 0.2 0.5 1.2
v 0.2 0.6 1.3
v 0.2 0.6 1.2
v 0.5 0.2 1.3
v 0.5 0.2 1.2
v 0.5 0.3 1.3
v 0.5 0.3 1.2
v 0.5 0.5 1.3
v 0.5 0.5 1.2
v 0.5 0.6 1.3
v 0.5 0.6 1.2
v 0.6 0 1.3
v 0.6 0 1.2
v 0.6 0.2 1.3
v 0.6 0.2 1.2
v 0.6 0.3 1.3
v 0.6 0.3 1.2
v 0.6 0.5 1.3
v 0.6 0.5 1.2
v -0.8 0 1.3
v -0.8 0.2 1.3
v -0.8 0.3 1.3
v -0.8 0.5 1.3
v -0.7 0 1.3
v -0.7 0.2 1.3
v -0.7 0.3 1.3
v -0.7 0.4 1.3
v -0.7 0.5 1.3
v -0.7 0.6 1.3
v -0.6 0 1.3
v -0.6 0.2 1.3
v -0.6 0.3 1.3
v -0.6 0.4 1.3
v -0.5 0 1.3
v -0.5 0.2 1.3
v -0.5 0.3 1.3
v -0.5 0.4 1.3
v -0.5 0.5 1.3
v -0.5 0.6 1.3
v -0.4 0.3 1.3
v -0.4 0.4 1.3
v -0.4 0.5 1.3
v -0.4 0.6 1.3
v -0.2 0 1.3
v -0.2 0.2 1.3
v -0.2 0.3 1.3
v -0.2 0.4 1.3
v -0.2 0.5 1.3
v 5.96046e-008 0 1.3
v 5.96046e-008 0.2 1.3
v 5.96046e-008 0.3 1.3
v 5.96046e-008 0.4 1.3
v 5.96046e-008 0.5 1.3
v 0.2 0.3 1.3
v 0.2 0.4 1.3
v 0.2 0.5 1.3
v 0.2 0.6 1.3
v 0.3 0 1.3
v 0.3 0.2 1.3
v 0.3 0.3 1.3
v 0.3 0.4 1.3
v 0.3 0.5 1.3
v 0.3 0.6 1.3
v 0.4 0 1.3
v 0.4 0.2 1.3
v 0.4 0.3 1.3
v 0.4 0.4 1.3
v 0.5 0 1.3
v 0.5 0.2 1.3
v 0.5 0.3 1.3
v 0.5 0.4 1.3
v 0.5 0.5 1.3
v 0.5 0.6 1.3
v 0.6 0 1.3
v 0.6 0.2 1.3
v 0.6 0.3 1.3
v 0.6 0.5 1.3
v -0.8 0 1.2
v -0.8 0.2 1.2
v -0.8 0.3 1.2
v -0.8 0.5 1.2
v -0.7 0 1.2
v -0.7 0.2 1.2
v -0.7 0.3 1.2
v -0.7 0.4 1.2
v -0.7 0.5 1.2
v -0.7 0.6 1.2
v -0.6 0 1.2
v -0.6 0.2 1.2
v -0.6 0.3 1.2
v -0.6 0.4 1.2
v -0.5 0 1.2
v -0.5 0.2 1.2
v -0.5 0.3 1.2
v -0.5 0.4 1.2
v -0.5 0.5 1.2
v -0.5 0.6 1.2
v -0.4 0.3 1.2
v -0.4 0.4 1.2
v -0.4 0.5 1.2
v -0.4 0.6 1.2
v -0.2 0 1.2
v -0.2 0.2 1.2
v -0.2 0.3 1.2
v -0.2 0.4 1.2
v -0.2 0.5 1.2
v 5.96046e-008 0 1.2
v 5.96046e-008 0.2 1.2
v 5.96046e-008 0.3 1.2
v 5.96046e-008 0.4 1.2
v 5.96046e-008 0.5 1.2
v 0.2 0.3 1.2
v 0.2 0.4 1.2
v 0.2 0.5 1.2
v 0.2 0.6 1.2
v 0.3 0 1.2
v 0.3 0.2 1.2
v 0.3 0.3 1.2
v 0.3 0.4 1.2
v 0.3 0.5 1.2
v 0.3 0.6 1.2
v 0.4 0 1.2
v 0.4 0.2 1.2
v 0.4 0.3 1.2
v 0.4 0.4 1.2
v 0.5 0 1.2
v 0.5 0.2 1.2
v 0.5 0.3 1.2
v 0.5 0.4 1.2
v 0.5 0.5 1.2
v 0.5 0.6 1.2
v 0.6 0 1.2
v 0.6 0.2 1.2
v 0.6 0.3 1.2
v 0.6 0.5 1.2
v -0.8 0 1.3
v -0.7 0 1.3
v -0.6 0 1.3
v -0.5 0 1.3
v -0.2 0 1.3
v 5.96046e-008 0 1.3
v 0.3 0 1.3
v 0.4 0 1.3
v 0.5 0 1.3
v 0.6 0 1.3
v -0.8 0 1.2
v -0.7 0 1.2
v -0.6 0 1.2
v -0.5 0 1.2
v -0.2 0 1.2
v 5.96046e-008 0 1.2
v 0.3 0 1.2
v 0.4 0 1.2
v 0.5 0 1.2
v 0.6 0 1.2
v -0.8 0.3 1.3
v -0.7 0.3 1.3
v 0.5 0.3 1.3
v 0.6 0.3 1.3
v -0.8 0.3 1.2
v -0.7 0.3 1.2
v 0.5 0.3 1.2
v 0.6 0.3 1.2
v -0.8 0.2 1.3
v -0.7 0.2 1.3
v 0.5 0.2 1.3
v 0.6 0.2 1.3
v -0.8 0.2 1.2
v -0.7 0.2 1.2
v 0.5 0.2 1.2
v 0.6 0.2 1.2
v -0.8 0.5 1.3
v -0.7 0.5 1.3
v -0.5 0.5 1.3
v -0.4 0.5 1.3
v 0.2 0.5 1.3
v 0.3 0.5 1.3
v 0.5 0.5 1.3
v 0.6 0.5 1.3
v -0.8 0.5 1.2
v -0.7 0.5 1.2
v -0.5 0.5 1.2
v -0.4 0.5 1.2
v 0.2 0.5 1.2
v 0.3 0.5 1.2
v 0.5 0.5 1.2
v 0.6 0.5 1.2
v -0.7 0.6 1.3
v -0.5 0.6 1.3
v -0.4 0.6 1.3
v 0.2 0.6 1.3
v 0.3 0.6 1.3
v 0.5 0.6 1.3
v -0.7 0.6 1.2
v -0.5 0.6 1.2
v -0.4 0.6 1.2
v 0.2 0.6 1.2
v 0.3 0.6 1.2
v 0.5 0.6 1.2

# faces
f 3/8/1 2/8/1 1/8/1
f 4/8/1 2/8/1 3/8/1
f 7/8/1 6/8/1 5/8/1
f 8/8/1 6/8/1 7/8/1
f 11/8/1 10/8/1 9/8/1
f 12/8/1 10/8/1 11/8/1
f 15/8/1 14/8/1 13/8/1
f 16/8/1 14/8/1 15/8/1
f 19/8/1 18/8/1 17/8/1
f 20/8/1 18/8/1 19/8/1
f 23/8/1 22/8/1 21/8/1
f 24/8/1 22/8/1 23/8/1
f 25/8/2 26/8/2 27/8/2
f 27/8/2 26/8/2 28/8/2
f 29/8/2 30/8/2 31/8/2
f 31/8/2 30/8/2 32/8/2
f 33/8/2 34/8/2 35/8/2
f 35/8/2 34/8/2 36/8/2
f 37/8/2 38/8/2 39/8/2
f 39/8/2 38/8/2 40/8/2
f 41/8/2 42/8/2 43/8/2
f 43/8/2 42/8/2 44/8/2
f 45/8/2 46/8/2 47/8/2
f 47/8/2 46/8/2 48/8/2
f 53/8/3 50/8/3 49/8/3
f 54/8/3 50/8/3 53/8/3
f 55/8/3 52/8/3 51/8/3
f 56/8/3 52/8/3 55/8/3
f 57/8/3 52/8/3 56/8/3
f 59/6/3 54/6/3 53/6/3
f 60/8/3 55/8/3 54/8/3
f 60/6/3 54/6/3 59/6/3
f 61/3/3 56/3/3 55/3/3
f 61/8/3 55/8/3 60/8/3
f 62/1/3 57/1/3 56/1/3
f 62/3/3 56/3/3 61/3/3
f 63/7/3 60/7/3 59/7/3
f 64/6/3 61/6/3 60/6/3
f 64/7/3 60/7/3 63/7/3
f 65/8/3 62/8/3 61/8/3
f 65/6/3 61/6/3 64/6/3
f 66/1/3 57/1/3 62/1/3
f 66/8/3 62/8/3 65/8/3
f 67/8/3 58/8/3 57/8/3
f 67/1/3 57/1/3 66/1/3
f 68/8/3 58/8/3 67/8/3
f 69/6/3 66/6/3 65/6/3
f 69/7/3 65/7/3 64/7/3
f 70/8/3 67/8/3 66/8/3
f 70/6/3 66/6/3 69/6/3
f 71/8/3 67/8/3 70/8/3
f 73/8/3 64/8/3 63/8/3
f 74/7/3 69/7/3 64/7/3
f 74/8/3 64/8/3 73/8/3
f 75/5/3 70/5/3 69/5/3
f 75/7/3 69/7/3 74/7/3
f 76/4/3 71/4/3 70/4/3
f 76/5/3 70/5/3 75/5/3
f 77/8/3 72/8/3 71/8/3
f 77/4/3 71/4/3 76/4/3
f 78/7/3 74/7/3 73/7/3
f 79/6/3 75/6/3 74/6/3
f 79/7/3 74/7/3 78/7/3
f 80/5/3 76/5/3 75/5/3
f 80/6/3 75/6/3 79/6/3
f 81/2/3 77/2/3 76/2/3
f 81/5/3 76/5/3 80/5/3
f 82/8/3 72/8/3 77/8/3
f 82/2/3 77/2/3 81/2/3
f 83/5/3 81/5/3 80/5/3
f 83/7/3 80/7/3 79/7/3
f 84/4/3 82/4/3 81/4/3
f 84/5/3 81/5/3 83/5/3
f 85/8/3 72/8/3 82/8/3
f 85/4/3 82/4/3 84/4/3
f 86/8/3 72/8/3 85/8/3
f 87/8/3 79/8/3 78/8/3
f 88/7/3 83/7/3 79/7/3
f 88/8/3 79/8/3 87/8/3
f 89/6/3 84/6/3 83/6/3
f 89/7/3 83/7/3 88/7/3
f 90/8/3 85/8/3 84/8/3
f 90/6/3 84/6/3 89/6/3
f 91/8/3 85/8/3 90/8/3
f 93/7/3 88/7/3 87/7/3
f 94/6/3 89/6/3 88/6/3
f 94/7/3 88/7/3 93/7/3
f 95/8/3 90/8/3 89/8/3
f 95/6/3 89/6/3 94/6/3
f 96/1/3 91/1/3 90/1/3
f 96/8/3 90/8/3 95/8/3
f 97/6/3 94/6/3 93/6/3
f 98/8/3 95/8/3 94/8/3
f 98/6/3 94/6/3 97/6/3
f 99/3/3 96/3/3 95/3/3
f 99/8/3 95/8/3 98/8/3
f 100/1/3 91/1/3 96/1/3
f 100/3/3 96/3/3 99/3/3
f 101/8/3 92/8/3 91/8/3
f 101/1/3 91/1/3 100/1/3
f 102/8/3 92/8/3 101/8/3
f 103/8/3 98/8/3 97/8/3
f 104/8/3 98/8/3 103/8/3
f 105/8/3 100/8/3 99/8/3
f 105/8/3 101/8/3 100/8/3
f 106/8/3 101/8/3 105/8/3
f 107/8/4 108/8/4 111/8/4
f 111/8/4 108/8/4 112/8/4
f 109/8/4 110/8/4 113/8/4
f 113/8/4 110/8/4 114/8/4
f 114/8/4 110/8/4 115/8/4
f 111/6/4 112/6/4 117/6/4
f 112/8/4 113/8/4 118/8/4
f 117/6/4 112/6/4 118/6/4
f 113/3/4 114/3/4 119/3/4
f 118/8/4 113/8/4 119/8/4
f 114/1/4 115/1/4 120/1/4
f 119/3/4 114/3/4 120/3/4
f 117/7/4 118/7/4 121/7/4
f 118/6/4 119/6/4 122/6/4
f 121/7/4 118/7/4 122/7/4
f 119/8/4 120/8/4 123/8/4
f 122/6/4 119/6/4 123/6/4
f 120/1/4 115/1/4 124/1/4
f 123/8/4 120/8/4 124/8/4
f 115/8/4 116/8/4 125/8/4
f 124/1/4 115/1/4 125/1/4
f 125/8/4 116/8/4 126/8/4
f 123/6/4 124/6/4 127/6/4
f 122/7/4 123/7/4 127/7/4
f 124/8/4 125/8/4 128/8/4
f 127/6/4 124/6/4 128/6/4
f 128/8/4 125/8/4 129/8/4
f 121/8/4 122/8/4 131/8/4
f 122/7/4 127/7/4 132/7/4
f 131/8/4 122/8/4 132/8/4
f 127/5/4 128/5/4 133/5/4
f 132/7/4 127/7/4 133/7/4
f 128/4/4 129/4/4 134/4/4
f 133/5/4 128/5/4 134/5/4
f 129/8/4 130/8/4 135/8/4
f 134/4/4 129/4/4 135/4/4
f 131/7/4 132/7/4 136/7/4
f 132/6/4 133/6/4 137/6/4
f 136/7/4 132/7/4 137/7/4
f 133/5/4 134/5/4 138/5/4
f 137/6/4 133/6/4 138/6/4
f 134/2/4 135/2/4 139/2/4
f 138/5/4 134/5/4 139/5/4
f 135/8/4 130/8/4 140/8/4
f 139/2/4 135/2/4 140/2/4
f 138/5/4 139/5/4 141/5/4
f 137/7/4 138/7/4 141/7/4
f 139/4/4 140/4/4 142/4/4
f 141/5/4 139/5/4 142/5/4
f 140/8/4 130/8/4 143/8/4
f 142/4/4 140/4/4 143/4/4
f 143/8/4 130/8/4 144/8/4
f 136/8/4 137/8/4 145/8/4
f 137/7/4 141/7/4 146/7/4
f 145/8/4 137/8/4 146/8/4
f 141/6/4 142/6/4 147/6/4
f 146/7/4 141/7/4 147/7/4
f 142/8/4 143/8/4 148/8/4
f 147/6/4 142/6/4 148/6/4
f 148/8/4 143/8/4 149/8/4
f 145/7/4 146/7/4 151/7/4
f 146/6/4 147/6/4 152/6/4
f 151/7/4 146/7/4 152/7/4
f 147/8/4 148/8/4 153/8/4
f 152/6/4 147/6/4 153/6/4
f 148/1/4 149/1/4 154/1/4
f 153/8/4 148/8/4 154/8/4
f 151/6/4 152/6/4 155/6/4
f 152/8/4 153/8/4 156/8/4
f 155/6/4 152/6/4 156/6/4
f 153/3/4 154/3/4 157/3/4
f 156/8/4 153/8/4 157/8/4
f 154/1/4 149/1/4 158/1/4
f 157/3/4 154/3/4 158/3/4
f 149/8/4 150/8/4 159/8/4
f 158/1/4 149/1/4 159/1/4
f 159/8/4 150/8/4 160/8/4
f 155/8/4 156/8/4 161/8/4
f 161/8/4 156/8/4 162/8/4
f 157/8/4 158/8/4 163/8/4
f 158/8/4 159/8/4 163/8/4
f 163/8/4 159/8/4 164/8/4
f 175/8/5 166/8/5 165/8/5
f 176/6/5 167/6/5 166/6/5
f 176/8/5 166/8/5 175/8/5
f 177/7/5 168/7/5 167/7/5
f 177/6/5 167/6/5 176/6/5
f 178/8/5 169/8/5 168/8/5
f 178/7/5 168/7/5 177/7/5
f 179/7/5 170/7/5 169/7/5
f 179/8/5 169/8/5 178/8/5
f 180/8/5 171/8/5 170/8/5
f 180/7/5 170/7/5 179/7/5
f 181/7/5 172/7/5 171/7/5
f 181/8/5 171/8/5 180/8/5
f 182/6/5 173/6/5 172/6/5
f 182/7/5 172/7/5 181/7/5
f 183/8/5 174/8/5 173/8/5
f 183/6/5 173/6/5 182/6/5
f 184/8/5 174/8/5 183/8/5
f 189/8/5 186/8/5 185/8/5
f 190/8/5 186/8/5 189/8/5
f 191/8/5 188/8/5 187/8/5
f 192/8/5 188/8/5 191/8/5
f 193/8/6 194/8/6 197/8/6
f 197/8/6 194/8/6 198/8/6
f 195/8/6 196/8/6 199/8/6
f 199/8/6 196/8/6 200/8/6
f 201/8/6 202/8/6 209/8/6
f 209/8/6 202/8/6 210/8/6
f 203/8/6 204/8/6 211/8/6
f 211/8/6 204/8/6 212/8/6
f 205/8/6 206/8/6 213/8/6
f 213/8/6 206/8/6 214/8/6
f 207/8/6 208/8/6 215/8/6
f 215/8/6 208/8/6 216/8/6
f 217/8/6 218/8/6 223/8/6
f 223/8/6 218/8/6 224/8/6
f 219/8/6 220/8/6 225/8/6
f 225/8/6 220/8/6 226/8/6
f 221/8/6 222/8/6 227/8/6
f 227/8/6 222/8/6 228/8/6
