# MagicaVoxel @ Ephtracy

# group
o 

# material
mtllib raccoon death.mtl
usemtl palette

# normals
vn -1 0 0
vn 1 0 0
vn 0 0 1
vn 0 0 -1
vn 0 -1 0
vn 0 1 0

# texcoords
vt 0.958984 0.5
vt 0.962891 0.5
vt 0.970703 0.5
vt 0.974609 0.5
vt 0.982422 0.5
vt 0.986328 0.5
vt 0.994141 0.5

# verts
v -1.1 0.2 0.7
v -1.1 0.2 0.6
v -1.1 0.4 0.7
v -1.1 0.4 0.6
v -1 0.1 0.7
v -1 0.1 0.6
v -1 0.2 0.7
v -1 0.2 0.6
v -1 0.4 0.7
v -1 0.4 0.6
v -1 0.5 0.7
v -1 0.5 0.6
v -0.9 0 0.7
v -0.9 0 0.6
v -0.9 0.1 0.7
v -0.9 0.1 0.6
v -0.9 0.5 0.7
v -0.9 0.5 0.6
v -0.9 0.6 0.7
v -0.9 0.6 0.6
v -0.3 0.3 0.7
v -0.3 0.3 0.6
v -0.3 0.4 0.7
v -0.3 0.4 0.6
v -0.2 0.4 0.7
v -0.2 0.4 0.6
v -0.2 0.6 0.7
v -0.2 0.6 0.6
v -0.1 0.6 0.7
v -0.1 0.6 0.6
v -0.1 0.7 0.7
v -0.1 0.7 0.6
v 0.1 0.7 0.7
v 0.1 0.7 0.6
v 0.1 0.8 0.7
v 0.1 0.8 0.6
v 0.5 0.1 0.7
v 0.5 0.1 0.6
v 0.5 0.2 0.7
v 0.5 0.2 0.6
v 0.6 0 0.7
v 0.6 0 0.6
v 0.6 0.1 0.7
v 0.6 0.1 0.6
v -0.7 0.5 0.7
v -0.7 0.5 0.6
v -0.7 0.6 0.7
v -0.7 0.6 0.6
v -0.5 0.4 0.7
v -0.5 0.4 0.6
v -0.5 0.5 0.7
v -0.5 0.5 0.6
v -0.4 0.3 0.7
v -0.4 0.3 0.6
v -0.4 0.4 0.7
v -0.4 0.4 0.6
v 0.3 0 0.7
v 0.3 0 0.6
v 0.3 0.1 0.7
v 0.3 0.1 0.6
v 0.4 0.1 0.7
v 0.4 0.1 0.6
v 0.4 0.2 0.7
v 0.4 0.2 0.6
v 0.8 0.7 0.7
v 0.8 0.7 0.6
v 0.8 0.8 0.7
v 0.8 0.8 0.6
v 1 0.6 0.7
v 1 0.6 0.6
v 1 0.7 0.7
v 1 0.7 0.6
v 1.1 0.4 0.7
v 1.1 0.4 0.6
v 1.1 0.6 0.7
v 1.1 0.6 0.6
v 1.2 0 0.7
v 1.2 0 0.6
v 1.2 0.1 0.7
v 1.2 0.1 0.6
v 1.2 0.3 0.7
v 1.2 0.3 0.6
v 1.2 0.4 0.7
v 1.2 0.4 0.6
v 1.3 0.1 0.7
v 1.3 0.1 0.6
v 1.3 0.3 0.7
v 1.3 0.3 0.6
v -1.1 0.2 0.7
v -1.1 0.4 0.7
v -1 0.1 0.7
v -1 0.2 0.7
v -1 0.4 0.7
v -1 0.5 0.7
v -0.9 0 0.7
v -0.9 0.1 0.7
v -0.9 0.2 0.7
v -0.9 0.4 0.7
v -0.9 0.5 0.7
v -0.9 0.6 0.7
v -0.8 0.1 0.7
v -0.8 0.3 0.7
v -0.8 0.4 0.7
v -0.8 0.5 0.7
v -0.7 0.1 0.7
v -0.7 0.2 0.7
v -0.7 0.3 0.7
v -0.7 0.4 0.7
v -0.7 0.5 0.7
v -0.7 0.6 0.7
v -0.6 0.2 0.7
v -0.6 0.4 0.7
v -0.5 0.1 0.7
v -0.5 0.3 0.7
v -0.5 0.4 0.7
v -0.5 0.5 0.7
v -0.4 0.1 0.7
v -0.4 0.3 0.7
v -0.4 0.4 0.7
v -0.3 0.1 0.7
v -0.3 0.3 0.7
v -0.3 0.4 0.7
v -0.2 0.2 0.7
v -0.2 0.3 0.7
v -0.2 0.4 0.7
v -0.2 0.6 0.7
v -0.1 0.4 0.7
v -0.1 0.5 0.7
v -0.1 0.6 0.7
v -0.1 0.7 0.7
v 0 0.5 0.7
v 0 0.6 0.7
v 0.1 0.4 0.7
v 0.1 0.5 0.7
v 0.1 0.7 0.7
v 0.1 0.8 0.7
v 0.2 0.6 0.7
v 0.2 0.7 0.7
v 0.3 0 0.7
v 0.3 0.1 0.7
v 0.3 0.2 0.7
v 0.3 0.3 0.7
v 0.3 0.4 0.7
v 0.4 0.1 0.7
v 0.4 0.2 0.7
v 0.5 0.1 0.7
v 0.5 0.2 0.7
v 0.6 0 0.7
v 0.6 0.1 0.7
v 0.6 0.2 0.7
v 0.6 0.3 0.7
v 0.6 0.4 0.7
v 0.7 0.6 0.7
v 0.7 0.7 0.7
v 0.8 0.4 0.7
v 0.8 0.5 0.7
v 0.8 0.7 0.7
v 0.8 0.8 0.7
v 0.9 0.5 0.7
v 0.9 0.6 0.7
v 1 0.4 0.7
v 1 0.5 0.7
v 1 0.6 0.7
v 1 0.7 0.7
v 1.1 0.2 0.7
v 1.1 0.3 0.7
v 1.1 0.4 0.7
v 1.1 0.6 0.7
v 1.2 0 0.7
v 1.2 0.1 0.7
v 1.2 0.3 0.7
v 1.2 0.4 0.7
v 1.3 0.1 0.7
v 1.3 0.3 0.7
v -1.1 0.2 0.6
v -1.1 0.4 0.6
v -1 0.1 0.6
v -1 0.2 0.6
v -1 0.4 0.6
v -1 0.5 0.6
v -0.9 0 0.6
v -0.9 0.1 0.6
v -0.9 0.2 0.6
v -0.9 0.4 0.6
v -0.9 0.5 0.6
v -0.9 0.6 0.6
v -0.8 0.1 0.6
v -0.8 0.3 0.6
v -0.8 0.4 0.6
v -0.8 0.5 0.6
v -0.7 0.1 0.6
v -0.7 0.2 0.6
v -0.7 0.3 0.6
v -0.7 0.4 0.6
v -0.7 0.5 0.6
v -0.7 0.6 0.6
v -0.6 0.2 0.6
v -0.6 0.4 0.6
v -0.5 0.1 0.6
v -0.5 0.3 0.6
v -0.5 0.4 0.6
v -0.5 0.5 0.6
v -0.4 0.1 0.6
v -0.4 0.3 0.6
v -0.4 0.4 0.6
v -0.3 0.1 0.6
v -0.3 0.3 0.6
v -0.3 0.4 0.6
v -0.2 0.2 0.6
v -0.2 0.3 0.6
v -0.2 0.4 0.6
v -0.2 0.6 0.6
v -0.1 0.4 0.6
v -0.1 0.5 0.6
v -0.1 0.6 0.6
v -0.1 0.7 0.6
v 0 0.5 0.6
v 0 0.6 0.6
v 0.1 0.4 0.6
v 0.1 0.5 0.6
v 0.1 0.7 0.6
v 0.1 0.8 0.6
v 0.2 0.6 0.6
v 0.2 0.7 0.6
v 0.3 0 0.6
v 0.3 0.1 0.6
v 0.3 0.2 0.6
v 0.3 0.3 0.6
v 0.3 0.4 0.6
v 0.4 0.1 0.6
v 0.4 0.2 0.6
v 0.5 0.1 0.6
v 0.5 0.2 0.6
v 0.6 0 0.6
v 0.6 0.1 0.6
v 0.6 0.2 0.6
v 0.6 0.3 0.6
v 0.6 0.4 0.6
v 0.7 0.6 0.6
v 0.7 0.7 0.6
v 0.8 0.4 0.6
v 0.8 0.5 0.6
v 0.8 0.7 0.6
v 0.8 0.8 0.6
v 0.9 0.5 0.6
v 0.9 0.6 0.6
v 1 0.4 0.6
v 1 0.5 0.6
v 1 0.6 0.6
v 1 0.7 0.6
v 1.1 0.2 0.6
v 1.1 0.3 0.6
v 1.1 0.4 0.6
v 1.1 0.6 0.6
v 1.2 0 0.6
v 1.2 0.1 0.6
v 1.2 0.3 0.6
v 1.2 0.4 0.6
v 1.3 0.1 0.6
v 1.3 0.3 0.6
v -0.9 0 0.7
v 0.3 0 0.7
v 0.6 0 0.7
v 1.2 0 0.7
v -0.9 0 0.6
v 0.3 0 0.6
v 0.6 0 0.6
v 1.2 0 0.6
v -1 0.1 0.7
v -0.9 0.1 0.7
v 0.3 0.1 0.7
v 0.4 0.1 0.7
v 0.5 0.1 0.7
v 0.6 0.1 0.7
v 1.2 0.1 0.7
v 1.3 0.1 0.7
v -1 0.1 0.6
v -0.9 0.1 0.6
v 0.3 0.1 0.6
v 0.4 0.1 0.6
v 0.5 0.1 0.6
v 0.6 0.1 0.6
v 1.2 0.1 0.6
v 1.3 0.1 0.6
v -1.1 0.2 0.7
v -1 0.2 0.7
v 0.4 0.2 0.7
v 0.5 0.2 0.7
v -1.1 0.2 0.6
v -1 0.2 0.6
v 0.4 0.2 0.6
v 0.5 0.2 0.6
v -0.4 0.3 0.7
v -0.3 0.3 0.7
v 1.2 0.3 0.7
v 1.3 0.3 0.7
v -0.4 0.3 0.6
v -0.3 0.3 0.6
v 1.2 0.3 0.6
v 1.3 0.3 0.6
v -1.1 0.4 0.7
v -1 0.4 0.7
v -0.5 0.4 0.7
v -0.4 0.4 0.7
v -0.3 0.4 0.7
v -0.2 0.4 0.7
v 1.1 0.4 0.7
v 1.2 0.4 0.7
v -1.1 0.4 0.6
v -1 0.4 0.6
v -0.5 0.4 0.6
v -0.4 0.4 0.6
v -0.3 0.4 0.6
v -0.2 0.4 0.6
v 1.1 0.4 0.6
v 1.2 0.4 0.6
v -1 0.5 0.7
v -0.9 0.5 0.7
v -0.7 0.5 0.7
v -0.5 0.5 0.7
v -1 0.5 0.6
v -0.9 0.5 0.6
v -0.7 0.5 0.6
v -0.5 0.5 0.6
v -0.9 0.6 0.7
v -0.7 0.6 0.7
v -0.2 0.6 0.7
v -0.1 0.6 0.7
v 1 0.6 0.7
v 1.1 0.6 0.7
v -0.9 0.6 0.6
v -0.7 0.6 0.6
v -0.2 0.6 0.6
v -0.1 0.6 0.6
v 1 0.6 0.6
v 1.1 0.6 0.6
v -0.1 0.7 0.7
v 0.1 0.7 0.7
v 0.8 0.7 0.7
v 1 0.7 0.7
v -0.1 0.7 0.6
v 0.1 0.7 0.6
v 0.8 0.7 0.6
v 1 0.7 0.6
v 0.1 0.8 0.7
v 0.8 0.8 0.7
v 0.1 0.8 0.6
v 0.8 0.8 0.6

# faces
f 3/7/1 2/7/1 1/7/1
f 4/7/1 2/7/1 3/7/1
f 7/7/1 6/7/1 5/7/1
f 8/7/1 6/7/1 7/7/1
f 11/7/1 10/7/1 9/7/1
f 12/7/1 10/7/1 11/7/1
f 15/7/1 14/7/1 13/7/1
f 16/7/1 14/7/1 15/7/1
f 19/7/1 18/7/1 17/7/1
f 20/7/1 18/7/1 19/7/1
f 23/7/1 22/7/1 21/7/1
f 24/7/1 22/7/1 23/7/1
f 27/7/1 26/7/1 25/7/1
f 28/7/1 26/7/1 27/7/1
f 31/7/1 30/7/1 29/7/1
f 32/7/1 30/7/1 31/7/1
f 35/7/1 34/7/1 33/7/1
f 36/7/1 34/7/1 35/7/1
f 39/7/1 38/7/1 37/7/1
f 40/7/1 38/7/1 39/7/1
f 43/7/1 42/7/1 41/7/1
f 44/7/1 42/7/1 43/7/1
f 45/7/2 46/7/2 47/7/2
f 47/7/2 46/7/2 48/7/2
f 49/7/2 50/7/2 51/7/2
f 51/7/2 50/7/2 52/7/2
f 53/7/2 54/7/2 55/7/2
f 55/7/2 54/7/2 56/7/2
f 57/7/2 58/7/2 59/7/2
f 59/7/2 58/7/2 60/7/2
f 61/7/2 62/7/2 63/7/2
f 63/7/2 62/7/2 64/7/2
f 65/7/2 66/7/2 67/7/2
f 67/7/2 66/7/2 68/7/2
f 69/7/2 70/7/2 71/7/2
f 71/7/2 70/7/2 72/7/2
f 73/7/2 74/7/2 75/7/2
f 75/7/2 74/7/2 76/7/2
f 77/7/2 78/7/2 79/7/2
f 79/7/2 78/7/2 80/7/2
f 81/7/2 82/7/2 83/7/2
f 83/7/2 82/7/2 84/7/2
f 85/7/2 86/7/2 87/7/2
f 87/7/2 86/7/2 88/7/2
f 92/7/3 90/7/3 89/7/3
f 93/7/3 90/7/3 92/7/3
f 96/7/3 92/7/3 91/7/3
f 97/3/3 93/3/3 92/3/3
f 97/7/3 92/7/3 96/7/3
f 98/7/3 94/7/3 93/7/3
f 98/3/3 93/3/3 97/3/3
f 99/7/3 94/7/3 98/7/3
f 101/5/3 97/5/3 96/5/3
f 101/7/3 96/7/3 95/7/3
f 101/5/3 98/5/3 97/5/3
f 102/5/3 98/5/3 101/5/3
f 103/3/3 99/3/3 98/3/3
f 103/5/3 98/5/3 102/5/3
f 104/7/3 100/7/3 99/7/3
f 104/3/3 99/3/3 103/3/3
f 105/3/3 102/3/3 101/3/3
f 105/7/3 101/7/3 95/7/3
f 106/3/3 102/3/3 105/3/3
f 107/5/3 103/5/3 102/5/3
f 107/3/3 102/3/3 106/3/3
f 107/5/3 104/5/3 103/5/3
f 108/5/3 104/5/3 107/5/3
f 109/7/3 100/7/3 104/7/3
f 109/5/3 104/5/3 108/5/3
f 110/7/3 100/7/3 109/7/3
f 111/5/3 106/5/3 105/5/3
f 111/3/3 108/3/3 107/3/3
f 111/3/3 107/3/3 106/3/3
f 112/7/3 109/7/3 108/7/3
f 112/3/3 108/3/3 111/3/3
f 113/5/3 111/5/3 105/5/3
f 113/7/3 105/7/3 95/7/3
f 113/5/3 112/5/3 111/5/3
f 114/5/3 112/5/3 113/5/3
f 115/7/3 109/7/3 112/7/3
f 115/5/3 112/5/3 114/5/3
f 116/7/3 109/7/3 115/7/3
f 117/3/3 114/3/3 113/3/3
f 117/7/3 113/7/3 95/7/3
f 118/7/3 115/7/3 114/7/3
f 118/3/3 114/3/3 117/3/3
f 119/7/3 115/7/3 118/7/3
f 120/7/3 117/7/3 95/7/3
f 120/7/3 118/7/3 117/7/3
f 121/7/3 118/7/3 120/7/3
f 123/6/3 121/6/3 120/6/3
f 124/7/3 122/7/3 121/7/3
f 124/6/3 121/6/3 123/6/3
f 125/7/3 122/7/3 124/7/3
f 127/7/3 125/7/3 124/7/3
f 127/7/3 126/7/3 125/7/3
f 128/7/3 126/7/3 127/7/3
f 129/7/3 126/7/3 128/7/3
f 131/7/3 129/7/3 128/7/3
f 131/7/3 130/7/3 129/7/3
f 131/4/3 128/4/3 127/4/3
f 132/7/3 130/7/3 131/7/3
f 133/7/3 127/7/3 124/7/3
f 133/4/3 131/4/3 127/4/3
f 134/2/3 132/2/3 131/2/3
f 134/4/3 131/4/3 133/4/3
f 135/7/3 130/7/3 132/7/3
f 137/2/3 132/2/3 134/2/3
f 137/7/3 136/7/3 135/7/3
f 137/7/3 135/7/3 132/7/3
f 138/7/3 136/7/3 137/7/3
f 139/7/3 120/7/3 95/7/3
f 140/6/3 123/6/3 120/6/3
f 140/7/3 120/7/3 139/7/3
f 141/5/3 124/5/3 123/5/3
f 141/6/3 123/6/3 140/6/3
f 142/7/3 133/7/3 124/7/3
f 142/5/3 124/5/3 141/5/3
f 143/3/3 134/3/3 133/3/3
f 143/7/3 133/7/3 142/7/3
f 144/7/3 142/7/3 141/7/3
f 144/7/3 141/7/3 140/7/3
f 145/7/3 142/7/3 144/7/3
f 147/7/3 142/7/3 145/7/3
f 149/7/3 147/7/3 146/7/3
f 150/7/3 142/7/3 147/7/3
f 150/7/3 147/7/3 149/7/3
f 151/4/3 143/4/3 142/4/3
f 151/7/3 142/7/3 150/7/3
f 152/3/3 134/3/3 143/3/3
f 152/4/3 143/4/3 151/4/3
f 153/1/3 138/1/3 137/1/3
f 153/2/3 137/2/3 134/2/3
f 154/7/3 136/7/3 138/7/3
f 154/1/3 138/1/3 153/1/3
f 155/3/3 134/3/3 152/3/3
f 155/7/3 152/7/3 151/7/3
f 156/2/3 153/2/3 134/2/3
f 156/3/3 134/3/3 155/3/3
f 157/7/3 136/7/3 154/7/3
f 157/7/3 154/7/3 153/7/3
f 158/7/3 136/7/3 157/7/3
f 159/2/3 153/2/3 156/2/3
f 159/4/3 156/4/3 155/4/3
f 160/7/3 157/7/3 153/7/3
f 160/2/3 153/2/3 159/2/3
f 161/7/3 155/7/3 151/7/3
f 161/4/3 159/4/3 155/4/3
f 162/7/3 160/7/3 159/7/3
f 162/4/3 159/4/3 161/4/3
f 163/7/3 157/7/3 160/7/3
f 163/7/3 160/7/3 162/7/3
f 164/7/3 157/7/3 163/7/3
f 165/5/3 151/5/3 150/5/3
f 165/6/3 150/6/3 149/6/3
f 166/7/3 163/7/3 162/7/3
f 166/5/3 151/5/3 165/5/3
f 166/7/3 162/7/3 161/7/3
f 166/7/3 161/7/3 151/7/3
f 167/7/3 163/7/3 166/7/3
f 168/7/3 163/7/3 167/7/3
f 169/7/3 149/7/3 148/7/3
f 170/6/3 165/6/3 149/6/3
f 170/7/3 149/7/3 169/7/3
f 170/6/3 166/6/3 165/6/3
f 171/7/3 167/7/3 166/7/3
f 171/6/3 166/6/3 170/6/3
f 172/7/3 167/7/3 171/7/3
f 173/7/3 171/7/3 170/7/3
f 174/7/3 171/7/3 173/7/3
f 175/7/4 176/7/4 178/7/4
f 178/7/4 176/7/4 179/7/4
f 177/7/4 178/7/4 182/7/4
f 178/3/4 179/3/4 183/3/4
f 182/7/4 178/7/4 183/7/4
f 179/7/4 180/7/4 184/7/4
f 183/3/4 179/3/4 184/3/4
f 184/7/4 180/7/4 185/7/4
f 182/5/4 183/5/4 187/5/4
f 181/7/4 182/7/4 187/7/4
f 183/5/4 184/5/4 187/5/4
f 187/5/4 184/5/4 188/5/4
f 184/3/4 185/3/4 189/3/4
f 188/5/4 184/5/4 189/5/4
f 185/7/4 186/7/4 190/7/4
f 189/3/4 185/3/4 190/3/4
f 187/3/4 188/3/4 191/3/4
f 181/7/4 187/7/4 191/7/4
f 191/3/4 188/3/4 192/3/4
f 188/5/4 189/5/4 193/5/4
f 192/3/4 188/3/4 193/3/4
f 189/5/4 190/5/4 193/5/4
f 193/5/4 190/5/4 194/5/4
f 190/7/4 186/7/4 195/7/4
f 194/5/4 190/5/4 195/5/4
f 195/7/4 186/7/4 196/7/4
f 191/5/4 192/5/4 197/5/4
f 193/3/4 194/3/4 197/3/4
f 192/3/4 193/3/4 197/3/4
f 194/7/4 195/7/4 198/7/4
f 197/3/4 194/3/4 198/3/4
f 191/5/4 197/5/4 199/5/4
f 181/7/4 191/7/4 199/7/4
f 197/5/4 198/5/4 199/5/4
f 199/5/4 198/5/4 200/5/4
f 198/7/4 195/7/4 201/7/4
f 200/5/4 198/5/4 201/5/4
f 201/7/4 195/7/4 202/7/4
f 199/3/4 200/3/4 203/3/4
f 181/7/4 199/7/4 203/7/4
f 200/7/4 201/7/4 204/7/4
f 203/3/4 200/3/4 204/3/4
f 204/7/4 201/7/4 205/7/4
f 181/7/4 203/7/4 206/7/4
f 203/7/4 204/7/4 206/7/4
f 206/7/4 204/7/4 207/7/4
f 206/6/4 207/6/4 209/6/4
f 207/7/4 208/7/4 210/7/4
f 209/6/4 207/6/4 210/6/4
f 210/7/4 208/7/4 211/7/4
f 210/7/4 211/7/4 213/7/4
f 211/7/4 212/7/4 213/7/4
f 213/7/4 212/7/4 214/7/4
f 214/7/4 212/7/4 215/7/4
f 214/7/4 215/7/4 217/7/4
f 215/7/4 216/7/4 217/7/4
f 213/4/4 214/4/4 217/4/4
f 217/7/4 216/7/4 218/7/4
f 210/7/4 213/7/4 219/7/4
f 213/4/4 217/4/4 219/4/4
f 217/2/4 218/2/4 220/2/4
f 219/4/4 217/4/4 220/4/4
f 218/7/4 216/7/4 221/7/4
f 220/2/4 218/2/4 223/2/4
f 221/7/4 222/7/4 223/7/4
f 218/7/4 221/7/4 223/7/4
f 223/7/4 222/7/4 224/7/4
f 181/7/4 206/7/4 225/7/4
f 206/6/4 209/6/4 226/6/4
f 225/7/4 206/7/4 226/7/4
f 209/5/4 210/5/4 227/5/4
f 226/6/4 209/6/4 227/6/4
f 210/7/4 219/7/4 228/7/4
f 227/5/4 210/5/4 228/5/4
f 219/3/4 220/3/4 229/3/4
f 228/7/4 219/7/4 229/7/4
f 227/7/4 228/7/4 230/7/4
f 226/7/4 227/7/4 230/7/4
f 230/7/4 228/7/4 231/7/4
f 231/7/4 228/7/4 233/7/4
f 232/7/4 233/7/4 235/7/4
f 233/7/4 228/7/4 236/7/4
f 235/7/4 233/7/4 236/7/4
f 228/4/4 229/4/4 237/4/4
f 236/7/4 228/7/4 237/7/4
f 229/3/4 220/3/4 238/3/4
f 237/4/4 229/4/4 238/4/4
f 223/1/4 224/1/4 239/1/4
f 220/2/4 223/2/4 239/2/4
f 224/7/4 222/7/4 240/7/4
f 239/1/4 224/1/4 240/1/4
f 238/3/4 220/3/4 241/3/4
f 237/7/4 238/7/4 241/7/4
f 220/2/4 239/2/4 242/2/4
f 241/3/4 220/3/4 242/3/4
f 240/7/4 222/7/4 243/7/4
f 239/7/4 240/7/4 243/7/4
f 243/7/4 222/7/4 244/7/4
f 242/2/4 239/2/4 245/2/4
f 241/4/4 242/4/4 245/4/4
f 239/7/4 243/7/4 246/7/4
f 245/2/4 239/2/4 246/2/4
f 237/7/4 241/7/4 247/7/4
f 241/4/4 245/4/4 247/4/4
f 245/7/4 246/7/4 248/7/4
f 247/4/4 245/4/4 248/4/4
f 246/7/4 243/7/4 249/7/4
f 248/7/4 246/7/4 249/7/4
f 249/7/4 243/7/4 250/7/4
f 236/5/4 237/5/4 251/5/4
f 235/6/4 236/6/4 251/6/4
f 248/7/4 249/7/4 252/7/4
f 251/5/4 237/5/4 252/5/4
f 247/7/4 248/7/4 252/7/4
f 237/7/4 247/7/4 252/7/4
f 252/7/4 249/7/4 253/7/4
f 253/7/4 249/7/4 254/7/4
f 234/7/4 235/7/4 255/7/4
f 235/6/4 251/6/4 256/6/4
f 255/7/4 235/7/4 256/7/4
f 251/6/4 252/6/4 256/6/4
f 252/7/4 253/7/4 257/7/4
f 256/6/4 252/6/4 257/6/4
f 257/7/4 253/7/4 258/7/4
f 256/7/4 257/7/4 259/7/4
f 259/7/4 257/7/4 260/7/4
f 265/7/5 262/7/5 261/7/5
f 266/7/5 262/7/5 265/7/5
f 267/7/5 264/7/5 263/7/5
f 268/7/5 264/7/5 267/7/5
f 277/7/5 270/7/5 269/7/5
f 278/7/5 270/7/5 277/7/5
f 279/7/5 272/7/5 271/7/5
f 280/7/5 272/7/5 279/7/5
f 281/7/5 274/7/5 273/7/5
f 282/7/5 274/7/5 281/7/5
f 283/7/5 276/7/5 275/7/5
f 284/7/5 276/7/5 283/7/5
f 289/7/5 286/7/5 285/7/5
f 290/7/5 286/7/5 289/7/5
f 291/7/5 288/7/5 287/7/5
f 292/7/5 288/7/5 291/7/5
f 293/7/6 294/7/6 297/7/6
f 297/7/6 294/7/6 298/7/6
f 295/7/6 296/7/6 299/7/6
f 299/7/6 296/7/6 300/7/6
f 301/7/6 302/7/6 309/7/6
f 309/7/6 302/7/6 310/7/6
f 303/7/6 304/7/6 311/7/6
f 311/7/6 304/7/6 312/7/6
f 305/7/6 306/7/6 313/7/6
f 313/7/6 306/7/6 314/7/6
f 307/7/6 308/7/6 315/7/6
f 315/7/6 308/7/6 316/7/6
f 317/7/6 318/7/6 321/7/6
f 321/7/6 318/7/6 322/7/6
f 319/7/6 320/7/6 323/7/6
f 323/7/6 320/7/6 324/7/6
f 325/7/6 326/7/6 331/7/6
f 331/7/6 326/7/6 332/7/6
f 327/7/6 328/7/6 333/7/6
f 333/7/6 328/7/6 334/7/6
f 329/7/6 330/7/6 335/7/6
f 335/7/6 330/7/6 336/7/6
f 337/7/6 338/7/6 341/7/6
f 341/7/6 338/7/6 342/7/6
f 339/7/6 340/7/6 343/7/6
f 343/7/6 340/7/6 344/7/6
f 345/7/6 346/7/6 347/7/6
f 347/7/6 346/7/6 348/7/6
