# MagicaVoxel @ Ephtracy

# group
o 

# material
mtllib boy death.mtl
usemtl palette

# normals
vn -1 0 0
vn 1 0 0
vn 0 0 1
vn 0 0 -1
vn 0 -1 0
vn 0 1 0

# texcoords
vt 0.0292969 0.5
vt 0.0605469 0.5
vt 0.369141 0.5
vt 0.822266 0.5
vt 0.833984 0.5
vt 0.978516 0.5
vt 0.986328 0.5
vt 0.994141 0.5

# verts
v -0.8 0.4 -0.1
v -0.8 0.4 -0.2
v -0.8 0.6 -0.1
v -0.8 0.6 -0.2
v -0.7 0.3 -0.1
v -0.7 0.3 -0.2
v -0.7 0.4 -0.1
v -0.7 0.4 -0.2
v -0.7 0.6 -0.1
v -0.7 0.6 -0.2
v -0.7 0.7 -0.1
v -0.7 0.7 -0.2
v -0.6 0.1 -0.1
v -0.6 0.1 -0.2
v -0.6 0.3 -0.1
v -0.6 0.3 -0.2
v -0.5 0 -0.1
v -0.5 0 -0.2
v -0.5 0.1 -0.1
v -0.5 0.1 -0.2
v -0.4 0.7 -0.1
v -0.4 0.7 -0.2
v -0.4 0.8 -0.1
v -0.4 0.8 -0.2
v -0.3 0.8 -0.1
v -0.3 0.8 -0.2
v -0.3 0.9 -0.1
v -0.3 0.9 -0.2
v -0.2 0.9 -0.1
v -0.2 0.9 -0.2
v -0.2 1 -0.1
v -0.2 1 -0.2
v 0.1 0 -0.1
v 0.1 0 -0.2
v 0.1 0.1 -0.1
v 0.1 0.1 -0.2
v -0.1 0 -0.1
v -0.1 0 -0.2
v -0.1 0.1 -0.1
v -0.1 0.1 -0.2
v 0.1 0.9 -0.1
v 0.1 0.9 -0.2
v 0.1 1 -0.1
v 0.1 1 -0.2
v 0.3 0.8 -0.1
v 0.3 0.8 -0.2
v 0.3 0.9 -0.1
v 0.3 0.9 -0.2
v 0.4 0.7 -0.1
v 0.4 0.7 -0.2
v 0.4 0.8 -0.1
v 0.4 0.8 -0.2
v 0.5 0 -0.1
v 0.5 0 -0.2
v 0.5 0.1 -0.1
v 0.5 0.1 -0.2
v 0.6 0.1 -0.1
v 0.6 0.1 -0.2
v 0.6 0.3 -0.1
v 0.6 0.3 -0.2
v 0.7 0.3 -0.1
v 0.7 0.3 -0.2
v 0.7 0.4 -0.1
v 0.7 0.4 -0.2
v 0.7 0.6 -0.1
v 0.7 0.6 -0.2
v 0.7 0.7 -0.1
v 0.7 0.7 -0.2
v 0.8 0.4 -0.1
v 0.8 0.4 -0.2
v 0.8 0.6 -0.1
v 0.8 0.6 -0.2
v -0.8 0.4 -0.1
v -0.8 0.6 -0.1
v -0.7 0.3 -0.1
v -0.7 0.4 -0.1
v -0.7 0.5 -0.1
v -0.7 0.6 -0.1
v -0.7 0.7 -0.1
v -0.6 0.1 -0.1
v -0.6 0.3 -0.1
v -0.5 0 -0.1
v -0.5 0.1 -0.1
v -0.5 0.2 -0.1
v -0.5 0.3 -0.1
v -0.5 0.4 -0.1
v -0.5 0.5 -0.1
v -0.5 0.6 -0.1
v -0.5 0.7 -0.1
v -0.4 0.2 -0.1
v -0.4 0.3 -0.1
v -0.4 0.4 -0.1
v -0.4 0.5 -0.1
v -0.4 0.7 -0.1
v -0.4 0.8 -0.1
v -0.3 0.8 -0.1
v -0.3 0.9 -0.1
v -0.2 0.9 -0.1
v -0.2 1 -0.1
v -0.1 0 -0.1
v -0.1 0.1 -0.1
v -0.1 0.2 -0.1
v -0.1 0.3 -0.1
v -0.1 0.4 -0.1
v -0.1 0.9 -0.1
v 5.96046e-008 0.4 -0.1
v 5.96046e-008 0.5 -0.1
v 5.96046e-008 0.6 -0.1
v 5.96046e-008 0.9 -0.1
v 0.1 0 -0.1
v 0.1 0.1 -0.1
v 0.1 0.2 -0.1
v 0.1 0.3 -0.1
v 0.1 0.4 -0.1
v 0.1 0.5 -0.1
v 0.1 0.6 -0.1
v 0.1 0.9 -0.1
v 0.1 1 -0.1
v 0.3 0.8 -0.1
v 0.3 0.9 -0.1
v 0.4 0.2 -0.1
v 0.4 0.3 -0.1
v 0.4 0.4 -0.1
v 0.4 0.5 -0.1
v 0.4 0.7 -0.1
v 0.4 0.8 -0.1
v 0.5 0 -0.1
v 0.5 0.1 -0.1
v 0.5 0.2 -0.1
v 0.5 0.3 -0.1
v 0.5 0.4 -0.1
v 0.5 0.5 -0.1
v 0.5 0.6 -0.1
v 0.5 0.7 -0.1
v 0.6 0.1 -0.1
v 0.6 0.3 -0.1
v 0.7 0.3 -0.1
v 0.7 0.4 -0.1
v 0.7 0.5 -0.1
v 0.7 0.6 -0.1
v 0.7 0.7 -0.1
v 0.8 0.4 -0.1
v 0.8 0.6 -0.1
v -0.8 0.4 -0.2
v -0.8 0.6 -0.2
v -0.7 0.3 -0.2
v -0.7 0.4 -0.2
v -0.7 0.5 -0.2
v -0.7 0.6 -0.2
v -0.7 0.7 -0.2
v -0.6 0.1 -0.2
v -0.6 0.3 -0.2
v -0.5 0 -0.2
v -0.5 0.1 -0.2
v -0.5 0.2 -0.2
v -0.5 0.3 -0.2
v -0.5 0.4 -0.2
v -0.5 0.5 -0.2
v -0.5 0.6 -0.2
v -0.5 0.7 -0.2
v -0.4 0.2 -0.2
v -0.4 0.3 -0.2
v -0.4 0.4 -0.2
v -0.4 0.5 -0.2
v -0.4 0.7 -0.2
v -0.4 0.8 -0.2
v -0.3 0.8 -0.2
v -0.3 0.9 -0.2
v -0.2 0.9 -0.2
v -0.2 1 -0.2
v -0.1 0 -0.2
v -0.1 0.1 -0.2
v -0.1 0.2 -0.2
v -0.1 0.3 -0.2
v -0.1 0.4 -0.2
v -0.1 0.9 -0.2
v 5.96046e-008 0.4 -0.2
v 5.96046e-008 0.5 -0.2
v 5.96046e-008 0.6 -0.2
v 5.96046e-008 0.9 -0.2
v 0.1 0 -0.2
v 0.1 0.1 -0.2
v 0.1 0.2 -0.2
v 0.1 0.3 -0.2
v 0.1 0.4 -0.2
v 0.1 0.5 -0.2
v 0.1 0.6 -0.2
v 0.1 0.9 -0.2
v 0.1 1 -0.2
v 0.3 0.8 -0.2
v 0.3 0.9 -0.2
v 0.4 0.2 -0.2
v 0.4 0.3 -0.2
v 0.4 0.4 -0.2
v 0.4 0.5 -0.2
v 0.4 0.7 -0.2
v 0.4 0.8 -0.2
v 0.5 0 -0.2
v 0.5 0.1 -0.2
v 0.5 0.2 -0.2
v 0.5 0.3 -0.2
v 0.5 0.4 -0.2
v 0.5 0.5 -0.2
v 0.5 0.6 -0.2
v 0.5 0.7 -0.2
v 0.6 0.1 -0.2
v 0.6 0.3 -0.2
v 0.7 0.3 -0.2
v 0.7 0.4 -0.2
v 0.7 0.5 -0.2
v 0.7 0.6 -0.2
v 0.7 0.7 -0.2
v 0.8 0.4 -0.2
v 0.8 0.6 -0.2
v -0.5 0 -0.1
v -0.1 0 -0.1
v 0.1 0 -0.1
v 0.5 0 -0.1
v -0.5 0 -0.2
v -0.1 0 -0.2
v 0.1 0 -0.2
v 0.5 0 -0.2
v -0.6 0.1 -0.1
v -0.5 0.1 -0.1
v -0.1 0.1 -0.1
v 0.1 0.1 -0.1
v 0.5 0.1 -0.1
v 0.6 0.1 -0.1
v -0.6 0.1 -0.2
v -0.5 0.1 -0.2
v -0.1 0.1 -0.2
v 0.1 0.1 -0.2
v 0.5 0.1 -0.2
v 0.6 0.1 -0.2
v -0.7 0.3 -0.1
v -0.6 0.3 -0.1
v 0.6 0.3 -0.1
v 0.7 0.3 -0.1
v -0.7 0.3 -0.2
v -0.6 0.3 -0.2
v 0.6 0.3 -0.2
v 0.7 0.3 -0.2
v -0.8 0.4 -0.1
v -0.7 0.4 -0.1
v 0.7 0.4 -0.1
v 0.8 0.4 -0.1
v -0.8 0.4 -0.2
v -0.7 0.4 -0.2
v 0.7 0.4 -0.2
v 0.8 0.4 -0.2
v -0.8 0.6 -0.1
v -0.7 0.6 -0.1
v 0.7 0.6 -0.1
v 0.8 0.6 -0.1
v -0.8 0.6 -0.2
v -0.7 0.6 -0.2
v 0.7 0.6 -0.2
v 0.8 0.6 -0.2
v -0.7 0.7 -0.1
v -0.5 0.7 -0.1
v -0.4 0.7 -0.1
v 0.4 0.7 -0.1
v 0.5 0.7 -0.1
v 0.7 0.7 -0.1
v -0.7 0.7 -0.2
v -0.5 0.7 -0.2
v -0.4 0.7 -0.2
v 0.4 0.7 -0.2
v 0.5 0.7 -0.2
v 0.7 0.7 -0.2
v -0.4 0.8 -0.1
v -0.3 0.8 -0.1
v 0.3 0.8 -0.1
v 0.4 0.8 -0.1
v -0.4 0.8 -0.2
v -0.3 0.8 -0.2
v 0.3 0.8 -0.2
v 0.4 0.8 -0.2
v -0.3 0.9 -0.1
v -0.2 0.9 -0.1
v 0.1 0.9 -0.1
v 0.3 0.9 -0.1
v -0.3 0.9 -0.2
v -0.2 0.9 -0.2
v 0.1 0.9 -0.2
v 0.3 0.9 -0.2
v -0.2 1 -0.1
v 0.1 1 -0.1
v -0.2 1 -0.2
v 0.1 1 -0.2

# faces
f 3/3/1 2/3/1 1/3/1
f 4/3/1 2/3/1 3/3/1
f 7/3/1 6/3/1 5/3/1
f 8/3/1 6/3/1 7/3/1
f 11/3/1 10/3/1 9/3/1
f 12/3/1 10/3/1 11/3/1
f 15/8/1 14/8/1 13/8/1
f 16/8/1 14/8/1 15/8/1
f 19/8/1 18/8/1 17/8/1
f 20/8/1 18/8/1 19/8/1
f 23/4/1 22/4/1 21/4/1
f 24/4/1 22/4/1 23/4/1
f 27/4/1 26/4/1 25/4/1
f 28/4/1 26/4/1 27/4/1
f 31/4/1 30/4/1 29/4/1
f 32/4/1 30/4/1 31/4/1
f 35/8/1 34/8/1 33/8/1
f 36/8/1 34/8/1 35/8/1
f 37/8/2 38/8/2 39/8/2
f 39/8/2 38/8/2 40/8/2
f 41/4/2 42/4/2 43/4/2
f 43/4/2 42/4/2 44/4/2
f 45/4/2 46/4/2 47/4/2
f 47/4/2 46/4/2 48/4/2
f 49/4/2 50/4/2 51/4/2
f 51/4/2 50/4/2 52/4/2
f 53/8/2 54/8/2 55/8/2
f 55/8/2 54/8/2 56/8/2
f 57/8/2 58/8/2 59/8/2
f 59/8/2 58/8/2 60/8/2
f 61/3/2 62/3/2 63/3/2
f 63/3/2 62/3/2 64/3/2
f 65/3/2 66/3/2 67/3/2
f 67/3/2 66/3/2 68/3/2
f 69/3/2 70/3/2 71/3/2
f 71/3/2 70/3/2 72/3/2
f 76/3/3 74/3/3 73/3/3
f 77/3/3 74/3/3 76/3/3
f 78/3/3 74/3/3 77/3/3
f 81/3/3 76/3/3 75/3/3
f 83/8/3 81/8/3 80/8/3
f 84/8/3 81/8/3 83/8/3
f 85/3/3 76/3/3 81/3/3
f 85/8/3 81/8/3 84/8/3
f 86/1/3 77/1/3 76/1/3
f 86/3/3 76/3/3 85/3/3
f 87/2/3 78/2/3 77/2/3
f 87/1/3 77/1/3 86/1/3
f 88/3/3 79/3/3 78/3/3
f 88/2/3 78/2/3 87/2/3
f 89/3/3 79/3/3 88/3/3
f 90/5/3 85/5/3 84/5/3
f 90/5/3 86/5/3 85/5/3
f 90/7/3 84/7/3 83/7/3
f 91/5/3 86/5/3 90/5/3
f 92/1/3 87/1/3 86/1/3
f 92/5/3 86/5/3 91/5/3
f 93/8/3 89/8/3 88/8/3
f 93/1/3 87/1/3 92/1/3
f 93/8/3 88/8/3 87/8/3
f 94/8/3 89/8/3 93/8/3
f 96/4/3 94/4/3 93/4/3
f 96/4/3 95/4/3 94/4/3
f 96/4/3 93/4/3 92/4/3
f 98/4/3 97/4/3 96/4/3
f 100/8/3 83/8/3 82/8/3
f 101/7/3 90/7/3 83/7/3
f 101/8/3 83/8/3 100/8/3
f 102/6/3 91/6/3 90/6/3
f 102/7/3 90/7/3 101/7/3
f 103/8/3 92/8/3 91/8/3
f 103/6/3 91/6/3 102/6/3
f 104/4/3 99/4/3 98/4/3
f 104/8/3 92/8/3 103/8/3
f 104/4/3 96/4/3 92/4/3
f 104/4/3 98/4/3 96/4/3
f 105/4/3 99/4/3 104/4/3
f 106/5/3 104/5/3 103/5/3
f 106/5/3 105/5/3 104/5/3
f 107/5/3 105/5/3 106/5/3
f 108/5/3 105/5/3 107/5/3
f 109/4/3 99/4/3 105/4/3
f 109/5/3 105/5/3 108/5/3
f 111/8/3 102/8/3 101/8/3
f 112/7/3 103/7/3 102/7/3
f 112/8/3 102/8/3 111/8/3
f 113/5/3 106/5/3 103/5/3
f 113/7/3 103/7/3 112/7/3
f 114/4/3 107/4/3 106/4/3
f 114/5/3 106/5/3 113/5/3
f 115/5/3 108/5/3 107/5/3
f 115/4/3 107/4/3 114/4/3
f 116/4/3 109/4/3 108/4/3
f 116/5/3 108/5/3 115/5/3
f 117/4/3 99/4/3 109/4/3
f 117/4/3 109/4/3 116/4/3
f 118/4/3 99/4/3 117/4/3
f 119/4/3 116/4/3 115/4/3
f 119/4/3 115/4/3 114/4/3
f 119/4/3 117/4/3 116/4/3
f 120/4/3 117/4/3 119/4/3
f 121/7/3 112/7/3 111/7/3
f 121/6/3 113/6/3 112/6/3
f 122/8/3 114/8/3 113/8/3
f 122/6/3 113/6/3 121/6/3
f 123/4/3 119/4/3 114/4/3
f 123/8/3 114/8/3 122/8/3
f 124/4/3 119/4/3 123/4/3
f 125/4/3 119/4/3 124/4/3
f 126/4/3 119/4/3 125/4/3
f 127/8/3 111/8/3 110/8/3
f 128/7/3 121/7/3 111/7/3
f 128/8/3 111/8/3 127/8/3
f 129/5/3 122/5/3 121/5/3
f 129/7/3 121/7/3 128/7/3
f 129/5/3 123/5/3 122/5/3
f 130/5/3 123/5/3 129/5/3
f 131/1/3 124/1/3 123/1/3
f 131/5/3 123/5/3 130/5/3
f 132/8/3 125/8/3 124/8/3
f 132/1/3 124/1/3 131/1/3
f 133/8/3 125/8/3 132/8/3
f 134/8/3 125/8/3 133/8/3
f 135/8/3 130/8/3 129/8/3
f 135/8/3 129/8/3 128/8/3
f 136/3/3 131/3/3 130/3/3
f 136/8/3 130/8/3 135/8/3
f 137/3/3 131/3/3 136/3/3
f 138/1/3 132/1/3 131/1/3
f 138/3/3 131/3/3 137/3/3
f 139/2/3 133/2/3 132/2/3
f 139/1/3 132/1/3 138/1/3
f 140/3/3 134/3/3 133/3/3
f 140/2/3 133/2/3 139/2/3
f 141/3/3 134/3/3 140/3/3
f 142/3/3 139/3/3 138/3/3
f 142/3/3 140/3/3 139/3/3
f 143/3/3 140/3/3 142/3/3
f 144/3/4 145/3/4 147/3/4
f 147/3/4 145/3/4 148/3/4
f 148/3/4 145/3/4 149/3/4
f 146/3/4 147/3/4 152/3/4
f 151/8/4 152/8/4 154/8/4
f 154/8/4 152/8/4 155/8/4
f 152/3/4 147/3/4 156/3/4
f 155/8/4 152/8/4 156/8/4
f 147/1/4 148/1/4 157/1/4
f 156/3/4 147/3/4 157/3/4
f 148/2/4 149/2/4 158/2/4
f 157/1/4 148/1/4 158/1/4
f 149/3/4 150/3/4 159/3/4
f 158/2/4 149/2/4 159/2/4
f 159/3/4 150/3/4 160/3/4
f 155/5/4 156/5/4 161/5/4
f 156/5/4 157/5/4 161/5/4
f 154/7/4 155/7/4 161/7/4
f 161/5/4 157/5/4 162/5/4
f 157/1/4 158/1/4 163/1/4
f 162/5/4 157/5/4 163/5/4
f 159/8/4 160/8/4 164/8/4
f 163/1/4 158/1/4 164/1/4
f 158/8/4 159/8/4 164/8/4
f 164/8/4 160/8/4 165/8/4
f 164/4/4 165/4/4 167/4/4
f 165/4/4 166/4/4 167/4/4
f 163/4/4 164/4/4 167/4/4
f 167/4/4 168/4/4 169/4/4
f 153/8/4 154/8/4 171/8/4
f 154/7/4 161/7/4 172/7/4
f 171/8/4 154/8/4 172/8/4
f 161/6/4 162/6/4 173/6/4
f 172/7/4 161/7/4 173/7/4
f 162/8/4 163/8/4 174/8/4
f 173/6/4 162/6/4 174/6/4
f 169/4/4 170/4/4 175/4/4
f 174/8/4 163/8/4 175/8/4
f 163/4/4 167/4/4 175/4/4
f 167/4/4 169/4/4 175/4/4
f 175/4/4 170/4/4 176/4/4
f 174/5/4 175/5/4 177/5/4
f 175/5/4 176/5/4 177/5/4
f 177/5/4 176/5/4 178/5/4
f 178/5/4 176/5/4 179/5/4
f 176/4/4 170/4/4 180/4/4
f 179/5/4 176/5/4 180/5/4
f 172/8/4 173/8/4 182/8/4
f 173/7/4 174/7/4 183/7/4
f 182/8/4 173/8/4 183/8/4
f 174/5/4 177/5/4 184/5/4
f 183/7/4 174/7/4 184/7/4
f 177/4/4 178/4/4 185/4/4
f 184/5/4 177/5/4 185/5/4
f 178/5/4 179/5/4 186/5/4
f 185/4/4 178/4/4 186/4/4
f 179/4/4 180/4/4 187/4/4
f 186/5/4 179/5/4 187/5/4
f 180/4/4 170/4/4 188/4/4
f 187/4/4 180/4/4 188/4/4
f 188/4/4 170/4/4 189/4/4
f 186/4/4 187/4/4 190/4/4
f 185/4/4 186/4/4 190/4/4
f 187/4/4 188/4/4 190/4/4
f 190/4/4 188/4/4 191/4/4
f 182/7/4 183/7/4 192/7/4
f 183/6/4 184/6/4 192/6/4
f 184/8/4 185/8/4 193/8/4
f 192/6/4 184/6/4 193/6/4
f 185/4/4 190/4/4 194/4/4
f 193/8/4 185/8/4 194/8/4
f 194/4/4 190/4/4 195/4/4
f 195/4/4 190/4/4 196/4/4
f 196/4/4 190/4/4 197/4/4
f 181/8/4 182/8/4 198/8/4
f 182/7/4 192/7/4 199/7/4
f 198/8/4 182/8/4 199/8/4
f 192/5/4 193/5/4 200/5/4
f 199/7/4 192/7/4 200/7/4
f 193/5/4 194/5/4 200/5/4
f 200/5/4 194/5/4 201/5/4
f 194/1/4 195/1/4 202/1/4
f 201/5/4 194/5/4 202/5/4
f 195/8/4 196/8/4 203/8/4
f 202/1/4 195/1/4 203/1/4
f 203/8/4 196/8/4 204/8/4
f 204/8/4 196/8/4 205/8/4
f 200/8/4 201/8/4 206/8/4
f 199/8/4 200/8/4 206/8/4
f 201/3/4 202/3/4 207/3/4
f 206/8/4 201/8/4 207/8/4
f 207/3/4 202/3/4 208/3/4
f 202/1/4 203/1/4 209/1/4
f 208/3/4 202/3/4 209/3/4
f 203/2/4 204/2/4 210/2/4
f 209/1/4 203/1/4 210/1/4
f 204/3/4 205/3/4 211/3/4
f 210/2/4 204/2/4 211/2/4
f 211/3/4 205/3/4 212/3/4
f 209/3/4 210/3/4 213/3/4
f 210/3/4 211/3/4 213/3/4
f 213/3/4 211/3/4 214/3/4
f 219/8/5 216/8/5 215/8/5
f 220/8/5 216/8/5 219/8/5
f 221/8/5 218/8/5 217/8/5
f 222/8/5 218/8/5 221/8/5
f 229/8/5 224/8/5 223/8/5
f 230/8/5 224/8/5 229/8/5
f 231/8/5 226/8/5 225/8/5
f 232/8/5 226/8/5 231/8/5
f 233/8/5 228/8/5 227/8/5
f 234/8/5 228/8/5 233/8/5
f 239/3/5 236/3/5 235/3/5
f 240/3/5 236/3/5 239/3/5
f 241/3/5 238/3/5 237/3/5
f 242/3/5 238/3/5 241/3/5
f 247/3/5 244/3/5 243/3/5
f 248/3/5 244/3/5 247/3/5
f 249/3/5 246/3/5 245/3/5
f 250/3/5 246/3/5 249/3/5
f 251/3/6 252/3/6 255/3/6
f 255/3/6 252/3/6 256/3/6
f 253/3/6 254/3/6 257/3/6
f 257/3/6 254/3/6 258/3/6
f 259/3/6 260/3/6 265/3/6
f 260/8/6 261/8/6 266/8/6
f 265/3/6 260/3/6 266/3/6
f 266/8/6 261/8/6 267/8/6
f 262/8/6 263/8/6 268/8/6
f 263/3/6 264/3/6 269/3/6
f 268/8/6 263/8/6 269/8/6
f 269/3/6 264/3/6 270/3/6
f 271/4/6 272/4/6 275/4/6
f 275/4/6 272/4/6 276/4/6
f 273/4/6 274/4/6 277/4/6
f 277/4/6 274/4/6 278/4/6
f 279/4/6 280/4/6 283/4/6
f 283/4/6 280/4/6 284/4/6
f 281/4/6 282/4/6 285/4/6
f 285/4/6 282/4/6 286/4/6
f 287/4/6 288/4/6 289/4/6
f 289/4/6 288/4/6 290/4/6
