# MagicaVoxel @ Ephtracy

# group
o 

# material
mtllib boy death.mtl
usemtl palette

# normals
vn -1 0 0
vn 1 0 0
vn 0 0 1
vn 0 0 -1
vn 0 -1 0
vn 0 1 0

# texcoords
vt 0.822266 0.5
vt 0.833984 0.5
vt 0.986328 0.5
vt 0.994141 0.5

# verts
v -0.6 0.1 -0.1
v -0.6 0.1 -0.2
v -0.6 0.3 -0.1
v -0.6 0.3 -0.2
v -0.5 0 -0.1
v -0.5 0 -0.2
v -0.5 0.1 -0.1
v -0.5 0.1 -0.2
v -0.5 0.3 -0.1
v -0.5 0.3 -0.2
v -0.5 0.5 -0.1
v -0.5 0.5 -0.2
v 0.1 0 -0.1
v 0.1 0 -0.2
v 0.1 0.1 -0.1
v 0.1 0.1 -0.2
v -0.0999999 0 -0.1
v -0.0999999 0 -0.2
v -0.0999999 0.1 -0.1
v -0.0999999 0.1 -0.2
v 0.5 0 -0.1
v 0.5 0 -0.2
v 0.5 0.1 -0.1
v 0.5 0.1 -0.2
v 0.5 0.3 -0.1
v 0.5 0.3 -0.2
v 0.5 0.5 -0.1
v 0.5 0.5 -0.2
v 0.6 0.1 -0.1
v 0.6 0.1 -0.2
v 0.6 0.3 -0.1
v 0.6 0.3 -0.2
v -0.6 0.1 -0.1
v -0.6 0.3 -0.1
v -0.5 0 -0.1
v -0.5 0.1 -0.1
v -0.5 0.2 -0.1
v -0.5 0.3 -0.1
v -0.5 0.5 -0.1
v -0.4 0.3 -0.1
v -0.4 0.5 -0.1
v -0.0999999 0 -0.1
v -0.0999999 0.1 -0.1
v -0.0999999 0.2 -0.1
v -0.0999999 0.3 -0.1
v -0.0999999 0.5 -0.1
v 5.96046e-008 0.3 -0.1
v 5.96046e-008 0.4 -0.1
v 0.1 0 -0.1
v 0.1 0.1 -0.1
v 0.1 0.2 -0.1
v 0.1 0.3 -0.1
v 0.1 0.4 -0.1
v 0.1 0.5 -0.1
v 0.4 0.3 -0.1
v 0.4 0.5 -0.1
v 0.5 0 -0.1
v 0.5 0.1 -0.1
v 0.5 0.2 -0.1
v 0.5 0.3 -0.1
v 0.5 0.5 -0.1
v 0.6 0.1 -0.1
v 0.6 0.3 -0.1
v -0.6 0.1 -0.2
v -0.6 0.3 -0.2
v -0.5 0 -0.2
v -0.5 0.1 -0.2
v -0.5 0.2 -0.2
v -0.5 0.3 -0.2
v -0.5 0.5 -0.2
v -0.4 0.3 -0.2
v -0.4 0.5 -0.2
v -0.0999999 0 -0.2
v -0.0999999 0.1 -0.2
v -0.0999999 0.2 -0.2
v -0.0999999 0.3 -0.2
v -0.0999999 0.5 -0.2
v 5.96046e-008 0.3 -0.2
v 5.96046e-008 0.4 -0.2
v 0.1 0 -0.2
v 0.1 0.1 -0.2
v 0.1 0.2 -0.2
v 0.1 0.3 -0.2
v 0.1 0.4 -0.2
v 0.1 0.5 -0.2
v 0.4 0.3 -0.2
v 0.4 0.5 -0.2
v 0.5 0 -0.2
v 0.5 0.1 -0.2
v 0.5 0.2 -0.2
v 0.5 0.3 -0.2
v 0.5 0.5 -0.2
v 0.6 0.1 -0.2
v 0.6 0.3 -0.2
v -0.5 0 -0.1
v -0.0999999 0 -0.1
v 0.1 0 -0.1
v 0.5 0 -0.1
v -0.5 0 -0.2
v -0.0999999 0 -0.2
v 0.1 0 -0.2
v 0.5 0 -0.2
v -0.6 0.1 -0.1
v -0.5 0.1 -0.1
v -0.0999999 0.1 -0.1
v 0.1 0.1 -0.1
v 0.5 0.1 -0.1
v 0.6 0.1 -0.1
v -0.6 0.1 -0.2
v -0.5 0.1 -0.2
v -0.0999999 0.1 -0.2
v 0.1 0.1 -0.2
v 0.5 0.1 -0.2
v 0.6 0.1 -0.2
v -0.6 0.3 -0.1
v -0.5 0.3 -0.1
v 0.5 0.3 -0.1
v 0.6 0.3 -0.1
v -0.6 0.3 -0.2
v -0.5 0.3 -0.2
v 0.5 0.3 -0.2
v 0.6 0.3 -0.2
v -0.5 0.5 -0.1
v -0.4 0.5 -0.1
v -0.0999999 0.5 -0.1
v 0.1 0.5 -0.1
v 0.4 0.5 -0.1
v 0.5 0.5 -0.1
v -0.5 0.5 -0.2
v -0.4 0.5 -0.2
v -0.0999999 0.5 -0.2
v 0.1 0.5 -0.2
v 0.4 0.5 -0.2
v 0.5 0.5 -0.2

# faces
f 3/4/1 2/4/1 1/4/1
f 4/4/1 2/4/1 3/4/1
f 7/4/1 6/4/1 5/4/1
f 8/4/1 6/4/1 7/4/1
f 11/2/1 10/2/1 9/2/1
f 12/2/1 10/2/1 11/2/1
f 15/4/1 14/4/1 13/4/1
f 16/4/1 14/4/1 15/4/1
f 17/4/2 18/4/2 19/4/2
f 19/4/2 18/4/2 20/4/2
f 21/4/2 22/4/2 23/4/2
f 23/4/2 22/4/2 24/4/2
f 25/2/2 26/2/2 27/2/2
f 27/2/2 26/2/2 28/2/2
f 29/4/2 30/4/2 31/4/2
f 31/4/2 30/4/2 32/4/2
f 36/4/3 34/4/3 33/4/3
f 37/4/3 34/4/3 36/4/3
f 38/4/3 34/4/3 37/4/3
f 40/4/3 38/4/3 37/4/3
f 40/2/3 39/2/3 38/2/3
f 41/2/3 39/2/3 40/2/3
f 42/4/3 36/4/3 35/4/3
f 43/3/3 37/3/3 36/3/3
f 43/4/3 36/4/3 42/4/3
f 44/4/3 40/4/3 37/4/3
f 44/3/3 37/3/3 43/3/3
f 45/1/3 41/1/3 40/1/3
f 45/4/3 40/4/3 44/4/3
f 46/1/3 41/1/3 45/1/3
f 47/2/3 45/2/3 44/2/3
f 47/2/3 46/2/3 45/2/3
f 48/2/3 46/2/3 47/2/3
f 50/4/3 44/4/3 43/4/3
f 51/2/3 47/2/3 44/2/3
f 51/4/3 44/4/3 50/4/3
f 52/1/3 48/1/3 47/1/3
f 52/2/3 47/2/3 51/2/3
f 53/2/3 46/2/3 48/2/3
f 53/1/3 48/1/3 52/1/3
f 54/2/3 46/2/3 53/2/3
f 55/4/3 52/4/3 51/4/3
f 55/1/3 53/1/3 52/1/3
f 55/1/3 54/1/3 53/1/3
f 56/1/3 54/1/3 55/1/3
f 57/4/3 50/4/3 49/4/3
f 58/3/3 51/3/3 50/3/3
f 58/4/3 50/4/3 57/4/3
f 59/4/3 55/4/3 51/4/3
f 59/3/3 51/3/3 58/3/3
f 60/2/3 56/2/3 55/2/3
f 60/4/3 55/4/3 59/4/3
f 61/2/3 56/2/3 60/2/3
f 62/4/3 59/4/3 58/4/3
f 62/4/3 60/4/3 59/4/3
f 63/4/3 60/4/3 62/4/3
f 64/4/4 65/4/4 67/4/4
f 67/4/4 65/4/4 68/4/4
f 68/4/4 65/4/4 69/4/4
f 68/4/4 69/4/4 71/4/4
f 69/2/4 70/2/4 71/2/4
f 71/2/4 70/2/4 72/2/4
f 66/4/4 67/4/4 73/4/4
f 67/3/4 68/3/4 74/3/4
f 73/4/4 67/4/4 74/4/4
f 68/4/4 71/4/4 75/4/4
f 74/3/4 68/3/4 75/3/4
f 71/1/4 72/1/4 76/1/4
f 75/4/4 71/4/4 76/4/4
f 76/1/4 72/1/4 77/1/4
f 75/2/4 76/2/4 78/2/4
f 76/2/4 77/2/4 78/2/4
f 78/2/4 77/2/4 79/2/4
f 74/4/4 75/4/4 81/4/4
f 75/2/4 78/2/4 82/2/4
f 81/4/4 75/4/4 82/4/4
f 78/1/4 79/1/4 83/1/4
f 82/2/4 78/2/4 83/2/4
f 79/2/4 77/2/4 84/2/4
f 83/1/4 79/1/4 84/1/4
f 84/2/4 77/2/4 85/2/4
f 82/4/4 83/4/4 86/4/4
f 83/1/4 84/1/4 86/1/4
f 84/1/4 85/1/4 86/1/4
f 86/1/4 85/1/4 87/1/4
f 80/4/4 81/4/4 88/4/4
f 81/3/4 82/3/4 89/3/4
f 88/4/4 81/4/4 89/4/4
f 82/4/4 86/4/4 90/4/4
f 89/3/4 82/3/4 90/3/4
f 86/2/4 87/2/4 91/2/4
f 90/4/4 86/4/4 91/4/4
f 91/2/4 87/2/4 92/2/4
f 89/4/4 90/4/4 93/4/4
f 90/4/4 91/4/4 93/4/4
f 93/4/4 91/4/4 94/4/4
f 99/4/5 96/4/5 95/4/5
f 100/4/5 96/4/5 99/4/5
f 101/4/5 98/4/5 97/4/5
f 102/4/5 98/4/5 101/4/5
f 109/4/5 104/4/5 103/4/5
f 110/4/5 104/4/5 109/4/5
f 111/4/5 106/4/5 105/4/5
f 112/4/5 106/4/5 111/4/5
f 113/4/5 108/4/5 107/4/5
f 114/4/5 108/4/5 113/4/5
f 115/4/6 116/4/6 119/4/6
f 119/4/6 116/4/6 120/4/6
f 117/4/6 118/4/6 121/4/6
f 121/4/6 118/4/6 122/4/6
f 123/2/6 124/2/6 129/2/6
f 124/1/6 125/1/6 130/1/6
f 129/2/6 124/2/6 130/2/6
f 125/2/6 126/2/6 131/2/6
f 130/1/6 125/1/6 131/1/6
f 126/1/6 127/1/6 132/1/6
f 131/2/6 126/2/6 132/2/6
f 127/2/6 128/2/6 133/2/6
f 132/1/6 127/1/6 133/1/6
f 133/2/6 128/2/6 134/2/6
