# MagicaVoxel @ Ephtracy

# group
o 

# material
mtllib бабка померла.mtl
usemtl palette

# normals
vn -1 0 0
vn 1 0 0
vn 0 0 1
vn 0 0 -1
vn 0 -1 0
vn 0 1 0

# texcoords
vt 0.0175781 0.5
vt 0.0527344 0.5
vt 0.0644531 0.5
vt 0.0761719 0.5
vt 0.0917969 0.5
vt 0.232422 0.5
vt 0.701172 0.5
vt 0.849609 0.5
vt 0.861328 0.5

# verts
v -0.7 0.3 0.5
v -0.7 0.3 0.4
v -0.7 0.4 0.5
v -0.7 0.4 0.4
v -0.6 0.4 0.5
v -0.6 0.4 0.4
v -0.6 0.5 0.5
v -0.6 0.5 0.4
v -0.6 0.6 0.5
v -0.6 0.6 0.4
v -0.5 0.6 0.5
v -0.5 0.6 0.4
v -0.5 0.7 0.5
v -0.5 0.7 0.4
v -0.4 0.7 0.5
v -0.4 0.7 0.4
v -0.4 0.8 0.5
v -0.4 0.8 0.4
v -0.3 0.8 0.5
v -0.3 0.8 0.4
v -0.3 0.9 0.5
v -0.3 0.9 0.4
v 5.96046e-008 0.3 0.5
v 5.96046e-008 0.3 0.4
v 5.96046e-008 0.4 0.5
v 5.96046e-008 0.4 0.4
v -0.2 0.3 0.5
v -0.2 0.3 0.4
v -0.2 0.4 0.5
v -0.2 0.4 0.4
v 0.1 0.8 0.5
v 0.1 0.8 0.4
v 0.1 0.9 0.5
v 0.1 0.9 0.4
v 0.2 0.7 0.5
v 0.2 0.7 0.4
v 0.2 0.8 0.5
v 0.2 0.8 0.4
v 0.3 0.6 0.5
v 0.3 0.6 0.4
v 0.3 0.7 0.5
v 0.3 0.7 0.4
v 0.4 0.4 0.5
v 0.4 0.4 0.4
v 0.4 0.5 0.5
v 0.4 0.5 0.4
v 0.4 0.6 0.5
v 0.4 0.6 0.4
v 0.5 0.3 0.5
v 0.5 0.3 0.4
v 0.5 0.4 0.5
v 0.5 0.4 0.4
v -0.7 0.3 0.5
v -0.7 0.4 0.5
v -0.6 0.4 0.5
v -0.6 0.5 0.5
v -0.6 0.6 0.5
v -0.5 0.3 0.5
v -0.5 0.5 0.5
v -0.5 0.6 0.5
v -0.5 0.7 0.5
v -0.4 0.5 0.5
v -0.4 0.6 0.5
v -0.4 0.7 0.5
v -0.4 0.8 0.5
v -0.3 0.8 0.5
v -0.3 0.9 0.5
v -0.2 0.3 0.5
v -0.2 0.4 0.5
v -0.2 0.5 0.5
v -0.2 0.7 0.5
v -0.2 0.8 0.5
v -0.1 0.6 0.5
v -0.1 0.7 0.5
v -0.1 0.8 0.5
v -0.1 0.9 0.5
v 5.96046e-008 0.3 0.5
v 5.96046e-008 0.4 0.5
v 5.96046e-008 0.5 0.5
v 5.96046e-008 0.6 0.5
v 5.96046e-008 0.7 0.5
v 5.96046e-008 0.8 0.5
v 5.96046e-008 0.9 0.5
v 0.1 0.7 0.5
v 0.1 0.8 0.5
v 0.1 0.9 0.5
v 0.2 0.5 0.5
v 0.2 0.6 0.5
v 0.2 0.7 0.5
v 0.2 0.8 0.5
v 0.3 0.3 0.5
v 0.3 0.5 0.5
v 0.3 0.6 0.5
v 0.3 0.7 0.5
v 0.4 0.4 0.5
v 0.4 0.5 0.5
v 0.4 0.6 0.5
v 0.5 0.3 0.5
v 0.5 0.4 0.5
v -0.7 0.3 0.4
v -0.7 0.4 0.4
v -0.6 0.4 0.4
v -0.6 0.5 0.4
v -0.6 0.6 0.4
v -0.5 0.3 0.4
v -0.5 0.5 0.4
v -0.5 0.6 0.4
v -0.5 0.7 0.4
v -0.4 0.5 0.4
v -0.4 0.6 0.4
v -0.4 0.7 0.4
v -0.4 0.8 0.4
v -0.3 0.8 0.4
v -0.3 0.9 0.4
v -0.2 0.3 0.4
v -0.2 0.4 0.4
v -0.2 0.5 0.4
v -0.2 0.7 0.4
v -0.2 0.8 0.4
v -0.1 0.6 0.4
v -0.1 0.7 0.4
v -0.1 0.8 0.4
v -0.1 0.9 0.4
v 5.96046e-008 0.3 0.4
v 5.96046e-008 0.4 0.4
v 5.96046e-008 0.5 0.4
v 5.96046e-008 0.6 0.4
v 5.96046e-008 0.7 0.4
v 5.96046e-008 0.8 0.4
v 5.96046e-008 0.9 0.4
v 0.1 0.7 0.4
v 0.1 0.8 0.4
v 0.1 0.9 0.4
v 0.2 0.5 0.4
v 0.2 0.6 0.4
v 0.2 0.7 0.4
v 0.2 0.8 0.4
v 0.3 0.3 0.4
v 0.3 0.5 0.4
v 0.3 0.6 0.4
v 0.3 0.7 0.4
v 0.4 0.4 0.4
v 0.4 0.5 0.4
v 0.4 0.6 0.4
v 0.5 0.3 0.4
v 0.5 0.4 0.4
v -0.7 0.3 0.5
v -0.5 0.3 0.5
v -0.2 0.3 0.5
v 5.96046e-008 0.3 0.5
v 0.3 0.3 0.5
v 0.5 0.3 0.5
v -0.7 0.3 0.4
v -0.5 0.3 0.4
v -0.2 0.3 0.4
v 5.96046e-008 0.3 0.4
v 0.3 0.3 0.4
v 0.5 0.3 0.4
v -0.2 0.4 0.5
v 5.96046e-008 0.4 0.5
v -0.2 0.4 0.4
v 5.96046e-008 0.4 0.4
v -0.7 0.4 0.5
v -0.6 0.4 0.5
v 0.4 0.4 0.5
v 0.5 0.4 0.5
v -0.7 0.4 0.4
v -0.6 0.4 0.4
v 0.4 0.4 0.4
v 0.5 0.4 0.4
v -0.6 0.6 0.5
v -0.5 0.6 0.5
v 0.3 0.6 0.5
v 0.4 0.6 0.5
v -0.6 0.6 0.4
v -0.5 0.6 0.4
v 0.3 0.6 0.4
v 0.4 0.6 0.4
v -0.5 0.7 0.5
v -0.4 0.7 0.5
v 0.2 0.7 0.5
v 0.3 0.7 0.5
v -0.5 0.7 0.4
v -0.4 0.7 0.4
v 0.2 0.7 0.4
v 0.3 0.7 0.4
v -0.4 0.8 0.5
v -0.3 0.8 0.5
v 0.1 0.8 0.5
v 0.2 0.8 0.5
v -0.4 0.8 0.4
v -0.3 0.8 0.4
v 0.1 0.8 0.4
v 0.2 0.8 0.4
v -0.3 0.9 0.5
v -0.1 0.9 0.5
v 5.96046e-008 0.9 0.5
v 0.1 0.9 0.5
v -0.3 0.9 0.4
v -0.1 0.9 0.4
v 5.96046e-008 0.9 0.4
v 0.1 0.9 0.4

# faces
f 3/6/1 2/6/1 1/6/1
f 4/6/1 2/6/1 3/6/1
f 7/6/1 6/6/1 5/6/1
f 8/6/1 6/6/1 7/6/1
f 9/9/1 8/9/1 7/9/1
f 10/9/1 8/9/1 9/9/1
f 13/8/1 12/8/1 11/8/1
f 14/8/1 12/8/1 13/8/1
f 17/3/1 16/3/1 15/3/1
f 18/3/1 16/3/1 17/3/1
f 21/3/1 20/3/1 19/3/1
f 22/3/1 20/3/1 21/3/1
f 25/7/1 24/7/1 23/7/1
f 26/7/1 24/7/1 25/7/1
f 27/7/2 28/7/2 29/7/2
f 29/7/2 28/7/2 30/7/2
f 31/3/2 32/3/2 33/3/2
f 33/3/2 32/3/2 34/3/2
f 35/3/2 36/3/2 37/3/2
f 37/3/2 36/3/2 38/3/2
f 39/8/2 40/8/2 41/8/2
f 41/8/2 40/8/2 42/8/2
f 43/6/2 44/6/2 45/6/2
f 45/6/2 44/6/2 46/6/2
f 45/9/2 46/9/2 47/9/2
f 47/9/2 46/9/2 48/9/2
f 49/6/2 50/6/2 51/6/2
f 51/6/2 50/6/2 52/6/2
f 55/6/3 54/6/3 53/6/3
f 58/6/3 55/6/3 53/6/3
f 58/6/3 56/6/3 55/6/3
f 59/9/3 57/9/3 56/9/3
f 59/6/3 56/6/3 58/6/3
f 60/9/3 57/9/3 59/9/3
f 62/7/3 59/7/3 58/7/3
f 62/6/3 60/6/3 59/6/3
f 63/8/3 61/8/3 60/8/3
f 63/6/3 60/6/3 62/6/3
f 64/8/3 61/8/3 63/8/3
f 66/3/3 64/3/3 63/3/3
f 66/3/3 65/3/3 64/3/3
f 68/7/3 62/7/3 58/7/3
f 69/7/3 62/7/3 68/7/3
f 70/5/3 63/5/3 62/5/3
f 70/7/3 62/7/3 69/7/3
f 71/3/3 67/3/3 66/3/3
f 71/3/3 66/3/3 63/3/3
f 72/3/3 67/3/3 71/3/3
f 73/5/3 63/5/3 70/5/3
f 73/5/3 70/5/3 69/5/3
f 73/3/3 71/3/3 63/3/3
f 74/2/3 72/2/3 71/2/3
f 74/3/3 71/3/3 73/3/3
f 75/3/3 67/3/3 72/3/3
f 75/2/3 72/2/3 74/2/3
f 76/3/3 67/3/3 75/3/3
f 78/5/3 73/5/3 69/5/3
f 79/5/3 73/5/3 78/5/3
f 80/4/3 74/4/3 73/4/3
f 80/5/3 73/5/3 79/5/3
f 81/1/3 75/1/3 74/1/3
f 81/4/3 74/4/3 80/4/3
f 82/2/3 76/2/3 75/2/3
f 82/1/3 75/1/3 81/1/3
f 83/2/3 76/2/3 82/2/3
f 84/3/3 81/3/3 80/3/3
f 84/2/3 82/2/3 81/2/3
f 85/3/3 83/3/3 82/3/3
f 85/2/3 82/2/3 84/2/3
f 86/3/3 83/3/3 85/3/3
f 87/7/3 79/7/3 78/7/3
f 87/5/3 80/5/3 79/5/3
f 87/7/3 78/7/3 77/7/3
f 88/3/3 85/3/3 84/3/3
f 88/5/3 80/5/3 87/5/3
f 88/3/3 84/3/3 80/3/3
f 89/3/3 85/3/3 88/3/3
f 90/3/3 85/3/3 89/3/3
f 91/7/3 87/7/3 77/7/3
f 92/6/3 88/6/3 87/6/3
f 92/7/3 87/7/3 91/7/3
f 93/8/3 89/8/3 88/8/3
f 93/6/3 88/6/3 92/6/3
f 94/8/3 89/8/3 93/8/3
f 95/6/3 92/6/3 91/6/3
f 96/9/3 93/9/3 92/9/3
f 96/6/3 92/6/3 95/6/3
f 97/9/3 93/9/3 96/9/3
f 98/6/3 95/6/3 91/6/3
f 99/6/3 95/6/3 98/6/3
f 100/6/4 101/6/4 102/6/4
f 100/6/4 102/6/4 105/6/4
f 102/6/4 103/6/4 105/6/4
f 103/9/4 104/9/4 106/9/4
f 105/6/4 103/6/4 106/6/4
f 106/9/4 104/9/4 107/9/4
f 105/7/4 106/7/4 109/7/4
f 106/6/4 107/6/4 109/6/4
f 107/8/4 108/8/4 110/8/4
f 109/6/4 107/6/4 110/6/4
f 110/8/4 108/8/4 111/8/4
f 110/3/4 111/3/4 113/3/4
f 111/3/4 112/3/4 113/3/4
f 105/7/4 109/7/4 115/7/4
f 115/7/4 109/7/4 116/7/4
f 109/5/4 110/5/4 117/5/4
f 116/7/4 109/7/4 117/7/4
f 113/3/4 114/3/4 118/3/4
f 110/3/4 113/3/4 118/3/4
f 118/3/4 114/3/4 119/3/4
f 117/5/4 110/5/4 120/5/4
f 116/5/4 117/5/4 120/5/4
f 110/3/4 118/3/4 120/3/4
f 118/2/4 119/2/4 121/2/4
f 120/3/4 118/3/4 121/3/4
f 119/3/4 114/3/4 122/3/4
f 121/2/4 119/2/4 122/2/4
f 122/3/4 114/3/4 123/3/4
f 116/5/4 120/5/4 125/5/4
f 125/5/4 120/5/4 126/5/4
f 120/4/4 121/4/4 127/4/4
f 126/5/4 120/5/4 127/5/4
f 121/1/4 122/1/4 128/1/4
f 127/4/4 121/4/4 128/4/4
f 122/2/4 123/2/4 129/2/4
f 128/1/4 122/1/4 129/1/4
f 129/2/4 123/2/4 130/2/4
f 127/3/4 128/3/4 131/3/4
f 128/2/4 129/2/4 131/2/4
f 129/3/4 130/3/4 132/3/4
f 131/2/4 129/2/4 132/2/4
f 132/3/4 130/3/4 133/3/4
f 125/7/4 126/7/4 134/7/4
f 126/5/4 127/5/4 134/5/4
f 124/7/4 125/7/4 134/7/4
f 131/3/4 132/3/4 135/3/4
f 134/5/4 127/5/4 135/5/4
f 127/3/4 131/3/4 135/3/4
f 135/3/4 132/3/4 136/3/4
f 136/3/4 132/3/4 137/3/4
f 124/7/4 134/7/4 138/7/4
f 134/6/4 135/6/4 139/6/4
f 138/7/4 134/7/4 139/7/4
f 135/8/4 136/8/4 140/8/4
f 139/6/4 135/6/4 140/6/4
f 140/8/4 136/8/4 141/8/4
f 138/6/4 139/6/4 142/6/4
f 139/9/4 140/9/4 143/9/4
f 142/6/4 139/6/4 143/6/4
f 143/9/4 140/9/4 144/9/4
f 138/6/4 142/6/4 145/6/4
f 145/6/4 142/6/4 146/6/4
f 153/6/5 148/6/5 147/6/5
f 154/7/5 149/7/5 148/7/5
f 154/6/5 148/6/5 153/6/5
f 155/7/5 149/7/5 154/7/5
f 156/7/5 151/7/5 150/7/5
f 157/6/5 152/6/5 151/6/5
f 157/7/5 151/7/5 156/7/5
f 158/6/5 152/6/5 157/6/5
f 161/5/5 160/5/5 159/5/5
f 162/5/5 160/5/5 161/5/5
f 163/6/6 164/6/6 167/6/6
f 167/6/6 164/6/6 168/6/6
f 165/6/6 166/6/6 169/6/6
f 169/6/6 166/6/6 170/6/6
f 171/9/6 172/9/6 175/9/6
f 175/9/6 172/9/6 176/9/6
f 173/9/6 174/9/6 177/9/6
f 177/9/6 174/9/6 178/9/6
f 179/8/6 180/8/6 183/8/6
f 183/8/6 180/8/6 184/8/6
f 181/8/6 182/8/6 185/8/6
f 185/8/6 182/8/6 186/8/6
f 187/3/6 188/3/6 191/3/6
f 191/3/6 188/3/6 192/3/6
f 189/3/6 190/3/6 193/3/6
f 193/3/6 190/3/6 194/3/6
f 195/3/6 196/3/6 199/3/6
f 196/2/6 197/2/6 200/2/6
f 199/3/6 196/3/6 200/3/6
f 197/3/6 198/3/6 201/3/6
f 200/2/6 197/2/6 201/2/6
f 201/3/6 198/3/6 202/3/6
