# MagicaVoxel @ Ephtracy

# group
o 

# material
mtllib boot.mtl
usemtl palette

# normals
vn -1 0 0
vn 1 0 0
vn 0 0 1
vn 0 0 -1
vn 0 -1 0
vn 0 1 0

# texcoords
vt 0.865234 0.5
vt 0.958984 0.5
vt 0.994141 0.5

# verts
v -0.7 0.3 0.1
v -0.7 0.3 -0.2
v -0.7 0.5 0.1
v -0.7 0.5 -0.2
v -0.6 0.2 0.1
v -0.6 0.2 -0.2
v -0.6 0.3 0.2
v -0.6 0.3 0.1
v -0.6 0.3 -0.2
v -0.6 0.3 -0.3
v -0.6 0.5 0.2
v -0.6 0.5 0.1
v -0.6 0.5 -0.2
v -0.6 0.5 -0.3
v -0.6 0.6 0.1
v -0.6 0.6 -0.2
v -0.5 0.1 0.1
v -0.5 0.1 -0.2
v -0.5 0.2 0.2
v -0.5 0.2 0.1
v -0.5 0.2 -0.2
v -0.5 0.2 -0.3
v -0.5 0.3 0.2
v -0.5 0.3 0.1
v -0.5 0.3 -0.2
v -0.5 0.3 -0.3
v -0.5 0.5 0.2
v -0.5 0.5 0.1
v -0.5 0.5 -0.2
v -0.5 0.5 -0.3
v -0.5 0.6 0.1
v -0.5 0.6 -0.2
v -0.5 0.7 0.2
v -0.5 0.7 0.1
v -0.5 0.7 -0.2
v -0.5 0.7 -0.3
v -0.5 0.8 0.1
v -0.5 0.8 -0.2
v -0.4 0.1 0.2
v -0.4 0.1 0.1
v -0.4 0.1 -0.2
v -0.4 0.1 -0.3
v -0.4 0.2 0.2
v -0.4 0.2 0.1
v -0.4 0.2 -0.2
v -0.4 0.2 -0.3
v -0.4 0.3 0.3
v -0.4 0.3 0.2
v -0.4 0.3 -0.3
v -0.4 0.3 -0.4
v -0.4 0.5 0.3
v -0.4 0.5 0.2
v -0.4 0.5 -0.3
v -0.4 0.5 -0.4
v -0.4 0.7 0.2
v -0.4 0.7 0.1
v -0.4 0.7 -0.2
v -0.4 0.7 -0.3
v -0.4 0.8 0.2
v -0.4 0.8 0.1
v -0.4 0.8 -0.2
v -0.4 0.8 -0.3
v -0.4 0.9 0.1
v -0.4 0.9 -0.2
v -0.3 0.2 0.3
v -0.3 0.2 0.2
v -0.3 0.2 -0.3
v -0.3 0.2 -0.4
v -0.3 0.3 0.3
v -0.3 0.3 0.2
v -0.3 0.3 -0.3
v -0.3 0.3 -0.4
v -0.3 0.5 0.3
v -0.3 0.5 0.2
v -0.3 0.5 -0.3
v -0.3 0.5 -0.4
v -0.3 0.6 0.3
v -0.3 0.6 0.2
v -0.3 0.6 -0.3
v -0.3 0.6 -0.4
v -0.3 0.8 0.2
v -0.3 0.8 0.1
v -0.3 0.8 -0.2
v -0.3 0.8 -0.3
v -0.3 0.9 0.2
v -0.3 0.9 0.1
v -0.3 0.9 -0.2
v -0.3 0.9 -0.3
v 0 1.2 0.2
v 0 1.2 -0.3
v 0 1.5 0.2
v 0 1.5 -0.3
v 0.1 0.8 0.2
v 0.1 0.8 -0.3
v 0.1 1.2 0.2
v 0.1 1.2 -0.3
v 0.1 1.5 0.2
v 0.1 1.5 -0.3
v 0.1 1.6 0.2
v 0.1 1.6 -0.3
v 0.6 0.2 0.1
v 0.6 0.2 -0.2
v 0.6 1.2 0.1
v 0.6 1.2 -0.2
v 0.6 1.3 0.1
v 0.6 1.3 -0.2
v 0.6 1.5 0.1
v 0.6 1.5 -0.2
v 0.6 1.6 0.1
v 0.6 1.6 -0.2
v -0.1 0.8 0.2
v -0.1 0.8 0.1
v -0.1 0.8 -0.2
v -0.1 0.8 -0.3
v -0.1 0.9 0.2
v -0.1 0.9 0.1
v -0.1 0.9 -0.2
v -0.1 0.9 -0.3
v 0 0.5 0.3
v 0 0.5 0.2
v 0 0.5 -0.3
v 0 0.5 -0.4
v 0 0.6 0.3
v 0 0.6 0.2
v 0 0.6 -0.3
v 0 0.6 -0.4
v 0 0.8 0.1
v 0 0.8 -0.2
v 0 0.9 0.1
v 0 0.9 -0.2
v 0.1 0.4 0.3
v 0.1 0.4 0.2
v 0.1 0.4 -0.3
v 0.1 0.4 -0.4
v 0.1 0.5 0.3
v 0.1 0.5 0.2
v 0.1 0.5 -0.3
v 0.1 0.5 -0.4
v 0.2 0.2 0.1
v 0.2 0.2 -0.2
v 0.2 0.3 0.3
v 0.2 0.3 0.2
v 0.2 0.3 -0.3
v 0.2 0.3 -0.4
v 0.2 0.4 0.3
v 0.2 0.4 0.2
v 0.2 0.4 -0.3
v 0.2 0.4 -0.4
v 0.2 0.7 0.1
v 0.2 0.7 -0.2
v 0.2 0.8 0.1
v 0.2 0.8 -0.2
v 0.2 1.2 0.1
v 0.2 1.2 -0.2
v 0.2 1.3 0.1
v 0.2 1.3 -0.2
v 0.2 1.5 0.1
v 0.2 1.5 -0.2
v 0.2 1.6 0.1
v 0.2 1.6 -0.2
v 0.3 0.2 0.3
v 0.3 0.2 0.2
v 0.3 0.2 -0.3
v 0.3 0.2 -0.4
v 0.3 0.3 0.3
v 0.3 0.3 0.2
v 0.3 0.3 -0.3
v 0.3 0.3 -0.4
v 0.6 0.1 0.2
v 0.6 0.1 0.1
v 0.6 0.1 -0.2
v 0.6 0.1 -0.3
v 0.6 0.2 0.2
v 0.6 0.2 0.1
v 0.6 0.2 -0.2
v 0.6 0.2 -0.3
v 0.6 1.2 0.2
v 0.6 1.2 0.1
v 0.6 1.2 -0.2
v 0.6 1.2 -0.3
v 0.7 0.1 0.1
v 0.7 0.1 -0.2
v 0.7 0.2 0.1
v 0.7 0.2 -0.2
v 0.7 1.2 0.1
v 0.7 1.2 -0.2
v 0.7 1.5 0.2
v 0.7 1.5 -0.3
v 0.7 1.6 0.2
v 0.7 1.6 -0.3
v 0.8 1.2 0.2
v 0.8 1.2 -0.3
v 0.8 1.5 0.2
v 0.8 1.5 -0.3
v -0.4 0.3 0.3
v -0.4 0.5 0.3
v -0.3 0.2 0.3
v -0.3 0.3 0.3
v -0.3 0.5 0.3
v -0.3 0.6 0.3
v 0 0.5 0.3
v 0 0.6 0.3
v 0.1 0.4 0.3
v 0.1 0.5 0.3
v 0.2 0.3 0.3
v 0.2 0.4 0.3
v 0.3 0.2 0.3
v 0.3 0.3 0.3
v -0.6 0.3 0.2
v -0.6 0.5 0.2
v -0.5 0.2 0.2
v -0.5 0.3 0.2
v -0.5 0.5 0.2
v -0.5 0.7 0.2
v -0.4 0.1 0.2
v -0.4 0.2 0.2
v -0.4 0.3 0.2
v -0.4 0.5 0.2
v -0.4 0.7 0.2
v -0.4 0.8 0.2
v -0.3 0.2 0.2
v -0.3 0.3 0.2
v -0.3 0.5 0.2
v -0.3 0.6 0.2
v -0.3 0.8 0.2
v -0.3 0.9 0.2
v -0.1 0.8 0.2
v -0.1 0.9 0.2
v 0 0.5 0.2
v 0 0.6 0.2
v 0 1.2 0.2
v 0 1.5 0.2
v 0.1 0.4 0.2
v 0.1 0.5 0.2
v 0.1 0.8 0.2
v 0.1 1.2 0.2
v 0.1 1.3 0.2
v 0.1 1.5 0.2
v 0.1 1.6 0.2
v 0.2 0.3 0.2
v 0.2 0.4 0.2
v 0.2 0.7 0.2
v 0.2 0.8 0.2
v 0.2 1.2 0.2
v 0.3 0.2 0.2
v 0.3 0.3 0.2
v 0.3 0.7 0.2
v 0.3 0.8 0.2
v 0.6 0.1 0.2
v 0.6 0.2 0.2
v 0.6 1.2 0.2
v 0.7 1.3 0.2
v 0.7 1.5 0.2
v 0.7 1.6 0.2
v 0.8 1.2 0.2
v 0.8 1.5 0.2
v -0.7 0.3 0.1
v -0.7 0.5 0.1
v -0.6 0.2 0.1
v -0.6 0.3 0.1
v -0.6 0.5 0.1
v -0.6 0.6 0.1
v -0.5 0.1 0.1
v -0.5 0.2 0.1
v -0.5 0.3 0.1
v -0.5 0.5 0.1
v -0.5 0.6 0.1
v -0.5 0.7 0.1
v -0.5 0.8 0.1
v -0.4 0.1 0.1
v -0.4 0.2 0.1
v -0.4 0.7 0.1
v -0.4 0.8 0.1
v -0.4 0.9 0.1
v -0.3 0.8 0.1
v -0.3 0.9 0.1
v -0.1 0.8 0.1
v -0.1 0.9 0.1
v 0 0.8 0.1
v 0 0.9 0.1
v 0.6 0.1 0.1
v 0.6 0.2 0.1
v 0.6 1.2 0.1
v 0.7 0.1 0.1
v 0.7 0.2 0.1
v 0.7 1.2 0.1
v 0.2 0.2 -0.2
v 0.2 0.7 -0.2
v 0.2 0.8 -0.2
v 0.2 1.2 -0.2
v 0.2 1.3 -0.2
v 0.2 1.5 -0.2
v 0.2 1.6 -0.2
v 0.3 0.7 -0.2
v 0.3 0.8 -0.2
v 0.6 0.2 -0.2
v 0.6 1.2 -0.2
v 0.6 1.3 -0.2
v 0.6 1.5 -0.2
v 0.6 1.6 -0.2
v 0.2 0.2 0.1
v 0.2 0.7 0.1
v 0.2 0.8 0.1
v 0.2 1.2 0.1
v 0.2 1.3 0.1
v 0.2 1.5 0.1
v 0.2 1.6 0.1
v 0.3 0.7 0.1
v 0.3 0.8 0.1
v 0.6 0.2 0.1
v 0.6 1.2 0.1
v 0.6 1.3 0.1
v 0.6 1.5 0.1
v 0.6 1.6 0.1
v -0.7 0.3 -0.2
v -0.7 0.5 -0.2
v -0.6 0.2 -0.2
v -0.6 0.3 -0.2
v -0.6 0.5 -0.2
v -0.6 0.6 -0.2
v -0.5 0.1 -0.2
v -0.5 0.2 -0.2
v -0.5 0.3 -0.2
v -0.5 0.5 -0.2
v -0.5 0.6 -0.2
v -0.5 0.7 -0.2
v -0.5 0.8 -0.2
v -0.4 0.1 -0.2
v -0.4 0.2 -0.2
v -0.4 0.7 -0.2
v -0.4 0.8 -0.2
v -0.4 0.9 -0.2
v -0.3 0.8 -0.2
v -0.3 0.9 -0.2
v -0.1 0.8 -0.2
v -0.1 0.9 -0.2
v 0 0.8 -0.2
v 0 0.9 -0.2
v 0.6 0.1 -0.2
v 0.6 0.2 -0.2
v 0.6 1.2 -0.2
v 0.7 0.1 -0.2
v 0.7 0.2 -0.2
v 0.7 1.2 -0.2
v -0.6 0.3 -0.3
v -0.6 0.5 -0.3
v -0.5 0.2 -0.3
v -0.5 0.3 -0.3
v -0.5 0.5 -0.3
v -0.5 0.7 -0.3
v -0.4 0.1 -0.3
v -0.4 0.2 -0.3
v -0.4 0.3 -0.3
v -0.4 0.5 -0.3
v -0.4 0.7 -0.3
v -0.4 0.8 -0.3
v -0.3 0.2 -0.3
v -0.3 0.3 -0.3
v -0.3 0.5 -0.3
v -0.3 0.6 -0.3
v -0.3 0.8 -0.3
v -0.3 0.9 -0.3
v -0.1 0.8 -0.3
v -0.1 0.9 -0.3
v 0 0.5 -0.3
v 0 0.6 -0.3
v 0 1.2 -0.3
v 0 1.5 -0.3
v 0.1 0.4 -0.3
v 0.1 0.5 -0.3
v 0.1 0.8 -0.3
v 0.1 1.2 -0.3
v 0.1 1.3 -0.3
v 0.1 1.5 -0.3
v 0.1 1.6 -0.3
v 0.2 0.3 -0.3
v 0.2 0.4 -0.3
v 0.2 0.7 -0.3
v 0.2 0.8 -0.3
v 0.2 1.2 -0.3
v 0.3 0.2 -0.3
v 0.3 0.3 -0.3
v 0.3 0.7 -0.3
v 0.3 0.8 -0.3
v 0.6 0.1 -0.3
v 0.6 0.2 -0.3
v 0.6 1.2 -0.3
v 0.7 1.3 -0.3
v 0.7 1.5 -0.3
v 0.7 1.6 -0.3
v 0.8 1.2 -0.3
v 0.8 1.5 -0.3
v -0.4 0.3 -0.4
v -0.4 0.5 -0.4
v -0.3 0.2 -0.4
v -0.3 0.3 -0.4
v -0.3 0.5 -0.4
v -0.3 0.6 -0.4
v 0 0.5 -0.4
v 0 0.6 -0.4
v 0.1 0.4 -0.4
v 0.1 0.5 -0.4
v 0.2 0.3 -0.4
v 0.2 0.4 -0.4
v 0.3 0.2 -0.4
v 0.3 0.3 -0.4
v -0.4 0.1 0.2
v 0.6 0.1 0.2
v -0.5 0.1 0.1
v -0.4 0.1 0.1
v 0.6 0.1 0.1
v 0.7 0.1 0.1
v -0.5 0.1 -0.2
v -0.4 0.1 -0.2
v 0.6 0.1 -0.2
v 0.7 0.1 -0.2
v -0.4 0.1 -0.3
v 0.6 0.1 -0.3
v -0.3 0.2 0.3
v 0.3 0.2 0.3
v -0.5 0.2 0.2
v -0.4 0.2 0.2
v -0.3 0.2 0.2
v 0.3 0.2 0.2
v -0.6 0.2 0.1
v -0.5 0.2 0.1
v -0.4 0.2 0.1
v -0.6 0.2 -0.2
v -0.5 0.2 -0.2
v -0.4 0.2 -0.2
v -0.5 0.2 -0.3
v -0.4 0.2 -0.3
v -0.3 0.2 -0.3
v 0.3 0.2 -0.3
v -0.3 0.2 -0.4
v 0.3 0.2 -0.4
v -0.4 0.3 0.3
v -0.3 0.3 0.3
v -0.6 0.3 0.2
v -0.5 0.3 0.2
v -0.4 0.3 0.2
v -0.3 0.3 0.2
v -0.7 0.3 0.1
v -0.6 0.3 0.1
v -0.5 0.3 0.1
v -0.7 0.3 -0.2
v -0.6 0.3 -0.2
v -0.5 0.3 -0.2
v -0.6 0.3 -0.3
v -0.5 0.3 -0.3
v -0.4 0.3 -0.3
v -0.3 0.3 -0.3
v -0.4 0.3 -0.4
v -0.3 0.3 -0.4
v 0 1.2 0.2
v 0.1 1.2 0.2
v 0.6 1.2 0.2
v 0.8 1.2 0.2
v 0.6 1.2 0.1
v 0.7 1.2 0.1
v 0.6 1.2 -0.2
v 0.7 1.2 -0.2
v 0 1.2 -0.3
v 0.1 1.2 -0.3
v 0.6 1.2 -0.3
v 0.8 1.2 -0.3
v 0.2 0.2 0.1
v 0.6 0.2 0.1
v 0.2 0.2 -0.2
v 0.6 0.2 -0.2
v 0.2 0.3 0.3
v 0.3 0.3 0.3
v 0.2 0.3 0.2
v 0.3 0.3 0.2
v 0.2 0.3 -0.3
v 0.3 0.3 -0.3
v 0.2 0.3 -0.4
v 0.3 0.3 -0.4
v 0.1 0.4 0.3
v 0.2 0.4 0.3
v 0.1 0.4 0.2
v 0.2 0.4 0.2
v 0.1 0.4 -0.3
v 0.2 0.4 -0.3
v 0.1 0.4 -0.4
v 0.2 0.4 -0.4
v -0.4 0.5 0.3
v -0.3 0.5 0.3
v 0 0.5 0.3
v 0.1 0.5 0.3
v -0.6 0.5 0.2
v -0.5 0.5 0.2
v -0.4 0.5 0.2
v -0.3 0.5 0.2
v 0 0.5 0.2
v 0.1 0.5 0.2
v -0.7 0.5 0.1
v -0.6 0.5 0.1
v -0.5 0.5 0.1
v -0.7 0.5 -0.2
v -0.6 0.5 -0.2
v -0.5 0.5 -0.2
v -0.6 0.5 -0.3
v -0.5 0.5 -0.3
v -0.4 0.5 -0.3
v -0.3 0.5 -0.3
v 0 0.5 -0.3
v 0.1 0.5 -0.3
v -0.4 0.5 -0.4
v -0.3 0.5 -0.4
v 0 0.5 -0.4
v 0.1 0.5 -0.4
v -0.3 0.6 0.3
v 0 0.6 0.3
v -0.3 0.6 0.2
v 0 0.6 0.2
v -0.6 0.6 0.1
v -0.5 0.6 0.1
v -0.6 0.6 -0.2
v -0.5 0.6 -0.2
v -0.3 0.6 -0.3
v 0 0.6 -0.3
v -0.3 0.6 -0.4
v 0 0.6 -0.4
v -0.5 0.7 0.2
v -0.4 0.7 0.2
v -0.5 0.7 0.1
v -0.4 0.7 0.1
v -0.5 0.7 -0.2
v -0.4 0.7 -0.2
v -0.5 0.7 -0.3
v -0.4 0.7 -0.3
v -0.4 0.8 0.2
v -0.3 0.8 0.2
v -0.1 0.8 0.2
v 0.1 0.8 0.2
v -0.5 0.8 0.1
v -0.4 0.8 0.1
v -0.3 0.8 0.1
v -0.1 0.8 0.1
v 0 0.8 0.1
v -0.5 0.8 -0.2
v -0.4 0.8 -0.2
v -0.3 0.8 -0.2
v -0.1 0.8 -0.2
v 0 0.8 -0.2
v -0.4 0.8 -0.3
v -0.3 0.8 -0.3
v -0.1 0.8 -0.3
v 0.1 0.8 -0.3
v -0.3 0.9 0.2
v -0.1 0.9 0.2
v -0.4 0.9 0.1
v -0.3 0.9 0.1
v -0.1 0.9 0.1
v 0 0.9 0.1
v -0.4 0.9 -0.2
v -0.3 0.9 -0.2
v -0.1 0.9 -0.2
v 0 0.9 -0.2
v -0.3 0.9 -0.3
v -0.1 0.9 -0.3
v 0 1.5 0.2
v 0.1 1.5 0.2
v 0.7 1.5 0.2
v 0.8 1.5 0.2
v 0 1.5 -0.3
v 0.1 1.5 -0.3
v 0.7 1.5 -0.3
v 0.8 1.5 -0.3
v 0.1 1.6 0.2
v 0.7 1.6 0.2
v 0.2 1.6 0.1
v 0.6 1.6 0.1
v 0.2 1.6 -0.2
v 0.6 1.6 -0.2
v 0.1 1.6 -0.3
v 0.7 1.6 -0.3

# faces
f 3/1/1 2/1/1 1/1/1
f 4/1/1 2/1/1 3/1/1
f 8/1/1 6/1/1 5/1/1
f 9/1/1 6/1/1 8/1/1
f 11/1/1 8/1/1 7/1/1
f 12/1/1 8/1/1 11/1/1
f 13/1/1 10/1/1 9/1/1
f 14/1/1 10/1/1 13/1/1
f 15/1/1 13/1/1 12/1/1
f 16/1/1 13/1/1 15/1/1
f 20/3/1 18/3/1 17/3/1
f 21/3/1 18/3/1 20/3/1
f 23/1/1 20/1/1 19/1/1
f 24/1/1 20/1/1 23/1/1
f 25/1/1 22/1/1 21/1/1
f 26/1/1 22/1/1 25/1/1
f 31/1/1 28/1/1 27/1/1
f 32/1/1 30/1/1 29/1/1
f 33/1/1 31/1/1 27/1/1
f 33/1/1 32/1/1 31/1/1
f 34/1/1 32/1/1 33/1/1
f 35/1/1 30/1/1 32/1/1
f 35/1/1 32/1/1 34/1/1
f 36/1/1 30/1/1 35/1/1
f 37/1/1 35/1/1 34/1/1
f 38/1/1 35/1/1 37/1/1
f 43/3/1 40/3/1 39/3/1
f 44/3/1 40/3/1 43/3/1
f 45/3/1 42/3/1 41/3/1
f 46/3/1 42/3/1 45/3/1
f 51/1/1 48/1/1 47/1/1
f 52/1/1 48/1/1 51/1/1
f 53/1/1 50/1/1 49/1/1
f 54/1/1 50/1/1 53/1/1
f 59/1/1 56/1/1 55/1/1
f 60/1/1 56/1/1 59/1/1
f 61/1/1 58/1/1 57/1/1
f 62/1/1 58/1/1 61/1/1
f 63/1/1 61/1/1 60/1/1
f 64/1/1 61/1/1 63/1/1
f 69/1/1 66/1/1 65/1/1
f 70/1/1 66/1/1 69/1/1
f 71/1/1 68/1/1 67/1/1
f 72/1/1 68/1/1 71/1/1
f 77/1/1 74/1/1 73/1/1
f 78/1/1 74/1/1 77/1/1
f 79/1/1 76/1/1 75/1/1
f 80/1/1 76/1/1 79/1/1
f 85/1/1 82/1/1 81/1/1
f 86/1/1 82/1/1 85/1/1
f 87/1/1 84/1/1 83/1/1
f 88/1/1 84/1/1 87/1/1
f 91/3/1 90/3/1 89/3/1
f 92/3/1 90/3/1 91/3/1
f 95/3/1 94/3/1 93/3/1
f 96/3/1 94/3/1 95/3/1
f 99/3/1 98/3/1 97/3/1
f 100/3/1 98/3/1 99/3/1
f 103/1/1 102/1/1 101/1/1
f 104/1/1 102/1/1 103/1/1
f 105/3/1 104/3/1 103/3/1
f 106/3/1 104/3/1 105/3/1
f 107/2/1 106/2/1 105/2/1
f 108/2/1 106/2/1 107/2/1
f 109/3/1 108/3/1 107/3/1
f 110/3/1 108/3/1 109/3/1
f 111/1/2 112/1/2 115/1/2
f 115/1/2 112/1/2 116/1/2
f 113/1/2 114/1/2 117/1/2
f 117/1/2 114/1/2 118/1/2
f 119/1/2 120/1/2 123/1/2
f 123/1/2 120/1/2 124/1/2
f 121/1/2 122/1/2 125/1/2
f 125/1/2 122/1/2 126/1/2
f 127/1/2 128/1/2 129/1/2
f 129/1/2 128/1/2 130/1/2
f 131/1/2 132/1/2 135/1/2
f 135/1/2 132/1/2 136/1/2
f 133/1/2 134/1/2 137/1/2
f 137/1/2 134/1/2 138/1/2
f 141/1/2 142/1/2 145/1/2
f 145/1/2 142/1/2 146/1/2
f 143/1/2 144/1/2 147/1/2
f 147/1/2 144/1/2 148/1/2
f 139/1/2 140/1/2 149/1/2
f 149/1/2 140/1/2 150/1/2
f 149/1/2 150/1/2 151/1/2
f 151/1/2 150/1/2 152/1/2
f 151/3/2 152/3/2 153/3/2
f 153/3/2 152/3/2 154/3/2
f 153/3/2 154/3/2 155/3/2
f 155/3/2 154/3/2 156/3/2
f 155/2/2 156/2/2 157/2/2
f 157/2/2 156/2/2 158/2/2
f 157/3/2 158/3/2 159/3/2
f 159/3/2 158/3/2 160/3/2
f 161/1/2 162/1/2 165/1/2
f 165/1/2 162/1/2 166/1/2
f 163/1/2 164/1/2 167/1/2
f 167/1/2 164/1/2 168/1/2
f 169/3/2 170/3/2 173/3/2
f 173/3/2 170/3/2 174/3/2
f 171/3/2 172/3/2 175/3/2
f 175/3/2 172/3/2 176/3/2
f 173/1/2 174/1/2 177/1/2
f 177/1/2 174/1/2 178/1/2
f 175/1/2 176/1/2 179/1/2
f 179/1/2 176/1/2 180/1/2
f 181/3/2 182/3/2 183/3/2
f 183/3/2 182/3/2 184/3/2
f 183/1/2 184/1/2 185/1/2
f 185/1/2 184/1/2 186/1/2
f 187/3/2 188/3/2 189/3/2
f 189/3/2 188/3/2 190/3/2
f 191/3/2 192/3/2 193/3/2
f 193/3/2 192/3/2 194/3/2
f 198/1/3 196/1/3 195/1/3
f 199/1/3 196/1/3 198/1/3
f 201/1/3 198/1/3 197/1/3
f 201/1/3 200/1/3 199/1/3
f 201/1/3 199/1/3 198/1/3
f 202/1/3 200/1/3 201/1/3
f 203/1/3 201/1/3 197/1/3
f 204/1/3 201/1/3 203/1/3
f 205/1/3 203/1/3 197/1/3
f 206/1/3 203/1/3 205/1/3
f 207/1/3 205/1/3 197/1/3
f 208/1/3 205/1/3 207/1/3
f 212/1/3 210/1/3 209/1/3
f 213/1/3 210/1/3 212/1/3
f 216/1/3 212/1/3 211/1/3
f 216/1/3 214/1/3 213/1/3
f 216/1/3 213/1/3 212/1/3
f 217/1/3 214/1/3 216/1/3
f 218/1/3 214/1/3 217/1/3
f 219/1/3 214/1/3 218/1/3
f 221/3/3 216/3/3 215/3/3
f 221/1/3 217/1/3 216/1/3
f 222/1/3 217/1/3 221/1/3
f 223/1/3 220/1/3 219/1/3
f 223/1/3 219/1/3 218/1/3
f 224/1/3 220/1/3 223/1/3
f 225/1/3 220/1/3 224/1/3
f 227/1/3 226/1/3 225/1/3
f 227/1/3 225/1/3 224/1/3
f 228/1/3 226/1/3 227/1/3
f 230/1/3 227/1/3 224/1/3
f 234/1/3 230/1/3 229/1/3
f 235/1/3 227/1/3 230/1/3
f 235/1/3 230/1/3 234/1/3
f 236/3/3 232/3/3 231/3/3
f 237/3/3 232/3/3 236/3/3
f 238/3/3 232/3/3 237/3/3
f 241/1/3 235/1/3 234/1/3
f 241/1/3 234/1/3 233/1/3
f 242/1/3 235/1/3 241/1/3
f 243/3/3 236/3/3 235/3/3
f 243/1/3 235/1/3 242/1/3
f 243/3/3 237/3/3 236/3/3
f 244/3/3 237/3/3 243/3/3
f 245/3/3 221/3/3 215/3/3
f 246/1/3 242/1/3 241/1/3
f 246/1/3 241/1/3 240/1/3
f 247/3/3 243/3/3 242/3/3
f 247/1/3 242/1/3 246/1/3
f 248/1/3 244/1/3 243/1/3
f 248/3/3 243/3/3 247/3/3
f 249/3/3 245/3/3 215/3/3
f 250/1/3 247/1/3 246/1/3
f 250/3/3 245/3/3 249/3/3
f 250/1/3 246/1/3 245/1/3
f 250/1/3 248/1/3 247/1/3
f 251/3/3 237/3/3 244/3/3
f 251/1/3 248/1/3 250/1/3
f 251/1/3 244/1/3 248/1/3
f 252/3/3 237/3/3 251/3/3
f 252/2/3 238/2/3 237/2/3
f 253/3/3 239/3/3 238/3/3
f 253/2/3 238/2/3 252/2/3
f 254/3/3 239/3/3 253/3/3
f 255/3/3 252/3/3 251/3/3
f 255/3/3 253/3/3 252/3/3
f 256/3/3 253/3/3 255/3/3
f 260/1/3 258/1/3 257/1/3
f 261/1/3 258/1/3 260/1/3
f 264/1/3 260/1/3 259/1/3
f 265/1/3 260/1/3 264/1/3
f 266/1/3 262/1/3 261/1/3
f 267/1/3 262/1/3 266/1/3
f 270/3/3 264/3/3 263/3/3
f 271/3/3 264/3/3 270/3/3
f 272/1/3 269/1/3 268/1/3
f 273/1/3 269/1/3 272/1/3
f 275/1/3 274/1/3 273/1/3
f 276/1/3 274/1/3 275/1/3
f 279/1/3 278/1/3 277/1/3
f 280/1/3 278/1/3 279/1/3
f 284/3/3 282/3/3 281/3/3
f 285/1/3 283/1/3 282/1/3
f 285/3/3 282/3/3 284/3/3
f 286/1/3 283/1/3 285/1/3
f 294/1/3 288/1/3 287/1/3
f 294/3/3 289/3/3 288/3/3
f 295/1/3 290/1/3 289/1/3
f 295/3/3 289/3/3 294/3/3
f 296/1/3 294/1/3 287/1/3
f 296/1/3 295/1/3 294/1/3
f 297/1/3 290/1/3 295/1/3
f 297/1/3 295/1/3 296/1/3
f 297/3/3 291/3/3 290/3/3
f 298/2/3 292/2/3 291/2/3
f 298/3/3 291/3/3 297/3/3
f 299/3/3 293/3/3 292/3/3
f 299/2/3 292/2/3 298/2/3
f 300/3/3 293/3/3 299/3/3
f 301/1/4 302/1/4 308/1/4
f 302/3/4 303/3/4 308/3/4
f 303/1/4 304/1/4 309/1/4
f 308/3/4 303/3/4 309/3/4
f 301/1/4 308/1/4 310/1/4
f 308/1/4 309/1/4 310/1/4
f 309/1/4 304/1/4 311/1/4
f 310/1/4 309/1/4 311/1/4
f 304/3/4 305/3/4 311/3/4
f 305/2/4 306/2/4 312/2/4
f 311/3/4 305/3/4 312/3/4
f 306/3/4 307/3/4 313/3/4
f 312/2/4 306/2/4 313/2/4
f 313/3/4 307/3/4 314/3/4
f 315/1/4 316/1/4 318/1/4
f 318/1/4 316/1/4 319/1/4
f 317/1/4 318/1/4 322/1/4
f 322/1/4 318/1/4 323/1/4
f 319/1/4 320/1/4 324/1/4
f 324/1/4 320/1/4 325/1/4
f 321/3/4 322/3/4 328/3/4
f 328/3/4 322/3/4 329/3/4
f 326/1/4 327/1/4 330/1/4
f 330/1/4 327/1/4 331/1/4
f 331/1/4 332/1/4 333/1/4
f 333/1/4 332/1/4 334/1/4
f 335/1/4 336/1/4 337/1/4
f 337/1/4 336/1/4 338/1/4
f 339/3/4 340/3/4 342/3/4
f 340/1/4 341/1/4 343/1/4
f 342/3/4 340/3/4 343/3/4
f 343/1/4 341/1/4 344/1/4
f 345/1/4 346/1/4 348/1/4
f 348/1/4 346/1/4 349/1/4
f 347/1/4 348/1/4 352/1/4
f 349/1/4 350/1/4 352/1/4
f 348/1/4 349/1/4 352/1/4
f 352/1/4 350/1/4 353/1/4
f 353/1/4 350/1/4 354/1/4
f 354/1/4 350/1/4 355/1/4
f 351/3/4 352/3/4 357/3/4
f 352/1/4 353/1/4 357/1/4
f 357/1/4 353/1/4 358/1/4
f 355/1/4 356/1/4 359/1/4
f 354/1/4 355/1/4 359/1/4
f 359/1/4 356/1/4 360/1/4
f 360/1/4 356/1/4 361/1/4
f 361/1/4 362/1/4 363/1/4
f 360/1/4 361/1/4 363/1/4
f 363/1/4 362/1/4 364/1/4
f 360/1/4 363/1/4 366/1/4
f 365/1/4 366/1/4 370/1/4
f 366/1/4 363/1/4 371/1/4
f 370/1/4 366/1/4 371/1/4
f 367/3/4 368/3/4 372/3/4
f 372/3/4 368/3/4 373/3/4
f 373/3/4 368/3/4 374/3/4
f 370/1/4 371/1/4 377/1/4
f 369/1/4 370/1/4 377/1/4
f 377/1/4 371/1/4 378/1/4
f 371/3/4 372/3/4 379/3/4
f 378/1/4 371/1/4 379/1/4
f 372/3/4 373/3/4 379/3/4
f 379/3/4 373/3/4 380/3/4
f 351/3/4 357/3/4 381/3/4
f 377/1/4 378/1/4 382/1/4
f 376/1/4 377/1/4 382/1/4
f 378/3/4 379/3/4 383/3/4
f 382/1/4 378/1/4 383/1/4
f 379/1/4 380/1/4 384/1/4
f 383/3/4 379/3/4 384/3/4
f 351/3/4 381/3/4 385/3/4
f 382/1/4 383/1/4 386/1/4
f 385/3/4 381/3/4 386/3/4
f 381/1/4 382/1/4 386/1/4
f 383/1/4 384/1/4 386/1/4
f 380/3/4 373/3/4 387/3/4
f 386/1/4 384/1/4 387/1/4
f 384/1/4 380/1/4 387/1/4
f 387/3/4 373/3/4 388/3/4
f 373/2/4 374/2/4 388/2/4
f 374/3/4 375/3/4 389/3/4
f 388/2/4 374/2/4 389/2/4
f 389/3/4 375/3/4 390/3/4
f 387/3/4 388/3/4 391/3/4
f 388/3/4 389/3/4 391/3/4
f 391/3/4 389/3/4 392/3/4
f 393/1/4 394/1/4 396/1/4
f 396/1/4 394/1/4 397/1/4
f 395/1/4 396/1/4 399/1/4
f 397/1/4 398/1/4 399/1/4
f 396/1/4 397/1/4 399/1/4
f 399/1/4 398/1/4 400/1/4
f 395/1/4 399/1/4 401/1/4
f 401/1/4 399/1/4 402/1/4
f 395/1/4 401/1/4 403/1/4
f 403/1/4 401/1/4 404/1/4
f 395/1/4 403/1/4 405/1/4
f 405/1/4 403/1/4 406/1/4
f 410/3/5 408/3/5 407/3/5
f 411/3/5 408/3/5 410/3/5
f 413/3/5 410/3/5 409/3/5
f 413/3/5 412/3/5 411/3/5
f 413/3/5 411/3/5 410/3/5
f 414/3/5 412/3/5 413/3/5
f 415/3/5 412/3/5 414/3/5
f 416/3/5 412/3/5 415/3/5
f 417/3/5 415/3/5 414/3/5
f 418/3/5 415/3/5 417/3/5
f 423/1/5 420/1/5 419/1/5
f 424/1/5 420/1/5 423/1/5
f 426/1/5 422/1/5 421/1/5
f 427/1/5 422/1/5 426/1/5
f 428/1/5 426/1/5 425/1/5
f 429/1/5 426/1/5 428/1/5
f 431/1/5 430/1/5 429/1/5
f 432/1/5 430/1/5 431/1/5
f 435/1/5 434/1/5 433/1/5
f 436/1/5 434/1/5 435/1/5
f 441/1/5 438/1/5 437/1/5
f 442/1/5 438/1/5 441/1/5
f 444/1/5 440/1/5 439/1/5
f 445/1/5 440/1/5 444/1/5
f 446/1/5 444/1/5 443/1/5
f 447/1/5 444/1/5 446/1/5
f 449/1/5 448/1/5 447/1/5
f 450/1/5 448/1/5 449/1/5
f 453/1/5 452/1/5 451/1/5
f 454/1/5 452/1/5 453/1/5
f 459/3/5 458/3/5 457/3/5
f 460/3/5 458/3/5 459/3/5
f 462/3/5 458/3/5 460/3/5
f 463/3/5 456/3/5 455/3/5
f 464/3/5 456/3/5 463/3/5
f 465/3/5 462/3/5 461/3/5
f 466/3/5 458/3/5 462/3/5
f 466/3/5 462/3/5 465/3/5
f 467/3/6 468/3/6 469/3/6
f 469/3/6 468/3/6 470/3/6
f 471/1/6 472/1/6 473/1/6
f 473/1/6 472/1/6 474/1/6
f 475/1/6 476/1/6 477/1/6
f 477/1/6 476/1/6 478/1/6
f 479/1/6 480/1/6 481/1/6
f 481/1/6 480/1/6 482/1/6
f 483/1/6 484/1/6 485/1/6
f 485/1/6 484/1/6 486/1/6
f 487/1/6 488/1/6 493/1/6
f 493/1/6 488/1/6 494/1/6
f 489/1/6 490/1/6 495/1/6
f 495/1/6 490/1/6 496/1/6
f 491/1/6 492/1/6 498/1/6
f 498/1/6 492/1/6 499/1/6
f 497/1/6 498/1/6 500/1/6
f 500/1/6 498/1/6 501/1/6
f 501/1/6 502/1/6 503/1/6
f 503/1/6 502/1/6 504/1/6
f 505/1/6 506/1/6 509/1/6
f 509/1/6 506/1/6 510/1/6
f 507/1/6 508/1/6 511/1/6
f 511/1/6 508/1/6 512/1/6
f 513/1/6 514/1/6 515/1/6
f 515/1/6 514/1/6 516/1/6
f 517/1/6 518/1/6 519/1/6
f 519/1/6 518/1/6 520/1/6
f 521/1/6 522/1/6 523/1/6
f 523/1/6 522/1/6 524/1/6
f 525/1/6 526/1/6 527/1/6
f 527/1/6 526/1/6 528/1/6
f 529/1/6 530/1/6 531/1/6
f 531/1/6 530/1/6 532/1/6
f 533/1/6 534/1/6 538/1/6
f 538/1/6 534/1/6 539/1/6
f 535/1/6 536/1/6 540/1/6
f 540/1/6 536/1/6 541/1/6
f 537/1/6 538/1/6 542/1/6
f 542/1/6 538/1/6 543/1/6
f 541/1/6 536/1/6 546/1/6
f 543/1/6 544/1/6 547/1/6
f 547/1/6 544/1/6 548/1/6
f 545/1/6 546/1/6 549/1/6
f 546/1/6 536/1/6 550/1/6
f 549/1/6 546/1/6 550/1/6
f 551/1/6 552/1/6 554/1/6
f 554/1/6 552/1/6 555/1/6
f 553/1/6 554/1/6 557/1/6
f 555/1/6 556/1/6 557/1/6
f 554/1/6 555/1/6 557/1/6
f 557/1/6 556/1/6 558/1/6
f 558/1/6 556/1/6 559/1/6
f 559/1/6 556/1/6 560/1/6
f 558/1/6 559/1/6 561/1/6
f 561/1/6 559/1/6 562/1/6
f 563/3/6 564/3/6 567/3/6
f 567/3/6 564/3/6 568/3/6
f 565/3/6 566/3/6 569/3/6
f 569/3/6 566/3/6 570/3/6
f 571/3/6 572/3/6 573/3/6
f 573/3/6 572/3/6 574/3/6
f 571/3/6 573/3/6 575/3/6
f 574/3/6 572/3/6 576/3/6
f 571/3/6 575/3/6 577/3/6
f 575/3/6 576/3/6 577/3/6
f 576/3/6 572/3/6 578/3/6
f 577/3/6 576/3/6 578/3/6
