# MagicaVoxel @ Ephtracy

# group
o 

# material
mtllib дед мороз.mtl
usemtl palette

# normals
vn -1 0 0
vn 1 0 0
vn 0 0 1
vn 0 0 -1
vn 0 -1 0
vn 0 1 0

# texcoords
vt 0.00195313 0.5
vt 0.0175781 0.5
vt 0.0214844 0.5
vt 0.0605469 0.5
vt 0.0878906 0.5
vt 0.845703 0.5
vt 0.849609 0.5
vt 0.958984 0.5
vt 0.962891 0.5
vt 0.966797 0.5
vt 0.974609 0.5
vt 0.994141 0.5

# verts
v -1.3 0.5 0.4
v -1.3 0.5 0.3
v -1.3 0.7 0.4
v -1.3 0.7 0.3
v -1.3 0.8 0.4
v -1.3 0.8 0.3
v -1.3 1.1 0.4
v -1.3 1.1 0.3
v -1.2 1.1 0.4
v -1.2 1.1 0.3
v -1.2 1.2 0.4
v -1.2 1.2 0.3
v -1.1 0.4 0.4
v -1.1 0.4 0.3
v -1.1 0.5 0.4
v -1.1 0.5 0.3
v -1 0.3 0.4
v -1 0.3 0.3
v -1 0.4 0.4
v -1 0.4 0.3
v -1 1.2 0.4
v -1 1.2 0.3
v -1 1.3 0.4
v -1 1.3 0.3
v -0.9 0 0.4
v -0.9 0 0.3
v -0.9 0.1 0.4
v -0.9 0.1 0.3
v -0.9 1.3 0.4
v -0.9 1.3 0.3
v -0.9 1.6 0.4
v -0.9 1.6 0.3
v -0.9 1.8 0.4
v -0.9 1.8 0.3
v -0.9 2 0.4
v -0.9 2 0.3
v -0.9 2.2 0.4
v -0.9 2.2 0.3
v -0.8 0.1 0.4
v -0.8 0.1 0.3
v -0.8 0.3 0.4
v -0.8 0.3 0.3
v -0.8 1.6 0.4
v -0.8 1.6 0.3
v -0.8 1.8 0.4
v -0.8 1.8 0.3
v -0.8 2.2 0.4
v -0.8 2.2 0.3
v -0.8 2.3 0.4
v -0.8 2.3 0.3
v -0.7 2.3 0.4
v -0.7 2.3 0.3
v -0.7 2.4 0.4
v -0.7 2.4 0.3
v -0.6 2.4 0.4
v -0.6 2.4 0.3
v -0.6 2.5 0.4
v -0.6 2.5 0.3
v -0.5 0 0.4
v -0.5 0 0.3
v -0.5 0.1 0.4
v -0.5 0.1 0.3
v -0.5 0.3 0.4
v -0.5 0.3 0.3
v -0.5 2.5 0.4
v -0.5 2.5 0.3
v -0.5 2.6 0.4
v -0.5 2.6 0.3
v -0.0999999 2.3 0.4
v -0.0999999 2.3 0.3
v -0.0999999 2.4 0.4
v -0.0999999 2.4 0.3
v 0 2.1 0.4
v 0 2.1 0.3
v 0 2.3 0.4
v 0 2.3 0.3
v -0.6 0 0.4
v -0.6 0 0.3
v -0.6 0.1 0.4
v -0.6 0.1 0.3
v -0.6 0.3 0.4
v -0.6 0.3 0.3
v -0.3 0.1 0.4
v -0.3 0.1 0.3
v -0.3 0.3 0.4
v -0.3 0.3 0.3
v -0.3 1.6 0.4
v -0.3 1.6 0.3
v -0.3 1.8 0.4
v -0.3 1.8 0.3
v -0.3 2.2 0.4
v -0.3 2.2 0.3
v -0.3 2.4 0.4
v -0.3 2.4 0.3
v -0.2 0 0.4
v -0.2 0 0.3
v -0.2 0.1 0.4
v -0.2 0.1 0.3
v -0.2 1.3 0.4
v -0.2 1.3 0.3
v -0.2 1.6 0.4
v -0.2 1.6 0.3
v -0.2 1.8 0.4
v -0.2 1.8 0.3
v -0.2 2 0.4
v -0.2 2 0.3
v -0.2 2.2 0.4
v -0.2 2.2 0.3
v -0.2 2.5 0.4
v -0.2 2.5 0.3
v -0.2 2.6 0.4
v -0.2 2.6 0.3
v -0.0999999 0.3 0.4
v -0.0999999 0.3 0.3
v -0.0999999 0.4 0.4
v -0.0999999 0.4 0.3
v -0.0999999 1.2 0.4
v -0.0999999 1.2 0.3
v -0.0999999 1.3 0.4
v -0.0999999 1.3 0.3
v -0.0999999 2.4 0.4
v -0.0999999 2.4 0.3
v -0.0999999 2.5 0.4
v -0.0999999 2.5 0.3
v 0 0.4 0.4
v 0 0.4 0.3
v 0 0.5 0.4
v 0 0.5 0.3
v 0 2.3 0.4
v 0 2.3 0.3
v 0 2.4 0.4
v 0 2.4 0.3
v 0.1 1.1 0.4
v 0.1 1.1 0.3
v 0.1 1.2 0.4
v 0.1 1.2 0.3
v 0.2 0.5 0.4
v 0.2 0.5 0.3
v 0.2 0.7 0.4
v 0.2 0.7 0.3
v 0.2 0.8 0.4
v 0.2 0.8 0.3
v 0.2 1.1 0.4
v 0.2 1.1 0.3
v 0.2 2.1 0.4
v 0.2 2.1 0.3
v 0.2 2.3 0.4
v 0.2 2.3 0.3
v -1.3 0.5 0.4
v -1.3 0.7 0.4
v -1.3 0.8 0.4
v -1.3 1.1 0.4
v -1.2 0.5 0.4
v -1.2 0.7 0.4
v -1.2 0.8 0.4
v -1.2 1.1 0.4
v -1.2 1.2 0.4
v -1.1 0.4 0.4
v -1.1 0.5 0.4
v -1.1 0.6 0.4
v -1.1 0.7 0.4
v -1.1 0.8 0.4
v -1 0.3 0.4
v -1 0.4 0.4
v -1 0.5 0.4
v -1 0.6 0.4
v -1 1.1 0.4
v -1 1.2 0.4
v -1 1.3 0.4
v -0.9 0 0.4
v -0.9 0.1 0.4
v -0.9 1.2 0.4
v -0.9 1.3 0.4
v -0.9 1.6 0.4
v -0.9 1.8 0.4
v -0.9 2 0.4
v -0.9 2.2 0.4
v -0.8 0.1 0.4
v -0.8 0.3 0.4
v -0.8 1.1 0.4
v -0.8 1.2 0.4
v -0.8 1.3 0.4
v -0.8 1.5 0.4
v -0.8 1.6 0.4
v -0.8 1.8 0.4
v -0.8 1.9 0.4
v -0.8 2 0.4
v -0.8 2.1 0.4
v -0.8 2.2 0.4
v -0.8 2.3 0.4
v -0.7 0.1 0.4
v -0.7 0.3 0.4
v -0.7 0.5 0.4
v -0.7 0.6 0.4
v -0.7 0.7 0.4
v -0.7 0.8 0.4
v -0.7 1.3 0.4
v -0.7 1.4 0.4
v -0.7 1.7 0.4
v -0.7 1.8 0.4
v -0.7 1.9 0.4
v -0.7 2.2 0.4
v -0.7 2.3 0.4
v -0.7 2.4 0.4
v -0.6 0 0.4
v -0.6 0.1 0.4
v -0.6 0.3 0.4
v -0.6 0.4 0.4
v -0.6 0.5 0.4
v -0.6 0.6 0.4
v -0.6 0.7 0.4
v -0.6 0.8 0.4
v -0.6 1.1 0.4
v -0.6 1.7 0.4
v -0.6 1.8 0.4
v -0.6 1.9 0.4
v -0.6 2.3 0.4
v -0.6 2.4 0.4
v -0.6 2.5 0.4
v -0.5 0 0.4
v -0.5 0.1 0.4
v -0.5 0.3 0.4
v -0.5 0.4 0.4
v -0.5 0.5 0.4
v -0.5 0.6 0.4
v -0.5 0.7 0.4
v -0.5 0.8 0.4
v -0.5 1.1 0.4
v -0.5 1.7 0.4
v -0.5 1.8 0.4
v -0.5 1.9 0.4
v -0.5 2.4 0.4
v -0.5 2.5 0.4
v -0.5 2.6 0.4
v -0.4 0.1 0.4
v -0.4 0.3 0.4
v -0.4 0.5 0.4
v -0.4 0.6 0.4
v -0.4 0.7 0.4
v -0.4 0.8 0.4
v -0.4 1.3 0.4
v -0.4 1.4 0.4
v -0.4 1.7 0.4
v -0.4 1.8 0.4
v -0.4 1.9 0.4
v -0.4 2.5 0.4
v -0.4 2.6 0.4
v -0.3 0.1 0.4
v -0.3 0.3 0.4
v -0.3 1.1 0.4
v -0.3 1.2 0.4
v -0.3 1.3 0.4
v -0.3 1.5 0.4
v -0.3 1.6 0.4
v -0.3 1.8 0.4
v -0.3 1.9 0.4
v -0.3 2 0.4
v -0.3 2.1 0.4
v -0.3 2.2 0.4
v -0.3 2.4 0.4
v -0.2 0 0.4
v -0.2 0.1 0.4
v -0.2 1.2 0.4
v -0.2 1.3 0.4
v -0.2 1.6 0.4
v -0.2 1.8 0.4
v -0.2 2 0.4
v -0.2 2.2 0.4
v -0.2 2.5 0.4
v -0.2 2.6 0.4
v -0.0999999 0.3 0.4
v -0.0999999 0.4 0.4
v -0.0999999 0.5 0.4
v -0.0999999 0.6 0.4
v -0.0999999 1.1 0.4
v -0.0999999 1.2 0.4
v -0.0999999 1.3 0.4
v -0.0999999 2.3 0.4
v -0.0999999 2.4 0.4
v -0.0999999 2.5 0.4
v 0 0.4 0.4
v 0 0.5 0.4
v 0 0.6 0.4
v 0 0.7 0.4
v 0 0.8 0.4
v 0 2.1 0.4
v 0 2.3 0.4
v 0 2.4 0.4
v 0.1 0.5 0.4
v 0.1 0.7 0.4
v 0.1 0.8 0.4
v 0.1 1.1 0.4
v 0.1 1.2 0.4
v 0.2 0.5 0.4
v 0.2 0.7 0.4
v 0.2 0.8 0.4
v 0.2 1.1 0.4
v 0.2 2.1 0.4
v 0.2 2.3 0.4
v -1.3 0.5 0.3
v -1.3 0.7 0.3
v -1.3 0.8 0.3
v -1.3 1.1 0.3
v -1.2 0.5 0.3
v -1.2 0.7 0.3
v -1.2 0.8 0.3
v -1.2 1.1 0.3
v -1.2 1.2 0.3
v -1.1 0.4 0.3
v -1.1 0.5 0.3
v -1.1 0.6 0.3
v -1.1 0.7 0.3
v -1.1 0.8 0.3
v -1 0.3 0.3
v -1 0.4 0.3
v -1 0.5 0.3
v -1 0.6 0.3
v -1 1.1 0.3
v -1 1.2 0.3
v -1 1.3 0.3
v -0.9 0 0.3
v -0.9 0.1 0.3
v -0.9 1.2 0.3
v -0.9 1.3 0.3
v -0.9 1.6 0.3
v -0.9 1.8 0.3
v -0.9 2 0.3
v -0.9 2.2 0.3
v -0.8 0.1 0.3
v -0.8 0.3 0.3
v -0.8 1.1 0.3
v -0.8 1.2 0.3
v -0.8 1.3 0.3
v -0.8 1.5 0.3
v -0.8 1.6 0.3
v -0.8 1.8 0.3
v -0.8 1.9 0.3
v -0.8 2 0.3
v -0.8 2.1 0.3
v -0.8 2.2 0.3
v -0.8 2.3 0.3
v -0.7 0.1 0.3
v -0.7 0.3 0.3
v -0.7 0.5 0.3
v -0.7 0.6 0.3
v -0.7 0.7 0.3
v -0.7 0.8 0.3
v -0.7 1.3 0.3
v -0.7 1.4 0.3
v -0.7 1.7 0.3
v -0.7 1.8 0.3
v -0.7 1.9 0.3
v -0.7 2.2 0.3
v -0.7 2.3 0.3
v -0.7 2.4 0.3
v -0.6 0 0.3
v -0.6 0.1 0.3
v -0.6 0.3 0.3
v -0.6 0.4 0.3
v -0.6 0.5 0.3
v -0.6 0.6 0.3
v -0.6 0.7 0.3
v -0.6 0.8 0.3
v -0.6 1.1 0.3
v -0.6 1.7 0.3
v -0.6 1.8 0.3
v -0.6 1.9 0.3
v -0.6 2.3 0.3
v -0.6 2.4 0.3
v -0.6 2.5 0.3
v -0.5 0 0.3
v -0.5 0.1 0.3
v -0.5 0.3 0.3
v -0.5 0.4 0.3
v -0.5 0.5 0.3
v -0.5 0.6 0.3
v -0.5 0.7 0.3
v -0.5 0.8 0.3
v -0.5 1.1 0.3
v -0.5 1.7 0.3
v -0.5 1.8 0.3
v -0.5 1.9 0.3
v -0.5 2.4 0.3
v -0.5 2.5 0.3
v -0.5 2.6 0.3
v -0.4 0.1 0.3
v -0.4 0.3 0.3
v -0.4 0.5 0.3
v -0.4 0.6 0.3
v -0.4 0.7 0.3
v -0.4 0.8 0.3
v -0.4 1.3 0.3
v -0.4 1.4 0.3
v -0.4 1.7 0.3
v -0.4 1.8 0.3
v -0.4 1.9 0.3
v -0.4 2.5 0.3
v -0.4 2.6 0.3
v -0.3 0.1 0.3
v -0.3 0.3 0.3
v -0.3 1.1 0.3
v -0.3 1.2 0.3
v -0.3 1.3 0.3
v -0.3 1.5 0.3
v -0.3 1.6 0.3
v -0.3 1.8 0.3
v -0.3 1.9 0.3
v -0.3 2 0.3
v -0.3 2.1 0.3
v -0.3 2.2 0.3
v -0.3 2.4 0.3
v -0.2 0 0.3
v -0.2 0.1 0.3
v -0.2 1.2 0.3
v -0.2 1.3 0.3
v -0.2 1.6 0.3
v -0.2 1.8 0.3
v -0.2 2 0.3
v -0.2 2.2 0.3
v -0.2 2.5 0.3
v -0.2 2.6 0.3
v -0.0999999 0.3 0.3
v -0.0999999 0.4 0.3
v -0.0999999 0.5 0.3
v -0.0999999 0.6 0.3
v -0.0999999 1.1 0.3
v -0.0999999 1.2 0.3
v -0.0999999 1.3 0.3
v -0.0999999 2.3 0.3
v -0.0999999 2.4 0.3
v -0.0999999 2.5 0.3
v 0 0.4 0.3
v 0 0.5 0.3
v 0 0.6 0.3
v 0 0.7 0.3
v 0 0.8 0.3
v 0 2.1 0.3
v 0 2.3 0.3
v 0 2.4 0.3
v 0.1 0.5 0.3
v 0.1 0.7 0.3
v 0.1 0.8 0.3
v 0.1 1.1 0.3
v 0.1 1.2 0.3
v 0.2 0.5 0.3
v 0.2 0.7 0.3
v 0.2 0.8 0.3
v 0.2 1.1 0.3
v 0.2 2.1 0.3
v 0.2 2.3 0.3
v -0.9 0 0.4
v -0.6 0 0.4
v -0.5 0 0.4
v -0.2 0 0.4
v -0.9 0 0.3
v -0.6 0 0.3
v -0.5 0 0.3
v -0.2 0 0.3
v -1 0.3 0.4
v -0.8 0.3 0.4
v -0.6 0.3 0.4
v -0.5 0.3 0.4
v -0.3 0.3 0.4
v -0.0999999 0.3 0.4
v -1 0.3 0.3
v -0.8 0.3 0.3
v -0.6 0.3 0.3
v -0.5 0.3 0.3
v -0.3 0.3 0.3
v -0.0999999 0.3 0.3
v -1.1 0.4 0.4
v -1 0.4 0.4
v -0.0999999 0.4 0.4
v 0 0.4 0.4
v -1.1 0.4 0.3
v -1 0.4 0.3
v -0.0999999 0.4 0.3
v 0 0.4 0.3
v -1.3 0.5 0.4
v -1.2 0.5 0.4
v -1.1 0.5 0.4
v 0 0.5 0.4
v 0.1 0.5 0.4
v 0.2 0.5 0.4
v -1.3 0.5 0.3
v -1.2 0.5 0.3
v -1.1 0.5 0.3
v 0 0.5 0.3
v 0.1 0.5 0.3
v 0.2 0.5 0.3
v -0.9 1.8 0.4
v -0.8 1.8 0.4
v -0.3 1.8 0.4
v -0.2 1.8 0.4
v -0.9 1.8 0.3
v -0.8 1.8 0.3
v -0.3 1.8 0.3
v -0.2 1.8 0.3
v 0 2.1 0.4
v 0.2 2.1 0.4
v 0 2.1 0.3
v 0.2 2.1 0.3
v -0.0999999 2.3 0.4
v 0 2.3 0.4
v -0.0999999 2.3 0.3
v 0 2.3 0.3
v -0.3 2.4 0.4
v -0.0999999 2.4 0.4
v -0.3 2.4 0.3
v -0.0999999 2.4 0.3
v -0.9 0.1 0.4
v -0.8 0.1 0.4
v -0.3 0.1 0.4
v -0.2 0.1 0.4
v -0.9 0.1 0.3
v -0.8 0.1 0.3
v -0.3 0.1 0.3
v -0.2 0.1 0.3
v -1.3 1.1 0.4
v -1.2 1.1 0.4
v 0.1 1.1 0.4
v 0.2 1.1 0.4
v -1.3 1.1 0.3
v -1.2 1.1 0.3
v 0.1 1.1 0.3
v 0.2 1.1 0.3
v -1.2 1.2 0.4
v -1 1.2 0.4
v -0.0999999 1.2 0.4
v 0.1 1.2 0.4
v -1.2 1.2 0.3
v -1 1.2 0.3
v -0.0999999 1.2 0.3
v 0.1 1.2 0.3
v -1 1.3 0.4
v -0.9 1.3 0.4
v -0.2 1.3 0.4
v -0.0999999 1.3 0.4
v -1 1.3 0.3
v -0.9 1.3 0.3
v -0.2 1.3 0.3
v -0.0999999 1.3 0.3
v -0.9 1.6 0.4
v -0.8 1.6 0.4
v -0.3 1.6 0.4
v -0.2 1.6 0.4
v -0.9 1.6 0.3
v -0.8 1.6 0.3
v -0.3 1.6 0.3
v -0.2 1.6 0.3
v -0.9 2.2 0.4
v -0.8 2.2 0.4
v -0.3 2.2 0.4
v -0.2 2.2 0.4
v -0.9 2.2 0.3
v -0.8 2.2 0.3
v -0.3 2.2 0.3
v -0.2 2.2 0.3
v -0.8 2.3 0.4
v -0.7 2.3 0.4
v 0 2.3 0.4
v 0.2 2.3 0.4
v -0.8 2.3 0.3
v -0.7 2.3 0.3
v 0 2.3 0.3
v 0.2 2.3 0.3
v -0.7 2.4 0.4
v -0.6 2.4 0.4
v -0.0999999 2.4 0.4
v 0 2.4 0.4
v -0.7 2.4 0.3
v -0.6 2.4 0.3
v -0.0999999 2.4 0.3
v 0 2.4 0.3
v -0.6 2.5 0.4
v -0.5 2.5 0.4
v -0.2 2.5 0.4
v -0.0999999 2.5 0.4
v -0.6 2.5 0.3
v -0.5 2.5 0.3
v -0.2 2.5 0.3
v -0.0999999 2.5 0.3
v -0.5 2.6 0.4
v -0.4 2.6 0.4
v -0.2 2.6 0.4
v -0.5 2.6 0.3
v -0.4 2.6 0.3
v -0.2 2.6 0.3

# faces
f 3/5/1 2/5/1 1/5/1
f 4/5/1 2/5/1 3/5/1
f 5/1/1 4/1/1 3/1/1
f 6/1/1 4/1/1 5/1/1
f 7/7/1 6/7/1 5/7/1
f 8/7/1 6/7/1 7/7/1
f 11/7/1 10/7/1 9/7/1
f 12/7/1 10/7/1 11/7/1
f 15/1/1 14/1/1 13/1/1
f 16/1/1 14/1/1 15/1/1
f 19/1/1 18/1/1 17/1/1
f 20/1/1 18/1/1 19/1/1
f 23/7/1 22/7/1 21/7/1
f 24/7/1 22/7/1 23/7/1
f 27/12/1 26/12/1 25/12/1
f 28/12/1 26/12/1 27/12/1
f 31/8/1 30/8/1 29/8/1
f 32/8/1 30/8/1 31/8/1
f 35/8/1 34/8/1 33/8/1
f 36/8/1 34/8/1 35/8/1
f 37/1/1 36/1/1 35/1/1
f 38/1/1 36/1/1 37/1/1
f 41/7/1 40/7/1 39/7/1
f 42/7/1 40/7/1 41/7/1
f 45/4/1 44/4/1 43/4/1
f 46/4/1 44/4/1 45/4/1
f 49/7/1 48/7/1 47/7/1
f 50/7/1 48/7/1 49/7/1
f 53/7/1 52/7/1 51/7/1
f 54/7/1 52/7/1 53/7/1
f 57/7/1 56/7/1 55/7/1
f 58/7/1 56/7/1 57/7/1
f 61/12/1 60/12/1 59/12/1
f 62/12/1 60/12/1 61/12/1
f 63/6/1 62/6/1 61/6/1
f 64/6/1 62/6/1 63/6/1
f 67/7/1 66/7/1 65/7/1
f 68/7/1 66/7/1 67/7/1
f 71/6/1 70/6/1 69/6/1
f 72/6/1 70/6/1 71/6/1
f 75/1/1 74/1/1 73/1/1
f 76/1/1 74/1/1 75/1/1
f 77/12/2 78/12/2 79/12/2
f 79/12/2 78/12/2 80/12/2
f 79/6/2 80/6/2 81/6/2
f 81/6/2 80/6/2 82/6/2
f 83/7/2 84/7/2 85/7/2
f 85/7/2 84/7/2 86/7/2
f 87/4/2 88/4/2 89/4/2
f 89/4/2 88/4/2 90/4/2
f 91/6/2 92/6/2 93/6/2
f 93/6/2 92/6/2 94/6/2
f 95/12/2 96/12/2 97/12/2
f 97/12/2 96/12/2 98/12/2
f 99/8/2 100/8/2 101/8/2
f 101/8/2 100/8/2 102/8/2
f 103/8/2 104/8/2 105/8/2
f 105/8/2 104/8/2 106/8/2
f 105/1/2 106/1/2 107/1/2
f 107/1/2 106/1/2 108/1/2
f 109/6/2 110/6/2 111/6/2
f 111/6/2 110/6/2 112/6/2
f 113/1/2 114/1/2 115/1/2
f 115/1/2 114/1/2 116/1/2
f 117/7/2 118/7/2 119/7/2
f 119/7/2 118/7/2 120/7/2
f 121/6/2 122/6/2 123/6/2
f 123/6/2 122/6/2 124/6/2
f 125/1/2 126/1/2 127/1/2
f 127/1/2 126/1/2 128/1/2
f 129/6/2 130/6/2 131/6/2
f 131/6/2 130/6/2 132/6/2
f 133/7/2 134/7/2 135/7/2
f 135/7/2 134/7/2 136/7/2
f 137/5/2 138/5/2 139/5/2
f 139/5/2 138/5/2 140/5/2
f 139/1/2 140/1/2 141/1/2
f 141/1/2 140/1/2 142/1/2
f 141/7/2 142/7/2 143/7/2
f 143/7/2 142/7/2 144/7/2
f 145/1/2 146/1/2 147/1/2
f 147/1/2 146/1/2 148/1/2
f 153/5/3 150/5/3 149/5/3
f 154/1/3 151/1/3 150/1/3
f 154/5/3 150/5/3 153/5/3
f 155/7/3 152/7/3 151/7/3
f 155/1/3 151/1/3 154/1/3
f 156/7/3 152/7/3 155/7/3
f 159/4/3 154/4/3 153/4/3
f 160/4/3 154/4/3 159/4/3
f 161/1/3 155/1/3 154/1/3
f 161/4/3 154/4/3 160/4/3
f 162/6/3 156/6/3 155/6/3
f 162/1/3 155/1/3 161/1/3
f 164/1/3 159/1/3 158/1/3
f 165/7/3 160/7/3 159/7/3
f 165/1/3 159/1/3 164/1/3
f 166/12/3 161/12/3 160/12/3
f 166/7/3 160/7/3 165/7/3
f 167/7/3 157/7/3 156/7/3
f 167/6/3 156/6/3 162/6/3
f 167/6/3 162/6/3 161/6/3
f 168/7/3 157/7/3 167/7/3
f 172/6/3 168/6/3 167/6/3
f 172/7/3 169/7/3 168/7/3
f 173/7/3 169/7/3 172/7/3
f 178/12/3 171/12/3 170/12/3
f 179/1/3 164/1/3 163/1/3
f 180/6/3 167/6/3 161/6/3
f 180/6/3 172/6/3 167/6/3
f 181/9/3 173/9/3 172/9/3
f 181/6/3 172/6/3 180/6/3
f 182/8/3 174/8/3 173/8/3
f 182/9/3 173/9/3 181/9/3
f 183/8/3 174/8/3 182/8/3
f 184/8/3 174/8/3 183/8/3
f 185/8/3 176/8/3 175/8/3
f 186/8/3 176/8/3 185/8/3
f 187/1/3 177/1/3 176/1/3
f 187/8/3 176/8/3 186/8/3
f 188/1/3 177/1/3 187/1/3
f 189/1/3 177/1/3 188/1/3
f 191/12/3 178/12/3 170/12/3
f 191/7/3 179/7/3 178/7/3
f 192/1/3 164/1/3 179/1/3
f 192/7/3 179/7/3 191/7/3
f 193/6/3 165/6/3 164/6/3
f 193/6/3 166/6/3 165/6/3
f 194/12/3 161/12/3 166/12/3
f 194/6/3 166/6/3 193/6/3
f 195/6/3 180/6/3 161/6/3
f 195/12/3 161/12/3 194/12/3
f 196/6/3 180/6/3 195/6/3
f 197/8/3 182/8/3 181/8/3
f 197/8/3 183/8/3 182/8/3
f 198/8/3 183/8/3 197/8/3
f 199/4/3 184/4/3 183/4/3
f 199/4/3 185/4/3 184/4/3
f 200/10/3 186/10/3 185/10/3
f 200/4/3 185/4/3 199/4/3
f 201/4/3 187/4/3 186/4/3
f 201/10/3 186/10/3 200/10/3
f 202/7/3 190/7/3 189/7/3
f 202/1/3 189/1/3 188/1/3
f 203/7/3 190/7/3 202/7/3
f 205/12/3 191/12/3 170/12/3
f 206/6/3 192/6/3 191/6/3
f 206/12/3 191/12/3 205/12/3
f 207/1/3 164/1/3 192/1/3
f 207/6/3 192/6/3 206/6/3
f 208/6/3 193/6/3 164/6/3
f 208/1/3 164/1/3 207/1/3
f 209/3/3 194/3/3 193/3/3
f 209/6/3 193/6/3 208/6/3
f 209/3/3 195/3/3 194/3/3
f 210/3/3 195/3/3 209/3/3
f 211/2/3 196/2/3 195/2/3
f 211/3/3 195/3/3 210/3/3
f 212/6/3 180/6/3 196/6/3
f 212/2/3 196/2/3 211/2/3
f 213/9/3 181/9/3 180/9/3
f 213/6/3 180/6/3 212/6/3
f 214/4/3 199/4/3 183/4/3
f 214/12/3 200/12/3 199/12/3
f 215/11/3 201/11/3 200/11/3
f 215/12/3 200/12/3 214/12/3
f 216/4/3 187/4/3 201/4/3
f 216/11/3 201/11/3 215/11/3
f 217/7/3 204/7/3 203/7/3
f 217/6/3 203/6/3 202/6/3
f 218/7/3 204/7/3 217/7/3
f 222/1/3 208/1/3 207/1/3
f 222/1/3 209/1/3 208/1/3
f 223/1/3 209/1/3 222/1/3
f 224/3/3 210/3/3 209/3/3
f 224/1/3 209/1/3 223/1/3
f 225/12/3 211/12/3 210/12/3
f 225/3/3 210/3/3 224/3/3
f 226/2/3 212/2/3 211/2/3
f 226/12/3 211/12/3 225/12/3
f 227/1/3 213/1/3 212/1/3
f 227/2/3 212/2/3 226/2/3
f 228/9/3 181/9/3 213/9/3
f 228/1/3 213/1/3 227/1/3
f 229/4/3 215/4/3 214/4/3
f 229/4/3 214/4/3 183/4/3
f 229/4/3 216/4/3 215/4/3
f 230/4/3 216/4/3 229/4/3
f 231/4/3 187/4/3 216/4/3
f 231/4/3 216/4/3 230/4/3
f 232/7/3 219/7/3 218/7/3
f 232/6/3 218/6/3 217/6/3
f 233/7/3 219/7/3 232/7/3
f 235/12/3 221/12/3 220/12/3
f 235/6/3 222/6/3 221/6/3
f 236/1/3 223/1/3 222/1/3
f 236/6/3 222/6/3 235/6/3
f 237/3/3 225/3/3 224/3/3
f 237/6/3 224/6/3 223/6/3
f 237/3/3 226/3/3 225/3/3
f 238/3/3 226/3/3 237/3/3
f 239/2/3 227/2/3 226/2/3
f 239/3/3 226/3/3 238/3/3
f 240/6/3 228/6/3 227/6/3
f 240/2/3 227/2/3 239/2/3
f 241/4/3 198/4/3 197/4/3
f 241/8/3 197/8/3 181/8/3
f 242/8/3 183/8/3 198/8/3
f 242/4/3 198/4/3 241/4/3
f 243/12/3 230/12/3 229/12/3
f 243/4/3 229/4/3 183/4/3
f 244/11/3 231/11/3 230/11/3
f 244/12/3 230/12/3 243/12/3
f 245/4/3 187/4/3 231/4/3
f 245/11/3 231/11/3 244/11/3
f 246/7/3 234/7/3 233/7/3
f 246/6/3 233/6/3 232/6/3
f 247/7/3 234/7/3 246/7/3
f 248/7/3 236/7/3 235/7/3
f 248/12/3 235/12/3 220/12/3
f 249/1/3 223/1/3 236/1/3
f 249/7/3 236/7/3 248/7/3
f 250/9/3 181/9/3 228/9/3
f 250/6/3 228/6/3 240/6/3
f 250/6/3 240/6/3 239/6/3
f 251/8/3 241/8/3 181/8/3
f 251/9/3 181/9/3 250/9/3
f 251/8/3 242/8/3 241/8/3
f 252/8/3 242/8/3 251/8/3
f 253/4/3 244/4/3 243/4/3
f 253/8/3 242/8/3 252/8/3
f 253/4/3 243/4/3 183/4/3
f 253/8/3 183/8/3 242/8/3
f 254/4/3 244/4/3 253/4/3
f 255/10/3 245/10/3 244/10/3
f 255/4/3 244/4/3 254/4/3
f 256/4/3 187/4/3 245/4/3
f 256/10/3 245/10/3 255/10/3
f 257/8/3 188/8/3 187/8/3
f 257/4/3 187/4/3 256/4/3
f 258/1/3 202/1/3 188/1/3
f 258/8/3 188/8/3 257/8/3
f 259/6/3 247/6/3 246/6/3
f 259/1/3 202/1/3 258/1/3
f 259/6/3 232/6/3 217/6/3
f 259/6/3 246/6/3 232/6/3
f 259/6/3 217/6/3 202/6/3
f 260/6/3 247/6/3 259/6/3
f 261/12/3 248/12/3 220/12/3
f 262/12/3 248/12/3 261/12/3
f 263/9/3 252/9/3 251/9/3
f 263/6/3 251/6/3 250/6/3
f 264/8/3 253/8/3 252/8/3
f 264/9/3 252/9/3 263/9/3
f 264/8/3 254/8/3 253/8/3
f 265/8/3 254/8/3 264/8/3
f 266/8/3 257/8/3 256/8/3
f 266/8/3 256/8/3 255/8/3
f 267/1/3 259/1/3 258/1/3
f 267/8/3 257/8/3 266/8/3
f 267/1/3 258/1/3 257/1/3
f 268/1/3 259/1/3 267/1/3
f 269/6/3 247/6/3 260/6/3
f 270/6/3 247/6/3 269/6/3
f 271/1/3 223/1/3 249/1/3
f 272/6/3 238/6/3 237/6/3
f 272/1/3 223/1/3 271/1/3
f 272/6/3 237/6/3 223/6/3
f 273/6/3 238/6/3 272/6/3
f 274/12/3 239/12/3 238/12/3
f 274/6/3 238/6/3 273/6/3
f 275/6/3 263/6/3 250/6/3
f 275/6/3 250/6/3 239/6/3
f 276/7/3 264/7/3 263/7/3
f 276/6/3 263/6/3 275/6/3
f 277/7/3 264/7/3 276/7/3
f 279/6/3 269/6/3 260/6/3
f 280/6/3 269/6/3 279/6/3
f 281/1/3 273/1/3 272/1/3
f 282/7/3 274/7/3 273/7/3
f 282/1/3 273/1/3 281/1/3
f 283/12/3 239/12/3 274/12/3
f 283/7/3 274/7/3 282/7/3
f 284/6/3 275/6/3 239/6/3
f 284/12/3 239/12/3 283/12/3
f 285/6/3 275/6/3 284/6/3
f 287/6/3 279/6/3 278/6/3
f 288/6/3 279/6/3 287/6/3
f 289/4/3 283/4/3 282/4/3
f 289/4/3 284/4/3 283/4/3
f 290/1/3 285/1/3 284/1/3
f 290/4/3 284/4/3 289/4/3
f 291/6/3 275/6/3 285/6/3
f 291/1/3 285/1/3 290/1/3
f 292/7/3 276/7/3 275/7/3
f 292/6/3 275/6/3 291/6/3
f 293/7/3 276/7/3 292/7/3
f 294/5/3 290/5/3 289/5/3
f 295/1/3 291/1/3 290/1/3
f 295/5/3 290/5/3 294/5/3
f 296/7/3 292/7/3 291/7/3
f 296/1/3 291/1/3 295/1/3
f 297/7/3 292/7/3 296/7/3
f 298/1/3 287/1/3 286/1/3
f 299/1/3 287/1/3 298/1/3
f 300/5/4 301/5/4 304/5/4
f 301/1/4 302/1/4 305/1/4
f 304/5/4 301/5/4 305/5/4
f 302/7/4 303/7/4 306/7/4
f 305/1/4 302/1/4 306/1/4
f 306/7/4 303/7/4 307/7/4
f 304/4/4 305/4/4 310/4/4
f 310/4/4 305/4/4 311/4/4
f 305/1/4 306/1/4 312/1/4
f 311/4/4 305/4/4 312/4/4
f 306/6/4 307/6/4 313/6/4
f 312/1/4 306/1/4 313/1/4
f 309/1/4 310/1/4 315/1/4
f 310/7/4 311/7/4 316/7/4
f 315/1/4 310/1/4 316/1/4
f 311/12/4 312/12/4 317/12/4
f 316/7/4 311/7/4 317/7/4
f 307/7/4 308/7/4 318/7/4
f 313/6/4 307/6/4 318/6/4
f 312/6/4 313/6/4 318/6/4
f 318/7/4 308/7/4 319/7/4
f 318/6/4 319/6/4 323/6/4
f 319/7/4 320/7/4 323/7/4
f 323/7/4 320/7/4 324/7/4
f 321/12/4 322/12/4 329/12/4
f 314/1/4 315/1/4 330/1/4
f 312/6/4 318/6/4 331/6/4
f 318/6/4 323/6/4 331/6/4
f 323/9/4 324/9/4 332/9/4
f 331/6/4 323/6/4 332/6/4
f 324/8/4 325/8/4 333/8/4
f 332/9/4 324/9/4 333/9/4
f 333/8/4 325/8/4 334/8/4
f 334/8/4 325/8/4 335/8/4
f 326/8/4 327/8/4 336/8/4
f 336/8/4 327/8/4 337/8/4
f 327/1/4 328/1/4 338/1/4
f 337/8/4 327/8/4 338/8/4
f 338/1/4 328/1/4 339/1/4
f 339/1/4 328/1/4 340/1/4
f 321/12/4 329/12/4 342/12/4
f 329/7/4 330/7/4 342/7/4
f 330/1/4 315/1/4 343/1/4
f 342/7/4 330/7/4 343/7/4
f 315/6/4 316/6/4 344/6/4
f 316/6/4 317/6/4 344/6/4
f 317/12/4 312/12/4 345/12/4
f 344/6/4 317/6/4 345/6/4
f 312/6/4 331/6/4 346/6/4
f 345/12/4 312/12/4 346/12/4
f 346/6/4 331/6/4 347/6/4
f 332/8/4 333/8/4 348/8/4
f 333/8/4 334/8/4 348/8/4
f 348/8/4 334/8/4 349/8/4
f 334/4/4 335/4/4 350/4/4
f 335/4/4 336/4/4 350/4/4
f 336/10/4 337/10/4 351/10/4
f 350/4/4 336/4/4 351/4/4
f 337/4/4 338/4/4 352/4/4
f 351/10/4 337/10/4 352/10/4
f 340/7/4 341/7/4 353/7/4
f 339/1/4 340/1/4 353/1/4
f 353/7/4 341/7/4 354/7/4
f 321/12/4 342/12/4 356/12/4
f 342/6/4 343/6/4 357/6/4
f 356/12/4 342/12/4 357/12/4
f 343/1/4 315/1/4 358/1/4
f 357/6/4 343/6/4 358/6/4
f 315/6/4 344/6/4 359/6/4
f 358/1/4 315/1/4 359/1/4
f 344/3/4 345/3/4 360/3/4
f 359/6/4 344/6/4 360/6/4
f 345/3/4 346/3/4 360/3/4
f 360/3/4 346/3/4 361/3/4
f 346/2/4 347/2/4 362/2/4
f 361/3/4 346/3/4 362/3/4
f 347/6/4 331/6/4 363/6/4
f 362/2/4 347/2/4 363/2/4
f 331/9/4 332/9/4 364/9/4
f 363/6/4 331/6/4 364/6/4
f 334/4/4 350/4/4 365/4/4
f 350/12/4 351/12/4 365/12/4
f 351/11/4 352/11/4 366/11/4
f 365/12/4 351/12/4 366/12/4
f 352/4/4 338/4/4 367/4/4
f 366/11/4 352/11/4 367/11/4
f 354/7/4 355/7/4 368/7/4
f 353/6/4 354/6/4 368/6/4
f 368/7/4 355/7/4 369/7/4
f 358/1/4 359/1/4 373/1/4
f 359/1/4 360/1/4 373/1/4
f 373/1/4 360/1/4 374/1/4
f 360/3/4 361/3/4 375/3/4
f 374/1/4 360/1/4 375/1/4
f 361/12/4 362/12/4 376/12/4
f 375/3/4 361/3/4 376/3/4
f 362/2/4 363/2/4 377/2/4
f 376/12/4 362/12/4 377/12/4
f 363/1/4 364/1/4 378/1/4
f 377/2/4 363/2/4 378/2/4
f 364/9/4 332/9/4 379/9/4
f 378/1/4 364/1/4 379/1/4
f 365/4/4 366/4/4 380/4/4
f 334/4/4 365/4/4 380/4/4
f 366/4/4 367/4/4 380/4/4
f 380/4/4 367/4/4 381/4/4
f 367/4/4 338/4/4 382/4/4
f 381/4/4 367/4/4 382/4/4
f 369/7/4 370/7/4 383/7/4
f 368/6/4 369/6/4 383/6/4
f 383/7/4 370/7/4 384/7/4
f 371/12/4 372/12/4 386/12/4
f 372/6/4 373/6/4 386/6/4
f 373/1/4 374/1/4 387/1/4
f 386/6/4 373/6/4 387/6/4
f 375/3/4 376/3/4 388/3/4
f 374/6/4 375/6/4 388/6/4
f 376/3/4 377/3/4 388/3/4
f 388/3/4 377/3/4 389/3/4
f 377/2/4 378/2/4 390/2/4
f 389/3/4 377/3/4 390/3/4
f 378/6/4 379/6/4 391/6/4
f 390/2/4 378/2/4 391/2/4
f 348/4/4 349/4/4 392/4/4
f 332/8/4 348/8/4 392/8/4
f 349/8/4 334/8/4 393/8/4
f 392/4/4 349/4/4 393/4/4
f 380/12/4 381/12/4 394/12/4
f 334/4/4 380/4/4 394/4/4
f 381/11/4 382/11/4 395/11/4
f 394/12/4 381/12/4 395/12/4
f 382/4/4 338/4/4 396/4/4
f 395/11/4 382/11/4 396/11/4
f 384/7/4 385/7/4 397/7/4
f 383/6/4 384/6/4 397/6/4
f 397/7/4 385/7/4 398/7/4
f 386/7/4 387/7/4 399/7/4
f 371/12/4 386/12/4 399/12/4
f 387/1/4 374/1/4 400/1/4
f 399/7/4 387/7/4 400/7/4
f 379/9/4 332/9/4 401/9/4
f 391/6/4 379/6/4 401/6/4
f 390/6/4 391/6/4 401/6/4
f 332/8/4 392/8/4 402/8/4
f 401/9/4 332/9/4 402/9/4
f 392/8/4 393/8/4 402/8/4
f 402/8/4 393/8/4 403/8/4
f 394/4/4 395/4/4 404/4/4
f 403/8/4 393/8/4 404/8/4
f 334/4/4 394/4/4 404/4/4
f 393/8/4 334/8/4 404/8/4
f 404/4/4 395/4/4 405/4/4
f 395/10/4 396/10/4 406/10/4
f 405/4/4 395/4/4 406/4/4
f 396/4/4 338/4/4 407/4/4
f 406/10/4 396/10/4 407/10/4
f 338/8/4 339/8/4 408/8/4
f 407/4/4 338/4/4 408/4/4
f 339/1/4 353/1/4 409/1/4
f 408/8/4 339/8/4 409/8/4
f 397/6/4 398/6/4 410/6/4
f 409/1/4 353/1/4 410/1/4
f 368/6/4 383/6/4 410/6/4
f 383/6/4 397/6/4 410/6/4
f 353/6/4 368/6/4 410/6/4
f 410/6/4 398/6/4 411/6/4
f 371/12/4 399/12/4 412/12/4
f 412/12/4 399/12/4 413/12/4
f 402/9/4 403/9/4 414/9/4
f 401/6/4 402/6/4 414/6/4
f 403/8/4 404/8/4 415/8/4
f 414/9/4 403/9/4 415/9/4
f 404/8/4 405/8/4 415/8/4
f 415/8/4 405/8/4 416/8/4
f 407/8/4 408/8/4 417/8/4
f 406/8/4 407/8/4 417/8/4
f 409/1/4 410/1/4 418/1/4
f 417/8/4 408/8/4 418/8/4
f 408/1/4 409/1/4 418/1/4
f 418/1/4 410/1/4 419/1/4
f 411/6/4 398/6/4 420/6/4
f 420/6/4 398/6/4 421/6/4
f 400/1/4 374/1/4 422/1/4
f 388/6/4 389/6/4 423/6/4
f 422/1/4 374/1/4 423/1/4
f 374/6/4 388/6/4 423/6/4
f 423/6/4 389/6/4 424/6/4
f 389/12/4 390/12/4 425/12/4
f 424/6/4 389/6/4 425/6/4
f 401/6/4 414/6/4 426/6/4
f 390/6/4 401/6/4 426/6/4
f 414/7/4 415/7/4 427/7/4
f 426/6/4 414/6/4 427/6/4
f 427/7/4 415/7/4 428/7/4
f 411/6/4 420/6/4 430/6/4
f 430/6/4 420/6/4 431/6/4
f 423/1/4 424/1/4 432/1/4
f 424/7/4 425/7/4 433/7/4
f 432/1/4 424/1/4 433/1/4
f 425/12/4 390/12/4 434/12/4
f 433/7/4 425/7/4 434/7/4
f 390/6/4 426/6/4 435/6/4
f 434/12/4 390/12/4 435/12/4
f 435/6/4 426/6/4 436/6/4
f 429/6/4 430/6/4 438/6/4
f 438/6/4 430/6/4 439/6/4
f 433/4/4 434/4/4 440/4/4
f 434/4/4 435/4/4 440/4/4
f 435/1/4 436/1/4 441/1/4
f 440/4/4 435/4/4 441/4/4
f 436/6/4 426/6/4 442/6/4
f 441/1/4 436/1/4 442/1/4
f 426/7/4 427/7/4 443/7/4
f 442/6/4 426/6/4 443/6/4
f 443/7/4 427/7/4 444/7/4
f 440/5/4 441/5/4 445/5/4
f 441/1/4 442/1/4 446/1/4
f 445/5/4 441/5/4 446/5/4
f 442/7/4 443/7/4 447/7/4
f 446/1/4 442/1/4 447/1/4
f 447/7/4 443/7/4 448/7/4
f 437/1/4 438/1/4 449/1/4
f 449/1/4 438/1/4 450/1/4
f 455/12/5 452/12/5 451/12/5
f 456/12/5 452/12/5 455/12/5
f 457/12/5 454/12/5 453/12/5
f 458/12/5 454/12/5 457/12/5
f 465/1/5 460/1/5 459/1/5
f 466/1/5 460/1/5 465/1/5
f 467/1/5 462/1/5 461/1/5
f 468/1/5 462/1/5 467/1/5
f 469/1/5 464/1/5 463/1/5
f 470/1/5 464/1/5 469/1/5
f 475/1/5 472/1/5 471/1/5
f 476/1/5 472/1/5 475/1/5
f 477/1/5 474/1/5 473/1/5
f 478/1/5 474/1/5 477/1/5
f 485/5/5 480/5/5 479/5/5
f 486/4/5 481/4/5 480/4/5
f 486/5/5 480/5/5 485/5/5
f 487/4/5 481/4/5 486/4/5
f 488/4/5 483/4/5 482/4/5
f 489/5/5 484/5/5 483/5/5
f 489/4/5 483/4/5 488/4/5
f 490/5/5 484/5/5 489/5/5
f 495/8/5 492/8/5 491/8/5
f 496/8/5 492/8/5 495/8/5
f 497/8/5 494/8/5 493/8/5
f 498/8/5 494/8/5 497/8/5
f 501/1/5 500/1/5 499/1/5
f 502/1/5 500/1/5 501/1/5
f 505/6/5 504/6/5 503/6/5
f 506/6/5 504/6/5 505/6/5
f 509/6/5 508/6/5 507/6/5
f 510/6/5 508/6/5 509/6/5
f 511/12/6 512/12/6 515/12/6
f 515/12/6 512/12/6 516/12/6
f 513/12/6 514/12/6 517/12/6
f 517/12/6 514/12/6 518/12/6
f 519/7/6 520/7/6 523/7/6
f 523/7/6 520/7/6 524/7/6
f 521/7/6 522/7/6 525/7/6
f 525/7/6 522/7/6 526/7/6
f 527/7/6 528/7/6 531/7/6
f 531/7/6 528/7/6 532/7/6
f 529/7/6 530/7/6 533/7/6
f 533/7/6 530/7/6 534/7/6
f 535/7/6 536/7/6 539/7/6
f 539/7/6 536/7/6 540/7/6
f 537/7/6 538/7/6 541/7/6
f 541/7/6 538/7/6 542/7/6
f 543/8/6 544/8/6 547/8/6
f 547/8/6 544/8/6 548/8/6
f 545/8/6 546/8/6 549/8/6
f 549/8/6 546/8/6 550/8/6
f 551/1/6 552/1/6 555/1/6
f 555/1/6 552/1/6 556/1/6
f 553/1/6 554/1/6 557/1/6
f 557/1/6 554/1/6 558/1/6
f 559/7/6 560/7/6 563/7/6
f 563/7/6 560/7/6 564/7/6
f 561/1/6 562/1/6 565/1/6
f 565/1/6 562/1/6 566/1/6
f 567/7/6 568/7/6 571/7/6
f 571/7/6 568/7/6 572/7/6
f 569/6/6 570/6/6 573/6/6
f 573/6/6 570/6/6 574/6/6
f 575/7/6 576/7/6 579/7/6
f 579/7/6 576/7/6 580/7/6
f 577/6/6 578/6/6 581/6/6
f 581/6/6 578/6/6 582/6/6
f 583/7/6 584/7/6 586/7/6
f 584/6/6 585/6/6 587/6/6
f 586/7/6 584/7/6 587/7/6
f 587/6/6 585/6/6 588/6/6
