# MagicaVoxel @ Ephtracy

# group
o 

# material
mtllib дед бросок.mtl
usemtl palette

# normals
vn -1 0 0
vn 1 0 0
vn 0 0 1
vn 0 0 -1
vn 0 -1 0
vn 0 1 0

# texcoords
vt 0.0605469 0.5
vt 0.0878906 0.5
vt 0.419922 0.5
vt 0.853516 0.5
vt 0.865234 0.5
vt 0.947266 0.5
vt 0.951172 0.5
vt 0.955078 0.5
vt 0.958984 0.5
vt 0.970703 0.5
vt 0.974609 0.5
vt 0.978516 0.5
vt 0.990234 0.5
vt 0.994141 0.5

# verts
v -0.8 0 0.5
v -0.8 0 0.4
v -0.8 0.1 0.5
v -0.8 0.1 0.4
v -0.8 0.6 0.5
v -0.8 0.6 0.4
v -0.8 0.8 0.5
v -0.8 0.8 0.4
v -0.8 0.9 0.5
v -0.8 0.9 0.4
v -0.8 1 0.5
v -0.8 1 0.4
v -0.8 1.1 0.5
v -0.8 1.1 0.4
v -0.8 1.2 0.5
v -0.8 1.2 0.4
v -0.8 1.3 0.5
v -0.8 1.3 0.4
v -0.8 1.7 0.5
v -0.8 1.7 0.4
v -0.8 1.9 0.5
v -0.8 1.9 0.4
v -0.8 2.1 0.5
v -0.8 2.1 0.4
v -0.8 2.2 0.5
v -0.8 2.2 0.4
v -0.7 0.1 0.5
v -0.7 0.1 0.4
v -0.7 0.6 0.5
v -0.7 0.6 0.4
v -0.7 1.3 0.5
v -0.7 1.3 0.4
v -0.7 1.4 0.5
v -0.7 1.4 0.4
v -0.7 1.6 0.5
v -0.7 1.6 0.4
v -0.7 1.7 0.5
v -0.7 1.7 0.4
v -0.7 2.2 0.5
v -0.7 2.2 0.4
v -0.7 2.3 0.5
v -0.7 2.3 0.4
v -0.6 1.4 0.5
v -0.6 1.4 0.4
v -0.6 1.5 0.5
v -0.6 1.5 0.4
v -0.6 1.6 0.5
v -0.6 1.6 0.4
v -0.6 2.3 0.5
v -0.6 2.3 0.4
v -0.6 2.4 0.5
v -0.6 2.4 0.4
v -0.2 0.1 0.5
v -0.2 0.1 0.4
v -0.2 0.2 0.5
v -0.2 0.2 0.4
v -0.2 0.5 0.5
v -0.2 0.5 0.4
v -0.4 0 0.5
v -0.4 0 0.4
v -0.4 0.1 0.5
v -0.4 0.1 0.4
v -0.4 0.5 0.5
v -0.4 0.5 0.4
v 5.96046e-008 1.4 0.5
v 5.96046e-008 1.4 0.4
v 5.96046e-008 1.5 0.5
v 5.96046e-008 1.5 0.4
v 5.96046e-008 1.6 0.5
v 5.96046e-008 1.6 0.4
v 5.96046e-008 2.3 0.5
v 5.96046e-008 2.3 0.4
v 5.96046e-008 2.4 0.5
v 5.96046e-008 2.4 0.4
v 0.1 0.2 0.5
v 0.1 0.2 0.4
v 0.1 0.7 0.5
v 0.1 0.7 0.4
v 0.1 0.8 0.5
v 0.1 0.8 0.4
v 0.1 0.9 0.5
v 0.1 0.9 0.4
v 0.1 1.6 0.5
v 0.1 1.6 0.4
v 0.1 1.7 0.5
v 0.1 1.7 0.4
v 0.1 2.2 0.5
v 0.1 2.2 0.4
v 0.1 2.3 0.5
v 0.1 2.3 0.4
v 0.2 0.1 0.5
v 0.2 0.1 0.4
v 0.2 0.2 0.5
v 0.2 0.2 0.4
v 0.2 1.7 0.5
v 0.2 1.7 0.4
v 0.2 1.9 0.5
v 0.2 1.9 0.4
v 0.2 2.1 0.5
v 0.2 2.1 0.4
v 0.2 2.2 0.5
v 0.2 2.2 0.4
v 0.3 0.9 0.5
v 0.3 0.9 0.4
v 0.3 1 0.5
v 0.3 1 0.4
v 0.3 1.3 0.5
v 0.3 1.3 0.4
v 0.3 1.4 0.5
v 0.3 1.4 0.4
v 0.4 1 0.5
v 0.4 1 0.4
v 0.4 1.3 0.5
v 0.4 1.3 0.4
v -0.8 0 0.5
v -0.8 0.1 0.5
v -0.8 0.6 0.5
v -0.8 0.8 0.5
v -0.8 0.9 0.5
v -0.8 1 0.5
v -0.8 1.1 0.5
v -0.8 1.2 0.5
v -0.8 1.3 0.5
v -0.8 1.7 0.5
v -0.8 1.9 0.5
v -0.8 2.1 0.5
v -0.8 2.2 0.5
v -0.7 0.1 0.5
v -0.7 0.6 0.5
v -0.7 0.7 0.5
v -0.7 0.8 0.5
v -0.7 0.9 0.5
v -0.7 1 0.5
v -0.7 1.1 0.5
v -0.7 1.2 0.5
v -0.7 1.3 0.5
v -0.7 1.4 0.5
v -0.7 1.6 0.5
v -0.7 1.7 0.5
v -0.7 1.9 0.5
v -0.7 2.1 0.5
v -0.7 2.2 0.5
v -0.7 2.3 0.5
v -0.6 0.1 0.5
v -0.6 0.7 0.5
v -0.6 0.8 0.5
v -0.6 0.9 0.5
v -0.6 1 0.5
v -0.6 1.1 0.5
v -0.6 1.2 0.5
v -0.6 1.3 0.5
v -0.6 1.4 0.5
v -0.6 1.5 0.5
v -0.6 1.6 0.5
v -0.6 2 0.5
v -0.6 2.1 0.5
v -0.6 2.2 0.5
v -0.6 2.3 0.5
v -0.6 2.4 0.5
v -0.5 0.1 0.5
v -0.5 0.7 0.5
v -0.5 0.8 0.5
v -0.5 0.9 0.5
v -0.5 1 0.5
v -0.5 1.1 0.5
v -0.5 1.2 0.5
v -0.5 1.3 0.5
v -0.5 1.4 0.5
v -0.5 1.5 0.5
v -0.5 1.6 0.5
v -0.5 1.7 0.5
v -0.5 1.9 0.5
v -0.5 2 0.5
v -0.5 2.1 0.5
v -0.4 0 0.5
v -0.4 0.1 0.5
v -0.4 0.5 0.5
v -0.4 0.7 0.5
v -0.4 0.8 0.5
v -0.4 0.9 0.5
v -0.4 1 0.5
v -0.4 1.5 0.5
v -0.4 1.6 0.5
v -0.4 1.7 0.5
v -0.4 1.9 0.5
v -0.4 2 0.5
v -0.4 2.1 0.5
v -0.2 0.1 0.5
v -0.2 0.2 0.5
v -0.2 0.5 0.5
v -0.2 0.6 0.5
v -0.2 0.7 0.5
v -0.2 1.5 0.5
v -0.2 1.6 0.5
v -0.2 1.7 0.5
v -0.2 1.9 0.5
v -0.2 2 0.5
v -0.2 2.1 0.5
v -0.1 0.2 0.5
v -0.1 0.6 0.5
v -0.1 0.7 0.5
v -0.1 0.8 0.5
v -0.1 0.9 0.5
v -0.1 1 0.5
v -0.1 1.3 0.5
v -0.1 1.4 0.5
v -0.1 1.5 0.5
v -0.1 1.6 0.5
v -0.1 1.7 0.5
v -0.1 1.9 0.5
v -0.1 2 0.5
v -0.1 2.1 0.5
v 5.96046e-008 0.7 0.5
v 5.96046e-008 0.8 0.5
v 5.96046e-008 0.9 0.5
v 5.96046e-008 1 0.5
v 5.96046e-008 1.1 0.5
v 5.96046e-008 1.3 0.5
v 5.96046e-008 1.4 0.5
v 5.96046e-008 1.5 0.5
v 5.96046e-008 1.6 0.5
v 5.96046e-008 2 0.5
v 5.96046e-008 2.1 0.5
v 5.96046e-008 2.2 0.5
v 5.96046e-008 2.3 0.5
v 5.96046e-008 2.4 0.5
v 0.1 0.2 0.5
v 0.1 0.7 0.5
v 0.1 0.8 0.5
v 0.1 0.9 0.5
v 0.1 1.6 0.5
v 0.1 1.7 0.5
v 0.1 1.9 0.5
v 0.1 2.1 0.5
v 0.1 2.2 0.5
v 0.1 2.3 0.5
v 0.2 0.1 0.5
v 0.2 0.2 0.5
v 0.2 1.7 0.5
v 0.2 1.9 0.5
v 0.2 2.1 0.5
v 0.2 2.2 0.5
v 0.3 0.9 0.5
v 0.3 1 0.5
v 0.3 1.1 0.5
v 0.3 1.3 0.5
v 0.3 1.4 0.5
v 0.4 1 0.5
v 0.4 1.3 0.5
v -0.8 0 0.4
v -0.8 0.1 0.4
v -0.8 0.6 0.4
v -0.8 0.8 0.4
v -0.8 0.9 0.4
v -0.8 1 0.4
v -0.8 1.1 0.4
v -0.8 1.2 0.4
v -0.8 1.3 0.4
v -0.8 1.7 0.4
v -0.8 1.9 0.4
v -0.8 2.1 0.4
v -0.8 2.2 0.4
v -0.7 0.1 0.4
v -0.7 0.6 0.4
v -0.7 0.7 0.4
v -0.7 0.8 0.4
v -0.7 0.9 0.4
v -0.7 1 0.4
v -0.7 1.1 0.4
v -0.7 1.2 0.4
v -0.7 1.3 0.4
v -0.7 1.4 0.4
v -0.7 1.6 0.4
v -0.7 1.7 0.4
v -0.7 1.9 0.4
v -0.7 2.1 0.4
v -0.7 2.2 0.4
v -0.7 2.3 0.4
v -0.6 0.1 0.4
v -0.6 0.7 0.4
v -0.6 0.8 0.4
v -0.6 0.9 0.4
v -0.6 1 0.4
v -0.6 1.1 0.4
v -0.6 1.2 0.4
v -0.6 1.3 0.4
v -0.6 1.4 0.4
v -0.6 1.5 0.4
v -0.6 1.6 0.4
v -0.6 2 0.4
v -0.6 2.1 0.4
v -0.6 2.2 0.4
v -0.6 2.3 0.4
v -0.6 2.4 0.4
v -0.5 0.1 0.4
v -0.5 0.7 0.4
v -0.5 0.8 0.4
v -0.5 0.9 0.4
v -0.5 1 0.4
v -0.5 1.1 0.4
v -0.5 1.2 0.4
v -0.5 1.3 0.4
v -0.5 1.4 0.4
v -0.5 1.5 0.4
v -0.5 1.6 0.4
v -0.5 1.7 0.4
v -0.5 1.9 0.4
v -0.5 2 0.4
v -0.5 2.1 0.4
v -0.4 0 0.4
v -0.4 0.1 0.4
v -0.4 0.5 0.4
v -0.4 0.7 0.4
v -0.4 0.8 0.4
v -0.4 0.9 0.4
v -0.4 1 0.4
v -0.4 1.5 0.4
v -0.4 1.6 0.4
v -0.4 1.7 0.4
v -0.4 1.9 0.4
v -0.4 2 0.4
v -0.4 2.1 0.4
v -0.2 0.1 0.4
v -0.2 0.2 0.4
v -0.2 0.5 0.4
v -0.2 0.6 0.4
v -0.2 0.7 0.4
v -0.2 1.5 0.4
v -0.2 1.6 0.4
v -0.2 1.7 0.4
v -0.2 1.9 0.4
v -0.2 2 0.4
v -0.2 2.1 0.4
v -0.1 0.2 0.4
v -0.1 0.6 0.4
v -0.1 0.7 0.4
v -0.1 0.8 0.4
v -0.1 0.9 0.4
v -0.1 1 0.4
v -0.1 1.3 0.4
v -0.1 1.4 0.4
v -0.1 1.5 0.4
v -0.1 1.6 0.4
v -0.1 1.7 0.4
v -0.1 1.9 0.4
v -0.1 2 0.4
v -0.1 2.1 0.4
v 5.96046e-008 0.7 0.4
v 5.96046e-008 0.8 0.4
v 5.96046e-008 0.9 0.4
v 5.96046e-008 1 0.4
v 5.96046e-008 1.1 0.4
v 5.96046e-008 1.3 0.4
v 5.96046e-008 1.4 0.4
v 5.96046e-008 1.5 0.4
v 5.96046e-008 1.6 0.4
v 5.96046e-008 2 0.4
v 5.96046e-008 2.1 0.4
v 5.96046e-008 2.2 0.4
v 5.96046e-008 2.3 0.4
v 5.96046e-008 2.4 0.4
v 0.1 0.2 0.4
v 0.1 0.7 0.4
v 0.1 0.8 0.4
v 0.1 0.9 0.4
v 0.1 1.6 0.4
v 0.1 1.7 0.4
v 0.1 1.9 0.4
v 0.1 2.1 0.4
v 0.1 2.2 0.4
v 0.1 2.3 0.4
v 0.2 0.1 0.4
v 0.2 0.2 0.4
v 0.2 1.7 0.4
v 0.2 1.9 0.4
v 0.2 2.1 0.4
v 0.2 2.2 0.4
v 0.3 0.9 0.4
v 0.3 1 0.4
v 0.3 1.1 0.4
v 0.3 1.3 0.4
v 0.3 1.4 0.4
v 0.4 1 0.4
v 0.4 1.3 0.4
v -0.8 0 0.5
v -0.4 0 0.5
v -0.8 0 0.4
v -0.4 0 0.4
v -0.2 0.1 0.5
v 0.2 0.1 0.5
v -0.2 0.1 0.4
v 0.2 0.1 0.4
v -0.4 0.5 0.5
v -0.2 0.5 0.5
v -0.4 0.5 0.4
v -0.2 0.5 0.4
v -0.8 0.6 0.5
v -0.7 0.6 0.5
v -0.8 0.6 0.4
v -0.7 0.6 0.4
v 0.1 0.9 0.5
v 0.3 0.9 0.5
v 0.1 0.9 0.4
v 0.3 0.9 0.4
v 0.3 1 0.5
v 0.4 1 0.5
v 0.3 1 0.4
v 0.4 1 0.4
v -0.7 1.6 0.5
v -0.6 1.6 0.5
v 5.96046e-008 1.6 0.5
v 0.1 1.6 0.5
v -0.7 1.6 0.4
v -0.6 1.6 0.4
v 5.96046e-008 1.6 0.4
v 0.1 1.6 0.4
v -0.8 1.7 0.5
v -0.7 1.7 0.5
v 0.1 1.7 0.5
v 0.2 1.7 0.5
v -0.8 1.7 0.4
v -0.7 1.7 0.4
v 0.1 1.7 0.4
v 0.2 1.7 0.4
v -0.8 0.1 0.5
v -0.7 0.1 0.5
v -0.8 0.1 0.4
v -0.7 0.1 0.4
v 0.1 0.2 0.5
v 0.2 0.2 0.5
v 0.1 0.2 0.4
v 0.2 0.2 0.4
v -0.8 1.3 0.5
v -0.7 1.3 0.5
v 0.3 1.3 0.5
v 0.4 1.3 0.5
v -0.8 1.3 0.4
v -0.7 1.3 0.4
v 0.3 1.3 0.4
v 0.4 1.3 0.4
v -0.7 1.4 0.5
v -0.6 1.4 0.5
v 5.96046e-008 1.4 0.5
v 0.3 1.4 0.5
v -0.7 1.4 0.4
v -0.6 1.4 0.4
v 5.96046e-008 1.4 0.4
v 0.3 1.4 0.4
v -0.8 2.2 0.5
v -0.7 2.2 0.5
v 0.1 2.2 0.5
v 0.2 2.2 0.5
v -0.8 2.2 0.4
v -0.7 2.2 0.4
v 0.1 2.2 0.4
v 0.2 2.2 0.4
v -0.7 2.3 0.5
v -0.6 2.3 0.5
v 5.96046e-008 2.3 0.5
v 0.1 2.3 0.5
v -0.7 2.3 0.4
v -0.6 2.3 0.4
v 5.96046e-008 2.3 0.4
v 0.1 2.3 0.4
v -0.6 2.4 0.5
v 5.96046e-008 2.4 0.5
v -0.6 2.4 0.4
v 5.96046e-008 2.4 0.4

# faces
f 3/13/1 2/13/1 1/13/1
f 4/13/1 2/13/1 3/13/1
f 7/1/1 6/1/1 5/1/1
f 8/1/1 6/1/1 7/1/1
f 9/3/1 8/3/1 7/3/1
f 10/3/1 8/3/1 9/3/1
f 11/4/1 10/4/1 9/4/1
f 12/4/1 10/4/1 11/4/1
f 13/3/1 12/3/1 11/3/1
f 14/3/1 12/3/1 13/3/1
f 15/4/1 14/4/1 13/4/1
f 16/4/1 14/4/1 15/4/1
f 17/3/1 16/3/1 15/3/1
f 18/3/1 16/3/1 17/3/1
f 21/12/1 20/12/1 19/12/1
f 22/12/1 20/12/1 21/12/1
f 23/11/1 22/11/1 21/11/1
f 24/11/1 22/11/1 23/11/1
f 25/10/1 24/10/1 23/10/1
f 26/10/1 24/10/1 25/10/1
f 29/8/1 28/8/1 27/8/1
f 30/8/1 28/8/1 29/8/1
f 33/3/1 32/3/1 31/3/1
f 34/3/1 32/3/1 33/3/1
f 37/1/1 36/1/1 35/1/1
f 38/1/1 36/1/1 37/1/1
f 41/10/1 40/10/1 39/10/1
f 42/10/1 40/10/1 41/10/1
f 45/3/1 44/3/1 43/3/1
f 46/3/1 44/3/1 45/3/1
f 47/1/1 46/1/1 45/1/1
f 48/1/1 46/1/1 47/1/1
f 51/1/1 50/1/1 49/1/1
f 52/1/1 50/1/1 51/1/1
f 55/14/1 54/14/1 53/14/1
f 56/14/1 54/14/1 55/14/1
f 57/7/1 56/7/1 55/7/1
f 58/7/1 56/7/1 57/7/1
f 59/13/2 60/13/2 61/13/2
f 61/13/2 60/13/2 62/13/2
f 61/7/2 62/7/2 63/7/2
f 63/7/2 62/7/2 64/7/2
f 65/3/2 66/3/2 67/3/2
f 67/3/2 66/3/2 68/3/2
f 67/1/2 68/1/2 69/1/2
f 69/1/2 68/1/2 70/1/2
f 71/1/2 72/1/2 73/1/2
f 73/1/2 72/1/2 74/1/2
f 75/8/2 76/8/2 77/8/2
f 77/8/2 76/8/2 78/8/2
f 77/3/2 78/3/2 79/3/2
f 79/3/2 78/3/2 80/3/2
f 79/4/2 80/4/2 81/4/2
f 81/4/2 80/4/2 82/4/2
f 83/1/2 84/1/2 85/1/2
f 85/1/2 84/1/2 86/1/2
f 87/10/2 88/10/2 89/10/2
f 89/10/2 88/10/2 90/10/2
f 91/14/2 92/14/2 93/14/2
f 93/14/2 92/14/2 94/14/2
f 95/12/2 96/12/2 97/12/2
f 97/12/2 96/12/2 98/12/2
f 97/11/2 98/11/2 99/11/2
f 99/11/2 98/11/2 100/11/2
f 99/10/2 100/10/2 101/10/2
f 101/10/2 100/10/2 102/10/2
f 103/5/2 104/5/2 105/5/2
f 105/5/2 104/5/2 106/5/2
f 107/5/2 108/5/2 109/5/2
f 109/5/2 108/5/2 110/5/2
f 111/5/2 112/5/2 113/5/2
f 113/5/2 112/5/2 114/5/2
f 128/13/3 116/13/3 115/13/3
f 129/1/3 118/1/3 117/1/3
f 130/1/3 118/1/3 129/1/3
f 131/3/3 119/3/3 118/3/3
f 131/1/3 118/1/3 130/1/3
f 132/4/3 120/4/3 119/4/3
f 132/3/3 119/3/3 131/3/3
f 133/3/3 121/3/3 120/3/3
f 133/4/3 120/4/3 132/4/3
f 134/4/3 122/4/3 121/4/3
f 134/3/3 121/3/3 133/3/3
f 135/3/3 123/3/3 122/3/3
f 135/4/3 122/4/3 134/4/3
f 136/3/3 123/3/3 135/3/3
f 139/12/3 125/12/3 124/12/3
f 140/11/3 126/11/3 125/11/3
f 140/12/3 125/12/3 139/12/3
f 141/10/3 127/10/3 126/10/3
f 141/11/3 126/11/3 140/11/3
f 142/10/3 127/10/3 141/10/3
f 144/13/3 128/13/3 115/13/3
f 144/8/3 130/8/3 129/8/3
f 144/8/3 129/8/3 128/8/3
f 145/3/3 131/3/3 130/3/3
f 145/8/3 130/8/3 144/8/3
f 146/4/3 132/4/3 131/4/3
f 146/3/3 131/3/3 145/3/3
f 147/3/3 133/3/3 132/3/3
f 147/4/3 132/4/3 146/4/3
f 148/4/3 134/4/3 133/4/3
f 148/3/3 133/3/3 147/3/3
f 149/3/3 135/3/3 134/3/3
f 149/4/3 134/4/3 148/4/3
f 150/4/3 136/4/3 135/4/3
f 150/3/3 135/3/3 149/3/3
f 151/3/3 137/3/3 136/3/3
f 151/4/3 136/4/3 150/4/3
f 152/3/3 137/3/3 151/3/3
f 154/1/3 140/1/3 139/1/3
f 154/1/3 142/1/3 141/1/3
f 154/1/3 139/1/3 138/1/3
f 154/1/3 141/1/3 140/1/3
f 155/1/3 142/1/3 154/1/3
f 156/1/3 142/1/3 155/1/3
f 157/10/3 143/10/3 142/10/3
f 157/1/3 142/1/3 156/1/3
f 158/10/3 143/10/3 157/10/3
f 160/13/3 144/13/3 115/13/3
f 160/6/3 145/6/3 144/6/3
f 161/4/3 146/4/3 145/4/3
f 161/6/3 145/6/3 160/6/3
f 162/3/3 147/3/3 146/3/3
f 162/4/3 146/4/3 161/4/3
f 163/4/3 148/4/3 147/4/3
f 163/3/3 147/3/3 162/3/3
f 164/3/3 149/3/3 148/3/3
f 164/4/3 148/4/3 163/4/3
f 165/4/3 150/4/3 149/4/3
f 165/3/3 149/3/3 164/3/3
f 166/3/3 151/3/3 150/3/3
f 166/4/3 150/4/3 165/4/3
f 167/4/3 152/4/3 151/4/3
f 167/3/3 151/3/3 166/3/3
f 168/3/3 153/3/3 152/3/3
f 168/4/3 152/4/3 167/4/3
f 169/1/3 154/1/3 153/1/3
f 169/3/3 153/3/3 168/3/3
f 169/1/3 155/1/3 154/1/3
f 170/1/3 155/1/3 169/1/3
f 171/1/3 155/1/3 170/1/3
f 172/1/3 155/1/3 171/1/3
f 173/11/3 156/11/3 155/11/3
f 173/1/3 155/1/3 172/1/3
f 174/1/3 159/1/3 158/1/3
f 174/11/3 156/11/3 173/11/3
f 174/1/3 158/1/3 157/1/3
f 174/1/3 157/1/3 156/1/3
f 175/13/3 160/13/3 115/13/3
f 176/7/3 161/7/3 160/7/3
f 176/13/3 160/13/3 175/13/3
f 177/7/3 161/7/3 176/7/3
f 178/3/3 162/3/3 161/3/3
f 178/7/3 161/7/3 177/7/3
f 179/4/3 163/4/3 162/4/3
f 179/3/3 162/3/3 178/3/3
f 180/3/3 164/3/3 163/3/3
f 180/4/3 163/4/3 179/4/3
f 181/9/3 167/9/3 166/9/3
f 181/3/3 164/3/3 180/3/3
f 181/9/3 166/9/3 165/9/3
f 181/9/3 165/9/3 164/9/3
f 181/9/3 168/9/3 167/9/3
f 182/1/3 169/1/3 168/1/3
f 182/1/3 170/1/3 169/1/3
f 183/14/3 171/14/3 170/14/3
f 183/1/3 170/1/3 182/1/3
f 184/1/3 172/1/3 171/1/3
f 184/14/3 171/14/3 183/14/3
f 185/14/3 173/14/3 172/14/3
f 185/1/3 172/1/3 184/1/3
f 186/10/3 174/10/3 173/10/3
f 186/14/3 173/14/3 185/14/3
f 187/1/3 159/1/3 174/1/3
f 187/10/3 174/10/3 186/10/3
f 190/7/3 178/7/3 177/7/3
f 191/7/3 178/7/3 190/7/3
f 192/13/3 179/13/3 178/13/3
f 192/7/3 178/7/3 191/7/3
f 193/14/3 183/14/3 182/14/3
f 193/1/3 182/1/3 168/1/3
f 194/1/3 184/1/3 183/1/3
f 194/14/3 183/14/3 193/14/3
f 194/1/3 186/1/3 185/1/3
f 194/1/3 185/1/3 184/1/3
f 194/1/3 187/1/3 186/1/3
f 195/1/3 187/1/3 194/1/3
f 196/1/3 187/1/3 195/1/3
f 197/1/3 187/1/3 196/1/3
f 198/1/3 159/1/3 187/1/3
f 198/1/3 187/1/3 197/1/3
f 199/7/3 190/7/3 189/7/3
f 199/7/3 191/7/3 190/7/3
f 199/14/3 189/14/3 188/14/3
f 200/8/3 192/8/3 191/8/3
f 200/7/3 191/7/3 199/7/3
f 201/13/3 179/13/3 192/13/3
f 201/8/3 192/8/3 200/8/3
f 202/9/3 180/9/3 179/9/3
f 202/13/3 179/13/3 201/13/3
f 202/9/3 181/9/3 180/9/3
f 203/9/3 181/9/3 202/9/3
f 204/9/3 168/9/3 181/9/3
f 204/9/3 181/9/3 203/9/3
f 205/9/3 168/9/3 204/9/3
f 206/1/3 193/1/3 168/1/3
f 206/9/3 168/9/3 205/9/3
f 206/1/3 194/1/3 193/1/3
f 207/1/3 194/1/3 206/1/3
f 208/14/3 195/14/3 194/14/3
f 208/1/3 194/1/3 207/1/3
f 209/1/3 196/1/3 195/1/3
f 209/14/3 195/14/3 208/14/3
f 210/14/3 197/14/3 196/14/3
f 210/1/3 196/1/3 209/1/3
f 211/10/3 198/10/3 197/10/3
f 211/14/3 197/14/3 210/14/3
f 212/1/3 159/1/3 198/1/3
f 212/10/3 198/10/3 211/10/3
f 213/8/3 201/8/3 200/8/3
f 213/8/3 200/8/3 199/8/3
f 213/4/3 202/4/3 201/4/3
f 214/3/3 203/3/3 202/3/3
f 214/4/3 202/4/3 213/4/3
f 215/4/3 204/4/3 203/4/3
f 215/3/3 203/3/3 214/3/3
f 216/5/3 205/5/3 204/5/3
f 216/4/3 204/4/3 215/4/3
f 217/5/3 205/5/3 216/5/3
f 218/4/3 206/4/3 205/4/3
f 218/5/3 205/5/3 217/5/3
f 219/3/3 207/3/3 206/3/3
f 219/4/3 206/4/3 218/4/3
f 220/1/3 209/1/3 208/1/3
f 220/3/3 207/3/3 219/3/3
f 220/1/3 211/1/3 210/1/3
f 220/1/3 210/1/3 209/1/3
f 220/1/3 208/1/3 207/1/3
f 221/1/3 211/1/3 220/1/3
f 222/11/3 212/11/3 211/11/3
f 222/1/3 211/1/3 221/1/3
f 223/1/3 159/1/3 212/1/3
f 223/11/3 212/11/3 222/11/3
f 224/1/3 159/1/3 223/1/3
f 225/1/3 159/1/3 224/1/3
f 226/1/3 159/1/3 225/1/3
f 227/14/3 199/14/3 188/14/3
f 227/8/3 213/8/3 199/8/3
f 228/3/3 214/3/3 213/3/3
f 228/8/3 213/8/3 227/8/3
f 229/4/3 215/4/3 214/4/3
f 229/3/3 214/3/3 228/3/3
f 230/5/3 216/5/3 215/5/3
f 230/4/3 215/4/3 229/4/3
f 231/1/3 222/1/3 221/1/3
f 231/1/3 224/1/3 223/1/3
f 231/1/3 223/1/3 222/1/3
f 232/1/3 224/1/3 231/1/3
f 233/1/3 224/1/3 232/1/3
f 234/1/3 224/1/3 233/1/3
f 235/10/3 225/10/3 224/10/3
f 235/1/3 224/1/3 234/1/3
f 236/10/3 225/10/3 235/10/3
f 237/14/3 227/14/3 188/14/3
f 238/14/3 227/14/3 237/14/3
f 239/12/3 233/12/3 232/12/3
f 240/11/3 234/11/3 233/11/3
f 240/12/3 233/12/3 239/12/3
f 241/10/3 235/10/3 234/10/3
f 241/11/3 234/11/3 240/11/3
f 242/10/3 235/10/3 241/10/3
f 243/5/3 216/5/3 230/5/3
f 244/2/3 217/2/3 216/2/3
f 244/5/3 216/5/3 243/5/3
f 245/1/3 218/1/3 217/1/3
f 245/2/3 217/2/3 244/2/3
f 246/5/3 219/5/3 218/5/3
f 246/1/3 218/1/3 245/1/3
f 247/5/3 219/5/3 246/5/3
f 248/5/3 245/5/3 244/5/3
f 248/5/3 246/5/3 245/5/3
f 249/5/3 246/5/3 248/5/3
f 250/13/4 251/13/4 263/13/4
f 252/1/4 253/1/4 264/1/4
f 264/1/4 253/1/4 265/1/4
f 253/3/4 254/3/4 266/3/4
f 265/1/4 253/1/4 266/1/4
f 254/4/4 255/4/4 267/4/4
f 266/3/4 254/3/4 267/3/4
f 255/3/4 256/3/4 268/3/4
f 267/4/4 255/4/4 268/4/4
f 256/4/4 257/4/4 269/4/4
f 268/3/4 256/3/4 269/3/4
f 257/3/4 258/3/4 270/3/4
f 269/4/4 257/4/4 270/4/4
f 270/3/4 258/3/4 271/3/4
f 259/12/4 260/12/4 274/12/4
f 260/11/4 261/11/4 275/11/4
f 274/12/4 260/12/4 275/12/4
f 261/10/4 262/10/4 276/10/4
f 275/11/4 261/11/4 276/11/4
f 276/10/4 262/10/4 277/10/4
f 250/13/4 263/13/4 279/13/4
f 264/8/4 265/8/4 279/8/4
f 263/8/4 264/8/4 279/8/4
f 265/3/4 266/3/4 280/3/4
f 279/8/4 265/8/4 280/8/4
f 266/4/4 267/4/4 281/4/4
f 280/3/4 266/3/4 281/3/4
f 267/3/4 268/3/4 282/3/4
f 281/4/4 267/4/4 282/4/4
f 268/4/4 269/4/4 283/4/4
f 282/3/4 268/3/4 283/3/4
f 269/3/4 270/3/4 284/3/4
f 283/4/4 269/4/4 284/4/4
f 270/4/4 271/4/4 285/4/4
f 284/3/4 270/3/4 285/3/4
f 271/3/4 272/3/4 286/3/4
f 285/4/4 271/4/4 286/4/4
f 286/3/4 272/3/4 287/3/4
f 274/1/4 275/1/4 289/1/4
f 276/1/4 277/1/4 289/1/4
f 273/1/4 274/1/4 289/1/4
f 275/1/4 276/1/4 289/1/4
f 289/1/4 277/1/4 290/1/4
f 290/1/4 277/1/4 291/1/4
f 277/10/4 278/10/4 292/10/4
f 291/1/4 277/1/4 292/1/4
f 292/10/4 278/10/4 293/10/4
f 250/13/4 279/13/4 295/13/4
f 279/6/4 280/6/4 295/6/4
f 280/4/4 281/4/4 296/4/4
f 295/6/4 280/6/4 296/6/4
f 281/3/4 282/3/4 297/3/4
f 296/4/4 281/4/4 297/4/4
f 282/4/4 283/4/4 298/4/4
f 297/3/4 282/3/4 298/3/4
f 283/3/4 284/3/4 299/3/4
f 298/4/4 283/4/4 299/4/4
f 284/4/4 285/4/4 300/4/4
f 299/3/4 284/3/4 300/3/4
f 285/3/4 286/3/4 301/3/4
f 300/4/4 285/4/4 301/4/4
f 286/4/4 287/4/4 302/4/4
f 301/3/4 286/3/4 302/3/4
f 287/3/4 288/3/4 303/3/4
f 302/4/4 287/4/4 303/4/4
f 288/1/4 289/1/4 304/1/4
f 303/3/4 288/3/4 304/3/4
f 289/1/4 290/1/4 304/1/4
f 304/1/4 290/1/4 305/1/4
f 305/1/4 290/1/4 306/1/4
f 306/1/4 290/1/4 307/1/4
f 290/11/4 291/11/4 308/11/4
f 307/1/4 290/1/4 308/1/4
f 293/1/4 294/1/4 309/1/4
f 308/11/4 291/11/4 309/11/4
f 292/1/4 293/1/4 309/1/4
f 291/1/4 292/1/4 309/1/4
f 250/13/4 295/13/4 310/13/4
f 295/7/4 296/7/4 311/7/4
f 310/13/4 295/13/4 311/13/4
f 311/7/4 296/7/4 312/7/4
f 296/3/4 297/3/4 313/3/4
f 312/7/4 296/7/4 313/7/4
f 297/4/4 298/4/4 314/4/4
f 313/3/4 297/3/4 314/3/4
f 298/3/4 299/3/4 315/3/4
f 314/4/4 298/4/4 315/4/4
f 301/9/4 302/9/4 316/9/4
f 315/3/4 299/3/4 316/3/4
f 300/9/4 301/9/4 316/9/4
f 299/9/4 300/9/4 316/9/4
f 302/9/4 303/9/4 316/9/4
f 303/1/4 304/1/4 317/1/4
f 304/1/4 305/1/4 317/1/4
f 305/14/4 306/14/4 318/14/4
f 317/1/4 305/1/4 318/1/4
f 306/1/4 307/1/4 319/1/4
f 318/14/4 306/14/4 319/14/4
f 307/14/4 308/14/4 320/14/4
f 319/1/4 307/1/4 320/1/4
f 308/10/4 309/10/4 321/10/4
f 320/14/4 308/14/4 321/14/4
f 309/1/4 294/1/4 322/1/4
f 321/10/4 309/10/4 322/10/4
f 312/7/4 313/7/4 325/7/4
f 325/7/4 313/7/4 326/7/4
f 313/13/4 314/13/4 327/13/4
f 326/7/4 313/7/4 327/7/4
f 317/14/4 318/14/4 328/14/4
f 303/1/4 317/1/4 328/1/4
f 318/1/4 319/1/4 329/1/4
f 328/14/4 318/14/4 329/14/4
f 320/1/4 321/1/4 329/1/4
f 319/1/4 320/1/4 329/1/4
f 321/1/4 322/1/4 329/1/4
f 329/1/4 322/1/4 330/1/4
f 330/1/4 322/1/4 331/1/4
f 331/1/4 322/1/4 332/1/4
f 322/1/4 294/1/4 333/1/4
f 332/1/4 322/1/4 333/1/4
f 324/7/4 325/7/4 334/7/4
f 325/7/4 326/7/4 334/7/4
f 323/14/4 324/14/4 334/14/4
f 326/8/4 327/8/4 335/8/4
f 334/7/4 326/7/4 335/7/4
f 327/13/4 314/13/4 336/13/4
f 335/8/4 327/8/4 336/8/4
f 314/9/4 315/9/4 337/9/4
f 336/13/4 314/13/4 337/13/4
f 315/9/4 316/9/4 337/9/4
f 337/9/4 316/9/4 338/9/4
f 316/9/4 303/9/4 339/9/4
f 338/9/4 316/9/4 339/9/4
f 339/9/4 303/9/4 340/9/4
f 303/1/4 328/1/4 341/1/4
f 340/9/4 303/9/4 341/9/4
f 328/1/4 329/1/4 341/1/4
f 341/1/4 329/1/4 342/1/4
f 329/14/4 330/14/4 343/14/4
f 342/1/4 329/1/4 343/1/4
f 330/1/4 331/1/4 344/1/4
f 343/14/4 330/14/4 344/14/4
f 331/14/4 332/14/4 345/14/4
f 344/1/4 331/1/4 345/1/4
f 332/10/4 333/10/4 346/10/4
f 345/14/4 332/14/4 346/14/4
f 333/1/4 294/1/4 347/1/4
f 346/10/4 333/10/4 347/10/4
f 335/8/4 336/8/4 348/8/4
f 334/8/4 335/8/4 348/8/4
f 336/4/4 337/4/4 348/4/4
f 337/3/4 338/3/4 349/3/4
f 348/4/4 337/4/4 349/4/4
f 338/4/4 339/4/4 350/4/4
f 349/3/4 338/3/4 350/3/4
f 339/5/4 340/5/4 351/5/4
f 350/4/4 339/4/4 351/4/4
f 351/5/4 340/5/4 352/5/4
f 340/4/4 341/4/4 353/4/4
f 352/5/4 340/5/4 353/5/4
f 341/3/4 342/3/4 354/3/4
f 353/4/4 341/4/4 354/4/4
f 343/1/4 344/1/4 355/1/4
f 354/3/4 342/3/4 355/3/4
f 345/1/4 346/1/4 355/1/4
f 344/1/4 345/1/4 355/1/4
f 342/1/4 343/1/4 355/1/4
f 355/1/4 346/1/4 356/1/4
f 346/11/4 347/11/4 357/11/4
f 356/1/4 346/1/4 357/1/4
f 347/1/4 294/1/4 358/1/4
f 357/11/4 347/11/4 358/11/4
f 358/1/4 294/1/4 359/1/4
f 359/1/4 294/1/4 360/1/4
f 360/1/4 294/1/4 361/1/4
f 323/14/4 334/14/4 362/14/4
f 334/8/4 348/8/4 362/8/4
f 348/3/4 349/3/4 363/3/4
f 362/8/4 348/8/4 363/8/4
f 349/4/4 350/4/4 364/4/4
f 363/3/4 349/3/4 364/3/4
f 350/5/4 351/5/4 365/5/4
f 364/4/4 350/4/4 365/4/4
f 356/1/4 357/1/4 366/1/4
f 358/1/4 359/1/4 366/1/4
f 357/1/4 358/1/4 366/1/4
f 366/1/4 359/1/4 367/1/4
f 367/1/4 359/1/4 368/1/4
f 368/1/4 359/1/4 369/1/4
f 359/10/4 360/10/4 370/10/4
f 369/1/4 359/1/4 370/1/4
f 370/10/4 360/10/4 371/10/4
f 323/14/4 362/14/4 372/14/4
f 372/14/4 362/14/4 373/14/4
f 367/12/4 368/12/4 374/12/4
f 368/11/4 369/11/4 375/11/4
f 374/12/4 368/12/4 375/12/4
f 369/10/4 370/10/4 376/10/4
f 375/11/4 369/11/4 376/11/4
f 376/10/4 370/10/4 377/10/4
f 365/5/4 351/5/4 378/5/4
f 351/2/4 352/2/4 379/2/4
f 378/5/4 351/5/4 379/5/4
f 352/1/4 353/1/4 380/1/4
f 379/2/4 352/2/4 380/2/4
f 353/5/4 354/5/4 381/5/4
f 380/1/4 353/1/4 381/1/4
f 381/5/4 354/5/4 382/5/4
f 379/5/4 380/5/4 383/5/4
f 380/5/4 381/5/4 383/5/4
f 383/5/4 381/5/4 384/5/4
f 387/13/5 386/13/5 385/13/5
f 388/13/5 386/13/5 387/13/5
f 391/14/5 390/14/5 389/14/5
f 392/14/5 390/14/5 391/14/5
f 395/7/5 394/7/5 393/7/5
f 396/7/5 394/7/5 395/7/5
f 399/1/5 398/1/5 397/1/5
f 400/1/5 398/1/5 399/1/5
f 403/5/5 402/5/5 401/5/5
f 404/5/5 402/5/5 403/5/5
f 407/5/5 406/5/5 405/5/5
f 408/5/5 406/5/5 407/5/5
f 413/1/5 410/1/5 409/1/5
f 414/1/5 410/1/5 413/1/5
f 415/1/5 412/1/5 411/1/5
f 416/1/5 412/1/5 415/1/5
f 421/12/5 418/12/5 417/12/5
f 422/12/5 418/12/5 421/12/5
f 423/12/5 420/12/5 419/12/5
f 424/12/5 420/12/5 423/12/5
f 425/13/6 426/13/6 427/13/6
f 427/13/6 426/13/6 428/13/6
f 429/14/6 430/14/6 431/14/6
f 431/14/6 430/14/6 432/14/6
f 433/3/6 434/3/6 437/3/6
f 437/3/6 434/3/6 438/3/6
f 435/5/6 436/5/6 439/5/6
f 439/5/6 436/5/6 440/5/6
f 441/3/6 442/3/6 445/3/6
f 445/3/6 442/3/6 446/3/6
f 443/5/6 444/5/6 447/5/6
f 447/5/6 444/5/6 448/5/6
f 449/10/6 450/10/6 453/10/6
f 453/10/6 450/10/6 454/10/6
f 451/10/6 452/10/6 455/10/6
f 455/10/6 452/10/6 456/10/6
f 457/10/6 458/10/6 461/10/6
f 461/10/6 458/10/6 462/10/6
f 459/10/6 460/10/6 463/10/6
f 463/10/6 460/10/6 464/10/6
f 465/1/6 466/1/6 467/1/6
f 467/1/6 466/1/6 468/1/6
