# MagicaVoxel @ Ephtracy

# group
o 

# material
mtllib дед шаг.mtl
usemtl palette

# normals
vn -1 0 0
vn 1 0 0
vn 0 0 1
vn 0 0 -1
vn 0 -1 0
vn 0 1 0

# texcoords
vt 0.0605469 0.5
vt 0.0878906 0.5
vt 0.419922 0.5
vt 0.853516 0.5
vt 0.951172 0.5
vt 0.955078 0.5
vt 0.958984 0.5
vt 0.970703 0.5
vt 0.974609 0.5
vt 0.978516 0.5
vt 0.990234 0.5
vt 0.994141 0.5

# verts
v -0.9 0 0.5
v -0.9 0 0.4
v -0.9 0.1 0.5
v -0.9 0.1 0.4
v -0.8 0.1 0.5
v -0.8 0.1 0.4
v -0.8 0.6 0.5
v -0.8 0.6 0.4
v -0.8 0.8 0.5
v -0.8 0.8 0.4
v -0.8 0.9 0.5
v -0.8 0.9 0.4
v -0.8 1 0.5
v -0.8 1 0.4
v -0.8 1.1 0.5
v -0.8 1.1 0.4
v -0.8 1.2 0.5
v -0.8 1.2 0.4
v -0.8 1.3 0.5
v -0.8 1.3 0.4
v -0.8 1.7 0.5
v -0.8 1.7 0.4
v -0.8 1.9 0.5
v -0.8 1.9 0.4
v -0.8 2.1 0.5
v -0.8 2.1 0.4
v -0.8 2.2 0.5
v -0.8 2.2 0.4
v -0.7 1.3 0.5
v -0.7 1.3 0.4
v -0.7 1.4 0.5
v -0.7 1.4 0.4
v -0.7 1.6 0.5
v -0.7 1.6 0.4
v -0.7 1.7 0.5
v -0.7 1.7 0.4
v -0.7 2.2 0.5
v -0.7 2.2 0.4
v -0.7 2.3 0.5
v -0.7 2.3 0.4
v -0.6 1.4 0.5
v -0.6 1.4 0.4
v -0.6 1.5 0.5
v -0.6 1.5 0.4
v -0.6 1.6 0.5
v -0.6 1.6 0.4
v -0.6 2.3 0.5
v -0.6 2.3 0.4
v -0.6 2.4 0.5
v -0.6 2.4 0.4
v -0.2 0.3 0.5
v -0.2 0.3 0.4
v -0.2 0.4 0.5
v -0.2 0.4 0.4
v -0.1 0 0.5
v -0.1 0 0.4
v -0.1 0.1 0.5
v -0.1 0.1 0.4
v -0.1 0.3 0.5
v -0.1 0.3 0.4
v -0.5 0 0.5
v -0.5 0 0.4
v -0.5 0.1 0.5
v -0.5 0.1 0.4
v -0.5 0.3 0.5
v -0.5 0.3 0.4
v -0.4 0.3 0.5
v -0.4 0.3 0.4
v -0.4 0.4 0.5
v -0.4 0.4 0.4
v 0 1.4 0.5
v 0 1.4 0.4
v 0 1.5 0.5
v 0 1.5 0.4
v 0 1.6 0.5
v 0 1.6 0.4
v 0 2.3 0.5
v 0 2.3 0.4
v 0 2.4 0.5
v 0 2.4 0.4
v 0.1 1.3 0.5
v 0.1 1.3 0.4
v 0.1 1.4 0.5
v 0.1 1.4 0.4
v 0.1 1.6 0.5
v 0.1 1.6 0.4
v 0.1 1.7 0.5
v 0.1 1.7 0.4
v 0.1 2.2 0.5
v 0.1 2.2 0.4
v 0.1 2.3 0.5
v 0.1 2.3 0.4
v 0.2 0.1 0.5
v 0.2 0.1 0.4
v 0.2 0.6 0.5
v 0.2 0.6 0.4
v 0.2 0.8 0.5
v 0.2 0.8 0.4
v 0.2 0.9 0.5
v 0.2 0.9 0.4
v 0.2 1 0.5
v 0.2 1 0.4
v 0.2 1.1 0.5
v 0.2 1.1 0.4
v 0.2 1.2 0.5
v 0.2 1.2 0.4
v 0.2 1.3 0.5
v 0.2 1.3 0.4
v 0.2 1.7 0.5
v 0.2 1.7 0.4
v 0.2 1.9 0.5
v 0.2 1.9 0.4
v 0.2 2.1 0.5
v 0.2 2.1 0.4
v 0.2 2.2 0.5
v 0.2 2.2 0.4
v 0.3 0 0.5
v 0.3 0 0.4
v 0.3 0.1 0.5
v 0.3 0.1 0.4
v -0.9 0 0.5
v -0.9 0.1 0.5
v -0.8 0.1 0.5
v -0.8 0.6 0.5
v -0.8 0.8 0.5
v -0.8 0.9 0.5
v -0.8 1 0.5
v -0.8 1.1 0.5
v -0.8 1.2 0.5
v -0.8 1.3 0.5
v -0.8 1.7 0.5
v -0.8 1.9 0.5
v -0.8 2.1 0.5
v -0.8 2.2 0.5
v -0.7 0.1 0.5
v -0.7 0.5 0.5
v -0.7 0.7 0.5
v -0.7 0.8 0.5
v -0.7 0.9 0.5
v -0.7 1 0.5
v -0.7 1.1 0.5
v -0.7 1.2 0.5
v -0.7 1.3 0.5
v -0.7 1.4 0.5
v -0.7 1.6 0.5
v -0.7 1.7 0.5
v -0.7 1.9 0.5
v -0.7 2.1 0.5
v -0.7 2.2 0.5
v -0.7 2.3 0.5
v -0.6 0.5 0.5
v -0.6 0.6 0.5
v -0.6 0.7 0.5
v -0.6 0.8 0.5
v -0.6 0.9 0.5
v -0.6 1 0.5
v -0.6 1.1 0.5
v -0.6 1.2 0.5
v -0.6 1.3 0.5
v -0.6 1.4 0.5
v -0.6 1.5 0.5
v -0.6 1.6 0.5
v -0.6 2 0.5
v -0.6 2.1 0.5
v -0.6 2.2 0.5
v -0.6 2.3 0.5
v -0.6 2.4 0.5
v -0.5 0 0.5
v -0.5 0.1 0.5
v -0.5 0.3 0.5
v -0.5 0.7 0.5
v -0.5 0.8 0.5
v -0.5 0.9 0.5
v -0.5 1 0.5
v -0.5 1.1 0.5
v -0.5 1.2 0.5
v -0.5 1.3 0.5
v -0.5 1.4 0.5
v -0.5 1.5 0.5
v -0.5 1.6 0.5
v -0.5 1.7 0.5
v -0.5 1.8 0.5
v -0.5 2 0.5
v -0.5 2.1 0.5
v -0.4 0.3 0.5
v -0.4 0.4 0.5
v -0.4 1.5 0.5
v -0.4 1.6 0.5
v -0.4 1.7 0.5
v -0.4 1.8 0.5
v -0.4 2 0.5
v -0.4 2.1 0.5
v -0.2 0.3 0.5
v -0.2 0.4 0.5
v -0.2 1.5 0.5
v -0.2 1.6 0.5
v -0.2 1.7 0.5
v -0.2 1.8 0.5
v -0.2 2 0.5
v -0.2 2.1 0.5
v -0.1 0 0.5
v -0.1 0.1 0.5
v -0.1 0.3 0.5
v -0.1 0.7 0.5
v -0.1 0.8 0.5
v -0.1 0.9 0.5
v -0.1 1 0.5
v -0.1 1.1 0.5
v -0.1 1.2 0.5
v -0.1 1.3 0.5
v -0.1 1.4 0.5
v -0.1 1.5 0.5
v -0.1 1.6 0.5
v -0.1 1.7 0.5
v -0.1 1.8 0.5
v -0.1 2 0.5
v -0.1 2.1 0.5
v 0 0.5 0.5
v 0 0.6 0.5
v 0 0.7 0.5
v 0 0.8 0.5
v 0 0.9 0.5
v 0 1 0.5
v 0 1.1 0.5
v 0 1.2 0.5
v 0 1.3 0.5
v 0 1.4 0.5
v 0 1.5 0.5
v 0 1.6 0.5
v 0 2 0.5
v 0 2.1 0.5
v 0 2.2 0.5
v 0 2.3 0.5
v 0 2.4 0.5
v 0.1 0.1 0.5
v 0.1 0.5 0.5
v 0.1 0.7 0.5
v 0.1 0.8 0.5
v 0.1 0.9 0.5
v 0.1 1 0.5
v 0.1 1.1 0.5
v 0.1 1.2 0.5
v 0.1 1.3 0.5
v 0.1 1.4 0.5
v 0.1 1.6 0.5
v 0.1 1.7 0.5
v 0.1 1.9 0.5
v 0.1 2.1 0.5
v 0.1 2.2 0.5
v 0.1 2.3 0.5
v 0.2 0.1 0.5
v 0.2 0.6 0.5
v 0.2 0.8 0.5
v 0.2 0.9 0.5
v 0.2 1 0.5
v 0.2 1.1 0.5
v 0.2 1.2 0.5
v 0.2 1.3 0.5
v 0.2 1.7 0.5
v 0.2 1.9 0.5
v 0.2 2.1 0.5
v 0.2 2.2 0.5
v 0.3 0 0.5
v 0.3 0.1 0.5
v -0.9 0 0.4
v -0.9 0.1 0.4
v -0.8 0.1 0.4
v -0.8 0.6 0.4
v -0.8 0.8 0.4
v -0.8 0.9 0.4
v -0.8 1 0.4
v -0.8 1.1 0.4
v -0.8 1.2 0.4
v -0.8 1.3 0.4
v -0.8 1.7 0.4
v -0.8 1.9 0.4
v -0.8 2.1 0.4
v -0.8 2.2 0.4
v -0.7 0.1 0.4
v -0.7 0.5 0.4
v -0.7 0.7 0.4
v -0.7 0.8 0.4
v -0.7 0.9 0.4
v -0.7 1 0.4
v -0.7 1.1 0.4
v -0.7 1.2 0.4
v -0.7 1.3 0.4
v -0.7 1.4 0.4
v -0.7 1.6 0.4
v -0.7 1.7 0.4
v -0.7 1.9 0.4
v -0.7 2.1 0.4
v -0.7 2.2 0.4
v -0.7 2.3 0.4
v -0.6 0.5 0.4
v -0.6 0.6 0.4
v -0.6 0.7 0.4
v -0.6 0.8 0.4
v -0.6 0.9 0.4
v -0.6 1 0.4
v -0.6 1.1 0.4
v -0.6 1.2 0.4
v -0.6 1.3 0.4
v -0.6 1.4 0.4
v -0.6 1.5 0.4
v -0.6 1.6 0.4
v -0.6 2 0.4
v -0.6 2.1 0.4
v -0.6 2.2 0.4
v -0.6 2.3 0.4
v -0.6 2.4 0.4
v -0.5 0 0.4
v -0.5 0.1 0.4
v -0.5 0.3 0.4
v -0.5 0.7 0.4
v -0.5 0.8 0.4
v -0.5 0.9 0.4
v -0.5 1 0.4
v -0.5 1.1 0.4
v -0.5 1.2 0.4
v -0.5 1.3 0.4
v -0.5 1.4 0.4
v -0.5 1.5 0.4
v -0.5 1.6 0.4
v -0.5 1.7 0.4
v -0.5 1.8 0.4
v -0.5 2 0.4
v -0.5 2.1 0.4
v -0.4 0.3 0.4
v -0.4 0.4 0.4
v -0.4 1.5 0.4
v -0.4 1.6 0.4
v -0.4 1.7 0.4
v -0.4 1.8 0.4
v -0.4 2 0.4
v -0.4 2.1 0.4
v -0.2 0.3 0.4
v -0.2 0.4 0.4
v -0.2 1.5 0.4
v -0.2 1.6 0.4
v -0.2 1.7 0.4
v -0.2 1.8 0.4
v -0.2 2 0.4
v -0.2 2.1 0.4
v -0.1 0 0.4
v -0.1 0.1 0.4
v -0.1 0.3 0.4
v -0.1 0.7 0.4
v -0.1 0.8 0.4
v -0.1 0.9 0.4
v -0.1 1 0.4
v -0.1 1.1 0.4
v -0.1 1.2 0.4
v -0.1 1.3 0.4
v -0.1 1.4 0.4
v -0.1 1.5 0.4
v -0.1 1.6 0.4
v -0.1 1.7 0.4
v -0.1 1.8 0.4
v -0.1 2 0.4
v -0.1 2.1 0.4
v 0 0.5 0.4
v 0 0.6 0.4
v 0 0.7 0.4
v 0 0.8 0.4
v 0 0.9 0.4
v 0 1 0.4
v 0 1.1 0.4
v 0 1.2 0.4
v 0 1.3 0.4
v 0 1.4 0.4
v 0 1.5 0.4
v 0 1.6 0.4
v 0 2 0.4
v 0 2.1 0.4
v 0 2.2 0.4
v 0 2.3 0.4
v 0 2.4 0.4
v 0.1 0.1 0.4
v 0.1 0.5 0.4
v 0.1 0.7 0.4
v 0.1 0.8 0.4
v 0.1 0.9 0.4
v 0.1 1 0.4
v 0.1 1.1 0.4
v 0.1 1.2 0.4
v 0.1 1.3 0.4
v 0.1 1.4 0.4
v 0.1 1.6 0.4
v 0.1 1.7 0.4
v 0.1 1.9 0.4
v 0.1 2.1 0.4
v 0.1 2.2 0.4
v 0.1 2.3 0.4
v 0.2 0.1 0.4
v 0.2 0.6 0.4
v 0.2 0.8 0.4
v 0.2 0.9 0.4
v 0.2 1 0.4
v 0.2 1.1 0.4
v 0.2 1.2 0.4
v 0.2 1.3 0.4
v 0.2 1.7 0.4
v 0.2 1.9 0.4
v 0.2 2.1 0.4
v 0.2 2.2 0.4
v 0.3 0 0.4
v 0.3 0.1 0.4
v -0.9 0 0.5
v -0.5 0 0.5
v -0.1 0 0.5
v 0.3 0 0.5
v -0.9 0 0.4
v -0.5 0 0.4
v -0.1 0 0.4
v 0.3 0 0.4
v -0.5 0.3 0.5
v -0.4 0.3 0.5
v -0.2 0.3 0.5
v -0.1 0.3 0.5
v -0.5 0.3 0.4
v -0.4 0.3 0.4
v -0.2 0.3 0.4
v -0.1 0.3 0.4
v -0.4 0.4 0.5
v -0.2 0.4 0.5
v -0.4 0.4 0.4
v -0.2 0.4 0.4
v -0.7 1.6 0.5
v -0.6 1.6 0.5
v 0 1.6 0.5
v 0.1 1.6 0.5
v -0.7 1.6 0.4
v -0.6 1.6 0.4
v 0 1.6 0.4
v 0.1 1.6 0.4
v -0.8 1.7 0.5
v -0.7 1.7 0.5
v 0.1 1.7 0.5
v 0.2 1.7 0.5
v -0.8 1.7 0.4
v -0.7 1.7 0.4
v 0.1 1.7 0.4
v 0.2 1.7 0.4
v -0.9 0.1 0.5
v -0.8 0.1 0.5
v 0.2 0.1 0.5
v 0.3 0.1 0.5
v -0.9 0.1 0.4
v -0.8 0.1 0.4
v 0.2 0.1 0.4
v 0.3 0.1 0.4
v -0.8 1.3 0.5
v -0.7 1.3 0.5
v 0.1 1.3 0.5
v 0.2 1.3 0.5
v -0.8 1.3 0.4
v -0.7 1.3 0.4
v 0.1 1.3 0.4
v 0.2 1.3 0.4
v -0.7 1.4 0.5
v -0.6 1.4 0.5
v 0 1.4 0.5
v 0.1 1.4 0.5
v -0.7 1.4 0.4
v -0.6 1.4 0.4
v 0 1.4 0.4
v 0.1 1.4 0.4
v -0.8 2.2 0.5
v -0.7 2.2 0.5
v 0.1 2.2 0.5
v 0.2 2.2 0.5
v -0.8 2.2 0.4
v -0.7 2.2 0.4
v 0.1 2.2 0.4
v 0.2 2.2 0.4
v -0.7 2.3 0.5
v -0.6 2.3 0.5
v 0 2.3 0.5
v 0.1 2.3 0.5
v -0.7 2.3 0.4
v -0.6 2.3 0.4
v 0 2.3 0.4
v 0.1 2.3 0.4
v -0.6 2.4 0.5
v 0 2.4 0.5
v -0.6 2.4 0.4
v 0 2.4 0.4

# faces
f 3/11/1 2/11/1 1/11/1
f 4/11/1 2/11/1 3/11/1
f 7/6/1 6/6/1 5/6/1
f 8/6/1 6/6/1 7/6/1
f 9/1/1 8/1/1 7/1/1
f 10/1/1 8/1/1 9/1/1
f 11/3/1 10/3/1 9/3/1
f 12/3/1 10/3/1 11/3/1
f 13/4/1 12/4/1 11/4/1
f 14/4/1 12/4/1 13/4/1
f 15/3/1 14/3/1 13/3/1
f 16/3/1 14/3/1 15/3/1
f 17/4/1 16/4/1 15/4/1
f 18/4/1 16/4/1 17/4/1
f 19/3/1 18/3/1 17/3/1
f 20/3/1 18/3/1 19/3/1
f 23/10/1 22/10/1 21/10/1
f 24/10/1 22/10/1 23/10/1
f 25/9/1 24/9/1 23/9/1
f 26/9/1 24/9/1 25/9/1
f 27/8/1 26/8/1 25/8/1
f 28/8/1 26/8/1 27/8/1
f 31/3/1 30/3/1 29/3/1
f 32/3/1 30/3/1 31/3/1
f 35/1/1 34/1/1 33/1/1
f 36/1/1 34/1/1 35/1/1
f 39/8/1 38/8/1 37/8/1
f 40/8/1 38/8/1 39/8/1
f 43/3/1 42/3/1 41/3/1
f 44/3/1 42/3/1 43/3/1
f 45/1/1 44/1/1 43/1/1
f 46/1/1 44/1/1 45/1/1
f 49/1/1 48/1/1 47/1/1
f 50/1/1 48/1/1 49/1/1
f 53/5/1 52/5/1 51/5/1
f 54/5/1 52/5/1 53/5/1
f 57/11/1 56/11/1 55/11/1
f 58/11/1 56/11/1 57/11/1
f 59/5/1 58/5/1 57/5/1
f 60/5/1 58/5/1 59/5/1
f 61/11/2 62/11/2 63/11/2
f 63/11/2 62/11/2 64/11/2
f 63/5/2 64/5/2 65/5/2
f 65/5/2 64/5/2 66/5/2
f 67/5/2 68/5/2 69/5/2
f 69/5/2 68/5/2 70/5/2
f 71/3/2 72/3/2 73/3/2
f 73/3/2 72/3/2 74/3/2
f 73/1/2 74/1/2 75/1/2
f 75/1/2 74/1/2 76/1/2
f 77/1/2 78/1/2 79/1/2
f 79/1/2 78/1/2 80/1/2
f 81/3/2 82/3/2 83/3/2
f 83/3/2 82/3/2 84/3/2
f 85/1/2 86/1/2 87/1/2
f 87/1/2 86/1/2 88/1/2
f 89/8/2 90/8/2 91/8/2
f 91/8/2 90/8/2 92/8/2
f 93/6/2 94/6/2 95/6/2
f 95/6/2 94/6/2 96/6/2
f 95/1/2 96/1/2 97/1/2
f 97/1/2 96/1/2 98/1/2
f 97/3/2 98/3/2 99/3/2
f 99/3/2 98/3/2 100/3/2
f 99/4/2 100/4/2 101/4/2
f 101/4/2 100/4/2 102/4/2
f 101/3/2 102/3/2 103/3/2
f 103/3/2 102/3/2 104/3/2
f 103/4/2 104/4/2 105/4/2
f 105/4/2 104/4/2 106/4/2
f 105/3/2 106/3/2 107/3/2
f 107/3/2 106/3/2 108/3/2
f 109/10/2 110/10/2 111/10/2
f 111/10/2 110/10/2 112/10/2
f 111/9/2 112/9/2 113/9/2
f 113/9/2 112/9/2 114/9/2
f 113/8/2 114/8/2 115/8/2
f 115/8/2 114/8/2 116/8/2
f 117/11/2 118/11/2 119/11/2
f 119/11/2 118/11/2 120/11/2
f 123/11/3 122/11/3 121/11/3
f 135/11/3 123/11/3 121/11/3
f 135/6/3 124/6/3 123/6/3
f 136/6/3 124/6/3 135/6/3
f 137/1/3 125/1/3 124/1/3
f 138/3/3 126/3/3 125/3/3
f 138/1/3 125/1/3 137/1/3
f 139/4/3 127/4/3 126/4/3
f 139/3/3 126/3/3 138/3/3
f 140/3/3 128/3/3 127/3/3
f 140/4/3 127/4/3 139/4/3
f 141/4/3 129/4/3 128/4/3
f 141/3/3 128/3/3 140/3/3
f 142/3/3 130/3/3 129/3/3
f 142/4/3 129/4/3 141/4/3
f 143/3/3 130/3/3 142/3/3
f 146/10/3 132/10/3 131/10/3
f 147/9/3 133/9/3 132/9/3
f 147/10/3 132/10/3 146/10/3
f 148/8/3 134/8/3 133/8/3
f 148/9/3 133/9/3 147/9/3
f 149/8/3 134/8/3 148/8/3
f 151/6/3 124/6/3 136/6/3
f 151/5/3 136/5/3 135/5/3
f 152/1/3 137/1/3 124/1/3
f 152/6/3 124/6/3 151/6/3
f 153/2/3 138/2/3 137/2/3
f 153/1/3 137/1/3 152/1/3
f 154/4/3 139/4/3 138/4/3
f 154/2/3 138/2/3 153/2/3
f 155/3/3 140/3/3 139/3/3
f 155/4/3 139/4/3 154/4/3
f 156/4/3 141/4/3 140/4/3
f 156/3/3 140/3/3 155/3/3
f 157/3/3 142/3/3 141/3/3
f 157/4/3 141/4/3 156/4/3
f 158/4/3 143/4/3 142/4/3
f 158/3/3 142/3/3 157/3/3
f 159/3/3 144/3/3 143/3/3
f 159/4/3 143/4/3 158/4/3
f 160/3/3 144/3/3 159/3/3
f 162/1/3 147/1/3 146/1/3
f 162/1/3 146/1/3 145/1/3
f 162/1/3 149/1/3 148/1/3
f 162/1/3 148/1/3 147/1/3
f 163/1/3 149/1/3 162/1/3
f 164/1/3 149/1/3 163/1/3
f 165/8/3 150/8/3 149/8/3
f 165/1/3 149/1/3 164/1/3
f 166/8/3 150/8/3 165/8/3
f 168/11/3 135/11/3 121/11/3
f 169/5/3 151/5/3 135/5/3
f 169/11/3 135/11/3 168/11/3
f 169/5/3 152/5/3 151/5/3
f 169/5/3 153/5/3 152/5/3
f 170/5/3 153/5/3 169/5/3
f 171/4/3 154/4/3 153/4/3
f 171/5/3 153/5/3 170/5/3
f 172/3/3 155/3/3 154/3/3
f 172/4/3 154/4/3 171/4/3
f 173/4/3 156/4/3 155/4/3
f 173/3/3 155/3/3 172/3/3
f 174/3/3 157/3/3 156/3/3
f 174/4/3 156/4/3 173/4/3
f 175/4/3 158/4/3 157/4/3
f 175/3/3 157/3/3 174/3/3
f 176/3/3 159/3/3 158/3/3
f 176/4/3 158/4/3 175/4/3
f 177/4/3 160/4/3 159/4/3
f 177/3/3 159/3/3 176/3/3
f 178/3/3 161/3/3 160/3/3
f 178/4/3 160/4/3 177/4/3
f 179/1/3 162/1/3 161/1/3
f 179/3/3 161/3/3 178/3/3
f 179/1/3 163/1/3 162/1/3
f 180/1/3 163/1/3 179/1/3
f 181/1/3 163/1/3 180/1/3
f 182/1/3 163/1/3 181/1/3
f 183/9/3 164/9/3 163/9/3
f 183/1/3 163/1/3 182/1/3
f 184/1/3 166/1/3 165/1/3
f 184/9/3 164/9/3 183/9/3
f 184/1/3 165/1/3 164/1/3
f 184/1/3 167/1/3 166/1/3
f 185/5/3 171/5/3 170/5/3
f 186/5/3 171/5/3 185/5/3
f 187/1/3 180/1/3 179/1/3
f 187/1/3 179/1/3 178/1/3
f 188/12/3 181/12/3 180/12/3
f 188/1/3 180/1/3 187/1/3
f 189/1/3 182/1/3 181/1/3
f 189/12/3 181/12/3 188/12/3
f 190/12/3 183/12/3 182/12/3
f 190/1/3 182/1/3 189/1/3
f 191/8/3 184/8/3 183/8/3
f 191/12/3 183/12/3 190/12/3
f 192/1/3 167/1/3 184/1/3
f 192/8/3 184/8/3 191/8/3
f 194/5/3 171/5/3 186/5/3
f 195/12/3 188/12/3 187/12/3
f 195/1/3 187/1/3 178/1/3
f 196/1/3 189/1/3 188/1/3
f 196/12/3 188/12/3 195/12/3
f 196/1/3 191/1/3 190/1/3
f 196/1/3 190/1/3 189/1/3
f 196/1/3 192/1/3 191/1/3
f 197/1/3 192/1/3 196/1/3
f 198/1/3 192/1/3 197/1/3
f 199/1/3 192/1/3 198/1/3
f 200/1/3 167/1/3 192/1/3
f 200/1/3 192/1/3 199/1/3
f 203/5/3 194/5/3 193/5/3
f 204/5/3 171/5/3 194/5/3
f 204/11/3 172/11/3 171/11/3
f 204/5/3 194/5/3 203/5/3
f 205/7/3 177/7/3 176/7/3
f 205/11/3 172/11/3 204/11/3
f 205/7/3 176/7/3 175/7/3
f 205/7/3 174/7/3 173/7/3
f 205/7/3 175/7/3 174/7/3
f 205/7/3 173/7/3 172/7/3
f 205/7/3 178/7/3 177/7/3
f 206/7/3 178/7/3 205/7/3
f 207/7/3 178/7/3 206/7/3
f 208/7/3 178/7/3 207/7/3
f 209/7/3 178/7/3 208/7/3
f 210/7/3 178/7/3 209/7/3
f 211/1/3 195/1/3 178/1/3
f 211/7/3 178/7/3 210/7/3
f 211/1/3 196/1/3 195/1/3
f 212/1/3 196/1/3 211/1/3
f 213/12/3 197/12/3 196/12/3
f 213/1/3 196/1/3 212/1/3
f 214/1/3 198/1/3 197/1/3
f 214/12/3 197/12/3 213/12/3
f 215/12/3 199/12/3 198/12/3
f 215/1/3 198/1/3 214/1/3
f 216/8/3 200/8/3 199/8/3
f 216/12/3 199/12/3 215/12/3
f 217/1/3 167/1/3 200/1/3
f 217/8/3 200/8/3 216/8/3
f 218/5/3 204/5/3 203/5/3
f 218/5/3 203/5/3 202/5/3
f 219/5/3 204/5/3 218/5/3
f 220/4/3 205/4/3 204/4/3
f 220/5/3 204/5/3 219/5/3
f 221/3/3 206/3/3 205/3/3
f 221/4/3 205/4/3 220/4/3
f 222/4/3 207/4/3 206/4/3
f 222/3/3 206/3/3 221/3/3
f 223/3/3 208/3/3 207/3/3
f 223/4/3 207/4/3 222/4/3
f 224/4/3 209/4/3 208/4/3
f 224/3/3 208/3/3 223/3/3
f 225/3/3 210/3/3 209/3/3
f 225/4/3 209/4/3 224/4/3
f 226/4/3 211/4/3 210/4/3
f 226/3/3 210/3/3 225/3/3
f 227/3/3 212/3/3 211/3/3
f 227/4/3 211/4/3 226/4/3
f 228/1/3 216/1/3 215/1/3
f 228/3/3 212/3/3 227/3/3
f 228/1/3 215/1/3 214/1/3
f 228/1/3 214/1/3 213/1/3
f 228/1/3 213/1/3 212/1/3
f 229/1/3 216/1/3 228/1/3
f 230/9/3 217/9/3 216/9/3
f 230/1/3 216/1/3 229/1/3
f 231/1/3 167/1/3 217/1/3
f 231/9/3 217/9/3 230/9/3
f 232/1/3 167/1/3 231/1/3
f 233/1/3 167/1/3 232/1/3
f 234/1/3 167/1/3 233/1/3
f 235/11/3 202/11/3 201/11/3
f 235/5/3 218/5/3 202/5/3
f 236/6/3 219/6/3 218/6/3
f 236/5/3 218/5/3 235/5/3
f 237/1/3 220/1/3 219/1/3
f 237/2/3 221/2/3 220/2/3
f 238/4/3 222/4/3 221/4/3
f 238/2/3 221/2/3 237/2/3
f 239/3/3 223/3/3 222/3/3
f 239/4/3 222/4/3 238/4/3
f 240/4/3 224/4/3 223/4/3
f 240/3/3 223/3/3 239/3/3
f 241/3/3 225/3/3 224/3/3
f 241/4/3 224/4/3 240/4/3
f 242/4/3 226/4/3 225/4/3
f 242/3/3 225/3/3 241/3/3
f 243/3/3 227/3/3 226/3/3
f 243/4/3 226/4/3 242/4/3
f 244/3/3 227/3/3 243/3/3
f 245/1/3 230/1/3 229/1/3
f 245/1/3 232/1/3 231/1/3
f 245/1/3 231/1/3 230/1/3
f 246/1/3 232/1/3 245/1/3
f 247/1/3 232/1/3 246/1/3
f 248/1/3 232/1/3 247/1/3
f 249/8/3 233/8/3 232/8/3
f 249/1/3 232/1/3 248/1/3
f 250/8/3 233/8/3 249/8/3
f 251/11/3 235/11/3 201/11/3
f 251/6/3 236/6/3 235/6/3
f 252/1/3 237/1/3 219/1/3
f 252/6/3 236/6/3 251/6/3
f 252/1/3 238/1/3 237/1/3
f 252/6/3 219/6/3 236/6/3
f 253/3/3 239/3/3 238/3/3
f 253/1/3 238/1/3 252/1/3
f 254/4/3 240/4/3 239/4/3
f 254/3/3 239/3/3 253/3/3
f 255/3/3 241/3/3 240/3/3
f 255/4/3 240/4/3 254/4/3
f 256/4/3 242/4/3 241/4/3
f 256/3/3 241/3/3 255/3/3
f 257/3/3 243/3/3 242/3/3
f 257/4/3 242/4/3 256/4/3
f 258/3/3 243/3/3 257/3/3
f 259/10/3 247/10/3 246/10/3
f 260/9/3 248/9/3 247/9/3
f 260/10/3 247/10/3 259/10/3
f 261/8/3 249/8/3 248/8/3
f 261/9/3 248/9/3 260/9/3
f 262/8/3 249/8/3 261/8/3
f 263/11/3 251/11/3 201/11/3
f 264/11/3 251/11/3 263/11/3
f 265/11/4 266/11/4 267/11/4
f 265/11/4 267/11/4 279/11/4
f 267/6/4 268/6/4 279/6/4
f 279/6/4 268/6/4 280/6/4
f 268/1/4 269/1/4 281/1/4
f 269/3/4 270/3/4 282/3/4
f 281/1/4 269/1/4 282/1/4
f 270/4/4 271/4/4 283/4/4
f 282/3/4 270/3/4 283/3/4
f 271/3/4 272/3/4 284/3/4
f 283/4/4 271/4/4 284/4/4
f 272/4/4 273/4/4 285/4/4
f 284/3/4 272/3/4 285/3/4
f 273/3/4 274/3/4 286/3/4
f 285/4/4 273/4/4 286/4/4
f 286/3/4 274/3/4 287/3/4
f 275/10/4 276/10/4 290/10/4
f 276/9/4 277/9/4 291/9/4
f 290/10/4 276/10/4 291/10/4
f 277/8/4 278/8/4 292/8/4
f 291/9/4 277/9/4 292/9/4
f 292/8/4 278/8/4 293/8/4
f 280/6/4 268/6/4 295/6/4
f 279/5/4 280/5/4 295/5/4
f 268/1/4 281/1/4 296/1/4
f 295/6/4 268/6/4 296/6/4
f 281/2/4 282/2/4 297/2/4
f 296/1/4 281/1/4 297/1/4
f 282/4/4 283/4/4 298/4/4
f 297/2/4 282/2/4 298/2/4
f 283/3/4 284/3/4 299/3/4
f 298/4/4 283/4/4 299/4/4
f 284/4/4 285/4/4 300/4/4
f 299/3/4 284/3/4 300/3/4
f 285/3/4 286/3/4 301/3/4
f 300/4/4 285/4/4 301/4/4
f 286/4/4 287/4/4 302/4/4
f 301/3/4 286/3/4 302/3/4
f 287/3/4 288/3/4 303/3/4
f 302/4/4 287/4/4 303/4/4
f 303/3/4 288/3/4 304/3/4
f 290/1/4 291/1/4 306/1/4
f 289/1/4 290/1/4 306/1/4
f 292/1/4 293/1/4 306/1/4
f 291/1/4 292/1/4 306/1/4
f 306/1/4 293/1/4 307/1/4
f 307/1/4 293/1/4 308/1/4
f 293/8/4 294/8/4 309/8/4
f 308/1/4 293/1/4 309/1/4
f 309/8/4 294/8/4 310/8/4
f 265/11/4 279/11/4 312/11/4
f 279/5/4 295/5/4 313/5/4
f 312/11/4 279/11/4 313/11/4
f 295/5/4 296/5/4 313/5/4
f 296/5/4 297/5/4 313/5/4
f 313/5/4 297/5/4 314/5/4
f 297/4/4 298/4/4 315/4/4
f 314/5/4 297/5/4 315/5/4
f 298/3/4 299/3/4 316/3/4
f 315/4/4 298/4/4 316/4/4
f 299/4/4 300/4/4 317/4/4
f 316/3/4 299/3/4 317/3/4
f 300/3/4 301/3/4 318/3/4
f 317/4/4 300/4/4 318/4/4
f 301/4/4 302/4/4 319/4/4
f 318/3/4 301/3/4 319/3/4
f 302/3/4 303/3/4 320/3/4
f 319/4/4 302/4/4 320/4/4
f 303/4/4 304/4/4 321/4/4
f 320/3/4 303/3/4 321/3/4
f 304/3/4 305/3/4 322/3/4
f 321/4/4 304/4/4 322/4/4
f 305/1/4 306/1/4 323/1/4
f 322/3/4 305/3/4 323/3/4
f 306/1/4 307/1/4 323/1/4
f 323/1/4 307/1/4 324/1/4
f 324/1/4 307/1/4 325/1/4
f 325/1/4 307/1/4 326/1/4
f 307/9/4 308/9/4 327/9/4
f 326/1/4 307/1/4 327/1/4
f 309/1/4 310/1/4 328/1/4
f 327/9/4 308/9/4 328/9/4
f 308/1/4 309/1/4 328/1/4
f 310/1/4 311/1/4 328/1/4
f 314/5/4 315/5/4 329/5/4
f 329/5/4 315/5/4 330/5/4
f 323/1/4 324/1/4 331/1/4
f 322/1/4 323/1/4 331/1/4
f 324/12/4 325/12/4 332/12/4
f 331/1/4 324/1/4 332/1/4
f 325/1/4 326/1/4 333/1/4
f 332/12/4 325/12/4 333/12/4
f 326/12/4 327/12/4 334/12/4
f 333/1/4 326/1/4 334/1/4
f 327/8/4 328/8/4 335/8/4
f 334/12/4 327/12/4 335/12/4
f 328/1/4 311/1/4 336/1/4
f 335/8/4 328/8/4 336/8/4
f 330/5/4 315/5/4 338/5/4
f 331/12/4 332/12/4 339/12/4
f 322/1/4 331/1/4 339/1/4
f 332/1/4 333/1/4 340/1/4
f 339/12/4 332/12/4 340/12/4
f 334/1/4 335/1/4 340/1/4
f 333/1/4 334/1/4 340/1/4
f 335/1/4 336/1/4 340/1/4
f 340/1/4 336/1/4 341/1/4
f 341/1/4 336/1/4 342/1/4
f 342/1/4 336/1/4 343/1/4
f 336/1/4 311/1/4 344/1/4
f 343/1/4 336/1/4 344/1/4
f 337/5/4 338/5/4 347/5/4
f 338/5/4 315/5/4 348/5/4
f 315/11/4 316/11/4 348/11/4
f 347/5/4 338/5/4 348/5/4
f 320/7/4 321/7/4 349/7/4
f 348/11/4 316/11/4 349/11/4
f 319/7/4 320/7/4 349/7/4
f 317/7/4 318/7/4 349/7/4
f 318/7/4 319/7/4 349/7/4
f 316/7/4 317/7/4 349/7/4
f 321/7/4 322/7/4 349/7/4
f 349/7/4 322/7/4 350/7/4
f 350/7/4 322/7/4 351/7/4
f 351/7/4 322/7/4 352/7/4
f 352/7/4 322/7/4 353/7/4
f 353/7/4 322/7/4 354/7/4
f 322/1/4 339/1/4 355/1/4
f 354/7/4 322/7/4 355/7/4
f 339/1/4 340/1/4 355/1/4
f 355/1/4 340/1/4 356/1/4
f 340/12/4 341/12/4 357/12/4
f 356/1/4 340/1/4 357/1/4
f 341/1/4 342/1/4 358/1/4
f 357/12/4 341/12/4 358/12/4
f 342/12/4 343/12/4 359/12/4
f 358/1/4 342/1/4 359/1/4
f 343/8/4 344/8/4 360/8/4
f 359/12/4 343/12/4 360/12/4
f 344/1/4 311/1/4 361/1/4
f 360/8/4 344/8/4 361/8/4
f 347/5/4 348/5/4 362/5/4
f 346/5/4 347/5/4 362/5/4
f 362/5/4 348/5/4 363/5/4
f 348/4/4 349/4/4 364/4/4
f 363/5/4 348/5/4 364/5/4
f 349/3/4 350/3/4 365/3/4
f 364/4/4 349/4/4 365/4/4
f 350/4/4 351/4/4 366/4/4
f 365/3/4 350/3/4 366/3/4
f 351/3/4 352/3/4 367/3/4
f 366/4/4 351/4/4 367/4/4
f 352/4/4 353/4/4 368/4/4
f 367/3/4 352/3/4 368/3/4
f 353/3/4 354/3/4 369/3/4
f 368/4/4 353/4/4 369/4/4
f 354/4/4 355/4/4 370/4/4
f 369/3/4 354/3/4 370/3/4
f 355/3/4 356/3/4 371/3/4
f 370/4/4 355/4/4 371/4/4
f 359/1/4 360/1/4 372/1/4
f 371/3/4 356/3/4 372/3/4
f 358/1/4 359/1/4 372/1/4
f 357/1/4 358/1/4 372/1/4
f 356/1/4 357/1/4 372/1/4
f 372/1/4 360/1/4 373/1/4
f 360/9/4 361/9/4 374/9/4
f 373/1/4 360/1/4 374/1/4
f 361/1/4 311/1/4 375/1/4
f 374/9/4 361/9/4 375/9/4
f 375/1/4 311/1/4 376/1/4
f 376/1/4 311/1/4 377/1/4
f 377/1/4 311/1/4 378/1/4
f 345/11/4 346/11/4 379/11/4
f 346/5/4 362/5/4 379/5/4
f 362/6/4 363/6/4 380/6/4
f 379/5/4 362/5/4 380/5/4
f 363/1/4 364/1/4 381/1/4
f 364/2/4 365/2/4 381/2/4
f 365/4/4 366/4/4 382/4/4
f 381/2/4 365/2/4 382/2/4
f 366/3/4 367/3/4 383/3/4
f 382/4/4 366/4/4 383/4/4
f 367/4/4 368/4/4 384/4/4
f 383/3/4 367/3/4 384/3/4
f 368/3/4 369/3/4 385/3/4
f 384/4/4 368/4/4 385/4/4
f 369/4/4 370/4/4 386/4/4
f 385/3/4 369/3/4 386/3/4
f 370/3/4 371/3/4 387/3/4
f 386/4/4 370/4/4 387/4/4
f 387/3/4 371/3/4 388/3/4
f 373/1/4 374/1/4 389/1/4
f 375/1/4 376/1/4 389/1/4
f 374/1/4 375/1/4 389/1/4
f 389/1/4 376/1/4 390/1/4
f 390/1/4 376/1/4 391/1/4
f 391/1/4 376/1/4 392/1/4
f 376/8/4 377/8/4 393/8/4
f 392/1/4 376/1/4 393/1/4
f 393/8/4 377/8/4 394/8/4
f 345/11/4 379/11/4 395/11/4
f 379/6/4 380/6/4 395/6/4
f 363/1/4 381/1/4 396/1/4
f 395/6/4 380/6/4 396/6/4
f 381/1/4 382/1/4 396/1/4
f 380/6/4 363/6/4 396/6/4
f 382/3/4 383/3/4 397/3/4
f 396/1/4 382/1/4 397/1/4
f 383/4/4 384/4/4 398/4/4
f 397/3/4 383/3/4 398/3/4
f 384/3/4 385/3/4 399/3/4
f 398/4/4 384/4/4 399/4/4
f 385/4/4 386/4/4 400/4/4
f 399/3/4 385/3/4 400/3/4
f 386/3/4 387/3/4 401/3/4
f 400/4/4 386/4/4 401/4/4
f 401/3/4 387/3/4 402/3/4
f 390/10/4 391/10/4 403/10/4
f 391/9/4 392/9/4 404/9/4
f 403/10/4 391/10/4 404/10/4
f 392/8/4 393/8/4 405/8/4
f 404/9/4 392/9/4 405/9/4
f 405/8/4 393/8/4 406/8/4
f 345/11/4 395/11/4 407/11/4
f 407/11/4 395/11/4 408/11/4
f 413/11/5 410/11/5 409/11/5
f 414/11/5 410/11/5 413/11/5
f 415/11/5 412/11/5 411/11/5
f 416/11/5 412/11/5 415/11/5
f 421/5/5 418/5/5 417/5/5
f 422/5/5 418/5/5 421/5/5
f 423/5/5 420/5/5 419/5/5
f 424/5/5 420/5/5 423/5/5
f 427/5/5 426/5/5 425/5/5
f 428/5/5 426/5/5 427/5/5
f 433/1/5 430/1/5 429/1/5
f 434/1/5 430/1/5 433/1/5
f 435/1/5 432/1/5 431/1/5
f 436/1/5 432/1/5 435/1/5
f 441/10/5 438/10/5 437/10/5
f 442/10/5 438/10/5 441/10/5
f 443/10/5 440/10/5 439/10/5
f 444/10/5 440/10/5 443/10/5
f 445/11/6 446/11/6 449/11/6
f 449/11/6 446/11/6 450/11/6
f 447/11/6 448/11/6 451/11/6
f 451/11/6 448/11/6 452/11/6
f 453/3/6 454/3/6 457/3/6
f 457/3/6 454/3/6 458/3/6
f 455/3/6 456/3/6 459/3/6
f 459/3/6 456/3/6 460/3/6
f 461/3/6 462/3/6 465/3/6
f 465/3/6 462/3/6 466/3/6
f 463/3/6 464/3/6 467/3/6
f 467/3/6 464/3/6 468/3/6
f 469/8/6 470/8/6 473/8/6
f 473/8/6 470/8/6 474/8/6
f 471/8/6 472/8/6 475/8/6
f 475/8/6 472/8/6 476/8/6
f 477/8/6 478/8/6 481/8/6
f 481/8/6 478/8/6 482/8/6
f 479/8/6 480/8/6 483/8/6
f 483/8/6 480/8/6 484/8/6
f 485/1/6 486/1/6 487/1/6
f 487/1/6 486/1/6 488/1/6
