# MagicaVoxel @ Ephtracy

# group
o 

# material
mtllib girl death.mtl
usemtl palette

# normals
vn -1 0 0
vn 1 0 0
vn 0 0 1
vn 0 0 -1
vn 0 -1 0
vn 0 1 0

# texcoords
vt 0.0566406 0.5
vt 0.0605469 0.5
vt 0.525391 0.5
vt 0.810547 0.5
vt 0.841797 0.5
vt 0.865234 0.5
vt 0.994141 0.5

# verts
v -0.7 0.2 2.23517e-008
v -0.7 0.2 -0.1
v -0.7 0.4 2.23517e-008
v -0.7 0.4 -0.1
v -0.6 0.1 2.23517e-008
v -0.6 0.1 -0.1
v -0.6 0.2 2.23517e-008
v -0.6 0.2 -0.1
v -0.6 0.4 2.23517e-008
v -0.6 0.4 -0.1
v -0.6 0.5 2.23517e-008
v -0.6 0.5 -0.1
v -0.5 0 2.23517e-008
v -0.5 0 -0.1
v -0.5 0.1 2.23517e-008
v -0.5 0.1 -0.1
v -0.4 0.5 2.23517e-008
v -0.4 0.5 -0.1
v -0.4 0.6 2.23517e-008
v -0.4 0.6 -0.1
v -0.3 0.6 2.23517e-008
v -0.3 0.6 -0.1
v -0.3 0.7 2.23517e-008
v -0.3 0.7 -0.1
v 0.1 0 2.23517e-008
v 0.1 0 -0.1
v 0.1 0.1 2.23517e-008
v 0.1 0.1 -0.1
v -0.1 0 2.23517e-008
v -0.1 0 -0.1
v -0.1 0.1 2.23517e-008
v -0.1 0.1 -0.1
v 0.3 0.6 2.23517e-008
v 0.3 0.6 -0.1
v 0.3 0.7 2.23517e-008
v 0.3 0.7 -0.1
v 0.4 0.5 2.23517e-008
v 0.4 0.5 -0.1
v 0.4 0.6 2.23517e-008
v 0.4 0.6 -0.1
v 0.5 0 2.23517e-008
v 0.5 0 -0.1
v 0.5 0.1 2.23517e-008
v 0.5 0.1 -0.1
v 0.6 0.1 2.23517e-008
v 0.6 0.1 -0.1
v 0.6 0.2 2.23517e-008
v 0.6 0.2 -0.1
v 0.6 0.4 2.23517e-008
v 0.6 0.4 -0.1
v 0.6 0.5 2.23517e-008
v 0.6 0.5 -0.1
v 0.7 0.2 2.23517e-008
v 0.7 0.2 -0.1
v 0.7 0.4 2.23517e-008
v 0.7 0.4 -0.1
v -0.7 0.2 2.23517e-008
v -0.7 0.4 2.23517e-008
v -0.6 0.1 2.23517e-008
v -0.6 0.2 2.23517e-008
v -0.6 0.3 2.23517e-008
v -0.6 0.4 2.23517e-008
v -0.6 0.5 2.23517e-008
v -0.5 0 2.23517e-008
v -0.5 0.1 2.23517e-008
v -0.5 0.2 2.23517e-008
v -0.5 0.3 2.23517e-008
v -0.5 0.4 2.23517e-008
v -0.4 0.2 2.23517e-008
v -0.4 0.3 2.23517e-008
v -0.4 0.4 2.23517e-008
v -0.4 0.5 2.23517e-008
v -0.4 0.6 2.23517e-008
v -0.3 0.4 2.23517e-008
v -0.3 0.5 2.23517e-008
v -0.3 0.6 2.23517e-008
v -0.3 0.7 2.23517e-008
v -0.2 0.2 2.23517e-008
v -0.2 0.3 2.23517e-008
v -0.2 0.4 2.23517e-008
v -0.1 0 2.23517e-008
v -0.1 0.1 2.23517e-008
v -0.1 0.2 2.23517e-008
v -0.1 0.3 2.23517e-008
v -0.1 0.4 2.23517e-008
v 0.1 0 2.23517e-008
v 0.1 0.1 2.23517e-008
v 0.1 0.2 2.23517e-008
v 0.1 0.3 2.23517e-008
v 0.1 0.4 2.23517e-008
v 0.2 0.2 2.23517e-008
v 0.2 0.3 2.23517e-008
v 0.2 0.4 2.23517e-008
v 0.3 0.4 2.23517e-008
v 0.3 0.5 2.23517e-008
v 0.3 0.6 2.23517e-008
v 0.3 0.7 2.23517e-008
v 0.4 0.2 2.23517e-008
v 0.4 0.3 2.23517e-008
v 0.4 0.4 2.23517e-008
v 0.4 0.5 2.23517e-008
v 0.4 0.6 2.23517e-008
v 0.5 0 2.23517e-008
v 0.5 0.1 2.23517e-008
v 0.5 0.2 2.23517e-008
v 0.5 0.3 2.23517e-008
v 0.5 0.4 2.23517e-008
v 0.6 0.1 2.23517e-008
v 0.6 0.2 2.23517e-008
v 0.6 0.3 2.23517e-008
v 0.6 0.4 2.23517e-008
v 0.6 0.5 2.23517e-008
v 0.7 0.2 2.23517e-008
v 0.7 0.4 2.23517e-008
v -0.7 0.2 -0.1
v -0.7 0.4 -0.1
v -0.6 0.1 -0.1
v -0.6 0.2 -0.1
v -0.6 0.3 -0.1
v -0.6 0.4 -0.1
v -0.6 0.5 -0.1
v -0.5 0 -0.1
v -0.5 0.1 -0.1
v -0.5 0.2 -0.1
v -0.5 0.3 -0.1
v -0.5 0.4 -0.1
v -0.4 0.2 -0.1
v -0.4 0.3 -0.1
v -0.4 0.4 -0.1
v -0.4 0.5 -0.1
v -0.4 0.6 -0.1
v -0.3 0.4 -0.1
v -0.3 0.5 -0.1
v -0.3 0.6 -0.1
v -0.3 0.7 -0.1
v -0.2 0.2 -0.1
v -0.2 0.3 -0.1
v -0.2 0.4 -0.1
v -0.1 0 -0.1
v -0.1 0.1 -0.1
v -0.1 0.2 -0.1
v -0.1 0.3 -0.1
v -0.1 0.4 -0.1
v 0.1 0 -0.1
v 0.1 0.1 -0.1
v 0.1 0.2 -0.1
v 0.1 0.3 -0.1
v 0.1 0.4 -0.1
v 0.2 0.2 -0.1
v 0.2 0.3 -0.1
v 0.2 0.4 -0.1
v 0.3 0.4 -0.1
v 0.3 0.5 -0.1
v 0.3 0.6 -0.1
v 0.3 0.7 -0.1
v 0.4 0.2 -0.1
v 0.4 0.3 -0.1
v 0.4 0.4 -0.1
v 0.4 0.5 -0.1
v 0.4 0.6 -0.1
v 0.5 0 -0.1
v 0.5 0.1 -0.1
v 0.5 0.2 -0.1
v 0.5 0.3 -0.1
v 0.5 0.4 -0.1
v 0.6 0.1 -0.1
v 0.6 0.2 -0.1
v 0.6 0.3 -0.1
v 0.6 0.4 -0.1
v 0.6 0.5 -0.1
v 0.7 0.2 -0.1
v 0.7 0.4 -0.1
v -0.5 0 2.23517e-008
v -0.1 0 2.23517e-008
v 0.1 0 2.23517e-008
v 0.5 0 2.23517e-008
v -0.5 0 -0.1
v -0.1 0 -0.1
v 0.1 0 -0.1
v 0.5 0 -0.1
v -0.6 0.1 2.23517e-008
v -0.5 0.1 2.23517e-008
v -0.1 0.1 2.23517e-008
v 0.1 0.1 2.23517e-008
v 0.5 0.1 2.23517e-008
v 0.6 0.1 2.23517e-008
v -0.6 0.1 -0.1
v -0.5 0.1 -0.1
v -0.1 0.1 -0.1
v 0.1 0.1 -0.1
v 0.5 0.1 -0.1
v 0.6 0.1 -0.1
v -0.7 0.2 2.23517e-008
v -0.6 0.2 2.23517e-008
v 0.6 0.2 2.23517e-008
v 0.7 0.2 2.23517e-008
v -0.7 0.2 -0.1
v -0.6 0.2 -0.1
v 0.6 0.2 -0.1
v 0.7 0.2 -0.1
v -0.7 0.4 2.23517e-008
v -0.6 0.4 2.23517e-008
v 0.6 0.4 2.23517e-008
v 0.7 0.4 2.23517e-008
v -0.7 0.4 -0.1
v -0.6 0.4 -0.1
v 0.6 0.4 -0.1
v 0.7 0.4 -0.1
v -0.6 0.5 2.23517e-008
v -0.4 0.5 2.23517e-008
v 0.4 0.5 2.23517e-008
v 0.6 0.5 2.23517e-008
v -0.6 0.5 -0.1
v -0.4 0.5 -0.1
v 0.4 0.5 -0.1
v 0.6 0.5 -0.1
v -0.4 0.6 2.23517e-008
v -0.3 0.6 2.23517e-008
v 0.3 0.6 2.23517e-008
v 0.4 0.6 2.23517e-008
v -0.4 0.6 -0.1
v -0.3 0.6 -0.1
v 0.3 0.6 -0.1
v 0.4 0.6 -0.1
v -0.3 0.7 2.23517e-008
v 0.3 0.7 2.23517e-008
v -0.3 0.7 -0.1
v 0.3 0.7 -0.1

# faces
f 3/6/1 2/6/1 1/6/1
f 4/6/1 2/6/1 3/6/1
f 7/4/1 6/4/1 5/4/1
f 8/4/1 6/4/1 7/4/1
f 11/6/1 10/6/1 9/6/1
f 12/6/1 10/6/1 11/6/1
f 15/7/1 14/7/1 13/7/1
f 16/7/1 14/7/1 15/7/1
f 19/7/1 18/7/1 17/7/1
f 20/7/1 18/7/1 19/7/1
f 23/7/1 22/7/1 21/7/1
f 24/7/1 22/7/1 23/7/1
f 27/7/1 26/7/1 25/7/1
f 28/7/1 26/7/1 27/7/1
f 29/7/2 30/7/2 31/7/2
f 31/7/2 30/7/2 32/7/2
f 33/7/2 34/7/2 35/7/2
f 35/7/2 34/7/2 36/7/2
f 37/7/2 38/7/2 39/7/2
f 39/7/2 38/7/2 40/7/2
f 41/7/2 42/7/2 43/7/2
f 43/7/2 42/7/2 44/7/2
f 45/4/2 46/4/2 47/4/2
f 47/4/2 46/4/2 48/4/2
f 49/6/2 50/6/2 51/6/2
f 51/6/2 50/6/2 52/6/2
f 53/6/2 54/6/2 55/6/2
f 55/6/2 54/6/2 56/6/2
f 60/6/3 58/6/3 57/6/3
f 61/6/3 58/6/3 60/6/3
f 62/6/3 58/6/3 61/6/3
f 65/4/3 60/4/3 59/4/3
f 66/2/3 61/2/3 60/2/3
f 66/4/3 60/4/3 65/4/3
f 67/1/3 62/1/3 61/1/3
f 67/2/3 61/2/3 66/2/3
f 68/6/3 63/6/3 62/6/3
f 68/1/3 62/1/3 67/1/3
f 69/4/3 67/4/3 66/4/3
f 69/3/3 66/3/3 65/3/3
f 70/6/3 68/6/3 67/6/3
f 70/4/3 67/4/3 69/4/3
f 71/6/3 63/6/3 68/6/3
f 71/6/3 68/6/3 70/6/3
f 72/6/3 63/6/3 71/6/3
f 74/4/3 71/4/3 70/4/3
f 74/6/3 72/6/3 71/6/3
f 75/7/3 73/7/3 72/7/3
f 75/6/3 72/6/3 74/6/3
f 76/7/3 73/7/3 75/7/3
f 78/3/3 70/3/3 69/3/3
f 78/3/3 69/3/3 65/3/3
f 79/4/3 74/4/3 70/4/3
f 79/3/3 70/3/3 78/3/3
f 80/5/3 75/5/3 74/5/3
f 80/4/3 74/4/3 79/4/3
f 81/7/3 65/7/3 64/7/3
f 82/3/3 78/3/3 65/3/3
f 82/7/3 65/7/3 81/7/3
f 83/4/3 79/4/3 78/4/3
f 83/3/3 78/3/3 82/3/3
f 84/3/3 80/3/3 79/3/3
f 84/4/3 79/4/3 83/4/3
f 85/5/3 75/5/3 80/5/3
f 85/3/3 80/3/3 84/3/3
f 87/7/3 83/7/3 82/7/3
f 88/3/3 84/3/3 83/3/3
f 88/7/3 83/7/3 87/7/3
f 89/6/3 85/6/3 84/6/3
f 89/3/3 84/3/3 88/3/3
f 90/5/3 75/5/3 85/5/3
f 90/6/3 85/6/3 89/6/3
f 91/4/3 89/4/3 88/4/3
f 91/3/3 88/3/3 87/3/3
f 92/3/3 90/3/3 89/3/3
f 92/4/3 89/4/3 91/4/3
f 93/5/3 75/5/3 90/5/3
f 93/3/3 90/3/3 92/3/3
f 94/4/3 93/4/3 92/4/3
f 94/5/3 75/5/3 93/5/3
f 95/6/3 76/6/3 75/6/3
f 95/5/3 75/5/3 94/5/3
f 96/7/3 77/7/3 76/7/3
f 96/6/3 76/6/3 95/6/3
f 97/7/3 77/7/3 96/7/3
f 98/3/3 92/3/3 91/3/3
f 98/3/3 91/3/3 87/3/3
f 99/4/3 94/4/3 92/4/3
f 99/3/3 92/3/3 98/3/3
f 100/6/3 95/6/3 94/6/3
f 100/4/3 94/4/3 99/4/3
f 101/7/3 96/7/3 95/7/3
f 101/6/3 95/6/3 100/6/3
f 102/7/3 96/7/3 101/7/3
f 103/7/3 87/7/3 86/7/3
f 104/3/3 98/3/3 87/3/3
f 104/7/3 87/7/3 103/7/3
f 105/4/3 99/4/3 98/4/3
f 105/3/3 98/3/3 104/3/3
f 106/6/3 100/6/3 99/6/3
f 106/4/3 99/4/3 105/4/3
f 106/6/3 101/6/3 100/6/3
f 107/6/3 101/6/3 106/6/3
f 108/4/3 105/4/3 104/4/3
f 109/2/3 106/2/3 105/2/3
f 109/4/3 105/4/3 108/4/3
f 110/1/3 107/1/3 106/1/3
f 110/2/3 106/2/3 109/2/3
f 111/6/3 101/6/3 107/6/3
f 111/1/3 107/1/3 110/1/3
f 112/6/3 101/6/3 111/6/3
f 113/6/3 110/6/3 109/6/3
f 113/6/3 111/6/3 110/6/3
f 114/6/3 111/6/3 113/6/3
f 115/6/4 116/6/4 118/6/4
f 118/6/4 116/6/4 119/6/4
f 119/6/4 116/6/4 120/6/4
f 117/4/4 118/4/4 123/4/4
f 118/2/4 119/2/4 124/2/4
f 123/4/4 118/4/4 124/4/4
f 119/1/4 120/1/4 125/1/4
f 124/2/4 119/2/4 125/2/4
f 120/6/4 121/6/4 126/6/4
f 125/1/4 120/1/4 126/1/4
f 124/4/4 125/4/4 127/4/4
f 123/3/4 124/3/4 127/3/4
f 125/6/4 126/6/4 128/6/4
f 127/4/4 125/4/4 128/4/4
f 126/6/4 121/6/4 129/6/4
f 128/6/4 126/6/4 129/6/4
f 129/6/4 121/6/4 130/6/4
f 128/4/4 129/4/4 132/4/4
f 129/6/4 130/6/4 132/6/4
f 130/7/4 131/7/4 133/7/4
f 132/6/4 130/6/4 133/6/4
f 133/7/4 131/7/4 134/7/4
f 127/3/4 128/3/4 136/3/4
f 123/3/4 127/3/4 136/3/4
f 128/4/4 132/4/4 137/4/4
f 136/3/4 128/3/4 137/3/4
f 132/5/4 133/5/4 138/5/4
f 137/4/4 132/4/4 138/4/4
f 122/7/4 123/7/4 139/7/4
f 123/3/4 136/3/4 140/3/4
f 139/7/4 123/7/4 140/7/4
f 136/4/4 137/4/4 141/4/4
f 140/3/4 136/3/4 141/3/4
f 137/3/4 138/3/4 142/3/4
f 141/4/4 137/4/4 142/4/4
f 138/5/4 133/5/4 143/5/4
f 142/3/4 138/3/4 143/3/4
f 140/7/4 141/7/4 145/7/4
f 141/3/4 142/3/4 146/3/4
f 145/7/4 141/7/4 146/7/4
f 142/6/4 143/6/4 147/6/4
f 146/3/4 142/3/4 147/3/4
f 143/5/4 133/5/4 148/5/4
f 147/6/4 143/6/4 148/6/4
f 146/4/4 147/4/4 149/4/4
f 145/3/4 146/3/4 149/3/4
f 147/3/4 148/3/4 150/3/4
f 149/4/4 147/4/4 150/4/4
f 148/5/4 133/5/4 151/5/4
f 150/3/4 148/3/4 151/3/4
f 150/4/4 151/4/4 152/4/4
f 151/5/4 133/5/4 152/5/4
f 133/6/4 134/6/4 153/6/4
f 152/5/4 133/5/4 153/5/4
f 134/7/4 135/7/4 154/7/4
f 153/6/4 134/6/4 154/6/4
f 154/7/4 135/7/4 155/7/4
f 149/3/4 150/3/4 156/3/4
f 145/3/4 149/3/4 156/3/4
f 150/4/4 152/4/4 157/4/4
f 156/3/4 150/3/4 157/3/4
f 152/6/4 153/6/4 158/6/4
f 157/4/4 152/4/4 158/4/4
f 153/7/4 154/7/4 159/7/4
f 158/6/4 153/6/4 159/6/4
f 159/7/4 154/7/4 160/7/4
f 144/7/4 145/7/4 161/7/4
f 145/3/4 156/3/4 162/3/4
f 161/7/4 145/7/4 162/7/4
f 156/4/4 157/4/4 163/4/4
f 162/3/4 156/3/4 163/3/4
f 157/6/4 158/6/4 164/6/4
f 163/4/4 157/4/4 164/4/4
f 158/6/4 159/6/4 164/6/4
f 164/6/4 159/6/4 165/6/4
f 162/4/4 163/4/4 166/4/4
f 163/2/4 164/2/4 167/2/4
f 166/4/4 163/4/4 167/4/4
f 164/1/4 165/1/4 168/1/4
f 167/2/4 164/2/4 168/2/4
f 165/6/4 159/6/4 169/6/4
f 168/1/4 165/1/4 169/1/4
f 169/6/4 159/6/4 170/6/4
f 167/6/4 168/6/4 171/6/4
f 168/6/4 169/6/4 171/6/4
f 171/6/4 169/6/4 172/6/4
f 177/7/5 174/7/5 173/7/5
f 178/7/5 174/7/5 177/7/5
f 179/7/5 176/7/5 175/7/5
f 180/7/5 176/7/5 179/7/5
f 187/4/5 182/4/5 181/4/5
f 188/4/5 182/4/5 187/4/5
f 189/7/5 184/7/5 183/7/5
f 190/7/5 184/7/5 189/7/5
f 191/4/5 186/4/5 185/4/5
f 192/4/5 186/4/5 191/4/5
f 197/6/5 194/6/5 193/6/5
f 198/6/5 194/6/5 197/6/5
f 199/6/5 196/6/5 195/6/5
f 200/6/5 196/6/5 199/6/5
f 201/6/6 202/6/6 205/6/6
f 205/6/6 202/6/6 206/6/6
f 203/6/6 204/6/6 207/6/6
f 207/6/6 204/6/6 208/6/6
f 209/6/6 210/6/6 213/6/6
f 213/6/6 210/6/6 214/6/6
f 211/6/6 212/6/6 215/6/6
f 215/6/6 212/6/6 216/6/6
f 217/7/6 218/7/6 221/7/6
f 221/7/6 218/7/6 222/7/6
f 219/7/6 220/7/6 223/7/6
f 223/7/6 220/7/6 224/7/6
f 225/7/6 226/7/6 227/7/6
f 227/7/6 226/7/6 228/7/6
