# MagicaVoxel @ Ephtracy

# group
o 

# material
mtllib grandpa death.mtl
usemtl palette

# normals
vn -1 0 0
vn 1 0 0
vn 0 0 1
vn 0 0 -1
vn 0 -1 0
vn 0 1 0

# texcoords
vt 0.208984 0.5
vt 0.794922 0.5
vt 0.818359 0.5
vt 0.830078 0.5
vt 0.951172 0.5
vt 0.955078 0.5
vt 0.962891 0.5
vt 0.966797 0.5
vt 0.994141 0.5

# verts
v -0.6 0 0.0999999
v -0.6 0 -7.45058e-008
v -0.6 0.1 0.0999999
v -0.6 0.1 -7.45058e-008
v -0.5 0.1 0.0999999
v -0.5 0.1 -7.45058e-008
v -0.5 0.2 0.0999999
v -0.5 0.2 -7.45058e-008
v -0.5 0.3 0.0999999
v -0.5 0.3 -7.45058e-008
v -0.4 0.3 0.0999999
v -0.4 0.3 -7.45058e-008
v -0.4 0.4 0.0999999
v -0.4 0.4 -7.45058e-008
v -0.2 0.4 0.0999999
v -0.2 0.4 -7.45058e-008
v -0.2 0.5 0.0999999
v -0.2 0.5 -7.45058e-008
v 0.1 0 0.0999999
v 0.1 0 -7.45058e-008
v 0.1 0.1 0.0999999
v 0.1 0.1 -7.45058e-008
v 5.96046e-008 0 0.0999999
v 5.96046e-008 0 -7.45058e-008
v 5.96046e-008 0.1 0.0999999
v 5.96046e-008 0.1 -7.45058e-008
v 0.3 0.4 0.0999999
v 0.3 0.4 -7.45058e-008
v 0.3 0.5 0.0999999
v 0.3 0.5 -7.45058e-008
v 0.5 0.3 0.0999999
v 0.5 0.3 -7.45058e-008
v 0.5 0.4 0.0999999
v 0.5 0.4 -7.45058e-008
v 0.6 0.1 0.0999999
v 0.6 0.1 -7.45058e-008
v 0.6 0.2 0.0999999
v 0.6 0.2 -7.45058e-008
v 0.6 0.3 0.0999999
v 0.6 0.3 -7.45058e-008
v 0.7 0 0.0999999
v 0.7 0 -7.45058e-008
v 0.7 0.1 0.0999999
v 0.7 0.1 -7.45058e-008
v -0.6 0 0.0999999
v -0.6 0.1 0.0999999
v -0.5 0.1 0.0999999
v -0.5 0.2 0.0999999
v -0.5 0.3 0.0999999
v -0.4 0 0.0999999
v -0.4 0.1 0.0999999
v -0.4 0.2 0.0999999
v -0.4 0.3 0.0999999
v -0.4 0.4 0.0999999
v -0.3 0.1 0.0999999
v -0.3 0.2 0.0999999
v -0.3 0.3 0.0999999
v -0.3 0.4 0.0999999
v -0.2 0.3 0.0999999
v -0.2 0.4 0.0999999
v -0.2 0.5 0.0999999
v -0.0999999 0.1 0.0999999
v -0.0999999 0.2 0.0999999
v -0.0999999 0.3 0.0999999
v 5.96046e-008 0 0.0999999
v 5.96046e-008 0.1 0.0999999
v 0.1 0 0.0999999
v 0.1 0.1 0.0999999
v 0.2 0.1 0.0999999
v 0.2 0.2 0.0999999
v 0.2 0.3 0.0999999
v 0.3 0.3 0.0999999
v 0.3 0.4 0.0999999
v 0.3 0.5 0.0999999
v 0.4 0.1 0.0999999
v 0.4 0.2 0.0999999
v 0.4 0.3 0.0999999
v 0.4 0.4 0.0999999
v 0.5 0 0.0999999
v 0.5 0.1 0.0999999
v 0.5 0.2 0.0999999
v 0.5 0.3 0.0999999
v 0.5 0.4 0.0999999
v 0.6 0.1 0.0999999
v 0.6 0.2 0.0999999
v 0.6 0.3 0.0999999
v 0.7 0 0.0999999
v 0.7 0.1 0.0999999
v -0.6 0 -7.45058e-008
v -0.6 0.1 -7.45058e-008
v -0.5 0.1 -7.45058e-008
v -0.5 0.2 -7.45058e-008
v -0.5 0.3 -7.45058e-008
v -0.4 0 -7.45058e-008
v -0.4 0.1 -7.45058e-008
v -0.4 0.2 -7.45058e-008
v -0.4 0.3 -7.45058e-008
v -0.4 0.4 -7.45058e-008
v -0.3 0.1 -7.45058e-008
v -0.3 0.2 -7.45058e-008
v -0.3 0.3 -7.45058e-008
v -0.3 0.4 -7.45058e-008
v -0.2 0.3 -7.45058e-008
v -0.2 0.4 -7.45058e-008
v -0.2 0.5 -7.45058e-008
v -0.0999999 0.1 -7.45058e-008
v -0.0999999 0.2 -7.45058e-008
v -0.0999999 0.3 -7.45058e-008
v 5.96046e-008 0 -7.45058e-008
v 5.96046e-008 0.1 -7.45058e-008
v 0.1 0 -7.45058e-008
v 0.1 0.1 -7.45058e-008
v 0.2 0.1 -7.45058e-008
v 0.2 0.2 -7.45058e-008
v 0.2 0.3 -7.45058e-008
v 0.3 0.3 -7.45058e-008
v 0.3 0.4 -7.45058e-008
v 0.3 0.5 -7.45058e-008
v 0.4 0.1 -7.45058e-008
v 0.4 0.2 -7.45058e-008
v 0.4 0.3 -7.45058e-008
v 0.4 0.4 -7.45058e-008
v 0.5 0 -7.45058e-008
v 0.5 0.1 -7.45058e-008
v 0.5 0.2 -7.45058e-008
v 0.5 0.3 -7.45058e-008
v 0.5 0.4 -7.45058e-008
v 0.6 0.1 -7.45058e-008
v 0.6 0.2 -7.45058e-008
v 0.6 0.3 -7.45058e-008
v 0.7 0 -7.45058e-008
v 0.7 0.1 -7.45058e-008
v -0.6 0 0.0999999
v -0.4 0 0.0999999
v 5.96046e-008 0 0.0999999
v 0.1 0 0.0999999
v 0.5 0 0.0999999
v 0.7 0 0.0999999
v -0.6 0 -7.45058e-008
v -0.4 0 -7.45058e-008
v 5.96046e-008 0 -7.45058e-008
v 0.1 0 -7.45058e-008
v 0.5 0 -7.45058e-008
v 0.7 0 -7.45058e-008
v 5.96046e-008 0.1 0.0999999
v 0.1 0.1 0.0999999
v 5.96046e-008 0.1 -7.45058e-008
v 0.1 0.1 -7.45058e-008
v -0.6 0.1 0.0999999
v -0.5 0.1 0.0999999
v 0.6 0.1 0.0999999
v 0.7 0.1 0.0999999
v -0.6 0.1 -7.45058e-008
v -0.5 0.1 -7.45058e-008
v 0.6 0.1 -7.45058e-008
v 0.7 0.1 -7.45058e-008
v -0.5 0.3 0.0999999
v -0.4 0.3 0.0999999
v 0.5 0.3 0.0999999
v 0.6 0.3 0.0999999
v -0.5 0.3 -7.45058e-008
v -0.4 0.3 -7.45058e-008
v 0.5 0.3 -7.45058e-008
v 0.6 0.3 -7.45058e-008
v -0.4 0.4 0.0999999
v -0.3 0.4 0.0999999
v -0.2 0.4 0.0999999
v 0.3 0.4 0.0999999
v 0.4 0.4 0.0999999
v 0.5 0.4 0.0999999
v -0.4 0.4 -7.45058e-008
v -0.3 0.4 -7.45058e-008
v -0.2 0.4 -7.45058e-008
v 0.3 0.4 -7.45058e-008
v 0.4 0.4 -7.45058e-008
v 0.5 0.4 -7.45058e-008
v -0.2 0.5 0.0999999
v 0.3 0.5 0.0999999
v -0.2 0.5 -7.45058e-008
v 0.3 0.5 -7.45058e-008

# faces
f 3/6/1 2/6/1 1/6/1
f 4/6/1 2/6/1 3/6/1
f 7/6/1 6/6/1 5/6/1
f 8/6/1 6/6/1 7/6/1
f 9/3/1 8/3/1 7/3/1
f 10/3/1 8/3/1 9/3/1
f 13/2/1 12/2/1 11/2/1
f 14/2/1 12/2/1 13/2/1
f 17/4/1 16/4/1 15/4/1
f 18/4/1 16/4/1 17/4/1
f 21/9/1 20/9/1 19/9/1
f 22/9/1 20/9/1 21/9/1
f 23/9/2 24/9/2 25/9/2
f 25/9/2 24/9/2 26/9/2
f 27/4/2 28/4/2 29/4/2
f 29/4/2 28/4/2 30/4/2
f 31/3/2 32/3/2 33/3/2
f 33/3/2 32/3/2 34/3/2
f 35/6/2 36/6/2 37/6/2
f 37/6/2 36/6/2 38/6/2
f 37/2/2 38/2/2 39/2/2
f 39/2/2 38/2/2 40/2/2
f 41/6/2 42/6/2 43/6/2
f 43/6/2 42/6/2 44/6/2
f 47/6/3 46/6/3 45/6/3
f 50/6/3 47/6/3 45/6/3
f 50/6/3 48/6/3 47/6/3
f 51/6/3 48/6/3 50/6/3
f 52/3/3 49/3/3 48/3/3
f 52/6/3 48/6/3 51/6/3
f 53/3/3 49/3/3 52/3/3
f 55/9/3 51/9/3 50/9/3
f 55/6/3 52/6/3 51/6/3
f 56/5/3 53/5/3 52/5/3
f 56/6/3 52/6/3 55/6/3
f 57/2/3 54/2/3 53/2/3
f 57/5/3 53/5/3 56/5/3
f 58/2/3 54/2/3 57/2/3
f 59/5/3 57/5/3 56/5/3
f 59/8/3 58/8/3 57/8/3
f 60/8/3 58/8/3 59/8/3
f 62/9/3 56/9/3 55/9/3
f 62/9/3 55/9/3 50/9/3
f 63/5/3 59/5/3 56/5/3
f 63/9/3 56/9/3 62/9/3
f 64/7/3 60/7/3 59/7/3
f 64/5/3 59/5/3 63/5/3
f 65/9/3 62/9/3 50/9/3
f 66/6/3 63/6/3 62/6/3
f 66/9/3 62/9/3 65/9/3
f 68/6/3 63/6/3 66/6/3
f 69/6/3 63/6/3 68/6/3
f 69/9/3 68/9/3 67/9/3
f 70/1/3 64/1/3 63/1/3
f 70/6/3 63/6/3 69/6/3
f 71/7/3 60/7/3 64/7/3
f 71/1/3 64/1/3 70/1/3
f 72/5/3 71/5/3 70/5/3
f 72/7/3 60/7/3 71/7/3
f 73/4/3 61/4/3 60/4/3
f 73/7/3 60/7/3 72/7/3
f 74/4/3 61/4/3 73/4/3
f 75/9/3 70/9/3 69/9/3
f 75/9/3 69/9/3 67/9/3
f 76/5/3 72/5/3 70/5/3
f 76/9/3 70/9/3 75/9/3
f 77/8/3 73/8/3 72/8/3
f 77/5/3 72/5/3 76/5/3
f 78/8/3 73/8/3 77/8/3
f 79/9/3 75/9/3 67/9/3
f 80/6/3 76/6/3 75/6/3
f 80/9/3 75/9/3 79/9/3
f 81/5/3 77/5/3 76/5/3
f 81/6/3 76/6/3 80/6/3
f 82/3/3 78/3/3 77/3/3
f 82/5/3 77/5/3 81/5/3
f 83/3/3 78/3/3 82/3/3
f 84/6/3 80/6/3 79/6/3
f 84/6/3 81/6/3 80/6/3
f 85/2/3 82/2/3 81/2/3
f 85/6/3 81/6/3 84/6/3
f 86/2/3 82/2/3 85/2/3
f 87/6/3 84/6/3 79/6/3
f 88/6/3 84/6/3 87/6/3
f 89/6/4 90/6/4 91/6/4
f 89/6/4 91/6/4 94/6/4
f 91/6/4 92/6/4 94/6/4
f 94/6/4 92/6/4 95/6/4
f 92/3/4 93/3/4 96/3/4
f 95/6/4 92/6/4 96/6/4
f 96/3/4 93/3/4 97/3/4
f 94/9/4 95/9/4 99/9/4
f 95/6/4 96/6/4 99/6/4
f 96/5/4 97/5/4 100/5/4
f 99/6/4 96/6/4 100/6/4
f 97/2/4 98/2/4 101/2/4
f 100/5/4 97/5/4 101/5/4
f 101/2/4 98/2/4 102/2/4
f 100/5/4 101/5/4 103/5/4
f 101/8/4 102/8/4 103/8/4
f 103/8/4 102/8/4 104/8/4
f 99/9/4 100/9/4 106/9/4
f 94/9/4 99/9/4 106/9/4
f 100/5/4 103/5/4 107/5/4
f 106/9/4 100/9/4 107/9/4
f 103/7/4 104/7/4 108/7/4
f 107/5/4 103/5/4 108/5/4
f 94/9/4 106/9/4 109/9/4
f 106/6/4 107/6/4 110/6/4
f 109/9/4 106/9/4 110/9/4
f 110/6/4 107/6/4 112/6/4
f 112/6/4 107/6/4 113/6/4
f 111/9/4 112/9/4 113/9/4
f 107/1/4 108/1/4 114/1/4
f 113/6/4 107/6/4 114/6/4
f 108/7/4 104/7/4 115/7/4
f 114/1/4 108/1/4 115/1/4
f 114/5/4 115/5/4 116/5/4
f 115/7/4 104/7/4 116/7/4
f 104/4/4 105/4/4 117/4/4
f 116/7/4 104/7/4 117/7/4
f 117/4/4 105/4/4 118/4/4
f 113/9/4 114/9/4 119/9/4
f 111/9/4 113/9/4 119/9/4
f 114/5/4 116/5/4 120/5/4
f 119/9/4 114/9/4 120/9/4
f 116/8/4 117/8/4 121/8/4
f 120/5/4 116/5/4 121/5/4
f 121/8/4 117/8/4 122/8/4
f 111/9/4 119/9/4 123/9/4
f 119/6/4 120/6/4 124/6/4
f 123/9/4 119/9/4 124/9/4
f 120/5/4 121/5/4 125/5/4
f 124/6/4 120/6/4 125/6/4
f 121/3/4 122/3/4 126/3/4
f 125/5/4 121/5/4 126/5/4
f 126/3/4 122/3/4 127/3/4
f 123/6/4 124/6/4 128/6/4
f 124/6/4 125/6/4 128/6/4
f 125/2/4 126/2/4 129/2/4
f 128/6/4 125/6/4 129/6/4
f 129/2/4 126/2/4 130/2/4
f 123/6/4 128/6/4 131/6/4
f 131/6/4 128/6/4 132/6/4
f 139/6/5 134/6/5 133/6/5
f 140/9/5 135/9/5 134/9/5
f 140/6/5 134/6/5 139/6/5
f 141/9/5 135/9/5 140/9/5
f 142/9/5 137/9/5 136/9/5
f 143/6/5 138/6/5 137/6/5
f 143/9/5 137/9/5 142/9/5
f 144/6/5 138/6/5 143/6/5
f 147/6/5 146/6/5 145/6/5
f 148/6/5 146/6/5 147/6/5
f 149/6/6 150/6/6 153/6/6
f 153/6/6 150/6/6 154/6/6
f 151/6/6 152/6/6 155/6/6
f 155/6/6 152/6/6 156/6/6
f 157/3/6 158/3/6 161/3/6
f 161/3/6 158/3/6 162/3/6
f 159/2/6 160/2/6 163/2/6
f 163/2/6 160/2/6 164/2/6
f 165/2/6 166/2/6 171/2/6
f 166/8/6 167/8/6 172/8/6
f 171/2/6 166/2/6 172/2/6
f 172/8/6 167/8/6 173/8/6
f 168/8/6 169/8/6 174/8/6
f 169/3/6 170/3/6 175/3/6
f 174/8/6 169/8/6 175/8/6
f 175/3/6 170/3/6 176/3/6
f 177/4/6 178/4/6 179/4/6
f 179/4/6 178/4/6 180/4/6
