# MagicaVoxel @ Ephtracy

# group
o 

# material
mtllib boy death.mtl
usemtl palette

# normals
vn -1 0 0
vn 1 0 0
vn 0 0 1
vn 0 0 -1
vn 0 -1 0
vn 0 1 0

# texcoords
vt 0.462891 0.5
vt 0.509766 0.5
vt 0.681641 0.5
vt 0.689453 0.5
vt 0.994141 0.5

# verts
v -0.6 0 -0.1
v -0.6 0 -0.2
v -0.6 0.2 -0.1
v -0.6 0.2 -0.2
v -0.5 0.2 -0.1
v -0.5 0.2 -0.2
v -0.5 0.3 -0.1
v -0.5 0.3 -0.2
v -0.4 0.3 -0.1
v -0.4 0.3 -0.2
v -0.4 0.4 -0.1
v -0.4 0.4 -0.2
v -0.2 0.4 -0.1
v -0.2 0.4 -0.2
v -0.2 0.5 -0.1
v -0.2 0.5 -0.2
v 0.1 0 -0.1
v 0.1 0 -0.2
v 0.1 0.1 -0.1
v 0.1 0.1 -0.2
v -0.0999999 0 -0.1
v -0.0999999 0 -0.2
v -0.0999999 0.1 -0.1
v -0.0999999 0.1 -0.2
v 0.2 0.4 -0.1
v 0.2 0.4 -0.2
v 0.2 0.5 -0.1
v 0.2 0.5 -0.2
v 0.4 0.3 -0.1
v 0.4 0.3 -0.2
v 0.4 0.4 -0.1
v 0.4 0.4 -0.2
v 0.5 0.2 -0.1
v 0.5 0.2 -0.2
v 0.5 0.3 -0.1
v 0.5 0.3 -0.2
v 0.6 0 -0.1
v 0.6 0 -0.2
v 0.6 0.2 -0.1
v 0.6 0.2 -0.2
v -0.6 0 -0.1
v -0.6 0.2 -0.1
v -0.5 0 -0.1
v -0.5 0.2 -0.1
v -0.5 0.3 -0.1
v -0.4 0 -0.1
v -0.4 0.1 -0.1
v -0.4 0.2 -0.1
v -0.4 0.3 -0.1
v -0.4 0.4 -0.1
v -0.2 0.4 -0.1
v -0.2 0.5 -0.1
v -0.0999999 0 -0.1
v -0.0999999 0.1 -0.1
v -0.0999999 0.2 -0.1
v -0.0999999 0.3 -0.1
v -0.0999999 0.5 -0.1
v 5.96046e-008 0.3 -0.1
v 5.96046e-008 0.4 -0.1
v 0.1 0 -0.1
v 0.1 0.1 -0.1
v 0.1 0.2 -0.1
v 0.1 0.3 -0.1
v 0.1 0.4 -0.1
v 0.1 0.5 -0.1
v 0.2 0.4 -0.1
v 0.2 0.5 -0.1
v 0.4 0 -0.1
v 0.4 0.1 -0.1
v 0.4 0.2 -0.1
v 0.4 0.3 -0.1
v 0.4 0.4 -0.1
v 0.5 0 -0.1
v 0.5 0.2 -0.1
v 0.5 0.3 -0.1
v 0.6 0 -0.1
v 0.6 0.2 -0.1
v -0.6 0 -0.2
v -0.6 0.2 -0.2
v -0.5 0 -0.2
v -0.5 0.2 -0.2
v -0.5 0.3 -0.2
v -0.4 0 -0.2
v -0.4 0.1 -0.2
v -0.4 0.2 -0.2
v -0.4 0.3 -0.2
v -0.4 0.4 -0.2
v -0.2 0.4 -0.2
v -0.2 0.5 -0.2
v -0.0999999 0 -0.2
v -0.0999999 0.1 -0.2
v -0.0999999 0.2 -0.2
v -0.0999999 0.3 -0.2
v -0.0999999 0.5 -0.2
v 5.96046e-008 0.3 -0.2
v 5.96046e-008 0.4 -0.2
v 0.1 0 -0.2
v 0.1 0.1 -0.2
v 0.1 0.2 -0.2
v 0.1 0.3 -0.2
v 0.1 0.4 -0.2
v 0.1 0.5 -0.2
v 0.2 0.4 -0.2
v 0.2 0.5 -0.2
v 0.4 0 -0.2
v 0.4 0.1 -0.2
v 0.4 0.2 -0.2
v 0.4 0.3 -0.2
v 0.4 0.4 -0.2
v 0.5 0 -0.2
v 0.5 0.2 -0.2
v 0.5 0.3 -0.2
v 0.6 0 -0.2
v 0.6 0.2 -0.2
v -0.6 0 -0.1
v -0.5 0 -0.1
v -0.4 0 -0.1
v -0.0999999 0 -0.1
v 0.1 0 -0.1
v 0.4 0 -0.1
v 0.5 0 -0.1
v 0.6 0 -0.1
v -0.6 0 -0.2
v -0.5 0 -0.2
v -0.4 0 -0.2
v -0.0999999 0 -0.2
v 0.1 0 -0.2
v 0.4 0 -0.2
v 0.5 0 -0.2
v 0.6 0 -0.2
v -0.0999999 0.1 -0.1
v 0.1 0.1 -0.1
v -0.0999999 0.1 -0.2
v 0.1 0.1 -0.2
v -0.6 0.2 -0.1
v -0.5 0.2 -0.1
v 0.5 0.2 -0.1
v 0.6 0.2 -0.1
v -0.6 0.2 -0.2
v -0.5 0.2 -0.2
v 0.5 0.2 -0.2
v 0.6 0.2 -0.2
v -0.5 0.3 -0.1
v -0.4 0.3 -0.1
v 0.4 0.3 -0.1
v 0.5 0.3 -0.1
v -0.5 0.3 -0.2
v -0.4 0.3 -0.2
v 0.4 0.3 -0.2
v 0.5 0.3 -0.2
v -0.4 0.4 -0.1
v -0.2 0.4 -0.1
v 0.2 0.4 -0.1
v 0.4 0.4 -0.1
v -0.4 0.4 -0.2
v -0.2 0.4 -0.2
v 0.2 0.4 -0.2
v 0.4 0.4 -0.2
v -0.2 0.5 -0.1
v -0.0999999 0.5 -0.1
v 0.1 0.5 -0.1
v 0.2 0.5 -0.1
v -0.2 0.5 -0.2
v -0.0999999 0.5 -0.2
v 0.1 0.5 -0.2
v 0.2 0.5 -0.2

# faces
f 3/5/1 2/5/1 1/5/1
f 4/5/1 2/5/1 3/5/1
f 7/2/1 6/2/1 5/2/1
f 8/2/1 6/2/1 7/2/1
f 11/1/1 10/1/1 9/1/1
f 12/1/1 10/1/1 11/1/1
f 15/1/1 14/1/1 13/1/1
f 16/1/1 14/1/1 15/1/1
f 19/5/1 18/5/1 17/5/1
f 20/5/1 18/5/1 19/5/1
f 21/5/2 22/5/2 23/5/2
f 23/5/2 22/5/2 24/5/2
f 25/1/2 26/1/2 27/1/2
f 27/1/2 26/1/2 28/1/2
f 29/1/2 30/1/2 31/1/2
f 31/1/2 30/1/2 32/1/2
f 33/2/2 34/2/2 35/2/2
f 35/2/2 34/2/2 36/2/2
f 37/5/2 38/5/2 39/5/2
f 39/5/2 38/5/2 40/5/2
f 43/5/3 42/5/3 41/5/3
f 44/5/3 42/5/3 43/5/3
f 46/2/3 44/2/3 43/2/3
f 46/2/3 45/2/3 44/2/3
f 47/2/3 45/2/3 46/2/3
f 48/2/3 45/2/3 47/2/3
f 49/2/3 45/2/3 48/2/3
f 51/1/3 50/1/3 49/1/3
f 53/5/3 47/5/3 46/5/3
f 54/3/3 48/3/3 47/3/3
f 54/5/3 47/5/3 53/5/3
f 55/5/3 49/5/3 48/5/3
f 55/3/3 48/3/3 54/3/3
f 56/1/3 52/1/3 51/1/3
f 56/5/3 49/5/3 55/5/3
f 56/1/3 51/1/3 49/1/3
f 57/1/3 52/1/3 56/1/3
f 58/2/3 56/2/3 55/2/3
f 58/2/3 57/2/3 56/2/3
f 59/2/3 57/2/3 58/2/3
f 61/4/3 55/4/3 54/4/3
f 62/2/3 58/2/3 55/2/3
f 62/4/3 55/4/3 61/4/3
f 63/1/3 59/1/3 58/1/3
f 63/2/3 58/2/3 62/2/3
f 64/2/3 57/2/3 59/2/3
f 64/1/3 59/1/3 63/1/3
f 65/2/3 57/2/3 64/2/3
f 66/1/3 64/1/3 63/1/3
f 66/1/3 65/1/3 64/1/3
f 67/1/3 65/1/3 66/1/3
f 68/5/3 61/5/3 60/5/3
f 69/3/3 62/3/3 61/3/3
f 69/5/3 61/5/3 68/5/3
f 70/5/3 63/5/3 62/5/3
f 70/3/3 62/3/3 69/3/3
f 71/1/3 66/1/3 63/1/3
f 71/5/3 63/5/3 70/5/3
f 72/1/3 66/1/3 71/1/3
f 73/2/3 69/2/3 68/2/3
f 73/2/3 70/2/3 69/2/3
f 73/2/3 71/2/3 70/2/3
f 74/2/3 71/2/3 73/2/3
f 75/2/3 71/2/3 74/2/3
f 76/5/3 74/5/3 73/5/3
f 77/5/3 74/5/3 76/5/3
f 78/5/4 79/5/4 80/5/4
f 80/5/4 79/5/4 81/5/4
f 80/2/4 81/2/4 83/2/4
f 81/2/4 82/2/4 83/2/4
f 83/2/4 82/2/4 84/2/4
f 84/2/4 82/2/4 85/2/4
f 85/2/4 82/2/4 86/2/4
f 86/1/4 87/1/4 88/1/4
f 83/5/4 84/5/4 90/5/4
f 84/3/4 85/3/4 91/3/4
f 90/5/4 84/5/4 91/5/4
f 85/5/4 86/5/4 92/5/4
f 91/3/4 85/3/4 92/3/4
f 88/1/4 89/1/4 93/1/4
f 92/5/4 86/5/4 93/5/4
f 86/1/4 88/1/4 93/1/4
f 93/1/4 89/1/4 94/1/4
f 92/2/4 93/2/4 95/2/4
f 93/2/4 94/2/4 95/2/4
f 95/2/4 94/2/4 96/2/4
f 91/4/4 92/4/4 98/4/4
f 92/2/4 95/2/4 99/2/4
f 98/4/4 92/4/4 99/4/4
f 95/1/4 96/1/4 100/1/4
f 99/2/4 95/2/4 100/2/4
f 96/2/4 94/2/4 101/2/4
f 100/1/4 96/1/4 101/1/4
f 101/2/4 94/2/4 102/2/4
f 100/1/4 101/1/4 103/1/4
f 101/1/4 102/1/4 103/1/4
f 103/1/4 102/1/4 104/1/4
f 97/5/4 98/5/4 105/5/4
f 98/3/4 99/3/4 106/3/4
f 105/5/4 98/5/4 106/5/4
f 99/5/4 100/5/4 107/5/4
f 106/3/4 99/3/4 107/3/4
f 100/1/4 103/1/4 108/1/4
f 107/5/4 100/5/4 108/5/4
f 108/1/4 103/1/4 109/1/4
f 105/2/4 106/2/4 110/2/4
f 106/2/4 107/2/4 110/2/4
f 107/2/4 108/2/4 110/2/4
f 110/2/4 108/2/4 111/2/4
f 111/2/4 108/2/4 112/2/4
f 110/5/4 111/5/4 113/5/4
f 113/5/4 111/5/4 114/5/4
f 123/5/5 116/5/5 115/5/5
f 124/2/5 117/2/5 116/2/5
f 124/5/5 116/5/5 123/5/5
f 125/5/5 118/5/5 117/5/5
f 125/2/5 117/2/5 124/2/5
f 126/5/5 118/5/5 125/5/5
f 127/5/5 120/5/5 119/5/5
f 128/2/5 121/2/5 120/2/5
f 128/5/5 120/5/5 127/5/5
f 129/5/5 122/5/5 121/5/5
f 129/2/5 121/2/5 128/2/5
f 130/5/5 122/5/5 129/5/5
f 133/4/5 132/4/5 131/4/5
f 134/4/5 132/4/5 133/4/5
f 135/5/6 136/5/6 139/5/6
f 139/5/6 136/5/6 140/5/6
f 137/5/6 138/5/6 141/5/6
f 141/5/6 138/5/6 142/5/6
f 143/2/6 144/2/6 147/2/6
f 147/2/6 144/2/6 148/2/6
f 145/2/6 146/2/6 149/2/6
f 149/2/6 146/2/6 150/2/6
f 151/1/6 152/1/6 155/1/6
f 155/1/6 152/1/6 156/1/6
f 153/1/6 154/1/6 157/1/6
f 157/1/6 154/1/6 158/1/6
f 159/1/6 160/1/6 163/1/6
f 160/2/6 161/2/6 164/2/6
f 163/1/6 160/1/6 164/1/6
f 161/1/6 162/1/6 165/1/6
f 164/2/6 161/2/6 165/2/6
f 165/1/6 162/1/6 166/1/6
