# MagicaVoxel @ Ephtracy

# group
o 

# material
mtllib snowman death.mtl
usemtl palette

# normals
vn -1 0 0
vn 1 0 0
vn 0 0 1
vn 0 0 -1
vn 0 -1 0
vn 0 1 0

# texcoords
vt 0.701172 0.5
vt 0.845703 0.5
vt 0.853516 0.5
vt 0.857422 0.5
vt 0.958984 0.5
vt 0.962891 0.5
vt 0.966797 0.5
vt 0.994141 0.5

# verts
v -0.8 0 0.0999999
v -0.8 0 -7.45058e-008
v -0.8 0.2 0.0999999
v -0.8 0.2 -7.45058e-008
v -0.8 0.4 0.0999999
v -0.8 0.4 -7.45058e-008
v -0.8 0.6 0.0999999
v -0.8 0.6 -7.45058e-008
v -0.7 0.2 0.0999999
v -0.7 0.2 -7.45058e-008
v -0.7 0.4 0.0999999
v -0.7 0.4 -7.45058e-008
v -0.7 0.6 0.0999999
v -0.7 0.6 -7.45058e-008
v -0.7 0.7 0.0999999
v -0.7 0.7 -7.45058e-008
v -0.3 0.6 0.0999999
v -0.3 0.6 -7.45058e-008
v -0.3 0.7 0.0999999
v -0.3 0.7 -7.45058e-008
v 0.3 0.6 0.0999999
v 0.3 0.6 -7.45058e-008
v 0.3 0.7 0.0999999
v 0.3 0.7 -7.45058e-008
v -0.4 0.6 0.0999999
v -0.4 0.6 -7.45058e-008
v -0.4 0.7 0.0999999
v -0.4 0.7 -7.45058e-008
v 0.2 0.6 0.0999999
v 0.2 0.6 -7.45058e-008
v 0.2 0.7 0.0999999
v 0.2 0.7 -7.45058e-008
v 0.6 0.2 0.0999999
v 0.6 0.2 -7.45058e-008
v 0.6 0.4 0.0999999
v 0.6 0.4 -7.45058e-008
v 0.6 0.6 0.0999999
v 0.6 0.6 -7.45058e-008
v 0.6 0.7 0.0999999
v 0.6 0.7 -7.45058e-008
v 0.7 0 0.0999999
v 0.7 0 -7.45058e-008
v 0.7 0.2 0.0999999
v 0.7 0.2 -7.45058e-008
v 0.7 0.4 0.0999999
v 0.7 0.4 -7.45058e-008
v 0.7 0.6 0.0999999
v 0.7 0.6 -7.45058e-008
v -0.8 0 0.0999999
v -0.8 0.2 0.0999999
v -0.8 0.4 0.0999999
v -0.8 0.6 0.0999999
v -0.7 0.1 0.0999999
v -0.7 0.2 0.0999999
v -0.7 0.4 0.0999999
v -0.7 0.6 0.0999999
v -0.7 0.7 0.0999999
v -0.6 0.2 0.0999999
v -0.6 0.4 0.0999999
v -0.6 0.5 0.0999999
v -0.6 0.6 0.0999999
v -0.5 0.1 0.0999999
v -0.5 0.2 0.0999999
v -0.5 0.3 0.0999999
v -0.5 0.5 0.0999999
v -0.5 0.6 0.0999999
v -0.4 0.1 0.0999999
v -0.4 0.2 0.0999999
v -0.4 0.3 0.0999999
v -0.4 0.4 0.0999999
v -0.4 0.5 0.0999999
v -0.4 0.6 0.0999999
v -0.4 0.7 0.0999999
v -0.3 0.3 0.0999999
v -0.3 0.4 0.0999999
v -0.3 0.5 0.0999999
v -0.3 0.6 0.0999999
v -0.3 0.7 0.0999999
v -0.2 0.1 0.0999999
v -0.2 0.2 0.0999999
v -0.2 0.3 0.0999999
v -0.1 0.1 0.0999999
v -0.1 0.2 0.0999999
v -0.1 0.4 0.0999999
v -0.1 0.5 0.0999999
v 5.96046e-008 0.1 0.0999999
v 5.96046e-008 0.2 0.0999999
v 5.96046e-008 0.4 0.0999999
v 5.96046e-008 0.5 0.0999999
v 0.1 0.1 0.0999999
v 0.1 0.2 0.0999999
v 0.1 0.3 0.0999999
v 0.2 0.3 0.0999999
v 0.2 0.4 0.0999999
v 0.2 0.5 0.0999999
v 0.2 0.6 0.0999999
v 0.2 0.7 0.0999999
v 0.3 0.1 0.0999999
v 0.3 0.2 0.0999999
v 0.3 0.3 0.0999999
v 0.3 0.4 0.0999999
v 0.3 0.5 0.0999999
v 0.3 0.6 0.0999999
v 0.3 0.7 0.0999999
v 0.4 0.1 0.0999999
v 0.4 0.2 0.0999999
v 0.4 0.3 0.0999999
v 0.4 0.5 0.0999999
v 0.4 0.6 0.0999999
v 0.5 0.2 0.0999999
v 0.5 0.4 0.0999999
v 0.5 0.5 0.0999999
v 0.5 0.6 0.0999999
v 0.6 0.1 0.0999999
v 0.6 0.2 0.0999999
v 0.6 0.4 0.0999999
v 0.6 0.6 0.0999999
v 0.6 0.7 0.0999999
v 0.7 0 0.0999999
v 0.7 0.2 0.0999999
v 0.7 0.4 0.0999999
v 0.7 0.6 0.0999999
v -0.8 0 -7.45058e-008
v -0.8 0.2 -7.45058e-008
v -0.8 0.4 -7.45058e-008
v -0.8 0.6 -7.45058e-008
v -0.7 0.1 -7.45058e-008
v -0.7 0.2 -7.45058e-008
v -0.7 0.4 -7.45058e-008
v -0.7 0.6 -7.45058e-008
v -0.7 0.7 -7.45058e-008
v -0.6 0.2 -7.45058e-008
v -0.6 0.4 -7.45058e-008
v -0.6 0.5 -7.45058e-008
v -0.6 0.6 -7.45058e-008
v -0.5 0.1 -7.45058e-008
v -0.5 0.2 -7.45058e-008
v -0.5 0.3 -7.45058e-008
v -0.5 0.5 -7.45058e-008
v -0.5 0.6 -7.45058e-008
v -0.4 0.1 -7.45058e-008
v -0.4 0.2 -7.45058e-008
v -0.4 0.3 -7.45058e-008
v -0.4 0.4 -7.45058e-008
v -0.4 0.5 -7.45058e-008
v -0.4 0.6 -7.45058e-008
v -0.4 0.7 -7.45058e-008
v -0.3 0.3 -7.45058e-008
v -0.3 0.4 -7.45058e-008
v -0.3 0.5 -7.45058e-008
v -0.3 0.6 -7.45058e-008
v -0.3 0.7 -7.45058e-008
v -0.2 0.1 -7.45058e-008
v -0.2 0.2 -7.45058e-008
v -0.2 0.3 -7.45058e-008
v -0.1 0.1 -7.45058e-008
v -0.1 0.2 -7.45058e-008
v -0.1 0.4 -7.45058e-008
v -0.1 0.5 -7.45058e-008
v 5.96046e-008 0.1 -7.45058e-008
v 5.96046e-008 0.2 -7.45058e-008
v 5.96046e-008 0.4 -7.45058e-008
v 5.96046e-008 0.5 -7.45058e-008
v 0.1 0.1 -7.45058e-008
v 0.1 0.2 -7.45058e-008
v 0.1 0.3 -7.45058e-008
v 0.2 0.3 -7.45058e-008
v 0.2 0.4 -7.45058e-008
v 0.2 0.5 -7.45058e-008
v 0.2 0.6 -7.45058e-008
v 0.2 0.7 -7.45058e-008
v 0.3 0.1 -7.45058e-008
v 0.3 0.2 -7.45058e-008
v 0.3 0.3 -7.45058e-008
v 0.3 0.4 -7.45058e-008
v 0.3 0.5 -7.45058e-008
v 0.3 0.6 -7.45058e-008
v 0.3 0.7 -7.45058e-008
v 0.4 0.1 -7.45058e-008
v 0.4 0.2 -7.45058e-008
v 0.4 0.3 -7.45058e-008
v 0.4 0.5 -7.45058e-008
v 0.4 0.6 -7.45058e-008
v 0.5 0.2 -7.45058e-008
v 0.5 0.4 -7.45058e-008
v 0.5 0.5 -7.45058e-008
v 0.5 0.6 -7.45058e-008
v 0.6 0.1 -7.45058e-008
v 0.6 0.2 -7.45058e-008
v 0.6 0.4 -7.45058e-008
v 0.6 0.6 -7.45058e-008
v 0.6 0.7 -7.45058e-008
v 0.7 0 -7.45058e-008
v 0.7 0.2 -7.45058e-008
v 0.7 0.4 -7.45058e-008
v 0.7 0.6 -7.45058e-008
v -0.8 0 0.0999999
v 0.7 0 0.0999999
v -0.8 0 -7.45058e-008
v 0.7 0 -7.45058e-008
v -0.8 0.4 0.0999999
v -0.7 0.4 0.0999999
v 0.6 0.4 0.0999999
v 0.7 0.4 0.0999999
v -0.8 0.4 -7.45058e-008
v -0.7 0.4 -7.45058e-008
v 0.6 0.4 -7.45058e-008
v 0.7 0.4 -7.45058e-008
v -0.8 0.2 0.0999999
v -0.7 0.2 0.0999999
v 0.6 0.2 0.0999999
v 0.7 0.2 0.0999999
v -0.8 0.2 -7.45058e-008
v -0.7 0.2 -7.45058e-008
v 0.6 0.2 -7.45058e-008
v 0.7 0.2 -7.45058e-008
v -0.8 0.6 0.0999999
v -0.7 0.6 0.0999999
v -0.4 0.6 0.0999999
v -0.3 0.6 0.0999999
v 0.2 0.6 0.0999999
v 0.3 0.6 0.0999999
v 0.6 0.6 0.0999999
v 0.7 0.6 0.0999999
v -0.8 0.6 -7.45058e-008
v -0.7 0.6 -7.45058e-008
v -0.4 0.6 -7.45058e-008
v -0.3 0.6 -7.45058e-008
v 0.2 0.6 -7.45058e-008
v 0.3 0.6 -7.45058e-008
v 0.6 0.6 -7.45058e-008
v 0.7 0.6 -7.45058e-008
v -0.7 0.7 0.0999999
v -0.4 0.7 0.0999999
v -0.3 0.7 0.0999999
v 0.2 0.7 0.0999999
v 0.3 0.7 0.0999999
v 0.6 0.7 0.0999999
v -0.7 0.7 -7.45058e-008
v -0.4 0.7 -7.45058e-008
v -0.3 0.7 -7.45058e-008
v 0.2 0.7 -7.45058e-008
v 0.3 0.7 -7.45058e-008
v 0.6 0.7 -7.45058e-008

# faces
f 3/8/1 2/8/1 1/8/1
f 4/8/1 2/8/1 3/8/1
f 7/8/1 6/8/1 5/8/1
f 8/8/1 6/8/1 7/8/1
f 11/8/1 10/8/1 9/8/1
f 12/8/1 10/8/1 11/8/1
f 15/8/1 14/8/1 13/8/1
f 16/8/1 14/8/1 15/8/1
f 19/8/1 18/8/1 17/8/1
f 20/8/1 18/8/1 19/8/1
f 23/8/1 22/8/1 21/8/1
f 24/8/1 22/8/1 23/8/1
f 25/8/2 26/8/2 27/8/2
f 27/8/2 26/8/2 28/8/2
f 29/8/2 30/8/2 31/8/2
f 31/8/2 30/8/2 32/8/2
f 33/8/2 34/8/2 35/8/2
f 35/8/2 34/8/2 36/8/2
f 37/8/2 38/8/2 39/8/2
f 39/8/2 38/8/2 40/8/2
f 41/8/2 42/8/2 43/8/2
f 43/8/2 42/8/2 44/8/2
f 45/8/2 46/8/2 47/8/2
f 47/8/2 46/8/2 48/8/2
f 53/8/3 50/8/3 49/8/3
f 54/8/3 50/8/3 53/8/3
f 55/8/3 52/8/3 51/8/3
f 56/8/3 52/8/3 55/8/3
f 58/7/3 54/7/3 53/7/3
f 58/8/3 55/8/3 54/8/3
f 59/4/3 56/4/3 55/4/3
f 59/8/3 55/8/3 58/8/3
f 60/4/3 56/4/3 59/4/3
f 61/8/3 57/8/3 56/8/3
f 61/4/3 56/4/3 60/4/3
f 62/8/3 53/8/3 49/8/3
f 62/7/3 58/7/3 53/7/3
f 62/7/3 59/7/3 58/7/3
f 63/7/3 59/7/3 62/7/3
f 64/7/3 59/7/3 63/7/3
f 65/8/3 60/8/3 59/8/3
f 65/3/3 61/3/3 60/3/3
f 66/8/3 57/8/3 61/8/3
f 66/3/3 61/3/3 65/3/3
f 67/8/3 62/8/3 49/8/3
f 67/8/3 63/8/3 62/8/3
f 68/6/3 64/6/3 63/6/3
f 68/8/3 63/8/3 67/8/3
f 69/7/3 59/7/3 64/7/3
f 69/6/3 64/6/3 68/6/3
f 70/8/3 65/8/3 59/8/3
f 70/7/3 59/7/3 69/7/3
f 71/2/3 66/2/3 65/2/3
f 71/8/3 65/8/3 70/8/3
f 72/8/3 57/8/3 66/8/3
f 72/2/3 66/2/3 71/2/3
f 73/8/3 57/8/3 72/8/3
f 74/8/3 69/8/3 68/8/3
f 74/6/3 70/6/3 69/6/3
f 75/7/3 71/7/3 70/7/3
f 75/6/3 70/6/3 74/6/3
f 76/8/3 72/8/3 71/8/3
f 76/7/3 71/7/3 75/7/3
f 77/8/3 72/8/3 76/8/3
f 79/7/3 68/7/3 67/7/3
f 79/8/3 67/8/3 49/8/3
f 80/8/3 74/8/3 68/8/3
f 80/7/3 68/7/3 79/7/3
f 81/5/3 75/5/3 74/5/3
f 81/8/3 74/8/3 80/8/3
f 82/8/3 79/8/3 49/8/3
f 82/8/3 80/8/3 79/8/3
f 83/6/3 81/6/3 80/6/3
f 83/8/3 80/8/3 82/8/3
f 84/5/3 75/5/3 81/5/3
f 84/6/3 76/6/3 75/6/3
f 85/7/3 77/7/3 76/7/3
f 85/6/3 76/6/3 84/6/3
f 86/8/3 82/8/3 49/8/3
f 86/7/3 83/7/3 82/7/3
f 87/6/3 81/6/3 83/6/3
f 87/7/3 83/7/3 86/7/3
f 88/5/3 84/5/3 81/5/3
f 88/1/3 85/1/3 84/1/3
f 89/7/3 77/7/3 85/7/3
f 89/1/3 85/1/3 88/1/3
f 90/8/3 86/8/3 49/8/3
f 90/8/3 87/8/3 86/8/3
f 91/6/3 81/6/3 87/6/3
f 91/8/3 87/8/3 90/8/3
f 92/5/3 88/5/3 81/5/3
f 92/6/3 81/6/3 91/6/3
f 93/8/3 92/8/3 91/8/3
f 93/5/3 88/5/3 92/5/3
f 94/6/3 89/6/3 88/6/3
f 94/5/3 88/5/3 93/5/3
f 95/7/3 77/7/3 89/7/3
f 95/6/3 89/6/3 94/6/3
f 96/8/3 78/8/3 77/8/3
f 96/7/3 77/7/3 95/7/3
f 97/8/3 78/8/3 96/8/3
f 98/8/3 90/8/3 49/8/3
f 98/7/3 91/7/3 90/7/3
f 99/8/3 93/8/3 91/8/3
f 99/7/3 91/7/3 98/7/3
f 100/6/3 94/6/3 93/6/3
f 100/8/3 93/8/3 99/8/3
f 101/7/3 95/7/3 94/7/3
f 101/6/3 94/6/3 100/6/3
f 102/8/3 96/8/3 95/8/3
f 102/7/3 95/7/3 101/7/3
f 103/8/3 96/8/3 102/8/3
f 105/8/3 99/8/3 98/8/3
f 105/8/3 98/8/3 49/8/3
f 106/6/3 100/6/3 99/6/3
f 106/8/3 99/8/3 105/8/3
f 107/7/3 101/7/3 100/7/3
f 107/6/3 100/6/3 106/6/3
f 108/2/3 103/2/3 102/2/3
f 108/8/3 102/8/3 101/8/3
f 109/8/3 104/8/3 103/8/3
f 109/2/3 103/2/3 108/2/3
f 110/7/3 106/7/3 105/7/3
f 110/7/3 107/7/3 106/7/3
f 111/8/3 108/8/3 101/8/3
f 111/7/3 107/7/3 110/7/3
f 111/7/3 101/7/3 107/7/3
f 112/3/3 109/3/3 108/3/3
f 112/8/3 108/8/3 111/8/3
f 113/8/3 104/8/3 109/8/3
f 113/3/3 109/3/3 112/3/3
f 114/8/3 105/8/3 49/8/3
f 114/7/3 110/7/3 105/7/3
f 115/8/3 111/8/3 110/8/3
f 115/7/3 110/7/3 114/7/3
f 116/4/3 113/4/3 112/4/3
f 116/8/3 111/8/3 115/8/3
f 116/4/3 112/4/3 111/4/3
f 117/8/3 104/8/3 113/8/3
f 117/4/3 113/4/3 116/4/3
f 118/8/3 104/8/3 117/8/3
f 119/8/3 115/8/3 114/8/3
f 119/8/3 114/8/3 49/8/3
f 120/8/3 115/8/3 119/8/3
f 121/8/3 117/8/3 116/8/3
f 122/8/3 117/8/3 121/8/3
f 123/8/4 124/8/4 127/8/4
f 127/8/4 124/8/4 128/8/4
f 125/8/4 126/8/4 129/8/4
f 129/8/4 126/8/4 130/8/4
f 127/7/4 128/7/4 132/7/4
f 128/8/4 129/8/4 132/8/4
f 129/4/4 130/4/4 133/4/4
f 132/8/4 129/8/4 133/8/4
f 133/4/4 130/4/4 134/4/4
f 130/8/4 131/8/4 135/8/4
f 134/4/4 130/4/4 135/4/4
f 123/8/4 127/8/4 136/8/4
f 127/7/4 132/7/4 136/7/4
f 132/7/4 133/7/4 136/7/4
f 136/7/4 133/7/4 137/7/4
f 137/7/4 133/7/4 138/7/4
f 133/8/4 134/8/4 139/8/4
f 134/3/4 135/3/4 139/3/4
f 135/8/4 131/8/4 140/8/4
f 139/3/4 135/3/4 140/3/4
f 123/8/4 136/8/4 141/8/4
f 136/8/4 137/8/4 141/8/4
f 137/6/4 138/6/4 142/6/4
f 141/8/4 137/8/4 142/8/4
f 138/7/4 133/7/4 143/7/4
f 142/6/4 138/6/4 143/6/4
f 133/8/4 139/8/4 144/8/4
f 143/7/4 133/7/4 144/7/4
f 139/2/4 140/2/4 145/2/4
f 144/8/4 139/8/4 145/8/4
f 140/8/4 131/8/4 146/8/4
f 145/2/4 140/2/4 146/2/4
f 146/8/4 131/8/4 147/8/4
f 142/8/4 143/8/4 148/8/4
f 143/6/4 144/6/4 148/6/4
f 144/7/4 145/7/4 149/7/4
f 148/6/4 144/6/4 149/6/4
f 145/8/4 146/8/4 150/8/4
f 149/7/4 145/7/4 150/7/4
f 150/8/4 146/8/4 151/8/4
f 141/7/4 142/7/4 153/7/4
f 123/8/4 141/8/4 153/8/4
f 142/8/4 148/8/4 154/8/4
f 153/7/4 142/7/4 154/7/4
f 148/5/4 149/5/4 155/5/4
f 154/8/4 148/8/4 155/8/4
f 123/8/4 153/8/4 156/8/4
f 153/8/4 154/8/4 156/8/4
f 154/6/4 155/6/4 157/6/4
f 156/8/4 154/8/4 157/8/4
f 155/5/4 149/5/4 158/5/4
f 149/6/4 150/6/4 158/6/4
f 150/7/4 151/7/4 159/7/4
f 158/6/4 150/6/4 159/6/4
f 123/8/4 156/8/4 160/8/4
f 156/7/4 157/7/4 160/7/4
f 157/6/4 155/6/4 161/6/4
f 160/7/4 157/7/4 161/7/4
f 155/5/4 158/5/4 162/5/4
f 158/1/4 159/1/4 162/1/4
f 159/7/4 151/7/4 163/7/4
f 162/1/4 159/1/4 163/1/4
f 123/8/4 160/8/4 164/8/4
f 160/8/4 161/8/4 164/8/4
f 161/6/4 155/6/4 165/6/4
f 164/8/4 161/8/4 165/8/4
f 155/5/4 162/5/4 166/5/4
f 165/6/4 155/6/4 166/6/4
f 165/8/4 166/8/4 167/8/4
f 166/5/4 162/5/4 167/5/4
f 162/6/4 163/6/4 168/6/4
f 167/5/4 162/5/4 168/5/4
f 163/7/4 151/7/4 169/7/4
f 168/6/4 163/6/4 169/6/4
f 151/8/4 152/8/4 170/8/4
f 169/7/4 151/7/4 170/7/4
f 170/8/4 152/8/4 171/8/4
f 123/8/4 164/8/4 172/8/4
f 164/7/4 165/7/4 172/7/4
f 165/8/4 167/8/4 173/8/4
f 172/7/4 165/7/4 173/7/4
f 167/6/4 168/6/4 174/6/4
f 173/8/4 167/8/4 174/8/4
f 168/7/4 169/7/4 175/7/4
f 174/6/4 168/6/4 175/6/4
f 169/8/4 170/8/4 176/8/4
f 175/7/4 169/7/4 176/7/4
f 176/8/4 170/8/4 177/8/4
f 172/8/4 173/8/4 179/8/4
f 123/8/4 172/8/4 179/8/4
f 173/6/4 174/6/4 180/6/4
f 179/8/4 173/8/4 180/8/4
f 174/7/4 175/7/4 181/7/4
f 180/6/4 174/6/4 181/6/4
f 176/2/4 177/2/4 182/2/4
f 175/8/4 176/8/4 182/8/4
f 177/8/4 178/8/4 183/8/4
f 182/2/4 177/2/4 183/2/4
f 179/7/4 180/7/4 184/7/4
f 180/7/4 181/7/4 184/7/4
f 175/8/4 182/8/4 185/8/4
f 184/7/4 181/7/4 185/7/4
f 181/7/4 175/7/4 185/7/4
f 182/3/4 183/3/4 186/3/4
f 185/8/4 182/8/4 186/8/4
f 183/8/4 178/8/4 187/8/4
f 186/3/4 183/3/4 187/3/4
f 123/8/4 179/8/4 188/8/4
f 179/7/4 184/7/4 188/7/4
f 184/8/4 185/8/4 189/8/4
f 188/7/4 184/7/4 189/7/4
f 186/4/4 187/4/4 190/4/4
f 189/8/4 185/8/4 190/8/4
f 185/4/4 186/4/4 190/4/4
f 187/8/4 178/8/4 191/8/4
f 190/4/4 187/4/4 191/4/4
f 191/8/4 178/8/4 192/8/4
f 188/8/4 189/8/4 193/8/4
f 123/8/4 188/8/4 193/8/4
f 193/8/4 189/8/4 194/8/4
f 190/8/4 191/8/4 195/8/4
f 195/8/4 191/8/4 196/8/4
f 199/8/5 198/8/5 197/8/5
f 200/8/5 198/8/5 199/8/5
f 205/8/5 202/8/5 201/8/5
f 206/8/5 202/8/5 205/8/5
f 207/8/5 204/8/5 203/8/5
f 208/8/5 204/8/5 207/8/5
f 209/8/6 210/8/6 213/8/6
f 213/8/6 210/8/6 214/8/6
f 211/8/6 212/8/6 215/8/6
f 215/8/6 212/8/6 216/8/6
f 217/8/6 218/8/6 225/8/6
f 225/8/6 218/8/6 226/8/6
f 219/8/6 220/8/6 227/8/6
f 227/8/6 220/8/6 228/8/6
f 221/8/6 222/8/6 229/8/6
f 229/8/6 222/8/6 230/8/6
f 223/8/6 224/8/6 231/8/6
f 231/8/6 224/8/6 232/8/6
f 233/8/6 234/8/6 239/8/6
f 239/8/6 234/8/6 240/8/6
f 235/8/6 236/8/6 241/8/6
f 241/8/6 236/8/6 242/8/6
f 237/8/6 238/8/6 243/8/6
f 243/8/6 238/8/6 244/8/6
