# MagicaVoxel @ Ephtracy

# group
o 

# material
mtllib rabbit death.mtl
usemtl palette

# normals
vn -1 0 0
vn 1 0 0
vn 0 0 1
vn 0 0 -1
vn 0 -1 0
vn 0 1 0

# texcoords
vt 0.958984 0.5
vt 0.962891 0.5
vt 0.966797 0.5
vt 0.970703 0.5
vt 0.974609 0.5
vt 0.978516 0.5
vt 0.994141 0.5

# verts
v -0.7 0.1 0.0999999
v -0.7 0.1 -7.45058e-008
v -0.7 0.2 0.0999999
v -0.7 0.2 -7.45058e-008
v -0.7 0.4 0.0999999
v -0.7 0.4 -7.45058e-008
v -0.7 0.6 0.0999999
v -0.7 0.6 -7.45058e-008
v -0.6 0 0.0999999
v -0.6 0 -7.45058e-008
v -0.6 0.1 0.0999999
v -0.6 0.1 -7.45058e-008
v -0.6 0.2 0.0999999
v -0.6 0.2 -7.45058e-008
v -0.6 0.4 0.0999999
v -0.6 0.4 -7.45058e-008
v -0.6 0.6 0.0999999
v -0.6 0.6 -7.45058e-008
v -0.6 0.7 0.0999999
v -0.6 0.7 -7.45058e-008
v 0.7 0 0.0999999
v 0.7 0 -7.45058e-008
v 0.7 0.1 0.0999999
v 0.7 0.1 -7.45058e-008
v 0.7 0.2 0.0999999
v 0.7 0.2 -7.45058e-008
v 0.7 0.4 0.0999999
v 0.7 0.4 -7.45058e-008
v 0.7 0.6 0.0999999
v 0.7 0.6 -7.45058e-008
v 0.7 0.7 0.0999999
v 0.7 0.7 -7.45058e-008
v 0.8 0.1 0.0999999
v 0.8 0.1 -7.45058e-008
v 0.8 0.2 0.0999999
v 0.8 0.2 -7.45058e-008
v 0.8 0.4 0.0999999
v 0.8 0.4 -7.45058e-008
v 0.8 0.6 0.0999999
v 0.8 0.6 -7.45058e-008
v -0.7 0.1 0.0999999
v -0.7 0.2 0.0999999
v -0.7 0.4 0.0999999
v -0.7 0.6 0.0999999
v -0.6 0 0.0999999
v -0.6 0.1 0.0999999
v -0.6 0.2 0.0999999
v -0.6 0.4 0.0999999
v -0.6 0.5 0.0999999
v -0.6 0.6 0.0999999
v -0.6 0.7 0.0999999
v -0.5 0.2 0.0999999
v -0.5 0.3 0.0999999
v -0.5 0.4 0.0999999
v -0.5 0.5 0.0999999
v -0.4 0.1 0.0999999
v -0.4 0.2 0.0999999
v -0.4 0.3 0.0999999
v -0.4 0.4 0.0999999
v -0.4 0.5 0.0999999
v -0.4 0.6 0.0999999
v -0.3 0.1 0.0999999
v -0.3 0.2 0.0999999
v -0.3 0.3 0.0999999
v -0.3 0.5 0.0999999
v -0.3 0.6 0.0999999
v -0.2 0.3 0.0999999
v -0.2 0.4 0.0999999
v -0.2 0.5 0.0999999
v -0.1 0.1 0.0999999
v -0.1 0.2 0.0999999
v -0.1 0.4 0.0999999
v -0.1 0.5 0.0999999
v -0.1 0.6 0.0999999
v 5.96046e-008 0.1 0.0999999
v 5.96046e-008 0.2 0.0999999
v 5.96046e-008 0.3 0.0999999
v 5.96046e-008 0.4 0.0999999
v 5.96046e-008 0.5 0.0999999
v 0.1 0.1 0.0999999
v 0.1 0.2 0.0999999
v 0.1 0.3 0.0999999
v 0.1 0.4 0.0999999
v 0.1 0.5 0.0999999
v 0.2 0.1 0.0999999
v 0.2 0.2 0.0999999
v 0.2 0.4 0.0999999
v 0.2 0.5 0.0999999
v 0.2 0.6 0.0999999
v 0.3 0.3 0.0999999
v 0.3 0.4 0.0999999
v 0.3 0.5 0.0999999
v 0.4 0.1 0.0999999
v 0.4 0.2 0.0999999
v 0.4 0.3 0.0999999
v 0.4 0.5 0.0999999
v 0.4 0.6 0.0999999
v 0.5 0.1 0.0999999
v 0.5 0.2 0.0999999
v 0.5 0.3 0.0999999
v 0.5 0.4 0.0999999
v 0.5 0.5 0.0999999
v 0.5 0.6 0.0999999
v 0.6 0.2 0.0999999
v 0.6 0.3 0.0999999
v 0.6 0.4 0.0999999
v 0.6 0.5 0.0999999
v 0.7 0 0.0999999
v 0.7 0.1 0.0999999
v 0.7 0.2 0.0999999
v 0.7 0.4 0.0999999
v 0.7 0.5 0.0999999
v 0.7 0.6 0.0999999
v 0.7 0.7 0.0999999
v 0.8 0.1 0.0999999
v 0.8 0.2 0.0999999
v 0.8 0.4 0.0999999
v 0.8 0.6 0.0999999
v -0.7 0.1 -7.45058e-008
v -0.7 0.2 -7.45058e-008
v -0.7 0.4 -7.45058e-008
v -0.7 0.6 -7.45058e-008
v -0.6 0 -7.45058e-008
v -0.6 0.1 -7.45058e-008
v -0.6 0.2 -7.45058e-008
v -0.6 0.4 -7.45058e-008
v -0.6 0.5 -7.45058e-008
v -0.6 0.6 -7.45058e-008
v -0.6 0.7 -7.45058e-008
v -0.5 0.2 -7.45058e-008
v -0.5 0.3 -7.45058e-008
v -0.5 0.4 -7.45058e-008
v -0.5 0.5 -7.45058e-008
v -0.4 0.1 -7.45058e-008
v -0.4 0.2 -7.45058e-008
v -0.4 0.3 -7.45058e-008
v -0.4 0.4 -7.45058e-008
v -0.4 0.5 -7.45058e-008
v -0.4 0.6 -7.45058e-008
v -0.3 0.1 -7.45058e-008
v -0.3 0.2 -7.45058e-008
v -0.3 0.3 -7.45058e-008
v -0.3 0.5 -7.45058e-008
v -0.3 0.6 -7.45058e-008
v -0.2 0.3 -7.45058e-008
v -0.2 0.4 -7.45058e-008
v -0.2 0.5 -7.45058e-008
v -0.1 0.1 -7.45058e-008
v -0.1 0.2 -7.45058e-008
v -0.1 0.4 -7.45058e-008
v -0.1 0.5 -7.45058e-008
v -0.1 0.6 -7.45058e-008
v 5.96046e-008 0.1 -7.45058e-008
v 5.96046e-008 0.2 -7.45058e-008
v 5.96046e-008 0.3 -7.45058e-008
v 5.96046e-008 0.4 -7.45058e-008
v 5.96046e-008 0.5 -7.45058e-008
v 0.1 0.1 -7.45058e-008
v 0.1 0.2 -7.45058e-008
v 0.1 0.3 -7.45058e-008
v 0.1 0.4 -7.45058e-008
v 0.1 0.5 -7.45058e-008
v 0.2 0.1 -7.45058e-008
v 0.2 0.2 -7.45058e-008
v 0.2 0.4 -7.45058e-008
v 0.2 0.5 -7.45058e-008
v 0.2 0.6 -7.45058e-008
v 0.3 0.3 -7.45058e-008
v 0.3 0.4 -7.45058e-008
v 0.3 0.5 -7.45058e-008
v 0.4 0.1 -7.45058e-008
v 0.4 0.2 -7.45058e-008
v 0.4 0.3 -7.45058e-008
v 0.4 0.5 -7.45058e-008
v 0.4 0.6 -7.45058e-008
v 0.5 0.1 -7.45058e-008
v 0.5 0.2 -7.45058e-008
v 0.5 0.3 -7.45058e-008
v 0.5 0.4 -7.45058e-008
v 0.5 0.5 -7.45058e-008
v 0.5 0.6 -7.45058e-008
v 0.6 0.2 -7.45058e-008
v 0.6 0.3 -7.45058e-008
v 0.6 0.4 -7.45058e-008
v 0.6 0.5 -7.45058e-008
v 0.7 0 -7.45058e-008
v 0.7 0.1 -7.45058e-008
v 0.7 0.2 -7.45058e-008
v 0.7 0.4 -7.45058e-008
v 0.7 0.5 -7.45058e-008
v 0.7 0.6 -7.45058e-008
v 0.7 0.7 -7.45058e-008
v 0.8 0.1 -7.45058e-008
v 0.8 0.2 -7.45058e-008
v 0.8 0.4 -7.45058e-008
v 0.8 0.6 -7.45058e-008
v -0.6 0 0.0999999
v 0.7 0 0.0999999
v -0.6 0 -7.45058e-008
v 0.7 0 -7.45058e-008
v -0.7 0.1 0.0999999
v -0.6 0.1 0.0999999
v 0.7 0.1 0.0999999
v 0.8 0.1 0.0999999
v -0.7 0.1 -7.45058e-008
v -0.6 0.1 -7.45058e-008
v 0.7 0.1 -7.45058e-008
v 0.8 0.1 -7.45058e-008
v -0.7 0.4 0.0999999
v -0.6 0.4 0.0999999
v 0.7 0.4 0.0999999
v 0.8 0.4 0.0999999
v -0.7 0.4 -7.45058e-008
v -0.6 0.4 -7.45058e-008
v 0.7 0.4 -7.45058e-008
v 0.8 0.4 -7.45058e-008
v -0.7 0.2 0.0999999
v -0.6 0.2 0.0999999
v 0.7 0.2 0.0999999
v 0.8 0.2 0.0999999
v -0.7 0.2 -7.45058e-008
v -0.6 0.2 -7.45058e-008
v 0.7 0.2 -7.45058e-008
v 0.8 0.2 -7.45058e-008
v -0.7 0.6 0.0999999
v -0.6 0.6 0.0999999
v 0.7 0.6 0.0999999
v 0.8 0.6 0.0999999
v -0.7 0.6 -7.45058e-008
v -0.6 0.6 -7.45058e-008
v 0.7 0.6 -7.45058e-008
v 0.8 0.6 -7.45058e-008
v -0.6 0.7 0.0999999
v 0.7 0.7 0.0999999
v -0.6 0.7 -7.45058e-008
v 0.7 0.7 -7.45058e-008

# faces
f 3/7/1 2/7/1 1/7/1
f 4/7/1 2/7/1 3/7/1
f 7/7/1 6/7/1 5/7/1
f 8/7/1 6/7/1 7/7/1
f 11/7/1 10/7/1 9/7/1
f 12/7/1 10/7/1 11/7/1
f 15/7/1 14/7/1 13/7/1
f 16/7/1 14/7/1 15/7/1
f 19/7/1 18/7/1 17/7/1
f 20/7/1 18/7/1 19/7/1
f 21/7/2 22/7/2 23/7/2
f 23/7/2 22/7/2 24/7/2
f 25/7/2 26/7/2 27/7/2
f 27/7/2 26/7/2 28/7/2
f 29/7/2 30/7/2 31/7/2
f 31/7/2 30/7/2 32/7/2
f 33/7/2 34/7/2 35/7/2
f 35/7/2 34/7/2 36/7/2
f 37/7/2 38/7/2 39/7/2
f 39/7/2 38/7/2 40/7/2
f 46/7/3 42/7/3 41/7/3
f 47/7/3 42/7/3 46/7/3
f 48/7/3 44/7/3 43/7/3
f 49/7/3 44/7/3 48/7/3
f 50/7/3 44/7/3 49/7/3
f 52/6/3 47/6/3 46/6/3
f 52/7/3 48/7/3 47/7/3
f 53/7/3 48/7/3 52/7/3
f 54/6/3 49/6/3 48/6/3
f 54/7/3 48/7/3 53/7/3
f 55/5/3 50/5/3 49/5/3
f 55/6/3 49/6/3 54/6/3
f 56/7/3 46/7/3 45/7/3
f 56/6/3 52/6/3 46/6/3
f 57/5/3 53/5/3 52/5/3
f 57/6/3 52/6/3 56/6/3
f 58/4/3 54/4/3 53/4/3
f 58/5/3 53/5/3 57/5/3
f 59/7/3 55/7/3 54/7/3
f 59/4/3 54/4/3 58/4/3
f 60/5/3 50/5/3 55/5/3
f 60/7/3 55/7/3 59/7/3
f 61/7/3 51/7/3 50/7/3
f 61/5/3 50/5/3 60/5/3
f 62/7/3 57/7/3 56/7/3
f 62/7/3 56/7/3 45/7/3
f 63/5/3 59/5/3 58/5/3
f 63/7/3 57/7/3 62/7/3
f 63/5/3 58/5/3 57/5/3
f 64/5/3 59/5/3 63/5/3
f 65/4/3 60/4/3 59/4/3
f 65/7/3 61/7/3 60/7/3
f 66/7/3 51/7/3 61/7/3
f 66/7/3 61/7/3 65/7/3
f 67/5/3 59/5/3 64/5/3
f 67/7/3 64/7/3 63/7/3
f 68/4/3 65/4/3 59/4/3
f 68/5/3 59/5/3 67/5/3
f 69/3/3 66/3/3 65/3/3
f 69/4/3 65/4/3 68/4/3
f 70/7/3 62/7/3 45/7/3
f 70/6/3 63/6/3 62/6/3
f 71/7/3 67/7/3 63/7/3
f 71/6/3 63/6/3 70/6/3
f 72/4/3 68/4/3 67/4/3
f 72/3/3 69/3/3 68/3/3
f 73/3/3 66/3/3 69/3/3
f 73/3/3 69/3/3 72/3/3
f 74/7/3 51/7/3 66/7/3
f 74/3/3 66/3/3 73/3/3
f 75/7/3 70/7/3 45/7/3
f 75/7/3 71/7/3 70/7/3
f 76/7/3 67/7/3 71/7/3
f 76/7/3 71/7/3 75/7/3
f 77/4/3 72/4/3 67/4/3
f 77/7/3 67/7/3 76/7/3
f 78/2/3 73/2/3 72/2/3
f 78/4/3 72/4/3 77/4/3
f 79/1/3 74/1/3 73/1/3
f 79/2/3 73/2/3 78/2/3
f 80/6/3 76/6/3 75/6/3
f 80/7/3 75/7/3 45/7/3
f 81/5/3 77/5/3 76/5/3
f 81/6/3 76/6/3 80/6/3
f 82/4/3 78/4/3 77/4/3
f 82/5/3 77/5/3 81/5/3
f 83/1/3 79/1/3 78/1/3
f 83/4/3 78/4/3 82/4/3
f 84/1/3 74/1/3 79/1/3
f 84/1/3 79/1/3 83/1/3
f 85/7/3 80/7/3 45/7/3
f 85/7/3 82/7/3 81/7/3
f 85/7/3 81/7/3 80/7/3
f 86/7/3 82/7/3 85/7/3
f 87/4/3 83/4/3 82/4/3
f 87/2/3 84/2/3 83/2/3
f 88/1/3 74/1/3 84/1/3
f 88/2/3 84/2/3 87/2/3
f 89/7/3 51/7/3 74/7/3
f 89/1/3 74/1/3 88/1/3
f 90/4/3 87/4/3 82/4/3
f 90/7/3 82/7/3 86/7/3
f 91/3/3 89/3/3 88/3/3
f 91/4/3 87/4/3 90/4/3
f 91/3/3 88/3/3 87/3/3
f 92/3/3 89/3/3 91/3/3
f 93/7/3 85/7/3 45/7/3
f 93/6/3 86/6/3 85/6/3
f 94/7/3 90/7/3 86/7/3
f 94/6/3 86/6/3 93/6/3
f 95/5/3 91/5/3 90/5/3
f 95/7/3 90/7/3 94/7/3
f 96/3/3 89/3/3 92/3/3
f 96/4/3 92/4/3 91/4/3
f 97/7/3 51/7/3 89/7/3
f 97/3/3 89/3/3 96/3/3
f 98/7/3 93/7/3 45/7/3
f 98/7/3 94/7/3 93/7/3
f 99/5/3 95/5/3 94/5/3
f 99/7/3 94/7/3 98/7/3
f 100/5/3 91/5/3 95/5/3
f 100/5/3 95/5/3 99/5/3
f 101/4/3 96/4/3 91/4/3
f 101/5/3 91/5/3 100/5/3
f 102/7/3 97/7/3 96/7/3
f 102/4/3 96/4/3 101/4/3
f 103/7/3 51/7/3 97/7/3
f 103/7/3 97/7/3 102/7/3
f 104/5/3 100/5/3 99/5/3
f 104/6/3 99/6/3 98/6/3
f 105/4/3 101/4/3 100/4/3
f 105/5/3 100/5/3 104/5/3
f 106/7/3 102/7/3 101/7/3
f 106/4/3 101/4/3 105/4/3
f 107/5/3 103/5/3 102/5/3
f 107/7/3 102/7/3 106/7/3
f 108/7/3 98/7/3 45/7/3
f 109/6/3 104/6/3 98/6/3
f 109/7/3 98/7/3 108/7/3
f 110/7/3 105/7/3 104/7/3
f 110/6/3 104/6/3 109/6/3
f 110/7/3 106/7/3 105/7/3
f 111/6/3 107/6/3 106/6/3
f 111/7/3 106/7/3 110/7/3
f 112/5/3 103/5/3 107/5/3
f 112/6/3 107/6/3 111/6/3
f 113/7/3 51/7/3 103/7/3
f 113/5/3 103/5/3 112/5/3
f 114/7/3 51/7/3 113/7/3
f 115/7/3 110/7/3 109/7/3
f 116/7/3 110/7/3 115/7/3
f 117/7/3 112/7/3 111/7/3
f 117/7/3 113/7/3 112/7/3
f 118/7/3 113/7/3 117/7/3
f 119/7/4 120/7/4 124/7/4
f 124/7/4 120/7/4 125/7/4
f 121/7/4 122/7/4 126/7/4
f 126/7/4 122/7/4 127/7/4
f 127/7/4 122/7/4 128/7/4
f 124/6/4 125/6/4 130/6/4
f 125/7/4 126/7/4 130/7/4
f 130/7/4 126/7/4 131/7/4
f 126/6/4 127/6/4 132/6/4
f 131/7/4 126/7/4 132/7/4
f 127/5/4 128/5/4 133/5/4
f 132/6/4 127/6/4 133/6/4
f 123/7/4 124/7/4 134/7/4
f 124/6/4 130/6/4 134/6/4
f 130/5/4 131/5/4 135/5/4
f 134/6/4 130/6/4 135/6/4
f 131/4/4 132/4/4 136/4/4
f 135/5/4 131/5/4 136/5/4
f 132/7/4 133/7/4 137/7/4
f 136/4/4 132/4/4 137/4/4
f 133/5/4 128/5/4 138/5/4
f 137/7/4 133/7/4 138/7/4
f 128/7/4 129/7/4 139/7/4
f 138/5/4 128/5/4 139/5/4
f 134/7/4 135/7/4 140/7/4
f 123/7/4 134/7/4 140/7/4
f 136/5/4 137/5/4 141/5/4
f 140/7/4 135/7/4 141/7/4
f 135/5/4 136/5/4 141/5/4
f 141/5/4 137/5/4 142/5/4
f 137/4/4 138/4/4 143/4/4
f 138/7/4 139/7/4 143/7/4
f 139/7/4 129/7/4 144/7/4
f 143/7/4 139/7/4 144/7/4
f 142/5/4 137/5/4 145/5/4
f 141/7/4 142/7/4 145/7/4
f 137/4/4 143/4/4 146/4/4
f 145/5/4 137/5/4 146/5/4
f 143/3/4 144/3/4 147/3/4
f 146/4/4 143/4/4 147/4/4
f 123/7/4 140/7/4 148/7/4
f 140/6/4 141/6/4 148/6/4
f 141/7/4 145/7/4 149/7/4
f 148/6/4 141/6/4 149/6/4
f 145/4/4 146/4/4 150/4/4
f 146/3/4 147/3/4 150/3/4
f 147/3/4 144/3/4 151/3/4
f 150/3/4 147/3/4 151/3/4
f 144/7/4 129/7/4 152/7/4
f 151/3/4 144/3/4 152/3/4
f 123/7/4 148/7/4 153/7/4
f 148/7/4 149/7/4 153/7/4
f 149/7/4 145/7/4 154/7/4
f 153/7/4 149/7/4 154/7/4
f 145/4/4 150/4/4 155/4/4
f 154/7/4 145/7/4 155/7/4
f 150/2/4 151/2/4 156/2/4
f 155/4/4 150/4/4 156/4/4
f 151/1/4 152/1/4 157/1/4
f 156/2/4 151/2/4 157/2/4
f 153/6/4 154/6/4 158/6/4
f 123/7/4 153/7/4 158/7/4
f 154/5/4 155/5/4 159/5/4
f 158/6/4 154/6/4 159/6/4
f 155/4/4 156/4/4 160/4/4
f 159/5/4 155/5/4 160/5/4
f 156/1/4 157/1/4 161/1/4
f 160/4/4 156/4/4 161/4/4
f 157/1/4 152/1/4 162/1/4
f 161/1/4 157/1/4 162/1/4
f 123/7/4 158/7/4 163/7/4
f 159/7/4 160/7/4 163/7/4
f 158/7/4 159/7/4 163/7/4
f 163/7/4 160/7/4 164/7/4
f 160/4/4 161/4/4 165/4/4
f 161/2/4 162/2/4 165/2/4
f 162/1/4 152/1/4 166/1/4
f 165/2/4 162/2/4 166/2/4
f 152/7/4 129/7/4 167/7/4
f 166/1/4 152/1/4 167/1/4
f 160/4/4 165/4/4 168/4/4
f 164/7/4 160/7/4 168/7/4
f 166/3/4 167/3/4 169/3/4
f 168/4/4 165/4/4 169/4/4
f 165/3/4 166/3/4 169/3/4
f 169/3/4 167/3/4 170/3/4
f 123/7/4 163/7/4 171/7/4
f 163/6/4 164/6/4 171/6/4
f 164/7/4 168/7/4 172/7/4
f 171/6/4 164/6/4 172/6/4
f 168/5/4 169/5/4 173/5/4
f 172/7/4 168/7/4 173/7/4
f 170/3/4 167/3/4 174/3/4
f 169/4/4 170/4/4 174/4/4
f 167/7/4 129/7/4 175/7/4
f 174/3/4 167/3/4 175/3/4
f 123/7/4 171/7/4 176/7/4
f 171/7/4 172/7/4 176/7/4
f 172/5/4 173/5/4 177/5/4
f 176/7/4 172/7/4 177/7/4
f 173/5/4 169/5/4 178/5/4
f 177/5/4 173/5/4 178/5/4
f 169/4/4 174/4/4 179/4/4
f 178/5/4 169/5/4 179/5/4
f 174/7/4 175/7/4 180/7/4
f 179/4/4 174/4/4 180/4/4
f 175/7/4 129/7/4 181/7/4
f 180/7/4 175/7/4 181/7/4
f 177/5/4 178/5/4 182/5/4
f 176/6/4 177/6/4 182/6/4
f 178/4/4 179/4/4 183/4/4
f 182/5/4 178/5/4 183/5/4
f 179/7/4 180/7/4 184/7/4
f 183/4/4 179/4/4 184/4/4
f 180/5/4 181/5/4 185/5/4
f 184/7/4 180/7/4 185/7/4
f 123/7/4 176/7/4 186/7/4
f 176/6/4 182/6/4 187/6/4
f 186/7/4 176/7/4 187/7/4
f 182/7/4 183/7/4 188/7/4
f 187/6/4 182/6/4 188/6/4
f 183/7/4 184/7/4 188/7/4
f 184/6/4 185/6/4 189/6/4
f 188/7/4 184/7/4 189/7/4
f 185/5/4 181/5/4 190/5/4
f 189/6/4 185/6/4 190/6/4
f 181/7/4 129/7/4 191/7/4
f 190/5/4 181/5/4 191/5/4
f 191/7/4 129/7/4 192/7/4
f 187/7/4 188/7/4 193/7/4
f 193/7/4 188/7/4 194/7/4
f 189/7/4 190/7/4 195/7/4
f 190/7/4 191/7/4 195/7/4
f 195/7/4 191/7/4 196/7/4
f 199/7/5 198/7/5 197/7/5
f 200/7/5 198/7/5 199/7/5
f 205/7/5 202/7/5 201/7/5
f 206/7/5 202/7/5 205/7/5
f 207/7/5 204/7/5 203/7/5
f 208/7/5 204/7/5 207/7/5
f 213/7/5 210/7/5 209/7/5
f 214/7/5 210/7/5 213/7/5
f 215/7/5 212/7/5 211/7/5
f 216/7/5 212/7/5 215/7/5
f 217/7/6 218/7/6 221/7/6
f 221/7/6 218/7/6 222/7/6
f 219/7/6 220/7/6 223/7/6
f 223/7/6 220/7/6 224/7/6
f 225/7/6 226/7/6 229/7/6
f 229/7/6 226/7/6 230/7/6
f 227/7/6 228/7/6 231/7/6
f 231/7/6 228/7/6 232/7/6
f 233/7/6 234/7/6 235/7/6
f 235/7/6 234/7/6 236/7/6
