# MagicaVoxel @ Ephtracy

# group
o 

# material
mtllib medallion.mtl
usemtl palette

# normals
vn -1 0 0
vn 1 0 0
vn 0 0 1
vn 0 0 -1
vn 0 -1 0
vn 0 1 0

# texcoords
vt 0.841797 0.5
vt 0.958984 0.5
vt 0.962891 0.5
vt 0.994141 0.5

# verts
v -0.9 0.2 -0.2
v -0.9 0.2 -0.4
v -0.9 1.3 -0.2
v -0.9 1.3 -0.4
v -0.8 0.1 -0.2
v -0.8 0.1 -0.4
v -0.8 0.2 -0.2
v -0.8 0.2 -0.4
v -0.8 1.3 -0.2
v -0.8 1.3 -0.4
v -0.8 1.4 -0.2
v -0.8 1.4 -0.4
v -0.4 1.9 -0.2
v -0.4 1.9 -0.4
v -0.4 2 -0.2
v -0.4 2 -0.4
v -0.3 1.6 -0.2
v -0.3 1.6 -0.4
v -0.3 1.9 -0.2
v -0.3 1.9 -0.4
v -0.2 1.5 -0.2
v -0.2 1.5 -0.4
v -0.2 1.6 -0.2
v -0.2 1.6 -0.4
v -0.1 1.4 -0.2
v -0.1 1.4 -0.4
v -0.1 1.5 -0.2
v -0.1 1.5 -0.4
v 0.2 1.7 -0.2
v 0.2 1.7 -0.4
v 0.2 2 -0.2
v 0.2 2 -0.4
v -0.2 1.7 -0.2
v -0.2 1.7 -0.4
v -0.2 2 -0.2
v -0.2 2 -0.4
v 0.1 1.4 -0.2
v 0.1 1.4 -0.4
v 0.1 1.5 -0.2
v 0.1 1.5 -0.4
v 0.2 1.5 -0.2
v 0.2 1.5 -0.4
v 0.2 1.6 -0.2
v 0.2 1.6 -0.4
v 0.3 1.6 -0.2
v 0.3 1.6 -0.4
v 0.3 1.9 -0.2
v 0.3 1.9 -0.4
v 0.4 1.9 -0.2
v 0.4 1.9 -0.4
v 0.4 2 -0.2
v 0.4 2 -0.4
v 0.8 0.1 -0.2
v 0.8 0.1 -0.4
v 0.8 0.2 -0.2
v 0.8 0.2 -0.4
v 0.8 1.3 -0.2
v 0.8 1.3 -0.4
v 0.8 1.4 -0.2
v 0.8 1.4 -0.4
v 0.9 0.2 -0.2
v 0.9 0.2 -0.4
v 0.9 1.3 -0.2
v 0.9 1.3 -0.4
v -0.9 0.2 -0.2
v -0.9 1.3 -0.2
v -0.8 0.1 -0.2
v -0.8 0.2 -0.2
v -0.8 0.3 -0.2
v -0.8 0.5 -0.2
v -0.8 0.6 -0.2
v -0.8 0.8 -0.2
v -0.8 0.9 -0.2
v -0.8 1.2 -0.2
v -0.8 1.3 -0.2
v -0.8 1.4 -0.2
v -0.7 0.4 -0.2
v -0.7 0.5 -0.2
v -0.7 0.6 -0.2
v -0.7 0.7 -0.2
v -0.7 0.9 -0.2
v -0.7 1.2 -0.2
v -0.5 0.2 -0.2
v -0.5 0.3 -0.2
v -0.5 0.4 -0.2
v -0.5 0.5 -0.2
v -0.5 0.9 -0.2
v -0.5 1.2 -0.2
v -0.4 0.2 -0.2
v -0.4 0.3 -0.2
v -0.4 0.4 -0.2
v -0.4 0.5 -0.2
v -0.4 0.6 -0.2
v -0.4 0.7 -0.2
v -0.4 0.8 -0.2
v -0.4 0.9 -0.2
v -0.4 1.2 -0.2
v -0.4 1.3 -0.2
v -0.4 1.9 -0.2
v -0.4 2 -0.2
v -0.3 0.2 -0.2
v -0.3 0.4 -0.2
v -0.3 0.9 -0.2
v -0.3 1.1 -0.2
v -0.3 1.6 -0.2
v -0.3 1.9 -0.2
v -0.2 0.2 -0.2
v -0.2 0.4 -0.2
v -0.2 0.5 -0.2
v -0.2 0.8 -0.2
v -0.2 0.9 -0.2
v -0.2 1.1 -0.2
v -0.2 1.2 -0.2
v -0.2 1.5 -0.2
v -0.2 1.6 -0.2
v -0.2 1.7 -0.2
v -0.2 2 -0.2
v -0.1 0.2 -0.2
v -0.1 0.3 -0.2
v -0.1 0.4 -0.2
v -0.1 0.5 -0.2
v -0.1 0.7 -0.2
v -0.1 0.8 -0.2
v -0.1 1.4 -0.2
v -0.1 1.5 -0.2
v 0 0.2 -0.2
v 0 0.3 -0.2
v 0 0.5 -0.2
v 0 0.6 -0.2
v 0 0.7 -0.2
v 0 1.1 -0.2
v 0 1.2 -0.2
v 0.1 0.6 -0.2
v 0.1 0.7 -0.2
v 0.1 1.1 -0.2
v 0.1 1.2 -0.2
v 0.1 1.4 -0.2
v 0.1 1.5 -0.2
v 0.2 0.2 -0.2
v 0.2 0.3 -0.2
v 0.2 0.5 -0.2
v 0.2 0.6 -0.2
v 0.2 0.7 -0.2
v 0.2 0.8 -0.2
v 0.2 1.5 -0.2
v 0.2 1.6 -0.2
v 0.2 1.7 -0.2
v 0.2 2 -0.2
v 0.3 0.5 -0.2
v 0.3 0.6 -0.2
v 0.3 0.8 -0.2
v 0.3 0.9 -0.2
v 0.3 1.1 -0.2
v 0.3 1.2 -0.2
v 0.3 1.6 -0.2
v 0.3 1.9 -0.2
v 0.4 0.2 -0.2
v 0.4 0.3 -0.2
v 0.4 0.6 -0.2
v 0.4 0.9 -0.2
v 0.4 1.1 -0.2
v 0.4 1.9 -0.2
v 0.4 2 -0.2
v 0.5 0.2 -0.2
v 0.5 0.3 -0.2
v 0.5 0.6 -0.2
v 0.6 0.2 -0.2
v 0.6 0.3 -0.2
v 0.6 0.6 -0.2
v 0.6 1.2 -0.2
v 0.6 1.3 -0.2
v 0.7 0.2 -0.2
v 0.7 0.3 -0.2
v 0.7 0.6 -0.2
v 0.7 1 -0.2
v 0.7 1.2 -0.2
v 0.7 1.3 -0.2
v 0.8 0.1 -0.2
v 0.8 0.2 -0.2
v 0.8 0.3 -0.2
v 0.8 0.6 -0.2
v 0.8 1 -0.2
v 0.8 1.2 -0.2
v 0.8 1.3 -0.2
v 0.8 1.4 -0.2
v 0.9 0.2 -0.2
v 0.9 1.3 -0.2
v -0.9 0.2 -0.4
v -0.9 1.3 -0.4
v -0.8 0.1 -0.4
v -0.8 0.2 -0.4
v -0.8 1.3 -0.4
v -0.8 1.4 -0.4
v -0.4 1.9 -0.4
v -0.4 2 -0.4
v -0.3 1.6 -0.4
v -0.3 1.9 -0.4
v -0.2 1.5 -0.4
v -0.2 1.6 -0.4
v -0.2 1.7 -0.4
v -0.2 2 -0.4
v -0.1 1.4 -0.4
v -0.1 1.5 -0.4
v 0.1 1.4 -0.4
v 0.1 1.5 -0.4
v 0.2 1.5 -0.4
v 0.2 1.6 -0.4
v 0.2 1.7 -0.4
v 0.2 2 -0.4
v 0.3 1.6 -0.4
v 0.3 1.9 -0.4
v 0.4 1.9 -0.4
v 0.4 2 -0.4
v 0.8 0.1 -0.4
v 0.8 0.2 -0.4
v 0.8 1.3 -0.4
v 0.8 1.4 -0.4
v 0.9 0.2 -0.4
v 0.9 1.3 -0.4
v -0.8 0.1 -0.2
v 0.8 0.1 -0.2
v -0.8 0.1 -0.4
v 0.8 0.1 -0.4
v -0.9 0.2 -0.2
v -0.8 0.2 -0.2
v 0.8 0.2 -0.2
v 0.9 0.2 -0.2
v -0.9 0.2 -0.4
v -0.8 0.2 -0.4
v 0.8 0.2 -0.4
v 0.9 0.2 -0.4
v -0.2 1.5 -0.2
v -0.1 1.5 -0.2
v 0.1 1.5 -0.2
v 0.2 1.5 -0.2
v -0.2 1.5 -0.4
v -0.1 1.5 -0.4
v 0.1 1.5 -0.4
v 0.2 1.5 -0.4
v -0.3 1.6 -0.2
v -0.2 1.6 -0.2
v 0.2 1.6 -0.2
v 0.3 1.6 -0.2
v -0.3 1.6 -0.4
v -0.2 1.6 -0.4
v 0.2 1.6 -0.4
v 0.3 1.6 -0.4
v -0.4 1.9 -0.2
v -0.3 1.9 -0.2
v 0.3 1.9 -0.2
v 0.4 1.9 -0.2
v -0.4 1.9 -0.4
v -0.3 1.9 -0.4
v 0.3 1.9 -0.4
v 0.4 1.9 -0.4
v -0.9 1.3 -0.2
v -0.8 1.3 -0.2
v 0.8 1.3 -0.2
v 0.9 1.3 -0.2
v -0.9 1.3 -0.4
v -0.8 1.3 -0.4
v 0.8 1.3 -0.4
v 0.9 1.3 -0.4
v -0.8 1.4 -0.2
v -0.1 1.4 -0.2
v 0.1 1.4 -0.2
v 0.8 1.4 -0.2
v -0.8 1.4 -0.4
v -0.1 1.4 -0.4
v 0.1 1.4 -0.4
v 0.8 1.4 -0.4
v -0.2 1.7 -0.2
v 0.2 1.7 -0.2
v -0.2 1.7 -0.4
v 0.2 1.7 -0.4
v -0.4 2 -0.2
v -0.2 2 -0.2
v 0.2 2 -0.2
v 0.4 2 -0.2
v -0.4 2 -0.4
v -0.2 2 -0.4
v 0.2 2 -0.4
v 0.4 2 -0.4

# faces
f 3/2/1 2/2/1 1/2/1
f 4/2/1 2/2/1 3/2/1
f 7/2/1 6/2/1 5/2/1
f 8/2/1 6/2/1 7/2/1
f 11/2/1 10/2/1 9/2/1
f 12/2/1 10/2/1 11/2/1
f 15/2/1 14/2/1 13/2/1
f 16/2/1 14/2/1 15/2/1
f 19/2/1 18/2/1 17/2/1
f 20/2/1 18/2/1 19/2/1
f 23/2/1 22/2/1 21/2/1
f 24/2/1 22/2/1 23/2/1
f 27/2/1 26/2/1 25/2/1
f 28/2/1 26/2/1 27/2/1
f 31/2/1 30/2/1 29/2/1
f 32/2/1 30/2/1 31/2/1
f 33/2/2 34/2/2 35/2/2
f 35/2/2 34/2/2 36/2/2
f 37/2/2 38/2/2 39/2/2
f 39/2/2 38/2/2 40/2/2
f 41/2/2 42/2/2 43/2/2
f 43/2/2 42/2/2 44/2/2
f 45/2/2 46/2/2 47/2/2
f 47/2/2 46/2/2 48/2/2
f 49/2/2 50/2/2 51/2/2
f 51/2/2 50/2/2 52/2/2
f 53/2/2 54/2/2 55/2/2
f 55/2/2 54/2/2 56/2/2
f 57/2/2 58/2/2 59/2/2
f 59/2/2 58/2/2 60/2/2
f 61/2/2 62/2/2 63/2/2
f 63/2/2 62/2/2 64/2/2
f 68/2/3 66/2/3 65/2/3
f 69/2/3 66/2/3 68/2/3
f 70/2/3 66/2/3 69/2/3
f 71/2/3 66/2/3 70/2/3
f 72/2/3 66/2/3 71/2/3
f 73/2/3 66/2/3 72/2/3
f 74/2/3 66/2/3 73/2/3
f 75/2/3 66/2/3 74/2/3
f 77/2/3 70/2/3 69/2/3
f 78/4/3 71/4/3 70/4/3
f 78/2/3 70/2/3 77/2/3
f 79/2/3 72/2/3 71/2/3
f 79/4/3 71/4/3 78/4/3
f 80/2/3 72/2/3 79/2/3
f 81/4/3 73/4/3 72/4/3
f 81/2/3 74/2/3 73/2/3
f 82/4/3 75/4/3 74/4/3
f 82/2/3 74/2/3 81/2/3
f 83/2/3 68/2/3 67/2/3
f 83/4/3 69/4/3 68/4/3
f 84/2/3 77/2/3 69/2/3
f 84/4/3 69/4/3 83/4/3
f 85/4/3 78/4/3 77/4/3
f 85/2/3 77/2/3 84/2/3
f 86/2/3 79/2/3 78/2/3
f 86/4/3 78/4/3 85/4/3
f 87/4/3 82/4/3 81/4/3
f 87/4/3 81/4/3 72/4/3
f 88/4/3 75/4/3 82/4/3
f 88/4/3 82/4/3 87/4/3
f 89/2/3 83/2/3 67/2/3
f 89/2/3 84/2/3 83/2/3
f 90/4/3 85/4/3 84/4/3
f 90/2/3 84/2/3 89/2/3
f 91/2/3 86/2/3 85/2/3
f 91/4/3 85/4/3 90/4/3
f 92/2/3 79/2/3 86/2/3
f 92/2/3 86/2/3 91/2/3
f 93/4/3 80/4/3 79/4/3
f 93/2/3 79/2/3 92/2/3
f 94/2/3 72/2/3 80/2/3
f 94/4/3 80/4/3 93/4/3
f 95/4/3 87/4/3 72/4/3
f 95/2/3 72/2/3 94/2/3
f 96/2/3 88/2/3 87/2/3
f 96/4/3 87/4/3 95/4/3
f 97/4/3 75/4/3 88/4/3
f 97/2/3 88/2/3 96/2/3
f 98/2/3 76/2/3 75/2/3
f 98/4/3 75/4/3 97/4/3
f 101/4/3 91/4/3 90/4/3
f 101/4/3 92/4/3 91/4/3
f 101/4/3 90/4/3 89/4/3
f 101/2/3 89/2/3 67/2/3
f 102/4/3 92/4/3 101/4/3
f 103/2/3 94/2/3 93/2/3
f 103/2/3 97/2/3 96/2/3
f 103/2/3 96/2/3 95/2/3
f 103/2/3 95/2/3 94/2/3
f 103/2/3 98/2/3 97/2/3
f 103/2/3 93/2/3 92/2/3
f 104/2/3 98/2/3 103/2/3
f 106/2/3 100/2/3 99/2/3
f 107/2/3 102/2/3 101/2/3
f 107/2/3 101/2/3 67/2/3
f 108/4/3 92/4/3 102/4/3
f 108/2/3 102/2/3 107/2/3
f 109/2/3 103/2/3 92/2/3
f 109/4/3 92/4/3 108/4/3
f 110/2/3 103/2/3 109/2/3
f 111/1/3 104/1/3 103/1/3
f 111/2/3 103/2/3 110/2/3
f 112/2/3 98/2/3 104/2/3
f 112/1/3 104/1/3 111/1/3
f 113/2/3 98/2/3 112/2/3
f 115/2/3 106/2/3 105/2/3
f 116/2/3 106/2/3 115/2/3
f 117/2/3 100/2/3 106/2/3
f 117/2/3 106/2/3 116/2/3
f 118/2/3 107/2/3 67/2/3
f 118/4/3 108/4/3 107/4/3
f 119/4/3 108/4/3 118/4/3
f 120/2/3 110/2/3 109/2/3
f 120/4/3 108/4/3 119/4/3
f 120/2/3 109/2/3 108/2/3
f 121/2/3 110/2/3 120/2/3
f 122/2/3 110/2/3 121/2/3
f 123/1/3 111/1/3 110/1/3
f 123/2/3 110/2/3 122/2/3
f 123/1/3 112/1/3 111/1/3
f 123/1/3 113/1/3 112/1/3
f 124/2/3 98/2/3 113/2/3
f 124/2/3 76/2/3 98/2/3
f 125/2/3 116/2/3 115/2/3
f 125/2/3 115/2/3 114/2/3
f 126/2/3 119/2/3 118/2/3
f 126/2/3 118/2/3 67/2/3
f 127/4/3 121/4/3 120/4/3
f 127/2/3 119/2/3 126/2/3
f 127/4/3 120/4/3 119/4/3
f 128/2/3 122/2/3 121/2/3
f 128/4/3 121/4/3 127/4/3
f 129/2/3 122/2/3 128/2/3
f 130/1/3 123/1/3 122/1/3
f 130/2/3 122/2/3 129/2/3
f 131/1/3 113/1/3 123/1/3
f 131/1/3 123/1/3 130/1/3
f 132/2/3 124/2/3 113/2/3
f 132/1/3 113/1/3 131/1/3
f 132/2/3 125/2/3 124/2/3
f 133/1/3 130/1/3 129/1/3
f 133/1/3 131/1/3 130/1/3
f 133/4/3 129/4/3 128/4/3
f 134/1/3 131/1/3 133/1/3
f 135/2/3 132/2/3 131/2/3
f 135/1/3 131/1/3 134/1/3
f 136/2/3 125/2/3 132/2/3
f 136/2/3 132/2/3 135/2/3
f 137/2/3 125/2/3 136/2/3
f 138/2/3 116/2/3 125/2/3
f 138/2/3 125/2/3 137/2/3
f 139/4/3 127/4/3 126/4/3
f 139/2/3 126/2/3 67/2/3
f 140/2/3 128/2/3 127/2/3
f 140/4/3 127/4/3 139/4/3
f 141/4/3 133/4/3 128/4/3
f 141/2/3 128/2/3 140/2/3
f 142/2/3 134/2/3 133/2/3
f 142/4/3 133/4/3 141/4/3
f 143/1/3 135/1/3 134/1/3
f 143/2/3 134/2/3 142/2/3
f 143/1/3 136/1/3 135/1/3
f 144/1/3 136/1/3 143/1/3
f 145/2/3 116/2/3 138/2/3
f 146/2/3 116/2/3 145/2/3
f 147/2/3 116/2/3 146/2/3
f 149/2/3 142/2/3 141/2/3
f 149/4/3 141/4/3 140/4/3
f 149/2/3 143/2/3 142/2/3
f 149/2/3 144/2/3 143/2/3
f 150/2/3 144/2/3 149/2/3
f 151/1/3 136/1/3 144/1/3
f 151/2/3 144/2/3 150/2/3
f 152/1/3 136/1/3 151/1/3
f 153/1/3 136/1/3 152/1/3
f 154/2/3 137/2/3 136/2/3
f 154/1/3 136/1/3 153/1/3
f 155/2/3 148/2/3 147/2/3
f 155/2/3 147/2/3 146/2/3
f 156/2/3 148/2/3 155/2/3
f 157/2/3 139/2/3 67/2/3
f 157/2/3 140/2/3 139/2/3
f 158/4/3 150/4/3 149/4/3
f 158/2/3 140/2/3 157/2/3
f 158/4/3 149/4/3 140/4/3
f 159/2/3 152/2/3 151/2/3
f 159/4/3 150/4/3 158/4/3
f 159/2/3 151/2/3 150/2/3
f 160/1/3 153/1/3 152/1/3
f 160/2/3 152/2/3 159/2/3
f 161/2/3 154/2/3 153/2/3
f 161/1/3 153/1/3 160/1/3
f 162/2/3 148/2/3 156/2/3
f 163/2/3 148/2/3 162/2/3
f 164/2/3 157/2/3 67/2/3
f 164/4/3 158/4/3 157/4/3
f 165/2/3 160/2/3 159/2/3
f 165/4/3 158/4/3 164/4/3
f 165/2/3 159/2/3 158/2/3
f 165/2/3 161/2/3 160/2/3
f 166/2/3 161/2/3 165/2/3
f 167/2/3 164/2/3 67/2/3
f 167/2/3 165/2/3 164/2/3
f 168/4/3 166/4/3 165/4/3
f 168/2/3 165/2/3 167/2/3
f 169/2/3 161/2/3 166/2/3
f 169/4/3 166/4/3 168/4/3
f 170/2/3 137/2/3 154/2/3
f 170/2/3 161/2/3 169/2/3
f 170/2/3 154/2/3 161/2/3
f 171/2/3 137/2/3 170/2/3
f 172/4/3 168/4/3 167/4/3
f 172/2/3 167/2/3 67/2/3
f 173/2/3 169/2/3 168/2/3
f 173/4/3 168/4/3 172/4/3
f 173/2/3 170/2/3 169/2/3
f 174/2/3 170/2/3 173/2/3
f 175/2/3 170/2/3 174/2/3
f 176/3/3 171/3/3 170/3/3
f 176/2/3 170/2/3 175/2/3
f 177/2/3 137/2/3 171/2/3
f 177/3/3 171/3/3 176/3/3
f 178/2/3 172/2/3 67/2/3
f 178/2/3 173/2/3 172/2/3
f 179/2/3 173/2/3 178/2/3
f 180/4/3 174/4/3 173/4/3
f 180/2/3 173/2/3 179/2/3
f 181/2/3 175/2/3 174/2/3
f 181/4/3 174/4/3 180/4/3
f 182/3/3 176/3/3 175/3/3
f 182/2/3 175/2/3 181/2/3
f 183/2/3 177/2/3 176/2/3
f 183/3/3 176/3/3 182/3/3
f 184/2/3 137/2/3 177/2/3
f 184/2/3 177/2/3 183/2/3
f 185/2/3 137/2/3 184/2/3
f 186/2/3 183/2/3 182/2/3
f 186/2/3 181/2/3 180/2/3
f 186/2/3 184/2/3 183/2/3
f 186/2/3 180/2/3 179/2/3
f 186/2/3 182/2/3 181/2/3
f 187/2/3 184/2/3 186/2/3
f 188/2/4 189/2/4 191/2/4
f 191/2/4 189/2/4 192/2/4
f 194/2/4 195/2/4 197/2/4
f 196/2/4 197/2/4 199/2/4
f 199/2/4 197/2/4 200/2/4
f 197/2/4 195/2/4 201/2/4
f 200/2/4 197/2/4 201/2/4
f 190/2/4 191/2/4 202/2/4
f 191/2/4 192/2/4 202/2/4
f 192/2/4 193/2/4 202/2/4
f 198/2/4 199/2/4 203/2/4
f 199/2/4 200/2/4 203/2/4
f 190/2/4 202/2/4 204/2/4
f 202/2/4 203/2/4 204/2/4
f 203/2/4 200/2/4 205/2/4
f 204/2/4 203/2/4 205/2/4
f 205/2/4 200/2/4 206/2/4
f 206/2/4 200/2/4 207/2/4
f 207/2/4 200/2/4 208/2/4
f 208/2/4 209/2/4 210/2/4
f 207/2/4 208/2/4 210/2/4
f 210/2/4 209/2/4 211/2/4
f 211/2/4 209/2/4 212/2/4
f 212/2/4 209/2/4 213/2/4
f 190/2/4 204/2/4 214/2/4
f 214/2/4 204/2/4 215/2/4
f 215/2/4 204/2/4 216/2/4
f 216/2/4 204/2/4 217/2/4
f 215/2/4 216/2/4 218/2/4
f 218/2/4 216/2/4 219/2/4
f 222/2/5 221/2/5 220/2/5
f 223/2/5 221/2/5 222/2/5
f 228/2/5 225/2/5 224/2/5
f 229/2/5 225/2/5 228/2/5
f 230/2/5 227/2/5 226/2/5
f 231/2/5 227/2/5 230/2/5
f 236/2/5 233/2/5 232/2/5
f 237/2/5 233/2/5 236/2/5
f 238/2/5 235/2/5 234/2/5
f 239/2/5 235/2/5 238/2/5
f 244/2/5 241/2/5 240/2/5
f 245/2/5 241/2/5 244/2/5
f 246/2/5 243/2/5 242/2/5
f 247/2/5 243/2/5 246/2/5
f 252/2/5 249/2/5 248/2/5
f 253/2/5 249/2/5 252/2/5
f 254/2/5 251/2/5 250/2/5
f 255/2/5 251/2/5 254/2/5
f 256/2/6 257/2/6 260/2/6
f 260/2/6 257/2/6 261/2/6
f 258/2/6 259/2/6 262/2/6
f 262/2/6 259/2/6 263/2/6
f 264/2/6 265/2/6 268/2/6
f 268/2/6 265/2/6 269/2/6
f 266/2/6 267/2/6 270/2/6
f 270/2/6 267/2/6 271/2/6
f 272/2/6 273/2/6 274/2/6
f 274/2/6 273/2/6 275/2/6
f 276/2/6 277/2/6 280/2/6
f 280/2/6 277/2/6 281/2/6
f 278/2/6 279/2/6 282/2/6
f 282/2/6 279/2/6 283/2/6
