# MagicaVoxel @ Ephtracy

# group
o 

# material
mtllib burger.mtl
usemtl palette

# normals
vn -1 0 0
vn 1 0 0
vn 0 0 1
vn 0 0 -1
vn 0 -1 0
vn 0 1 0

# texcoords
vt 0.0683594 0.5
vt 0.396484 0.5
vt 0.841797 0.5
vt 0.884766 0.5
vt 0.994141 0.5

# verts
v -0.8 0.3 0.3
v -0.8 0.3 -0.7
v -0.8 0.4 0.3
v -0.8 0.4 -0.7
v -0.8 0.5 0.3
v -0.8 0.5 -0.7
v -0.8 0.6 0.3
v -0.8 0.6 -0.7
v -0.8 0.7 0.3
v -0.8 0.7 -0.7
v -0.8 0.8 0.3
v -0.8 0.8 -0.7
v -0.8 0.9 0.3
v -0.8 0.9 -0.7
v -0.8 1 0.3
v -0.8 1 -0.7
v -0.7 0 0.3
v -0.7 0 -0.7
v -0.7 0.1 0.3
v -0.7 0.1 -0.7
v -0.7 0.3 0.3
v -0.7 0.3 -0.7
v -0.7 1 0.3
v -0.7 1 -0.7
v -0.7 1.3 0.3
v -0.7 1.3 -0.7
v -0.6 1.3 0.3
v -0.6 1.3 -0.7
v -0.6 1.4 0.3
v -0.6 1.4 -0.7
v -0.5 1.4 0.3
v -0.5 1.4 -0.7
v -0.5 1.5 0.3
v -0.5 1.5 -0.7
v 0.3 1.4 0.3
v 0.3 1.4 -0.7
v 0.3 1.5 0.3
v 0.3 1.5 -0.7
v 0.4 1.3 0.3
v 0.4 1.3 -0.7
v 0.4 1.4 0.3
v 0.4 1.4 -0.7
v 0.5 0 0.3
v 0.5 0 -0.7
v 0.5 0.1 0.3
v 0.5 0.1 -0.7
v 0.5 0.2 0.3
v 0.5 0.2 -0.7
v 0.5 0.3 0.3
v 0.5 0.3 -0.7
v 0.5 1 0.3
v 0.5 1 -0.7
v 0.5 1.3 0.3
v 0.5 1.3 -0.7
v 0.6 0.3 0.3
v 0.6 0.3 -0.7
v 0.6 0.4 0.3
v 0.6 0.4 -0.7
v 0.6 0.5 0.3
v 0.6 0.5 -0.7
v 0.6 0.6 0.3
v 0.6 0.6 -0.7
v 0.6 0.7 0.3
v 0.6 0.7 -0.7
v 0.6 0.8 0.3
v 0.6 0.8 -0.7
v 0.6 0.9 0.3
v 0.6 0.9 -0.7
v 0.6 1 0.3
v 0.6 1 -0.7
v -0.8 0.3 0.3
v -0.8 0.4 0.3
v -0.8 0.5 0.3
v -0.8 0.6 0.3
v -0.8 0.7 0.3
v -0.8 0.8 0.3
v -0.8 0.9 0.3
v -0.8 1 0.3
v -0.7 0 0.3
v -0.7 0.1 0.3
v -0.7 0.3 0.3
v -0.7 1 0.3
v -0.7 1.3 0.3
v -0.6 0.2 0.3
v -0.6 0.3 0.3
v -0.6 0.4 0.3
v -0.6 1.3 0.3
v -0.6 1.4 0.3
v -0.5 1.4 0.3
v -0.5 1.5 0.3
v -0.4 0.2 0.3
v -0.4 0.3 0.3
v -0.4 0.4 0.3
v -0.3 0.2 0.3
v -0.3 0.3 0.3
v -0.3 0.4 0.3
v -0.1 0.2 0.3
v -0.1 0.3 0.3
v -0.1 0.4 0.3
v 0.1 0.2 0.3
v 0.1 0.3 0.3
v 0.1 0.4 0.3
v 0.3 0.2 0.3
v 0.3 0.3 0.3
v 0.3 0.4 0.3
v 0.3 1.4 0.3
v 0.3 1.5 0.3
v 0.4 0.2 0.3
v 0.4 0.3 0.3
v 0.4 0.4 0.3
v 0.4 1.3 0.3
v 0.4 1.4 0.3
v 0.5 0 0.3
v 0.5 0.1 0.3
v 0.5 0.2 0.3
v 0.5 0.3 0.3
v 0.5 0.4 0.3
v 0.5 1 0.3
v 0.5 1.3 0.3
v 0.6 0.3 0.3
v 0.6 0.4 0.3
v 0.6 0.5 0.3
v 0.6 0.6 0.3
v 0.6 0.7 0.3
v 0.6 0.8 0.3
v 0.6 0.9 0.3
v 0.6 1 0.3
v -0.8 0.3 -0.7
v -0.8 0.4 -0.7
v -0.8 0.5 -0.7
v -0.8 0.6 -0.7
v -0.8 0.7 -0.7
v -0.8 0.8 -0.7
v -0.8 0.9 -0.7
v -0.8 1 -0.7
v -0.7 0 -0.7
v -0.7 0.1 -0.7
v -0.7 0.3 -0.7
v -0.7 1 -0.7
v -0.7 1.3 -0.7
v -0.6 0.2 -0.7
v -0.6 0.3 -0.7
v -0.6 0.4 -0.7
v -0.6 1.3 -0.7
v -0.6 1.4 -0.7
v -0.5 1.4 -0.7
v -0.5 1.5 -0.7
v -0.4 0.2 -0.7
v -0.4 0.3 -0.7
v -0.4 0.4 -0.7
v -0.3 0.2 -0.7
v -0.3 0.3 -0.7
v -0.3 0.4 -0.7
v -0.1 0.2 -0.7
v -0.1 0.3 -0.7
v -0.1 0.4 -0.7
v 0.1 0.2 -0.7
v 0.1 0.3 -0.7
v 0.1 0.4 -0.7
v 0.3 0.2 -0.7
v 0.3 0.3 -0.7
v 0.3 0.4 -0.7
v 0.3 1.4 -0.7
v 0.3 1.5 -0.7
v 0.4 0.2 -0.7
v 0.4 0.3 -0.7
v 0.4 0.4 -0.7
v 0.4 1.3 -0.7
v 0.4 1.4 -0.7
v 0.5 0 -0.7
v 0.5 0.1 -0.7
v 0.5 0.2 -0.7
v 0.5 0.3 -0.7
v 0.5 0.4 -0.7
v 0.5 1 -0.7
v 0.5 1.3 -0.7
v 0.6 0.3 -0.7
v 0.6 0.4 -0.7
v 0.6 0.5 -0.7
v 0.6 0.6 -0.7
v 0.6 0.7 -0.7
v 0.6 0.8 -0.7
v 0.6 0.9 -0.7
v 0.6 1 -0.7
v -0.7 0 0.3
v 0.5 0 0.3
v -0.7 0 -0.7
v 0.5 0 -0.7
v -0.8 0.3 0.3
v -0.7 0.3 0.3
v 0.5 0.3 0.3
v 0.6 0.3 0.3
v -0.8 0.3 -0.7
v -0.7 0.3 -0.7
v 0.5 0.3 -0.7
v 0.6 0.3 -0.7
v -0.8 1 0.3
v -0.7 1 0.3
v 0.5 1 0.3
v 0.6 1 0.3
v -0.8 1 -0.7
v -0.7 1 -0.7
v 0.5 1 -0.7
v 0.6 1 -0.7
v -0.7 1.3 0.3
v -0.6 1.3 0.3
v 0.4 1.3 0.3
v 0.5 1.3 0.3
v -0.7 1.3 -0.7
v -0.6 1.3 -0.7
v 0.4 1.3 -0.7
v 0.5 1.3 -0.7
v -0.6 1.4 0.3
v -0.5 1.4 0.3
v 0.3 1.4 0.3
v 0.4 1.4 0.3
v -0.6 1.4 -0.7
v -0.5 1.4 -0.7
v 0.3 1.4 -0.7
v 0.4 1.4 -0.7
v -0.5 1.5 0.3
v 0.3 1.5 0.3
v -0.5 1.5 -0.7
v 0.3 1.5 -0.7

# faces
f 3/5/1 2/5/1 1/5/1
f 4/5/1 2/5/1 3/5/1
f 5/4/1 4/4/1 3/4/1
f 6/4/1 4/4/1 5/4/1
f 7/5/1 6/5/1 5/5/1
f 8/5/1 6/5/1 7/5/1
f 9/2/1 8/2/1 7/2/1
f 10/2/1 8/2/1 9/2/1
f 11/5/1 10/5/1 9/5/1
f 12/5/1 10/5/1 11/5/1
f 13/3/1 12/3/1 11/3/1
f 14/3/1 12/3/1 13/3/1
f 15/5/1 14/5/1 13/5/1
f 16/5/1 14/5/1 15/5/1
f 19/5/1 18/5/1 17/5/1
f 20/5/1 18/5/1 19/5/1
f 21/1/1 20/1/1 19/1/1
f 22/1/1 20/1/1 21/1/1
f 25/1/1 24/1/1 23/1/1
f 26/1/1 24/1/1 25/1/1
f 29/1/1 28/1/1 27/1/1
f 30/1/1 28/1/1 29/1/1
f 33/1/1 32/1/1 31/1/1
f 34/1/1 32/1/1 33/1/1
f 35/1/2 36/1/2 37/1/2
f 37/1/2 36/1/2 38/1/2
f 39/1/2 40/1/2 41/1/2
f 41/1/2 40/1/2 42/1/2
f 43/5/2 44/5/2 45/5/2
f 45/5/2 44/5/2 46/5/2
f 45/1/2 46/1/2 47/1/2
f 47/1/2 46/1/2 48/1/2
f 47/5/2 48/5/2 49/5/2
f 49/5/2 48/5/2 50/5/2
f 51/1/2 52/1/2 53/1/2
f 53/1/2 52/1/2 54/1/2
f 55/5/2 56/5/2 57/5/2
f 57/5/2 56/5/2 58/5/2
f 57/4/2 58/4/2 59/4/2
f 59/4/2 58/4/2 60/4/2
f 59/5/2 60/5/2 61/5/2
f 61/5/2 60/5/2 62/5/2
f 61/2/2 62/2/2 63/2/2
f 63/2/2 62/2/2 64/2/2
f 63/5/2 64/5/2 65/5/2
f 65/5/2 64/5/2 66/5/2
f 65/3/2 66/3/2 67/3/2
f 67/3/2 66/3/2 68/3/2
f 67/5/2 68/5/2 69/5/2
f 69/5/2 68/5/2 70/5/2
f 81/5/3 72/5/3 71/5/3
f 82/5/3 78/5/3 77/5/3
f 84/1/3 81/1/3 80/1/3
f 85/5/3 72/5/3 81/5/3
f 85/1/3 81/1/3 84/1/3
f 86/4/3 73/4/3 72/4/3
f 86/5/3 72/5/3 85/5/3
f 87/1/3 83/1/3 82/1/3
f 89/1/3 88/1/3 87/1/3
f 91/5/3 85/5/3 84/5/3
f 91/1/3 84/1/3 80/1/3
f 92/4/3 86/4/3 85/4/3
f 92/5/3 85/5/3 91/5/3
f 93/4/3 73/4/3 86/4/3
f 93/4/3 86/4/3 92/4/3
f 94/1/3 92/1/3 91/1/3
f 94/1/3 91/1/3 80/1/3
f 95/5/3 93/5/3 92/5/3
f 95/1/3 92/1/3 94/1/3
f 96/4/3 73/4/3 93/4/3
f 96/5/3 93/5/3 95/5/3
f 97/5/3 95/5/3 94/5/3
f 97/1/3 94/1/3 80/1/3
f 98/4/3 96/4/3 95/4/3
f 98/5/3 95/5/3 97/5/3
f 99/4/3 73/4/3 96/4/3
f 99/4/3 96/4/3 98/4/3
f 100/1/3 98/1/3 97/1/3
f 100/1/3 97/1/3 80/1/3
f 101/5/3 99/5/3 98/5/3
f 101/1/3 98/1/3 100/1/3
f 102/4/3 73/4/3 99/4/3
f 102/5/3 99/5/3 101/5/3
f 103/5/3 101/5/3 100/5/3
f 103/1/3 100/1/3 80/1/3
f 104/4/3 102/4/3 101/4/3
f 104/5/3 101/5/3 103/5/3
f 105/4/3 73/4/3 102/4/3
f 105/4/3 102/4/3 104/4/3
f 106/1/3 90/1/3 89/1/3
f 106/1/3 89/1/3 87/1/3
f 107/1/3 90/1/3 106/1/3
f 108/1/3 104/1/3 103/1/3
f 108/1/3 103/1/3 80/1/3
f 109/5/3 105/5/3 104/5/3
f 109/1/3 104/1/3 108/1/3
f 110/4/3 73/4/3 105/4/3
f 110/5/3 105/5/3 109/5/3
f 111/1/3 106/1/3 87/1/3
f 111/1/3 87/1/3 82/1/3
f 112/1/3 106/1/3 111/1/3
f 113/5/3 80/5/3 79/5/3
f 114/1/3 108/1/3 80/1/3
f 114/5/3 80/5/3 113/5/3
f 115/5/3 109/5/3 108/5/3
f 115/1/3 108/1/3 114/1/3
f 116/4/3 110/4/3 109/4/3
f 116/5/3 109/5/3 115/5/3
f 117/4/3 73/4/3 110/4/3
f 117/4/3 110/4/3 116/4/3
f 118/5/3 82/5/3 77/5/3
f 118/1/3 111/1/3 82/1/3
f 119/1/3 111/1/3 118/1/3
f 120/5/3 117/5/3 116/5/3
f 121/4/3 73/4/3 117/4/3
f 121/5/3 117/5/3 120/5/3
f 122/5/3 74/5/3 73/5/3
f 122/4/3 73/4/3 121/4/3
f 123/2/3 75/2/3 74/2/3
f 123/5/3 74/5/3 122/5/3
f 124/5/3 76/5/3 75/5/3
f 124/2/3 75/2/3 123/2/3
f 125/3/3 77/3/3 76/3/3
f 125/5/3 76/5/3 124/5/3
f 126/5/3 118/5/3 77/5/3
f 126/3/3 77/3/3 125/3/3
f 127/5/3 118/5/3 126/5/3
f 128/5/4 129/5/4 138/5/4
f 134/5/4 135/5/4 139/5/4
f 137/1/4 138/1/4 141/1/4
f 138/5/4 129/5/4 142/5/4
f 141/1/4 138/1/4 142/1/4
f 129/4/4 130/4/4 143/4/4
f 142/5/4 129/5/4 143/5/4
f 139/1/4 140/1/4 144/1/4
f 144/1/4 145/1/4 146/1/4
f 141/5/4 142/5/4 148/5/4
f 137/1/4 141/1/4 148/1/4
f 142/4/4 143/4/4 149/4/4
f 148/5/4 142/5/4 149/5/4
f 143/4/4 130/4/4 150/4/4
f 149/4/4 143/4/4 150/4/4
f 148/1/4 149/1/4 151/1/4
f 137/1/4 148/1/4 151/1/4
f 149/5/4 150/5/4 152/5/4
f 151/1/4 149/1/4 152/1/4
f 150/4/4 130/4/4 153/4/4
f 152/5/4 150/5/4 153/5/4
f 151/5/4 152/5/4 154/5/4
f 137/1/4 151/1/4 154/1/4
f 152/4/4 153/4/4 155/4/4
f 154/5/4 152/5/4 155/5/4
f 153/4/4 130/4/4 156/4/4
f 155/4/4 153/4/4 156/4/4
f 154/1/4 155/1/4 157/1/4
f 137/1/4 154/1/4 157/1/4
f 155/5/4 156/5/4 158/5/4
f 157/1/4 155/1/4 158/1/4
f 156/4/4 130/4/4 159/4/4
f 158/5/4 156/5/4 159/5/4
f 157/5/4 158/5/4 160/5/4
f 137/1/4 157/1/4 160/1/4
f 158/4/4 159/4/4 161/4/4
f 160/5/4 158/5/4 161/5/4
f 159/4/4 130/4/4 162/4/4
f 161/4/4 159/4/4 162/4/4
f 146/1/4 147/1/4 163/1/4
f 144/1/4 146/1/4 163/1/4
f 163/1/4 147/1/4 164/1/4
f 160/1/4 161/1/4 165/1/4
f 137/1/4 160/1/4 165/1/4
f 161/5/4 162/5/4 166/5/4
f 165/1/4 161/1/4 166/1/4
f 162/4/4 130/4/4 167/4/4
f 166/5/4 162/5/4 167/5/4
f 144/1/4 163/1/4 168/1/4
f 139/1/4 144/1/4 168/1/4
f 168/1/4 163/1/4 169/1/4
f 136/5/4 137/5/4 170/5/4
f 137/1/4 165/1/4 171/1/4
f 170/5/4 137/5/4 171/5/4
f 165/5/4 166/5/4 172/5/4
f 171/1/4 165/1/4 172/1/4
f 166/4/4 167/4/4 173/4/4
f 172/5/4 166/5/4 173/5/4
f 167/4/4 130/4/4 174/4/4
f 173/4/4 167/4/4 174/4/4
f 134/5/4 139/5/4 175/5/4
f 139/1/4 168/1/4 175/1/4
f 175/1/4 168/1/4 176/1/4
f 173/5/4 174/5/4 177/5/4
f 174/4/4 130/4/4 178/4/4
f 177/5/4 174/5/4 178/5/4
f 130/5/4 131/5/4 179/5/4
f 178/4/4 130/4/4 179/4/4
f 131/2/4 132/2/4 180/2/4
f 179/5/4 131/5/4 180/5/4
f 132/5/4 133/5/4 181/5/4
f 180/2/4 132/2/4 181/2/4
f 133/3/4 134/3/4 182/3/4
f 181/5/4 133/5/4 182/5/4
f 134/5/4 175/5/4 183/5/4
f 182/3/4 134/3/4 183/3/4
f 183/5/4 175/5/4 184/5/4
f 187/5/5 186/5/5 185/5/5
f 188/5/5 186/5/5 187/5/5
f 193/5/5 190/5/5 189/5/5
f 194/5/5 190/5/5 193/5/5
f 195/5/5 192/5/5 191/5/5
f 196/5/5 192/5/5 195/5/5
f 197/5/6 198/5/6 201/5/6
f 201/5/6 198/5/6 202/5/6
f 199/5/6 200/5/6 203/5/6
f 203/5/6 200/5/6 204/5/6
f 205/1/6 206/1/6 209/1/6
f 209/1/6 206/1/6 210/1/6
f 207/1/6 208/1/6 211/1/6
f 211/1/6 208/1/6 212/1/6
f 213/1/6 214/1/6 217/1/6
f 217/1/6 214/1/6 218/1/6
f 215/1/6 216/1/6 219/1/6
f 219/1/6 216/1/6 220/1/6
f 221/1/6 222/1/6 223/1/6
f 223/1/6 222/1/6 224/1/6
