# MagicaVoxel @ Ephtracy

# group
o 

# material
mtllib mitten.mtl
usemtl palette

# normals
vn -1 0 0
vn 1 0 0
vn 0 0 1
vn 0 0 -1
vn 0 -1 0
vn 0 1 0

# texcoords
vt 0.525391 0.5
vt 0.587891 0.5
vt 0.923828 0.5
vt 0.958984 0.5

# verts
v -0.5 0.6 0.3
v -0.5 0.6 -2.98023e-008
v -0.5 1.4 0.3
v -0.5 1.4 0.2
v -0.5 1.4 0.1
v -0.5 1.4 -2.98023e-008
v -0.5 1.5 0.2
v -0.5 1.5 0.1
v -0.4 0 0.2
v -0.4 0 0.1
v -0.4 0.1 0.3
v -0.4 0.1 0.2
v -0.4 0.1 0.1
v -0.4 0.1 -2.98023e-008
v -0.4 0.2 0.3
v -0.4 0.2 -2.98023e-008
v -0.4 0.3 0.3
v -0.4 0.3 -2.98023e-008
v -0.4 0.6 0.3
v -0.4 0.6 -2.98023e-008
v -0.4 1.4 0.3
v -0.4 1.4 0.2
v -0.4 1.4 0.1
v -0.4 1.4 -2.98023e-008
v -0.4 1.5 0.3
v -0.4 1.5 0.2
v -0.4 1.5 0.1
v -0.4 1.5 -2.98023e-008
v -0.4 1.6 0.2
v -0.4 1.6 0.1
v -0.4 1.7 0.2
v -0.4 1.7 0.1
v -0.3 0 0.3
v -0.3 0 0.2
v -0.3 0 0.1
v -0.3 0 -2.98023e-008
v -0.3 0.1 0.3
v -0.3 0.1 0.2
v -0.3 0.1 0.1
v -0.3 0.1 -2.98023e-008
v -0.3 1.5 0.3
v -0.3 1.5 0.2
v -0.3 1.5 0.1
v -0.3 1.5 -2.98023e-008
v -0.3 1.6 0.3
v -0.3 1.6 0.2
v -0.3 1.6 0.1
v -0.3 1.6 -2.98023e-008
v -0.3 1.7 0.3
v -0.3 1.7 0.2
v -0.3 1.7 0.1
v -0.3 1.7 -2.98023e-008
v -0.3 1.8 0.2
v -0.3 1.8 0.1
v -0.2 1.7 0.3
v -0.2 1.7 0.2
v -0.2 1.7 0.1
v -0.2 1.7 -2.98023e-008
v -0.2 1.8 0.3
v -0.2 1.8 0.2
v -0.2 1.8 0.1
v -0.2 1.8 -2.98023e-008
v -0.2 1.9 0.2
v -0.2 1.9 0.1
v -0.1 1.8 0.3
v -0.1 1.8 0.2
v -0.1 1.8 0.1
v -0.1 1.8 -2.98023e-008
v -0.1 1.9 0.3
v -0.1 1.9 0.2
v -0.1 1.9 0.1
v -0.1 1.9 -2.98023e-008
v 0.6 1 0.3
v 0.6 1 -2.98023e-008
v 0.6 1.1 0.3
v 0.6 1.1 -2.98023e-008
v 0.1 1.8 0.3
v 0.1 1.8 0.2
v 0.1 1.8 0.1
v 0.1 1.8 -2.98023e-008
v 0.1 1.9 0.3
v 0.1 1.9 0.2
v 0.1 1.9 0.1
v 0.1 1.9 -2.98023e-008
v 0.2 0 0.3
v 0.2 0 0.2
v 0.2 0 0.1
v 0.2 0 -2.98023e-008
v 0.2 0.1 0.3
v 0.2 0.1 0.2
v 0.2 0.1 0.1
v 0.2 0.1 -2.98023e-008
v 0.2 1.7 0.3
v 0.2 1.7 0.2
v 0.2 1.7 0.1
v 0.2 1.7 -2.98023e-008
v 0.2 1.8 0.3
v 0.2 1.8 0.2
v 0.2 1.8 0.1
v 0.2 1.8 -2.98023e-008
v 0.2 1.9 0.2
v 0.2 1.9 0.1
v 0.3 0 0.2
v 0.3 0 0.1
v 0.3 0.1 0.3
v 0.3 0.1 0.2
v 0.3 0.1 0.1
v 0.3 0.1 -2.98023e-008
v 0.3 0.2 0.3
v 0.3 0.2 -2.98023e-008
v 0.3 0.3 0.3
v 0.3 0.3 -2.98023e-008
v 0.3 1.5 0.3
v 0.3 1.5 0.2
v 0.3 1.5 0.1
v 0.3 1.5 -2.98023e-008
v 0.3 1.6 0.3
v 0.3 1.6 0.2
v 0.3 1.6 0.1
v 0.3 1.6 -2.98023e-008
v 0.3 1.7 0.3
v 0.3 1.7 0.2
v 0.3 1.7 0.1
v 0.3 1.7 -2.98023e-008
v 0.3 1.8 0.2
v 0.3 1.8 0.1
v 0.4 0.3 0.3
v 0.4 0.3 -2.98023e-008
v 0.4 0.4 0.3
v 0.4 0.4 -2.98023e-008
v 0.4 1.4 0.3
v 0.4 1.4 0.2
v 0.4 1.4 0.1
v 0.4 1.4 -2.98023e-008
v 0.4 1.5 0.3
v 0.4 1.5 0.2
v 0.4 1.5 0.1
v 0.4 1.5 -2.98023e-008
v 0.4 1.6 0.2
v 0.4 1.6 0.1
v 0.4 1.7 0.2
v 0.4 1.7 0.1
v 0.5 0.4 0.3
v 0.5 0.4 -2.98023e-008
v 0.5 0.5 0.3
v 0.5 0.5 -2.98023e-008
v 0.5 1 0.3
v 0.5 1 -2.98023e-008
v 0.5 1.4 0.3
v 0.5 1.4 0.2
v 0.5 1.4 0.1
v 0.5 1.4 -2.98023e-008
v 0.5 1.5 0.2
v 0.5 1.5 0.1
v 0.6 0.5 0.3
v 0.6 0.5 -2.98023e-008
v 0.6 0.6 0.3
v 0.6 0.6 -2.98023e-008
v 0.7 0.6 0.3
v 0.7 0.6 -2.98023e-008
v 0.7 0.7 0.3
v 0.7 0.7 -2.98023e-008
v 0.8 0.7 0.3
v 0.8 0.7 -2.98023e-008
v 0.8 1.1 0.3
v 0.8 1.1 -2.98023e-008
v -0.5 0.6 0.3
v -0.5 1.4 0.3
v -0.4 0.1 0.3
v -0.4 0.2 0.3
v -0.4 0.3 0.3
v -0.4 0.6 0.3
v -0.4 1.4 0.3
v -0.4 1.5 0.3
v -0.3 0 0.3
v -0.3 0.1 0.3
v -0.3 0.2 0.3
v -0.3 0.8 0.3
v -0.3 0.9 0.3
v -0.3 1.5 0.3
v -0.3 1.6 0.3
v -0.3 1.7 0.3
v -0.2 0 0.3
v -0.2 0.2 0.3
v -0.2 0.6 0.3
v -0.2 0.7 0.3
v -0.2 1 0.3
v -0.2 1.1 0.3
v -0.2 1.7 0.3
v -0.2 1.8 0.3
v -0.1 0 0.3
v -0.1 0.2 0.3
v -0.1 0.6 0.3
v -0.1 0.7 0.3
v -0.1 0.8 0.3
v -0.1 0.9 0.3
v -0.1 1 0.3
v -0.1 1.1 0.3
v -0.1 1.8 0.3
v -0.1 1.9 0.3
v 0 0 0.3
v 0 0.2 0.3
v 0 0.5 0.3
v 0 0.7 0.3
v 0 0.8 0.3
v 0 0.9 0.3
v 0 1 0.3
v 0 1.2 0.3
v 0.1 0 0.3
v 0.1 0.2 0.3
v 0.1 0.5 0.3
v 0.1 0.7 0.3
v 0.1 0.8 0.3
v 0.1 0.9 0.3
v 0.1 1 0.3
v 0.1 1.2 0.3
v 0.1 1.8 0.3
v 0.1 1.9 0.3
v 0.2 0 0.3
v 0.2 0.1 0.3
v 0.2 0.2 0.3
v 0.2 0.6 0.3
v 0.2 0.7 0.3
v 0.2 0.8 0.3
v 0.2 0.9 0.3
v 0.2 1 0.3
v 0.2 1.1 0.3
v 0.2 1.7 0.3
v 0.2 1.8 0.3
v 0.3 0.1 0.3
v 0.3 0.2 0.3
v 0.3 0.3 0.3
v 0.3 0.6 0.3
v 0.3 0.7 0.3
v 0.3 1 0.3
v 0.3 1.1 0.3
v 0.3 1.5 0.3
v 0.3 1.6 0.3
v 0.3 1.7 0.3
v 0.4 0.3 0.3
v 0.4 0.4 0.3
v 0.4 0.8 0.3
v 0.4 0.9 0.3
v 0.4 1.4 0.3
v 0.4 1.5 0.3
v 0.5 0.4 0.3
v 0.5 0.5 0.3
v 0.5 1 0.3
v 0.5 1.4 0.3
v 0.6 0.5 0.3
v 0.6 0.6 0.3
v 0.6 1 0.3
v 0.6 1.1 0.3
v 0.7 0.6 0.3
v 0.7 0.7 0.3
v 0.8 0.7 0.3
v 0.8 1.1 0.3
v -0.5 1.4 0.2
v -0.5 1.5 0.2
v -0.4 0 0.2
v -0.4 0.1 0.2
v -0.4 1.4 0.2
v -0.4 1.5 0.2
v -0.4 1.6 0.2
v -0.4 1.7 0.2
v -0.3 0 0.2
v -0.3 0.1 0.2
v -0.3 1.5 0.2
v -0.3 1.6 0.2
v -0.3 1.7 0.2
v -0.3 1.8 0.2
v -0.2 1.7 0.2
v -0.2 1.8 0.2
v -0.2 1.9 0.2
v -0.1 1.8 0.2
v -0.1 1.9 0.2
v 0.1 1.8 0.2
v 0.1 1.9 0.2
v 0.2 0 0.2
v 0.2 0.1 0.2
v 0.2 1.7 0.2
v 0.2 1.8 0.2
v 0.2 1.9 0.2
v 0.3 0 0.2
v 0.3 0.1 0.2
v 0.3 1.5 0.2
v 0.3 1.6 0.2
v 0.3 1.7 0.2
v 0.3 1.8 0.2
v 0.4 1.4 0.2
v 0.4 1.5 0.2
v 0.4 1.6 0.2
v 0.4 1.7 0.2
v 0.5 1.4 0.2
v 0.5 1.5 0.2
v -0.5 1.4 0.1
v -0.5 1.5 0.1
v -0.4 0 0.1
v -0.4 0.1 0.1
v -0.4 1.4 0.1
v -0.4 1.5 0.1
v -0.4 1.6 0.1
v -0.4 1.7 0.1
v -0.3 0 0.1
v -0.3 0.1 0.1
v -0.3 1.5 0.1
v -0.3 1.6 0.1
v -0.3 1.7 0.1
v -0.3 1.8 0.1
v -0.2 1.7 0.1
v -0.2 1.8 0.1
v -0.2 1.9 0.1
v -0.1 1.8 0.1
v -0.1 1.9 0.1
v 0.1 1.8 0.1
v 0.1 1.9 0.1
v 0.2 0 0.1
v 0.2 0.1 0.1
v 0.2 1.7 0.1
v 0.2 1.8 0.1
v 0.2 1.9 0.1
v 0.3 0 0.1
v 0.3 0.1 0.1
v 0.3 1.5 0.1
v 0.3 1.6 0.1
v 0.3 1.7 0.1
v 0.3 1.8 0.1
v 0.4 1.4 0.1
v 0.4 1.5 0.1
v 0.4 1.6 0.1
v 0.4 1.7 0.1
v 0.5 1.4 0.1
v 0.5 1.5 0.1
v -0.5 0.6 -2.98023e-008
v -0.5 1.4 -2.98023e-008
v -0.4 0.1 -2.98023e-008
v -0.4 0.2 -2.98023e-008
v -0.4 0.3 -2.98023e-008
v -0.4 0.6 -2.98023e-008
v -0.4 1.4 -2.98023e-008
v -0.4 1.5 -2.98023e-008
v -0.3 0 -2.98023e-008
v -0.3 0.1 -2.98023e-008
v -0.3 0.2 -2.98023e-008
v -0.3 0.8 -2.98023e-008
v -0.3 0.9 -2.98023e-008
v -0.3 1.5 -2.98023e-008
v -0.3 1.6 -2.98023e-008
v -0.3 1.7 -2.98023e-008
v -0.2 0 -2.98023e-008
v -0.2 0.2 -2.98023e-008
v -0.2 0.6 -2.98023e-008
v -0.2 0.7 -2.98023e-008
v -0.2 1 -2.98023e-008
v -0.2 1.1 -2.98023e-008
v -0.2 1.7 -2.98023e-008
v -0.2 1.8 -2.98023e-008
v -0.1 0 -2.98023e-008
v -0.1 0.2 -2.98023e-008
v -0.1 0.6 -2.98023e-008
v -0.1 0.7 -2.98023e-008
v -0.1 0.8 -2.98023e-008
v -0.1 0.9 -2.98023e-008
v -0.1 1 -2.98023e-008
v -0.1 1.1 -2.98023e-008
v -0.1 1.8 -2.98023e-008
v -0.1 1.9 -2.98023e-008
v 0 0 -2.98023e-008
v 0 0.2 -2.98023e-008
v 0 0.5 -2.98023e-008
v 0 0.7 -2.98023e-008
v 0 0.8 -2.98023e-008
v 0 0.9 -2.98023e-008
v 0 1 -2.98023e-008
v 0 1.2 -2.98023e-008
v 0.1 0 -2.98023e-008
v 0.1 0.2 -2.98023e-008
v 0.1 0.5 -2.98023e-008
v 0.1 0.7 -2.98023e-008
v 0.1 0.8 -2.98023e-008
v 0.1 0.9 -2.98023e-008
v 0.1 1 -2.98023e-008
v 0.1 1.2 -2.98023e-008
v 0.1 1.8 -2.98023e-008
v 0.1 1.9 -2.98023e-008
v 0.2 0 -2.98023e-008
v 0.2 0.1 -2.98023e-008
v 0.2 0.2 -2.98023e-008
v 0.2 0.6 -2.98023e-008
v 0.2 0.7 -2.98023e-008
v 0.2 0.8 -2.98023e-008
v 0.2 0.9 -2.98023e-008
v 0.2 1 -2.98023e-008
v 0.2 1.1 -2.98023e-008
v 0.2 1.7 -2.98023e-008
v 0.2 1.8 -2.98023e-008
v 0.3 0.1 -2.98023e-008
v 0.3 0.2 -2.98023e-008
v 0.3 0.3 -2.98023e-008
v 0.3 0.6 -2.98023e-008
v 0.3 0.7 -2.98023e-008
v 0.3 1 -2.98023e-008
v 0.3 1.1 -2.98023e-008
v 0.3 1.5 -2.98023e-008
v 0.3 1.6 -2.98023e-008
v 0.3 1.7 -2.98023e-008
v 0.4 0.3 -2.98023e-008
v 0.4 0.4 -2.98023e-008
v 0.4 0.8 -2.98023e-008
v 0.4 0.9 -2.98023e-008
v 0.4 1.4 -2.98023e-008
v 0.4 1.5 -2.98023e-008
v 0.5 0.4 -2.98023e-008
v 0.5 0.5 -2.98023e-008
v 0.5 1 -2.98023e-008
v 0.5 1.4 -2.98023e-008
v 0.6 0.5 -2.98023e-008
v 0.6 0.6 -2.98023e-008
v 0.6 1 -2.98023e-008
v 0.6 1.1 -2.98023e-008
v 0.7 0.6 -2.98023e-008
v 0.7 0.7 -2.98023e-008
v 0.8 0.7 -2.98023e-008
v 0.8 1.1 -2.98023e-008
v -0.3 0 0.3
v -0.2 0 0.3
v -0.1 0 0.3
v 0 0 0.3
v 0.1 0 0.3
v 0.2 0 0.3
v -0.4 0 0.2
v -0.3 0 0.2
v 0.2 0 0.2
v 0.3 0 0.2
v -0.4 0 0.1
v -0.3 0 0.1
v 0.2 0 0.1
v 0.3 0 0.1
v -0.3 0 -2.98023e-008
v -0.2 0 -2.98023e-008
v -0.1 0 -2.98023e-008
v 0 0 -2.98023e-008
v 0.1 0 -2.98023e-008
v 0.2 0 -2.98023e-008
v -0.4 0.1 0.3
v -0.3 0.1 0.3
v 0.2 0.1 0.3
v 0.3 0.1 0.3
v -0.4 0.1 0.2
v -0.3 0.1 0.2
v 0.2 0.1 0.2
v 0.3 0.1 0.2
v -0.4 0.1 0.1
v -0.3 0.1 0.1
v 0.2 0.1 0.1
v 0.3 0.1 0.1
v -0.4 0.1 -2.98023e-008
v -0.3 0.1 -2.98023e-008
v 0.2 0.1 -2.98023e-008
v 0.3 0.1 -2.98023e-008
v 0.3 0.3 0.3
v 0.4 0.3 0.3
v 0.3 0.3 -2.98023e-008
v 0.4 0.3 -2.98023e-008
v 0.4 0.4 0.3
v 0.5 0.4 0.3
v 0.4 0.4 -2.98023e-008
v 0.5 0.4 -2.98023e-008
v 0.5 0.5 0.3
v 0.6 0.5 0.3
v 0.5 0.5 -2.98023e-008
v 0.6 0.5 -2.98023e-008
v -0.5 0.6 0.3
v -0.4 0.6 0.3
v 0.6 0.6 0.3
v 0.7 0.6 0.3
v -0.5 0.6 -2.98023e-008
v -0.4 0.6 -2.98023e-008
v 0.6 0.6 -2.98023e-008
v 0.7 0.6 -2.98023e-008
v 0.7 0.7 0.3
v 0.8 0.7 0.3
v 0.7 0.7 -2.98023e-008
v 0.8 0.7 -2.98023e-008
v 0.5 1 0.3
v 0.6 1 0.3
v 0.5 1 -2.98023e-008
v 0.6 1 -2.98023e-008
v 0.6 1.1 0.3
v 0.8 1.1 0.3
v 0.6 1.1 -2.98023e-008
v 0.8 1.1 -2.98023e-008
v -0.5 1.4 0.3
v -0.4 1.4 0.3
v 0.4 1.4 0.3
v 0.5 1.4 0.3
v -0.5 1.4 0.2
v -0.4 1.4 0.2
v 0.4 1.4 0.2
v 0.5 1.4 0.2
v -0.5 1.4 0.1
v -0.4 1.4 0.1
v 0.4 1.4 0.1
v 0.5 1.4 0.1
v -0.5 1.4 -2.98023e-008
v -0.4 1.4 -2.98023e-008
v 0.4 1.4 -2.98023e-008
v 0.5 1.4 -2.98023e-008
v -0.4 1.5 0.3
v -0.3 1.5 0.3
v 0.3 1.5 0.3
v 0.4 1.5 0.3
v -0.5 1.5 0.2
v -0.4 1.5 0.2
v -0.3 1.5 0.2
v 0.3 1.5 0.2
v 0.4 1.5 0.2
v 0.5 1.5 0.2
v -0.5 1.5 0.1
v -0.4 1.5 0.1
v -0.3 1.5 0.1
v 0.3 1.5 0.1
v 0.4 1.5 0.1
v 0.5 1.5 0.1
v -0.4 1.5 -2.98023e-008
v -0.3 1.5 -2.98023e-008
v 0.3 1.5 -2.98023e-008
v 0.4 1.5 -2.98023e-008
v -0.3 1.7 0.3
v -0.2 1.7 0.3
v 0.2 1.7 0.3
v 0.3 1.7 0.3
v -0.4 1.7 0.2
v -0.3 1.7 0.2
v -0.2 1.7 0.2
v 0.2 1.7 0.2
v 0.3 1.7 0.2
v 0.4 1.7 0.2
v -0.4 1.7 0.1
v -0.3 1.7 0.1
v -0.2 1.7 0.1
v 0.2 1.7 0.1
v 0.3 1.7 0.1
v 0.4 1.7 0.1
v -0.3 1.7 -2.98023e-008
v -0.2 1.7 -2.98023e-008
v 0.2 1.7 -2.98023e-008
v 0.3 1.7 -2.98023e-008
v -0.2 1.8 0.3
v -0.1 1.8 0.3
v 0.1 1.8 0.3
v 0.2 1.8 0.3
v -0.3 1.8 0.2
v -0.2 1.8 0.2
v -0.1 1.8 0.2
v 0.1 1.8 0.2
v 0.2 1.8 0.2
v 0.3 1.8 0.2
v -0.3 1.8 0.1
v -0.2 1.8 0.1
v -0.1 1.8 0.1
v 0.1 1.8 0.1
v 0.2 1.8 0.1
v 0.3 1.8 0.1
v -0.2 1.8 -2.98023e-008
v -0.1 1.8 -2.98023e-008
v 0.1 1.8 -2.98023e-008
v 0.2 1.8 -2.98023e-008
v -0.1 1.9 0.3
v 0.1 1.9 0.3
v -0.2 1.9 0.2
v -0.1 1.9 0.2
v 0.1 1.9 0.2
v 0.2 1.9 0.2
v -0.2 1.9 0.1
v -0.1 1.9 0.1
v 0.1 1.9 0.1
v 0.2 1.9 0.1
v -0.1 1.9 -2.98023e-008
v 0.1 1.9 -2.98023e-008

# faces
f 3/3/1 2/3/1 1/3/1
f 4/3/1 2/3/1 3/3/1
f 5/3/1 2/3/1 4/3/1
f 6/3/1 2/3/1 5/3/1
f 7/3/1 5/3/1 4/3/1
f 8/3/1 5/3/1 7/3/1
f 12/3/1 10/3/1 9/3/1
f 13/3/1 10/3/1 12/3/1
f 15/3/1 12/3/1 11/3/1
f 15/3/1 14/3/1 13/3/1
f 15/3/1 13/3/1 12/3/1
f 16/3/1 14/3/1 15/3/1
f 17/1/1 16/1/1 15/1/1
f 18/1/1 16/1/1 17/1/1
f 19/3/1 18/3/1 17/3/1
f 20/3/1 18/3/1 19/3/1
f 25/3/1 22/3/1 21/3/1
f 26/3/1 22/3/1 25/3/1
f 27/3/1 24/3/1 23/3/1
f 28/3/1 24/3/1 27/3/1
f 29/1/1 27/1/1 26/1/1
f 30/1/1 27/1/1 29/1/1
f 31/2/1 30/2/1 29/2/1
f 32/2/1 30/2/1 31/2/1
f 37/2/1 34/2/1 33/2/1
f 38/2/1 34/2/1 37/2/1
f 39/2/1 36/2/1 35/2/1
f 40/2/1 36/2/1 39/2/1
f 45/1/1 42/1/1 41/1/1
f 46/1/1 42/1/1 45/1/1
f 47/1/1 44/1/1 43/1/1
f 48/1/1 44/1/1 47/1/1
f 49/2/1 46/2/1 45/2/1
f 50/2/1 46/2/1 49/2/1
f 51/2/1 48/2/1 47/2/1
f 52/2/1 48/2/1 51/2/1
f 53/2/1 51/2/1 50/2/1
f 54/2/1 51/2/1 53/2/1
f 59/2/1 56/2/1 55/2/1
f 60/2/1 56/2/1 59/2/1
f 61/2/1 58/2/1 57/2/1
f 62/2/1 58/2/1 61/2/1
f 63/2/1 61/2/1 60/2/1
f 64/2/1 61/2/1 63/2/1
f 69/2/1 66/2/1 65/2/1
f 70/2/1 66/2/1 69/2/1
f 71/2/1 68/2/1 67/2/1
f 72/2/1 68/2/1 71/2/1
f 75/3/1 74/3/1 73/3/1
f 76/3/1 74/3/1 75/3/1
f 77/2/2 78/2/2 81/2/2
f 81/2/2 78/2/2 82/2/2
f 79/2/2 80/2/2 83/2/2
f 83/2/2 80/2/2 84/2/2
f 85/2/2 86/2/2 89/2/2
f 89/2/2 86/2/2 90/2/2
f 87/2/2 88/2/2 91/2/2
f 91/2/2 88/2/2 92/2/2
f 93/2/2 94/2/2 97/2/2
f 97/2/2 94/2/2 98/2/2
f 95/2/2 96/2/2 99/2/2
f 99/2/2 96/2/2 100/2/2
f 98/2/2 99/2/2 101/2/2
f 101/2/2 99/2/2 102/2/2
f 103/3/2 104/3/2 106/3/2
f 106/3/2 104/3/2 107/3/2
f 105/3/2 106/3/2 109/3/2
f 107/3/2 108/3/2 109/3/2
f 106/3/2 107/3/2 109/3/2
f 109/3/2 108/3/2 110/3/2
f 109/1/2 110/1/2 111/1/2
f 111/1/2 110/1/2 112/1/2
f 113/1/2 114/1/2 117/1/2
f 117/1/2 114/1/2 118/1/2
f 115/1/2 116/1/2 119/1/2
f 119/1/2 116/1/2 120/1/2
f 117/2/2 118/2/2 121/2/2
f 121/2/2 118/2/2 122/2/2
f 119/2/2 120/2/2 123/2/2
f 123/2/2 120/2/2 124/2/2
f 122/2/2 123/2/2 125/2/2
f 125/2/2 123/2/2 126/2/2
f 127/3/2 128/3/2 129/3/2
f 129/3/2 128/3/2 130/3/2
f 131/3/2 132/3/2 135/3/2
f 135/3/2 132/3/2 136/3/2
f 133/3/2 134/3/2 137/3/2
f 137/3/2 134/3/2 138/3/2
f 136/1/2 137/1/2 139/1/2
f 139/1/2 137/1/2 140/1/2
f 139/2/2 140/2/2 141/2/2
f 141/2/2 140/2/2 142/2/2
f 143/3/2 144/3/2 145/3/2
f 145/3/2 144/3/2 146/3/2
f 147/3/2 148/3/2 149/3/2
f 149/3/2 148/3/2 150/3/2
f 150/3/2 148/3/2 151/3/2
f 151/3/2 148/3/2 152/3/2
f 150/3/2 151/3/2 153/3/2
f 153/3/2 151/3/2 154/3/2
f 155/3/2 156/3/2 157/3/2
f 157/3/2 156/3/2 158/3/2
f 159/3/2 160/3/2 161/3/2
f 161/3/2 160/3/2 162/3/2
f 163/3/2 164/3/2 165/3/2
f 165/3/2 164/3/2 166/3/2
f 172/3/3 168/3/3 167/3/3
f 173/3/3 168/3/3 172/3/3
f 176/3/3 170/3/3 169/3/3
f 177/1/3 171/1/3 170/1/3
f 177/3/3 170/3/3 176/3/3
f 178/3/3 174/3/3 173/3/3
f 178/3/3 172/3/3 171/3/3
f 178/3/3 173/3/3 172/3/3
f 179/3/3 174/3/3 178/3/3
f 180/3/3 174/3/3 179/3/3
f 183/2/3 176/2/3 175/2/3
f 183/2/3 177/2/3 176/2/3
f 184/1/3 171/1/3 177/1/3
f 184/2/3 177/2/3 183/2/3
f 185/3/3 178/3/3 171/3/3
f 186/3/3 178/3/3 185/3/3
f 187/3/3 180/3/3 179/3/3
f 188/3/3 180/3/3 187/3/3
f 189/2/3 182/2/3 181/2/3
f 191/3/3 184/3/3 183/3/3
f 192/1/3 171/1/3 184/1/3
f 192/3/3 184/3/3 191/3/3
f 193/3/3 185/3/3 171/3/3
f 193/4/3 186/4/3 185/4/3
f 194/3/3 178/3/3 186/3/3
f 194/4/3 186/4/3 193/4/3
f 195/4/3 179/4/3 178/4/3
f 195/3/3 178/3/3 194/3/3
f 196/3/3 187/3/3 179/3/3
f 196/4/3 179/4/3 195/4/3
f 197/4/3 188/4/3 187/4/3
f 197/3/3 187/3/3 196/3/3
f 198/3/3 180/3/3 188/3/3
f 198/4/3 188/4/3 197/4/3
f 199/2/3 190/2/3 189/2/3
f 201/2/3 192/2/3 191/2/3
f 202/1/3 171/1/3 192/1/3
f 202/2/3 192/2/3 201/2/3
f 203/3/3 194/3/3 193/3/3
f 203/3/3 193/3/3 171/3/3
f 204/4/3 195/4/3 194/4/3
f 204/3/3 194/3/3 203/3/3
f 205/1/3 196/1/3 195/1/3
f 205/4/3 195/4/3 204/4/3
f 206/4/3 197/4/3 196/4/3
f 206/1/3 196/1/3 205/1/3
f 207/3/3 198/3/3 197/3/3
f 207/4/3 197/4/3 206/4/3
f 208/3/3 180/3/3 198/3/3
f 208/3/3 198/3/3 207/3/3
f 209/3/3 202/3/3 201/3/3
f 210/1/3 171/1/3 202/1/3
f 210/3/3 202/3/3 209/3/3
f 211/3/3 203/3/3 171/3/3
f 211/4/3 204/4/3 203/4/3
f 212/1/3 205/1/3 204/1/3
f 212/4/3 204/4/3 211/4/3
f 213/4/3 206/4/3 205/4/3
f 213/1/3 205/1/3 212/1/3
f 214/1/3 207/1/3 206/1/3
f 214/4/3 206/4/3 213/4/3
f 215/4/3 208/4/3 207/4/3
f 215/1/3 207/1/3 214/1/3
f 216/3/3 180/3/3 208/3/3
f 216/4/3 208/4/3 215/4/3
f 217/2/3 200/2/3 199/2/3
f 217/2/3 199/2/3 189/2/3
f 218/2/3 200/2/3 217/2/3
f 219/2/3 210/2/3 209/2/3
f 220/2/3 210/2/3 219/2/3
f 221/1/3 171/1/3 210/1/3
f 221/2/3 210/2/3 220/2/3
f 222/3/3 212/3/3 211/3/3
f 223/4/3 213/4/3 212/4/3
f 223/3/3 212/3/3 222/3/3
f 224/1/3 214/1/3 213/1/3
f 224/4/3 213/4/3 223/4/3
f 225/4/3 215/4/3 214/4/3
f 225/1/3 214/1/3 224/1/3
f 226/3/3 216/3/3 215/3/3
f 226/4/3 215/4/3 225/4/3
f 227/3/3 216/3/3 226/3/3
f 228/2/3 189/2/3 181/2/3
f 228/2/3 217/2/3 189/2/3
f 229/2/3 217/2/3 228/2/3
f 230/3/3 221/3/3 220/3/3
f 231/1/3 171/1/3 221/1/3
f 231/3/3 221/3/3 230/3/3
f 232/3/3 211/3/3 171/3/3
f 232/1/3 171/1/3 231/1/3
f 232/3/3 222/3/3 211/3/3
f 233/4/3 223/4/3 222/4/3
f 233/3/3 222/3/3 232/3/3
f 234/3/3 224/3/3 223/3/3
f 234/4/3 223/4/3 233/4/3
f 235/3/3 226/3/3 225/3/3
f 235/4/3 227/4/3 226/4/3
f 236/3/3 216/3/3 227/3/3
f 236/4/3 227/4/3 235/4/3
f 237/1/3 181/1/3 180/1/3
f 237/3/3 216/3/3 236/3/3
f 237/3/3 180/3/3 216/3/3
f 238/2/3 228/2/3 181/2/3
f 238/1/3 181/1/3 237/1/3
f 239/2/3 228/2/3 238/2/3
f 240/3/3 233/3/3 232/3/3
f 240/3/3 234/3/3 233/3/3
f 241/3/3 234/3/3 240/3/3
f 242/3/3 224/3/3 234/3/3
f 242/3/3 234/3/3 241/3/3
f 242/4/3 225/4/3 224/4/3
f 243/3/3 236/3/3 235/3/3
f 243/4/3 225/4/3 242/4/3
f 243/3/3 237/3/3 236/3/3
f 243/3/3 235/3/3 225/3/3
f 244/3/3 237/3/3 243/3/3
f 245/3/3 237/3/3 244/3/3
f 246/3/3 242/3/3 241/3/3
f 246/3/3 244/3/3 243/3/3
f 246/3/3 243/3/3 242/3/3
f 247/3/3 244/3/3 246/3/3
f 248/3/3 244/3/3 247/3/3
f 249/3/3 244/3/3 248/3/3
f 250/3/3 248/3/3 247/3/3
f 251/3/3 248/3/3 250/3/3
f 252/3/3 248/3/3 251/3/3
f 254/3/3 253/3/3 252/3/3
f 254/3/3 252/3/3 251/3/3
f 255/3/3 253/3/3 254/3/3
f 256/3/3 253/3/3 255/3/3
f 257/3/3 253/3/3 256/3/3
f 262/3/3 259/3/3 258/3/3
f 263/3/3 259/3/3 262/3/3
f 266/3/3 261/3/3 260/3/3
f 267/3/3 261/3/3 266/3/3
f 268/1/3 264/1/3 263/1/3
f 269/2/3 265/2/3 264/2/3
f 269/1/3 264/1/3 268/1/3
f 270/2/3 265/2/3 269/2/3
f 272/2/3 271/2/3 270/2/3
f 273/2/3 271/2/3 272/2/3
f 275/2/3 274/2/3 273/2/3
f 276/2/3 274/2/3 275/2/3
f 282/2/3 278/2/3 277/2/3
f 283/2/3 278/2/3 282/2/3
f 284/3/3 280/3/3 279/3/3
f 285/3/3 280/3/3 284/3/3
f 288/2/3 282/2/3 281/2/3
f 289/2/3 282/2/3 288/2/3
f 291/1/3 287/1/3 286/1/3
f 292/2/3 288/2/3 287/2/3
f 292/1/3 287/1/3 291/1/3
f 293/2/3 288/2/3 292/2/3
f 294/3/3 291/3/3 290/3/3
f 295/3/3 291/3/3 294/3/3
f 296/3/4 297/3/4 300/3/4
f 300/3/4 297/3/4 301/3/4
f 298/3/4 299/3/4 304/3/4
f 304/3/4 299/3/4 305/3/4
f 301/1/4 302/1/4 306/1/4
f 302/2/4 303/2/4 307/2/4
f 306/1/4 302/1/4 307/1/4
f 307/2/4 303/2/4 308/2/4
f 308/2/4 309/2/4 310/2/4
f 310/2/4 309/2/4 311/2/4
f 311/2/4 312/2/4 313/2/4
f 313/2/4 312/2/4 314/2/4
f 315/2/4 316/2/4 320/2/4
f 320/2/4 316/2/4 321/2/4
f 317/3/4 318/3/4 322/3/4
f 322/3/4 318/3/4 323/3/4
f 319/2/4 320/2/4 326/2/4
f 326/2/4 320/2/4 327/2/4
f 324/1/4 325/1/4 329/1/4
f 325/2/4 326/2/4 330/2/4
f 329/1/4 325/1/4 330/1/4
f 330/2/4 326/2/4 331/2/4
f 328/3/4 329/3/4 332/3/4
f 332/3/4 329/3/4 333/3/4
f 334/3/4 335/3/4 339/3/4
f 339/3/4 335/3/4 340/3/4
f 336/3/4 337/3/4 343/3/4
f 337/1/4 338/1/4 344/1/4
f 343/3/4 337/3/4 344/3/4
f 340/3/4 341/3/4 345/3/4
f 338/3/4 339/3/4 345/3/4
f 339/3/4 340/3/4 345/3/4
f 345/3/4 341/3/4 346/3/4
f 346/3/4 341/3/4 347/3/4
f 342/2/4 343/2/4 350/2/4
f 343/2/4 344/2/4 350/2/4
f 344/1/4 338/1/4 351/1/4
f 350/2/4 344/2/4 351/2/4
f 338/3/4 345/3/4 352/3/4
f 352/3/4 345/3/4 353/3/4
f 346/3/4 347/3/4 354/3/4
f 354/3/4 347/3/4 355/3/4
f 348/2/4 349/2/4 356/2/4
f 350/3/4 351/3/4 358/3/4
f 351/1/4 338/1/4 359/1/4
f 358/3/4 351/3/4 359/3/4
f 338/3/4 352/3/4 360/3/4
f 352/4/4 353/4/4 360/4/4
f 353/3/4 345/3/4 361/3/4
f 360/4/4 353/4/4 361/4/4
f 345/4/4 346/4/4 362/4/4
f 361/3/4 345/3/4 362/3/4
f 346/3/4 354/3/4 363/3/4
f 362/4/4 346/4/4 363/4/4
f 354/4/4 355/4/4 364/4/4
f 363/3/4 354/3/4 364/3/4
f 355/3/4 347/3/4 365/3/4
f 364/4/4 355/4/4 365/4/4
f 356/2/4 357/2/4 366/2/4
f 358/2/4 359/2/4 368/2/4
f 359/1/4 338/1/4 369/1/4
f 368/2/4 359/2/4 369/2/4
f 360/3/4 361/3/4 370/3/4
f 338/3/4 360/3/4 370/3/4
f 361/4/4 362/4/4 371/4/4
f 370/3/4 361/3/4 371/3/4
f 362/1/4 363/1/4 372/1/4
f 371/4/4 362/4/4 372/4/4
f 363/4/4 364/4/4 373/4/4
f 372/1/4 363/1/4 373/1/4
f 364/3/4 365/3/4 374/3/4
f 373/4/4 364/4/4 374/4/4
f 365/3/4 347/3/4 375/3/4
f 374/3/4 365/3/4 375/3/4
f 368/3/4 369/3/4 376/3/4
f 369/1/4 338/1/4 377/1/4
f 376/3/4 369/3/4 377/3/4
f 338/3/4 370/3/4 378/3/4
f 370/4/4 371/4/4 378/4/4
f 371/1/4 372/1/4 379/1/4
f 378/4/4 371/4/4 379/4/4
f 372/4/4 373/4/4 380/4/4
f 379/1/4 372/1/4 380/1/4
f 373/1/4 374/1/4 381/1/4
f 380/4/4 373/4/4 381/4/4
f 374/4/4 375/4/4 382/4/4
f 381/1/4 374/1/4 382/1/4
f 375/3/4 347/3/4 383/3/4
f 382/4/4 375/4/4 383/4/4
f 366/2/4 367/2/4 384/2/4
f 356/2/4 366/2/4 384/2/4
f 384/2/4 367/2/4 385/2/4
f 376/2/4 377/2/4 386/2/4
f 386/2/4 377/2/4 387/2/4
f 377/1/4 338/1/4 388/1/4
f 387/2/4 377/2/4 388/2/4
f 378/3/4 379/3/4 389/3/4
f 379/4/4 380/4/4 390/4/4
f 389/3/4 379/3/4 390/3/4
f 380/1/4 381/1/4 391/1/4
f 390/4/4 380/4/4 391/4/4
f 381/4/4 382/4/4 392/4/4
f 391/1/4 381/1/4 392/1/4
f 382/3/4 383/3/4 393/3/4
f 392/4/4 382/4/4 393/4/4
f 393/3/4 383/3/4 394/3/4
f 348/2/4 356/2/4 395/2/4
f 356/2/4 384/2/4 395/2/4
f 395/2/4 384/2/4 396/2/4
f 387/3/4 388/3/4 397/3/4
f 388/1/4 338/1/4 398/1/4
f 397/3/4 388/3/4 398/3/4
f 338/3/4 378/3/4 399/3/4
f 398/1/4 338/1/4 399/1/4
f 378/3/4 389/3/4 399/3/4
f 389/4/4 390/4/4 400/4/4
f 399/3/4 389/3/4 400/3/4
f 390/3/4 391/3/4 401/3/4
f 400/4/4 390/4/4 401/4/4
f 392/3/4 393/3/4 402/3/4
f 393/4/4 394/4/4 402/4/4
f 394/3/4 383/3/4 403/3/4
f 402/4/4 394/4/4 403/4/4
f 347/1/4 348/1/4 404/1/4
f 403/3/4 383/3/4 404/3/4
f 383/3/4 347/3/4 404/3/4
f 348/2/4 395/2/4 405/2/4
f 404/1/4 348/1/4 405/1/4
f 405/2/4 395/2/4 406/2/4
f 399/3/4 400/3/4 407/3/4
f 400/3/4 401/3/4 407/3/4
f 407/3/4 401/3/4 408/3/4
f 401/3/4 391/3/4 409/3/4
f 408/3/4 401/3/4 409/3/4
f 391/4/4 392/4/4 409/4/4
f 402/3/4 403/3/4 410/3/4
f 409/4/4 392/4/4 410/4/4
f 403/3/4 404/3/4 410/3/4
f 392/3/4 402/3/4 410/3/4
f 410/3/4 404/3/4 411/3/4
f 411/3/4 404/3/4 412/3/4
f 408/3/4 409/3/4 413/3/4
f 410/3/4 411/3/4 413/3/4
f 409/3/4 410/3/4 413/3/4
f 413/3/4 411/3/4 414/3/4
f 414/3/4 411/3/4 415/3/4
f 415/3/4 411/3/4 416/3/4
f 414/3/4 415/3/4 417/3/4
f 417/3/4 415/3/4 418/3/4
f 418/3/4 415/3/4 419/3/4
f 419/3/4 420/3/4 421/3/4
f 418/3/4 419/3/4 421/3/4
f 421/3/4 420/3/4 422/3/4
f 422/3/4 420/3/4 423/3/4
f 423/3/4 420/3/4 424/3/4
f 432/2/5 426/2/5 425/2/5
f 433/2/5 430/2/5 429/2/5
f 435/3/5 432/3/5 431/3/5
f 436/2/5 426/2/5 432/2/5
f 436/3/5 432/3/5 435/3/5
f 437/3/5 434/3/5 433/3/5
f 437/2/5 433/2/5 429/2/5
f 438/3/5 434/3/5 437/3/5
f 439/2/5 426/2/5 436/2/5
f 440/3/5 427/3/5 426/3/5
f 440/2/5 426/2/5 439/2/5
f 441/2/5 428/2/5 427/2/5
f 441/3/5 427/3/5 440/3/5
f 442/3/5 429/3/5 428/3/5
f 442/2/5 428/2/5 441/2/5
f 443/2/5 437/2/5 429/2/5
f 443/3/5 429/3/5 442/3/5
f 444/2/5 437/2/5 443/2/5
f 449/3/5 446/3/5 445/3/5
f 450/3/5 446/3/5 449/3/5
f 451/3/5 448/3/5 447/3/5
f 452/3/5 448/3/5 451/3/5
f 457/3/5 454/3/5 453/3/5
f 458/3/5 454/3/5 457/3/5
f 459/3/5 456/3/5 455/3/5
f 460/3/5 456/3/5 459/3/5
f 463/3/5 462/3/5 461/3/5
f 464/3/5 462/3/5 463/3/5
f 467/3/5 466/3/5 465/3/5
f 468/3/5 466/3/5 467/3/5
f 471/3/5 470/3/5 469/3/5
f 472/3/5 470/3/5 471/3/5
f 477/3/5 474/3/5 473/3/5
f 478/3/5 474/3/5 477/3/5
f 479/3/5 476/3/5 475/3/5
f 480/3/5 476/3/5 479/3/5
f 483/3/5 482/3/5 481/3/5
f 484/3/5 482/3/5 483/3/5
f 485/3/6 486/3/6 487/3/6
f 487/3/6 486/3/6 488/3/6
f 489/3/6 490/3/6 491/3/6
f 491/3/6 490/3/6 492/3/6
f 493/3/6 494/3/6 497/3/6
f 497/3/6 494/3/6 498/3/6
f 495/3/6 496/3/6 499/3/6
f 499/3/6 496/3/6 500/3/6
f 501/3/6 502/3/6 505/3/6
f 505/3/6 502/3/6 506/3/6
f 503/3/6 504/3/6 507/3/6
f 507/3/6 504/3/6 508/3/6
f 509/3/6 510/3/6 514/3/6
f 514/3/6 510/3/6 515/3/6
f 511/3/6 512/3/6 516/3/6
f 516/3/6 512/3/6 517/3/6
f 513/3/6 514/3/6 519/3/6
f 519/3/6 514/3/6 520/3/6
f 517/3/6 518/3/6 523/3/6
f 523/3/6 518/3/6 524/3/6
f 520/3/6 521/3/6 525/3/6
f 525/3/6 521/3/6 526/3/6
f 522/3/6 523/3/6 527/3/6
f 527/3/6 523/3/6 528/3/6
f 529/2/6 530/2/6 534/2/6
f 534/2/6 530/2/6 535/2/6
f 531/2/6 532/2/6 536/2/6
f 536/2/6 532/2/6 537/2/6
f 533/2/6 534/2/6 539/2/6
f 539/2/6 534/2/6 540/2/6
f 537/2/6 538/2/6 543/2/6
f 543/2/6 538/2/6 544/2/6
f 540/2/6 541/2/6 545/2/6
f 545/2/6 541/2/6 546/2/6
f 542/2/6 543/2/6 547/2/6
f 547/2/6 543/2/6 548/2/6
f 549/2/6 550/2/6 554/2/6
f 554/2/6 550/2/6 555/2/6
f 551/2/6 552/2/6 556/2/6
f 556/2/6 552/2/6 557/2/6
f 553/2/6 554/2/6 559/2/6
f 559/2/6 554/2/6 560/2/6
f 557/2/6 558/2/6 563/2/6
f 563/2/6 558/2/6 564/2/6
f 560/2/6 561/2/6 565/2/6
f 565/2/6 561/2/6 566/2/6
f 562/2/6 563/2/6 567/2/6
f 567/2/6 563/2/6 568/2/6
f 569/2/6 570/2/6 572/2/6
f 572/2/6 570/2/6 573/2/6
f 571/2/6 572/2/6 575/2/6
f 573/2/6 574/2/6 575/2/6
f 572/2/6 573/2/6 575/2/6
f 575/2/6 574/2/6 576/2/6
f 576/2/6 574/2/6 577/2/6
f 577/2/6 574/2/6 578/2/6
f 576/2/6 577/2/6 579/2/6
f 579/2/6 577/2/6 580/2/6
