# MagicaVoxel @ Ephtracy

# group
o 

# material
mtllib winter shovel.mtl
usemtl palette

# normals
vn -1 0 0
vn 1 0 0
vn 0 0 1
vn 0 0 -1
vn 0 -1 0
vn 0 1 0

# texcoords
vt 0.396484 0.5
vt 0.841797 0.5
vt 0.861328 0.5
vt 0.994141 0.5

# verts
v -0.9 0.7 -3.72529e-008
v -0.9 0.7 -0.1
v -0.9 0.8 -3.72529e-008
v -0.9 0.8 -0.1
v -0.8 0.6 -3.72529e-008
v -0.8 0.6 -0.1
v -0.8 0.7 -3.72529e-008
v -0.8 0.7 -0.1
v -0.8 0.8 -3.72529e-008
v -0.8 0.8 -0.1
v -0.8 0.9 -3.72529e-008
v -0.8 0.9 -0.1
v -0.7 0.5 -3.72529e-008
v -0.7 0.5 -0.1
v -0.7 0.6 -3.72529e-008
v -0.7 0.6 -0.1
v -0.7 0.9 -3.72529e-008
v -0.7 0.9 -0.1
v -0.7 1 -3.72529e-008
v -0.7 1 -0.1
v -0.6 0.4 -3.72529e-008
v -0.6 0.4 -0.1
v -0.6 0.5 -3.72529e-008
v -0.6 0.5 -0.1
v -0.6 1 -3.72529e-008
v -0.6 1 -0.1
v -0.6 1.1 -3.72529e-008
v -0.6 1.1 -0.1
v -0.5 0.3 -3.72529e-008
v -0.5 0.3 -0.1
v -0.5 0.4 -3.72529e-008
v -0.5 0.4 -0.1
v -0.5 1.1 -3.72529e-008
v -0.5 1.1 -0.1
v -0.5 1.2 -3.72529e-008
v -0.5 1.2 -0.1
v -0.4 0.2 -3.72529e-008
v -0.4 0.2 -0.1
v -0.4 0.3 -3.72529e-008
v -0.4 0.3 -0.1
v -0.4 1.2 -3.72529e-008
v -0.4 1.2 -0.1
v -0.4 1.3 -3.72529e-008
v -0.4 1.3 -0.1
v -0.3 0.1 -3.72529e-008
v -0.3 0.1 -0.1
v -0.3 0.2 -3.72529e-008
v -0.3 0.2 -0.1
v -0.2 0 -3.72529e-008
v -0.2 0 -0.1
v -0.2 0.1 -3.72529e-008
v -0.2 0.1 -0.1
v 0 1 -3.72529e-008
v 0 1 -0.1
v 0 1.1 -3.72529e-008
v 0 1.1 -0.1
v 0.1 1.1 -3.72529e-008
v 0.1 1.1 -0.1
v 0.1 1.2 -3.72529e-008
v 0.1 1.2 -0.1
v 0.2 1.2 -3.72529e-008
v 0.2 1.2 -0.1
v 0.2 1.3 -3.72529e-008
v 0.2 1.3 -0.1
v 0.2 1.4 -3.72529e-008
v 0.2 1.4 -0.1
v 0.2 1.6 -3.72529e-008
v 0.2 1.6 -0.1
v 0.3 1.3 -3.72529e-008
v 0.3 1.3 -0.1
v 0.3 1.4 -3.72529e-008
v 0.3 1.4 -0.1
v 0.5 1.1 -3.72529e-008
v 0.5 1.1 -0.1
v 0.5 1.2 -3.72529e-008
v 0.5 1.2 -0.1
v -0.3 1.2 -3.72529e-008
v -0.3 1.2 -0.1
v -0.3 1.3 -3.72529e-008
v -0.3 1.3 -0.1
v -0.2 1.1 -3.72529e-008
v -0.2 1.1 -0.1
v -0.2 1.2 -3.72529e-008
v -0.2 1.2 -0.1
v -0.1 0 -3.72529e-008
v -0.1 0 -0.1
v -0.1 0.1 -3.72529e-008
v -0.1 0.1 -0.1
v -0.1 1 -3.72529e-008
v -0.1 1 -0.1
v -0.1 1.1 -3.72529e-008
v -0.1 1.1 -0.1
v 0 0.1 -3.72529e-008
v 0 0.1 -0.1
v 0 0.2 -3.72529e-008
v 0 0.2 -0.1
v 0.1 0.2 -3.72529e-008
v 0.1 0.2 -0.1
v 0.1 0.3 -3.72529e-008
v 0.1 0.3 -0.1
v 0.1 0.8 -3.72529e-008
v 0.1 0.8 -0.1
v 0.1 0.9 -3.72529e-008
v 0.1 0.9 -0.1
v 0.2 0.3 -3.72529e-008
v 0.2 0.3 -0.1
v 0.2 0.4 -3.72529e-008
v 0.2 0.4 -0.1
v 0.2 0.7 -3.72529e-008
v 0.2 0.7 -0.1
v 0.2 0.8 -3.72529e-008
v 0.2 0.8 -0.1
v 0.2 0.9 -3.72529e-008
v 0.2 0.9 -0.1
v 0.2 1 -3.72529e-008
v 0.2 1 -0.1
v 0.3 0.4 -3.72529e-008
v 0.3 0.4 -0.1
v 0.3 0.5 -3.72529e-008
v 0.3 0.5 -0.1
v 0.3 0.6 -3.72529e-008
v 0.3 0.6 -0.1
v 0.3 0.7 -3.72529e-008
v 0.3 0.7 -0.1
v 0.3 1 -3.72529e-008
v 0.3 1 -0.1
v 0.3 1.1 -3.72529e-008
v 0.3 1.1 -0.1
v 0.4 0.5 -3.72529e-008
v 0.4 0.5 -0.1
v 0.4 0.6 -3.72529e-008
v 0.4 0.6 -0.1
v 0.4 1.1 -3.72529e-008
v 0.4 1.1 -0.1
v 0.4 1.2 -3.72529e-008
v 0.4 1.2 -0.1
v 0.4 1.5 -3.72529e-008
v 0.4 1.5 -0.1
v 0.4 1.6 -3.72529e-008
v 0.4 1.6 -0.1
v 0.5 1.4 -3.72529e-008
v 0.5 1.4 -0.1
v 0.5 1.5 -3.72529e-008
v 0.5 1.5 -0.1
v 0.6 1.3 -3.72529e-008
v 0.6 1.3 -0.1
v 0.6 1.4 -3.72529e-008
v 0.6 1.4 -0.1
v 0.7 1.1 -3.72529e-008
v 0.7 1.1 -0.1
v 0.7 1.3 -3.72529e-008
v 0.7 1.3 -0.1
v -0.9 0.7 -3.72529e-008
v -0.9 0.8 -3.72529e-008
v -0.8 0.6 -3.72529e-008
v -0.8 0.7 -3.72529e-008
v -0.8 0.8 -3.72529e-008
v -0.8 0.9 -3.72529e-008
v -0.7 0.5 -3.72529e-008
v -0.7 0.6 -3.72529e-008
v -0.7 0.7 -3.72529e-008
v -0.7 0.8 -3.72529e-008
v -0.7 0.9 -3.72529e-008
v -0.7 1 -3.72529e-008
v -0.6 0.4 -3.72529e-008
v -0.6 0.5 -3.72529e-008
v -0.6 0.6 -3.72529e-008
v -0.6 0.9 -3.72529e-008
v -0.6 1 -3.72529e-008
v -0.6 1.1 -3.72529e-008
v -0.5 0.3 -3.72529e-008
v -0.5 0.4 -3.72529e-008
v -0.5 0.5 -3.72529e-008
v -0.5 0.6 -3.72529e-008
v -0.5 0.7 -3.72529e-008
v -0.5 1 -3.72529e-008
v -0.5 1.1 -3.72529e-008
v -0.5 1.2 -3.72529e-008
v -0.4 0.2 -3.72529e-008
v -0.4 0.3 -3.72529e-008
v -0.4 0.4 -3.72529e-008
v -0.4 0.6 -3.72529e-008
v -0.4 0.7 -3.72529e-008
v -0.4 0.8 -3.72529e-008
v -0.4 1.1 -3.72529e-008
v -0.4 1.2 -3.72529e-008
v -0.4 1.3 -3.72529e-008
v -0.3 0.1 -3.72529e-008
v -0.3 0.2 -3.72529e-008
v -0.3 0.3 -3.72529e-008
v -0.3 0.4 -3.72529e-008
v -0.3 0.5 -3.72529e-008
v -0.3 0.7 -3.72529e-008
v -0.3 0.8 -3.72529e-008
v -0.3 1.1 -3.72529e-008
v -0.3 1.2 -3.72529e-008
v -0.3 1.3 -3.72529e-008
v -0.2 0 -3.72529e-008
v -0.2 0.1 -3.72529e-008
v -0.2 0.2 -3.72529e-008
v -0.2 0.4 -3.72529e-008
v -0.2 0.5 -3.72529e-008
v -0.2 0.6 -3.72529e-008
v -0.2 0.7 -3.72529e-008
v -0.2 0.9 -3.72529e-008
v -0.2 1 -3.72529e-008
v -0.2 1.1 -3.72529e-008
v -0.2 1.2 -3.72529e-008
v -0.1 0 -3.72529e-008
v -0.1 0.1 -3.72529e-008
v -0.1 0.2 -3.72529e-008
v -0.1 0.5 -3.72529e-008
v -0.1 0.6 -3.72529e-008
v -0.1 0.8 -3.72529e-008
v -0.1 0.9 -3.72529e-008
v -0.1 1 -3.72529e-008
v -0.1 1.1 -3.72529e-008
v 0 0.1 -3.72529e-008
v 0 0.2 -3.72529e-008
v 0 0.3 -3.72529e-008
v 0 0.7 -3.72529e-008
v 0 0.8 -3.72529e-008
v 0 0.9 -3.72529e-008
v 0 1 -3.72529e-008
v 0 1.1 -3.72529e-008
v 0.1 0.2 -3.72529e-008
v 0.1 0.3 -3.72529e-008
v 0.1 0.4 -3.72529e-008
v 0.1 0.7 -3.72529e-008
v 0.1 0.8 -3.72529e-008
v 0.1 0.9 -3.72529e-008
v 0.1 1 -3.72529e-008
v 0.1 1.1 -3.72529e-008
v 0.1 1.2 -3.72529e-008
v 0.2 0.3 -3.72529e-008
v 0.2 0.4 -3.72529e-008
v 0.2 0.5 -3.72529e-008
v 0.2 0.6 -3.72529e-008
v 0.2 0.7 -3.72529e-008
v 0.2 0.8 -3.72529e-008
v 0.2 0.9 -3.72529e-008
v 0.2 1 -3.72529e-008
v 0.2 1.1 -3.72529e-008
v 0.2 1.2 -3.72529e-008
v 0.2 1.3 -3.72529e-008
v 0.2 1.4 -3.72529e-008
v 0.2 1.6 -3.72529e-008
v 0.3 0.4 -3.72529e-008
v 0.3 0.5 -3.72529e-008
v 0.3 0.6 -3.72529e-008
v 0.3 0.7 -3.72529e-008
v 0.3 1 -3.72529e-008
v 0.3 1.1 -3.72529e-008
v 0.3 1.2 -3.72529e-008
v 0.3 1.3 -3.72529e-008
v 0.3 1.4 -3.72529e-008
v 0.3 1.5 -3.72529e-008
v 0.4 0.5 -3.72529e-008
v 0.4 0.6 -3.72529e-008
v 0.4 1.1 -3.72529e-008
v 0.4 1.2 -3.72529e-008
v 0.4 1.3 -3.72529e-008
v 0.4 1.4 -3.72529e-008
v 0.4 1.5 -3.72529e-008
v 0.4 1.6 -3.72529e-008
v 0.5 1.1 -3.72529e-008
v 0.5 1.2 -3.72529e-008
v 0.5 1.3 -3.72529e-008
v 0.5 1.4 -3.72529e-008
v 0.5 1.5 -3.72529e-008
v 0.6 1.2 -3.72529e-008
v 0.6 1.3 -3.72529e-008
v 0.6 1.4 -3.72529e-008
v 0.7 1.1 -3.72529e-008
v 0.7 1.3 -3.72529e-008
v -0.9 0.7 -0.1
v -0.9 0.8 -0.1
v -0.8 0.6 -0.1
v -0.8 0.7 -0.1
v -0.8 0.8 -0.1
v -0.8 0.9 -0.1
v -0.7 0.5 -0.1
v -0.7 0.6 -0.1
v -0.7 0.7 -0.1
v -0.7 0.8 -0.1
v -0.7 0.9 -0.1
v -0.7 1 -0.1
v -0.6 0.4 -0.1
v -0.6 0.5 -0.1
v -0.6 0.6 -0.1
v -0.6 0.9 -0.1
v -0.6 1 -0.1
v -0.6 1.1 -0.1
v -0.5 0.3 -0.1
v -0.5 0.4 -0.1
v -0.5 0.5 -0.1
v -0.5 0.6 -0.1
v -0.5 0.7 -0.1
v -0.5 1 -0.1
v -0.5 1.1 -0.1
v -0.5 1.2 -0.1
v -0.4 0.2 -0.1
v -0.4 0.3 -0.1
v -0.4 0.4 -0.1
v -0.4 0.6 -0.1
v -0.4 0.7 -0.1
v -0.4 0.8 -0.1
v -0.4 1.1 -0.1
v -0.4 1.2 -0.1
v -0.4 1.3 -0.1
v -0.3 0.1 -0.1
v -0.3 0.2 -0.1
v -0.3 0.3 -0.1
v -0.3 0.4 -0.1
v -0.3 0.5 -0.1
v -0.3 0.7 -0.1
v -0.3 0.8 -0.1
v -0.3 1.1 -0.1
v -0.3 1.2 -0.1
v -0.3 1.3 -0.1
v -0.2 0 -0.1
v -0.2 0.1 -0.1
v -0.2 0.2 -0.1
v -0.2 0.4 -0.1
v -0.2 0.5 -0.1
v -0.2 0.6 -0.1
v -0.2 0.7 -0.1
v -0.2 0.9 -0.1
v -0.2 1 -0.1
v -0.2 1.1 -0.1
v -0.2 1.2 -0.1
v -0.1 0 -0.1
v -0.1 0.1 -0.1
v -0.1 0.2 -0.1
v -0.1 0.5 -0.1
v -0.1 0.6 -0.1
v -0.1 0.8 -0.1
v -0.1 0.9 -0.1
v -0.1 1 -0.1
v -0.1 1.1 -0.1
v 0 0.1 -0.1
v 0 0.2 -0.1
v 0 0.3 -0.1
v 0 0.7 -0.1
v 0 0.8 -0.1
v 0 0.9 -0.1
v 0 1 -0.1
v 0 1.1 -0.1
v 0.1 0.2 -0.1
v 0.1 0.3 -0.1
v 0.1 0.4 -0.1
v 0.1 0.7 -0.1
v 0.1 0.8 -0.1
v 0.1 0.9 -0.1
v 0.1 1 -0.1
v 0.1 1.1 -0.1
v 0.1 1.2 -0.1
v 0.2 0.3 -0.1
v 0.2 0.4 -0.1
v 0.2 0.5 -0.1
v 0.2 0.6 -0.1
v 0.2 0.7 -0.1
v 0.2 0.8 -0.1
v 0.2 0.9 -0.1
v 0.2 1 -0.1
v 0.2 1.1 -0.1
v 0.2 1.2 -0.1
v 0.2 1.3 -0.1
v 0.2 1.4 -0.1
v 0.2 1.6 -0.1
v 0.3 0.4 -0.1
v 0.3 0.5 -0.1
v 0.3 0.6 -0.1
v 0.3 0.7 -0.1
v 0.3 1 -0.1
v 0.3 1.1 -0.1
v 0.3 1.2 -0.1
v 0.3 1.3 -0.1
v 0.3 1.4 -0.1
v 0.3 1.5 -0.1
v 0.4 0.5 -0.1
v 0.4 0.6 -0.1
v 0.4 1.1 -0.1
v 0.4 1.2 -0.1
v 0.4 1.3 -0.1
v 0.4 1.4 -0.1
v 0.4 1.5 -0.1
v 0.4 1.6 -0.1
v 0.5 1.1 -0.1
v 0.5 1.2 -0.1
v 0.5 1.3 -0.1
v 0.5 1.4 -0.1
v 0.5 1.5 -0.1
v 0.6 1.2 -0.1
v 0.6 1.3 -0.1
v 0.6 1.4 -0.1
v 0.7 1.1 -0.1
v 0.7 1.3 -0.1
v -0.2 0 -3.72529e-008
v -0.1 0 -3.72529e-008
v -0.2 0 -0.1
v -0.1 0 -0.1
v -0.3 0.1 -3.72529e-008
v -0.2 0.1 -3.72529e-008
v -0.1 0.1 -3.72529e-008
v 0 0.1 -3.72529e-008
v -0.3 0.1 -0.1
v -0.2 0.1 -0.1
v -0.1 0.1 -0.1
v 0 0.1 -0.1
v -0.4 0.2 -3.72529e-008
v -0.3 0.2 -3.72529e-008
v 0 0.2 -3.72529e-008
v 0.1 0.2 -3.72529e-008
v -0.4 0.2 -0.1
v -0.3 0.2 -0.1
v 0 0.2 -0.1
v 0.1 0.2 -0.1
v -0.5 0.3 -3.72529e-008
v -0.4 0.3 -3.72529e-008
v 0.1 0.3 -3.72529e-008
v 0.2 0.3 -3.72529e-008
v -0.5 0.3 -0.1
v -0.4 0.3 -0.1
v 0.1 0.3 -0.1
v 0.2 0.3 -0.1
v -0.6 0.4 -3.72529e-008
v -0.5 0.4 -3.72529e-008
v 0.2 0.4 -3.72529e-008
v 0.3 0.4 -3.72529e-008
v -0.6 0.4 -0.1
v -0.5 0.4 -0.1
v 0.2 0.4 -0.1
v 0.3 0.4 -0.1
v -0.7 0.5 -3.72529e-008
v -0.6 0.5 -3.72529e-008
v 0.3 0.5 -3.72529e-008
v 0.4 0.5 -3.72529e-008
v -0.7 0.5 -0.1
v -0.6 0.5 -0.1
v 0.3 0.5 -0.1
v 0.4 0.5 -0.1
v -0.8 0.6 -3.72529e-008
v -0.7 0.6 -3.72529e-008
v -0.8 0.6 -0.1
v -0.7 0.6 -0.1
v -0.9 0.7 -3.72529e-008
v -0.8 0.7 -3.72529e-008
v -0.9 0.7 -0.1
v -0.8 0.7 -0.1
v 0.1 0.9 -3.72529e-008
v 0.2 0.9 -3.72529e-008
v 0.1 0.9 -0.1
v 0.2 0.9 -0.1
v 0.2 1 -3.72529e-008
v 0.3 1 -3.72529e-008
v 0.2 1 -0.1
v 0.3 1 -0.1
v 0.3 1.1 -3.72529e-008
v 0.4 1.1 -3.72529e-008
v 0.5 1.1 -3.72529e-008
v 0.7 1.1 -3.72529e-008
v 0.3 1.1 -0.1
v 0.4 1.1 -0.1
v 0.5 1.1 -0.1
v 0.7 1.1 -0.1
v 0.4 1.2 -3.72529e-008
v 0.5 1.2 -3.72529e-008
v 0.4 1.2 -0.1
v 0.5 1.2 -0.1
v 0.2 1.4 -3.72529e-008
v 0.3 1.4 -3.72529e-008
v 0.2 1.4 -0.1
v 0.3 1.4 -0.1
v 0.3 0.6 -3.72529e-008
v 0.4 0.6 -3.72529e-008
v 0.3 0.6 -0.1
v 0.4 0.6 -0.1
v 0.2 0.7 -3.72529e-008
v 0.3 0.7 -3.72529e-008
v 0.2 0.7 -0.1
v 0.3 0.7 -0.1
v -0.9 0.8 -3.72529e-008
v -0.8 0.8 -3.72529e-008
v 0.1 0.8 -3.72529e-008
v 0.2 0.8 -3.72529e-008
v -0.9 0.8 -0.1
v -0.8 0.8 -0.1
v 0.1 0.8 -0.1
v 0.2 0.8 -0.1
v -0.8 0.9 -3.72529e-008
v -0.7 0.9 -3.72529e-008
v -0.8 0.9 -0.1
v -0.7 0.9 -0.1
v -0.7 1 -3.72529e-008
v -0.6 1 -3.72529e-008
v -0.1 1 -3.72529e-008
v 0 1 -3.72529e-008
v -0.7 1 -0.1
v -0.6 1 -0.1
v -0.1 1 -0.1
v 0 1 -0.1
v -0.6 1.1 -3.72529e-008
v -0.5 1.1 -3.72529e-008
v -0.2 1.1 -3.72529e-008
v -0.1 1.1 -3.72529e-008
v 0 1.1 -3.72529e-008
v 0.1 1.1 -3.72529e-008
v -0.6 1.1 -0.1
v -0.5 1.1 -0.1
v -0.2 1.1 -0.1
v -0.1 1.1 -0.1
v 0 1.1 -0.1
v 0.1 1.1 -0.1
v -0.5 1.2 -3.72529e-008
v -0.4 1.2 -3.72529e-008
v -0.3 1.2 -3.72529e-008
v -0.2 1.2 -3.72529e-008
v 0.1 1.2 -3.72529e-008
v 0.2 1.2 -3.72529e-008
v -0.5 1.2 -0.1
v -0.4 1.2 -0.1
v -0.3 1.2 -0.1
v -0.2 1.2 -0.1
v 0.1 1.2 -0.1
v 0.2 1.2 -0.1
v -0.4 1.3 -3.72529e-008
v -0.3 1.3 -3.72529e-008
v 0.2 1.3 -3.72529e-008
v 0.3 1.3 -3.72529e-008
v 0.6 1.3 -3.72529e-008
v 0.7 1.3 -3.72529e-008
v -0.4 1.3 -0.1
v -0.3 1.3 -0.1
v 0.2 1.3 -0.1
v 0.3 1.3 -0.1
v 0.6 1.3 -0.1
v 0.7 1.3 -0.1
v 0.5 1.4 -3.72529e-008
v 0.6 1.4 -3.72529e-008
v 0.5 1.4 -0.1
v 0.6 1.4 -0.1
v 0.4 1.5 -3.72529e-008
v 0.5 1.5 -3.72529e-008
v 0.4 1.5 -0.1
v 0.5 1.5 -0.1
v 0.2 1.6 -3.72529e-008
v 0.4 1.6 -3.72529e-008
v 0.2 1.6 -0.1
v 0.4 1.6 -0.1

# faces
f 3/4/1 2/4/1 1/4/1
f 4/4/1 2/4/1 3/4/1
f 7/4/1 6/4/1 5/4/1
f 8/4/1 6/4/1 7/4/1
f 11/4/1 10/4/1 9/4/1
f 12/4/1 10/4/1 11/4/1
f 15/4/1 14/4/1 13/4/1
f 16/4/1 14/4/1 15/4/1
f 19/4/1 18/4/1 17/4/1
f 20/4/1 18/4/1 19/4/1
f 23/4/1 22/4/1 21/4/1
f 24/4/1 22/4/1 23/4/1
f 27/4/1 26/4/1 25/4/1
f 28/4/1 26/4/1 27/4/1
f 31/4/1 30/4/1 29/4/1
f 32/4/1 30/4/1 31/4/1
f 35/4/1 34/4/1 33/4/1
f 36/4/1 34/4/1 35/4/1
f 39/4/1 38/4/1 37/4/1
f 40/4/1 38/4/1 39/4/1
f 43/4/1 42/4/1 41/4/1
f 44/4/1 42/4/1 43/4/1
f 47/4/1 46/4/1 45/4/1
f 48/4/1 46/4/1 47/4/1
f 51/4/1 50/4/1 49/4/1
f 52/4/1 50/4/1 51/4/1
f 55/4/1 54/4/1 53/4/1
f 56/4/1 54/4/1 55/4/1
f 59/4/1 58/4/1 57/4/1
f 60/4/1 58/4/1 59/4/1
f 63/4/1 62/4/1 61/4/1
f 64/4/1 62/4/1 63/4/1
f 67/4/1 66/4/1 65/4/1
f 68/4/1 66/4/1 67/4/1
f 71/4/1 70/4/1 69/4/1
f 72/4/1 70/4/1 71/4/1
f 75/4/1 74/4/1 73/4/1
f 76/4/1 74/4/1 75/4/1
f 77/4/2 78/4/2 79/4/2
f 79/4/2 78/4/2 80/4/2
f 81/4/2 82/4/2 83/4/2
f 83/4/2 82/4/2 84/4/2
f 85/4/2 86/4/2 87/4/2
f 87/4/2 86/4/2 88/4/2
f 89/4/2 90/4/2 91/4/2
f 91/4/2 90/4/2 92/4/2
f 93/4/2 94/4/2 95/4/2
f 95/4/2 94/4/2 96/4/2
f 97/4/2 98/4/2 99/4/2
f 99/4/2 98/4/2 100/4/2
f 101/4/2 102/4/2 103/4/2
f 103/4/2 102/4/2 104/4/2
f 105/4/2 106/4/2 107/4/2
f 107/4/2 106/4/2 108/4/2
f 109/4/2 110/4/2 111/4/2
f 111/4/2 110/4/2 112/4/2
f 113/4/2 114/4/2 115/4/2
f 115/4/2 114/4/2 116/4/2
f 117/4/2 118/4/2 119/4/2
f 119/4/2 118/4/2 120/4/2
f 121/4/2 122/4/2 123/4/2
f 123/4/2 122/4/2 124/4/2
f 125/4/2 126/4/2 127/4/2
f 127/4/2 126/4/2 128/4/2
f 129/4/2 130/4/2 131/4/2
f 131/4/2 130/4/2 132/4/2
f 133/4/2 134/4/2 135/4/2
f 135/4/2 134/4/2 136/4/2
f 137/4/2 138/4/2 139/4/2
f 139/4/2 138/4/2 140/4/2
f 141/4/2 142/4/2 143/4/2
f 143/4/2 142/4/2 144/4/2
f 145/4/2 146/4/2 147/4/2
f 147/4/2 146/4/2 148/4/2
f 149/4/2 150/4/2 151/4/2
f 151/4/2 150/4/2 152/4/2
f 156/4/3 154/4/3 153/4/3
f 157/4/3 154/4/3 156/4/3
f 160/4/3 156/4/3 155/4/3
f 161/2/3 157/2/3 156/2/3
f 161/4/3 156/4/3 160/4/3
f 162/4/3 158/4/3 157/4/3
f 162/2/3 157/2/3 161/2/3
f 163/4/3 158/4/3 162/4/3
f 166/4/3 160/4/3 159/4/3
f 167/2/3 161/2/3 160/2/3
f 167/2/3 162/2/3 161/2/3
f 167/4/3 160/4/3 166/4/3
f 167/2/3 163/2/3 162/2/3
f 168/4/3 164/4/3 163/4/3
f 168/2/3 163/2/3 167/2/3
f 169/4/3 164/4/3 168/4/3
f 172/4/3 166/4/3 165/4/3
f 173/3/3 167/3/3 166/3/3
f 173/4/3 166/4/3 172/4/3
f 174/2/3 168/2/3 167/2/3
f 174/3/3 167/3/3 173/3/3
f 174/2/3 169/2/3 168/2/3
f 175/2/3 169/2/3 174/2/3
f 176/4/3 170/4/3 169/4/3
f 176/2/3 169/2/3 175/2/3
f 177/4/3 170/4/3 176/4/3
f 180/4/3 172/4/3 171/4/3
f 181/2/3 173/2/3 172/2/3
f 181/2/3 174/2/3 173/2/3
f 181/4/3 172/4/3 180/4/3
f 182/3/3 175/3/3 174/3/3
f 182/2/3 174/2/3 181/2/3
f 183/2/3 176/2/3 175/2/3
f 183/3/3 175/3/3 182/3/3
f 183/2/3 177/2/3 176/2/3
f 184/2/3 177/2/3 183/2/3
f 185/4/3 178/4/3 177/4/3
f 185/2/3 177/2/3 184/2/3
f 186/4/3 178/4/3 185/4/3
f 189/4/3 180/4/3 179/4/3
f 190/3/3 181/3/3 180/3/3
f 190/4/3 180/4/3 189/4/3
f 191/2/3 182/2/3 181/2/3
f 191/3/3 181/3/3 190/3/3
f 191/2/3 183/2/3 182/2/3
f 192/2/3 183/2/3 191/2/3
f 193/3/3 184/3/3 183/3/3
f 193/2/3 183/2/3 192/2/3
f 194/2/3 185/2/3 184/2/3
f 194/3/3 184/3/3 193/3/3
f 194/2/3 186/2/3 185/2/3
f 195/2/3 186/2/3 194/2/3
f 196/4/3 187/4/3 186/4/3
f 196/2/3 186/2/3 195/2/3
f 197/4/3 187/4/3 196/4/3
f 199/4/3 189/4/3 188/4/3
f 200/2/3 190/2/3 189/2/3
f 200/2/3 191/2/3 190/2/3
f 200/4/3 189/4/3 199/4/3
f 201/3/3 192/3/3 191/3/3
f 201/2/3 191/2/3 200/2/3
f 202/2/3 195/2/3 194/2/3
f 202/3/3 192/3/3 201/3/3
f 202/2/3 193/2/3 192/2/3
f 202/2/3 194/2/3 193/2/3
f 203/2/3 195/2/3 202/2/3
f 204/2/3 195/2/3 203/2/3
f 205/2/3 195/2/3 204/2/3
f 206/2/3 195/2/3 205/2/3
f 207/4/3 196/4/3 195/4/3
f 207/2/3 195/2/3 206/2/3
f 208/4/3 196/4/3 207/4/3
f 209/4/3 199/4/3 198/4/3
f 210/2/3 200/2/3 199/2/3
f 210/4/3 199/4/3 209/4/3
f 210/2/3 201/2/3 200/2/3
f 210/2/3 202/2/3 201/2/3
f 211/2/3 202/2/3 210/2/3
f 212/3/3 203/3/3 202/3/3
f 212/2/3 202/2/3 211/2/3
f 213/2/3 204/2/3 203/2/3
f 213/3/3 203/3/3 212/3/3
f 214/4/3 205/4/3 204/4/3
f 215/2/3 206/2/3 205/2/3
f 215/4/3 205/4/3 214/4/3
f 216/4/3 207/4/3 206/4/3
f 216/2/3 206/2/3 215/2/3
f 217/4/3 207/4/3 216/4/3
f 218/4/3 211/4/3 210/4/3
f 219/2/3 212/2/3 211/2/3
f 219/4/3 211/4/3 218/4/3
f 219/2/3 213/2/3 212/2/3
f 220/2/3 213/2/3 219/2/3
f 221/4/3 214/4/3 204/4/3
f 221/2/3 213/2/3 220/2/3
f 221/2/3 204/2/3 213/2/3
f 222/1/3 215/1/3 214/1/3
f 222/4/3 214/4/3 221/4/3
f 223/4/3 216/4/3 215/4/3
f 223/1/3 215/1/3 222/1/3
f 224/4/3 216/4/3 223/4/3
f 226/4/3 220/4/3 219/4/3
f 227/2/3 221/2/3 220/2/3
f 227/4/3 220/4/3 226/4/3
f 227/2/3 222/2/3 221/2/3
f 228/2/3 222/2/3 227/2/3
f 229/2/3 222/2/3 228/2/3
f 230/4/3 223/4/3 222/4/3
f 230/2/3 222/2/3 229/2/3
f 231/1/3 224/1/3 223/1/3
f 231/4/3 223/4/3 230/4/3
f 232/4/3 225/4/3 224/4/3
f 232/1/3 224/1/3 231/1/3
f 233/4/3 225/4/3 232/4/3
f 235/4/3 228/4/3 227/4/3
f 236/2/3 229/2/3 228/2/3
f 236/4/3 228/4/3 235/4/3
f 237/2/3 229/2/3 236/2/3
f 238/2/3 229/2/3 237/2/3
f 239/4/3 230/4/3 229/4/3
f 239/2/3 229/2/3 238/2/3
f 240/4/3 230/4/3 239/4/3
f 241/4/3 232/4/3 231/4/3
f 242/1/3 233/1/3 232/1/3
f 242/4/3 232/4/3 241/4/3
f 243/4/3 234/4/3 233/4/3
f 243/1/3 233/1/3 242/1/3
f 244/4/3 234/4/3 243/4/3
f 248/4/3 237/4/3 236/4/3
f 249/2/3 238/2/3 237/2/3
f 249/4/3 237/4/3 248/4/3
f 250/4/3 239/4/3 238/4/3
f 250/2/3 238/2/3 249/2/3
f 251/4/3 239/4/3 250/4/3
f 252/4/3 243/4/3 242/4/3
f 253/1/3 244/1/3 243/1/3
f 253/4/3 243/4/3 252/4/3
f 254/4/3 245/4/3 244/4/3
f 254/1/3 244/1/3 253/1/3
f 255/4/3 245/4/3 254/4/3
f 256/4/3 247/4/3 246/4/3
f 257/4/3 247/4/3 256/4/3
f 258/4/3 250/4/3 249/4/3
f 259/4/3 250/4/3 258/4/3
f 260/4/3 254/4/3 253/4/3
f 261/1/3 255/1/3 254/1/3
f 261/4/3 254/4/3 260/4/3
f 262/4/3 256/4/3 255/4/3
f 262/1/3 255/1/3 261/1/3
f 263/1/3 257/1/3 256/1/3
f 263/4/3 256/4/3 262/4/3
f 264/4/3 247/4/3 257/4/3
f 264/1/3 257/1/3 263/1/3
f 265/4/3 247/4/3 264/4/3
f 267/4/3 262/4/3 261/4/3
f 268/1/3 263/1/3 262/1/3
f 268/4/3 262/4/3 267/4/3
f 269/4/3 264/4/3 263/4/3
f 269/1/3 263/1/3 268/1/3
f 270/4/3 264/4/3 269/4/3
f 271/4/3 267/4/3 266/4/3
f 271/1/3 268/1/3 267/1/3
f 272/4/3 269/4/3 268/4/3
f 272/1/3 268/1/3 271/1/3
f 273/4/3 269/4/3 272/4/3
f 274/4/3 271/4/3 266/4/3
f 274/4/3 272/4/3 271/4/3
f 275/4/3 272/4/3 274/4/3
f 276/4/4 277/4/4 279/4/4
f 279/4/4 277/4/4 280/4/4
f 278/4/4 279/4/4 283/4/4
f 279/2/4 280/2/4 284/2/4
f 283/4/4 279/4/4 284/4/4
f 280/4/4 281/4/4 285/4/4
f 284/2/4 280/2/4 285/2/4
f 285/4/4 281/4/4 286/4/4
f 282/4/4 283/4/4 289/4/4
f 283/2/4 284/2/4 290/2/4
f 284/2/4 285/2/4 290/2/4
f 289/4/4 283/4/4 290/4/4
f 285/2/4 286/2/4 290/2/4
f 286/4/4 287/4/4 291/4/4
f 290/2/4 286/2/4 291/2/4
f 291/4/4 287/4/4 292/4/4
f 288/4/4 289/4/4 295/4/4
f 289/3/4 290/3/4 296/3/4
f 295/4/4 289/4/4 296/4/4
f 290/2/4 291/2/4 297/2/4
f 296/3/4 290/3/4 297/3/4
f 291/2/4 292/2/4 297/2/4
f 297/2/4 292/2/4 298/2/4
f 292/4/4 293/4/4 299/4/4
f 298/2/4 292/2/4 299/2/4
f 299/4/4 293/4/4 300/4/4
f 294/4/4 295/4/4 303/4/4
f 295/2/4 296/2/4 304/2/4
f 296/2/4 297/2/4 304/2/4
f 303/4/4 295/4/4 304/4/4
f 297/3/4 298/3/4 305/3/4
f 304/2/4 297/2/4 305/2/4
f 298/2/4 299/2/4 306/2/4
f 305/3/4 298/3/4 306/3/4
f 299/2/4 300/2/4 306/2/4
f 306/2/4 300/2/4 307/2/4
f 300/4/4 301/4/4 308/4/4
f 307/2/4 300/2/4 308/2/4
f 308/4/4 301/4/4 309/4/4
f 302/4/4 303/4/4 312/4/4
f 303/3/4 304/3/4 313/3/4
f 312/4/4 303/4/4 313/4/4
f 304/2/4 305/2/4 314/2/4
f 313/3/4 304/3/4 314/3/4
f 305/2/4 306/2/4 314/2/4
f 314/2/4 306/2/4 315/2/4
f 306/3/4 307/3/4 316/3/4
f 315/2/4 306/2/4 316/2/4
f 307/2/4 308/2/4 317/2/4
f 316/3/4 307/3/4 317/3/4
f 308/2/4 309/2/4 317/2/4
f 317/2/4 309/2/4 318/2/4
f 309/4/4 310/4/4 319/4/4
f 318/2/4 309/2/4 319/2/4
f 319/4/4 310/4/4 320/4/4
f 311/4/4 312/4/4 322/4/4
f 312/2/4 313/2/4 323/2/4
f 313/2/4 314/2/4 323/2/4
f 322/4/4 312/4/4 323/4/4
f 314/3/4 315/3/4 324/3/4
f 323/2/4 314/2/4 324/2/4
f 317/2/4 318/2/4 325/2/4
f 324/3/4 315/3/4 325/3/4
f 315/2/4 316/2/4 325/2/4
f 316/2/4 317/2/4 325/2/4
f 325/2/4 318/2/4 326/2/4
f 326/2/4 318/2/4 327/2/4
f 327/2/4 318/2/4 328/2/4
f 328/2/4 318/2/4 329/2/4
f 318/4/4 319/4/4 330/4/4
f 329/2/4 318/2/4 330/2/4
f 330/4/4 319/4/4 331/4/4
f 321/4/4 322/4/4 332/4/4
f 322/2/4 323/2/4 333/2/4
f 332/4/4 322/4/4 333/4/4
f 323/2/4 324/2/4 333/2/4
f 324/2/4 325/2/4 333/2/4
f 333/2/4 325/2/4 334/2/4
f 325/3/4 326/3/4 335/3/4
f 334/2/4 325/2/4 335/2/4
f 326/2/4 327/2/4 336/2/4
f 335/3/4 326/3/4 336/3/4
f 327/4/4 328/4/4 337/4/4
f 328/2/4 329/2/4 338/2/4
f 337/4/4 328/4/4 338/4/4
f 329/4/4 330/4/4 339/4/4
f 338/2/4 329/2/4 339/2/4
f 339/4/4 330/4/4 340/4/4
f 333/4/4 334/4/4 341/4/4
f 334/2/4 335/2/4 342/2/4
f 341/4/4 334/4/4 342/4/4
f 335/2/4 336/2/4 342/2/4
f 342/2/4 336/2/4 343/2/4
f 327/4/4 337/4/4 344/4/4
f 343/2/4 336/2/4 344/2/4
f 336/2/4 327/2/4 344/2/4
f 337/1/4 338/1/4 345/1/4
f 344/4/4 337/4/4 345/4/4
f 338/4/4 339/4/4 346/4/4
f 345/1/4 338/1/4 346/1/4
f 346/4/4 339/4/4 347/4/4
f 342/4/4 343/4/4 349/4/4
f 343/2/4 344/2/4 350/2/4
f 349/4/4 343/4/4 350/4/4
f 344/2/4 345/2/4 350/2/4
f 350/2/4 345/2/4 351/2/4
f 351/2/4 345/2/4 352/2/4
f 345/4/4 346/4/4 353/4/4
f 352/2/4 345/2/4 353/2/4
f 346/1/4 347/1/4 354/1/4
f 353/4/4 346/4/4 354/4/4
f 347/4/4 348/4/4 355/4/4
f 354/1/4 347/1/4 355/1/4
f 355/4/4 348/4/4 356/4/4
f 350/4/4 351/4/4 358/4/4
f 351/2/4 352/2/4 359/2/4
f 358/4/4 351/4/4 359/4/4
f 359/2/4 352/2/4 360/2/4
f 360/2/4 352/2/4 361/2/4
f 352/4/4 353/4/4 362/4/4
f 361/2/4 352/2/4 362/2/4
f 362/4/4 353/4/4 363/4/4
f 354/4/4 355/4/4 364/4/4
f 355/1/4 356/1/4 365/1/4
f 364/4/4 355/4/4 365/4/4
f 356/4/4 357/4/4 366/4/4
f 365/1/4 356/1/4 366/1/4
f 366/4/4 357/4/4 367/4/4
f 359/4/4 360/4/4 371/4/4
f 360/2/4 361/2/4 372/2/4
f 371/4/4 360/4/4 372/4/4
f 361/4/4 362/4/4 373/4/4
f 372/2/4 361/2/4 373/2/4
f 373/4/4 362/4/4 374/4/4
f 365/4/4 366/4/4 375/4/4
f 366/1/4 367/1/4 376/1/4
f 375/4/4 366/4/4 376/4/4
f 367/4/4 368/4/4 377/4/4
f 376/1/4 367/1/4 377/1/4
f 377/4/4 368/4/4 378/4/4
f 369/4/4 370/4/4 379/4/4
f 379/4/4 370/4/4 380/4/4
f 372/4/4 373/4/4 381/4/4
f 381/4/4 373/4/4 382/4/4
f 376/4/4 377/4/4 383/4/4
f 377/1/4 378/1/4 384/1/4
f 383/4/4 377/4/4 384/4/4
f 378/4/4 379/4/4 385/4/4
f 384/1/4 378/1/4 385/1/4
f 379/1/4 380/1/4 386/1/4
f 385/4/4 379/4/4 386/4/4
f 380/4/4 370/4/4 387/4/4
f 386/1/4 380/1/4 387/1/4
f 387/4/4 370/4/4 388/4/4
f 384/4/4 385/4/4 390/4/4
f 385/1/4 386/1/4 391/1/4
f 390/4/4 385/4/4 391/4/4
f 386/4/4 387/4/4 392/4/4
f 391/1/4 386/1/4 392/1/4
f 392/4/4 387/4/4 393/4/4
f 389/4/4 390/4/4 394/4/4
f 390/1/4 391/1/4 394/1/4
f 391/4/4 392/4/4 395/4/4
f 394/1/4 391/1/4 395/1/4
f 395/4/4 392/4/4 396/4/4
f 389/4/4 394/4/4 397/4/4
f 394/4/4 395/4/4 397/4/4
f 397/4/4 395/4/4 398/4/4
f 401/4/5 400/4/5 399/4/5
f 402/4/5 400/4/5 401/4/5
f 407/4/5 404/4/5 403/4/5
f 408/4/5 404/4/5 407/4/5
f 409/4/5 406/4/5 405/4/5
f 410/4/5 406/4/5 409/4/5
f 415/4/5 412/4/5 411/4/5
f 416/4/5 412/4/5 415/4/5
f 417/4/5 414/4/5 413/4/5
f 418/4/5 414/4/5 417/4/5
f 423/4/5 420/4/5 419/4/5
f 424/4/5 420/4/5 423/4/5
f 425/4/5 422/4/5 421/4/5
f 426/4/5 422/4/5 425/4/5
f 431/4/5 428/4/5 427/4/5
f 432/4/5 428/4/5 431/4/5
f 433/4/5 430/4/5 429/4/5
f 434/4/5 430/4/5 433/4/5
f 439/4/5 436/4/5 435/4/5
f 440/4/5 436/4/5 439/4/5
f 441/4/5 438/4/5 437/4/5
f 442/4/5 438/4/5 441/4/5
f 445/4/5 444/4/5 443/4/5
f 446/4/5 444/4/5 445/4/5
f 449/4/5 448/4/5 447/4/5
f 450/4/5 448/4/5 449/4/5
f 453/4/5 452/4/5 451/4/5
f 454/4/5 452/4/5 453/4/5
f 457/4/5 456/4/5 455/4/5
f 458/4/5 456/4/5 457/4/5
f 463/4/5 460/4/5 459/4/5
f 464/4/5 460/4/5 463/4/5
f 465/4/5 462/4/5 461/4/5
f 466/4/5 462/4/5 465/4/5
f 469/4/5 468/4/5 467/4/5
f 470/4/5 468/4/5 469/4/5
f 473/4/5 472/4/5 471/4/5
f 474/4/5 472/4/5 473/4/5
f 475/4/6 476/4/6 477/4/6
f 477/4/6 476/4/6 478/4/6
f 479/4/6 480/4/6 481/4/6
f 481/4/6 480/4/6 482/4/6
f 483/4/6 484/4/6 487/4/6
f 487/4/6 484/4/6 488/4/6
f 485/4/6 486/4/6 489/4/6
f 489/4/6 486/4/6 490/4/6
f 491/4/6 492/4/6 493/4/6
f 493/4/6 492/4/6 494/4/6
f 495/4/6 496/4/6 499/4/6
f 499/4/6 496/4/6 500/4/6
f 497/4/6 498/4/6 501/4/6
f 501/4/6 498/4/6 502/4/6
f 503/4/6 504/4/6 509/4/6
f 509/4/6 504/4/6 510/4/6
f 505/4/6 506/4/6 511/4/6
f 511/4/6 506/4/6 512/4/6
f 507/4/6 508/4/6 513/4/6
f 513/4/6 508/4/6 514/4/6
f 515/4/6 516/4/6 521/4/6
f 521/4/6 516/4/6 522/4/6
f 517/4/6 518/4/6 523/4/6
f 523/4/6 518/4/6 524/4/6
f 519/4/6 520/4/6 525/4/6
f 525/4/6 520/4/6 526/4/6
f 527/4/6 528/4/6 533/4/6
f 533/4/6 528/4/6 534/4/6
f 529/4/6 530/4/6 535/4/6
f 535/4/6 530/4/6 536/4/6
f 531/4/6 532/4/6 537/4/6
f 537/4/6 532/4/6 538/4/6
f 539/4/6 540/4/6 541/4/6
f 541/4/6 540/4/6 542/4/6
f 543/4/6 544/4/6 545/4/6
f 545/4/6 544/4/6 546/4/6
f 547/4/6 548/4/6 549/4/6
f 549/4/6 548/4/6 550/4/6
