# MagicaVoxel @ Ephtracy

# group
o 

# material
mtllib winter shovel.mtl
usemtl palette

# normals
vn -1 0 0
vn 1 0 0
vn 0 0 1
vn 0 0 -1
vn 0 -1 0
vn 0 1 0

# texcoords
vt 0.396484 0.5
vt 0.857422 0.5
vt 0.869141 0.5
vt 0.958984 0.5
vt 0.994141 0.5

# verts
v -0.9 0.7 -3.72529e-008
v -0.9 0.7 -0.1
v -0.9 0.8 -3.72529e-008
v -0.9 0.8 -0.1
v -0.8 0.6 -3.72529e-008
v -0.8 0.6 -0.1
v -0.8 0.7 -3.72529e-008
v -0.8 0.7 -0.1
v -0.8 0.8 -3.72529e-008
v -0.8 0.8 -0.1
v -0.8 0.9 -3.72529e-008
v -0.8 0.9 -0.1
v -0.7 0.5 -3.72529e-008
v -0.7 0.5 -0.1
v -0.7 0.6 -3.72529e-008
v -0.7 0.6 -0.1
v -0.7 0.9 -3.72529e-008
v -0.7 0.9 -0.1
v -0.7 1 -3.72529e-008
v -0.7 1 -0.1
v -0.6 0.4 -3.72529e-008
v -0.6 0.4 -0.1
v -0.6 0.5 -3.72529e-008
v -0.6 0.5 -0.1
v -0.6 1 -3.72529e-008
v -0.6 1 -0.1
v -0.6 1.1 -3.72529e-008
v -0.6 1.1 -0.1
v -0.5 0.3 -3.72529e-008
v -0.5 0.3 -0.1
v -0.5 0.4 -3.72529e-008
v -0.5 0.4 -0.1
v -0.5 1.1 -3.72529e-008
v -0.5 1.1 -0.1
v -0.5 1.2 -3.72529e-008
v -0.5 1.2 -0.1
v -0.4 0.2 -3.72529e-008
v -0.4 0.2 -0.1
v -0.4 0.3 -3.72529e-008
v -0.4 0.3 -0.1
v -0.4 1.2 -3.72529e-008
v -0.4 1.2 -0.1
v -0.4 1.3 -3.72529e-008
v -0.4 1.3 -0.1
v -0.3 0.1 -3.72529e-008
v -0.3 0.1 -0.1
v -0.3 0.2 -3.72529e-008
v -0.3 0.2 -0.1
v -0.2 0 -3.72529e-008
v -0.2 0 -0.1
v -0.2 0.1 -3.72529e-008
v -0.2 0.1 -0.1
v 0 1 -3.72529e-008
v 0 1 -0.1
v 0 1.1 -3.72529e-008
v 0 1.1 -0.1
v 0.1 1.1 -3.72529e-008
v 0.1 1.1 -0.1
v 0.1 1.2 -3.72529e-008
v 0.1 1.2 -0.1
v 0.2 1.2 -3.72529e-008
v 0.2 1.2 -0.1
v 0.2 1.3 -3.72529e-008
v 0.2 1.3 -0.1
v 0.2 1.4 -3.72529e-008
v 0.2 1.4 -0.1
v 0.2 1.6 -3.72529e-008
v 0.2 1.6 -0.1
v 0.3 1.3 -3.72529e-008
v 0.3 1.3 -0.1
v 0.3 1.4 -3.72529e-008
v 0.3 1.4 -0.1
v 0.5 1.1 -3.72529e-008
v 0.5 1.1 -0.1
v 0.5 1.2 -3.72529e-008
v 0.5 1.2 -0.1
v -0.3 1.2 -3.72529e-008
v -0.3 1.2 -0.1
v -0.3 1.3 -3.72529e-008
v -0.3 1.3 -0.1
v -0.2 1.1 -3.72529e-008
v -0.2 1.1 -0.1
v -0.2 1.2 -3.72529e-008
v -0.2 1.2 -0.1
v -0.1 0 -3.72529e-008
v -0.1 0 -0.1
v -0.1 0.1 -3.72529e-008
v -0.1 0.1 -0.1
v -0.1 1 -3.72529e-008
v -0.1 1 -0.1
v -0.1 1.1 -3.72529e-008
v -0.1 1.1 -0.1
v 0 0.1 -3.72529e-008
v 0 0.1 -0.1
v 0 0.2 -3.72529e-008
v 0 0.2 -0.1
v 0.1 0.2 -3.72529e-008
v 0.1 0.2 -0.1
v 0.1 0.3 -3.72529e-008
v 0.1 0.3 -0.1
v 0.1 0.8 -3.72529e-008
v 0.1 0.8 -0.1
v 0.1 0.9 -3.72529e-008
v 0.1 0.9 -0.1
v 0.2 0.3 -3.72529e-008
v 0.2 0.3 -0.1
v 0.2 0.4 -3.72529e-008
v 0.2 0.4 -0.1
v 0.2 0.7 -3.72529e-008
v 0.2 0.7 -0.1
v 0.2 0.8 -3.72529e-008
v 0.2 0.8 -0.1
v 0.2 0.9 -3.72529e-008
v 0.2 0.9 -0.1
v 0.2 1 -3.72529e-008
v 0.2 1 -0.1
v 0.3 0.4 -3.72529e-008
v 0.3 0.4 -0.1
v 0.3 0.5 -3.72529e-008
v 0.3 0.5 -0.1
v 0.3 0.6 -3.72529e-008
v 0.3 0.6 -0.1
v 0.3 0.7 -3.72529e-008
v 0.3 0.7 -0.1
v 0.3 1 -3.72529e-008
v 0.3 1 -0.1
v 0.3 1.1 -3.72529e-008
v 0.3 1.1 -0.1
v 0.4 0.5 -3.72529e-008
v 0.4 0.5 -0.1
v 0.4 0.6 -3.72529e-008
v 0.4 0.6 -0.1
v 0.4 1.1 -3.72529e-008
v 0.4 1.1 -0.1
v 0.4 1.2 -3.72529e-008
v 0.4 1.2 -0.1
v 0.4 1.5 -3.72529e-008
v 0.4 1.5 -0.1
v 0.4 1.6 -3.72529e-008
v 0.4 1.6 -0.1
v 0.5 1.4 -3.72529e-008
v 0.5 1.4 -0.1
v 0.5 1.5 -3.72529e-008
v 0.5 1.5 -0.1
v 0.6 1.3 -3.72529e-008
v 0.6 1.3 -0.1
v 0.6 1.4 -3.72529e-008
v 0.6 1.4 -0.1
v 0.7 1.1 -3.72529e-008
v 0.7 1.1 -0.1
v 0.7 1.3 -3.72529e-008
v 0.7 1.3 -0.1
v -0.9 0.7 -3.72529e-008
v -0.9 0.8 -3.72529e-008
v -0.8 0.6 -3.72529e-008
v -0.8 0.7 -3.72529e-008
v -0.8 0.8 -3.72529e-008
v -0.8 0.9 -3.72529e-008
v -0.7 0.5 -3.72529e-008
v -0.7 0.6 -3.72529e-008
v -0.7 0.7 -3.72529e-008
v -0.7 0.8 -3.72529e-008
v -0.7 0.9 -3.72529e-008
v -0.7 1 -3.72529e-008
v -0.6 0.4 -3.72529e-008
v -0.6 0.5 -3.72529e-008
v -0.6 0.6 -3.72529e-008
v -0.6 0.9 -3.72529e-008
v -0.6 1 -3.72529e-008
v -0.6 1.1 -3.72529e-008
v -0.5 0.3 -3.72529e-008
v -0.5 0.4 -3.72529e-008
v -0.5 0.5 -3.72529e-008
v -0.5 0.6 -3.72529e-008
v -0.5 0.7 -3.72529e-008
v -0.5 0.9 -3.72529e-008
v -0.5 1 -3.72529e-008
v -0.5 1.1 -3.72529e-008
v -0.5 1.2 -3.72529e-008
v -0.4 0.2 -3.72529e-008
v -0.4 0.3 -3.72529e-008
v -0.4 0.4 -3.72529e-008
v -0.4 0.6 -3.72529e-008
v -0.4 0.7 -3.72529e-008
v -0.4 0.8 -3.72529e-008
v -0.4 0.9 -3.72529e-008
v -0.4 1 -3.72529e-008
v -0.4 1.1 -3.72529e-008
v -0.4 1.2 -3.72529e-008
v -0.4 1.3 -3.72529e-008
v -0.3 0.1 -3.72529e-008
v -0.3 0.2 -3.72529e-008
v -0.3 0.3 -3.72529e-008
v -0.3 0.4 -3.72529e-008
v -0.3 0.5 -3.72529e-008
v -0.3 0.7 -3.72529e-008
v -0.3 0.8 -3.72529e-008
v -0.3 1 -3.72529e-008
v -0.3 1.1 -3.72529e-008
v -0.3 1.2 -3.72529e-008
v -0.3 1.3 -3.72529e-008
v -0.2 0 -3.72529e-008
v -0.2 0.1 -3.72529e-008
v -0.2 0.2 -3.72529e-008
v -0.2 0.4 -3.72529e-008
v -0.2 0.5 -3.72529e-008
v -0.2 0.6 -3.72529e-008
v -0.2 0.7 -3.72529e-008
v -0.2 0.9 -3.72529e-008
v -0.2 1 -3.72529e-008
v -0.2 1.1 -3.72529e-008
v -0.2 1.2 -3.72529e-008
v -0.1 0 -3.72529e-008
v -0.1 0.1 -3.72529e-008
v -0.1 0.2 -3.72529e-008
v -0.1 0.5 -3.72529e-008
v -0.1 0.6 -3.72529e-008
v -0.1 0.8 -3.72529e-008
v -0.1 0.9 -3.72529e-008
v -0.1 1 -3.72529e-008
v -0.1 1.1 -3.72529e-008
v 0 0.1 -3.72529e-008
v 0 0.2 -3.72529e-008
v 0 0.3 -3.72529e-008
v 0 0.7 -3.72529e-008
v 0 0.8 -3.72529e-008
v 0 0.9 -3.72529e-008
v 0 1 -3.72529e-008
v 0 1.1 -3.72529e-008
v 0.1 0.2 -3.72529e-008
v 0.1 0.3 -3.72529e-008
v 0.1 0.4 -3.72529e-008
v 0.1 0.7 -3.72529e-008
v 0.1 0.8 -3.72529e-008
v 0.1 0.9 -3.72529e-008
v 0.1 1 -3.72529e-008
v 0.1 1.1 -3.72529e-008
v 0.1 1.2 -3.72529e-008
v 0.2 0.3 -3.72529e-008
v 0.2 0.4 -3.72529e-008
v 0.2 0.5 -3.72529e-008
v 0.2 0.6 -3.72529e-008
v 0.2 0.7 -3.72529e-008
v 0.2 0.8 -3.72529e-008
v 0.2 0.9 -3.72529e-008
v 0.2 1 -3.72529e-008
v 0.2 1.1 -3.72529e-008
v 0.2 1.2 -3.72529e-008
v 0.2 1.3 -3.72529e-008
v 0.2 1.4 -3.72529e-008
v 0.2 1.6 -3.72529e-008
v 0.3 0.4 -3.72529e-008
v 0.3 0.5 -3.72529e-008
v 0.3 0.6 -3.72529e-008
v 0.3 0.7 -3.72529e-008
v 0.3 1 -3.72529e-008
v 0.3 1.1 -3.72529e-008
v 0.3 1.2 -3.72529e-008
v 0.3 1.3 -3.72529e-008
v 0.3 1.4 -3.72529e-008
v 0.3 1.5 -3.72529e-008
v 0.4 0.5 -3.72529e-008
v 0.4 0.6 -3.72529e-008
v 0.4 1.1 -3.72529e-008
v 0.4 1.2 -3.72529e-008
v 0.4 1.3 -3.72529e-008
v 0.4 1.4 -3.72529e-008
v 0.4 1.5 -3.72529e-008
v 0.4 1.6 -3.72529e-008
v 0.5 1.1 -3.72529e-008
v 0.5 1.2 -3.72529e-008
v 0.5 1.3 -3.72529e-008
v 0.5 1.4 -3.72529e-008
v 0.5 1.5 -3.72529e-008
v 0.6 1.2 -3.72529e-008
v 0.6 1.3 -3.72529e-008
v 0.6 1.4 -3.72529e-008
v 0.7 1.1 -3.72529e-008
v 0.7 1.3 -3.72529e-008
v -0.9 0.7 -0.1
v -0.9 0.8 -0.1
v -0.8 0.6 -0.1
v -0.8 0.7 -0.1
v -0.8 0.8 -0.1
v -0.8 0.9 -0.1
v -0.7 0.5 -0.1
v -0.7 0.6 -0.1
v -0.7 0.7 -0.1
v -0.7 0.8 -0.1
v -0.7 0.9 -0.1
v -0.7 1 -0.1
v -0.6 0.4 -0.1
v -0.6 0.5 -0.1
v -0.6 0.6 -0.1
v -0.6 0.9 -0.1
v -0.6 1 -0.1
v -0.6 1.1 -0.1
v -0.5 0.3 -0.1
v -0.5 0.4 -0.1
v -0.5 0.5 -0.1
v -0.5 0.6 -0.1
v -0.5 0.7 -0.1
v -0.5 0.9 -0.1
v -0.5 1 -0.1
v -0.5 1.1 -0.1
v -0.5 1.2 -0.1
v -0.4 0.2 -0.1
v -0.4 0.3 -0.1
v -0.4 0.4 -0.1
v -0.4 0.6 -0.1
v -0.4 0.7 -0.1
v -0.4 0.8 -0.1
v -0.4 0.9 -0.1
v -0.4 1 -0.1
v -0.4 1.1 -0.1
v -0.4 1.2 -0.1
v -0.4 1.3 -0.1
v -0.3 0.1 -0.1
v -0.3 0.2 -0.1
v -0.3 0.3 -0.1
v -0.3 0.4 -0.1
v -0.3 0.5 -0.1
v -0.3 0.7 -0.1
v -0.3 0.8 -0.1
v -0.3 1 -0.1
v -0.3 1.1 -0.1
v -0.3 1.2 -0.1
v -0.3 1.3 -0.1
v -0.2 0 -0.1
v -0.2 0.1 -0.1
v -0.2 0.2 -0.1
v -0.2 0.4 -0.1
v -0.2 0.5 -0.1
v -0.2 0.6 -0.1
v -0.2 0.7 -0.1
v -0.2 0.9 -0.1
v -0.2 1 -0.1
v -0.2 1.1 -0.1
v -0.2 1.2 -0.1
v -0.1 0 -0.1
v -0.1 0.1 -0.1
v -0.1 0.2 -0.1
v -0.1 0.5 -0.1
v -0.1 0.6 -0.1
v -0.1 0.8 -0.1
v -0.1 0.9 -0.1
v -0.1 1 -0.1
v -0.1 1.1 -0.1
v 0 0.1 -0.1
v 0 0.2 -0.1
v 0 0.3 -0.1
v 0 0.7 -0.1
v 0 0.8 -0.1
v 0 0.9 -0.1
v 0 1 -0.1
v 0 1.1 -0.1
v 0.1 0.2 -0.1
v 0.1 0.3 -0.1
v 0.1 0.4 -0.1
v 0.1 0.7 -0.1
v 0.1 0.8 -0.1
v 0.1 0.9 -0.1
v 0.1 1 -0.1
v 0.1 1.1 -0.1
v 0.1 1.2 -0.1
v 0.2 0.3 -0.1
v 0.2 0.4 -0.1
v 0.2 0.5 -0.1
v 0.2 0.6 -0.1
v 0.2 0.7 -0.1
v 0.2 0.8 -0.1
v 0.2 0.9 -0.1
v 0.2 1 -0.1
v 0.2 1.1 -0.1
v 0.2 1.2 -0.1
v 0.2 1.3 -0.1
v 0.2 1.4 -0.1
v 0.2 1.6 -0.1
v 0.3 0.4 -0.1
v 0.3 0.5 -0.1
v 0.3 0.6 -0.1
v 0.3 0.7 -0.1
v 0.3 1 -0.1
v 0.3 1.1 -0.1
v 0.3 1.2 -0.1
v 0.3 1.3 -0.1
v 0.3 1.4 -0.1
v 0.3 1.5 -0.1
v 0.4 0.5 -0.1
v 0.4 0.6 -0.1
v 0.4 1.1 -0.1
v 0.4 1.2 -0.1
v 0.4 1.3 -0.1
v 0.4 1.4 -0.1
v 0.4 1.5 -0.1
v 0.4 1.6 -0.1
v 0.5 1.1 -0.1
v 0.5 1.2 -0.1
v 0.5 1.3 -0.1
v 0.5 1.4 -0.1
v 0.5 1.5 -0.1
v 0.6 1.2 -0.1
v 0.6 1.3 -0.1
v 0.6 1.4 -0.1
v 0.7 1.1 -0.1
v 0.7 1.3 -0.1
v -0.2 0 -3.72529e-008
v -0.1 0 -3.72529e-008
v -0.2 0 -0.1
v -0.1 0 -0.1
v -0.3 0.1 -3.72529e-008
v -0.2 0.1 -3.72529e-008
v -0.1 0.1 -3.72529e-008
v 0 0.1 -3.72529e-008
v -0.3 0.1 -0.1
v -0.2 0.1 -0.1
v -0.1 0.1 -0.1
v 0 0.1 -0.1
v -0.4 0.2 -3.72529e-008
v -0.3 0.2 -3.72529e-008
v 0 0.2 -3.72529e-008
v 0.1 0.2 -3.72529e-008
v -0.4 0.2 -0.1
v -0.3 0.2 -0.1
v 0 0.2 -0.1
v 0.1 0.2 -0.1
v -0.5 0.3 -3.72529e-008
v -0.4 0.3 -3.72529e-008
v 0.1 0.3 -3.72529e-008
v 0.2 0.3 -3.72529e-008
v -0.5 0.3 -0.1
v -0.4 0.3 -0.1
v 0.1 0.3 -0.1
v 0.2 0.3 -0.1
v -0.6 0.4 -3.72529e-008
v -0.5 0.4 -3.72529e-008
v 0.2 0.4 -3.72529e-008
v 0.3 0.4 -3.72529e-008
v -0.6 0.4 -0.1
v -0.5 0.4 -0.1
v 0.2 0.4 -0.1
v 0.3 0.4 -0.1
v -0.7 0.5 -3.72529e-008
v -0.6 0.5 -3.72529e-008
v 0.3 0.5 -3.72529e-008
v 0.4 0.5 -3.72529e-008
v -0.7 0.5 -0.1
v -0.6 0.5 -0.1
v 0.3 0.5 -0.1
v 0.4 0.5 -0.1
v -0.8 0.6 -3.72529e-008
v -0.7 0.6 -3.72529e-008
v -0.8 0.6 -0.1
v -0.7 0.6 -0.1
v -0.9 0.7 -3.72529e-008
v -0.8 0.7 -3.72529e-008
v -0.9 0.7 -0.1
v -0.8 0.7 -0.1
v 0.1 0.9 -3.72529e-008
v 0.2 0.9 -3.72529e-008
v 0.1 0.9 -0.1
v 0.2 0.9 -0.1
v 0.2 1 -3.72529e-008
v 0.3 1 -3.72529e-008
v 0.2 1 -0.1
v 0.3 1 -0.1
v 0.3 1.1 -3.72529e-008
v 0.4 1.1 -3.72529e-008
v 0.5 1.1 -3.72529e-008
v 0.7 1.1 -3.72529e-008
v 0.3 1.1 -0.1
v 0.4 1.1 -0.1
v 0.5 1.1 -0.1
v 0.7 1.1 -0.1
v 0.4 1.2 -3.72529e-008
v 0.5 1.2 -3.72529e-008
v 0.4 1.2 -0.1
v 0.5 1.2 -0.1
v 0.2 1.4 -3.72529e-008
v 0.3 1.4 -3.72529e-008
v 0.2 1.4 -0.1
v 0.3 1.4 -0.1
v 0.3 0.6 -3.72529e-008
v 0.4 0.6 -3.72529e-008
v 0.3 0.6 -0.1
v 0.4 0.6 -0.1
v 0.2 0.7 -3.72529e-008
v 0.3 0.7 -3.72529e-008
v 0.2 0.7 -0.1
v 0.3 0.7 -0.1
v -0.9 0.8 -3.72529e-008
v -0.8 0.8 -3.72529e-008
v 0.1 0.8 -3.72529e-008
v 0.2 0.8 -3.72529e-008
v -0.9 0.8 -0.1
v -0.8 0.8 -0.1
v 0.1 0.8 -0.1
v 0.2 0.8 -0.1
v -0.8 0.9 -3.72529e-008
v -0.7 0.9 -3.72529e-008
v -0.8 0.9 -0.1
v -0.7 0.9 -0.1
v -0.7 1 -3.72529e-008
v -0.6 1 -3.72529e-008
v -0.1 1 -3.72529e-008
v 0 1 -3.72529e-008
v -0.7 1 -0.1
v -0.6 1 -0.1
v -0.1 1 -0.1
v 0 1 -0.1
v -0.6 1.1 -3.72529e-008
v -0.5 1.1 -3.72529e-008
v -0.2 1.1 -3.72529e-008
v -0.1 1.1 -3.72529e-008
v 0 1.1 -3.72529e-008
v 0.1 1.1 -3.72529e-008
v -0.6 1.1 -0.1
v -0.5 1.1 -0.1
v -0.2 1.1 -0.1
v -0.1 1.1 -0.1
v 0 1.1 -0.1
v 0.1 1.1 -0.1
v -0.5 1.2 -3.72529e-008
v -0.4 1.2 -3.72529e-008
v -0.3 1.2 -3.72529e-008
v -0.2 1.2 -3.72529e-008
v 0.1 1.2 -3.72529e-008
v 0.2 1.2 -3.72529e-008
v -0.5 1.2 -0.1
v -0.4 1.2 -0.1
v -0.3 1.2 -0.1
v -0.2 1.2 -0.1
v 0.1 1.2 -0.1
v 0.2 1.2 -0.1
v -0.4 1.3 -3.72529e-008
v -0.3 1.3 -3.72529e-008
v 0.2 1.3 -3.72529e-008
v 0.3 1.3 -3.72529e-008
v 0.6 1.3 -3.72529e-008
v 0.7 1.3 -3.72529e-008
v -0.4 1.3 -0.1
v -0.3 1.3 -0.1
v 0.2 1.3 -0.1
v 0.3 1.3 -0.1
v 0.6 1.3 -0.1
v 0.7 1.3 -0.1
v 0.5 1.4 -3.72529e-008
v 0.6 1.4 -3.72529e-008
v 0.5 1.4 -0.1
v 0.6 1.4 -0.1
v 0.4 1.5 -3.72529e-008
v 0.5 1.5 -3.72529e-008
v 0.4 1.5 -0.1
v 0.5 1.5 -0.1
v 0.2 1.6 -3.72529e-008
v 0.4 1.6 -3.72529e-008
v 0.2 1.6 -0.1
v 0.4 1.6 -0.1

# faces
f 3/5/1 2/5/1 1/5/1
f 4/5/1 2/5/1 3/5/1
f 7/5/1 6/5/1 5/5/1
f 8/5/1 6/5/1 7/5/1
f 11/5/1 10/5/1 9/5/1
f 12/5/1 10/5/1 11/5/1
f 15/5/1 14/5/1 13/5/1
f 16/5/1 14/5/1 15/5/1
f 19/5/1 18/5/1 17/5/1
f 20/5/1 18/5/1 19/5/1
f 23/5/1 22/5/1 21/5/1
f 24/5/1 22/5/1 23/5/1
f 27/5/1 26/5/1 25/5/1
f 28/5/1 26/5/1 27/5/1
f 31/5/1 30/5/1 29/5/1
f 32/5/1 30/5/1 31/5/1
f 35/5/1 34/5/1 33/5/1
f 36/5/1 34/5/1 35/5/1
f 39/5/1 38/5/1 37/5/1
f 40/5/1 38/5/1 39/5/1
f 43/5/1 42/5/1 41/5/1
f 44/5/1 42/5/1 43/5/1
f 47/5/1 46/5/1 45/5/1
f 48/5/1 46/5/1 47/5/1
f 51/5/1 50/5/1 49/5/1
f 52/5/1 50/5/1 51/5/1
f 55/5/1 54/5/1 53/5/1
f 56/5/1 54/5/1 55/5/1
f 59/5/1 58/5/1 57/5/1
f 60/5/1 58/5/1 59/5/1
f 63/5/1 62/5/1 61/5/1
f 64/5/1 62/5/1 63/5/1
f 67/5/1 66/5/1 65/5/1
f 68/5/1 66/5/1 67/5/1
f 71/5/1 70/5/1 69/5/1
f 72/5/1 70/5/1 71/5/1
f 75/5/1 74/5/1 73/5/1
f 76/5/1 74/5/1 75/5/1
f 77/5/2 78/5/2 79/5/2
f 79/5/2 78/5/2 80/5/2
f 81/5/2 82/5/2 83/5/2
f 83/5/2 82/5/2 84/5/2
f 85/5/2 86/5/2 87/5/2
f 87/5/2 86/5/2 88/5/2
f 89/5/2 90/5/2 91/5/2
f 91/5/2 90/5/2 92/5/2
f 93/5/2 94/5/2 95/5/2
f 95/5/2 94/5/2 96/5/2
f 97/5/2 98/5/2 99/5/2
f 99/5/2 98/5/2 100/5/2
f 101/5/2 102/5/2 103/5/2
f 103/5/2 102/5/2 104/5/2
f 105/5/2 106/5/2 107/5/2
f 107/5/2 106/5/2 108/5/2
f 109/5/2 110/5/2 111/5/2
f 111/5/2 110/5/2 112/5/2
f 113/5/2 114/5/2 115/5/2
f 115/5/2 114/5/2 116/5/2
f 117/5/2 118/5/2 119/5/2
f 119/5/2 118/5/2 120/5/2
f 121/5/2 122/5/2 123/5/2
f 123/5/2 122/5/2 124/5/2
f 125/5/2 126/5/2 127/5/2
f 127/5/2 126/5/2 128/5/2
f 129/5/2 130/5/2 131/5/2
f 131/5/2 130/5/2 132/5/2
f 133/5/2 134/5/2 135/5/2
f 135/5/2 134/5/2 136/5/2
f 137/5/2 138/5/2 139/5/2
f 139/5/2 138/5/2 140/5/2
f 141/5/2 142/5/2 143/5/2
f 143/5/2 142/5/2 144/5/2
f 145/5/2 146/5/2 147/5/2
f 147/5/2 146/5/2 148/5/2
f 149/5/2 150/5/2 151/5/2
f 151/5/2 150/5/2 152/5/2
f 156/5/3 154/5/3 153/5/3
f 157/5/3 154/5/3 156/5/3
f 160/5/3 156/5/3 155/5/3
f 161/2/3 157/2/3 156/2/3
f 161/5/3 156/5/3 160/5/3
f 162/5/3 158/5/3 157/5/3
f 162/2/3 157/2/3 161/2/3
f 163/5/3 158/5/3 162/5/3
f 166/5/3 160/5/3 159/5/3
f 167/2/3 161/2/3 160/2/3
f 167/2/3 162/2/3 161/2/3
f 167/5/3 160/5/3 166/5/3
f 167/2/3 163/2/3 162/2/3
f 168/5/3 164/5/3 163/5/3
f 168/2/3 163/2/3 167/2/3
f 169/5/3 164/5/3 168/5/3
f 172/5/3 166/5/3 165/5/3
f 173/3/3 167/3/3 166/3/3
f 173/5/3 166/5/3 172/5/3
f 174/2/3 168/2/3 167/2/3
f 174/3/3 167/3/3 173/3/3
f 174/2/3 169/2/3 168/2/3
f 175/2/3 169/2/3 174/2/3
f 176/2/3 169/2/3 175/2/3
f 177/5/3 170/5/3 169/5/3
f 177/2/3 169/2/3 176/2/3
f 178/5/3 170/5/3 177/5/3
f 181/5/3 172/5/3 171/5/3
f 182/2/3 173/2/3 172/2/3
f 182/2/3 174/2/3 173/2/3
f 182/5/3 172/5/3 181/5/3
f 183/3/3 175/3/3 174/3/3
f 183/2/3 174/2/3 182/2/3
f 184/2/3 176/2/3 175/2/3
f 184/3/3 175/3/3 183/3/3
f 185/2/3 176/2/3 184/2/3
f 186/4/3 177/4/3 176/4/3
f 186/2/3 176/2/3 185/2/3
f 187/2/3 178/2/3 177/2/3
f 187/4/3 177/4/3 186/4/3
f 188/5/3 179/5/3 178/5/3
f 188/2/3 178/2/3 187/2/3
f 189/5/3 179/5/3 188/5/3
f 192/5/3 181/5/3 180/5/3
f 193/3/3 182/3/3 181/3/3
f 193/5/3 181/5/3 192/5/3
f 194/2/3 183/2/3 182/2/3
f 194/3/3 182/3/3 193/3/3
f 194/2/3 184/2/3 183/2/3
f 195/2/3 184/2/3 194/2/3
f 196/3/3 185/3/3 184/3/3
f 196/2/3 184/2/3 195/2/3
f 197/2/3 187/2/3 186/2/3
f 197/3/3 185/3/3 196/3/3
f 197/2/3 186/2/3 185/2/3
f 198/4/3 188/4/3 187/4/3
f 198/2/3 187/2/3 197/2/3
f 199/2/3 189/2/3 188/2/3
f 199/4/3 188/4/3 198/4/3
f 200/5/3 190/5/3 189/5/3
f 200/2/3 189/2/3 199/2/3
f 201/5/3 190/5/3 200/5/3
f 203/5/3 192/5/3 191/5/3
f 204/2/3 193/2/3 192/2/3
f 204/2/3 194/2/3 193/2/3
f 204/5/3 192/5/3 203/5/3
f 205/3/3 195/3/3 194/3/3
f 205/2/3 194/2/3 204/2/3
f 206/2/3 196/2/3 195/2/3
f 206/3/3 195/3/3 205/3/3
f 206/2/3 199/2/3 198/2/3
f 206/2/3 197/2/3 196/2/3
f 206/2/3 198/2/3 197/2/3
f 207/2/3 199/2/3 206/2/3
f 208/2/3 199/2/3 207/2/3
f 209/2/3 199/2/3 208/2/3
f 210/2/3 199/2/3 209/2/3
f 211/5/3 200/5/3 199/5/3
f 211/2/3 199/2/3 210/2/3
f 212/5/3 200/5/3 211/5/3
f 213/5/3 203/5/3 202/5/3
f 214/2/3 205/2/3 204/2/3
f 214/5/3 203/5/3 213/5/3
f 214/2/3 204/2/3 203/2/3
f 214/2/3 206/2/3 205/2/3
f 215/2/3 206/2/3 214/2/3
f 216/3/3 207/3/3 206/3/3
f 216/2/3 206/2/3 215/2/3
f 217/2/3 208/2/3 207/2/3
f 217/3/3 207/3/3 216/3/3
f 218/5/3 209/5/3 208/5/3
f 219/2/3 210/2/3 209/2/3
f 219/5/3 209/5/3 218/5/3
f 220/5/3 211/5/3 210/5/3
f 220/2/3 210/2/3 219/2/3
f 221/5/3 211/5/3 220/5/3
f 222/5/3 215/5/3 214/5/3
f 223/2/3 216/2/3 215/2/3
f 223/5/3 215/5/3 222/5/3
f 223/2/3 217/2/3 216/2/3
f 224/2/3 217/2/3 223/2/3
f 225/5/3 218/5/3 208/5/3
f 225/2/3 217/2/3 224/2/3
f 225/2/3 208/2/3 217/2/3
f 226/1/3 219/1/3 218/1/3
f 226/5/3 218/5/3 225/5/3
f 227/5/3 220/5/3 219/5/3
f 227/1/3 219/1/3 226/1/3
f 228/5/3 220/5/3 227/5/3
f 230/5/3 224/5/3 223/5/3
f 231/2/3 225/2/3 224/2/3
f 231/5/3 224/5/3 230/5/3
f 231/2/3 226/2/3 225/2/3
f 232/2/3 226/2/3 231/2/3
f 233/2/3 226/2/3 232/2/3
f 234/5/3 227/5/3 226/5/3
f 234/2/3 226/2/3 233/2/3
f 235/1/3 228/1/3 227/1/3
f 235/5/3 227/5/3 234/5/3
f 236/5/3 229/5/3 228/5/3
f 236/1/3 228/1/3 235/1/3
f 237/5/3 229/5/3 236/5/3
f 239/5/3 232/5/3 231/5/3
f 240/2/3 233/2/3 232/2/3
f 240/5/3 232/5/3 239/5/3
f 241/2/3 233/2/3 240/2/3
f 242/2/3 233/2/3 241/2/3
f 243/5/3 234/5/3 233/5/3
f 243/2/3 233/2/3 242/2/3
f 244/5/3 234/5/3 243/5/3
f 245/5/3 236/5/3 235/5/3
f 246/1/3 237/1/3 236/1/3
f 246/5/3 236/5/3 245/5/3
f 247/5/3 238/5/3 237/5/3
f 247/1/3 237/1/3 246/1/3
f 248/5/3 238/5/3 247/5/3
f 252/5/3 241/5/3 240/5/3
f 253/2/3 242/2/3 241/2/3
f 253/5/3 241/5/3 252/5/3
f 254/5/3 243/5/3 242/5/3
f 254/2/3 242/2/3 253/2/3
f 255/5/3 243/5/3 254/5/3
f 256/5/3 247/5/3 246/5/3
f 257/1/3 248/1/3 247/1/3
f 257/5/3 247/5/3 256/5/3
f 258/5/3 249/5/3 248/5/3
f 258/1/3 248/1/3 257/1/3
f 259/5/3 249/5/3 258/5/3
f 260/5/3 251/5/3 250/5/3
f 261/5/3 251/5/3 260/5/3
f 262/5/3 254/5/3 253/5/3
f 263/5/3 254/5/3 262/5/3
f 264/5/3 258/5/3 257/5/3
f 265/1/3 259/1/3 258/1/3
f 265/5/3 258/5/3 264/5/3
f 266/5/3 260/5/3 259/5/3
f 266/1/3 259/1/3 265/1/3
f 267/1/3 261/1/3 260/1/3
f 267/5/3 260/5/3 266/5/3
f 268/5/3 251/5/3 261/5/3
f 268/1/3 261/1/3 267/1/3
f 269/5/3 251/5/3 268/5/3
f 271/5/3 266/5/3 265/5/3
f 272/1/3 267/1/3 266/1/3
f 272/5/3 266/5/3 271/5/3
f 273/5/3 268/5/3 267/5/3
f 273/1/3 267/1/3 272/1/3
f 274/5/3 268/5/3 273/5/3
f 275/5/3 271/5/3 270/5/3
f 275/1/3 272/1/3 271/1/3
f 276/5/3 273/5/3 272/5/3
f 276/1/3 272/1/3 275/1/3
f 277/5/3 273/5/3 276/5/3
f 278/5/3 275/5/3 270/5/3
f 278/5/3 276/5/3 275/5/3
f 279/5/3 276/5/3 278/5/3
f 280/5/4 281/5/4 283/5/4
f 283/5/4 281/5/4 284/5/4
f 282/5/4 283/5/4 287/5/4
f 283/2/4 284/2/4 288/2/4
f 287/5/4 283/5/4 288/5/4
f 284/5/4 285/5/4 289/5/4
f 288/2/4 284/2/4 289/2/4
f 289/5/4 285/5/4 290/5/4
f 286/5/4 287/5/4 293/5/4
f 287/2/4 288/2/4 294/2/4
f 288/2/4 289/2/4 294/2/4
f 293/5/4 287/5/4 294/5/4
f 289/2/4 290/2/4 294/2/4
f 290/5/4 291/5/4 295/5/4
f 294/2/4 290/2/4 295/2/4
f 295/5/4 291/5/4 296/5/4
f 292/5/4 293/5/4 299/5/4
f 293/3/4 294/3/4 300/3/4
f 299/5/4 293/5/4 300/5/4
f 294/2/4 295/2/4 301/2/4
f 300/3/4 294/3/4 301/3/4
f 295/2/4 296/2/4 301/2/4
f 301/2/4 296/2/4 302/2/4
f 302/2/4 296/2/4 303/2/4
f 296/5/4 297/5/4 304/5/4
f 303/2/4 296/2/4 304/2/4
f 304/5/4 297/5/4 305/5/4
f 298/5/4 299/5/4 308/5/4
f 299/2/4 300/2/4 309/2/4
f 300/2/4 301/2/4 309/2/4
f 308/5/4 299/5/4 309/5/4
f 301/3/4 302/3/4 310/3/4
f 309/2/4 301/2/4 310/2/4
f 302/2/4 303/2/4 311/2/4
f 310/3/4 302/3/4 311/3/4
f 311/2/4 303/2/4 312/2/4
f 303/4/4 304/4/4 313/4/4
f 312/2/4 303/2/4 313/2/4
f 304/2/4 305/2/4 314/2/4
f 313/4/4 304/4/4 314/4/4
f 305/5/4 306/5/4 315/5/4
f 314/2/4 305/2/4 315/2/4
f 315/5/4 306/5/4 316/5/4
f 307/5/4 308/5/4 319/5/4
f 308/3/4 309/3/4 320/3/4
f 319/5/4 308/5/4 320/5/4
f 309/2/4 310/2/4 321/2/4
f 320/3/4 309/3/4 321/3/4
f 310/2/4 311/2/4 321/2/4
f 321/2/4 311/2/4 322/2/4
f 311/3/4 312/3/4 323/3/4
f 322/2/4 311/2/4 323/2/4
f 313/2/4 314/2/4 324/2/4
f 323/3/4 312/3/4 324/3/4
f 312/2/4 313/2/4 324/2/4
f 314/4/4 315/4/4 325/4/4
f 324/2/4 314/2/4 325/2/4
f 315/2/4 316/2/4 326/2/4
f 325/4/4 315/4/4 326/4/4
f 316/5/4 317/5/4 327/5/4
f 326/2/4 316/2/4 327/2/4
f 327/5/4 317/5/4 328/5/4
f 318/5/4 319/5/4 330/5/4
f 319/2/4 320/2/4 331/2/4
f 320/2/4 321/2/4 331/2/4
f 330/5/4 319/5/4 331/5/4
f 321/3/4 322/3/4 332/3/4
f 331/2/4 321/2/4 332/2/4
f 322/2/4 323/2/4 333/2/4
f 332/3/4 322/3/4 333/3/4
f 325/2/4 326/2/4 333/2/4
f 323/2/4 324/2/4 333/2/4
f 324/2/4 325/2/4 333/2/4
f 333/2/4 326/2/4 334/2/4
f 334/2/4 326/2/4 335/2/4
f 335/2/4 326/2/4 336/2/4
f 336/2/4 326/2/4 337/2/4
f 326/5/4 327/5/4 338/5/4
f 337/2/4 326/2/4 338/2/4
f 338/5/4 327/5/4 339/5/4
f 329/5/4 330/5/4 340/5/4
f 331/2/4 332/2/4 341/2/4
f 340/5/4 330/5/4 341/5/4
f 330/2/4 331/2/4 341/2/4
f 332/2/4 333/2/4 341/2/4
f 341/2/4 333/2/4 342/2/4
f 333/3/4 334/3/4 343/3/4
f 342/2/4 333/2/4 343/2/4
f 334/2/4 335/2/4 344/2/4
f 343/3/4 334/3/4 344/3/4
f 335/5/4 336/5/4 345/5/4
f 336/2/4 337/2/4 346/2/4
f 345/5/4 336/5/4 346/5/4
f 337/5/4 338/5/4 347/5/4
f 346/2/4 337/2/4 347/2/4
f 347/5/4 338/5/4 348/5/4
f 341/5/4 342/5/4 349/5/4
f 342/2/4 343/2/4 350/2/4
f 349/5/4 342/5/4 350/5/4
f 343/2/4 344/2/4 350/2/4
f 350/2/4 344/2/4 351/2/4
f 335/5/4 345/5/4 352/5/4
f 351/2/4 344/2/4 352/2/4
f 344/2/4 335/2/4 352/2/4
f 345/1/4 346/1/4 353/1/4
f 352/5/4 345/5/4 353/5/4
f 346/5/4 347/5/4 354/5/4
f 353/1/4 346/1/4 354/1/4
f 354/5/4 347/5/4 355/5/4
f 350/5/4 351/5/4 357/5/4
f 351/2/4 352/2/4 358/2/4
f 357/5/4 351/5/4 358/5/4
f 352/2/4 353/2/4 358/2/4
f 358/2/4 353/2/4 359/2/4
f 359/2/4 353/2/4 360/2/4
f 353/5/4 354/5/4 361/5/4
f 360/2/4 353/2/4 361/2/4
f 354/1/4 355/1/4 362/1/4
f 361/5/4 354/5/4 362/5/4
f 355/5/4 356/5/4 363/5/4
f 362/1/4 355/1/4 363/1/4
f 363/5/4 356/5/4 364/5/4
f 358/5/4 359/5/4 366/5/4
f 359/2/4 360/2/4 367/2/4
f 366/5/4 359/5/4 367/5/4
f 367/2/4 360/2/4 368/2/4
f 368/2/4 360/2/4 369/2/4
f 360/5/4 361/5/4 370/5/4
f 369/2/4 360/2/4 370/2/4
f 370/5/4 361/5/4 371/5/4
f 362/5/4 363/5/4 372/5/4
f 363/1/4 364/1/4 373/1/4
f 372/5/4 363/5/4 373/5/4
f 364/5/4 365/5/4 374/5/4
f 373/1/4 364/1/4 374/1/4
f 374/5/4 365/5/4 375/5/4
f 367/5/4 368/5/4 379/5/4
f 368/2/4 369/2/4 380/2/4
f 379/5/4 368/5/4 380/5/4
f 369/5/4 370/5/4 381/5/4
f 380/2/4 369/2/4 381/2/4
f 381/5/4 370/5/4 382/5/4
f 373/5/4 374/5/4 383/5/4
f 374/1/4 375/1/4 384/1/4
f 383/5/4 374/5/4 384/5/4
f 375/5/4 376/5/4 385/5/4
f 384/1/4 375/1/4 385/1/4
f 385/5/4 376/5/4 386/5/4
f 377/5/4 378/5/4 387/5/4
f 387/5/4 378/5/4 388/5/4
f 380/5/4 381/5/4 389/5/4
f 389/5/4 381/5/4 390/5/4
f 384/5/4 385/5/4 391/5/4
f 385/1/4 386/1/4 392/1/4
f 391/5/4 385/5/4 392/5/4
f 386/5/4 387/5/4 393/5/4
f 392/1/4 386/1/4 393/1/4
f 387/1/4 388/1/4 394/1/4
f 393/5/4 387/5/4 394/5/4
f 388/5/4 378/5/4 395/5/4
f 394/1/4 388/1/4 395/1/4
f 395/5/4 378/5/4 396/5/4
f 392/5/4 393/5/4 398/5/4
f 393/1/4 394/1/4 399/1/4
f 398/5/4 393/5/4 399/5/4
f 394/5/4 395/5/4 400/5/4
f 399/1/4 394/1/4 400/1/4
f 400/5/4 395/5/4 401/5/4
f 397/5/4 398/5/4 402/5/4
f 398/1/4 399/1/4 402/1/4
f 399/5/4 400/5/4 403/5/4
f 402/1/4 399/1/4 403/1/4
f 403/5/4 400/5/4 404/5/4
f 397/5/4 402/5/4 405/5/4
f 402/5/4 403/5/4 405/5/4
f 405/5/4 403/5/4 406/5/4
f 409/5/5 408/5/5 407/5/5
f 410/5/5 408/5/5 409/5/5
f 415/5/5 412/5/5 411/5/5
f 416/5/5 412/5/5 415/5/5
f 417/5/5 414/5/5 413/5/5
f 418/5/5 414/5/5 417/5/5
f 423/5/5 420/5/5 419/5/5
f 424/5/5 420/5/5 423/5/5
f 425/5/5 422/5/5 421/5/5
f 426/5/5 422/5/5 425/5/5
f 431/5/5 428/5/5 427/5/5
f 432/5/5 428/5/5 431/5/5
f 433/5/5 430/5/5 429/5/5
f 434/5/5 430/5/5 433/5/5
f 439/5/5 436/5/5 435/5/5
f 440/5/5 436/5/5 439/5/5
f 441/5/5 438/5/5 437/5/5
f 442/5/5 438/5/5 441/5/5
f 447/5/5 444/5/5 443/5/5
f 448/5/5 444/5/5 447/5/5
f 449/5/5 446/5/5 445/5/5
f 450/5/5 446/5/5 449/5/5
f 453/5/5 452/5/5 451/5/5
f 454/5/5 452/5/5 453/5/5
f 457/5/5 456/5/5 455/5/5
f 458/5/5 456/5/5 457/5/5
f 461/5/5 460/5/5 459/5/5
f 462/5/5 460/5/5 461/5/5
f 465/5/5 464/5/5 463/5/5
f 466/5/5 464/5/5 465/5/5
f 471/5/5 468/5/5 467/5/5
f 472/5/5 468/5/5 471/5/5
f 473/5/5 470/5/5 469/5/5
f 474/5/5 470/5/5 473/5/5
f 477/5/5 476/5/5 475/5/5
f 478/5/5 476/5/5 477/5/5
f 481/5/5 480/5/5 479/5/5
f 482/5/5 480/5/5 481/5/5
f 483/5/6 484/5/6 485/5/6
f 485/5/6 484/5/6 486/5/6
f 487/5/6 488/5/6 489/5/6
f 489/5/6 488/5/6 490/5/6
f 491/5/6 492/5/6 495/5/6
f 495/5/6 492/5/6 496/5/6
f 493/5/6 494/5/6 497/5/6
f 497/5/6 494/5/6 498/5/6
f 499/5/6 500/5/6 501/5/6
f 501/5/6 500/5/6 502/5/6
f 503/5/6 504/5/6 507/5/6
f 507/5/6 504/5/6 508/5/6
f 505/5/6 506/5/6 509/5/6
f 509/5/6 506/5/6 510/5/6
f 511/5/6 512/5/6 517/5/6
f 517/5/6 512/5/6 518/5/6
f 513/5/6 514/5/6 519/5/6
f 519/5/6 514/5/6 520/5/6
f 515/5/6 516/5/6 521/5/6
f 521/5/6 516/5/6 522/5/6
f 523/5/6 524/5/6 529/5/6
f 529/5/6 524/5/6 530/5/6
f 525/5/6 526/5/6 531/5/6
f 531/5/6 526/5/6 532/5/6
f 527/5/6 528/5/6 533/5/6
f 533/5/6 528/5/6 534/5/6
f 535/5/6 536/5/6 541/5/6
f 541/5/6 536/5/6 542/5/6
f 537/5/6 538/5/6 543/5/6
f 543/5/6 538/5/6 544/5/6
f 539/5/6 540/5/6 545/5/6
f 545/5/6 540/5/6 546/5/6
f 547/5/6 548/5/6 549/5/6
f 549/5/6 548/5/6 550/5/6
f 551/5/6 552/5/6 553/5/6
f 553/5/6 552/5/6 554/5/6
f 555/5/6 556/5/6 557/5/6
f 557/5/6 556/5/6 558/5/6
