# MagicaVoxel @ Ephtracy

# group
o 

# material
mtllib boy walk 1.mtl
usemtl palette

# normals
vn -1 0 0
vn 1 0 0
vn 0 0 1
vn 0 0 -1
vn 0 -1 0
vn 0 1 0

# texcoords
vt 0.0292969 0.5
vt 0.0605469 0.5
vt 0.369141 0.5
vt 0.373047 0.5
vt 0.462891 0.5
vt 0.509766 0.5
vt 0.681641 0.5
vt 0.689453 0.5
vt 0.841797 0.5
vt 0.857422 0.5
vt 0.994141 0.5

# verts
v -0.8 0.7 -0.1
v -0.8 0.7 -0.2
v -0.8 0.9 -0.1
v -0.8 0.9 -0.2
v -0.8 1.5 -0.1
v -0.8 1.5 -0.2
v -0.8 1.7 -0.1
v -0.8 1.7 -0.2
v -0.7 0.6 -0.1
v -0.7 0.6 -0.2
v -0.7 0.7 -0.1
v -0.7 0.7 -0.2
v -0.7 0.9 -0.1
v -0.7 0.9 -0.2
v -0.7 1 -0.1
v -0.7 1 -0.2
v -0.6 0.1 -0.1
v -0.6 0.1 -0.2
v -0.6 0.3 -0.1
v -0.6 0.3 -0.2
v -0.5 0 -0.1
v -0.5 0 -0.2
v -0.5 0.1 -0.1
v -0.5 0.1 -0.2
v -0.5 0.3 -0.1
v -0.5 0.3 -0.2
v -0.5 0.4 -0.1
v -0.5 0.4 -0.2
v -0.5 0.6 -0.1
v -0.5 0.6 -0.2
v -0.5 1 -0.1
v -0.5 1 -0.2
v -0.5 1.5 -0.1
v -0.5 1.5 -0.2
v -0.5 1.7 -0.1
v -0.5 1.7 -0.2
v -0.5 2 -0.1
v -0.5 2 -0.2
v -0.3 2 -0.1
v -0.3 2 -0.2
v -0.3 2.1 -0.1
v -0.3 2.1 -0.2
v 0.1 0 -0.1
v 0.1 0 -0.2
v 0.1 0.1 -0.1
v 0.1 0.1 -0.2
v -0.1 0 -0.1
v -0.1 0 -0.2
v -0.1 0.1 -0.1
v -0.1 0.1 -0.2
v 0.3 2 -0.1
v 0.3 2 -0.2
v 0.3 2.1 -0.1
v 0.3 2.1 -0.2
v 0.5 0 -0.1
v 0.5 0 -0.2
v 0.5 0.1 -0.1
v 0.5 0.1 -0.2
v 0.5 0.3 -0.1
v 0.5 0.3 -0.2
v 0.5 0.4 -0.1
v 0.5 0.4 -0.2
v 0.5 0.6 -0.1
v 0.5 0.6 -0.2
v 0.5 1 -0.1
v 0.5 1 -0.2
v 0.5 1.7 -0.1
v 0.5 1.7 -0.2
v 0.5 2 -0.1
v 0.5 2 -0.2
v 0.6 0.1 -0.1
v 0.6 0.1 -0.2
v 0.6 0.3 -0.1
v 0.6 0.3 -0.2
v 0.7 0.6 -0.1
v 0.7 0.6 -0.2
v 0.7 0.7 -0.1
v 0.7 0.7 -0.2
v 0.7 0.9 -0.1
v 0.7 0.9 -0.2
v 0.7 1 -0.1
v 0.7 1 -0.2
v 0.8 0.7 -0.1
v 0.8 0.7 -0.2
v 0.8 0.9 -0.1
v 0.8 0.9 -0.2
v -0.8 0.7 -0.1
v -0.8 0.9 -0.1
v -0.8 1.5 -0.1
v -0.8 1.7 -0.1
v -0.7 0.6 -0.1
v -0.7 0.7 -0.1
v -0.7 0.8 -0.1
v -0.7 0.9 -0.1
v -0.7 1 -0.1
v -0.6 0.1 -0.1
v -0.6 0.3 -0.1
v -0.5 0 -0.1
v -0.5 0.1 -0.1
v -0.5 0.2 -0.1
v -0.5 0.3 -0.1
v -0.5 0.4 -0.1
v -0.5 0.6 -0.1
v -0.5 0.7 -0.1
v -0.5 0.8 -0.1
v -0.5 0.9 -0.1
v -0.5 1 -0.1
v -0.5 1.5 -0.1
v -0.5 1.7 -0.1
v -0.5 2 -0.1
v -0.4 0.4 -0.1
v -0.4 0.7 -0.1
v -0.4 0.8 -0.1
v -0.4 1 -0.1
v -0.4 1.7 -0.1
v -0.3 0.9 -0.1
v -0.3 1 -0.1
v -0.3 1.4 -0.1
v -0.3 1.5 -0.1
v -0.3 2 -0.1
v -0.3 2.1 -0.1
v -0.2 1 -0.1
v -0.2 1.1 -0.1
v -0.2 1.3 -0.1
v -0.2 1.4 -0.1
v -0.1 0 -0.1
v -0.1 0.1 -0.1
v -0.1 0.2 -0.1
v -0.1 0.3 -0.1
v -0.1 0.4 -0.1
v -0.1 0.8 -0.1
v -0.1 1 -0.1
v -0.1 1.1 -0.1
v -0.1 1.2 -0.1
v -0.1 1.3 -0.1
v -0.1 1.4 -0.1
v 5.96046e-008 0.4 -0.1
v 5.96046e-008 0.6 -0.1
v 5.96046e-008 0.7 -0.1
v 5.96046e-008 0.8 -0.1
v 0.1 0 -0.1
v 0.1 0.1 -0.1
v 0.1 0.2 -0.1
v 0.1 0.3 -0.1
v 0.1 0.4 -0.1
v 0.1 0.6 -0.1
v 0.1 0.7 -0.1
v 0.1 1 -0.1
v 0.1 1.1 -0.1
v 0.1 1.2 -0.1
v 0.1 1.3 -0.1
v 0.1 1.4 -0.1
v 0.1 1.5 -0.1
v 0.1 1.7 -0.1
v 0.1 1.8 -0.1
v 0.2 1.3 -0.1
v 0.2 1.4 -0.1
v 0.3 0.9 -0.1
v 0.3 1 -0.1
v 0.3 1.4 -0.1
v 0.3 1.5 -0.1
v 0.3 1.7 -0.1
v 0.3 1.8 -0.1
v 0.3 2 -0.1
v 0.3 2.1 -0.1
v 0.4 0.4 -0.1
v 0.4 0.7 -0.1
v 0.4 0.8 -0.1
v 0.4 1 -0.1
v 0.4 1.7 -0.1
v 0.5 0 -0.1
v 0.5 0.1 -0.1
v 0.5 0.2 -0.1
v 0.5 0.3 -0.1
v 0.5 0.4 -0.1
v 0.5 0.6 -0.1
v 0.5 0.7 -0.1
v 0.5 0.8 -0.1
v 0.5 0.9 -0.1
v 0.5 1 -0.1
v 0.5 1.7 -0.1
v 0.5 2 -0.1
v 0.6 0.1 -0.1
v 0.6 0.3 -0.1
v 0.7 0.6 -0.1
v 0.7 0.7 -0.1
v 0.7 0.8 -0.1
v 0.7 0.9 -0.1
v 0.7 1 -0.1
v 0.8 0.7 -0.1
v 0.8 0.9 -0.1
v -0.8 0.7 -0.2
v -0.8 0.9 -0.2
v -0.8 1.5 -0.2
v -0.8 1.7 -0.2
v -0.7 0.6 -0.2
v -0.7 0.7 -0.2
v -0.7 0.8 -0.2
v -0.7 0.9 -0.2
v -0.7 1 -0.2
v -0.6 0.1 -0.2
v -0.6 0.3 -0.2
v -0.5 0 -0.2
v -0.5 0.1 -0.2
v -0.5 0.2 -0.2
v -0.5 0.3 -0.2
v -0.5 0.4 -0.2
v -0.5 0.6 -0.2
v -0.5 0.7 -0.2
v -0.5 0.8 -0.2
v -0.5 0.9 -0.2
v -0.5 1 -0.2
v -0.5 1.5 -0.2
v -0.5 1.7 -0.2
v -0.5 2 -0.2
v -0.4 0.4 -0.2
v -0.4 0.7 -0.2
v -0.4 0.8 -0.2
v -0.4 1 -0.2
v -0.4 1.7 -0.2
v -0.3 0.9 -0.2
v -0.3 1 -0.2
v -0.3 1.4 -0.2
v -0.3 1.5 -0.2
v -0.3 2 -0.2
v -0.3 2.1 -0.2
v -0.2 1 -0.2
v -0.2 1.1 -0.2
v -0.2 1.3 -0.2
v -0.2 1.4 -0.2
v -0.1 0 -0.2
v -0.1 0.1 -0.2
v -0.1 0.2 -0.2
v -0.1 0.3 -0.2
v -0.1 0.4 -0.2
v -0.1 0.8 -0.2
v -0.1 1 -0.2
v -0.1 1.1 -0.2
v -0.1 1.2 -0.2
v -0.1 1.3 -0.2
v -0.1 1.4 -0.2
v 5.96046e-008 0.4 -0.2
v 5.96046e-008 0.6 -0.2
v 5.96046e-008 0.7 -0.2
v 5.96046e-008 0.8 -0.2
v 0.1 0 -0.2
v 0.1 0.1 -0.2
v 0.1 0.2 -0.2
v 0.1 0.3 -0.2
v 0.1 0.4 -0.2
v 0.1 0.6 -0.2
v 0.1 0.7 -0.2
v 0.1 1 -0.2
v 0.1 1.1 -0.2
v 0.1 1.2 -0.2
v 0.1 1.3 -0.2
v 0.1 1.4 -0.2
v 0.1 1.5 -0.2
v 0.1 1.7 -0.2
v 0.1 1.8 -0.2
v 0.2 1.3 -0.2
v 0.2 1.4 -0.2
v 0.3 0.9 -0.2
v 0.3 1 -0.2
v 0.3 1.4 -0.2
v 0.3 1.5 -0.2
v 0.3 1.7 -0.2
v 0.3 1.8 -0.2
v 0.3 2 -0.2
v 0.3 2.1 -0.2
v 0.4 0.4 -0.2
v 0.4 0.7 -0.2
v 0.4 0.8 -0.2
v 0.4 1 -0.2
v 0.4 1.7 -0.2
v 0.5 0 -0.2
v 0.5 0.1 -0.2
v 0.5 0.2 -0.2
v 0.5 0.3 -0.2
v 0.5 0.4 -0.2
v 0.5 0.6 -0.2
v 0.5 0.7 -0.2
v 0.5 0.8 -0.2
v 0.5 0.9 -0.2
v 0.5 1 -0.2
v 0.5 1.7 -0.2
v 0.5 2 -0.2
v 0.6 0.1 -0.2
v 0.6 0.3 -0.2
v 0.7 0.6 -0.2
v 0.7 0.7 -0.2
v 0.7 0.8 -0.2
v 0.7 0.9 -0.2
v 0.7 1 -0.2
v 0.8 0.7 -0.2
v 0.8 0.9 -0.2
v -0.5 0 -0.1
v -0.1 0 -0.1
v 0.1 0 -0.1
v 0.5 0 -0.1
v -0.5 0 -0.2
v -0.1 0 -0.2
v 0.1 0 -0.2
v 0.5 0 -0.2
v -0.6 0.1 -0.1
v -0.5 0.1 -0.1
v -0.1 0.1 -0.1
v 0.1 0.1 -0.1
v 0.5 0.1 -0.1
v 0.6 0.1 -0.1
v -0.6 0.1 -0.2
v -0.5 0.1 -0.2
v -0.1 0.1 -0.2
v 0.1 0.1 -0.2
v 0.5 0.1 -0.2
v 0.6 0.1 -0.2
v -0.7 0.6 -0.1
v -0.5 0.6 -0.1
v 0.5 0.6 -0.1
v 0.7 0.6 -0.1
v -0.7 0.6 -0.2
v -0.5 0.6 -0.2
v 0.5 0.6 -0.2
v 0.7 0.6 -0.2
v -0.8 0.7 -0.1
v -0.7 0.7 -0.1
v 0.7 0.7 -0.1
v 0.8 0.7 -0.1
v -0.8 0.7 -0.2
v -0.7 0.7 -0.2
v 0.7 0.7 -0.2
v 0.8 0.7 -0.2
v -0.8 1.5 -0.1
v -0.5 1.5 -0.1
v -0.8 1.5 -0.2
v -0.5 1.5 -0.2
v -0.6 0.3 -0.1
v -0.5 0.3 -0.1
v 0.5 0.3 -0.1
v 0.6 0.3 -0.1
v -0.6 0.3 -0.2
v -0.5 0.3 -0.2
v 0.5 0.3 -0.2
v 0.6 0.3 -0.2
v -0.8 0.9 -0.1
v -0.7 0.9 -0.1
v 0.7 0.9 -0.1
v 0.8 0.9 -0.1
v -0.8 0.9 -0.2
v -0.7 0.9 -0.2
v 0.7 0.9 -0.2
v 0.8 0.9 -0.2
v -0.7 1 -0.1
v -0.5 1 -0.1
v 0.5 1 -0.1
v 0.7 1 -0.1
v -0.7 1 -0.2
v -0.5 1 -0.2
v 0.5 1 -0.2
v 0.7 1 -0.2
v -0.8 1.7 -0.1
v -0.5 1.7 -0.1
v -0.8 1.7 -0.2
v -0.5 1.7 -0.2
v -0.5 2 -0.1
v -0.3 2 -0.1
v 0.3 2 -0.1
v 0.5 2 -0.1
v -0.5 2 -0.2
v -0.3 2 -0.2
v 0.3 2 -0.2
v 0.5 2 -0.2
v -0.3 2.1 -0.1
v 0.3 2.1 -0.1
v -0.3 2.1 -0.2
v 0.3 2.1 -0.2

# faces
f 3/3/1 2/3/1 1/3/1
f 4/3/1 2/3/1 3/3/1
f 7/9/1 6/9/1 5/9/1
f 8/9/1 6/9/1 7/9/1
f 11/3/1 10/3/1 9/3/1
f 12/3/1 10/3/1 11/3/1
f 15/3/1 14/3/1 13/3/1
f 16/3/1 14/3/1 15/3/1
f 19/11/1 18/11/1 17/11/1
f 20/11/1 18/11/1 19/11/1
f 23/11/1 22/11/1 21/11/1
f 24/11/1 22/11/1 23/11/1
f 27/11/1 26/11/1 25/11/1
f 28/11/1 26/11/1 27/11/1
f 29/6/1 28/6/1 27/6/1
f 30/6/1 28/6/1 29/6/1
f 33/4/1 32/4/1 31/4/1
f 34/4/1 32/4/1 33/4/1
f 37/9/1 36/9/1 35/9/1
f 38/9/1 36/9/1 37/9/1
f 41/9/1 40/9/1 39/9/1
f 42/9/1 40/9/1 41/9/1
f 45/11/1 44/11/1 43/11/1
f 46/11/1 44/11/1 45/11/1
f 47/11/2 48/11/2 49/11/2
f 49/11/2 48/11/2 50/11/2
f 51/9/2 52/9/2 53/9/2
f 53/9/2 52/9/2 54/9/2
f 55/11/2 56/11/2 57/11/2
f 57/11/2 56/11/2 58/11/2
f 59/11/2 60/11/2 61/11/2
f 61/11/2 60/11/2 62/11/2
f 61/6/2 62/6/2 63/6/2
f 63/6/2 62/6/2 64/6/2
f 65/4/2 66/4/2 67/4/2
f 67/4/2 66/4/2 68/4/2
f 67/9/2 68/9/2 69/9/2
f 69/9/2 68/9/2 70/9/2
f 71/11/2 72/11/2 73/11/2
f 73/11/2 72/11/2 74/11/2
f 75/3/2 76/3/2 77/3/2
f 77/3/2 76/3/2 78/3/2
f 79/3/2 80/3/2 81/3/2
f 81/3/2 80/3/2 82/3/2
f 83/3/2 84/3/2 85/3/2
f 85/3/2 84/3/2 86/3/2
f 92/3/3 88/3/3 87/3/3
f 93/3/3 88/3/3 92/3/3
f 94/3/3 88/3/3 93/3/3
f 99/11/3 97/11/3 96/11/3
f 100/11/3 97/11/3 99/11/3
f 101/11/3 97/11/3 100/11/3
f 103/3/3 92/3/3 91/3/3
f 104/1/3 93/1/3 92/1/3
f 104/3/3 92/3/3 103/3/3
f 105/2/3 94/2/3 93/2/3
f 105/1/3 93/1/3 104/1/3
f 106/3/3 95/3/3 94/3/3
f 106/2/3 94/2/3 105/2/3
f 107/3/3 95/3/3 106/3/3
f 108/9/3 90/9/3 89/9/3
f 109/9/3 90/9/3 108/9/3
f 111/11/3 102/11/3 101/11/3
f 111/6/3 103/6/3 102/6/3
f 111/6/3 104/6/3 103/6/3
f 112/1/3 105/1/3 104/1/3
f 112/6/3 104/6/3 111/6/3
f 113/11/3 107/11/3 106/11/3
f 113/1/3 105/1/3 112/1/3
f 113/11/3 106/11/3 105/11/3
f 114/4/3 109/4/3 108/4/3
f 114/11/3 107/11/3 113/11/3
f 114/4/3 108/4/3 107/4/3
f 115/9/3 110/9/3 109/9/3
f 115/4/3 109/4/3 114/4/3
f 116/4/3 114/4/3 113/4/3
f 117/2/3 115/2/3 114/2/3
f 117/4/3 114/4/3 116/4/3
f 118/2/3 115/2/3 117/2/3
f 119/2/3 115/2/3 118/2/3
f 120/9/3 110/9/3 115/9/3
f 122/1/3 117/1/3 116/1/3
f 122/2/3 118/2/3 117/2/3
f 123/2/3 118/2/3 122/2/3
f 124/2/3 118/2/3 123/2/3
f 125/11/3 119/11/3 118/11/3
f 125/2/3 118/2/3 124/2/3
f 126/11/3 99/11/3 98/11/3
f 127/8/3 100/8/3 99/8/3
f 127/11/3 99/11/3 126/11/3
f 128/7/3 101/7/3 100/7/3
f 128/8/3 100/8/3 127/8/3
f 129/11/3 111/11/3 101/11/3
f 129/7/3 101/7/3 128/7/3
f 130/5/3 112/5/3 111/5/3
f 130/11/3 111/11/3 129/11/3
f 130/5/3 113/5/3 112/5/3
f 131/4/3 116/4/3 113/4/3
f 131/5/3 113/5/3 130/5/3
f 132/1/3 122/1/3 116/1/3
f 132/1/3 123/1/3 122/1/3
f 133/2/3 124/2/3 123/2/3
f 133/1/3 123/1/3 132/1/3
f 134/2/3 124/2/3 133/2/3
f 135/11/3 125/11/3 124/11/3
f 135/2/3 124/2/3 134/2/3
f 136/11/3 119/11/3 125/11/3
f 136/11/3 125/11/3 135/11/3
f 137/6/3 130/6/3 129/6/3
f 137/6/3 131/6/3 130/6/3
f 138/6/3 131/6/3 137/6/3
f 139/6/3 131/6/3 138/6/3
f 140/4/3 116/4/3 131/4/3
f 140/6/3 131/6/3 139/6/3
f 142/11/3 128/11/3 127/11/3
f 143/8/3 129/8/3 128/8/3
f 143/11/3 128/11/3 142/11/3
f 144/6/3 137/6/3 129/6/3
f 144/8/3 129/8/3 143/8/3
f 145/5/3 138/5/3 137/5/3
f 145/6/3 137/6/3 144/6/3
f 146/6/3 139/6/3 138/6/3
f 146/5/3 138/5/3 145/5/3
f 147/5/3 140/5/3 139/5/3
f 147/6/3 139/6/3 146/6/3
f 148/1/3 132/1/3 116/1/3
f 148/11/3 133/11/3 132/11/3
f 149/1/3 134/1/3 133/1/3
f 149/11/3 133/11/3 148/11/3
f 150/2/3 135/2/3 134/2/3
f 150/1/3 134/1/3 149/1/3
f 150/2/3 136/2/3 135/2/3
f 151/2/3 136/2/3 150/2/3
f 152/11/3 119/11/3 136/11/3
f 152/2/3 136/2/3 151/2/3
f 153/2/3 115/2/3 119/2/3
f 153/11/3 119/11/3 152/11/3
f 154/9/3 121/9/3 120/9/3
f 154/2/3 115/2/3 153/2/3
f 154/9/3 120/9/3 115/9/3
f 155/9/3 121/9/3 154/9/3
f 156/11/3 152/11/3 151/11/3
f 156/1/3 149/1/3 148/1/3
f 156/1/3 151/1/3 150/1/3
f 156/11/3 153/11/3 152/11/3
f 156/1/3 150/1/3 149/1/3
f 157/11/3 153/11/3 156/11/3
f 158/1/3 148/1/3 116/1/3
f 158/4/3 116/4/3 140/4/3
f 158/1/3 157/1/3 156/1/3
f 158/1/3 156/1/3 148/1/3
f 159/1/3 157/1/3 158/1/3
f 160/11/3 153/11/3 157/11/3
f 160/1/3 157/1/3 159/1/3
f 161/1/3 154/1/3 153/1/3
f 161/11/3 153/11/3 160/11/3
f 162/10/3 155/10/3 154/10/3
f 162/1/3 154/1/3 161/1/3
f 163/9/3 121/9/3 155/9/3
f 163/10/3 155/10/3 162/10/3
f 164/9/3 121/9/3 163/9/3
f 165/9/3 121/9/3 164/9/3
f 166/5/3 146/5/3 145/5/3
f 166/11/3 145/11/3 144/11/3
f 166/5/3 147/5/3 146/5/3
f 167/5/3 140/5/3 147/5/3
f 167/5/3 147/5/3 166/5/3
f 168/4/3 159/4/3 158/4/3
f 168/5/3 140/5/3 167/5/3
f 168/4/3 158/4/3 140/4/3
f 169/1/3 162/1/3 161/1/3
f 169/4/3 159/4/3 168/4/3
f 169/1/3 161/1/3 160/1/3
f 169/1/3 160/1/3 159/1/3
f 170/9/3 163/9/3 162/9/3
f 170/1/3 162/1/3 169/1/3
f 170/9/3 164/9/3 163/9/3
f 171/11/3 142/11/3 141/11/3
f 172/8/3 143/8/3 142/8/3
f 172/11/3 142/11/3 171/11/3
f 173/7/3 144/7/3 143/7/3
f 173/8/3 143/8/3 172/8/3
f 174/11/3 166/11/3 144/11/3
f 174/7/3 144/7/3 173/7/3
f 175/6/3 167/6/3 166/6/3
f 175/11/3 166/11/3 174/11/3
f 176/6/3 167/6/3 175/6/3
f 177/1/3 168/1/3 167/1/3
f 177/6/3 167/6/3 176/6/3
f 178/11/3 169/11/3 168/11/3
f 178/1/3 168/1/3 177/1/3
f 179/11/3 169/11/3 178/11/3
f 180/4/3 170/4/3 169/4/3
f 180/11/3 169/11/3 179/11/3
f 181/9/3 164/9/3 170/9/3
f 181/4/3 170/4/3 180/4/3
f 182/9/3 164/9/3 181/9/3
f 183/11/3 174/11/3 173/11/3
f 183/11/3 173/11/3 172/11/3
f 184/11/3 174/11/3 183/11/3
f 185/3/3 177/3/3 176/3/3
f 186/1/3 178/1/3 177/1/3
f 186/3/3 177/3/3 185/3/3
f 187/2/3 179/2/3 178/2/3
f 187/1/3 178/1/3 186/1/3
f 188/3/3 180/3/3 179/3/3
f 188/2/3 179/2/3 187/2/3
f 189/3/3 180/3/3 188/3/3
f 190/3/3 187/3/3 186/3/3
f 190/3/3 188/3/3 187/3/3
f 191/3/3 188/3/3 190/3/3
f 192/3/4 193/3/4 197/3/4
f 197/3/4 193/3/4 198/3/4
f 198/3/4 193/3/4 199/3/4
f 201/11/4 202/11/4 204/11/4
f 204/11/4 202/11/4 205/11/4
f 205/11/4 202/11/4 206/11/4
f 196/3/4 197/3/4 208/3/4
f 197/1/4 198/1/4 209/1/4
f 208/3/4 197/3/4 209/3/4
f 198/2/4 199/2/4 210/2/4
f 209/1/4 198/1/4 210/1/4
f 199/3/4 200/3/4 211/3/4
f 210/2/4 199/2/4 211/2/4
f 211/3/4 200/3/4 212/3/4
f 194/9/4 195/9/4 213/9/4
f 213/9/4 195/9/4 214/9/4
f 206/11/4 207/11/4 216/11/4
f 207/6/4 208/6/4 216/6/4
f 208/6/4 209/6/4 216/6/4
f 209/1/4 210/1/4 217/1/4
f 216/6/4 209/6/4 217/6/4
f 211/11/4 212/11/4 218/11/4
f 217/1/4 210/1/4 218/1/4
f 210/11/4 211/11/4 218/11/4
f 213/4/4 214/4/4 219/4/4
f 218/11/4 212/11/4 219/11/4
f 212/4/4 213/4/4 219/4/4
f 214/9/4 215/9/4 220/9/4
f 219/4/4 214/4/4 220/4/4
f 218/4/4 219/4/4 221/4/4
f 219/2/4 220/2/4 222/2/4
f 221/4/4 219/4/4 222/4/4
f 222/2/4 220/2/4 223/2/4
f 223/2/4 220/2/4 224/2/4
f 220/9/4 215/9/4 225/9/4
f 221/1/4 222/1/4 227/1/4
f 222/2/4 223/2/4 227/2/4
f 227/2/4 223/2/4 228/2/4
f 228/2/4 223/2/4 229/2/4
f 223/11/4 224/11/4 230/11/4
f 229/2/4 223/2/4 230/2/4
f 203/11/4 204/11/4 231/11/4
f 204/8/4 205/8/4 232/8/4
f 231/11/4 204/11/4 232/11/4
f 205/7/4 206/7/4 233/7/4
f 232/8/4 205/8/4 233/8/4
f 206/11/4 216/11/4 234/11/4
f 233/7/4 206/7/4 234/7/4
f 216/5/4 217/5/4 235/5/4
f 234/11/4 216/11/4 235/11/4
f 217/5/4 218/5/4 235/5/4
f 218/4/4 221/4/4 236/4/4
f 235/5/4 218/5/4 236/5/4
f 221/1/4 227/1/4 237/1/4
f 227/1/4 228/1/4 237/1/4
f 228/2/4 229/2/4 238/2/4
f 237/1/4 228/1/4 238/1/4
f 238/2/4 229/2/4 239/2/4
f 229/11/4 230/11/4 240/11/4
f 239/2/4 229/2/4 240/2/4
f 230/11/4 224/11/4 241/11/4
f 240/11/4 230/11/4 241/11/4
f 234/6/4 235/6/4 242/6/4
f 235/6/4 236/6/4 242/6/4
f 242/6/4 236/6/4 243/6/4
f 243/6/4 236/6/4 244/6/4
f 236/4/4 221/4/4 245/4/4
f 244/6/4 236/6/4 245/6/4
f 232/11/4 233/11/4 247/11/4
f 233/8/4 234/8/4 248/8/4
f 247/11/4 233/11/4 248/11/4
f 234/6/4 242/6/4 249/6/4
f 248/8/4 234/8/4 249/8/4
f 242/5/4 243/5/4 250/5/4
f 249/6/4 242/6/4 250/6/4
f 243/6/4 244/6/4 251/6/4
f 250/5/4 243/5/4 251/5/4
f 244/5/4 245/5/4 252/5/4
f 251/6/4 244/6/4 252/6/4
f 221/1/4 237/1/4 253/1/4
f 237/11/4 238/11/4 253/11/4
f 238/1/4 239/1/4 254/1/4
f 253/11/4 238/11/4 254/11/4
f 239/2/4 240/2/4 255/2/4
f 254/1/4 239/1/4 255/1/4
f 240/2/4 241/2/4 255/2/4
f 255/2/4 241/2/4 256/2/4
f 241/11/4 224/11/4 257/11/4
f 256/2/4 241/2/4 257/2/4
f 224/2/4 220/2/4 258/2/4
f 257/11/4 224/11/4 258/11/4
f 225/9/4 226/9/4 259/9/4
f 258/2/4 220/2/4 259/2/4
f 220/9/4 225/9/4 259/9/4
f 259/9/4 226/9/4 260/9/4
f 256/11/4 257/11/4 261/11/4
f 253/1/4 254/1/4 261/1/4
f 255/1/4 256/1/4 261/1/4
f 257/11/4 258/11/4 261/11/4
f 254/1/4 255/1/4 261/1/4
f 261/11/4 258/11/4 262/11/4
f 221/1/4 253/1/4 263/1/4
f 245/4/4 221/4/4 263/4/4
f 261/1/4 262/1/4 263/1/4
f 253/1/4 261/1/4 263/1/4
f 263/1/4 262/1/4 264/1/4
f 262/11/4 258/11/4 265/11/4
f 264/1/4 262/1/4 265/1/4
f 258/1/4 259/1/4 266/1/4
f 265/11/4 258/11/4 266/11/4
f 259/10/4 260/10/4 267/10/4
f 266/1/4 259/1/4 267/1/4
f 260/9/4 226/9/4 268/9/4
f 267/10/4 260/10/4 268/10/4
f 268/9/4 226/9/4 269/9/4
f 269/9/4 226/9/4 270/9/4
f 250/5/4 251/5/4 271/5/4
f 249/11/4 250/11/4 271/11/4
f 251/5/4 252/5/4 271/5/4
f 252/5/4 245/5/4 272/5/4
f 271/5/4 252/5/4 272/5/4
f 263/4/4 264/4/4 273/4/4
f 272/5/4 245/5/4 273/5/4
f 245/4/4 263/4/4 273/4/4
f 266/1/4 267/1/4 274/1/4
f 273/4/4 264/4/4 274/4/4
f 265/1/4 266/1/4 274/1/4
f 264/1/4 265/1/4 274/1/4
f 267/9/4 268/9/4 275/9/4
f 274/1/4 267/1/4 275/1/4
f 268/9/4 269/9/4 275/9/4
f 246/11/4 247/11/4 276/11/4
f 247/8/4 248/8/4 277/8/4
f 276/11/4 247/11/4 277/11/4
f 248/7/4 249/7/4 278/7/4
f 277/8/4 248/8/4 278/8/4
f 249/11/4 271/11/4 279/11/4
f 278/7/4 249/7/4 279/7/4
f 271/6/4 272/6/4 280/6/4
f 279/11/4 271/11/4 280/11/4
f 280/6/4 272/6/4 281/6/4
f 272/1/4 273/1/4 282/1/4
f 281/6/4 272/6/4 282/6/4
f 273/11/4 274/11/4 283/11/4
f 282/1/4 273/1/4 283/1/4
f 283/11/4 274/11/4 284/11/4
f 274/4/4 275/4/4 285/4/4
f 284/11/4 274/11/4 285/11/4
f 275/9/4 269/9/4 286/9/4
f 285/4/4 275/4/4 286/4/4
f 286/9/4 269/9/4 287/9/4
f 278/11/4 279/11/4 288/11/4
f 277/11/4 278/11/4 288/11/4
f 288/11/4 279/11/4 289/11/4
f 281/3/4 282/3/4 290/3/4
f 282/1/4 283/1/4 291/1/4
f 290/3/4 282/3/4 291/3/4
f 283/2/4 284/2/4 292/2/4
f 291/1/4 283/1/4 292/1/4
f 284/3/4 285/3/4 293/3/4
f 292/2/4 284/2/4 293/2/4
f 293/3/4 285/3/4 294/3/4
f 291/3/4 292/3/4 295/3/4
f 292/3/4 293/3/4 295/3/4
f 295/3/4 293/3/4 296/3/4
f 301/11/5 298/11/5 297/11/5
f 302/11/5 298/11/5 301/11/5
f 303/11/5 300/11/5 299/11/5
f 304/11/5 300/11/5 303/11/5
f 311/11/5 306/11/5 305/11/5
f 312/11/5 306/11/5 311/11/5
f 313/11/5 308/11/5 307/11/5
f 314/11/5 308/11/5 313/11/5
f 315/11/5 310/11/5 309/11/5
f 316/11/5 310/11/5 315/11/5
f 321/3/5 318/3/5 317/3/5
f 322/3/5 318/3/5 321/3/5
f 323/3/5 320/3/5 319/3/5
f 324/3/5 320/3/5 323/3/5
f 329/3/5 326/3/5 325/3/5
f 330/3/5 326/3/5 329/3/5
f 331/3/5 328/3/5 327/3/5
f 332/3/5 328/3/5 331/3/5
f 335/9/5 334/9/5 333/9/5
f 336/9/5 334/9/5 335/9/5
f 337/11/6 338/11/6 341/11/6
f 341/11/6 338/11/6 342/11/6
f 339/11/6 340/11/6 343/11/6
f 343/11/6 340/11/6 344/11/6
f 345/3/6 346/3/6 349/3/6
f 349/3/6 346/3/6 350/3/6
f 347/3/6 348/3/6 351/3/6
f 351/3/6 348/3/6 352/3/6
f 353/3/6 354/3/6 357/3/6
f 357/3/6 354/3/6 358/3/6
f 355/3/6 356/3/6 359/3/6
f 359/3/6 356/3/6 360/3/6
f 361/9/6 362/9/6 363/9/6
f 363/9/6 362/9/6 364/9/6
f 365/9/6 366/9/6 369/9/6
f 369/9/6 366/9/6 370/9/6
f 367/9/6 368/9/6 371/9/6
f 371/9/6 368/9/6 372/9/6
f 373/9/6 374/9/6 375/9/6
f 375/9/6 374/9/6 376/9/6
