# MagicaVoxel @ Ephtracy

# group
o 

# material
mtllib Cookie death.mtl
usemtl palette

# normals
vn -1 0 0
vn 1 0 0
vn 0 0 1
vn 0 0 -1
vn 0 -1 0
vn 0 1 0

# texcoords
vt 0.00195313 0.5
vt 0.0917969 0.5
vt 0.396484 0.5
vt 0.701172 0.5
vt 0.927734 0.5

# verts
v -0.8 0 0.0999999
v -0.8 0 -7.45058e-008
v -0.8 0.2 0.0999999
v -0.8 0.2 -7.45058e-008
v -0.7 0.2 0.0999999
v -0.7 0.2 -7.45058e-008
v -0.7 0.3 0.0999999
v -0.7 0.3 -7.45058e-008
v -0.6 0.3 0.0999999
v -0.6 0.3 -7.45058e-008
v -0.6 0.4 0.0999999
v -0.6 0.4 -7.45058e-008
v -0.4 0.4 0.0999999
v -0.4 0.4 -7.45058e-008
v -0.4 0.5 0.0999999
v -0.4 0.5 -7.45058e-008
v 0.1 0 0.0999999
v 0.1 0 -7.45058e-008
v 0.1 0.1 0.0999999
v 0.1 0.1 -7.45058e-008
v -0.1 0 0.0999999
v -0.1 0 -7.45058e-008
v -0.1 0.1 0.0999999
v -0.1 0.1 -7.45058e-008
v 0.4 0.4 0.0999999
v 0.4 0.4 -7.45058e-008
v 0.4 0.5 0.0999999
v 0.4 0.5 -7.45058e-008
v 0.6 0.3 0.0999999
v 0.6 0.3 -7.45058e-008
v 0.6 0.4 0.0999999
v 0.6 0.4 -7.45058e-008
v 0.7 0.2 0.0999999
v 0.7 0.2 -7.45058e-008
v 0.7 0.3 0.0999999
v 0.7 0.3 -7.45058e-008
v 0.8 0 0.0999999
v 0.8 0 -7.45058e-008
v 0.8 0.2 0.0999999
v 0.8 0.2 -7.45058e-008
v -0.8 0 0.0999999
v -0.8 0.2 0.0999999
v -0.7 0 0.0999999
v -0.7 0.1 0.0999999
v -0.7 0.2 0.0999999
v -0.7 0.3 0.0999999
v -0.6 0 0.0999999
v -0.6 0.1 0.0999999
v -0.6 0.2 0.0999999
v -0.6 0.3 0.0999999
v -0.6 0.4 0.0999999
v -0.5 0.1 0.0999999
v -0.5 0.2 0.0999999
v -0.5 0.3 0.0999999
v -0.5 0.4 0.0999999
v -0.4 0.4 0.0999999
v -0.4 0.5 0.0999999
v -0.3 0.1 0.0999999
v -0.3 0.2 0.0999999
v -0.3 0.3 0.0999999
v -0.3 0.4 0.0999999
v -0.3 0.5 0.0999999
v -0.2 0.1 0.0999999
v -0.2 0.2 0.0999999
v -0.2 0.3 0.0999999
v -0.2 0.4 0.0999999
v -0.1 0 0.0999999
v -0.1 0.1 0.0999999
v -0.1 0.3 0.0999999
v -0.1 0.4 0.0999999
v -0.1 0.5 0.0999999
v 0.1 0 0.0999999
v 0.1 0.1 0.0999999
v 0.1 0.3 0.0999999
v 0.1 0.4 0.0999999
v 0.1 0.5 0.0999999
v 0.2 0.1 0.0999999
v 0.2 0.2 0.0999999
v 0.2 0.3 0.0999999
v 0.2 0.4 0.0999999
v 0.3 0.1 0.0999999
v 0.3 0.2 0.0999999
v 0.3 0.3 0.0999999
v 0.3 0.4 0.0999999
v 0.3 0.5 0.0999999
v 0.4 0.4 0.0999999
v 0.4 0.5 0.0999999
v 0.5 0.1 0.0999999
v 0.5 0.2 0.0999999
v 0.5 0.3 0.0999999
v 0.5 0.4 0.0999999
v 0.6 0 0.0999999
v 0.6 0.1 0.0999999
v 0.6 0.2 0.0999999
v 0.6 0.3 0.0999999
v 0.6 0.4 0.0999999
v 0.7 0 0.0999999
v 0.7 0.1 0.0999999
v 0.7 0.2 0.0999999
v 0.7 0.3 0.0999999
v 0.8 0 0.0999999
v 0.8 0.2 0.0999999
v -0.8 0 -7.45058e-008
v -0.8 0.2 -7.45058e-008
v -0.7 0 -7.45058e-008
v -0.7 0.1 -7.45058e-008
v -0.7 0.2 -7.45058e-008
v -0.7 0.3 -7.45058e-008
v -0.6 0 -7.45058e-008
v -0.6 0.1 -7.45058e-008
v -0.6 0.2 -7.45058e-008
v -0.6 0.3 -7.45058e-008
v -0.6 0.4 -7.45058e-008
v -0.5 0.1 -7.45058e-008
v -0.5 0.2 -7.45058e-008
v -0.5 0.3 -7.45058e-008
v -0.5 0.4 -7.45058e-008
v -0.4 0.4 -7.45058e-008
v -0.4 0.5 -7.45058e-008
v -0.3 0.1 -7.45058e-008
v -0.3 0.2 -7.45058e-008
v -0.3 0.3 -7.45058e-008
v -0.3 0.4 -7.45058e-008
v -0.3 0.5 -7.45058e-008
v -0.2 0.1 -7.45058e-008
v -0.2 0.2 -7.45058e-008
v -0.2 0.3 -7.45058e-008
v -0.2 0.4 -7.45058e-008
v -0.1 0 -7.45058e-008
v -0.1 0.1 -7.45058e-008
v -0.1 0.3 -7.45058e-008
v -0.1 0.4 -7.45058e-008
v -0.1 0.5 -7.45058e-008
v 0.1 0 -7.45058e-008
v 0.1 0.1 -7.45058e-008
v 0.1 0.3 -7.45058e-008
v 0.1 0.4 -7.45058e-008
v 0.1 0.5 -7.45058e-008
v 0.2 0.1 -7.45058e-008
v 0.2 0.2 -7.45058e-008
v 0.2 0.3 -7.45058e-008
v 0.2 0.4 -7.45058e-008
v 0.3 0.1 -7.45058e-008
v 0.3 0.2 -7.45058e-008
v 0.3 0.3 -7.45058e-008
v 0.3 0.4 -7.45058e-008
v 0.3 0.5 -7.45058e-008
v 0.4 0.4 -7.45058e-008
v 0.4 0.5 -7.45058e-008
v 0.5 0.1 -7.45058e-008
v 0.5 0.2 -7.45058e-008
v 0.5 0.3 -7.45058e-008
v 0.5 0.4 -7.45058e-008
v 0.6 0 -7.45058e-008
v 0.6 0.1 -7.45058e-008
v 0.6 0.2 -7.45058e-008
v 0.6 0.3 -7.45058e-008
v 0.6 0.4 -7.45058e-008
v 0.7 0 -7.45058e-008
v 0.7 0.1 -7.45058e-008
v 0.7 0.2 -7.45058e-008
v 0.7 0.3 -7.45058e-008
v 0.8 0 -7.45058e-008
v 0.8 0.2 -7.45058e-008
v -0.8 0 0.0999999
v -0.7 0 0.0999999
v -0.6 0 0.0999999
v -0.1 0 0.0999999
v 0.1 0 0.0999999
v 0.6 0 0.0999999
v 0.7 0 0.0999999
v 0.8 0 0.0999999
v -0.8 0 -7.45058e-008
v -0.7 0 -7.45058e-008
v -0.6 0 -7.45058e-008
v -0.1 0 -7.45058e-008
v 0.1 0 -7.45058e-008
v 0.6 0 -7.45058e-008
v 0.7 0 -7.45058e-008
v 0.8 0 -7.45058e-008
v -0.1 0.1 0.0999999
v 0.1 0.1 0.0999999
v -0.1 0.1 -7.45058e-008
v 0.1 0.1 -7.45058e-008
v -0.8 0.2 0.0999999
v -0.7 0.2 0.0999999
v 0.7 0.2 0.0999999
v 0.8 0.2 0.0999999
v -0.8 0.2 -7.45058e-008
v -0.7 0.2 -7.45058e-008
v 0.7 0.2 -7.45058e-008
v 0.8 0.2 -7.45058e-008
v -0.7 0.3 0.0999999
v -0.6 0.3 0.0999999
v 0.6 0.3 0.0999999
v 0.7 0.3 0.0999999
v -0.7 0.3 -7.45058e-008
v -0.6 0.3 -7.45058e-008
v 0.6 0.3 -7.45058e-008
v 0.7 0.3 -7.45058e-008
v -0.6 0.4 0.0999999
v -0.5 0.4 0.0999999
v -0.4 0.4 0.0999999
v 0.4 0.4 0.0999999
v 0.5 0.4 0.0999999
v 0.6 0.4 0.0999999
v -0.6 0.4 -7.45058e-008
v -0.5 0.4 -7.45058e-008
v -0.4 0.4 -7.45058e-008
v 0.4 0.4 -7.45058e-008
v 0.5 0.4 -7.45058e-008
v 0.6 0.4 -7.45058e-008
v -0.4 0.5 0.0999999
v -0.3 0.5 0.0999999
v -0.1 0.5 0.0999999
v 0.1 0.5 0.0999999
v 0.3 0.5 0.0999999
v 0.4 0.5 0.0999999
v -0.4 0.5 -7.45058e-008
v -0.3 0.5 -7.45058e-008
v -0.1 0.5 -7.45058e-008
v 0.1 0.5 -7.45058e-008
v 0.3 0.5 -7.45058e-008
v 0.4 0.5 -7.45058e-008

# faces
f 3/3/1 2/3/1 1/3/1
f 4/3/1 2/3/1 3/3/1
f 7/3/1 6/3/1 5/3/1
f 8/3/1 6/3/1 7/3/1
f 11/3/1 10/3/1 9/3/1
f 12/3/1 10/3/1 11/3/1
f 15/3/1 14/3/1 13/3/1
f 16/3/1 14/3/1 15/3/1
f 19/4/1 18/4/1 17/4/1
f 20/4/1 18/4/1 19/4/1
f 21/4/2 22/4/2 23/4/2
f 23/4/2 22/4/2 24/4/2
f 25/3/2 26/3/2 27/3/2
f 27/3/2 26/3/2 28/3/2
f 29/3/2 30/3/2 31/3/2
f 31/3/2 30/3/2 32/3/2
f 33/3/2 34/3/2 35/3/2
f 35/3/2 34/3/2 36/3/2
f 37/3/2 38/3/2 39/3/2
f 39/3/2 38/3/2 40/3/2
f 43/3/3 42/3/3 41/3/3
f 44/3/3 42/3/3 43/3/3
f 45/3/3 42/3/3 44/3/3
f 47/2/3 44/2/3 43/2/3
f 48/1/3 45/1/3 44/1/3
f 48/2/3 44/2/3 47/2/3
f 49/3/3 46/3/3 45/3/3
f 49/1/3 45/1/3 48/1/3
f 50/3/3 46/3/3 49/3/3
f 52/4/3 48/4/3 47/4/3
f 52/4/3 49/4/3 48/4/3
f 52/4/3 50/4/3 49/4/3
f 53/4/3 50/4/3 52/4/3
f 54/3/3 51/3/3 50/3/3
f 54/4/3 50/4/3 53/4/3
f 55/3/3 51/3/3 54/3/3
f 56/2/3 55/2/3 54/2/3
f 58/3/3 53/3/3 52/3/3
f 58/4/3 52/4/3 47/4/3
f 59/4/3 54/4/3 53/4/3
f 59/3/3 53/3/3 58/3/3
f 60/2/3 56/2/3 54/2/3
f 60/4/3 54/4/3 59/4/3
f 61/3/3 57/3/3 56/3/3
f 61/2/3 56/2/3 60/2/3
f 62/3/3 57/3/3 61/3/3
f 63/2/3 59/2/3 58/2/3
f 63/4/3 58/4/3 47/4/3
f 64/4/3 60/4/3 59/4/3
f 64/2/3 59/2/3 63/2/3
f 65/1/3 61/1/3 60/1/3
f 65/4/3 60/4/3 64/4/3
f 66/2/3 62/2/3 61/2/3
f 66/1/3 61/1/3 65/1/3
f 67/4/3 63/4/3 47/4/3
f 67/4/3 65/4/3 64/4/3
f 67/4/3 64/4/3 63/4/3
f 68/4/3 65/4/3 67/4/3
f 69/2/3 66/2/3 65/2/3
f 69/4/3 65/4/3 68/4/3
f 70/2/3 62/2/3 66/2/3
f 70/2/3 66/2/3 69/2/3
f 71/2/3 62/2/3 70/2/3
f 73/2/3 69/2/3 68/2/3
f 73/2/3 70/2/3 69/2/3
f 74/2/3 70/2/3 73/2/3
f 75/5/3 71/5/3 70/5/3
f 75/2/3 70/2/3 74/2/3
f 76/5/3 71/5/3 75/5/3
f 77/4/3 74/4/3 73/4/3
f 77/4/3 73/4/3 72/4/3
f 78/4/3 74/4/3 77/4/3
f 79/2/3 76/2/3 75/2/3
f 79/4/3 74/4/3 78/4/3
f 79/2/3 75/2/3 74/2/3
f 80/2/3 76/2/3 79/2/3
f 81/2/3 78/2/3 77/2/3
f 81/4/3 77/4/3 72/4/3
f 82/4/3 79/4/3 78/4/3
f 82/2/3 78/2/3 81/2/3
f 83/1/3 80/1/3 79/1/3
f 83/4/3 79/4/3 82/4/3
f 84/2/3 76/2/3 80/2/3
f 84/1/3 80/1/3 83/1/3
f 85/2/3 76/2/3 84/2/3
f 86/2/3 84/2/3 83/2/3
f 86/3/3 85/3/3 84/3/3
f 87/3/3 85/3/3 86/3/3
f 88/3/3 82/3/3 81/3/3
f 88/4/3 81/4/3 72/4/3
f 89/4/3 83/4/3 82/4/3
f 89/3/3 82/3/3 88/3/3
f 90/2/3 86/2/3 83/2/3
f 90/4/3 83/4/3 89/4/3
f 91/2/3 86/2/3 90/2/3
f 92/4/3 88/4/3 72/4/3
f 92/4/3 89/4/3 88/4/3
f 92/4/3 90/4/3 89/4/3
f 93/4/3 90/4/3 92/4/3
f 94/4/3 90/4/3 93/4/3
f 95/3/3 91/3/3 90/3/3
f 95/4/3 90/4/3 94/4/3
f 96/3/3 91/3/3 95/3/3
f 97/2/3 93/2/3 92/2/3
f 98/1/3 94/1/3 93/1/3
f 98/2/3 93/2/3 97/2/3
f 99/3/3 95/3/3 94/3/3
f 99/1/3 94/1/3 98/1/3
f 100/3/3 95/3/3 99/3/3
f 101/3/3 98/3/3 97/3/3
f 101/3/3 99/3/3 98/3/3
f 102/3/3 99/3/3 101/3/3
f 103/3/4 104/3/4 105/3/4
f 105/3/4 104/3/4 106/3/4
f 106/3/4 104/3/4 107/3/4
f 105/2/4 106/2/4 109/2/4
f 106/1/4 107/1/4 110/1/4
f 109/2/4 106/2/4 110/2/4
f 107/3/4 108/3/4 111/3/4
f 110/1/4 107/1/4 111/1/4
f 111/3/4 108/3/4 112/3/4
f 109/4/4 110/4/4 114/4/4
f 110/4/4 111/4/4 114/4/4
f 111/4/4 112/4/4 114/4/4
f 114/4/4 112/4/4 115/4/4
f 112/3/4 113/3/4 116/3/4
f 115/4/4 112/4/4 116/4/4
f 116/3/4 113/3/4 117/3/4
f 116/2/4 117/2/4 118/2/4
f 114/3/4 115/3/4 120/3/4
f 109/4/4 114/4/4 120/4/4
f 115/4/4 116/4/4 121/4/4
f 120/3/4 115/3/4 121/3/4
f 116/2/4 118/2/4 122/2/4
f 121/4/4 116/4/4 122/4/4
f 118/3/4 119/3/4 123/3/4
f 122/2/4 118/2/4 123/2/4
f 123/3/4 119/3/4 124/3/4
f 120/2/4 121/2/4 125/2/4
f 109/4/4 120/4/4 125/4/4
f 121/4/4 122/4/4 126/4/4
f 125/2/4 121/2/4 126/2/4
f 122/1/4 123/1/4 127/1/4
f 126/4/4 122/4/4 127/4/4
f 123/2/4 124/2/4 128/2/4
f 127/1/4 123/1/4 128/1/4
f 109/4/4 125/4/4 129/4/4
f 126/4/4 127/4/4 129/4/4
f 125/4/4 126/4/4 129/4/4
f 129/4/4 127/4/4 130/4/4
f 127/2/4 128/2/4 131/2/4
f 130/4/4 127/4/4 131/4/4
f 128/2/4 124/2/4 132/2/4
f 131/2/4 128/2/4 132/2/4
f 132/2/4 124/2/4 133/2/4
f 130/2/4 131/2/4 135/2/4
f 131/2/4 132/2/4 135/2/4
f 135/2/4 132/2/4 136/2/4
f 132/5/4 133/5/4 137/5/4
f 136/2/4 132/2/4 137/2/4
f 137/5/4 133/5/4 138/5/4
f 135/4/4 136/4/4 139/4/4
f 134/4/4 135/4/4 139/4/4
f 139/4/4 136/4/4 140/4/4
f 137/2/4 138/2/4 141/2/4
f 140/4/4 136/4/4 141/4/4
f 136/2/4 137/2/4 141/2/4
f 141/2/4 138/2/4 142/2/4
f 139/2/4 140/2/4 143/2/4
f 134/4/4 139/4/4 143/4/4
f 140/4/4 141/4/4 144/4/4
f 143/2/4 140/2/4 144/2/4
f 141/1/4 142/1/4 145/1/4
f 144/4/4 141/4/4 145/4/4
f 142/2/4 138/2/4 146/2/4
f 145/1/4 142/1/4 146/1/4
f 146/2/4 138/2/4 147/2/4
f 145/2/4 146/2/4 148/2/4
f 146/3/4 147/3/4 148/3/4
f 148/3/4 147/3/4 149/3/4
f 143/3/4 144/3/4 150/3/4
f 134/4/4 143/4/4 150/4/4
f 144/4/4 145/4/4 151/4/4
f 150/3/4 144/3/4 151/3/4
f 145/2/4 148/2/4 152/2/4
f 151/4/4 145/4/4 152/4/4
f 152/2/4 148/2/4 153/2/4
f 134/4/4 150/4/4 154/4/4
f 150/4/4 151/4/4 154/4/4
f 151/4/4 152/4/4 154/4/4
f 154/4/4 152/4/4 155/4/4
f 155/4/4 152/4/4 156/4/4
f 152/3/4 153/3/4 157/3/4
f 156/4/4 152/4/4 157/4/4
f 157/3/4 153/3/4 158/3/4
f 154/2/4 155/2/4 159/2/4
f 155/1/4 156/1/4 160/1/4
f 159/2/4 155/2/4 160/2/4
f 156/3/4 157/3/4 161/3/4
f 160/1/4 156/1/4 161/1/4
f 161/3/4 157/3/4 162/3/4
f 159/3/4 160/3/4 163/3/4
f 160/3/4 161/3/4 163/3/4
f 163/3/4 161/3/4 164/3/4
f 173/3/5 166/3/5 165/3/5
f 174/2/5 167/2/5 166/2/5
f 174/3/5 166/3/5 173/3/5
f 175/4/5 168/4/5 167/4/5
f 175/2/5 167/2/5 174/2/5
f 176/4/5 168/4/5 175/4/5
f 177/4/5 170/4/5 169/4/5
f 178/2/5 171/2/5 170/2/5
f 178/4/5 170/4/5 177/4/5
f 179/3/5 172/3/5 171/3/5
f 179/2/5 171/2/5 178/2/5
f 180/3/5 172/3/5 179/3/5
f 183/2/5 182/2/5 181/2/5
f 184/2/5 182/2/5 183/2/5
f 185/3/6 186/3/6 189/3/6
f 189/3/6 186/3/6 190/3/6
f 187/3/6 188/3/6 191/3/6
f 191/3/6 188/3/6 192/3/6
f 193/3/6 194/3/6 197/3/6
f 197/3/6 194/3/6 198/3/6
f 195/3/6 196/3/6 199/3/6
f 199/3/6 196/3/6 200/3/6
f 201/3/6 202/3/6 207/3/6
f 202/2/6 203/2/6 208/2/6
f 207/3/6 202/3/6 208/3/6
f 208/2/6 203/2/6 209/2/6
f 204/2/6 205/2/6 210/2/6
f 205/3/6 206/3/6 211/3/6
f 210/2/6 205/2/6 211/2/6
f 211/3/6 206/3/6 212/3/6
f 213/3/6 214/3/6 219/3/6
f 214/2/6 215/2/6 220/2/6
f 219/3/6 214/3/6 220/3/6
f 215/5/6 216/5/6 221/5/6
f 220/2/6 215/2/6 221/2/6
f 216/2/6 217/2/6 222/2/6
f 221/5/6 216/5/6 222/5/6
f 217/3/6 218/3/6 223/3/6
f 222/2/6 217/2/6 223/2/6
f 223/3/6 218/3/6 224/3/6
