# MagicaVoxel @ Ephtracy

# group
o 

# material
mtllib миша смерт.mtl
usemtl palette

# normals
vn -1 0 0
vn 1 0 0
vn 0 0 1
vn 0 0 -1
vn 0 -1 0
vn 0 1 0

# texcoords
vt 0.201172 0.5
vt 0.369141 0.5
vt 0.537109 0.5
vt 0.994141 0.5

# verts
v -1 0.1 1.5
v -1 0.1 1.4
v -1 0.2 1.5
v -1 0.2 1.4
v -1 0.5 1.5
v -1 0.5 1.4
v -1 0.7 1.5
v -1 0.7 1.4
v -0.9 0 1.5
v -0.9 0 1.4
v -0.9 0.1 1.5
v -0.9 0.1 1.4
v -0.9 0.2 1.5
v -0.9 0.2 1.4
v -0.9 0.3 1.5
v -0.9 0.3 1.4
v -0.9 0.4 1.5
v -0.9 0.4 1.4
v -0.9 0.5 1.5
v -0.9 0.5 1.4
v -0.9 0.7 1.5
v -0.9 0.7 1.4
v -0.9 0.8 1.5
v -0.9 0.8 1.4
v -0.8 0.3 1.5
v -0.8 0.3 1.4
v -0.8 0.4 1.5
v -0.8 0.4 1.4
v -0.5 0.7 1.5
v -0.5 0.7 1.4
v -0.5 0.8 1.5
v -0.5 0.8 1.4
v -0.3 0.8 1.5
v -0.3 0.8 1.4
v -0.3 0.9 1.5
v -0.3 0.9 1.4
v 0.5 0.7 1.5
v 0.5 0.7 1.4
v 0.5 0.8 1.5
v 0.5 0.8 1.4
v -0.6 0.7 1.5
v -0.6 0.7 1.4
v -0.6 0.8 1.5
v -0.6 0.8 1.4
v 0.2 0.8 1.5
v 0.2 0.8 1.4
v 0.2 0.9 1.5
v 0.2 0.9 1.4
v 0.4 0.7 1.5
v 0.4 0.7 1.4
v 0.4 0.8 1.5
v 0.4 0.8 1.4
v 0.7 0.3 1.5
v 0.7 0.3 1.4
v 0.7 0.4 1.5
v 0.7 0.4 1.4
v 0.8 0 1.5
v 0.8 0 1.4
v 0.8 0.1 1.5
v 0.8 0.1 1.4
v 0.8 0.2 1.5
v 0.8 0.2 1.4
v 0.8 0.3 1.5
v 0.8 0.3 1.4
v 0.8 0.4 1.5
v 0.8 0.4 1.4
v 0.8 0.5 1.5
v 0.8 0.5 1.4
v 0.8 0.7 1.5
v 0.8 0.7 1.4
v 0.8 0.8 1.5
v 0.8 0.8 1.4
v 0.9 0.1 1.5
v 0.9 0.1 1.4
v 0.9 0.2 1.5
v 0.9 0.2 1.4
v 0.9 0.5 1.5
v 0.9 0.5 1.4
v 0.9 0.7 1.5
v 0.9 0.7 1.4
v -1 0.1 1.5
v -1 0.2 1.5
v -1 0.5 1.5
v -1 0.7 1.5
v -0.9 0 1.5
v -0.9 0.1 1.5
v -0.9 0.2 1.5
v -0.9 0.3 1.5
v -0.9 0.4 1.5
v -0.9 0.5 1.5
v -0.9 0.7 1.5
v -0.9 0.8 1.5
v -0.8 0.2 1.5
v -0.8 0.3 1.5
v -0.8 0.4 1.5
v -0.7 0.3 1.5
v -0.7 0.5 1.5
v -0.7 0.6 1.5
v -0.6 0.1 1.5
v -0.6 0.3 1.5
v -0.6 0.4 1.5
v -0.6 0.5 1.5
v -0.6 0.6 1.5
v -0.6 0.7 1.5
v -0.6 0.8 1.5
v -0.5 0.1 1.5
v -0.5 0.3 1.5
v -0.5 0.4 1.5
v -0.5 0.6 1.5
v -0.5 0.7 1.5
v -0.5 0.8 1.5
v -0.4 0.5 1.5
v -0.4 0.6 1.5
v -0.3 0.7 1.5
v -0.3 0.8 1.5
v -0.3 0.9 1.5
v -0.2 0.1 1.5
v -0.2 0.3 1.5
v -0.2 0.4 1.5
v -0.2 0.5 1.5
v -0.0999999 0.1 1.5
v -0.0999999 0.3 1.5
v 1.19209e-007 0.1 1.5
v 1.19209e-007 0.3 1.5
v 0.1 0.1 1.5
v 0.1 0.3 1.5
v 0.1 0.4 1.5
v 0.1 0.5 1.5
v 0.2 0.7 1.5
v 0.2 0.8 1.5
v 0.2 0.9 1.5
v 0.3 0.5 1.5
v 0.3 0.6 1.5
v 0.4 0.1 1.5
v 0.4 0.3 1.5
v 0.4 0.4 1.5
v 0.4 0.6 1.5
v 0.4 0.7 1.5
v 0.4 0.8 1.5
v 0.5 0.1 1.5
v 0.5 0.3 1.5
v 0.5 0.4 1.5
v 0.5 0.5 1.5
v 0.5 0.6 1.5
v 0.5 0.7 1.5
v 0.5 0.8 1.5
v 0.6 0.3 1.5
v 0.6 0.5 1.5
v 0.6 0.6 1.5
v 0.7 0.2 1.5
v 0.7 0.3 1.5
v 0.7 0.4 1.5
v 0.8 0 1.5
v 0.8 0.1 1.5
v 0.8 0.2 1.5
v 0.8 0.3 1.5
v 0.8 0.4 1.5
v 0.8 0.5 1.5
v 0.8 0.7 1.5
v 0.8 0.8 1.5
v 0.9 0.1 1.5
v 0.9 0.2 1.5
v 0.9 0.5 1.5
v 0.9 0.7 1.5
v -1 0.1 1.4
v -1 0.2 1.4
v -1 0.5 1.4
v -1 0.7 1.4
v -0.9 0 1.4
v -0.9 0.1 1.4
v -0.9 0.2 1.4
v -0.9 0.3 1.4
v -0.9 0.4 1.4
v -0.9 0.5 1.4
v -0.9 0.7 1.4
v -0.9 0.8 1.4
v -0.8 0.2 1.4
v -0.8 0.3 1.4
v -0.8 0.4 1.4
v -0.7 0.3 1.4
v -0.7 0.5 1.4
v -0.7 0.6 1.4
v -0.6 0.1 1.4
v -0.6 0.3 1.4
v -0.6 0.4 1.4
v -0.6 0.5 1.4
v -0.6 0.6 1.4
v -0.6 0.7 1.4
v -0.6 0.8 1.4
v -0.5 0.1 1.4
v -0.5 0.3 1.4
v -0.5 0.4 1.4
v -0.5 0.6 1.4
v -0.5 0.7 1.4
v -0.5 0.8 1.4
v -0.4 0.5 1.4
v -0.4 0.6 1.4
v -0.3 0.7 1.4
v -0.3 0.8 1.4
v -0.3 0.9 1.4
v -0.2 0.1 1.4
v -0.2 0.3 1.4
v -0.2 0.4 1.4
v -0.2 0.5 1.4
v -0.0999999 0.1 1.4
v -0.0999999 0.3 1.4
v 1.19209e-007 0.1 1.4
v 1.19209e-007 0.3 1.4
v 0.1 0.1 1.4
v 0.1 0.3 1.4
v 0.1 0.4 1.4
v 0.1 0.5 1.4
v 0.2 0.7 1.4
v 0.2 0.8 1.4
v 0.2 0.9 1.4
v 0.3 0.5 1.4
v 0.3 0.6 1.4
v 0.4 0.1 1.4
v 0.4 0.3 1.4
v 0.4 0.4 1.4
v 0.4 0.6 1.4
v 0.4 0.7 1.4
v 0.4 0.8 1.4
v 0.5 0.1 1.4
v 0.5 0.3 1.4
v 0.5 0.4 1.4
v 0.5 0.5 1.4
v 0.5 0.6 1.4
v 0.5 0.7 1.4
v 0.5 0.8 1.4
v 0.6 0.3 1.4
v 0.6 0.5 1.4
v 0.6 0.6 1.4
v 0.7 0.2 1.4
v 0.7 0.3 1.4
v 0.7 0.4 1.4
v 0.8 0 1.4
v 0.8 0.1 1.4
v 0.8 0.2 1.4
v 0.8 0.3 1.4
v 0.8 0.4 1.4
v 0.8 0.5 1.4
v 0.8 0.7 1.4
v 0.8 0.8 1.4
v 0.9 0.1 1.4
v 0.9 0.2 1.4
v 0.9 0.5 1.4
v 0.9 0.7 1.4
v -0.9 0 1.5
v 0.8 0 1.5
v -0.9 0 1.4
v 0.8 0 1.4
v -1 0.1 1.5
v -0.9 0.1 1.5
v 0.8 0.1 1.5
v 0.9 0.1 1.5
v -1 0.1 1.4
v -0.9 0.1 1.4
v 0.8 0.1 1.4
v 0.9 0.1 1.4
v -0.9 0.4 1.5
v -0.8 0.4 1.5
v 0.7 0.4 1.5
v 0.8 0.4 1.5
v -0.9 0.4 1.4
v -0.8 0.4 1.4
v 0.7 0.4 1.4
v 0.8 0.4 1.4
v -1 0.5 1.5
v -0.9 0.5 1.5
v 0.8 0.5 1.5
v 0.9 0.5 1.5
v -1 0.5 1.4
v -0.9 0.5 1.4
v 0.8 0.5 1.4
v 0.9 0.5 1.4
v -1 0.2 1.5
v -0.9 0.2 1.5
v 0.8 0.2 1.5
v 0.9 0.2 1.5
v -1 0.2 1.4
v -0.9 0.2 1.4
v 0.8 0.2 1.4
v 0.9 0.2 1.4
v -0.9 0.3 1.5
v -0.8 0.3 1.5
v 0.7 0.3 1.5
v 0.8 0.3 1.5
v -0.9 0.3 1.4
v -0.8 0.3 1.4
v 0.7 0.3 1.4
v 0.8 0.3 1.4
v -1 0.7 1.5
v -0.9 0.7 1.5
v -0.6 0.7 1.5
v -0.5 0.7 1.5
v 0.4 0.7 1.5
v 0.5 0.7 1.5
v 0.8 0.7 1.5
v 0.9 0.7 1.5
v -1 0.7 1.4
v -0.9 0.7 1.4
v -0.6 0.7 1.4
v -0.5 0.7 1.4
v 0.4 0.7 1.4
v 0.5 0.7 1.4
v 0.8 0.7 1.4
v 0.9 0.7 1.4
v -0.9 0.8 1.5
v -0.6 0.8 1.5
v -0.5 0.8 1.5
v -0.3 0.8 1.5
v 0.2 0.8 1.5
v 0.4 0.8 1.5
v 0.5 0.8 1.5
v 0.8 0.8 1.5
v -0.9 0.8 1.4
v -0.6 0.8 1.4
v -0.5 0.8 1.4
v -0.3 0.8 1.4
v 0.2 0.8 1.4
v 0.4 0.8 1.4
v 0.5 0.8 1.4
v 0.8 0.8 1.4
v -0.3 0.9 1.5
v 0.2 0.9 1.5
v -0.3 0.9 1.4
v 0.2 0.9 1.4

# faces
f 3/4/1 2/4/1 1/4/1
f 4/4/1 2/4/1 3/4/1
f 7/4/1 6/4/1 5/4/1
f 8/4/1 6/4/1 7/4/1
f 11/4/1 10/4/1 9/4/1
f 12/4/1 10/4/1 11/4/1
f 15/4/1 14/4/1 13/4/1
f 16/4/1 14/4/1 15/4/1
f 19/4/1 18/4/1 17/4/1
f 20/4/1 18/4/1 19/4/1
f 23/4/1 22/4/1 21/4/1
f 24/4/1 22/4/1 23/4/1
f 27/4/1 26/4/1 25/4/1
f 28/4/1 26/4/1 27/4/1
f 31/4/1 30/4/1 29/4/1
f 32/4/1 30/4/1 31/4/1
f 35/4/1 34/4/1 33/4/1
f 36/4/1 34/4/1 35/4/1
f 39/4/1 38/4/1 37/4/1
f 40/4/1 38/4/1 39/4/1
f 41/4/2 42/4/2 43/4/2
f 43/4/2 42/4/2 44/4/2
f 45/4/2 46/4/2 47/4/2
f 47/4/2 46/4/2 48/4/2
f 49/4/2 50/4/2 51/4/2
f 51/4/2 50/4/2 52/4/2
f 53/4/2 54/4/2 55/4/2
f 55/4/2 54/4/2 56/4/2
f 57/4/2 58/4/2 59/4/2
f 59/4/2 58/4/2 60/4/2
f 61/4/2 62/4/2 63/4/2
f 63/4/2 62/4/2 64/4/2
f 65/4/2 66/4/2 67/4/2
f 67/4/2 66/4/2 68/4/2
f 69/4/2 70/4/2 71/4/2
f 71/4/2 70/4/2 72/4/2
f 73/4/2 74/4/2 75/4/2
f 75/4/2 74/4/2 76/4/2
f 77/4/2 78/4/2 79/4/2
f 79/4/2 78/4/2 80/4/2
f 86/4/3 82/4/3 81/4/3
f 87/4/3 82/4/3 86/4/3
f 90/4/3 84/4/3 83/4/3
f 91/4/3 84/4/3 90/4/3
f 93/4/3 88/4/3 87/4/3
f 93/3/3 87/3/3 86/3/3
f 94/4/3 88/4/3 93/4/3
f 95/4/3 90/4/3 89/4/3
f 96/3/3 94/3/3 93/3/3
f 96/4/3 95/4/3 94/4/3
f 97/3/3 91/3/3 90/3/3
f 97/4/3 95/4/3 96/4/3
f 97/4/3 90/4/3 95/4/3
f 98/3/3 91/3/3 97/3/3
f 99/4/3 86/4/3 85/4/3
f 99/3/3 96/3/3 93/3/3
f 99/3/3 93/3/3 86/3/3
f 99/3/3 97/3/3 96/3/3
f 100/3/3 97/3/3 99/3/3
f 101/3/3 97/3/3 100/3/3
f 102/4/3 98/4/3 97/4/3
f 102/3/3 97/3/3 101/3/3
f 103/3/3 91/3/3 98/3/3
f 103/4/3 98/4/3 102/4/3
f 104/4/3 92/4/3 91/4/3
f 104/3/3 91/3/3 103/3/3
f 105/4/3 92/4/3 104/4/3
f 106/4/3 99/4/3 85/4/3
f 106/4/3 100/4/3 99/4/3
f 107/3/3 101/3/3 100/3/3
f 107/4/3 100/4/3 106/4/3
f 108/2/3 103/2/3 102/2/3
f 108/3/3 101/3/3 107/3/3
f 108/2/3 102/2/3 101/2/3
f 109/4/3 104/4/3 103/4/3
f 109/2/3 103/2/3 108/2/3
f 110/4/3 104/4/3 109/4/3
f 112/2/3 109/2/3 108/2/3
f 113/1/3 110/1/3 109/1/3
f 113/2/3 109/2/3 112/2/3
f 114/4/3 111/4/3 110/4/3
f 114/1/3 110/1/3 113/1/3
f 114/1/3 113/1/3 112/1/3
f 115/4/3 111/4/3 114/4/3
f 117/3/3 107/3/3 106/3/3
f 117/4/3 106/4/3 85/4/3
f 118/4/3 108/4/3 107/4/3
f 118/3/3 107/3/3 117/3/3
f 119/2/3 112/2/3 108/2/3
f 119/4/3 108/4/3 118/4/3
f 120/1/3 114/1/3 112/1/3
f 120/2/3 112/2/3 119/2/3
f 120/1/3 115/1/3 114/1/3
f 121/4/3 117/4/3 85/4/3
f 121/4/3 118/4/3 117/4/3
f 122/2/3 119/2/3 118/2/3
f 122/4/3 118/4/3 121/4/3
f 123/4/3 121/4/3 85/4/3
f 123/3/3 122/3/3 121/3/3
f 124/2/3 119/2/3 122/2/3
f 124/3/3 122/3/3 123/3/3
f 125/4/3 123/4/3 85/4/3
f 125/4/3 124/4/3 123/4/3
f 126/2/3 119/2/3 124/2/3
f 126/4/3 124/4/3 125/4/3
f 127/1/3 120/1/3 119/1/3
f 127/2/3 119/2/3 126/2/3
f 128/1/3 115/1/3 120/1/3
f 128/1/3 120/1/3 127/1/3
f 129/1/3 115/1/3 128/1/3
f 130/4/3 116/4/3 115/4/3
f 130/1/3 115/1/3 129/1/3
f 131/4/3 116/4/3 130/4/3
f 132/1/3 129/1/3 128/1/3
f 132/2/3 128/2/3 127/2/3
f 133/1/3 129/1/3 132/1/3
f 134/4/3 125/4/3 85/4/3
f 134/3/3 126/3/3 125/3/3
f 135/4/3 127/4/3 126/4/3
f 135/3/3 126/3/3 134/3/3
f 136/2/3 133/2/3 132/2/3
f 136/4/3 127/4/3 135/4/3
f 136/2/3 132/2/3 127/2/3
f 137/1/3 129/1/3 133/1/3
f 137/2/3 133/2/3 136/2/3
f 138/4/3 130/4/3 129/4/3
f 138/1/3 129/1/3 137/1/3
f 139/4/3 130/4/3 138/4/3
f 140/4/3 134/4/3 85/4/3
f 140/4/3 135/4/3 134/4/3
f 141/3/3 136/3/3 135/3/3
f 141/4/3 135/4/3 140/4/3
f 142/2/3 137/2/3 136/2/3
f 142/3/3 136/3/3 141/3/3
f 143/2/3 137/2/3 142/2/3
f 144/4/3 138/4/3 137/4/3
f 144/2/3 137/2/3 143/2/3
f 145/4/3 138/4/3 144/4/3
f 147/3/3 143/3/3 142/3/3
f 147/3/3 141/3/3 140/3/3
f 147/3/3 142/3/3 141/3/3
f 148/4/3 144/4/3 143/4/3
f 148/3/3 143/3/3 147/3/3
f 149/3/3 145/3/3 144/3/3
f 149/4/3 144/4/3 148/4/3
f 150/3/3 147/3/3 140/3/3
f 151/4/3 148/4/3 147/4/3
f 151/3/3 147/3/3 150/3/3
f 152/4/3 148/4/3 151/4/3
f 153/4/3 140/4/3 85/4/3
f 154/3/3 150/3/3 140/3/3
f 154/4/3 140/4/3 153/4/3
f 155/4/3 151/4/3 150/4/3
f 155/3/3 150/3/3 154/3/3
f 156/4/3 151/4/3 155/4/3
f 157/4/3 148/4/3 152/4/3
f 158/3/3 149/3/3 148/3/3
f 158/4/3 148/4/3 157/4/3
f 159/4/3 146/4/3 145/4/3
f 159/3/3 149/3/3 158/3/3
f 159/3/3 145/3/3 149/3/3
f 160/4/3 146/4/3 159/4/3
f 161/4/3 155/4/3 154/4/3
f 162/4/3 155/4/3 161/4/3
f 163/4/3 159/4/3 158/4/3
f 164/4/3 159/4/3 163/4/3
f 165/4/4 166/4/4 170/4/4
f 170/4/4 166/4/4 171/4/4
f 167/4/4 168/4/4 174/4/4
f 174/4/4 168/4/4 175/4/4
f 171/4/4 172/4/4 177/4/4
f 170/3/4 171/3/4 177/3/4
f 177/4/4 172/4/4 178/4/4
f 173/4/4 174/4/4 179/4/4
f 177/3/4 178/3/4 180/3/4
f 178/4/4 179/4/4 180/4/4
f 174/3/4 175/3/4 181/3/4
f 180/4/4 179/4/4 181/4/4
f 179/4/4 174/4/4 181/4/4
f 181/3/4 175/3/4 182/3/4
f 169/4/4 170/4/4 183/4/4
f 177/3/4 180/3/4 183/3/4
f 170/3/4 177/3/4 183/3/4
f 180/3/4 181/3/4 183/3/4
f 183/3/4 181/3/4 184/3/4
f 184/3/4 181/3/4 185/3/4
f 181/4/4 182/4/4 186/4/4
f 185/3/4 181/3/4 186/3/4
f 182/3/4 175/3/4 187/3/4
f 186/4/4 182/4/4 187/4/4
f 175/4/4 176/4/4 188/4/4
f 187/3/4 175/3/4 188/3/4
f 188/4/4 176/4/4 189/4/4
f 169/4/4 183/4/4 190/4/4
f 183/4/4 184/4/4 190/4/4
f 184/3/4 185/3/4 191/3/4
f 190/4/4 184/4/4 191/4/4
f 186/2/4 187/2/4 192/2/4
f 191/3/4 185/3/4 192/3/4
f 185/2/4 186/2/4 192/2/4
f 187/4/4 188/4/4 193/4/4
f 192/2/4 187/2/4 193/2/4
f 193/4/4 188/4/4 194/4/4
f 192/2/4 193/2/4 196/2/4
f 193/1/4 194/1/4 197/1/4
f 196/2/4 193/2/4 197/2/4
f 194/4/4 195/4/4 198/4/4
f 197/1/4 194/1/4 198/1/4
f 196/1/4 197/1/4 198/1/4
f 198/4/4 195/4/4 199/4/4
f 190/3/4 191/3/4 201/3/4
f 169/4/4 190/4/4 201/4/4
f 191/4/4 192/4/4 202/4/4
f 201/3/4 191/3/4 202/3/4
f 192/2/4 196/2/4 203/2/4
f 202/4/4 192/4/4 203/4/4
f 196/1/4 198/1/4 204/1/4
f 203/2/4 196/2/4 204/2/4
f 198/1/4 199/1/4 204/1/4
f 169/4/4 201/4/4 205/4/4
f 201/4/4 202/4/4 205/4/4
f 202/2/4 203/2/4 206/2/4
f 205/4/4 202/4/4 206/4/4
f 169/4/4 205/4/4 207/4/4
f 205/3/4 206/3/4 207/3/4
f 206/2/4 203/2/4 208/2/4
f 207/3/4 206/3/4 208/3/4
f 169/4/4 207/4/4 209/4/4
f 207/4/4 208/4/4 209/4/4
f 208/2/4 203/2/4 210/2/4
f 209/4/4 208/4/4 210/4/4
f 203/1/4 204/1/4 211/1/4
f 210/2/4 203/2/4 211/2/4
f 204/1/4 199/1/4 212/1/4
f 211/1/4 204/1/4 212/1/4
f 212/1/4 199/1/4 213/1/4
f 199/4/4 200/4/4 214/4/4
f 213/1/4 199/1/4 214/1/4
f 214/4/4 200/4/4 215/4/4
f 212/1/4 213/1/4 216/1/4
f 211/2/4 212/2/4 216/2/4
f 216/1/4 213/1/4 217/1/4
f 169/4/4 209/4/4 218/4/4
f 209/3/4 210/3/4 218/3/4
f 210/4/4 211/4/4 219/4/4
f 218/3/4 210/3/4 219/3/4
f 216/2/4 217/2/4 220/2/4
f 219/4/4 211/4/4 220/4/4
f 211/2/4 216/2/4 220/2/4
f 217/1/4 213/1/4 221/1/4
f 220/2/4 217/2/4 221/2/4
f 213/4/4 214/4/4 222/4/4
f 221/1/4 213/1/4 222/1/4
f 222/4/4 214/4/4 223/4/4
f 169/4/4 218/4/4 224/4/4
f 218/4/4 219/4/4 224/4/4
f 219/3/4 220/3/4 225/3/4
f 224/4/4 219/4/4 225/4/4
f 220/2/4 221/2/4 226/2/4
f 225/3/4 220/3/4 226/3/4
f 226/2/4 221/2/4 227/2/4
f 221/4/4 222/4/4 228/4/4
f 227/2/4 221/2/4 228/2/4
f 228/4/4 222/4/4 229/4/4
f 226/3/4 227/3/4 231/3/4
f 224/3/4 225/3/4 231/3/4
f 225/3/4 226/3/4 231/3/4
f 227/4/4 228/4/4 232/4/4
f 231/3/4 227/3/4 232/3/4
f 228/3/4 229/3/4 233/3/4
f 232/4/4 228/4/4 233/4/4
f 224/3/4 231/3/4 234/3/4
f 231/4/4 232/4/4 235/4/4
f 234/3/4 231/3/4 235/3/4
f 235/4/4 232/4/4 236/4/4
f 169/4/4 224/4/4 237/4/4
f 224/3/4 234/3/4 238/3/4
f 237/4/4 224/4/4 238/4/4
f 234/4/4 235/4/4 239/4/4
f 238/3/4 234/3/4 239/3/4
f 239/4/4 235/4/4 240/4/4
f 236/4/4 232/4/4 241/4/4
f 232/3/4 233/3/4 242/3/4
f 241/4/4 232/4/4 242/4/4
f 229/4/4 230/4/4 243/4/4
f 242/3/4 233/3/4 243/3/4
f 233/3/4 229/3/4 243/3/4
f 243/4/4 230/4/4 244/4/4
f 238/4/4 239/4/4 245/4/4
f 245/4/4 239/4/4 246/4/4
f 242/4/4 243/4/4 247/4/4
f 247/4/4 243/4/4 248/4/4
f 251/4/5 250/4/5 249/4/5
f 252/4/5 250/4/5 251/4/5
f 257/4/5 254/4/5 253/4/5
f 258/4/5 254/4/5 257/4/5
f 259/4/5 256/4/5 255/4/5
f 260/4/5 256/4/5 259/4/5
f 265/4/5 262/4/5 261/4/5
f 266/4/5 262/4/5 265/4/5
f 267/4/5 264/4/5 263/4/5
f 268/4/5 264/4/5 267/4/5
f 273/4/5 270/4/5 269/4/5
f 274/4/5 270/4/5 273/4/5
f 275/4/5 272/4/5 271/4/5
f 276/4/5 272/4/5 275/4/5
f 277/4/6 278/4/6 281/4/6
f 281/4/6 278/4/6 282/4/6
f 279/4/6 280/4/6 283/4/6
f 283/4/6 280/4/6 284/4/6
f 285/4/6 286/4/6 289/4/6
f 289/4/6 286/4/6 290/4/6
f 287/4/6 288/4/6 291/4/6
f 291/4/6 288/4/6 292/4/6
f 293/4/6 294/4/6 301/4/6
f 301/4/6 294/4/6 302/4/6
f 295/4/6 296/4/6 303/4/6
f 303/4/6 296/4/6 304/4/6
f 297/4/6 298/4/6 305/4/6
f 305/4/6 298/4/6 306/4/6
f 299/4/6 300/4/6 307/4/6
f 307/4/6 300/4/6 308/4/6
f 309/4/6 310/4/6 317/4/6
f 317/4/6 310/4/6 318/4/6
f 311/4/6 312/4/6 319/4/6
f 319/4/6 312/4/6 320/4/6
f 313/4/6 314/4/6 321/4/6
f 321/4/6 314/4/6 322/4/6
f 315/4/6 316/4/6 323/4/6
f 323/4/6 316/4/6 324/4/6
f 325/4/6 326/4/6 327/4/6
f 327/4/6 326/4/6 328/4/6
