# MagicaVoxel @ Ephtracy

# group
o 

# material
mtllib grandpa walk 2.mtl
usemtl palette

# normals
vn -1 0 0
vn 1 0 0
vn 0 0 1
vn 0 0 -1
vn 0 -1 0
vn 0 1 0

# texcoords
vt 0.0605469 0.5
vt 0.0878906 0.5
vt 0.419922 0.5
vt 0.853516 0.5
vt 0.955078 0.5
vt 0.958984 0.5
vt 0.970703 0.5
vt 0.974609 0.5
vt 0.978516 0.5
vt 0.990234 0.5
vt 0.994141 0.5

# verts
v -1 0.8 0.5
v -1 0.8 0.4
v -1 1 0.5
v -1 1 0.4
v -0.9 0.7 0.5
v -0.9 0.7 0.4
v -0.9 0.8 0.5
v -0.9 0.8 0.4
v -0.9 1 0.5
v -0.9 1 0.4
v -0.9 1.1 0.5
v -0.9 1.1 0.4
v -0.8 0.1 0.5
v -0.8 0.1 0.4
v -0.8 0.2 0.5
v -0.8 0.2 0.4
v -0.8 1.2 0.5
v -0.8 1.2 0.4
v -0.8 1.4 0.5
v -0.8 1.4 0.4
v -0.8 1.6 0.5
v -0.8 1.6 0.4
v -0.8 1.7 0.5
v -0.8 1.7 0.4
v -0.7 0 0.5
v -0.7 0 0.4
v -0.7 0.1 0.5
v -0.7 0.1 0.4
v -0.7 0.2 0.5
v -0.7 0.2 0.4
v -0.7 0.3 0.5
v -0.7 0.3 0.4
v -0.7 0.4 0.5
v -0.7 0.4 0.4
v -0.7 0.5 0.5
v -0.7 0.5 0.4
v -0.7 0.6 0.5
v -0.7 0.6 0.4
v -0.7 0.7 0.5
v -0.7 0.7 0.4
v -0.7 1.1 0.5
v -0.7 1.1 0.4
v -0.7 1.2 0.5
v -0.7 1.2 0.4
v -0.7 1.7 0.5
v -0.7 1.7 0.4
v -0.7 1.8 0.5
v -0.7 1.8 0.4
v -0.6 1 0.5
v -0.6 1 0.4
v -0.6 1.1 0.5
v -0.6 1.1 0.4
v -0.6 1.8 0.5
v -0.6 1.8 0.4
v -0.6 1.9 0.5
v -0.6 1.9 0.4
v -0.0999999 0 0.5
v -0.0999999 0 0.4
v -0.0999999 0.1 0.5
v -0.0999999 0.1 0.4
v -0.7 1 0.5
v -0.7 1 0.4
v -0.7 1.1 0.5
v -0.7 1.1 0.4
v -0.3 0 0.5
v -0.3 0 0.4
v -0.3 0.1 0.5
v -0.3 0.1 0.4
v 0.1 1.8 0.5
v 0.1 1.8 0.4
v 0.1 1.9 0.5
v 0.1 1.9 0.4
v 0.2 1 0.5
v 0.2 1 0.4
v 0.2 1.1 0.5
v 0.2 1.1 0.4
v 0.2 1.7 0.5
v 0.2 1.7 0.4
v 0.2 1.8 0.5
v 0.2 1.8 0.4
v 0.3 0 0.5
v 0.3 0 0.4
v 0.3 0.1 0.5
v 0.3 0.1 0.4
v 0.3 0.2 0.5
v 0.3 0.2 0.4
v 0.3 0.3 0.5
v 0.3 0.3 0.4
v 0.3 0.4 0.5
v 0.3 0.4 0.4
v 0.3 0.5 0.5
v 0.3 0.5 0.4
v 0.3 0.6 0.5
v 0.3 0.6 0.4
v 0.3 1.1 0.5
v 0.3 1.1 0.4
v 0.3 1.2 0.5
v 0.3 1.2 0.4
v 0.3 1.4 0.5
v 0.3 1.4 0.4
v 0.3 1.6 0.5
v 0.3 1.6 0.4
v 0.3 1.7 0.5
v 0.3 1.7 0.4
v 0.4 0.1 0.5
v 0.4 0.1 0.4
v 0.4 0.2 0.5
v 0.4 0.2 0.4
v 0.5 0.6 0.5
v 0.5 0.6 0.4
v 0.5 0.7 0.5
v 0.5 0.7 0.4
v 0.5 0.9 0.5
v 0.5 0.9 0.4
v 0.5 1 0.5
v 0.5 1 0.4
v 0.6 0.7 0.5
v 0.6 0.7 0.4
v 0.6 0.9 0.5
v 0.6 0.9 0.4
v -1 0.8 0.5
v -1 1 0.5
v -0.9 0.7 0.5
v -0.9 0.8 0.5
v -0.9 0.9 0.5
v -0.9 1 0.5
v -0.9 1.1 0.5
v -0.8 0.1 0.5
v -0.8 0.2 0.5
v -0.8 1.2 0.5
v -0.8 1.4 0.5
v -0.8 1.6 0.5
v -0.8 1.7 0.5
v -0.7 0 0.5
v -0.7 0.1 0.5
v -0.7 0.2 0.5
v -0.7 0.3 0.5
v -0.7 0.4 0.5
v -0.7 0.5 0.5
v -0.7 0.6 0.5
v -0.7 0.7 0.5
v -0.7 0.8 0.5
v -0.7 0.9 0.5
v -0.7 1 0.5
v -0.7 1.1 0.5
v -0.7 1.2 0.5
v -0.7 1.4 0.5
v -0.7 1.6 0.5
v -0.7 1.7 0.5
v -0.7 1.8 0.5
v -0.6 0.3 0.5
v -0.6 0.4 0.5
v -0.6 0.5 0.5
v -0.6 0.6 0.5
v -0.6 0.7 0.5
v -0.6 0.8 0.5
v -0.6 0.9 0.5
v -0.6 1 0.5
v -0.6 1.1 0.5
v -0.6 1.7 0.5
v -0.6 1.8 0.5
v -0.6 1.9 0.5
v -0.5 0.3 0.5
v -0.5 0.4 0.5
v -0.5 0.5 0.5
v -0.5 0.6 0.5
v -0.5 0.7 0.5
v -0.5 0.8 0.5
v -0.5 0.9 0.5
v -0.5 1 0.5
v -0.5 1.4 0.5
v -0.5 1.5 0.5
v -0.4 1.2 0.5
v -0.4 1.4 0.5
v -0.4 1.5 0.5
v -0.3 0 0.5
v -0.3 0.1 0.5
v -0.3 0.2 0.5
v -0.3 0.3 0.5
v -0.3 0.9 0.5
v -0.3 1 0.5
v -0.3 1.1 0.5
v -0.3 1.2 0.5
v -0.3 1.4 0.5
v -0.3 1.5 0.5
v -0.3 1.6 0.5
v -0.2 1.2 0.5
v -0.2 1.5 0.5
v -0.0999999 0 0.5
v -0.0999999 0.1 0.5
v -0.0999999 0.2 0.5
v -0.0999999 0.3 0.5
v -0.0999999 1 0.5
v -0.0999999 1.1 0.5
v -0.0999999 1.2 0.5
v -0.0999999 1.4 0.5
v -0.0999999 1.5 0.5
v 1.19209e-007 1.2 0.5
v 1.19209e-007 1.4 0.5
v 1.19209e-007 1.5 0.5
v 0.1 0.3 0.5
v 0.1 0.4 0.5
v 0.1 0.5 0.5
v 0.1 0.6 0.5
v 0.1 0.7 0.5
v 0.1 0.8 0.5
v 0.1 0.9 0.5
v 0.1 1 0.5
v 0.1 1.4 0.5
v 0.1 1.5 0.5
v 0.1 1.7 0.5
v 0.1 1.8 0.5
v 0.1 1.9 0.5
v 0.2 0.3 0.5
v 0.2 0.4 0.5
v 0.2 0.5 0.5
v 0.2 0.6 0.5
v 0.2 0.7 0.5
v 0.2 0.8 0.5
v 0.2 0.9 0.5
v 0.2 1 0.5
v 0.2 1.1 0.5
v 0.2 1.2 0.5
v 0.2 1.4 0.5
v 0.2 1.6 0.5
v 0.2 1.7 0.5
v 0.2 1.8 0.5
v 0.3 0 0.5
v 0.3 0.1 0.5
v 0.3 0.2 0.5
v 0.3 0.3 0.5
v 0.3 0.4 0.5
v 0.3 0.5 0.5
v 0.3 0.6 0.5
v 0.3 0.7 0.5
v 0.3 0.8 0.5
v 0.3 0.9 0.5
v 0.3 1 0.5
v 0.3 1.1 0.5
v 0.3 1.2 0.5
v 0.3 1.4 0.5
v 0.3 1.6 0.5
v 0.3 1.7 0.5
v 0.4 0.1 0.5
v 0.4 0.2 0.5
v 0.5 0.6 0.5
v 0.5 0.7 0.5
v 0.5 0.8 0.5
v 0.5 0.9 0.5
v 0.5 1 0.5
v 0.6 0.7 0.5
v 0.6 0.9 0.5
v -1 0.8 0.4
v -1 1 0.4
v -0.9 0.7 0.4
v -0.9 0.8 0.4
v -0.9 0.9 0.4
v -0.9 1 0.4
v -0.9 1.1 0.4
v -0.8 0.1 0.4
v -0.8 0.2 0.4
v -0.8 1.2 0.4
v -0.8 1.4 0.4
v -0.8 1.6 0.4
v -0.8 1.7 0.4
v -0.7 0 0.4
v -0.7 0.1 0.4
v -0.7 0.2 0.4
v -0.7 0.3 0.4
v -0.7 0.4 0.4
v -0.7 0.5 0.4
v -0.7 0.6 0.4
v -0.7 0.7 0.4
v -0.7 0.8 0.4
v -0.7 0.9 0.4
v -0.7 1 0.4
v -0.7 1.1 0.4
v -0.7 1.2 0.4
v -0.7 1.4 0.4
v -0.7 1.6 0.4
v -0.7 1.7 0.4
v -0.7 1.8 0.4
v -0.6 0.3 0.4
v -0.6 0.4 0.4
v -0.6 0.5 0.4
v -0.6 0.6 0.4
v -0.6 0.7 0.4
v -0.6 0.8 0.4
v -0.6 0.9 0.4
v -0.6 1 0.4
v -0.6 1.1 0.4
v -0.6 1.7 0.4
v -0.6 1.8 0.4
v -0.6 1.9 0.4
v -0.5 0.3 0.4
v -0.5 0.4 0.4
v -0.5 0.5 0.4
v -0.5 0.6 0.4
v -0.5 0.7 0.4
v -0.5 0.8 0.4
v -0.5 0.9 0.4
v -0.5 1 0.4
v -0.5 1.4 0.4
v -0.5 1.5 0.4
v -0.4 1.2 0.4
v -0.4 1.4 0.4
v -0.4 1.5 0.4
v -0.3 0 0.4
v -0.3 0.1 0.4
v -0.3 0.2 0.4
v -0.3 0.3 0.4
v -0.3 0.9 0.4
v -0.3 1 0.4
v -0.3 1.1 0.4
v -0.3 1.2 0.4
v -0.3 1.4 0.4
v -0.3 1.5 0.4
v -0.3 1.6 0.4
v -0.2 1.2 0.4
v -0.2 1.5 0.4
v -0.0999999 0 0.4
v -0.0999999 0.1 0.4
v -0.0999999 0.2 0.4
v -0.0999999 0.3 0.4
v -0.0999999 1 0.4
v -0.0999999 1.1 0.4
v -0.0999999 1.2 0.4
v -0.0999999 1.4 0.4
v -0.0999999 1.5 0.4
v 1.19209e-007 1.2 0.4
v 1.19209e-007 1.4 0.4
v 1.19209e-007 1.5 0.4
v 0.1 0.3 0.4
v 0.1 0.4 0.4
v 0.1 0.5 0.4
v 0.1 0.6 0.4
v 0.1 0.7 0.4
v 0.1 0.8 0.4
v 0.1 0.9 0.4
v 0.1 1 0.4
v 0.1 1.4 0.4
v 0.1 1.5 0.4
v 0.1 1.7 0.4
v 0.1 1.8 0.4
v 0.1 1.9 0.4
v 0.2 0.3 0.4
v 0.2 0.4 0.4
v 0.2 0.5 0.4
v 0.2 0.6 0.4
v 0.2 0.7 0.4
v 0.2 0.8 0.4
v 0.2 0.9 0.4
v 0.2 1 0.4
v 0.2 1.1 0.4
v 0.2 1.2 0.4
v 0.2 1.4 0.4
v 0.2 1.6 0.4
v 0.2 1.7 0.4
v 0.2 1.8 0.4
v 0.3 0 0.4
v 0.3 0.1 0.4
v 0.3 0.2 0.4
v 0.3 0.3 0.4
v 0.3 0.4 0.4
v 0.3 0.5 0.4
v 0.3 0.6 0.4
v 0.3 0.7 0.4
v 0.3 0.8 0.4
v 0.3 0.9 0.4
v 0.3 1 0.4
v 0.3 1.1 0.4
v 0.3 1.2 0.4
v 0.3 1.4 0.4
v 0.3 1.6 0.4
v 0.3 1.7 0.4
v 0.4 0.1 0.4
v 0.4 0.2 0.4
v 0.5 0.6 0.4
v 0.5 0.7 0.4
v 0.5 0.8 0.4
v 0.5 0.9 0.4
v 0.5 1 0.4
v 0.6 0.7 0.4
v 0.6 0.9 0.4
v -0.7 0 0.5
v -0.3 0 0.5
v -0.0999999 0 0.5
v 0.3 0 0.5
v -0.7 0 0.4
v -0.3 0 0.4
v -0.0999999 0 0.4
v 0.3 0 0.4
v -0.8 0.1 0.5
v -0.7 0.1 0.5
v -0.3 0.1 0.5
v -0.0999999 0.1 0.5
v 0.3 0.1 0.5
v 0.4 0.1 0.5
v -0.8 0.1 0.4
v -0.7 0.1 0.4
v -0.3 0.1 0.4
v -0.0999999 0.1 0.4
v 0.3 0.1 0.4
v 0.4 0.1 0.4
v 0.3 0.6 0.5
v 0.5 0.6 0.5
v 0.3 0.6 0.4
v 0.5 0.6 0.4
v -0.9 0.7 0.5
v -0.7 0.7 0.5
v 0.5 0.7 0.5
v 0.6 0.7 0.5
v -0.9 0.7 0.4
v -0.7 0.7 0.4
v 0.5 0.7 0.4
v 0.6 0.7 0.4
v -1 0.8 0.5
v -0.9 0.8 0.5
v -1 0.8 0.4
v -0.9 0.8 0.4
v -0.7 1.1 0.5
v -0.6 1.1 0.5
v 0.2 1.1 0.5
v 0.3 1.1 0.5
v -0.7 1.1 0.4
v -0.6 1.1 0.4
v 0.2 1.1 0.4
v 0.3 1.1 0.4
v -0.8 1.2 0.5
v -0.7 1.2 0.5
v -0.8 1.2 0.4
v -0.7 1.2 0.4
v -0.8 0.2 0.5
v -0.7 0.2 0.5
v 0.3 0.2 0.5
v 0.4 0.2 0.5
v -0.8 0.2 0.4
v -0.7 0.2 0.4
v 0.3 0.2 0.4
v 0.4 0.2 0.4
v 0.5 0.9 0.5
v 0.6 0.9 0.5
v 0.5 0.9 0.4
v 0.6 0.9 0.4
v -1 1 0.5
v -0.9 1 0.5
v -0.7 1 0.5
v -0.6 1 0.5
v 0.2 1 0.5
v 0.3 1 0.5
v 0.5 1 0.5
v -1 1 0.4
v -0.9 1 0.4
v -0.7 1 0.4
v -0.6 1 0.4
v 0.2 1 0.4
v 0.3 1 0.4
v 0.5 1 0.4
v -0.9 1.1 0.5
v -0.7 1.1 0.5
v -0.9 1.1 0.4
v -0.7 1.1 0.4
v -0.8 1.7 0.5
v -0.7 1.7 0.5
v 0.2 1.7 0.5
v 0.3 1.7 0.5
v -0.8 1.7 0.4
v -0.7 1.7 0.4
v 0.2 1.7 0.4
v 0.3 1.7 0.4
v -0.7 1.8 0.5
v -0.6 1.8 0.5
v 0.1 1.8 0.5
v 0.2 1.8 0.5
v -0.7 1.8 0.4
v -0.6 1.8 0.4
v 0.1 1.8 0.4
v 0.2 1.8 0.4
v -0.6 1.9 0.5
v 0.1 1.9 0.5
v -0.6 1.9 0.4
v 0.1 1.9 0.4

# faces
f 3/11/1 2/11/1 1/11/1
f 4/11/1 2/11/1 3/11/1
f 7/11/1 6/11/1 5/11/1
f 8/11/1 6/11/1 7/11/1
f 11/11/1 10/11/1 9/11/1
f 12/11/1 10/11/1 11/11/1
f 15/10/1 14/10/1 13/10/1
f 16/10/1 14/10/1 15/10/1
f 19/9/1 18/9/1 17/9/1
f 20/9/1 18/9/1 19/9/1
f 21/8/1 20/8/1 19/8/1
f 22/8/1 20/8/1 21/8/1
f 23/7/1 22/7/1 21/7/1
f 24/7/1 22/7/1 23/7/1
f 27/10/1 26/10/1 25/10/1
f 28/10/1 26/10/1 27/10/1
f 31/10/1 30/10/1 29/10/1
f 32/10/1 30/10/1 31/10/1
f 33/3/1 32/3/1 31/3/1
f 34/3/1 32/3/1 33/3/1
f 35/4/1 34/4/1 33/4/1
f 36/4/1 34/4/1 35/4/1
f 37/3/1 36/3/1 35/3/1
f 38/3/1 36/3/1 37/3/1
f 39/4/1 38/4/1 37/4/1
f 40/4/1 38/4/1 39/4/1
f 43/1/1 42/1/1 41/1/1
f 44/1/1 42/1/1 43/1/1
f 47/7/1 46/7/1 45/7/1
f 48/7/1 46/7/1 47/7/1
f 51/1/1 50/1/1 49/1/1
f 52/1/1 50/1/1 51/1/1
f 55/2/1 54/2/1 53/2/1
f 56/2/1 54/2/1 55/2/1
f 59/10/1 58/10/1 57/10/1
f 60/10/1 58/10/1 59/10/1
f 61/11/2 62/11/2 63/11/2
f 63/11/2 62/11/2 64/11/2
f 65/10/2 66/10/2 67/10/2
f 67/10/2 66/10/2 68/10/2
f 69/2/2 70/2/2 71/2/2
f 71/2/2 70/2/2 72/2/2
f 73/2/2 74/2/2 75/2/2
f 75/2/2 74/2/2 76/2/2
f 77/7/2 78/7/2 79/7/2
f 79/7/2 78/7/2 80/7/2
f 81/10/2 82/10/2 83/10/2
f 83/10/2 82/10/2 84/10/2
f 85/10/2 86/10/2 87/10/2
f 87/10/2 86/10/2 88/10/2
f 87/3/2 88/3/2 89/3/2
f 89/3/2 88/3/2 90/3/2
f 89/4/2 90/4/2 91/4/2
f 91/4/2 90/4/2 92/4/2
f 91/3/2 92/3/2 93/3/2
f 93/3/2 92/3/2 94/3/2
f 95/2/2 96/2/2 97/2/2
f 97/2/2 96/2/2 98/2/2
f 97/9/2 98/9/2 99/9/2
f 99/9/2 98/9/2 100/9/2
f 99/8/2 100/8/2 101/8/2
f 101/8/2 100/8/2 102/8/2
f 101/7/2 102/7/2 103/7/2
f 103/7/2 102/7/2 104/7/2
f 105/10/2 106/10/2 107/10/2
f 107/10/2 106/10/2 108/10/2
f 109/11/2 110/11/2 111/11/2
f 111/11/2 110/11/2 112/11/2
f 113/11/2 114/11/2 115/11/2
f 115/11/2 114/11/2 116/11/2
f 117/11/2 118/11/2 119/11/2
f 119/11/2 118/11/2 120/11/2
f 124/11/3 122/11/3 121/11/3
f 125/11/3 122/11/3 124/11/3
f 126/11/3 122/11/3 125/11/3
f 135/10/3 129/10/3 128/10/3
f 136/10/3 129/10/3 135/10/3
f 141/11/3 124/11/3 123/11/3
f 142/1/3 125/1/3 124/1/3
f 142/11/3 124/11/3 141/11/3
f 143/2/3 126/2/3 125/2/3
f 143/1/3 125/1/3 142/1/3
f 144/11/3 127/11/3 126/11/3
f 144/2/3 126/2/3 143/2/3
f 145/11/3 127/11/3 144/11/3
f 146/9/3 131/9/3 130/9/3
f 147/8/3 132/8/3 131/8/3
f 147/9/3 131/9/3 146/9/3
f 148/7/3 133/7/3 132/7/3
f 148/8/3 132/8/3 147/8/3
f 149/7/3 133/7/3 148/7/3
f 151/10/3 137/10/3 136/10/3
f 151/3/3 138/3/3 137/3/3
f 152/4/3 139/4/3 138/4/3
f 152/3/3 138/3/3 151/3/3
f 153/3/3 140/3/3 139/3/3
f 153/4/3 139/4/3 152/4/3
f 154/4/3 141/4/3 140/4/3
f 154/3/3 140/3/3 153/3/3
f 155/3/3 142/3/3 141/3/3
f 155/4/3 141/4/3 154/4/3
f 156/1/3 143/1/3 142/1/3
f 156/3/3 142/3/3 155/3/3
f 157/11/3 144/11/3 143/11/3
f 157/1/3 143/1/3 156/1/3
f 158/11/3 144/11/3 157/11/3
f 159/1/3 147/1/3 146/1/3
f 159/1/3 146/1/3 145/1/3
f 159/1/3 148/1/3 147/1/3
f 160/7/3 150/7/3 149/7/3
f 160/2/3 149/2/3 148/2/3
f 161/7/3 150/7/3 160/7/3
f 163/4/3 152/4/3 151/4/3
f 163/10/3 151/10/3 136/10/3
f 164/3/3 153/3/3 152/3/3
f 164/4/3 152/4/3 163/4/3
f 165/4/3 154/4/3 153/4/3
f 165/3/3 153/3/3 164/3/3
f 166/3/3 155/3/3 154/3/3
f 166/4/3 154/4/3 165/4/3
f 167/4/3 156/4/3 155/4/3
f 167/3/3 155/3/3 166/3/3
f 168/3/3 157/3/3 156/3/3
f 168/4/3 156/4/3 167/4/3
f 169/4/3 158/4/3 157/4/3
f 169/3/3 157/3/3 168/3/3
f 170/1/3 159/1/3 158/1/3
f 170/4/3 158/4/3 169/4/3
f 171/1/3 148/1/3 159/1/3
f 171/1/3 159/1/3 170/1/3
f 172/1/3 148/1/3 171/1/3
f 173/1/3 170/1/3 169/1/3
f 173/1/3 171/1/3 170/1/3
f 174/8/3 172/8/3 171/8/3
f 174/1/3 171/1/3 173/1/3
f 175/1/3 148/1/3 172/1/3
f 175/8/3 172/8/3 174/8/3
f 176/10/3 135/10/3 134/10/3
f 177/5/3 136/5/3 135/5/3
f 177/10/3 135/10/3 176/10/3
f 178/10/3 163/10/3 136/10/3
f 178/5/3 136/5/3 177/5/3
f 179/6/3 164/6/3 163/6/3
f 179/10/3 163/10/3 178/10/3
f 179/6/3 165/6/3 164/6/3
f 179/6/3 168/6/3 167/6/3
f 179/6/3 169/6/3 168/6/3
f 179/6/3 167/6/3 166/6/3
f 179/6/3 166/6/3 165/6/3
f 180/1/3 173/1/3 169/1/3
f 180/6/3 169/6/3 179/6/3
f 181/1/3 173/1/3 180/1/3
f 182/1/3 173/1/3 181/1/3
f 183/11/3 174/11/3 173/11/3
f 183/1/3 173/1/3 182/1/3
f 184/7/3 175/7/3 174/7/3
f 184/11/3 174/11/3 183/11/3
f 185/1/3 148/1/3 175/1/3
f 185/7/3 175/7/3 184/7/3
f 186/2/3 162/2/3 161/2/3
f 186/1/3 148/1/3 185/1/3
f 186/2/3 160/2/3 148/2/3
f 186/2/3 161/2/3 160/2/3
f 187/1/3 185/1/3 184/1/3
f 187/2/3 183/2/3 182/2/3
f 187/1/3 184/1/3 183/1/3
f 188/2/3 186/2/3 185/2/3
f 188/1/3 185/1/3 187/1/3
f 190/10/3 178/10/3 177/10/3
f 191/4/3 179/4/3 178/4/3
f 191/10/3 178/10/3 190/10/3
f 192/6/3 180/6/3 179/6/3
f 192/4/3 179/4/3 191/4/3
f 193/2/3 181/2/3 180/2/3
f 193/11/3 182/11/3 181/11/3
f 194/2/3 187/2/3 182/2/3
f 194/11/3 182/11/3 193/11/3
f 194/2/3 188/2/3 187/2/3
f 195/2/3 188/2/3 194/2/3
f 196/2/3 188/2/3 195/2/3
f 197/2/3 186/2/3 188/2/3
f 197/2/3 188/2/3 196/2/3
f 198/11/3 196/11/3 195/11/3
f 198/2/3 194/2/3 193/2/3
f 198/2/3 195/2/3 194/2/3
f 199/7/3 197/7/3 196/7/3
f 199/11/3 196/11/3 198/11/3
f 200/2/3 186/2/3 197/2/3
f 200/7/3 197/7/3 199/7/3
f 201/6/3 180/6/3 192/6/3
f 201/10/3 192/10/3 191/10/3
f 202/6/3 180/6/3 201/6/3
f 203/6/3 180/6/3 202/6/3
f 204/6/3 180/6/3 203/6/3
f 205/6/3 180/6/3 204/6/3
f 206/6/3 180/6/3 205/6/3
f 207/2/3 193/2/3 180/2/3
f 207/6/3 180/6/3 206/6/3
f 207/2/3 199/2/3 198/2/3
f 207/2/3 198/2/3 193/2/3
f 208/2/3 199/2/3 207/2/3
f 209/8/3 200/8/3 199/8/3
f 209/2/3 199/2/3 208/2/3
f 210/2/3 186/2/3 200/2/3
f 210/8/3 200/8/3 209/8/3
f 211/2/3 162/2/3 186/2/3
f 211/2/3 186/2/3 210/2/3
f 212/2/3 162/2/3 211/2/3
f 213/2/3 162/2/3 212/2/3
f 214/10/3 201/10/3 191/10/3
f 214/4/3 202/4/3 201/4/3
f 215/3/3 203/3/3 202/3/3
f 215/4/3 202/4/3 214/4/3
f 216/4/3 204/4/3 203/4/3
f 216/3/3 203/3/3 215/3/3
f 217/3/3 205/3/3 204/3/3
f 217/4/3 204/4/3 216/4/3
f 218/4/3 206/4/3 205/4/3
f 218/3/3 205/3/3 217/3/3
f 219/3/3 207/3/3 206/3/3
f 219/4/3 206/4/3 218/4/3
f 220/4/3 208/4/3 207/4/3
f 220/3/3 207/3/3 219/3/3
f 221/2/3 210/2/3 209/2/3
f 221/4/3 208/4/3 220/4/3
f 221/2/3 209/2/3 208/2/3
f 221/2/3 211/2/3 210/2/3
f 222/2/3 211/2/3 221/2/3
f 223/2/3 211/2/3 222/2/3
f 224/2/3 211/2/3 223/2/3
f 225/2/3 211/2/3 224/2/3
f 226/7/3 212/7/3 211/7/3
f 226/2/3 211/2/3 225/2/3
f 227/7/3 212/7/3 226/7/3
f 228/10/3 190/10/3 189/10/3
f 229/5/3 191/5/3 190/5/3
f 229/10/3 190/10/3 228/10/3
f 230/10/3 214/10/3 191/10/3
f 230/5/3 191/5/3 229/5/3
f 231/3/3 215/3/3 214/3/3
f 231/10/3 214/10/3 230/10/3
f 232/4/3 216/4/3 215/4/3
f 232/3/3 215/3/3 231/3/3
f 233/3/3 217/3/3 216/3/3
f 233/4/3 216/4/3 232/4/3
f 234/4/3 218/4/3 217/4/3
f 234/3/3 217/3/3 233/3/3
f 235/1/3 219/1/3 218/1/3
f 235/4/3 218/4/3 234/4/3
f 236/11/3 220/11/3 219/11/3
f 236/1/3 219/1/3 235/1/3
f 237/3/3 221/3/3 220/3/3
f 237/11/3 220/11/3 236/11/3
f 238/3/3 221/3/3 237/3/3
f 239/2/3 223/2/3 222/2/3
f 240/9/3 224/9/3 223/9/3
f 240/2/3 223/2/3 239/2/3
f 241/8/3 225/8/3 224/8/3
f 241/9/3 224/9/3 240/9/3
f 242/7/3 226/7/3 225/7/3
f 242/8/3 225/8/3 241/8/3
f 243/7/3 226/7/3 242/7/3
f 244/10/3 230/10/3 229/10/3
f 245/10/3 230/10/3 244/10/3
f 246/11/3 235/11/3 234/11/3
f 247/1/3 236/1/3 235/1/3
f 247/11/3 235/11/3 246/11/3
f 248/2/3 237/2/3 236/2/3
f 248/1/3 236/1/3 247/1/3
f 249/11/3 238/11/3 237/11/3
f 249/2/3 237/2/3 248/2/3
f 250/11/3 238/11/3 249/11/3
f 251/11/3 248/11/3 247/11/3
f 251/11/3 249/11/3 248/11/3
f 252/11/3 249/11/3 251/11/3
f 253/11/4 254/11/4 256/11/4
f 256/11/4 254/11/4 257/11/4
f 257/11/4 254/11/4 258/11/4
f 260/10/4 261/10/4 267/10/4
f 267/10/4 261/10/4 268/10/4
f 255/11/4 256/11/4 273/11/4
f 256/1/4 257/1/4 274/1/4
f 273/11/4 256/11/4 274/11/4
f 257/2/4 258/2/4 275/2/4
f 274/1/4 257/1/4 275/1/4
f 258/11/4 259/11/4 276/11/4
f 275/2/4 258/2/4 276/2/4
f 276/11/4 259/11/4 277/11/4
f 262/9/4 263/9/4 278/9/4
f 263/8/4 264/8/4 279/8/4
f 278/9/4 263/9/4 279/9/4
f 264/7/4 265/7/4 280/7/4
f 279/8/4 264/8/4 280/8/4
f 280/7/4 265/7/4 281/7/4
f 268/10/4 269/10/4 283/10/4
f 269/3/4 270/3/4 283/3/4
f 270/4/4 271/4/4 284/4/4
f 283/3/4 270/3/4 284/3/4
f 271/3/4 272/3/4 285/3/4
f 284/4/4 271/4/4 285/4/4
f 272/4/4 273/4/4 286/4/4
f 285/3/4 272/3/4 286/3/4
f 273/3/4 274/3/4 287/3/4
f 286/4/4 273/4/4 287/4/4
f 274/1/4 275/1/4 288/1/4
f 287/3/4 274/3/4 288/3/4
f 275/11/4 276/11/4 289/11/4
f 288/1/4 275/1/4 289/1/4
f 289/11/4 276/11/4 290/11/4
f 278/1/4 279/1/4 291/1/4
f 277/1/4 278/1/4 291/1/4
f 279/1/4 280/1/4 291/1/4
f 281/7/4 282/7/4 292/7/4
f 280/2/4 281/2/4 292/2/4
f 292/7/4 282/7/4 293/7/4
f 283/4/4 284/4/4 295/4/4
f 268/10/4 283/10/4 295/10/4
f 284/3/4 285/3/4 296/3/4
f 295/4/4 284/4/4 296/4/4
f 285/4/4 286/4/4 297/4/4
f 296/3/4 285/3/4 297/3/4
f 286/3/4 287/3/4 298/3/4
f 297/4/4 286/4/4 298/4/4
f 287/4/4 288/4/4 299/4/4
f 298/3/4 287/3/4 299/3/4
f 288/3/4 289/3/4 300/3/4
f 299/4/4 288/4/4 300/4/4
f 289/4/4 290/4/4 301/4/4
f 300/3/4 289/3/4 301/3/4
f 290/1/4 291/1/4 302/1/4
f 301/4/4 290/4/4 302/4/4
f 291/1/4 280/1/4 303/1/4
f 302/1/4 291/1/4 303/1/4
f 303/1/4 280/1/4 304/1/4
f 301/1/4 302/1/4 305/1/4
f 302/1/4 303/1/4 305/1/4
f 303/8/4 304/8/4 306/8/4
f 305/1/4 303/1/4 306/1/4
f 304/1/4 280/1/4 307/1/4
f 306/8/4 304/8/4 307/8/4
f 266/10/4 267/10/4 308/10/4
f 267/5/4 268/5/4 309/5/4
f 308/10/4 267/10/4 309/10/4
f 268/10/4 295/10/4 310/10/4
f 309/5/4 268/5/4 310/5/4
f 295/6/4 296/6/4 311/6/4
f 310/10/4 295/10/4 311/10/4
f 296/6/4 297/6/4 311/6/4
f 299/6/4 300/6/4 311/6/4
f 300/6/4 301/6/4 311/6/4
f 298/6/4 299/6/4 311/6/4
f 297/6/4 298/6/4 311/6/4
f 301/1/4 305/1/4 312/1/4
f 311/6/4 301/6/4 312/6/4
f 312/1/4 305/1/4 313/1/4
f 313/1/4 305/1/4 314/1/4
f 305/11/4 306/11/4 315/11/4
f 314/1/4 305/1/4 315/1/4
f 306/7/4 307/7/4 316/7/4
f 315/11/4 306/11/4 316/11/4
f 307/1/4 280/1/4 317/1/4
f 316/7/4 307/7/4 317/7/4
f 293/2/4 294/2/4 318/2/4
f 317/1/4 280/1/4 318/1/4
f 280/2/4 292/2/4 318/2/4
f 292/2/4 293/2/4 318/2/4
f 316/1/4 317/1/4 319/1/4
f 314/2/4 315/2/4 319/2/4
f 315/1/4 316/1/4 319/1/4
f 317/2/4 318/2/4 320/2/4
f 319/1/4 317/1/4 320/1/4
f 309/10/4 310/10/4 322/10/4
f 310/4/4 311/4/4 323/4/4
f 322/10/4 310/10/4 323/10/4
f 311/6/4 312/6/4 324/6/4
f 323/4/4 311/4/4 324/4/4
f 312/2/4 313/2/4 325/2/4
f 313/11/4 314/11/4 325/11/4
f 314/2/4 319/2/4 326/2/4
f 325/11/4 314/11/4 326/11/4
f 319/2/4 320/2/4 326/2/4
f 326/2/4 320/2/4 327/2/4
f 327/2/4 320/2/4 328/2/4
f 320/2/4 318/2/4 329/2/4
f 328/2/4 320/2/4 329/2/4
f 327/11/4 328/11/4 330/11/4
f 325/2/4 326/2/4 330/2/4
f 326/2/4 327/2/4 330/2/4
f 328/7/4 329/7/4 331/7/4
f 330/11/4 328/11/4 331/11/4
f 329/2/4 318/2/4 332/2/4
f 331/7/4 329/7/4 332/7/4
f 324/6/4 312/6/4 333/6/4
f 323/10/4 324/10/4 333/10/4
f 333/6/4 312/6/4 334/6/4
f 334/6/4 312/6/4 335/6/4
f 335/6/4 312/6/4 336/6/4
f 336/6/4 312/6/4 337/6/4
f 337/6/4 312/6/4 338/6/4
f 312/2/4 325/2/4 339/2/4
f 338/6/4 312/6/4 339/6/4
f 330/2/4 331/2/4 339/2/4
f 325/2/4 330/2/4 339/2/4
f 339/2/4 331/2/4 340/2/4
f 331/8/4 332/8/4 341/8/4
f 340/2/4 331/2/4 341/2/4
f 332/2/4 318/2/4 342/2/4
f 341/8/4 332/8/4 342/8/4
f 318/2/4 294/2/4 343/2/4
f 342/2/4 318/2/4 343/2/4
f 343/2/4 294/2/4 344/2/4
f 344/2/4 294/2/4 345/2/4
f 323/10/4 333/10/4 346/10/4
f 333/4/4 334/4/4 346/4/4
f 334/3/4 335/3/4 347/3/4
f 346/4/4 334/4/4 347/4/4
f 335/4/4 336/4/4 348/4/4
f 347/3/4 335/3/4 348/3/4
f 336/3/4 337/3/4 349/3/4
f 348/4/4 336/4/4 349/4/4
f 337/4/4 338/4/4 350/4/4
f 349/3/4 337/3/4 350/3/4
f 338/3/4 339/3/4 351/3/4
f 350/4/4 338/4/4 351/4/4
f 339/4/4 340/4/4 352/4/4
f 351/3/4 339/3/4 352/3/4
f 341/2/4 342/2/4 353/2/4
f 352/4/4 340/4/4 353/4/4
f 340/2/4 341/2/4 353/2/4
f 342/2/4 343/2/4 353/2/4
f 353/2/4 343/2/4 354/2/4
f 354/2/4 343/2/4 355/2/4
f 355/2/4 343/2/4 356/2/4
f 356/2/4 343/2/4 357/2/4
f 343/7/4 344/7/4 358/7/4
f 357/2/4 343/2/4 358/2/4
f 358/7/4 344/7/4 359/7/4
f 321/10/4 322/10/4 360/10/4
f 322/5/4 323/5/4 361/5/4
f 360/10/4 322/10/4 361/10/4
f 323/10/4 346/10/4 362/10/4
f 361/5/4 323/5/4 362/5/4
f 346/3/4 347/3/4 363/3/4
f 362/10/4 346/10/4 363/10/4
f 347/4/4 348/4/4 364/4/4
f 363/3/4 347/3/4 364/3/4
f 348/3/4 349/3/4 365/3/4
f 364/4/4 348/4/4 365/4/4
f 349/4/4 350/4/4 366/4/4
f 365/3/4 349/3/4 366/3/4
f 350/1/4 351/1/4 367/1/4
f 366/4/4 350/4/4 367/4/4
f 351/11/4 352/11/4 368/11/4
f 367/1/4 351/1/4 368/1/4
f 352/3/4 353/3/4 369/3/4
f 368/11/4 352/11/4 369/11/4
f 369/3/4 353/3/4 370/3/4
f 354/2/4 355/2/4 371/2/4
f 355/9/4 356/9/4 372/9/4
f 371/2/4 355/2/4 372/2/4
f 356/8/4 357/8/4 373/8/4
f 372/9/4 356/9/4 373/9/4
f 357/7/4 358/7/4 374/7/4
f 373/8/4 357/8/4 374/8/4
f 374/7/4 358/7/4 375/7/4
f 361/10/4 362/10/4 376/10/4
f 376/10/4 362/10/4 377/10/4
f 366/11/4 367/11/4 378/11/4
f 367/1/4 368/1/4 379/1/4
f 378/11/4 367/11/4 379/11/4
f 368/2/4 369/2/4 380/2/4
f 379/1/4 368/1/4 380/1/4
f 369/11/4 370/11/4 381/11/4
f 380/2/4 369/2/4 381/2/4
f 381/11/4 370/11/4 382/11/4
f 379/11/4 380/11/4 383/11/4
f 380/11/4 381/11/4 383/11/4
f 383/11/4 381/11/4 384/11/4
f 389/10/5 386/10/5 385/10/5
f 390/10/5 386/10/5 389/10/5
f 391/10/5 388/10/5 387/10/5
f 392/10/5 388/10/5 391/10/5
f 399/10/5 394/10/5 393/10/5
f 400/10/5 394/10/5 399/10/5
f 401/10/5 396/10/5 395/10/5
f 402/10/5 396/10/5 401/10/5
f 403/10/5 398/10/5 397/10/5
f 404/10/5 398/10/5 403/10/5
f 407/11/5 406/11/5 405/11/5
f 408/11/5 406/11/5 407/11/5
f 413/11/5 410/11/5 409/11/5
f 414/11/5 410/11/5 413/11/5
f 415/11/5 412/11/5 411/11/5
f 416/11/5 412/11/5 415/11/5
f 419/11/5 418/11/5 417/11/5
f 420/11/5 418/11/5 419/11/5
f 425/1/5 422/1/5 421/1/5
f 426/1/5 422/1/5 425/1/5
f 427/2/5 424/2/5 423/2/5
f 428/2/5 424/2/5 427/2/5
f 431/9/5 430/9/5 429/9/5
f 432/9/5 430/9/5 431/9/5
f 433/10/6 434/10/6 437/10/6
f 437/10/6 434/10/6 438/10/6
f 435/10/6 436/10/6 439/10/6
f 439/10/6 436/10/6 440/10/6
f 441/11/6 442/11/6 443/11/6
f 443/11/6 442/11/6 444/11/6
f 445/11/6 446/11/6 452/11/6
f 452/11/6 446/11/6 453/11/6
f 447/11/6 448/11/6 454/11/6
f 454/11/6 448/11/6 455/11/6
f 449/3/6 450/3/6 456/3/6
f 450/11/6 451/11/6 457/11/6
f 456/3/6 450/3/6 457/3/6
f 457/11/6 451/11/6 458/11/6
f 459/11/6 460/11/6 461/11/6
f 461/11/6 460/11/6 462/11/6
f 463/7/6 464/7/6 467/7/6
f 467/7/6 464/7/6 468/7/6
f 465/7/6 466/7/6 469/7/6
f 469/7/6 466/7/6 470/7/6
f 471/7/6 472/7/6 475/7/6
f 475/7/6 472/7/6 476/7/6
f 473/7/6 474/7/6 477/7/6
f 477/7/6 474/7/6 478/7/6
f 479/2/6 480/2/6 481/2/6
f 481/2/6 480/2/6 482/2/6
