# MagicaVoxel @ Ephtracy

# group
o 

# material
mtllib grandpa walk 1.mtl
usemtl palette

# normals
vn -1 0 0
vn 1 0 0
vn 0 0 1
vn 0 0 -1
vn 0 -1 0
vn 0 1 0

# texcoords
vt 0.0605469 0.5
vt 0.0878906 0.5
vt 0.419922 0.5
vt 0.853516 0.5
vt 0.951172 0.5
vt 0.955078 0.5
vt 0.958984 0.5
vt 0.970703 0.5
vt 0.974609 0.5
vt 0.978516 0.5
vt 0.990234 0.5
vt 0.994141 0.5

# verts
v -1 0.8 0.5
v -1 0.8 0.4
v -1 1 0.5
v -1 1 0.4
v -0.9 0.7 0.5
v -0.9 0.7 0.4
v -0.9 0.8 0.5
v -0.9 0.8 0.4
v -0.9 1 0.5
v -0.9 1 0.4
v -0.9 1.1 0.5
v -0.9 1.1 0.4
v -0.8 0.1 0.5
v -0.8 0.1 0.4
v -0.8 0.3 0.5
v -0.8 0.3 0.4
v -0.8 1.3 0.5
v -0.8 1.3 0.4
v -0.8 1.5 0.5
v -0.8 1.5 0.4
v -0.8 1.7 0.5
v -0.8 1.7 0.4
v -0.8 1.8 0.5
v -0.8 1.8 0.4
v -0.7 0 0.5
v -0.7 0 0.4
v -0.7 0.1 0.5
v -0.7 0.1 0.4
v -0.7 0.3 0.5
v -0.7 0.3 0.4
v -0.7 0.4 0.5
v -0.7 0.4 0.4
v -0.7 0.5 0.5
v -0.7 0.5 0.4
v -0.7 0.6 0.5
v -0.7 0.6 0.4
v -0.7 0.7 0.5
v -0.7 0.7 0.4
v -0.7 1.2 0.5
v -0.7 1.2 0.4
v -0.7 1.3 0.5
v -0.7 1.3 0.4
v -0.7 1.8 0.5
v -0.7 1.8 0.4
v -0.7 1.9 0.5
v -0.7 1.9 0.4
v -0.6 1.1 0.5
v -0.6 1.1 0.4
v -0.6 1.2 0.5
v -0.6 1.2 0.4
v -0.6 1.9 0.5
v -0.6 1.9 0.4
v -0.6 2 0.5
v -0.6 2 0.4
v -0.0999999 0 0.5
v -0.0999999 0 0.4
v -0.0999999 0.1 0.5
v -0.0999999 0.1 0.4
v 0.3 1.1 0.5
v 0.3 1.1 0.4
v 0.3 1.2 0.5
v 0.3 1.2 0.4
v -0.3 0 0.5
v -0.3 0 0.4
v -0.3 0.1 0.5
v -0.3 0.1 0.4
v 0.1 1.9 0.5
v 0.1 1.9 0.4
v 0.1 2 0.5
v 0.1 2 0.4
v 0.2 1.1 0.5
v 0.2 1.1 0.4
v 0.2 1.2 0.5
v 0.2 1.2 0.4
v 0.2 1.8 0.5
v 0.2 1.8 0.4
v 0.2 1.9 0.5
v 0.2 1.9 0.4
v 0.3 0 0.5
v 0.3 0 0.4
v 0.3 0.1 0.5
v 0.3 0.1 0.4
v 0.3 0.3 0.5
v 0.3 0.3 0.4
v 0.3 0.4 0.5
v 0.3 0.4 0.4
v 0.3 0.5 0.5
v 0.3 0.5 0.4
v 0.3 0.6 0.5
v 0.3 0.6 0.4
v 0.3 0.7 0.5
v 0.3 0.7 0.4
v 0.3 0.8 0.5
v 0.3 0.8 0.4
v 0.3 1.2 0.5
v 0.3 1.2 0.4
v 0.3 1.3 0.5
v 0.3 1.3 0.4
v 0.3 1.5 0.5
v 0.3 1.5 0.4
v 0.3 1.7 0.5
v 0.3 1.7 0.4
v 0.3 1.8 0.5
v 0.3 1.8 0.4
v 0.4 0.1 0.5
v 0.4 0.1 0.4
v 0.4 0.3 0.5
v 0.4 0.3 0.4
v 0.5 0.8 0.5
v 0.5 0.8 0.4
v 0.5 0.9 0.5
v 0.5 0.9 0.4
v 0.5 1.1 0.5
v 0.5 1.1 0.4
v 0.5 1.2 0.5
v 0.5 1.2 0.4
v 0.6 0.9 0.5
v 0.6 0.9 0.4
v 0.6 1.1 0.5
v 0.6 1.1 0.4
v -1 0.8 0.5
v -1 1 0.5
v -0.9 0.7 0.5
v -0.9 0.8 0.5
v -0.9 0.9 0.5
v -0.9 1 0.5
v -0.9 1.1 0.5
v -0.8 0.1 0.5
v -0.8 0.3 0.5
v -0.8 1.3 0.5
v -0.8 1.5 0.5
v -0.8 1.7 0.5
v -0.8 1.8 0.5
v -0.7 0 0.5
v -0.7 0.1 0.5
v -0.7 0.2 0.5
v -0.7 0.3 0.5
v -0.7 0.4 0.5
v -0.7 0.5 0.5
v -0.7 0.6 0.5
v -0.7 0.7 0.5
v -0.7 0.8 0.5
v -0.7 0.9 0.5
v -0.7 1 0.5
v -0.7 1.1 0.5
v -0.7 1.2 0.5
v -0.7 1.3 0.5
v -0.7 1.5 0.5
v -0.7 1.7 0.5
v -0.7 1.8 0.5
v -0.7 1.9 0.5
v -0.6 0.4 0.5
v -0.6 0.5 0.5
v -0.6 0.6 0.5
v -0.6 0.7 0.5
v -0.6 0.8 0.5
v -0.6 0.9 0.5
v -0.6 1 0.5
v -0.6 1.1 0.5
v -0.6 1.2 0.5
v -0.6 1.8 0.5
v -0.6 1.9 0.5
v -0.6 2 0.5
v -0.5 0.4 0.5
v -0.5 0.5 0.5
v -0.5 0.6 0.5
v -0.5 0.7 0.5
v -0.5 0.8 0.5
v -0.5 0.9 0.5
v -0.5 1 0.5
v -0.5 1.1 0.5
v -0.5 1.5 0.5
v -0.5 1.6 0.5
v -0.4 1.3 0.5
v -0.4 1.5 0.5
v -0.4 1.6 0.5
v -0.3 0 0.5
v -0.3 0.1 0.5
v -0.3 0.2 0.5
v -0.3 0.3 0.5
v -0.3 0.4 0.5
v -0.3 1 0.5
v -0.3 1.1 0.5
v -0.3 1.2 0.5
v -0.3 1.3 0.5
v -0.3 1.5 0.5
v -0.3 1.6 0.5
v -0.3 1.7 0.5
v -0.2 1.3 0.5
v -0.2 1.6 0.5
v -0.0999999 0 0.5
v -0.0999999 0.1 0.5
v -0.0999999 0.2 0.5
v -0.0999999 0.3 0.5
v -0.0999999 0.4 0.5
v -0.0999999 1.1 0.5
v -0.0999999 1.2 0.5
v -0.0999999 1.3 0.5
v -0.0999999 1.5 0.5
v -0.0999999 1.6 0.5
v 1.19209e-007 1.3 0.5
v 1.19209e-007 1.5 0.5
v 1.19209e-007 1.6 0.5
v 0.1 0.4 0.5
v 0.1 0.5 0.5
v 0.1 0.6 0.5
v 0.1 0.7 0.5
v 0.1 0.8 0.5
v 0.1 0.9 0.5
v 0.1 1 0.5
v 0.1 1.1 0.5
v 0.1 1.5 0.5
v 0.1 1.6 0.5
v 0.1 1.8 0.5
v 0.1 1.9 0.5
v 0.1 2 0.5
v 0.2 0.4 0.5
v 0.2 0.5 0.5
v 0.2 0.6 0.5
v 0.2 0.7 0.5
v 0.2 0.8 0.5
v 0.2 0.9 0.5
v 0.2 1 0.5
v 0.2 1.1 0.5
v 0.2 1.2 0.5
v 0.2 1.3 0.5
v 0.2 1.5 0.5
v 0.2 1.7 0.5
v 0.2 1.8 0.5
v 0.2 1.9 0.5
v 0.3 0 0.5
v 0.3 0.1 0.5
v 0.3 0.2 0.5
v 0.3 0.3 0.5
v 0.3 0.4 0.5
v 0.3 0.5 0.5
v 0.3 0.6 0.5
v 0.3 0.7 0.5
v 0.3 0.8 0.5
v 0.3 0.9 0.5
v 0.3 1 0.5
v 0.3 1.1 0.5
v 0.3 1.2 0.5
v 0.3 1.3 0.5
v 0.3 1.5 0.5
v 0.3 1.7 0.5
v 0.3 1.8 0.5
v 0.4 0.1 0.5
v 0.4 0.3 0.5
v 0.5 0.8 0.5
v 0.5 0.9 0.5
v 0.5 1 0.5
v 0.5 1.1 0.5
v 0.5 1.2 0.5
v 0.6 0.9 0.5
v 0.6 1.1 0.5
v -1 0.8 0.4
v -1 1 0.4
v -0.9 0.7 0.4
v -0.9 0.8 0.4
v -0.9 0.9 0.4
v -0.9 1 0.4
v -0.9 1.1 0.4
v -0.8 0.1 0.4
v -0.8 0.3 0.4
v -0.8 1.3 0.4
v -0.8 1.5 0.4
v -0.8 1.7 0.4
v -0.8 1.8 0.4
v -0.7 0 0.4
v -0.7 0.1 0.4
v -0.7 0.2 0.4
v -0.7 0.3 0.4
v -0.7 0.4 0.4
v -0.7 0.5 0.4
v -0.7 0.6 0.4
v -0.7 0.7 0.4
v -0.7 0.8 0.4
v -0.7 0.9 0.4
v -0.7 1 0.4
v -0.7 1.1 0.4
v -0.7 1.2 0.4
v -0.7 1.3 0.4
v -0.7 1.5 0.4
v -0.7 1.7 0.4
v -0.7 1.8 0.4
v -0.7 1.9 0.4
v -0.6 0.4 0.4
v -0.6 0.5 0.4
v -0.6 0.6 0.4
v -0.6 0.7 0.4
v -0.6 0.8 0.4
v -0.6 0.9 0.4
v -0.6 1 0.4
v -0.6 1.1 0.4
v -0.6 1.2 0.4
v -0.6 1.8 0.4
v -0.6 1.9 0.4
v -0.6 2 0.4
v -0.5 0.4 0.4
v -0.5 0.5 0.4
v -0.5 0.6 0.4
v -0.5 0.7 0.4
v -0.5 0.8 0.4
v -0.5 0.9 0.4
v -0.5 1 0.4
v -0.5 1.1 0.4
v -0.5 1.5 0.4
v -0.5 1.6 0.4
v -0.4 1.3 0.4
v -0.4 1.5 0.4
v -0.4 1.6 0.4
v -0.3 0 0.4
v -0.3 0.1 0.4
v -0.3 0.2 0.4
v -0.3 0.3 0.4
v -0.3 0.4 0.4
v -0.3 1 0.4
v -0.3 1.1 0.4
v -0.3 1.2 0.4
v -0.3 1.3 0.4
v -0.3 1.5 0.4
v -0.3 1.6 0.4
v -0.3 1.7 0.4
v -0.2 1.3 0.4
v -0.2 1.6 0.4
v -0.0999999 0 0.4
v -0.0999999 0.1 0.4
v -0.0999999 0.2 0.4
v -0.0999999 0.3 0.4
v -0.0999999 0.4 0.4
v -0.0999999 1.1 0.4
v -0.0999999 1.2 0.4
v -0.0999999 1.3 0.4
v -0.0999999 1.5 0.4
v -0.0999999 1.6 0.4
v 1.19209e-007 1.3 0.4
v 1.19209e-007 1.5 0.4
v 1.19209e-007 1.6 0.4
v 0.1 0.4 0.4
v 0.1 0.5 0.4
v 0.1 0.6 0.4
v 0.1 0.7 0.4
v 0.1 0.8 0.4
v 0.1 0.9 0.4
v 0.1 1 0.4
v 0.1 1.1 0.4
v 0.1 1.5 0.4
v 0.1 1.6 0.4
v 0.1 1.8 0.4
v 0.1 1.9 0.4
v 0.1 2 0.4
v 0.2 0.4 0.4
v 0.2 0.5 0.4
v 0.2 0.6 0.4
v 0.2 0.7 0.4
v 0.2 0.8 0.4
v 0.2 0.9 0.4
v 0.2 1 0.4
v 0.2 1.1 0.4
v 0.2 1.2 0.4
v 0.2 1.3 0.4
v 0.2 1.5 0.4
v 0.2 1.7 0.4
v 0.2 1.8 0.4
v 0.2 1.9 0.4
v 0.3 0 0.4
v 0.3 0.1 0.4
v 0.3 0.2 0.4
v 0.3 0.3 0.4
v 0.3 0.4 0.4
v 0.3 0.5 0.4
v 0.3 0.6 0.4
v 0.3 0.7 0.4
v 0.3 0.8 0.4
v 0.3 0.9 0.4
v 0.3 1 0.4
v 0.3 1.1 0.4
v 0.3 1.2 0.4
v 0.3 1.3 0.4
v 0.3 1.5 0.4
v 0.3 1.7 0.4
v 0.3 1.8 0.4
v 0.4 0.1 0.4
v 0.4 0.3 0.4
v 0.5 0.8 0.4
v 0.5 0.9 0.4
v 0.5 1 0.4
v 0.5 1.1 0.4
v 0.5 1.2 0.4
v 0.6 0.9 0.4
v 0.6 1.1 0.4
v -0.7 0 0.5
v -0.3 0 0.5
v -0.0999999 0 0.5
v 0.3 0 0.5
v -0.7 0 0.4
v -0.3 0 0.4
v -0.0999999 0 0.4
v 0.3 0 0.4
v -0.8 0.1 0.5
v -0.7 0.1 0.5
v -0.3 0.1 0.5
v -0.0999999 0.1 0.5
v 0.3 0.1 0.5
v 0.4 0.1 0.5
v -0.8 0.1 0.4
v -0.7 0.1 0.4
v -0.3 0.1 0.4
v -0.0999999 0.1 0.4
v 0.3 0.1 0.4
v 0.4 0.1 0.4
v -0.9 0.7 0.5
v -0.7 0.7 0.5
v -0.9 0.7 0.4
v -0.7 0.7 0.4
v -1 0.8 0.5
v -0.9 0.8 0.5
v 0.3 0.8 0.5
v 0.5 0.8 0.5
v -1 0.8 0.4
v -0.9 0.8 0.4
v 0.3 0.8 0.4
v 0.5 0.8 0.4
v 0.5 0.9 0.5
v 0.6 0.9 0.5
v 0.5 0.9 0.4
v 0.6 0.9 0.4
v -0.7 1.2 0.5
v -0.6 1.2 0.5
v 0.2 1.2 0.5
v 0.3 1.2 0.5
v -0.7 1.2 0.4
v -0.6 1.2 0.4
v 0.2 1.2 0.4
v 0.3 1.2 0.4
v -0.8 1.3 0.5
v -0.7 1.3 0.5
v -0.8 1.3 0.4
v -0.7 1.3 0.4
v -0.8 0.3 0.5
v -0.7 0.3 0.5
v 0.3 0.3 0.5
v 0.4 0.3 0.5
v -0.8 0.3 0.4
v -0.7 0.3 0.4
v 0.3 0.3 0.4
v 0.4 0.3 0.4
v -1 1 0.5
v -0.9 1 0.5
v -1 1 0.4
v -0.9 1 0.4
v -0.9 1.1 0.5
v -0.7 1.1 0.5
v -0.6 1.1 0.5
v 0.2 1.1 0.5
v 0.3 1.1 0.5
v 0.5 1.1 0.5
v 0.6 1.1 0.5
v -0.9 1.1 0.4
v -0.7 1.1 0.4
v -0.6 1.1 0.4
v 0.2 1.1 0.4
v 0.3 1.1 0.4
v 0.5 1.1 0.4
v 0.6 1.1 0.4
v 0.3 1.2 0.5
v 0.5 1.2 0.5
v 0.3 1.2 0.4
v 0.5 1.2 0.4
v -0.8 1.8 0.5
v -0.7 1.8 0.5
v 0.2 1.8 0.5
v 0.3 1.8 0.5
v -0.8 1.8 0.4
v -0.7 1.8 0.4
v 0.2 1.8 0.4
v 0.3 1.8 0.4
v -0.7 1.9 0.5
v -0.6 1.9 0.5
v 0.1 1.9 0.5
v 0.2 1.9 0.5
v -0.7 1.9 0.4
v -0.6 1.9 0.4
v 0.1 1.9 0.4
v 0.2 1.9 0.4
v -0.6 2 0.5
v 0.1 2 0.5
v -0.6 2 0.4
v 0.1 2 0.4

# faces
f 3/12/1 2/12/1 1/12/1
f 4/12/1 2/12/1 3/12/1
f 7/12/1 6/12/1 5/12/1
f 8/12/1 6/12/1 7/12/1
f 11/12/1 10/12/1 9/12/1
f 12/12/1 10/12/1 11/12/1
f 15/11/1 14/11/1 13/11/1
f 16/11/1 14/11/1 15/11/1
f 19/10/1 18/10/1 17/10/1
f 20/10/1 18/10/1 19/10/1
f 21/9/1 20/9/1 19/9/1
f 22/9/1 20/9/1 21/9/1
f 23/8/1 22/8/1 21/8/1
f 24/8/1 22/8/1 23/8/1
f 27/11/1 26/11/1 25/11/1
f 28/11/1 26/11/1 27/11/1
f 31/11/1 30/11/1 29/11/1
f 32/11/1 30/11/1 31/11/1
f 33/3/1 32/3/1 31/3/1
f 34/3/1 32/3/1 33/3/1
f 35/4/1 34/4/1 33/4/1
f 36/4/1 34/4/1 35/4/1
f 37/3/1 36/3/1 35/3/1
f 38/3/1 36/3/1 37/3/1
f 41/1/1 40/1/1 39/1/1
f 42/1/1 40/1/1 41/1/1
f 45/8/1 44/8/1 43/8/1
f 46/8/1 44/8/1 45/8/1
f 49/1/1 48/1/1 47/1/1
f 50/1/1 48/1/1 49/1/1
f 53/2/1 52/2/1 51/2/1
f 54/2/1 52/2/1 53/2/1
f 57/11/1 56/11/1 55/11/1
f 58/11/1 56/11/1 57/11/1
f 61/12/1 60/12/1 59/12/1
f 62/12/1 60/12/1 61/12/1
f 63/11/2 64/11/2 65/11/2
f 65/11/2 64/11/2 66/11/2
f 67/2/2 68/2/2 69/2/2
f 69/2/2 68/2/2 70/2/2
f 71/2/2 72/2/2 73/2/2
f 73/2/2 72/2/2 74/2/2
f 75/8/2 76/8/2 77/8/2
f 77/8/2 76/8/2 78/8/2
f 79/11/2 80/11/2 81/11/2
f 81/11/2 80/11/2 82/11/2
f 83/11/2 84/11/2 85/11/2
f 85/11/2 84/11/2 86/11/2
f 85/3/2 86/3/2 87/3/2
f 87/3/2 86/3/2 88/3/2
f 87/4/2 88/4/2 89/4/2
f 89/4/2 88/4/2 90/4/2
f 89/3/2 90/3/2 91/3/2
f 91/3/2 90/3/2 92/3/2
f 91/4/2 92/4/2 93/4/2
f 93/4/2 92/4/2 94/4/2
f 95/2/2 96/2/2 97/2/2
f 97/2/2 96/2/2 98/2/2
f 97/10/2 98/10/2 99/10/2
f 99/10/2 98/10/2 100/10/2
f 99/9/2 100/9/2 101/9/2
f 101/9/2 100/9/2 102/9/2
f 101/8/2 102/8/2 103/8/2
f 103/8/2 102/8/2 104/8/2
f 105/11/2 106/11/2 107/11/2
f 107/11/2 106/11/2 108/11/2
f 109/12/2 110/12/2 111/12/2
f 111/12/2 110/12/2 112/12/2
f 113/12/2 114/12/2 115/12/2
f 115/12/2 114/12/2 116/12/2
f 117/12/2 118/12/2 119/12/2
f 119/12/2 118/12/2 120/12/2
f 124/12/3 122/12/3 121/12/3
f 125/12/3 122/12/3 124/12/3
f 126/12/3 122/12/3 125/12/3
f 135/11/3 129/11/3 128/11/3
f 136/11/3 129/11/3 135/11/3
f 137/11/3 129/11/3 136/11/3
f 141/12/3 124/12/3 123/12/3
f 142/1/3 125/1/3 124/1/3
f 142/12/3 124/12/3 141/12/3
f 143/2/3 126/2/3 125/2/3
f 143/1/3 125/1/3 142/1/3
f 144/12/3 127/12/3 126/12/3
f 144/2/3 126/2/3 143/2/3
f 145/12/3 127/12/3 144/12/3
f 147/10/3 131/10/3 130/10/3
f 148/9/3 132/9/3 131/9/3
f 148/10/3 131/10/3 147/10/3
f 149/8/3 133/8/3 132/8/3
f 149/9/3 132/9/3 148/9/3
f 150/8/3 133/8/3 149/8/3
f 152/11/3 138/11/3 137/11/3
f 152/3/3 139/3/3 138/3/3
f 153/4/3 140/4/3 139/4/3
f 153/3/3 139/3/3 152/3/3
f 154/3/3 141/3/3 140/3/3
f 154/4/3 140/4/3 153/4/3
f 155/4/3 142/4/3 141/4/3
f 155/3/3 141/3/3 154/3/3
f 156/1/3 143/1/3 142/1/3
f 156/4/3 142/4/3 155/4/3
f 157/12/3 144/12/3 143/12/3
f 157/1/3 143/1/3 156/1/3
f 158/3/3 145/3/3 144/3/3
f 158/12/3 144/12/3 157/12/3
f 159/3/3 145/3/3 158/3/3
f 160/1/3 148/1/3 147/1/3
f 160/1/3 147/1/3 146/1/3
f 160/1/3 149/1/3 148/1/3
f 161/8/3 151/8/3 150/8/3
f 161/2/3 150/2/3 149/2/3
f 162/8/3 151/8/3 161/8/3
f 164/11/3 152/11/3 137/11/3
f 164/4/3 153/4/3 152/4/3
f 165/3/3 154/3/3 153/3/3
f 165/4/3 153/4/3 164/4/3
f 166/4/3 155/4/3 154/4/3
f 166/3/3 154/3/3 165/3/3
f 167/3/3 156/3/3 155/3/3
f 167/4/3 155/4/3 166/4/3
f 168/4/3 157/4/3 156/4/3
f 168/3/3 156/3/3 167/3/3
f 169/3/3 158/3/3 157/3/3
f 169/4/3 157/4/3 168/4/3
f 170/4/3 159/4/3 158/4/3
f 170/3/3 158/3/3 169/3/3
f 171/1/3 160/1/3 159/1/3
f 171/4/3 159/4/3 170/4/3
f 172/1/3 149/1/3 160/1/3
f 172/1/3 160/1/3 171/1/3
f 173/1/3 149/1/3 172/1/3
f 174/1/3 171/1/3 170/1/3
f 174/1/3 172/1/3 171/1/3
f 175/9/3 173/9/3 172/9/3
f 175/1/3 172/1/3 174/1/3
f 176/1/3 149/1/3 173/1/3
f 176/9/3 173/9/3 175/9/3
f 177/11/3 135/11/3 134/11/3
f 178/6/3 136/6/3 135/6/3
f 178/11/3 135/11/3 177/11/3
f 179/5/3 137/5/3 136/5/3
f 179/6/3 136/6/3 178/6/3
f 180/11/3 164/11/3 137/11/3
f 180/5/3 137/5/3 179/5/3
f 181/7/3 165/7/3 164/7/3
f 181/11/3 164/11/3 180/11/3
f 181/7/3 169/7/3 168/7/3
f 181/7/3 167/7/3 166/7/3
f 181/7/3 168/7/3 167/7/3
f 181/7/3 170/7/3 169/7/3
f 181/7/3 166/7/3 165/7/3
f 182/1/3 174/1/3 170/1/3
f 182/7/3 170/7/3 181/7/3
f 183/1/3 174/1/3 182/1/3
f 184/1/3 174/1/3 183/1/3
f 185/12/3 175/12/3 174/12/3
f 185/1/3 174/1/3 184/1/3
f 186/8/3 176/8/3 175/8/3
f 186/12/3 175/12/3 185/12/3
f 187/1/3 149/1/3 176/1/3
f 187/8/3 176/8/3 186/8/3
f 188/2/3 163/2/3 162/2/3
f 188/1/3 149/1/3 187/1/3
f 188/2/3 162/2/3 161/2/3
f 188/2/3 161/2/3 149/2/3
f 189/1/3 187/1/3 186/1/3
f 189/2/3 185/2/3 184/2/3
f 189/1/3 186/1/3 185/1/3
f 190/2/3 188/2/3 187/2/3
f 190/1/3 187/1/3 189/1/3
f 192/11/3 179/11/3 178/11/3
f 193/6/3 180/6/3 179/6/3
f 193/11/3 179/11/3 192/11/3
f 194/4/3 181/4/3 180/4/3
f 194/6/3 180/6/3 193/6/3
f 195/7/3 182/7/3 181/7/3
f 195/4/3 181/4/3 194/4/3
f 196/2/3 183/2/3 182/2/3
f 196/12/3 184/12/3 183/12/3
f 197/2/3 189/2/3 184/2/3
f 197/12/3 184/12/3 196/12/3
f 197/2/3 190/2/3 189/2/3
f 198/2/3 190/2/3 197/2/3
f 199/2/3 190/2/3 198/2/3
f 200/2/3 188/2/3 190/2/3
f 200/2/3 190/2/3 199/2/3
f 201/12/3 199/12/3 198/12/3
f 201/2/3 197/2/3 196/2/3
f 201/2/3 198/2/3 197/2/3
f 202/8/3 200/8/3 199/8/3
f 202/12/3 199/12/3 201/12/3
f 203/2/3 188/2/3 200/2/3
f 203/8/3 200/8/3 202/8/3
f 204/7/3 182/7/3 195/7/3
f 204/11/3 195/11/3 194/11/3
f 205/7/3 182/7/3 204/7/3
f 206/7/3 182/7/3 205/7/3
f 207/7/3 182/7/3 206/7/3
f 208/7/3 182/7/3 207/7/3
f 209/7/3 182/7/3 208/7/3
f 210/2/3 202/2/3 201/2/3
f 210/7/3 182/7/3 209/7/3
f 210/2/3 196/2/3 182/2/3
f 210/2/3 201/2/3 196/2/3
f 211/2/3 202/2/3 210/2/3
f 212/9/3 203/9/3 202/9/3
f 212/2/3 202/2/3 211/2/3
f 213/2/3 188/2/3 203/2/3
f 213/9/3 203/9/3 212/9/3
f 214/2/3 163/2/3 188/2/3
f 214/2/3 188/2/3 213/2/3
f 215/2/3 163/2/3 214/2/3
f 216/2/3 163/2/3 215/2/3
f 217/11/3 204/11/3 194/11/3
f 217/4/3 205/4/3 204/4/3
f 218/3/3 206/3/3 205/3/3
f 218/4/3 205/4/3 217/4/3
f 219/4/3 207/4/3 206/4/3
f 219/3/3 206/3/3 218/3/3
f 220/3/3 208/3/3 207/3/3
f 220/4/3 207/4/3 219/4/3
f 221/4/3 209/4/3 208/4/3
f 221/3/3 208/3/3 220/3/3
f 222/3/3 210/3/3 209/3/3
f 222/4/3 209/4/3 221/4/3
f 223/4/3 211/4/3 210/4/3
f 223/3/3 210/3/3 222/3/3
f 224/2/3 213/2/3 212/2/3
f 224/4/3 211/4/3 223/4/3
f 224/2/3 212/2/3 211/2/3
f 224/2/3 214/2/3 213/2/3
f 225/2/3 214/2/3 224/2/3
f 226/2/3 214/2/3 225/2/3
f 227/2/3 214/2/3 226/2/3
f 228/2/3 214/2/3 227/2/3
f 229/8/3 215/8/3 214/8/3
f 229/2/3 214/2/3 228/2/3
f 230/8/3 215/8/3 229/8/3
f 231/11/3 192/11/3 191/11/3
f 232/6/3 193/6/3 192/6/3
f 232/11/3 192/11/3 231/11/3
f 233/5/3 194/5/3 193/5/3
f 233/6/3 193/6/3 232/6/3
f 234/11/3 217/11/3 194/11/3
f 234/5/3 194/5/3 233/5/3
f 235/3/3 218/3/3 217/3/3
f 235/11/3 217/11/3 234/11/3
f 236/4/3 219/4/3 218/4/3
f 236/3/3 218/3/3 235/3/3
f 237/3/3 220/3/3 219/3/3
f 237/4/3 219/4/3 236/4/3
f 238/4/3 221/4/3 220/4/3
f 238/3/3 220/3/3 237/3/3
f 239/3/3 222/3/3 221/3/3
f 239/4/3 221/4/3 238/4/3
f 240/1/3 223/1/3 222/1/3
f 240/3/3 222/3/3 239/3/3
f 241/12/3 224/12/3 223/12/3
f 241/1/3 223/1/3 240/1/3
f 242/12/3 224/12/3 241/12/3
f 243/2/3 226/2/3 225/2/3
f 244/10/3 227/10/3 226/10/3
f 244/2/3 226/2/3 243/2/3
f 245/9/3 228/9/3 227/9/3
f 245/10/3 227/10/3 244/10/3
f 246/8/3 229/8/3 228/8/3
f 246/9/3 228/9/3 245/9/3
f 247/8/3 229/8/3 246/8/3
f 248/11/3 234/11/3 233/11/3
f 248/11/3 233/11/3 232/11/3
f 249/11/3 234/11/3 248/11/3
f 250/12/3 240/12/3 239/12/3
f 251/1/3 241/1/3 240/1/3
f 251/12/3 240/12/3 250/12/3
f 252/2/3 242/2/3 241/2/3
f 252/1/3 241/1/3 251/1/3
f 253/12/3 243/12/3 242/12/3
f 253/2/3 242/2/3 252/2/3
f 254/12/3 243/12/3 253/12/3
f 255/12/3 252/12/3 251/12/3
f 255/12/3 253/12/3 252/12/3
f 256/12/3 253/12/3 255/12/3
f 257/12/4 258/12/4 260/12/4
f 260/12/4 258/12/4 261/12/4
f 261/12/4 258/12/4 262/12/4
f 264/11/4 265/11/4 271/11/4
f 271/11/4 265/11/4 272/11/4
f 272/11/4 265/11/4 273/11/4
f 259/12/4 260/12/4 277/12/4
f 260/1/4 261/1/4 278/1/4
f 277/12/4 260/12/4 278/12/4
f 261/2/4 262/2/4 279/2/4
f 278/1/4 261/1/4 279/1/4
f 262/12/4 263/12/4 280/12/4
f 279/2/4 262/2/4 280/2/4
f 280/12/4 263/12/4 281/12/4
f 266/10/4 267/10/4 283/10/4
f 267/9/4 268/9/4 284/9/4
f 283/10/4 267/10/4 284/10/4
f 268/8/4 269/8/4 285/8/4
f 284/9/4 268/9/4 285/9/4
f 285/8/4 269/8/4 286/8/4
f 273/11/4 274/11/4 288/11/4
f 274/3/4 275/3/4 288/3/4
f 275/4/4 276/4/4 289/4/4
f 288/3/4 275/3/4 289/3/4
f 276/3/4 277/3/4 290/3/4
f 289/4/4 276/4/4 290/4/4
f 277/4/4 278/4/4 291/4/4
f 290/3/4 277/3/4 291/3/4
f 278/1/4 279/1/4 292/1/4
f 291/4/4 278/4/4 292/4/4
f 279/12/4 280/12/4 293/12/4
f 292/1/4 279/1/4 293/1/4
f 280/3/4 281/3/4 294/3/4
f 293/12/4 280/12/4 294/12/4
f 294/3/4 281/3/4 295/3/4
f 283/1/4 284/1/4 296/1/4
f 282/1/4 283/1/4 296/1/4
f 284/1/4 285/1/4 296/1/4
f 286/8/4 287/8/4 297/8/4
f 285/2/4 286/2/4 297/2/4
f 297/8/4 287/8/4 298/8/4
f 273/11/4 288/11/4 300/11/4
f 288/4/4 289/4/4 300/4/4
f 289/3/4 290/3/4 301/3/4
f 300/4/4 289/4/4 301/4/4
f 290/4/4 291/4/4 302/4/4
f 301/3/4 290/3/4 302/3/4
f 291/3/4 292/3/4 303/3/4
f 302/4/4 291/4/4 303/4/4
f 292/4/4 293/4/4 304/4/4
f 303/3/4 292/3/4 304/3/4
f 293/3/4 294/3/4 305/3/4
f 304/4/4 293/4/4 305/4/4
f 294/4/4 295/4/4 306/4/4
f 305/3/4 294/3/4 306/3/4
f 295/1/4 296/1/4 307/1/4
f 306/4/4 295/4/4 307/4/4
f 296/1/4 285/1/4 308/1/4
f 307/1/4 296/1/4 308/1/4
f 308/1/4 285/1/4 309/1/4
f 306/1/4 307/1/4 310/1/4
f 307/1/4 308/1/4 310/1/4
f 308/9/4 309/9/4 311/9/4
f 310/1/4 308/1/4 311/1/4
f 309/1/4 285/1/4 312/1/4
f 311/9/4 309/9/4 312/9/4
f 270/11/4 271/11/4 313/11/4
f 271/6/4 272/6/4 314/6/4
f 313/11/4 271/11/4 314/11/4
f 272/5/4 273/5/4 315/5/4
f 314/6/4 272/6/4 315/6/4
f 273/11/4 300/11/4 316/11/4
f 315/5/4 273/5/4 316/5/4
f 300/7/4 301/7/4 317/7/4
f 316/11/4 300/11/4 317/11/4
f 304/7/4 305/7/4 317/7/4
f 302/7/4 303/7/4 317/7/4
f 303/7/4 304/7/4 317/7/4
f 305/7/4 306/7/4 317/7/4
f 301/7/4 302/7/4 317/7/4
f 306/1/4 310/1/4 318/1/4
f 317/7/4 306/7/4 318/7/4
f 318/1/4 310/1/4 319/1/4
f 319/1/4 310/1/4 320/1/4
f 310/12/4 311/12/4 321/12/4
f 320/1/4 310/1/4 321/1/4
f 311/8/4 312/8/4 322/8/4
f 321/12/4 311/12/4 322/12/4
f 312/1/4 285/1/4 323/1/4
f 322/8/4 312/8/4 323/8/4
f 298/2/4 299/2/4 324/2/4
f 323/1/4 285/1/4 324/1/4
f 297/2/4 298/2/4 324/2/4
f 285/2/4 297/2/4 324/2/4
f 322/1/4 323/1/4 325/1/4
f 320/2/4 321/2/4 325/2/4
f 321/1/4 322/1/4 325/1/4
f 323/2/4 324/2/4 326/2/4
f 325/1/4 323/1/4 326/1/4
f 314/11/4 315/11/4 328/11/4
f 315/6/4 316/6/4 329/6/4
f 328/11/4 315/11/4 329/11/4
f 316/4/4 317/4/4 330/4/4
f 329/6/4 316/6/4 330/6/4
f 317/7/4 318/7/4 331/7/4
f 330/4/4 317/4/4 331/4/4
f 318/2/4 319/2/4 332/2/4
f 319/12/4 320/12/4 332/12/4
f 320/2/4 325/2/4 333/2/4
f 332/12/4 320/12/4 333/12/4
f 325/2/4 326/2/4 333/2/4
f 333/2/4 326/2/4 334/2/4
f 334/2/4 326/2/4 335/2/4
f 326/2/4 324/2/4 336/2/4
f 335/2/4 326/2/4 336/2/4
f 334/12/4 335/12/4 337/12/4
f 332/2/4 333/2/4 337/2/4
f 333/2/4 334/2/4 337/2/4
f 335/8/4 336/8/4 338/8/4
f 337/12/4 335/12/4 338/12/4
f 336/2/4 324/2/4 339/2/4
f 338/8/4 336/8/4 339/8/4
f 331/7/4 318/7/4 340/7/4
f 330/11/4 331/11/4 340/11/4
f 340/7/4 318/7/4 341/7/4
f 341/7/4 318/7/4 342/7/4
f 342/7/4 318/7/4 343/7/4
f 343/7/4 318/7/4 344/7/4
f 344/7/4 318/7/4 345/7/4
f 337/2/4 338/2/4 346/2/4
f 345/7/4 318/7/4 346/7/4
f 318/2/4 332/2/4 346/2/4
f 332/2/4 337/2/4 346/2/4
f 346/2/4 338/2/4 347/2/4
f 338/9/4 339/9/4 348/9/4
f 347/2/4 338/2/4 348/2/4
f 339/2/4 324/2/4 349/2/4
f 348/9/4 339/9/4 349/9/4
f 324/2/4 299/2/4 350/2/4
f 349/2/4 324/2/4 350/2/4
f 350/2/4 299/2/4 351/2/4
f 351/2/4 299/2/4 352/2/4
f 330/11/4 340/11/4 353/11/4
f 340/4/4 341/4/4 353/4/4
f 341/3/4 342/3/4 354/3/4
f 353/4/4 341/4/4 354/4/4
f 342/4/4 343/4/4 355/4/4
f 354/3/4 342/3/4 355/3/4
f 343/3/4 344/3/4 356/3/4
f 355/4/4 343/4/4 356/4/4
f 344/4/4 345/4/4 357/4/4
f 356/3/4 344/3/4 357/3/4
f 345/3/4 346/3/4 358/3/4
f 357/4/4 345/4/4 358/4/4
f 346/4/4 347/4/4 359/4/4
f 358/3/4 346/3/4 359/3/4
f 348/2/4 349/2/4 360/2/4
f 359/4/4 347/4/4 360/4/4
f 347/2/4 348/2/4 360/2/4
f 349/2/4 350/2/4 360/2/4
f 360/2/4 350/2/4 361/2/4
f 361/2/4 350/2/4 362/2/4
f 362/2/4 350/2/4 363/2/4
f 363/2/4 350/2/4 364/2/4
f 350/8/4 351/8/4 365/8/4
f 364/2/4 350/2/4 365/2/4
f 365/8/4 351/8/4 366/8/4
f 327/11/4 328/11/4 367/11/4
f 328/6/4 329/6/4 368/6/4
f 367/11/4 328/11/4 368/11/4
f 329/5/4 330/5/4 369/5/4
f 368/6/4 329/6/4 369/6/4
f 330/11/4 353/11/4 370/11/4
f 369/5/4 330/5/4 370/5/4
f 353/3/4 354/3/4 371/3/4
f 370/11/4 353/11/4 371/11/4
f 354/4/4 355/4/4 372/4/4
f 371/3/4 354/3/4 372/3/4
f 355/3/4 356/3/4 373/3/4
f 372/4/4 355/4/4 373/4/4
f 356/4/4 357/4/4 374/4/4
f 373/3/4 356/3/4 374/3/4
f 357/3/4 358/3/4 375/3/4
f 374/4/4 357/4/4 375/4/4
f 358/1/4 359/1/4 376/1/4
f 375/3/4 358/3/4 376/3/4
f 359/12/4 360/12/4 377/12/4
f 376/1/4 359/1/4 377/1/4
f 377/12/4 360/12/4 378/12/4
f 361/2/4 362/2/4 379/2/4
f 362/10/4 363/10/4 380/10/4
f 379/2/4 362/2/4 380/2/4
f 363/9/4 364/9/4 381/9/4
f 380/10/4 363/10/4 381/10/4
f 364/8/4 365/8/4 382/8/4
f 381/9/4 364/9/4 382/9/4
f 382/8/4 365/8/4 383/8/4
f 369/11/4 370/11/4 384/11/4
f 368/11/4 369/11/4 384/11/4
f 384/11/4 370/11/4 385/11/4
f 375/12/4 376/12/4 386/12/4
f 376/1/4 377/1/4 387/1/4
f 386/12/4 376/12/4 387/12/4
f 377/2/4 378/2/4 388/2/4
f 387/1/4 377/1/4 388/1/4
f 378/12/4 379/12/4 389/12/4
f 388/2/4 378/2/4 389/2/4
f 389/12/4 379/12/4 390/12/4
f 387/12/4 388/12/4 391/12/4
f 388/12/4 389/12/4 391/12/4
f 391/12/4 389/12/4 392/12/4
f 397/11/5 394/11/5 393/11/5
f 398/11/5 394/11/5 397/11/5
f 399/11/5 396/11/5 395/11/5
f 400/11/5 396/11/5 399/11/5
f 407/11/5 402/11/5 401/11/5
f 408/11/5 402/11/5 407/11/5
f 409/11/5 404/11/5 403/11/5
f 410/11/5 404/11/5 409/11/5
f 411/11/5 406/11/5 405/11/5
f 412/11/5 406/11/5 411/11/5
f 415/12/5 414/12/5 413/12/5
f 416/12/5 414/12/5 415/12/5
f 421/12/5 418/12/5 417/12/5
f 422/12/5 418/12/5 421/12/5
f 423/12/5 420/12/5 419/12/5
f 424/12/5 420/12/5 423/12/5
f 427/12/5 426/12/5 425/12/5
f 428/12/5 426/12/5 427/12/5
f 433/1/5 430/1/5 429/1/5
f 434/1/5 430/1/5 433/1/5
f 435/2/5 432/2/5 431/2/5
f 436/2/5 432/2/5 435/2/5
f 439/10/5 438/10/5 437/10/5
f 440/10/5 438/10/5 439/10/5
f 441/11/6 442/11/6 445/11/6
f 445/11/6 442/11/6 446/11/6
f 443/11/6 444/11/6 447/11/6
f 447/11/6 444/11/6 448/11/6
f 449/12/6 450/12/6 451/12/6
f 451/12/6 450/12/6 452/12/6
f 453/12/6 454/12/6 460/12/6
f 454/3/6 455/3/6 461/3/6
f 460/12/6 454/12/6 461/12/6
f 461/3/6 455/3/6 462/3/6
f 456/12/6 457/12/6 463/12/6
f 463/12/6 457/12/6 464/12/6
f 458/12/6 459/12/6 465/12/6
f 465/12/6 459/12/6 466/12/6
f 467/12/6 468/12/6 469/12/6
f 469/12/6 468/12/6 470/12/6
f 471/8/6 472/8/6 475/8/6
f 475/8/6 472/8/6 476/8/6
f 473/8/6 474/8/6 477/8/6
f 477/8/6 474/8/6 478/8/6
f 479/8/6 480/8/6 483/8/6
f 483/8/6 480/8/6 484/8/6
f 481/8/6 482/8/6 485/8/6
f 485/8/6 482/8/6 486/8/6
f 487/2/6 488/2/6 489/2/6
f 489/2/6 488/2/6 490/2/6
