# MagicaVoxel @ Ephtracy

# group
o 

# material
mtllib girl walk 2.mtl
usemtl palette

# normals
vn -1 0 0
vn 1 0 0
vn 0 0 1
vn 0 0 -1
vn 0 -1 0
vn 0 1 0

# texcoords
vt 0.0410156 0.5
vt 0.0566406 0.5
vt 0.0605469 0.5
vt 0.111328 0.5
vt 0.373047 0.5
vt 0.408203 0.5
vt 0.416016 0.5
vt 0.419922 0.5
vt 0.525391 0.5
vt 0.810547 0.5
vt 0.994141 0.5

# verts
v -1.2 0.4 2.23517e-008
v -1.2 0.4 -0.1
v -1.2 0.6 2.23517e-008
v -1.2 0.6 -0.1
v -1.1 0.3 2.23517e-008
v -1.1 0.3 -0.1
v -1.1 0.4 2.23517e-008
v -1.1 0.4 -0.1
v -1.1 0.6 2.23517e-008
v -1.1 0.6 -0.1
v -1.1 0.7 2.23517e-008
v -1.1 0.7 -0.1
v -1 0.7 2.23517e-008
v -1 0.7 -0.1
v -1 1.1 2.23517e-008
v -1 1.1 -0.1
v -0.9 0.1 2.23517e-008
v -0.9 0.1 -0.1
v -0.9 0.3 2.23517e-008
v -0.9 0.3 -0.1
v -0.9 1.1 2.23517e-008
v -0.9 1.1 -0.1
v -0.9 1.3 2.23517e-008
v -0.9 1.3 -0.1
v -0.8 0 2.23517e-008
v -0.8 0 -0.1
v -0.8 0.1 2.23517e-008
v -0.8 0.1 -0.1
v -0.8 1.3 2.23517e-008
v -0.8 1.3 -0.1
v -0.8 1.4 2.23517e-008
v -0.8 1.4 -0.1
v -0.7 1.4 2.23517e-008
v -0.7 1.4 -0.1
v -0.7 1.5 2.23517e-008
v -0.7 1.5 -0.1
v -0.3 0 2.23517e-008
v -0.3 0 -0.1
v -0.3 0.1 2.23517e-008
v -0.3 0.1 -0.1
v 1.19209e-007 1.5 2.23517e-008
v 1.19209e-007 1.5 -0.1
v 1.19209e-007 1.6 2.23517e-008
v 1.19209e-007 1.6 -0.1
v -0.5 0 2.23517e-008
v -0.5 0 -0.1
v -0.5 0.1 2.23517e-008
v -0.5 0.1 -0.1
v 1.19209e-007 0 2.23517e-008
v 1.19209e-007 0 -0.1
v 1.19209e-007 0.1 2.23517e-008
v 1.19209e-007 0.1 -0.1
v 0.1 0.1 2.23517e-008
v 0.1 0.1 -0.1
v 0.1 0.3 2.23517e-008
v 0.1 0.3 -0.1
v 0.1 1.1 2.23517e-008
v 0.1 1.1 -0.1
v 0.1 1.3 2.23517e-008
v 0.1 1.3 -0.1
v 0.1 1.4 2.23517e-008
v 0.1 1.4 -0.1
v 0.2 0.7 2.23517e-008
v 0.2 0.7 -0.1
v 0.2 1.1 2.23517e-008
v 0.2 1.1 -0.1
v 0.2 1.4 2.23517e-008
v 0.2 1.4 -0.1
v 0.2 1.6 2.23517e-008
v 0.2 1.6 -0.1
v 0.3 0.3 2.23517e-008
v 0.3 0.3 -0.1
v 0.3 0.4 2.23517e-008
v 0.3 0.4 -0.1
v 0.3 0.6 2.23517e-008
v 0.3 0.6 -0.1
v 0.3 0.7 2.23517e-008
v 0.3 0.7 -0.1
v 0.4 0.4 2.23517e-008
v 0.4 0.4 -0.1
v 0.4 0.6 2.23517e-008
v 0.4 0.6 -0.1
v -1.2 0.4 2.23517e-008
v -1.2 0.6 2.23517e-008
v -1.1 0.3 2.23517e-008
v -1.1 0.4 2.23517e-008
v -1.1 0.5 2.23517e-008
v -1.1 0.6 2.23517e-008
v -1.1 0.7 2.23517e-008
v -1 0.7 2.23517e-008
v -1 1.1 2.23517e-008
v -0.9 0.1 2.23517e-008
v -0.9 0.3 2.23517e-008
v -0.9 0.4 2.23517e-008
v -0.9 0.5 2.23517e-008
v -0.9 0.6 2.23517e-008
v -0.9 0.7 2.23517e-008
v -0.9 1.1 2.23517e-008
v -0.9 1.3 2.23517e-008
v -0.8 0 2.23517e-008
v -0.8 0.1 2.23517e-008
v -0.8 0.2 2.23517e-008
v -0.8 0.3 2.23517e-008
v -0.8 0.4 2.23517e-008
v -0.8 0.5 2.23517e-008
v -0.8 0.6 2.23517e-008
v -0.8 0.7 2.23517e-008
v -0.8 1.1 2.23517e-008
v -0.8 1.2 2.23517e-008
v -0.8 1.3 2.23517e-008
v -0.8 1.4 2.23517e-008
v -0.7 0.3 2.23517e-008
v -0.7 0.4 2.23517e-008
v -0.7 0.5 2.23517e-008
v -0.7 0.6 2.23517e-008
v -0.7 0.7 2.23517e-008
v -0.7 1.1 2.23517e-008
v -0.7 1.2 2.23517e-008
v -0.7 1.3 2.23517e-008
v -0.7 1.4 2.23517e-008
v -0.7 1.5 2.23517e-008
v -0.6 0.3 2.23517e-008
v -0.6 0.4 2.23517e-008
v -0.6 0.5 2.23517e-008
v -0.6 0.6 2.23517e-008
v -0.6 0.9 2.23517e-008
v -0.6 1.1 2.23517e-008
v -0.5 0 2.23517e-008
v -0.5 0.1 2.23517e-008
v -0.5 0.2 2.23517e-008
v -0.5 0.3 2.23517e-008
v -0.5 0.6 2.23517e-008
v -0.5 0.7 2.23517e-008
v -0.5 0.9 2.23517e-008
v -0.5 1.1 2.23517e-008
v -0.4 1.1 2.23517e-008
v -0.4 1.2 2.23517e-008
v -0.3 0 2.23517e-008
v -0.3 0.1 2.23517e-008
v -0.3 0.2 2.23517e-008
v -0.3 0.3 2.23517e-008
v -0.3 0.6 2.23517e-008
v -0.3 0.7 2.23517e-008
v -0.3 0.8 2.23517e-008
v -0.3 0.9 2.23517e-008
v -0.3 1.1 2.23517e-008
v -0.2 0.3 2.23517e-008
v -0.2 0.4 2.23517e-008
v -0.2 0.5 2.23517e-008
v -0.2 0.6 2.23517e-008
v -0.2 0.7 2.23517e-008
v -0.2 0.8 2.23517e-008
v -0.2 0.9 2.23517e-008
v -0.2 1.1 2.23517e-008
v -0.0999999 0.3 2.23517e-008
v -0.0999999 0.4 2.23517e-008
v -0.0999999 0.5 2.23517e-008
v -0.0999999 0.6 2.23517e-008
v -0.0999999 0.7 2.23517e-008
v -0.0999999 1.1 2.23517e-008
v -0.0999999 1.2 2.23517e-008
v -0.0999999 1.3 2.23517e-008
v -0.0999999 1.4 2.23517e-008
v -0.0999999 1.5 2.23517e-008
v 1.19209e-007 0 2.23517e-008
v 1.19209e-007 0.1 2.23517e-008
v 1.19209e-007 0.2 2.23517e-008
v 1.19209e-007 0.3 2.23517e-008
v 1.19209e-007 0.4 2.23517e-008
v 1.19209e-007 0.5 2.23517e-008
v 1.19209e-007 0.6 2.23517e-008
v 1.19209e-007 0.7 2.23517e-008
v 1.19209e-007 1.1 2.23517e-008
v 1.19209e-007 1.2 2.23517e-008
v 1.19209e-007 1.3 2.23517e-008
v 1.19209e-007 1.4 2.23517e-008
v 1.19209e-007 1.5 2.23517e-008
v 1.19209e-007 1.6 2.23517e-008
v 0.1 0.1 2.23517e-008
v 0.1 0.3 2.23517e-008
v 0.1 0.4 2.23517e-008
v 0.1 0.5 2.23517e-008
v 0.1 0.6 2.23517e-008
v 0.1 0.7 2.23517e-008
v 0.1 1.1 2.23517e-008
v 0.1 1.3 2.23517e-008
v 0.1 1.4 2.23517e-008
v 0.2 0.7 2.23517e-008
v 0.2 1.1 2.23517e-008
v 0.2 1.4 2.23517e-008
v 0.2 1.6 2.23517e-008
v 0.3 0.3 2.23517e-008
v 0.3 0.4 2.23517e-008
v 0.3 0.5 2.23517e-008
v 0.3 0.6 2.23517e-008
v 0.3 0.7 2.23517e-008
v 0.4 0.4 2.23517e-008
v 0.4 0.6 2.23517e-008
v -1.2 0.4 -0.1
v -1.2 0.6 -0.1
v -1.1 0.3 -0.1
v -1.1 0.4 -0.1
v -1.1 0.5 -0.1
v -1.1 0.6 -0.1
v -1.1 0.7 -0.1
v -1 0.7 -0.1
v -1 1.1 -0.1
v -0.9 0.1 -0.1
v -0.9 0.3 -0.1
v -0.9 0.4 -0.1
v -0.9 0.5 -0.1
v -0.9 0.6 -0.1
v -0.9 0.7 -0.1
v -0.9 1.1 -0.1
v -0.9 1.3 -0.1
v -0.8 0 -0.1
v -0.8 0.1 -0.1
v -0.8 0.2 -0.1
v -0.8 0.3 -0.1
v -0.8 0.4 -0.1
v -0.8 0.5 -0.1
v -0.8 0.6 -0.1
v -0.8 0.7 -0.1
v -0.8 1.1 -0.1
v -0.8 1.2 -0.1
v -0.8 1.3 -0.1
v -0.8 1.4 -0.1
v -0.7 0.3 -0.1
v -0.7 0.4 -0.1
v -0.7 0.5 -0.1
v -0.7 0.6 -0.1
v -0.7 0.7 -0.1
v -0.7 1.1 -0.1
v -0.7 1.2 -0.1
v -0.7 1.3 -0.1
v -0.7 1.4 -0.1
v -0.7 1.5 -0.1
v -0.6 0.3 -0.1
v -0.6 0.4 -0.1
v -0.6 0.5 -0.1
v -0.6 0.6 -0.1
v -0.6 0.9 -0.1
v -0.6 1.1 -0.1
v -0.5 0 -0.1
v -0.5 0.1 -0.1
v -0.5 0.2 -0.1
v -0.5 0.3 -0.1
v -0.5 0.6 -0.1
v -0.5 0.7 -0.1
v -0.5 0.9 -0.1
v -0.5 1.1 -0.1
v -0.4 1.1 -0.1
v -0.4 1.2 -0.1
v -0.3 0 -0.1
v -0.3 0.1 -0.1
v -0.3 0.2 -0.1
v -0.3 0.3 -0.1
v -0.3 0.6 -0.1
v -0.3 0.7 -0.1
v -0.3 0.8 -0.1
v -0.3 0.9 -0.1
v -0.3 1.1 -0.1
v -0.2 0.3 -0.1
v -0.2 0.4 -0.1
v -0.2 0.5 -0.1
v -0.2 0.6 -0.1
v -0.2 0.7 -0.1
v -0.2 0.8 -0.1
v -0.2 0.9 -0.1
v -0.2 1.1 -0.1
v -0.0999999 0.3 -0.1
v -0.0999999 0.4 -0.1
v -0.0999999 0.5 -0.1
v -0.0999999 0.6 -0.1
v -0.0999999 0.7 -0.1
v -0.0999999 1.1 -0.1
v -0.0999999 1.2 -0.1
v -0.0999999 1.3 -0.1
v -0.0999999 1.4 -0.1
v -0.0999999 1.5 -0.1
v 1.19209e-007 0 -0.1
v 1.19209e-007 0.1 -0.1
v 1.19209e-007 0.2 -0.1
v 1.19209e-007 0.3 -0.1
v 1.19209e-007 0.4 -0.1
v 1.19209e-007 0.5 -0.1
v 1.19209e-007 0.6 -0.1
v 1.19209e-007 0.7 -0.1
v 1.19209e-007 1.1 -0.1
v 1.19209e-007 1.2 -0.1
v 1.19209e-007 1.3 -0.1
v 1.19209e-007 1.4 -0.1
v 1.19209e-007 1.5 -0.1
v 1.19209e-007 1.6 -0.1
v 0.1 0.1 -0.1
v 0.1 0.3 -0.1
v 0.1 0.4 -0.1
v 0.1 0.5 -0.1
v 0.1 0.6 -0.1
v 0.1 0.7 -0.1
v 0.1 1.1 -0.1
v 0.1 1.3 -0.1
v 0.1 1.4 -0.1
v 0.2 0.7 -0.1
v 0.2 1.1 -0.1
v 0.2 1.4 -0.1
v 0.2 1.6 -0.1
v 0.3 0.3 -0.1
v 0.3 0.4 -0.1
v 0.3 0.5 -0.1
v 0.3 0.6 -0.1
v 0.3 0.7 -0.1
v 0.4 0.4 -0.1
v 0.4 0.6 -0.1
v -0.8 0 2.23517e-008
v -0.5 0 2.23517e-008
v -0.3 0 2.23517e-008
v 1.19209e-007 0 2.23517e-008
v -0.8 0 -0.1
v -0.5 0 -0.1
v -0.3 0 -0.1
v 1.19209e-007 0 -0.1
v -0.9 0.1 2.23517e-008
v -0.8 0.1 2.23517e-008
v -0.5 0.1 2.23517e-008
v -0.3 0.1 2.23517e-008
v 1.19209e-007 0.1 2.23517e-008
v 0.1 0.1 2.23517e-008
v -0.9 0.1 -0.1
v -0.8 0.1 -0.1
v -0.5 0.1 -0.1
v -0.3 0.1 -0.1
v 1.19209e-007 0.1 -0.1
v 0.1 0.1 -0.1
v -1.1 0.3 2.23517e-008
v -0.9 0.3 2.23517e-008
v 0.1 0.3 2.23517e-008
v 0.3 0.3 2.23517e-008
v -1.1 0.3 -0.1
v -0.9 0.3 -0.1
v 0.1 0.3 -0.1
v 0.3 0.3 -0.1
v -1.2 0.4 2.23517e-008
v -1.1 0.4 2.23517e-008
v 0.3 0.4 2.23517e-008
v 0.4 0.4 2.23517e-008
v -1.2 0.4 -0.1
v -1.1 0.4 -0.1
v 0.3 0.4 -0.1
v 0.4 0.4 -0.1
v 0.1 1.4 2.23517e-008
v 0.2 1.4 2.23517e-008
v 0.1 1.4 -0.1
v 0.2 1.4 -0.1
v -1.2 0.6 2.23517e-008
v -1.1 0.6 2.23517e-008
v 0.3 0.6 2.23517e-008
v 0.4 0.6 2.23517e-008
v -1.2 0.6 -0.1
v -1.1 0.6 -0.1
v 0.3 0.6 -0.1
v 0.4 0.6 -0.1
v -1.1 0.7 2.23517e-008
v -1 0.7 2.23517e-008
v 0.2 0.7 2.23517e-008
v 0.3 0.7 2.23517e-008
v -1.1 0.7 -0.1
v -1 0.7 -0.1
v 0.2 0.7 -0.1
v 0.3 0.7 -0.1
v -1 1.1 2.23517e-008
v -0.9 1.1 2.23517e-008
v 0.1 1.1 2.23517e-008
v 0.2 1.1 2.23517e-008
v -1 1.1 -0.1
v -0.9 1.1 -0.1
v 0.1 1.1 -0.1
v 0.2 1.1 -0.1
v -0.9 1.3 2.23517e-008
v -0.8 1.3 2.23517e-008
v -0.9 1.3 -0.1
v -0.8 1.3 -0.1
v -0.8 1.4 2.23517e-008
v -0.7 1.4 2.23517e-008
v -0.8 1.4 -0.1
v -0.7 1.4 -0.1
v -0.7 1.5 2.23517e-008
v -0.0999999 1.5 2.23517e-008
v 1.19209e-007 1.5 2.23517e-008
v -0.7 1.5 -0.1
v -0.0999999 1.5 -0.1
v 1.19209e-007 1.5 -0.1
v 1.19209e-007 1.6 2.23517e-008
v 0.2 1.6 2.23517e-008
v 1.19209e-007 1.6 -0.1
v 0.2 1.6 -0.1

# faces
f 3/7/1 2/7/1 1/7/1
f 4/7/1 2/7/1 3/7/1
f 7/7/1 6/7/1 5/7/1
f 8/7/1 6/7/1 7/7/1
f 11/7/1 10/7/1 9/7/1
f 12/7/1 10/7/1 11/7/1
f 15/1/1 14/1/1 13/1/1
f 16/1/1 14/1/1 15/1/1
f 19/10/1 18/10/1 17/10/1
f 20/10/1 18/10/1 19/10/1
f 23/1/1 22/1/1 21/1/1
f 24/1/1 22/1/1 23/1/1
f 27/11/1 26/11/1 25/11/1
f 28/11/1 26/11/1 27/11/1
f 31/1/1 30/1/1 29/1/1
f 32/1/1 30/1/1 31/1/1
f 35/1/1 34/1/1 33/1/1
f 36/1/1 34/1/1 35/1/1
f 39/11/1 38/11/1 37/11/1
f 40/11/1 38/11/1 39/11/1
f 43/1/1 42/1/1 41/1/1
f 44/1/1 42/1/1 43/1/1
f 45/11/2 46/11/2 47/11/2
f 47/11/2 46/11/2 48/11/2
f 49/11/2 50/11/2 51/11/2
f 51/11/2 50/11/2 52/11/2
f 53/10/2 54/10/2 55/10/2
f 55/10/2 54/10/2 56/10/2
f 57/1/2 58/1/2 59/1/2
f 59/1/2 58/1/2 60/1/2
f 59/4/2 60/4/2 61/4/2
f 61/4/2 60/4/2 62/4/2
f 63/1/2 64/1/2 65/1/2
f 65/1/2 64/1/2 66/1/2
f 67/1/2 68/1/2 69/1/2
f 69/1/2 68/1/2 70/1/2
f 71/7/2 72/7/2 73/7/2
f 73/7/2 72/7/2 74/7/2
f 75/7/2 76/7/2 77/7/2
f 77/7/2 76/7/2 78/7/2
f 79/7/2 80/7/2 81/7/2
f 81/7/2 80/7/2 82/7/2
f 86/7/3 84/7/3 83/7/3
f 87/7/3 84/7/3 86/7/3
f 88/7/3 84/7/3 87/7/3
f 90/7/3 89/7/3 88/7/3
f 93/7/3 86/7/3 85/7/3
f 94/3/3 87/3/3 86/3/3
f 94/7/3 86/7/3 93/7/3
f 95/2/3 88/2/3 87/2/3
f 95/3/3 87/3/3 94/3/3
f 96/7/3 90/7/3 88/7/3
f 96/2/3 88/2/3 95/2/3
f 97/1/3 91/1/3 90/1/3
f 97/7/3 90/7/3 96/7/3
f 98/1/3 91/1/3 97/1/3
f 101/10/3 93/10/3 92/10/3
f 102/10/3 93/10/3 101/10/3
f 103/11/3 94/11/3 93/11/3
f 103/10/3 93/10/3 102/10/3
f 104/3/3 95/3/3 94/3/3
f 104/11/3 94/11/3 103/11/3
f 105/11/3 96/11/3 95/11/3
f 105/3/3 95/3/3 104/3/3
f 105/11/3 97/11/3 96/11/3
f 106/11/3 97/11/3 105/11/3
f 107/5/3 98/5/3 97/5/3
f 107/11/3 97/11/3 106/11/3
f 108/1/3 99/1/3 98/1/3
f 108/5/3 98/5/3 107/5/3
f 109/1/3 99/1/3 108/1/3
f 110/1/3 99/1/3 109/1/3
f 112/8/3 104/8/3 103/8/3
f 112/10/3 103/10/3 102/10/3
f 112/8/3 105/8/3 104/8/3
f 113/8/3 105/8/3 112/8/3
f 114/11/3 106/11/3 105/11/3
f 114/8/3 105/8/3 113/8/3
f 115/5/3 107/5/3 106/5/3
f 115/11/3 106/11/3 114/11/3
f 116/2/3 108/2/3 107/2/3
f 116/5/3 107/5/3 115/5/3
f 117/5/3 109/5/3 108/5/3
f 117/2/3 108/2/3 116/2/3
f 118/1/3 111/1/3 110/1/3
f 118/5/3 109/5/3 117/5/3
f 118/1/3 110/1/3 109/1/3
f 119/1/3 111/1/3 118/1/3
f 120/1/3 111/1/3 119/1/3
f 122/10/3 112/10/3 102/10/3
f 122/6/3 113/6/3 112/6/3
f 123/8/3 114/8/3 113/8/3
f 123/6/3 113/6/3 122/6/3
f 124/5/3 115/5/3 114/5/3
f 124/8/3 114/8/3 123/8/3
f 125/2/3 117/2/3 116/2/3
f 125/5/3 115/5/3 124/5/3
f 125/2/3 116/2/3 115/2/3
f 125/2/3 118/2/3 117/2/3
f 126/2/3 118/2/3 125/2/3
f 127/2/3 118/2/3 126/2/3
f 128/11/3 101/11/3 100/11/3
f 129/9/3 102/9/3 101/9/3
f 129/11/3 101/11/3 128/11/3
f 130/10/3 122/10/3 102/10/3
f 130/9/3 102/9/3 129/9/3
f 131/8/3 123/8/3 122/8/3
f 131/10/3 122/10/3 130/10/3
f 132/3/3 125/3/3 124/3/3
f 132/2/3 126/2/3 125/2/3
f 133/2/3 126/2/3 132/2/3
f 134/11/3 127/11/3 126/11/3
f 134/2/3 126/2/3 133/2/3
f 135/2/3 118/2/3 127/2/3
f 135/11/3 127/11/3 134/11/3
f 136/2/3 118/2/3 135/2/3
f 136/2/3 135/2/3 134/2/3
f 136/2/3 134/2/3 133/2/3
f 137/5/3 119/5/3 118/5/3
f 137/2/3 118/2/3 136/2/3
f 139/11/3 130/11/3 129/11/3
f 140/6/3 131/6/3 130/6/3
f 140/11/3 130/11/3 139/11/3
f 141/8/3 123/8/3 131/8/3
f 141/6/3 131/6/3 140/6/3
f 142/3/3 132/3/3 124/3/3
f 142/11/3 133/11/3 132/11/3
f 143/2/3 136/2/3 133/2/3
f 143/11/3 133/11/3 142/11/3
f 144/2/3 136/2/3 143/2/3
f 145/2/3 136/2/3 144/2/3
f 146/3/3 137/3/3 136/3/3
f 146/2/3 136/2/3 145/2/3
f 147/8/3 123/8/3 141/8/3
f 147/10/3 141/10/3 140/10/3
f 148/5/3 124/5/3 123/5/3
f 148/8/3 123/8/3 147/8/3
f 149/3/3 142/3/3 124/3/3
f 149/5/3 124/5/3 148/5/3
f 149/3/3 143/3/3 142/3/3
f 150/3/3 143/3/3 149/3/3
f 151/11/3 144/11/3 143/11/3
f 151/3/3 143/3/3 150/3/3
f 152/3/3 145/3/3 144/3/3
f 152/11/3 144/11/3 151/11/3
f 153/11/3 146/11/3 145/11/3
f 153/3/3 145/3/3 152/3/3
f 154/3/3 137/3/3 146/3/3
f 154/11/3 146/11/3 153/11/3
f 155/10/3 147/10/3 140/10/3
f 155/6/3 148/6/3 147/6/3
f 156/8/3 149/8/3 148/8/3
f 156/6/3 148/6/3 155/6/3
f 157/5/3 150/5/3 149/5/3
f 157/8/3 149/8/3 156/8/3
f 158/3/3 153/3/3 152/3/3
f 158/5/3 150/5/3 157/5/3
f 158/3/3 152/3/3 151/3/3
f 158/3/3 154/3/3 153/3/3
f 158/3/3 151/3/3 150/3/3
f 159/3/3 154/3/3 158/3/3
f 160/3/3 137/3/3 154/3/3
f 160/3/3 154/3/3 159/3/3
f 161/5/3 119/5/3 137/5/3
f 161/3/3 137/3/3 160/3/3
f 162/1/3 121/1/3 120/1/3
f 162/5/3 119/5/3 161/5/3
f 162/1/3 120/1/3 119/1/3
f 163/1/3 121/1/3 162/1/3
f 164/1/3 121/1/3 163/1/3
f 165/11/3 139/11/3 138/11/3
f 166/9/3 140/9/3 139/9/3
f 166/11/3 139/11/3 165/11/3
f 167/10/3 155/10/3 140/10/3
f 167/9/3 140/9/3 166/9/3
f 168/8/3 157/8/3 156/8/3
f 168/10/3 155/10/3 167/10/3
f 168/8/3 156/8/3 155/8/3
f 169/8/3 157/8/3 168/8/3
f 170/11/3 158/11/3 157/11/3
f 170/8/3 157/8/3 169/8/3
f 171/5/3 159/5/3 158/5/3
f 171/11/3 158/11/3 170/11/3
f 172/3/3 160/3/3 159/3/3
f 172/5/3 159/5/3 171/5/3
f 173/5/3 161/5/3 160/5/3
f 173/3/3 160/3/3 172/3/3
f 174/1/3 162/1/3 161/1/3
f 174/5/3 161/5/3 173/5/3
f 174/1/3 163/1/3 162/1/3
f 175/1/3 163/1/3 174/1/3
f 176/4/3 164/4/3 163/4/3
f 176/1/3 163/1/3 175/1/3
f 177/4/3 164/4/3 176/4/3
f 179/10/3 167/10/3 166/10/3
f 179/10/3 168/10/3 167/10/3
f 180/11/3 169/11/3 168/11/3
f 180/10/3 168/10/3 179/10/3
f 181/3/3 170/3/3 169/3/3
f 181/11/3 169/11/3 180/11/3
f 182/11/3 172/11/3 171/11/3
f 182/3/3 170/3/3 181/3/3
f 182/11/3 171/11/3 170/11/3
f 183/11/3 172/11/3 182/11/3
f 184/5/3 173/5/3 172/5/3
f 184/11/3 172/11/3 183/11/3
f 185/1/3 175/1/3 174/1/3
f 185/5/3 173/5/3 184/5/3
f 185/1/3 174/1/3 173/1/3
f 186/4/3 176/4/3 175/4/3
f 186/1/3 175/1/3 185/1/3
f 187/1/3 178/1/3 177/1/3
f 187/4/3 176/4/3 186/4/3
f 187/1/3 177/1/3 176/1/3
f 188/1/3 185/1/3 184/1/3
f 188/7/3 184/7/3 183/7/3
f 189/1/3 185/1/3 188/1/3
f 190/1/3 178/1/3 187/1/3
f 191/1/3 178/1/3 190/1/3
f 192/7/3 181/7/3 180/7/3
f 193/3/3 182/3/3 181/3/3
f 193/7/3 181/7/3 192/7/3
f 194/2/3 183/2/3 182/2/3
f 194/3/3 182/3/3 193/3/3
f 195/7/3 188/7/3 183/7/3
f 195/2/3 183/2/3 194/2/3
f 196/7/3 188/7/3 195/7/3
f 197/7/3 194/7/3 193/7/3
f 197/7/3 195/7/3 194/7/3
f 198/7/3 195/7/3 197/7/3
f 199/7/4 200/7/4 202/7/4
f 202/7/4 200/7/4 203/7/4
f 203/7/4 200/7/4 204/7/4
f 204/7/4 205/7/4 206/7/4
f 201/7/4 202/7/4 209/7/4
f 202/3/4 203/3/4 210/3/4
f 209/7/4 202/7/4 210/7/4
f 203/2/4 204/2/4 211/2/4
f 210/3/4 203/3/4 211/3/4
f 204/7/4 206/7/4 212/7/4
f 211/2/4 204/2/4 212/2/4
f 206/1/4 207/1/4 213/1/4
f 212/7/4 206/7/4 213/7/4
f 213/1/4 207/1/4 214/1/4
f 208/10/4 209/10/4 217/10/4
f 217/10/4 209/10/4 218/10/4
f 209/11/4 210/11/4 219/11/4
f 218/10/4 209/10/4 219/10/4
f 210/3/4 211/3/4 220/3/4
f 219/11/4 210/11/4 220/11/4
f 211/11/4 212/11/4 221/11/4
f 220/3/4 211/3/4 221/3/4
f 212/11/4 213/11/4 221/11/4
f 221/11/4 213/11/4 222/11/4
f 213/5/4 214/5/4 223/5/4
f 222/11/4 213/11/4 223/11/4
f 214/1/4 215/1/4 224/1/4
f 223/5/4 214/5/4 224/5/4
f 224/1/4 215/1/4 225/1/4
f 225/1/4 215/1/4 226/1/4
f 219/8/4 220/8/4 228/8/4
f 218/10/4 219/10/4 228/10/4
f 220/8/4 221/8/4 228/8/4
f 228/8/4 221/8/4 229/8/4
f 221/11/4 222/11/4 230/11/4
f 229/8/4 221/8/4 230/8/4
f 222/5/4 223/5/4 231/5/4
f 230/11/4 222/11/4 231/11/4
f 223/2/4 224/2/4 232/2/4
f 231/5/4 223/5/4 232/5/4
f 224/5/4 225/5/4 233/5/4
f 232/2/4 224/2/4 233/2/4
f 226/1/4 227/1/4 234/1/4
f 233/5/4 225/5/4 234/5/4
f 225/1/4 226/1/4 234/1/4
f 234/1/4 227/1/4 235/1/4
f 235/1/4 227/1/4 236/1/4
f 218/10/4 228/10/4 238/10/4
f 228/6/4 229/6/4 238/6/4
f 229/8/4 230/8/4 239/8/4
f 238/6/4 229/6/4 239/6/4
f 230/5/4 231/5/4 240/5/4
f 239/8/4 230/8/4 240/8/4
f 232/2/4 233/2/4 241/2/4
f 240/5/4 231/5/4 241/5/4
f 231/2/4 232/2/4 241/2/4
f 233/2/4 234/2/4 241/2/4
f 241/2/4 234/2/4 242/2/4
f 242/2/4 234/2/4 243/2/4
f 216/11/4 217/11/4 244/11/4
f 217/9/4 218/9/4 245/9/4
f 244/11/4 217/11/4 245/11/4
f 218/10/4 238/10/4 246/10/4
f 245/9/4 218/9/4 246/9/4
f 238/8/4 239/8/4 247/8/4
f 246/10/4 238/10/4 247/10/4
f 240/3/4 241/3/4 248/3/4
f 241/2/4 242/2/4 248/2/4
f 248/2/4 242/2/4 249/2/4
f 242/11/4 243/11/4 250/11/4
f 249/2/4 242/2/4 250/2/4
f 243/2/4 234/2/4 251/2/4
f 250/11/4 243/11/4 251/11/4
f 251/2/4 234/2/4 252/2/4
f 250/2/4 251/2/4 252/2/4
f 249/2/4 250/2/4 252/2/4
f 234/5/4 235/5/4 253/5/4
f 252/2/4 234/2/4 253/2/4
f 245/11/4 246/11/4 255/11/4
f 246/6/4 247/6/4 256/6/4
f 255/11/4 246/11/4 256/11/4
f 247/8/4 239/8/4 257/8/4
f 256/6/4 247/6/4 257/6/4
f 240/3/4 248/3/4 258/3/4
f 248/11/4 249/11/4 258/11/4
f 249/2/4 252/2/4 259/2/4
f 258/11/4 249/11/4 259/11/4
f 259/2/4 252/2/4 260/2/4
f 260/2/4 252/2/4 261/2/4
f 252/3/4 253/3/4 262/3/4
f 261/2/4 252/2/4 262/2/4
f 257/8/4 239/8/4 263/8/4
f 256/10/4 257/10/4 263/10/4
f 239/5/4 240/5/4 264/5/4
f 263/8/4 239/8/4 264/8/4
f 240/3/4 258/3/4 265/3/4
f 264/5/4 240/5/4 265/5/4
f 258/3/4 259/3/4 265/3/4
f 265/3/4 259/3/4 266/3/4
f 259/11/4 260/11/4 267/11/4
f 266/3/4 259/3/4 267/3/4
f 260/3/4 261/3/4 268/3/4
f 267/11/4 260/11/4 268/11/4
f 261/11/4 262/11/4 269/11/4
f 268/3/4 261/3/4 269/3/4
f 262/3/4 253/3/4 270/3/4
f 269/11/4 262/11/4 270/11/4
f 256/10/4 263/10/4 271/10/4
f 263/6/4 264/6/4 271/6/4
f 264/8/4 265/8/4 272/8/4
f 271/6/4 264/6/4 272/6/4
f 265/5/4 266/5/4 273/5/4
f 272/8/4 265/8/4 273/8/4
f 268/3/4 269/3/4 274/3/4
f 273/5/4 266/5/4 274/5/4
f 267/3/4 268/3/4 274/3/4
f 269/3/4 270/3/4 274/3/4
f 266/3/4 267/3/4 274/3/4
f 274/3/4 270/3/4 275/3/4
f 270/3/4 253/3/4 276/3/4
f 275/3/4 270/3/4 276/3/4
f 253/5/4 235/5/4 277/5/4
f 276/3/4 253/3/4 277/3/4
f 236/1/4 237/1/4 278/1/4
f 277/5/4 235/5/4 278/5/4
f 235/1/4 236/1/4 278/1/4
f 278/1/4 237/1/4 279/1/4
f 279/1/4 237/1/4 280/1/4
f 254/11/4 255/11/4 281/11/4
f 255/9/4 256/9/4 282/9/4
f 281/11/4 255/11/4 282/11/4
f 256/10/4 271/10/4 283/10/4
f 282/9/4 256/9/4 283/9/4
f 272/8/4 273/8/4 284/8/4
f 283/10/4 271/10/4 284/10/4
f 271/8/4 272/8/4 284/8/4
f 284/8/4 273/8/4 285/8/4
f 273/11/4 274/11/4 286/11/4
f 285/8/4 273/8/4 286/8/4
f 274/5/4 275/5/4 287/5/4
f 286/11/4 274/11/4 287/11/4
f 275/3/4 276/3/4 288/3/4
f 287/5/4 275/5/4 288/5/4
f 276/5/4 277/5/4 289/5/4
f 288/3/4 276/3/4 289/3/4
f 277/1/4 278/1/4 290/1/4
f 289/5/4 277/5/4 290/5/4
f 278/1/4 279/1/4 290/1/4
f 290/1/4 279/1/4 291/1/4
f 279/4/4 280/4/4 292/4/4
f 291/1/4 279/1/4 292/1/4
f 292/4/4 280/4/4 293/4/4
f 282/10/4 283/10/4 295/10/4
f 283/10/4 284/10/4 295/10/4
f 284/11/4 285/11/4 296/11/4
f 295/10/4 284/10/4 296/10/4
f 285/3/4 286/3/4 297/3/4
f 296/11/4 285/11/4 297/11/4
f 287/11/4 288/11/4 298/11/4
f 297/3/4 286/3/4 298/3/4
f 286/11/4 287/11/4 298/11/4
f 298/11/4 288/11/4 299/11/4
f 288/5/4 289/5/4 300/5/4
f 299/11/4 288/11/4 300/11/4
f 290/1/4 291/1/4 301/1/4
f 300/5/4 289/5/4 301/5/4
f 289/1/4 290/1/4 301/1/4
f 291/4/4 292/4/4 302/4/4
f 301/1/4 291/1/4 302/1/4
f 293/1/4 294/1/4 303/1/4
f 302/4/4 292/4/4 303/4/4
f 292/1/4 293/1/4 303/1/4
f 300/1/4 301/1/4 304/1/4
f 299/7/4 300/7/4 304/7/4
f 304/1/4 301/1/4 305/1/4
f 303/1/4 294/1/4 306/1/4
f 306/1/4 294/1/4 307/1/4
f 296/7/4 297/7/4 308/7/4
f 297/3/4 298/3/4 309/3/4
f 308/7/4 297/7/4 309/7/4
f 298/2/4 299/2/4 310/2/4
f 309/3/4 298/3/4 310/3/4
f 299/7/4 304/7/4 311/7/4
f 310/2/4 299/2/4 311/2/4
f 311/7/4 304/7/4 312/7/4
f 309/7/4 310/7/4 313/7/4
f 310/7/4 311/7/4 313/7/4
f 313/7/4 311/7/4 314/7/4
f 319/11/5 316/11/5 315/11/5
f 320/11/5 316/11/5 319/11/5
f 321/11/5 318/11/5 317/11/5
f 322/11/5 318/11/5 321/11/5
f 329/10/5 324/10/5 323/10/5
f 330/10/5 324/10/5 329/10/5
f 331/11/5 326/11/5 325/11/5
f 332/11/5 326/11/5 331/11/5
f 333/10/5 328/10/5 327/10/5
f 334/10/5 328/10/5 333/10/5
f 339/7/5 336/7/5 335/7/5
f 340/7/5 336/7/5 339/7/5
f 341/7/5 338/7/5 337/7/5
f 342/7/5 338/7/5 341/7/5
f 347/7/5 344/7/5 343/7/5
f 348/7/5 344/7/5 347/7/5
f 349/7/5 346/7/5 345/7/5
f 350/7/5 346/7/5 349/7/5
f 353/1/5 352/1/5 351/1/5
f 354/1/5 352/1/5 353/1/5
f 355/7/6 356/7/6 359/7/6
f 359/7/6 356/7/6 360/7/6
f 357/7/6 358/7/6 361/7/6
f 361/7/6 358/7/6 362/7/6
f 363/7/6 364/7/6 367/7/6
f 367/7/6 364/7/6 368/7/6
f 365/7/6 366/7/6 369/7/6
f 369/7/6 366/7/6 370/7/6
f 371/1/6 372/1/6 375/1/6
f 375/1/6 372/1/6 376/1/6
f 373/1/6 374/1/6 377/1/6
f 377/1/6 374/1/6 378/1/6
f 379/1/6 380/1/6 381/1/6
f 381/1/6 380/1/6 382/1/6
f 383/1/6 384/1/6 385/1/6
f 385/1/6 384/1/6 386/1/6
f 387/1/6 388/1/6 390/1/6
f 388/4/6 389/4/6 391/4/6
f 390/1/6 388/1/6 391/1/6
f 391/4/6 389/4/6 392/4/6
f 393/1/6 394/1/6 395/1/6
f 395/1/6 394/1/6 396/1/6
